<?xml version="1.0" encoding="UTF-8" standalone="no"?><!DOCTYPE svg PUBLIC "-//W3C//DTD SVG 1.1//EN" "http://www.w3.org/Graphics/SVG/1.1/DTD/svg11.dtd"><svg width="100%" height="100%" viewBox="0 0 206 206" version="1.1" xmlns="http://www.w3.org/2000/svg" xmlns:xlink="http://www.w3.org/1999/xlink" xml:space="preserve" xmlns:serif="http://www.serif.com/" style="fill-rule:evenodd;clip-rule:evenodd;stroke-linejoin:round;stroke-miterlimit:2;"><g><g><path d="M7.857,84.935c-9.923,9.917 -9.922,26.009 -0,35.931c9.92,9.917 26.007,9.917 35.926,-0l46.798,-46.798l0.011,0.007c6.732,-6.734 17.65,-6.734 24.384,0l10.952,-10.95l-12.204,-12.202l6.992,-6.992c9.923,-9.921 9.925,-26.009 0.001,-35.929c-9.918,-9.921 -26.007,-9.918 -35.929,0l-45.395,45.509l-31.536,31.424Z" style="fill:url(#_Linear1);"/></g><g><path d="M84.719,8.13l-45.326,45.381c0.155,-0.155 0.312,-0.287 0.471,-0.441l13.674,-13.676c7.39,-7.388 19.37,-7.39 26.759,-0l22.488,22.487l-0,-0.006l28.904,28.907l-0.003,0.003c6.734,6.733 6.734,17.654 0,24.388l6.916,6.915l12.194,-12.195l10.97,10.973c9.924,9.914 26.011,9.917 35.931,-0c9.922,-9.925 9.92,-26.014 0,-35.932l-76.933,-76.932c-9.715,-9.715 -24.918,-10.324 -34.879,-1.014l-0.416,0.393l-0.513,0.513l-0.119,0.108l-0.118,0.128Z" style="fill:url(#_Linear2);"/></g><g><path d="M166.408,80.387l-17.353,17.353c-2.95,3.307 -5.17,5.227 -5.17,5.227l0.008,0l-58.988,58.985c-9.92,9.92 -9.92,26.008 -0.002,35.929c9.922,9.923 26.011,9.92 35.931,-0.001l76.931,-76.933c9.719,-9.712 10.324,-24.919 1.016,-34.876l-0.394,-0.42l-0.513,-0.514l-0.107,-0.116l-0.129,-0.118l-30.461,-30.426c6.59,7.43 6.349,18.794 -0.769,25.91Z" style="fill:url(#_Radial3);"/></g></g><defs><linearGradient id="_Linear1" x1="0" y1="0" x2="1" y2="0" gradientUnits="userSpaceOnUse" gradientTransform="matrix(-2.11214e-14,114.979,-114.979,-2.11214e-14,23.9659,12.8412)"><stop offset="0" style="stop-color:#313497;stop-opacity:1"/><stop offset="0.54" style="stop-color:#335897;stop-opacity:1"/><stop offset="1" style="stop-color:#3cd697;stop-opacity:1"/></linearGradient><linearGradient id="_Linear2" x1="0" y1="0" x2="1" y2="0" gradientUnits="userSpaceOnUse" gradientTransform="matrix(-2.80456e-14,152.673,-152.673,-2.80456e-14,122.265,0.348606)"><stop offset="0" style="stop-color:#446afb;stop-opacity:1"/><stop offset="1" style="stop-color:#302f8f;stop-opacity:1"/></linearGradient><radialGradient id="_Radial3" cx="0" cy="0" r="1" gradientUnits="userSpaceOnUse" gradientTransform="matrix(-113.233,-113.233,113.233,-113.233,120.166,207.239)"><stop offset="0" style="stop-color:#3cd697;stop-opacity:1"/><stop offset="0.54" style="stop-color:#24e1d6;stop-opacity:1"/><stop offset="1" style="stop-color:#1be5ef;stop-opacity:1"/></radialGradient></defs></svg>