<?xml version="1.0" encoding="UTF-8" standalone="no"?><!DOCTYPE svg PUBLIC "-//W3C//DTD SVG 1.1//EN" "http://www.w3.org/Graphics/SVG/1.1/DTD/svg11.dtd"><svg width="100%" height="100%" viewBox="0 0 1229 205" version="1.1" xmlns="http://www.w3.org/2000/svg" xmlns:xlink="http://www.w3.org/1999/xlink" xml:space="preserve" xmlns:serif="http://www.serif.com/" style="fill-rule:evenodd;clip-rule:evenodd;stroke-linejoin:round;stroke-miterlimit:2;"><rect id="Artboard1" x="0" y="0" width="1228.16" height="204.974" style="fill:none;"/><g><path d="M7.442,84.587c-9.923,9.917 -9.922,26.009 -0,35.931c9.92,9.917 26.007,9.917 35.926,0l46.798,-46.798l0.011,0.007c6.732,-6.734 17.65,-6.734 24.384,0l10.952,-10.95l-12.204,-12.202l6.992,-6.992c9.923,-9.921 9.925,-26.009 0.001,-35.929c-9.918,-9.921 -26.007,-9.918 -35.929,0l-45.395,45.509l-31.536,31.424Z" style="fill:url(#_Linear1);"/></g><g><path d="M84.304,7.782l-45.326,45.381c0.155,-0.155 0.312,-0.287 0.471,-0.441l13.674,-13.676c7.39,-7.388 19.37,-7.39 26.759,0l22.488,22.487l-0,-0.006l28.904,28.907l-0.003,0.003c6.734,6.733 6.734,17.654 -0,24.388l6.916,6.915l12.194,-12.195l10.97,10.973c9.924,9.914 26.011,9.917 35.931,0c9.922,-9.925 9.92,-26.014 -0,-35.932l-76.933,-76.932c-9.715,-9.715 -24.918,-10.324 -34.879,-1.014l-0.416,0.393l-0.513,0.513l-0.119,0.108l-0.118,0.128Z" style="fill:url(#_Linear2);"/></g><g><path d="M165.993,80.039l-17.353,17.353c-2.95,3.307 -5.17,5.227 -5.17,5.227l0.008,0l-58.988,58.985c-9.92,9.92 -9.92,26.008 -0.002,35.929c9.922,9.923 26.011,9.92 35.931,-0.001l76.931,-76.933c9.719,-9.712 10.324,-24.919 1.016,-34.876l-0.394,-0.42l-0.513,-0.514l-0.107,-0.116l-0.129,-0.118l-30.461,-30.426c6.59,7.43 6.349,18.794 -0.769,25.91Z" style="fill:url(#_Radial3);"/></g><g><path d="M313.245,39.618c9.734,-0.054 20.684,2.082 32.85,6.408l-5.11,19.466c-11.301,-4.001 -20.494,-6.002 -27.578,-6.002c-5.731,0 -10.247,1.136 -13.545,3.407c-3.299,2.271 -4.948,5.353 -4.948,9.247c0,4.217 1.528,7.57 4.583,10.057c3.055,2.488 8.638,4.786 16.749,6.895c11.951,3.082 20.44,7.34 25.469,12.775c5.029,5.434 7.544,12.91 7.544,22.427c-0,11.518 -3.88,20.345 -11.64,26.483c-7.76,6.137 -18.831,9.206 -33.215,9.206c-11.734,-0 -24.306,-2.65 -37.717,-7.949l6.003,-18.899c7.408,2.65 13.464,4.502 18.169,5.556c4.704,1.055 9.165,1.582 13.383,1.582c6.11,-0 10.828,-1.311 14.154,-3.934c3.325,-2.623 4.988,-6.259 4.988,-10.91c0,-2.974 -0.703,-5.461 -2.109,-7.462c-1.406,-2 -3.785,-3.798 -7.138,-5.394c-3.352,-1.595 -8.192,-3.176 -14.518,-4.745c-10.545,-2.541 -18.25,-6.488 -23.117,-11.842c-4.867,-5.353 -7.3,-12.41 -7.3,-21.17c-0,-11.193 3.853,-19.858 11.558,-25.996c7.706,-6.137 18.534,-9.206 32.485,-9.206Z" style="fill:#fff;fill-rule:nonzero;"/><path d="M389.571,83.905c7.678,-8.977 17.763,-13.465 30.254,-13.465c9.085,0 16.087,2.663 21.008,7.99c4.921,5.326 7.381,12.856 7.381,22.589l-0,57.832l-24.901,0l-0,-56.453c-0,-5.083 -1,-8.76 -3.001,-11.031c-2.001,-2.271 -5.218,-3.407 -9.652,-3.407c-4.002,0 -7.733,0.906 -11.194,2.717c-3.46,1.812 -6.245,4.259 -8.354,7.341l-0,60.833l-24.982,0l-0,-87.032l20.764,0l2.677,12.086Z" style="fill:#fff;fill-rule:nonzero;"/><path d="M503.045,70.116c12.275,-0 21.684,3.028 28.227,9.084c6.543,6.056 9.814,14.844 9.814,26.361l0,53.29l-20.602,0l-2.839,-10.301c-3.569,3.785 -7.584,6.665 -12.045,8.638c-4.461,1.974 -9.233,2.961 -14.316,2.961c-8.976,0 -16.101,-2.325 -21.373,-6.976c-5.272,-4.65 -7.908,-10.895 -7.908,-18.736c-0,-9.085 3.826,-16.168 11.477,-21.251c7.652,-5.083 18.345,-7.625 32.079,-7.625l10.626,0l0,-2.19c-0.324,-10.057 -6.029,-15.086 -17.114,-15.086c-3.786,-0 -8.166,0.554 -13.14,1.662c-4.975,1.109 -9.463,2.528 -13.465,4.259l-5.272,-16.79c5.732,-2.325 11.761,-4.123 18.088,-5.394c6.326,-1.271 12.248,-1.906 17.763,-1.906Zm4.623,49.072c-7.083,-0 -12.585,1.217 -16.506,3.65c-3.92,2.433 -5.88,5.813 -5.88,10.139c-0,3.569 1.081,6.286 3.244,8.151c2.163,1.866 5.218,2.799 9.166,2.799c3.569,-0 6.989,-0.784 10.26,-2.352c3.272,-1.569 6.016,-3.677 8.233,-6.327l0,-16.06l-8.517,-0Z" style="fill:#fff;fill-rule:nonzero;"/><path d="M611.166,70.684c12.059,-0 21.44,3.731 28.146,11.193c6.705,7.462 10.057,18.061 10.057,31.795c0,9.626 -1.919,17.926 -5.759,24.901c-3.839,6.976 -9.273,12.316 -16.303,16.02c-7.029,3.704 -15.357,5.556 -24.982,5.556c-4.542,0 -9.409,-0.595 -14.6,-1.784l-0,38.527l-24.901,0l-0,-125.073l19.061,0l3.812,10.301c3.677,-4.001 7.53,-6.908 11.559,-8.719c4.028,-1.812 8.665,-2.717 13.91,-2.717Zm-10.301,72.513c7.516,-0 13.289,-2.434 17.317,-7.3c4.029,-4.867 6.043,-12.005 6.043,-21.414c-0,-17.519 -6.083,-26.252 -18.25,-26.198c-4.434,-0 -8.233,1.189 -11.396,3.569c-3.163,2.379 -5.448,5.731 -6.854,10.057l-0,39.501c3.19,0.757 5.597,1.244 7.219,1.46c1.622,0.217 3.596,0.325 5.921,0.325Z" style="fill:#fff;fill-rule:nonzero;"/><path d="M697.144,70.116c8.219,-0 17.817,1.892 28.794,5.678l-5.191,16.303c-5.732,-1.893 -10.287,-3.204 -13.667,-3.934c-3.38,-0.73 -6.394,-1.095 -9.044,-1.095c-4.11,-0 -7.354,0.784 -9.733,2.352c-2.38,1.568 -3.569,3.677 -3.569,6.327c-0,2.541 1.135,4.529 3.406,5.962c2.272,1.432 5.678,2.825 10.22,4.177c6.327,1.784 11.342,3.447 15.047,4.988c3.704,1.541 6.989,4.11 9.855,7.706c2.865,3.596 4.298,8.503 4.298,14.721c0,8.544 -3.176,15.209 -9.53,19.994c-6.354,4.786 -15.073,7.178 -26.158,7.178c-11.626,0 -22.766,-2.325 -33.418,-6.975l6.002,-16.385c6.327,2.326 11.45,3.961 15.371,4.908c3.92,0.946 7.421,1.419 10.503,1.419c4.326,0 7.598,-0.811 9.815,-2.433c2.217,-1.622 3.325,-3.921 3.325,-6.895c0,-2.974 -1.27,-5.164 -3.812,-6.57c-2.541,-1.406 -6.651,-2.92 -12.329,-4.542c-5.299,-1.568 -9.719,-3.177 -13.261,-4.826c-3.542,-1.649 -6.584,-4.258 -9.125,-7.827c-2.542,-3.569 -3.813,-8.273 -3.813,-14.113c0,-8.22 3.177,-14.628 9.531,-19.224c6.354,-4.596 15.181,-6.894 26.483,-6.894Z" style="fill:#fff;fill-rule:nonzero;"/><path d="M771.36,88.934l46.396,-0l-0,18.412l-46.396,-0l0,32.769l53.047,-0l0,18.736l-78.434,0l-0,-117.773l76.731,-0l-0,18.737l-51.344,-0l0,29.119Z" style="fill:#fff;fill-rule:nonzero;"/><path d="M898.948,148.388c-3.677,4.001 -7.557,6.935 -11.639,8.8c-4.083,1.866 -8.72,2.799 -13.911,2.799c-11.95,-0 -21.278,-3.758 -27.983,-11.275c-6.705,-7.516 -10.058,-18.087 -10.058,-31.714c0,-14.492 4.177,-25.874 12.532,-34.148c8.354,-8.273 19.831,-12.41 34.431,-12.41c4.218,0 9.085,0.568 14.6,1.704l0,-38.204l24.982,0l0,124.749l-19.142,0l-3.812,-10.301Zm-20.44,-6.002c4.326,-0 8.125,-1.217 11.396,-3.65c3.272,-2.434 5.61,-5.813 7.016,-10.139l0,-39.339c-3.19,-0.757 -5.65,-1.284 -7.381,-1.582c-1.73,-0.297 -3.677,-0.446 -5.84,-0.446c-7.516,0 -13.275,2.447 -17.276,7.341c-4.002,4.893 -6.003,12.099 -6.003,21.616c0,17.52 6.03,26.253 18.088,26.199Z" style="fill:#fff;fill-rule:nonzero;"/><path d="M944.289,36.779l24.901,0l0,22.711l-24.901,0l0,-22.711Zm0,36.013l24.901,0l0,86.059l-24.901,0l0,-86.059Z" style="fill:#fff;fill-rule:nonzero;"/><path d="M1047.38,155.526c-7.516,3.082 -14.708,4.623 -21.575,4.623c-19.142,0 -28.714,-9.138 -28.714,-27.416l0,-43.475l-14.356,-0l-0,-17.439l15.979,0l4.785,-24.901l18.331,-0l0,24.901l23.766,0l-0,17.439l-23.766,-0l0,39.988c0,4.434 0.825,7.597 2.474,9.49c1.649,1.892 4.475,2.839 8.476,2.839c3.407,-0 7.057,-0.676 10.95,-2.028l3.65,15.979Z" style="fill:#fff;fill-rule:nonzero;"/><path d="M1100.18,69.791c14.329,0 25.306,3.907 32.931,11.721c7.624,7.814 11.436,19.02 11.436,33.62c0,14.6 -3.812,25.848 -11.436,33.743c-7.625,7.894 -18.602,11.842 -32.931,11.842c-14.168,-0 -25.091,-3.934 -32.769,-11.802c-7.679,-7.868 -11.518,-19.129 -11.518,-33.783c-0,-14.6 3.812,-25.806 11.437,-33.62c7.624,-7.814 18.574,-11.721 32.85,-11.721Zm-0,18.656c-12.816,-0.054 -19.224,8.841 -19.224,26.685c0,17.845 6.408,26.767 19.224,26.767c12.869,0 19.304,-8.922 19.304,-26.767c-0,-17.844 -6.435,-26.739 -19.304,-26.685Z" style="fill:#fff;fill-rule:nonzero;"/><path d="M1184.38,83.905c5.461,-8.977 13.113,-13.465 22.954,-13.465c2.109,0 3.907,0.122 5.394,0.365c1.487,0.244 3.393,0.69 5.718,1.339l-2.838,21.737c-4.651,-1.676 -8.76,-2.487 -12.329,-2.433c-3.894,-0 -7.192,0.689 -9.896,2.068c-2.704,1.379 -4.975,3.556 -6.813,6.53l-0,58.805l-24.982,0l-0,-87.032l19.791,0l3.001,12.086Z" style="fill:#fff;fill-rule:nonzero;"/></g><defs><linearGradient id="_Linear1" x1="0" y1="0" x2="1" y2="0" gradientUnits="userSpaceOnUse" gradientTransform="matrix(-1.849e-14,114.979,-114.979,-1.849e-14,23.5508,12.4935)"><stop offset="0" style="stop-color:#313497;stop-opacity:1"/><stop offset="0.54" style="stop-color:#335897;stop-opacity:1"/><stop offset="1" style="stop-color:#3cd697;stop-opacity:1"/></linearGradient><linearGradient id="_Linear2" x1="0" y1="0" x2="1" y2="0" gradientUnits="userSpaceOnUse" gradientTransform="matrix(-2.45517e-14,152.673,-152.673,-2.45517e-14,121.85,0.000953392)"><stop offset="0" style="stop-color:#446afb;stop-opacity:1"/><stop offset="1" style="stop-color:#302f8f;stop-opacity:1"/></linearGradient><radialGradient id="_Radial3" cx="0" cy="0" r="1" gradientUnits="userSpaceOnUse" gradientTransform="matrix(-113.233,-113.233,113.233,-113.233,119.751,206.891)"><stop offset="0" style="stop-color:#3cd697;stop-opacity:1"/><stop offset="0.54" style="stop-color:#24e1d6;stop-opacity:1"/><stop offset="1" style="stop-color:#1be5ef;stop-opacity:1"/></radialGradient></defs></svg>