<svg width="124" height="176" viewBox="0 0 124 176" fill="none" xmlns="http://www.w3.org/2000/svg">
<path d="M61.7319 140.867C95.0447 140.867 122.188 113.816 122.188 80.5918C122.188 47.255 95.1568 20.3163 61.7319 20.3163C28.307 20.204 1.27539 47.1428 1.27539 80.4795C1.27539 113.816 28.307 140.867 61.7319 140.867Z" fill="#2A2E37"/>
<path d="M53.9931 91.1429L52.8714 88.0001C52.6471 87.2144 51.862 86.7654 51.0768 86.7654H31.2237C29.5413 86.7654 28.1953 88.0001 28.1953 89.796V134.133V128.837C28.1953 127.732 29.0907 126.837 30.1953 126.837H93.7182C94.8227 126.837 95.7182 125.941 95.7182 124.837V95.4082C95.7182 93.7246 94.4844 92.3776 92.6897 92.3776H55.6755C55.1147 92.3776 54.3296 91.9286 53.9931 91.1429Z" fill="#474E61"/>
<g filter="url(#filter0_d_111_823)">
<path d="M95.1716 110.734L90.5035 115.936C90.2178 117.66 88.6935 119 86.9787 119H35.7257C33.9156 119 32.4866 117.755 32.2008 115.936L28.2949 116C28.0091 114.181 29.3429 112.457 31.2482 112.457H60.1137C60.9711 112.457 61.7333 111.883 62.0191 111.021L62.8764 108.436C63.1622 107.574 63.9244 107 64.7818 107H92.3136C94.0284 107.191 95.4574 108.819 95.1716 110.734Z" fill="url(#paint0_linear_111_823)"/>
</g>
<g filter="url(#filter1_d_111_823)">
<path d="M101.102 104.949L95.6055 139.184C95.269 141.204 93.4744 142.776 91.4555 142.776H31.1111C28.98 142.776 27.2975 141.316 26.961 139.184L22.3623 111.123C22.0258 108.99 23.5961 106.969 25.8394 106.969H59.8252C60.8346 106.969 61.732 106.296 62.0684 105.286L63.0779 102.255C63.4144 101.245 64.3117 100.572 65.3212 100.572H97.7367C99.7556 100.796 101.438 102.704 101.102 104.949Z" fill="#5C6479"/>
</g>
<g filter="url(#filter2_d_111_823)">
<path d="M76.5377 21.7755L83.4919 58.5918C83.7163 59.8265 82.8189 61.0612 81.5851 61.2857L45.5804 67.6837C44.3466 67.9082 43.1128 67.0102 42.8885 65.8878L34.7005 18.2959C34.4762 17.0612 35.3735 15.8265 36.6073 15.602L62.6294 11L76.5377 21.7755Z" fill="#5C6479"/>
</g>
<path d="M62.6294 11.1123L64.424 21.3266C64.6483 22.7858 66.1065 23.6837 67.5646 23.4592L76.6499 21.8878" fill="#393F4E"/>
<g filter="url(#filter3_d_111_823)">
<path d="M84.8377 25.3674L85.3985 62.8572C85.3985 64.0919 84.389 65.1021 83.0431 65.1021H46.4775C45.2437 65.1021 44.1221 64.0919 44.1221 62.8572V14.7041C44.1221 13.4694 45.1315 12.4592 46.4775 12.4592H72.9483L84.8377 25.3674Z" fill="#5C6479"/>
</g>
<path d="M92.3244 58.4185C93.3713 58.4185 94.2088 59.2566 94.2088 60.3042V72.4566C94.2088 75.1804 92.1151 77.2756 89.3932 77.2756H81.437C80.5995 77.2756 79.762 77.0661 79.3433 76.4375C77.4589 74.7613 73.4808 71.409 72.6433 70.1518C72.434 69.7328 72.2246 69.5233 72.2246 69.1042V66.3804C72.2246 64.7042 73.4808 63.4471 75.1558 63.4471H76.2027V68.6852H76.8308V57.7899C76.8308 56.7423 77.6683 55.9042 78.7152 55.9042C79.762 55.9042 80.5995 56.7423 80.5995 57.7899V59.8852H81.2276V57.1613C81.2276 56.1137 82.0651 55.2756 83.112 55.2756C84.1589 55.2756 84.9964 56.1137 84.9964 57.1613V59.8852H85.8339V58.4185C85.8339 57.3709 86.6713 56.5328 87.7182 56.5328C88.7651 56.5328 89.6026 57.3709 89.6026 58.4185V59.8852H90.4401C90.6494 59.0471 91.2776 58.4185 92.3244 58.4185Z" fill="white" stroke="#C6CDDF" stroke-width="2" stroke-miterlimit="10" stroke-linecap="round" stroke-linejoin="round"/>
<path d="M67.9003 20.3163H50.2905C49.8419 20.3163 49.5054 19.9796 49.5054 19.5306C49.5054 19.0816 49.8419 18.7449 50.2905 18.7449H67.7881C68.2368 18.7449 68.5733 19.0816 68.5733 19.5306C68.5733 19.9796 68.2368 20.3163 67.9003 20.3163Z" fill="#8E96AB"/>
<path d="M57.1327 24.4694H50.4028C49.9542 24.4694 49.6177 24.1326 49.6177 23.6837C49.6177 23.2347 49.9542 22.8979 50.4028 22.8979H57.1327C57.5813 22.8979 57.9178 23.2347 57.9178 23.6837C57.8057 24.1326 57.4692 24.4694 57.1327 24.4694Z" fill="#8E96AB"/>
<path d="M72.9482 12.4592V22.7858C72.9482 24.2449 74.1821 25.3674 75.6402 25.3674H84.8376" fill="#393F4E"/>
<path d="M79.6781 47.5918H59.4885H57.2453H50.5154C50.2911 47.5918 49.9546 47.8163 49.9546 48.2653C49.9546 48.602 50.1789 48.9387 50.5154 48.9387H57.2453H59.4885H79.6781C79.9024 48.9387 80.2389 48.7142 80.2389 48.2653C80.1268 47.8163 80.0146 47.5918 79.6781 47.5918Z" fill="#8E96AB"/>
<path d="M68.013 52.5308H59.4885H57.2453H50.5154C50.2911 52.5308 49.9546 52.7553 49.9546 53.2042C49.9546 53.541 50.1789 53.8777 50.5154 53.8777H57.2453H59.4885H68.013C68.2374 53.8777 68.5738 53.6532 68.5738 53.2042C68.5738 52.7553 68.3495 52.5308 68.013 52.5308Z" fill="#8E96AB"/>
<path d="M79.6781 42.8777H72.1631H69.5833H50.5154C50.2911 42.8777 49.9546 43.1022 49.9546 43.5512C49.9546 43.8879 50.1789 44.2246 50.5154 44.2246H69.5833H72.1631H79.6781C79.9024 44.2246 80.2389 44.0001 80.2389 43.5512C80.1268 43.1022 79.9024 42.8777 79.6781 42.8777Z" fill="#8E96AB"/>
<path d="M79.7903 38.051H77.8835H75.9767H50.5154C50.2911 38.051 49.9546 38.2755 49.9546 38.7245C49.9546 39.0612 50.1789 39.398 50.5154 39.398H75.8645H77.9956H79.7903C80.0146 39.398 80.3511 39.1735 80.3511 38.7245C80.3511 38.3878 80.0146 38.051 79.7903 38.051Z" fill="#8E96AB"/>
<path d="M80.0146 33.3367H73.6212H72.0509H50.5154C50.2911 33.3367 49.9546 33.5612 49.9546 34.0101C49.9546 34.3469 50.1789 34.6836 50.5154 34.6836H72.0509H73.6212H79.9024C80.2389 34.6836 80.4632 34.4591 80.4632 34.0101C80.5754 33.6734 80.3511 33.3367 80.0146 33.3367Z" fill="#8E96AB"/>
<path d="M61.7319 50.3979V90.4694" stroke="white" stroke-width="3" stroke-miterlimit="10" stroke-linecap="round" stroke-linejoin="round" stroke-dasharray="3 7"/>
<path d="M68.2376 93.3877L61.7321 99.8979L55.2266 93.3877" stroke="white" stroke-width="3" stroke-miterlimit="10" stroke-linecap="round" stroke-linejoin="round"/>
<defs>
<filter id="filter0_d_111_823" x="16.2563" y="92" width="90.9517" height="36" filterUnits="userSpaceOnUse" color-interpolation-filters="sRGB">
<feFlood flood-opacity="0" result="BackgroundImageFix"/>
<feColorMatrix in="SourceAlpha" type="matrix" values="0 0 0 0 0 0 0 0 0 0 0 0 0 0 0 0 0 0 127 0" result="hardAlpha"/>
<feOffset dy="-3"/>
<feGaussianBlur stdDeviation="6"/>
<feColorMatrix type="matrix" values="0 0 0 0 0.397708 0 0 0 0 0.47749 0 0 0 0 0.575 0 0 0 0.27 0"/>
<feBlend mode="normal" in2="BackgroundImageFix" result="effect1_dropShadow_111_823"/>
<feBlend mode="normal" in="SourceGraphic" in2="effect1_dropShadow_111_823" result="shape"/>
</filter>
<filter id="filter1_d_111_823" x="0.316895" y="89.5715" width="122.828" height="86.2041" filterUnits="userSpaceOnUse" color-interpolation-filters="sRGB">
<feFlood flood-opacity="0" result="BackgroundImageFix"/>
<feColorMatrix in="SourceAlpha" type="matrix" values="0 0 0 0 0 0 0 0 0 0 0 0 0 0 0 0 0 0 127 0" result="hardAlpha"/>
<feOffset dy="11"/>
<feGaussianBlur stdDeviation="11"/>
<feColorMatrix type="matrix" values="0 0 0 0 0 0 0 0 0 0 0 0 0 0 0 0 0 0 0.27 0"/>
<feBlend mode="normal" in2="BackgroundImageFix" result="effect1_dropShadow_111_823"/>
<feBlend mode="normal" in="SourceGraphic" in2="effect1_dropShadow_111_823" result="shape"/>
</filter>
<filter id="filter2_d_111_823" x="12.666" y="0" width="92.8604" height="100.718" filterUnits="userSpaceOnUse" color-interpolation-filters="sRGB">
<feFlood flood-opacity="0" result="BackgroundImageFix"/>
<feColorMatrix in="SourceAlpha" type="matrix" values="0 0 0 0 0 0 0 0 0 0 0 0 0 0 0 0 0 0 127 0" result="hardAlpha"/>
<feOffset dy="11"/>
<feGaussianBlur stdDeviation="11"/>
<feColorMatrix type="matrix" values="0 0 0 0 0 0 0 0 0 0 0 0 0 0 0 0 0 0 0.27 0"/>
<feBlend mode="normal" in2="BackgroundImageFix" result="effect1_dropShadow_111_823"/>
<feBlend mode="normal" in="SourceGraphic" in2="effect1_dropShadow_111_823" result="shape"/>
</filter>
<filter id="filter3_d_111_823" x="22.1221" y="1.45923" width="85.2764" height="96.6428" filterUnits="userSpaceOnUse" color-interpolation-filters="sRGB">
<feFlood flood-opacity="0" result="BackgroundImageFix"/>
<feColorMatrix in="SourceAlpha" type="matrix" values="0 0 0 0 0 0 0 0 0 0 0 0 0 0 0 0 0 0 127 0" result="hardAlpha"/>
<feOffset dy="11"/>
<feGaussianBlur stdDeviation="11"/>
<feColorMatrix type="matrix" values="0 0 0 0 0 0 0 0 0 0 0 0 0 0 0 0 0 0 0.27 0"/>
<feBlend mode="normal" in2="BackgroundImageFix" result="effect1_dropShadow_111_823"/>
<feBlend mode="normal" in="SourceGraphic" in2="effect1_dropShadow_111_823" result="shape"/>
</filter>
<linearGradient id="paint0_linear_111_823" x1="43.6141" y1="110.15" x2="44.8483" y2="121.808" gradientUnits="userSpaceOnUse">
<stop stop-color="#E3EAF7"/>
<stop offset="1" stop-color="#ADB6C8"/>
</linearGradient>
</defs>
</svg>
