<svg width="129" height="128" viewBox="0 0 129 128" fill="none" xmlns="http://www.w3.org/2000/svg">
<path d="M64.4536 128C100.05 128 128.907 99.3462 128.907 64C128.907 28.6538 100.05 0 64.4536 0C28.8569 0 0 28.6538 0 64C0 99.3462 28.8569 128 64.4536 128Z" fill="#2A2E37"/>
<path d="M94.6826 41.0779H107.882V32.9893" stroke="#5C6479" stroke-width="2" stroke-miterlimit="10" stroke-linecap="round" stroke-linejoin="round"/>
<path d="M100.34 53.9297H112.268" stroke="#5C6479" stroke-width="2" stroke-miterlimit="10" stroke-linecap="round" stroke-linejoin="round"/>
<path d="M99.3315 65.5232H105.953L113.145 72.8928H120.161" stroke="#5C6479" stroke-width="2" stroke-miterlimit="10" stroke-linecap="round" stroke-linejoin="round"/>
<path d="M98.4541 79.4539H105.602V88.8457" stroke="#5C6479" stroke-width="2" stroke-miterlimit="10" stroke-linecap="round" stroke-linejoin="round"/>
<path d="M107.707 32.9891C109.354 32.9891 110.689 31.621 110.689 29.9334C110.689 28.2458 109.354 26.8777 107.707 26.8777C106.06 26.8777 104.725 28.2458 104.725 29.9334C104.725 31.621 106.06 32.9891 107.707 32.9891Z" stroke="#5C6479" stroke-width="2" stroke-miterlimit="10" stroke-linecap="round" stroke-linejoin="round"/>
<path d="M105.515 95.0016C107.162 95.0016 108.497 93.6335 108.497 91.9458C108.497 90.2582 107.162 88.8901 105.515 88.8901C103.868 88.8901 102.533 90.2582 102.533 91.9458C102.533 93.6335 103.868 95.0016 105.515 95.0016Z" stroke="#5C6479" stroke-width="2" stroke-miterlimit="10" stroke-linecap="round" stroke-linejoin="round"/>
<path d="M123.143 75.9937C124.79 75.9937 126.125 74.6257 126.125 72.938C126.125 71.2504 124.79 69.8823 123.143 69.8823C121.496 69.8823 120.161 71.2504 120.161 72.938C120.161 74.6257 121.496 75.9937 123.143 75.9937Z" stroke="#5C6479" stroke-width="2" stroke-miterlimit="10" stroke-linecap="round" stroke-linejoin="round"/>
<path d="M115.25 56.6707C116.896 56.6707 118.231 55.3027 118.231 53.615C118.231 51.9274 116.896 50.5593 115.25 50.5593C113.603 50.5593 112.268 51.9274 112.268 53.615C112.268 55.3027 113.603 56.6707 115.25 56.6707Z" stroke="#5C6479" stroke-width="2" stroke-miterlimit="10" stroke-linecap="round" stroke-linejoin="round"/>
<path d="M35.4393 41.0779H22.2837V32.9893" stroke="#5C6479" stroke-width="2" stroke-miterlimit="10" stroke-linecap="round" stroke-linejoin="round"/>
<path d="M29.8256 53.9297H17.854" stroke="#5C6479" stroke-width="2" stroke-miterlimit="10" stroke-linecap="round" stroke-linejoin="round"/>
<path d="M30.7908 65.5232H24.213L16.9774 72.8928H10.0049" stroke="#5C6479" stroke-width="2" stroke-miterlimit="10" stroke-linecap="round" stroke-linejoin="round"/>
<path d="M31.668 79.4539H24.564V88.8457" stroke="#5C6479" stroke-width="2" stroke-miterlimit="10" stroke-linecap="round" stroke-linejoin="round"/>
<path d="M22.4585 32.9891C24.1054 32.9891 25.4405 31.621 25.4405 29.9334C25.4405 28.2458 24.1054 26.8777 22.4585 26.8777C20.8116 26.8777 19.4766 28.2458 19.4766 29.9334C19.4766 31.621 20.8116 32.9891 22.4585 32.9891Z" stroke="#5C6479" stroke-width="2" stroke-miterlimit="10" stroke-linecap="round" stroke-linejoin="round"/>
<path d="M24.6514 95.002C26.2983 95.002 27.6333 93.634 27.6333 91.9463C27.6333 90.2587 26.2983 88.8906 24.6514 88.8906C23.0045 88.8906 21.6694 90.2587 21.6694 91.9463C21.6694 93.634 23.0045 95.002 24.6514 95.002Z" stroke="#5C6479" stroke-width="2" stroke-miterlimit="10" stroke-linecap="round" stroke-linejoin="round"/>
<path d="M6.97902 75.9937C8.6259 75.9937 9.96096 74.6257 9.96096 72.938C9.96096 71.2504 8.6259 69.8823 6.97902 69.8823C5.33213 69.8823 3.99707 71.2504 3.99707 72.938C3.99707 74.6257 5.33213 75.9937 6.97902 75.9937Z" stroke="#5C6479" stroke-width="2" stroke-miterlimit="10" stroke-linecap="round" stroke-linejoin="round"/>
<path d="M14.8726 56.6707C16.5195 56.6707 17.8545 55.3027 17.8545 53.615C17.8545 51.9274 16.5195 50.5593 14.8726 50.5593C13.2257 50.5593 11.8906 51.9274 11.8906 53.615C11.8906 55.3027 13.2257 56.6707 14.8726 56.6707Z" stroke="#5C6479" stroke-width="2" stroke-miterlimit="10" stroke-linecap="round" stroke-linejoin="round"/>
<path d="M98.4985 64.0851C99.6825 66.3319 100.34 68.9832 100.34 71.7693C100.34 76.4877 98.4108 80.7567 95.4289 83.5428C95.4727 83.9922 95.5166 84.4415 95.5166 84.9358C95.5166 90.9574 91.1752 95.8555 85.8691 95.8555C85.8253 95.8555 85.7814 95.8555 85.7376 95.8555C84.9921 100.304 81.5716 103.675 77.4056 103.675C76.3532 103.675 75.3446 103.45 74.4237 103.045C72.9766 104.528 71.0471 105.472 68.9422 105.472C67.5828 105.472 66.3111 105.113 65.1709 104.394C64.0307 105.068 62.759 105.472 61.3996 105.472C59.2947 105.472 57.3652 104.573 55.9181 103.045C54.9972 103.45 53.9886 103.675 52.9361 103.675C48.814 103.675 45.3497 100.304 44.6042 95.8555C44.5604 95.8555 44.5165 95.8555 44.4727 95.8555C39.1227 95.8555 34.8252 90.9574 34.8252 84.9358C34.8252 84.4865 34.8691 83.9922 34.9129 83.5428C31.931 80.7567 30.0015 76.5326 30.0015 71.7693C30.0015 68.9383 30.6592 66.3319 31.8433 64.0851C30.6592 61.8832 30.0015 59.3218 30.0015 56.5806C30.0015 51.0534 32.7203 46.2451 36.7108 43.8186C36.4477 42.9198 36.3162 42.0211 36.3162 41.0325C36.3162 36.0894 39.7805 32.0451 44.1219 31.8204C45.3936 28.5849 48.244 26.2932 51.5767 26.2932C52.8046 26.2932 53.9447 26.6077 54.9533 27.147C56.4443 24.99 58.7685 23.552 61.3996 23.552C62.759 23.552 64.0307 23.9564 65.1709 24.6305C66.3111 23.9564 67.5828 23.552 68.9422 23.552C71.5733 23.552 73.8975 24.945 75.3885 27.147C76.4409 26.6077 77.5811 26.2932 78.7651 26.2932C82.0978 26.2932 84.9482 28.54 86.2199 31.8204C90.5613 32.0451 94.0256 36.0894 94.0256 41.0325C94.0256 41.9761 93.8941 42.9198 93.6309 43.8186C97.6215 46.2901 100.34 51.0983 100.34 56.5806C100.34 59.3218 99.6387 61.8832 98.4985 64.0851Z" fill="#5C6479"/>
<path d="M31.7993 64.0854C30.6153 61.8835 29.9575 59.3221 29.9575 56.5809C29.9575 51.0537 32.6764 46.2904 36.6669 43.8188" stroke="#8E96AB" stroke-width="3" stroke-miterlimit="10" stroke-linecap="round" stroke-linejoin="round"/>
<path d="M40.4382 86.5986C34.4304 85.0707 29.9575 79.0043 29.9575 71.7694C29.9575 68.9384 30.6153 66.3321 31.7993 64.0852" stroke="#8E96AB" stroke-width="3" stroke-miterlimit="10" stroke-linecap="round" stroke-linejoin="round"/>
<path d="M44.4287 95.8556C39.0788 95.8556 34.7812 90.9575 34.7812 84.936C34.7812 83.4531 35.0444 82.06 35.4829 80.7568" stroke="#8E96AB" stroke-width="3" stroke-miterlimit="10" stroke-linecap="round" stroke-linejoin="round"/>
<path d="M59.2507 100.394C57.7159 102.371 55.4356 103.63 52.8922 103.63C48.8578 103.63 45.4811 100.439 44.6479 96.1702" stroke="#8E96AB" stroke-width="3" stroke-miterlimit="10" stroke-linecap="round" stroke-linejoin="round"/>
<path d="M65.1268 104.394C63.9867 105.068 62.715 105.427 61.3555 105.427C59.2506 105.427 57.3211 104.529 55.874 103.046" stroke="#8E96AB" stroke-width="3" stroke-miterlimit="10" stroke-linecap="round" stroke-linejoin="round"/>
<path d="M37.9388 46.5599C36.8864 45.032 36.2725 43.0997 36.2725 40.9877C36.2725 35.9098 39.9122 31.7756 44.429 31.7756" stroke="#8E96AB" stroke-width="3" stroke-miterlimit="10" stroke-linecap="round" stroke-linejoin="round"/>
<path d="M44.0781 31.7755C45.3498 28.5401 48.2002 26.2483 51.533 26.2483C52.7609 26.2483 53.901 26.5628 54.9096 27.1021" stroke="#8E96AB" stroke-width="3" stroke-miterlimit="10" stroke-linecap="round" stroke-linejoin="round"/>
<path d="M53.3745 30.9217C54.12 26.6976 57.4089 23.552 61.3556 23.552C63.8113 23.552 66.0478 24.8102 67.5388 26.7875" stroke="#8E96AB" stroke-width="3" stroke-miterlimit="10" stroke-linecap="round" stroke-linejoin="round"/>
<path d="M98.4985 64.0854C99.6825 61.8835 100.34 59.3221 100.34 56.5809C100.34 51.0537 97.6214 46.2904 93.6309 43.8188" stroke="#8E96AB" stroke-width="3" stroke-miterlimit="10" stroke-linecap="round" stroke-linejoin="round"/>
<path d="M89.8594 86.5986C95.8671 85.0707 100.34 79.0043 100.34 71.7694C100.34 68.9384 99.6823 66.3321 98.4982 64.0852" stroke="#8E96AB" stroke-width="3" stroke-miterlimit="10" stroke-linecap="round" stroke-linejoin="round"/>
<path d="M85.8252 95.8559C91.1752 95.8559 95.4727 90.9578 95.4727 84.9362C95.4727 83.1387 95.078 81.4761 94.4202 79.9932" stroke="#8E96AB" stroke-width="3" stroke-miterlimit="10" stroke-linecap="round" stroke-linejoin="round"/>
<path d="M71.0469 100.394C72.5817 102.371 74.862 103.63 77.4054 103.63C81.4398 103.63 84.8165 100.439 85.6496 96.1702" stroke="#8E96AB" stroke-width="3" stroke-miterlimit="10" stroke-linecap="round" stroke-linejoin="round"/>
<path d="M65.127 104.394C66.2671 105.068 67.5388 105.427 68.8982 105.427C71.0031 105.427 72.9326 104.529 74.3798 103.046" stroke="#8E96AB" stroke-width="3" stroke-miterlimit="10" stroke-linecap="round" stroke-linejoin="round"/>
<path d="M91.4821 47.6835C93.0169 46.0209 93.9817 43.6392 93.9817 41.0329C93.9817 35.955 90.342 31.8208 85.8252 31.8208" stroke="#8E96AB" stroke-width="3" stroke-miterlimit="10" stroke-linecap="round" stroke-linejoin="round"/>
<path d="M86.2197 31.7755C84.948 28.5401 82.0976 26.2483 78.7648 26.2483C77.5369 26.2483 76.3968 26.5628 75.3882 27.1021" stroke="#8E96AB" stroke-width="3" stroke-miterlimit="10" stroke-linecap="round" stroke-linejoin="round"/>
<path d="M76.8793 30.9217C76.1338 26.6976 72.8449 23.552 68.8982 23.552C67.5388 23.552 66.2671 23.9115 65.127 24.5856" stroke="#8E96AB" stroke-width="3" stroke-miterlimit="10" stroke-linecap="round" stroke-linejoin="round"/>
<path d="M53.2861 47.4585V42.3357" stroke="#C6CDDF" stroke-width="2" stroke-miterlimit="10" stroke-linecap="round" stroke-linejoin="round"/>
<path d="M59.2061 47.4585V42.3357" stroke="#C6CDDF" stroke-width="2" stroke-miterlimit="10" stroke-linecap="round" stroke-linejoin="round"/>
<path d="M65.126 47.4585V42.3357" stroke="#C6CDDF" stroke-width="2" stroke-miterlimit="10" stroke-linecap="round" stroke-linejoin="round"/>
<path d="M71.0464 47.4585V42.3357" stroke="#C6CDDF" stroke-width="2" stroke-miterlimit="10" stroke-linecap="round" stroke-linejoin="round"/>
<path d="M76.9663 47.4585V42.3357" stroke="#C6CDDF" stroke-width="2" stroke-miterlimit="10" stroke-linecap="round" stroke-linejoin="round"/>
<path d="M53.2861 87.093V82.0151" stroke="#C6CDDF" stroke-width="2" stroke-miterlimit="10" stroke-linecap="round" stroke-linejoin="round"/>
<path d="M59.2061 87.093V82.0151" stroke="#C6CDDF" stroke-width="2" stroke-miterlimit="10" stroke-linecap="round" stroke-linejoin="round"/>
<path d="M65.126 87.093V82.0151" stroke="#C6CDDF" stroke-width="2" stroke-miterlimit="10" stroke-linecap="round" stroke-linejoin="round"/>
<path d="M71.0464 87.093V82.0151" stroke="#C6CDDF" stroke-width="2" stroke-miterlimit="10" stroke-linecap="round" stroke-linejoin="round"/>
<path d="M76.9663 87.093V82.0151" stroke="#C6CDDF" stroke-width="2" stroke-miterlimit="10" stroke-linecap="round" stroke-linejoin="round"/>
<path d="M82.0093 52.5813H86.9646" stroke="#C6CDDF" stroke-width="2" stroke-miterlimit="10" stroke-linecap="round" stroke-linejoin="round"/>
<path d="M82.0093 58.6477H86.9646" stroke="#C6CDDF" stroke-width="2" stroke-miterlimit="10" stroke-linecap="round" stroke-linejoin="round"/>
<path d="M82.0093 64.7144H86.9646" stroke="#C6CDDF" stroke-width="2" stroke-miterlimit="10" stroke-linecap="round" stroke-linejoin="round"/>
<path d="M82.0093 70.7808H86.9646" stroke="#C6CDDF" stroke-width="2" stroke-miterlimit="10" stroke-linecap="round" stroke-linejoin="round"/>
<path d="M82.0093 76.8472H86.9646" stroke="#C6CDDF" stroke-width="2" stroke-miterlimit="10" stroke-linecap="round" stroke-linejoin="round"/>
<path d="M43.2876 52.5813H48.2867" stroke="#C6CDDF" stroke-width="2" stroke-miterlimit="10" stroke-linecap="round" stroke-linejoin="round"/>
<path d="M43.2876 58.6477H48.2867" stroke="#C6CDDF" stroke-width="2" stroke-miterlimit="10" stroke-linecap="round" stroke-linejoin="round"/>
<path d="M43.2876 64.7144H48.2867" stroke="#C6CDDF" stroke-width="2" stroke-miterlimit="10" stroke-linecap="round" stroke-linejoin="round"/>
<path d="M43.2876 70.7808H48.2867" stroke="#C6CDDF" stroke-width="2" stroke-miterlimit="10" stroke-linecap="round" stroke-linejoin="round"/>
<path d="M43.2876 76.8472H48.2867" stroke="#C6CDDF" stroke-width="2" stroke-miterlimit="10" stroke-linecap="round" stroke-linejoin="round"/>
<g filter="url(#filter0_d_121_6668)">
<path d="M77.9749 82.0152H52.2776C50.0411 82.0152 48.2432 80.1728 48.2432 77.881V51.548C48.2432 49.2562 50.0411 47.4138 52.2776 47.4138H77.9749C80.2114 47.4138 82.0093 49.2562 82.0093 51.548V77.881C82.0093 80.1728 80.2114 82.0152 77.9749 82.0152Z" fill="url(#paint0_linear_121_6668)"/>
</g>
<path d="M73.6772 76.2184H56.5749C55.0839 76.2184 53.8999 75.0051 53.8999 73.4772V55.9518C53.8999 54.424 55.0839 53.2107 56.5749 53.2107H73.6772C75.1682 53.2107 76.3522 54.424 76.3522 55.9518V73.4772C76.3522 75.0051 75.1682 76.2184 73.6772 76.2184Z" fill="#393F4E"/>
<mask id="path-57-inside-1_121_6668" fill="white">
<path d="M65.0118 67.2954H60.8971L60.0573 69.6323H57.958L61.8208 59.3923H64.0881L67.9508 69.6323H65.8095L65.0118 67.2954ZM61.5689 65.5108H64.382L62.9964 61.6443L61.5689 65.5108Z"/>
</mask>
<path d="M65.0118 67.2954H60.8971L60.0573 69.6323H57.958L61.8208 59.3923H64.0881L67.9508 69.6323H65.8095L65.0118 67.2954ZM61.5689 65.5108H64.382L62.9964 61.6443L61.5689 65.5108Z" fill="#8E96AB"/>
<path d="M65.0118 67.2954L66.9045 66.6493L66.4423 65.2954H65.0118V67.2954ZM60.8971 67.2954V65.2954H59.4905L59.0149 66.6191L60.8971 67.2954ZM60.0573 69.6323V71.6323H61.4639L61.9395 70.3087L60.0573 69.6323ZM57.958 69.6323L56.0867 68.9264L55.066 71.6323H57.958V69.6323ZM61.8208 59.3923V57.3923H60.4377L59.9495 58.6864L61.8208 59.3923ZM64.0881 59.3923L65.9593 58.6864L65.4712 57.3923H64.0881V59.3923ZM67.9508 69.6323V71.6323H70.8428L69.8221 68.9264L67.9508 69.6323ZM65.8095 69.6323L63.9167 70.2785L64.3789 71.6323H65.8095V69.6323ZM61.5689 65.5108L59.6926 64.8181L58.6985 67.5108H61.5689V65.5108ZM64.382 65.5108V67.5108H67.2232L66.2647 64.8362L64.382 65.5108ZM62.9964 61.6443L64.8792 60.9696L63.0245 55.7938L61.1202 60.9516L62.9964 61.6443ZM65.0118 65.2954H60.8971V69.2954H65.0118V65.2954ZM59.0149 66.6191L58.1752 68.956L61.9395 70.3087L62.7792 67.9717L59.0149 66.6191ZM60.0573 67.6323H57.958V71.6323H60.0573V67.6323ZM59.8293 70.3382L63.6921 60.0982L59.9495 58.6864L56.0867 68.9264L59.8293 70.3382ZM61.8208 61.3923H64.0881V57.3923H61.8208V61.3923ZM62.2168 60.0982L66.0795 70.3382L69.8221 68.9264L65.9593 58.6864L62.2168 60.0982ZM67.9508 67.6323H65.8095V71.6323H67.9508V67.6323ZM67.7023 68.9862L66.9045 66.6493L63.119 67.9415L63.9167 70.2785L67.7023 68.9862ZM61.5689 67.5108H64.382V63.5108H61.5689V67.5108ZM66.2647 64.8362L64.8792 60.9696L61.1136 62.319L62.4992 66.1855L66.2647 64.8362ZM61.1202 60.9516L59.6926 64.8181L63.4451 66.2035L64.8726 62.337L61.1202 60.9516Z" fill="#C6CDDF" mask="url(#path-57-inside-1_121_6668)"/>
<mask id="path-59-inside-2_121_6668" fill="white">
<path d="M69.9492 69.5898V59.3923H71.9478V69.6323H69.9492V69.5898Z"/>
</mask>
<path d="M69.9492 69.5898V59.3923H71.9478V69.6323H69.9492V69.5898Z" fill="#8E96AB"/>
<path d="M69.9492 59.3923V57.3923H67.9492V59.3923H69.9492ZM71.9478 59.3923H73.9478V57.3923H71.9478V59.3923ZM71.9478 69.6323V71.6323H73.9478V69.6323H71.9478ZM69.9492 69.6323H67.9492V71.6323H69.9492V69.6323ZM71.9492 69.5898V59.3923H67.9492V69.5898H71.9492ZM69.9492 61.3923H71.9478V57.3923H69.9492V61.3923ZM69.9478 59.3923V69.6323H73.9478V59.3923H69.9478ZM71.9478 67.6323H69.9492V71.6323H71.9478V67.6323ZM71.9492 69.6323V69.5898H67.9492V69.6323H71.9492Z" fill="#C6CDDF" mask="url(#path-59-inside-2_121_6668)"/>
<path d="M36.228 49.0313C36.7543 47.2338 38.3768 45.8857 40.3501 45.8857C40.8325 45.8857 41.271 45.9756 41.6657 46.1104" stroke="#8E96AB" stroke-width="3" stroke-miterlimit="10" stroke-linecap="round" stroke-linejoin="round"/>
<path d="M72.5376 96.4397C72.5376 98.8663 70.6081 100.844 68.2401 100.844C67.4507 100.844 66.7052 100.619 66.0913 100.259" stroke="#8E96AB" stroke-width="3" stroke-miterlimit="10" stroke-linecap="round" stroke-linejoin="round"/>
<defs>
<filter id="filter0_d_121_6668" x="26.2432" y="36.4138" width="77.7661" height="78.6013" filterUnits="userSpaceOnUse" color-interpolation-filters="sRGB">
<feFlood flood-opacity="0" result="BackgroundImageFix"/>
<feColorMatrix in="SourceAlpha" type="matrix" values="0 0 0 0 0 0 0 0 0 0 0 0 0 0 0 0 0 0 127 0" result="hardAlpha"/>
<feOffset dy="11"/>
<feGaussianBlur stdDeviation="11"/>
<feColorMatrix type="matrix" values="0 0 0 0 0 0 0 0 0 0 0 0 0 0 0 0 0 0 0.27 0"/>
<feBlend mode="normal" in2="BackgroundImageFix" result="effect1_dropShadow_121_6668"/>
<feBlend mode="normal" in="SourceGraphic" in2="effect1_dropShadow_121_6668" result="shape"/>
</filter>
<linearGradient id="paint0_linear_121_6668" x1="55.9886" y1="56.4967" x2="71.0471" y2="81.3749" gradientUnits="userSpaceOnUse">
<stop stop-color="#E3EAF7"/>
<stop offset="1" stop-color="#ADB6C8"/>
</linearGradient>
</defs>
</svg>
