<svg width="156" height="169" viewBox="0 0 156 169" fill="none" xmlns="http://www.w3.org/2000/svg">
<path d="M106.832 142.284H1.0001" stroke="#5C6479" stroke-width="2" stroke-miterlimit="10" stroke-linecap="round"/>
<path d="M114.208 142.284H112.075" stroke="#5C6479" stroke-width="2" stroke-miterlimit="10" stroke-linecap="round"/>
<path d="M82.2254 141.191H90.1339L91.7334 136.385H80.6259L82.2254 141.191Z" fill="#393F4E"/>
<path d="M22.867 141.191H30.8644L32.4639 136.385H21.3564L22.867 141.191Z" fill="#393F4E"/>
<path d="M8.02697 137.186H102.218C105.506 137.186 108.172 134.516 108.172 131.223V35.821C108.172 32.5282 105.506 29.8584 102.218 29.8584H8.02697C4.73916 29.8584 2.07336 32.5282 2.07336 35.821V131.223C2.07336 134.516 4.73916 137.186 8.02697 137.186Z" fill="#474E61"/>
<path d="M13.8032 129.266H96.3539C98.842 129.266 100.975 127.219 100.975 124.638V40.9832C100.975 38.4913 98.9308 36.3555 96.3539 36.3555H13.8032C11.3151 36.3555 9.1825 38.4023 9.1825 40.9832V124.638C9.1825 127.219 11.2263 129.266 13.8032 129.266Z" fill="#393F4E"/>
<path d="M18.9344 78.5386H100.789V86.5481H18.9344V78.5386Z" fill="#C6CDDF" stroke="#8E96AB" stroke-width="2" stroke-miterlimit="10"/>
<path d="M72.2371 104.221L70.4122 103.579C70.0472 103.451 69.7833 102.974 69.9296 102.552C70.076 102.129 70.4622 101.859 70.8272 101.987L72.6521 102.629C73.0171 102.757 73.281 103.234 73.1346 103.656C72.943 104.153 72.6021 104.35 72.2371 104.221Z" fill="#C6CDDF"/>
<g filter="url(#filter0_d_111_2057)">
<path d="M115.97 71.9532L103.162 121.192C102.696 122.879 100.938 123.745 99.1749 123.147L49.0906 106.27C47.327 105.672 46.2955 103.87 46.761 102.184L64.0626 39.108C64.5281 37.4216 66.2861 36.5557 68.0497 37.1537L104.267 49.4003L115.97 71.9532Z" fill="#5C6479"/>
</g>
<path d="M105.325 48.1929L101.134 61.9334C100.592 63.8548 101.762 65.9814 103.691 66.5363L116.073 70.4777" fill="#474E61"/>
<g filter="url(#filter1_d_111_2057)">
<path d="M128.408 92.5815L102.484 134.114C101.62 135.517 99.5059 135.786 97.9243 134.689L51.6989 104.603C50.0859 103.587 49.5129 101.53 50.3773 100.127L84.4237 47.2555C85.2881 45.8523 87.402 45.5842 88.9837 46.6813L122.547 68.5537L128.408 92.5815Z" fill="#8E96AB"/>
</g>
<path d="M122.303 65.9485L114.903 77.4878C113.838 79.119 114.581 81.4625 116.406 82.661L127.889 90.0903" fill="#5C6479"/>
<path d="M28.2876 76.2246H34.1523V87.349H28.2876V76.2246Z" fill="#8E96AB"/>
<path d="M17.8907 37.156L48.3696 25.3197C48.9916 24.0737 49.8802 22.9168 50.9465 22.0269H57.3444C58.6773 22.1159 59.7437 23.2728 59.7437 24.8747V139.589C59.7437 141.191 58.5885 142.348 57.2556 142.437H50.9465L50.1468 140.123L17.8907 129.088C15.8469 128.376 14.4252 126.24 14.4252 123.837V42.3177C14.6029 40.0038 15.9358 37.8679 17.8907 37.156Z" fill="#474E61"/>
<path d="M50.3245 22.2048L11.6705 37.1559C9.71559 37.9569 8.3827 40.0038 8.3827 42.3176V123.837C8.3827 126.24 9.80445 128.376 11.8482 129.088L50.4134 142.348C52.0128 142.882 53.6123 141.547 53.6123 139.589V24.8747C53.6123 22.9168 51.924 21.5819 50.3245 22.2048Z" fill="#5C6479"/>
<path opacity="0.2" d="M18.513 93.4897C17.6244 91.2648 17.1801 88.595 17.1801 85.8361C17.1801 83.1663 17.6244 80.5855 18.4241 78.3606L13.448 70.0841C13.0037 69.2831 13.0037 67.8592 13.448 66.7913C13.8923 65.7233 14.692 65.4563 15.2251 66.2573L20.4679 74.4448C21.8008 72.6649 23.4002 71.419 25.2663 71.063C27.3101 70.618 29.265 71.33 30.9533 72.9319L39.395 58.9597C39.395 58.9597 39.4839 58.8707 39.4839 58.7817C39.4839 58.6927 39.5727 58.6037 39.6616 58.6037L39.7504 58.5147C40.2836 58.0698 41.3499 58.2478 42.3274 59.0487C43.1271 59.7607 43.6603 60.6506 43.5714 61.3626C43.5714 61.5406 43.4825 61.7186 43.3937 61.8076C43.3048 62.0745 43.1271 62.3415 42.9494 62.6085L33.7968 76.8477C34.952 79.3395 35.574 82.3653 35.574 85.6582C35.574 89.1289 34.8631 92.2438 33.6191 94.7356L42.8605 109.153C43.0382 109.42 43.216 109.776 43.3048 110.043C43.3937 110.221 43.3937 110.31 43.4825 110.488C43.5714 111.111 43.1271 111.912 42.4162 112.624C41.4388 113.514 40.2836 113.78 39.6616 113.336C39.5727 113.247 39.4839 113.069 39.395 112.98L30.7756 98.7404C29.1761 100.164 27.2212 100.787 25.2663 100.431C23.4891 100.075 21.8896 98.9184 20.6456 97.3165L15.2251 105.771C14.9586 106.127 14.6031 106.305 14.3365 106.216C13.9811 106.127 13.7145 105.771 13.448 105.237C13.0037 104.169 13.0037 102.745 13.448 101.944L18.513 93.4897Z" fill="#2A2E37"/>
<path d="M30.0648 88.9511C27.9054 88.9511 26.155 85.7635 26.155 81.8315C26.155 77.8995 27.9054 74.7119 30.0648 74.7119C32.2241 74.7119 33.9746 77.8995 33.9746 81.8315C33.9746 85.7635 32.2241 88.9511 30.0648 88.9511Z" fill="#8E96AB"/>
<path d="M13.1812 82.0091C13.1812 75.6905 15.6693 70.2618 19.1348 68.1259V67.147H22.6892C27.5765 67.414 31.4863 73.9106 31.4863 81.9201C31.4863 89.9296 27.5765 96.4263 22.6892 96.6932H19.1348V95.7143C15.6693 93.7564 13.1812 88.4167 13.1812 82.0091Z" fill="#8E96AB"/>
<path d="M11.4925 89.7519C10.6039 87.527 10.1596 84.8572 10.1596 82.0983C10.1596 79.4285 10.6039 76.8477 11.4036 74.6228L6.42745 66.3463C5.98315 65.5453 5.98315 64.1214 6.42745 63.0535C6.87175 61.9855 7.67149 61.7185 8.20465 62.5195L13.4474 70.707C14.7803 68.9271 16.3797 67.6812 18.2458 67.3252C20.2896 66.8802 22.2445 67.5922 23.9328 69.1941L32.3745 55.2219C32.3745 55.2219 32.4633 55.1329 32.4633 55.0439C32.4633 54.9549 32.5522 54.8659 32.6411 54.8659L32.7299 54.777C33.2631 54.332 34.3294 54.51 35.3069 55.3109C36.1066 56.0229 36.6398 56.9128 36.5509 57.6248C36.5509 57.8028 36.462 57.9808 36.3732 58.0698C36.2843 58.3367 36.1066 58.6037 35.9289 58.8707L26.7763 73.1099C27.9315 75.6017 28.5535 78.6276 28.5535 81.9204C28.5535 85.3912 27.8426 88.506 26.5986 90.9978L35.84 105.415C36.0177 105.682 36.1955 106.038 36.2843 106.305C36.3732 106.483 36.3732 106.572 36.462 106.75C36.5509 107.373 36.1066 108.174 35.3957 108.886C34.4183 109.776 33.2631 110.043 32.6411 109.598C32.5522 109.509 32.4633 109.331 32.3745 109.242L23.7551 95.0026C22.1556 96.4265 20.2007 97.0495 18.2458 96.6935C16.4686 96.3375 14.8691 95.1806 13.6251 93.5787L8.20465 102.033C7.93807 102.389 7.58263 102.567 7.31605 102.478C6.96061 102.389 6.69403 102.033 6.42745 101.499C5.98315 100.431 5.98315 99.0074 6.42745 98.2064L11.4925 89.7519Z" fill="#8E96AB"/>
<path d="M33.619 57.8027C34.6853 58.6926 35.8405 58.8706 36.2848 58.1586C36.3737 57.9806 36.4625 57.8916 36.4625 57.7137C36.5514 57.0017 36.0182 56.1117 35.2185 55.3998C34.241 54.5988 33.1747 54.4208 32.6415 54.8658C32.6415 54.8658 32.5527 54.8658 32.5527 54.9548L32.4638 55.0438L32.375 55.1328C32.1084 55.8448 32.6415 57.0017 33.619 57.8027Z" fill="#C6CDDF"/>
<path d="M32.3748 109.242C32.3748 109.331 32.3748 109.331 32.4637 109.42C32.4637 109.42 32.4637 109.509 32.5525 109.509C32.5525 109.509 32.5526 109.598 32.6414 109.598C32.6414 109.598 32.6414 109.598 32.7303 109.687C33.3523 110.132 34.5075 109.865 35.4849 108.975C36.1958 108.352 36.6401 107.462 36.5512 106.839C36.5512 106.661 36.4624 106.483 36.3735 106.394C36.3735 106.305 36.2847 106.305 36.2847 106.216C36.1958 106.127 36.0181 106.038 35.8404 105.949C35.2183 105.771 34.2409 106.038 33.3523 106.75C32.4637 107.551 32.1082 108.53 32.3748 109.242Z" fill="#C6CDDF"/>
<path d="M15.6691 81.8315C15.6691 79.3396 16.3799 77.1148 17.5351 75.9578V75.0679H19.3123C21.3561 75.0679 22.9556 78.0937 22.9556 81.8315C22.9556 85.5693 21.3561 88.5951 19.3123 88.5951H17.5351V87.7051C16.4688 86.5482 15.6691 84.3233 15.6691 81.8315Z" fill="url(#paint0_linear_111_2057)"/>
<path d="M17.2689 88.5951C15.2568 88.5951 13.6256 85.5669 13.6256 81.8315C13.6256 78.096 15.2568 75.0679 17.2689 75.0679C19.281 75.0679 20.9121 78.096 20.9121 81.8315C20.9121 85.5669 19.281 88.5951 17.2689 88.5951Z" fill="#C6CDDF"/>
<defs>
<filter id="filter0_d_111_2057" x="24.6494" y="25.9648" width="113.32" height="130.371" filterUnits="userSpaceOnUse" color-interpolation-filters="sRGB">
<feFlood flood-opacity="0" result="BackgroundImageFix"/>
<feColorMatrix in="SourceAlpha" type="matrix" values="0 0 0 0 0 0 0 0 0 0 0 0 0 0 0 0 0 0 127 0" result="hardAlpha"/>
<feOffset dy="11"/>
<feGaussianBlur stdDeviation="11"/>
<feColorMatrix type="matrix" values="0 0 0 0 0 0 0 0 0 0 0 0 0 0 0 0 0 0 0.27 0"/>
<feBlend mode="normal" in2="BackgroundImageFix" result="effect1_dropShadow_111_2057"/>
<feBlend mode="normal" in="SourceGraphic" in2="effect1_dropShadow_111_2057" result="shape"/>
</filter>
<filter id="filter1_d_111_2057" x="27.9761" y="35.0044" width="122.432" height="133.361" filterUnits="userSpaceOnUse" color-interpolation-filters="sRGB">
<feFlood flood-opacity="0" result="BackgroundImageFix"/>
<feColorMatrix in="SourceAlpha" type="matrix" values="0 0 0 0 0 0 0 0 0 0 0 0 0 0 0 0 0 0 127 0" result="hardAlpha"/>
<feOffset dy="11"/>
<feGaussianBlur stdDeviation="11"/>
<feColorMatrix type="matrix" values="0 0 0 0 0 0 0 0 0 0 0 0 0 0 0 0 0 0 0.27 0"/>
<feBlend mode="normal" in2="BackgroundImageFix" result="effect1_dropShadow_111_2057"/>
<feBlend mode="normal" in="SourceGraphic" in2="effect1_dropShadow_111_2057" result="shape"/>
</filter>
<linearGradient id="paint0_linear_111_2057" x1="21.2842" y1="78.6188" x2="14.6676" y2="84.6526" gradientUnits="userSpaceOnUse">
<stop stop-color="#E3EAF7"/>
<stop offset="1" stop-color="#ADB6C8"/>
</linearGradient>
</defs>
</svg>
