<svg width="158" height="136" viewBox="0 0 158 136" fill="none" xmlns="http://www.w3.org/2000/svg">
<path d="M77.7319 125C112.225 125 140.187 97.0178 140.187 62.5C140.187 27.9822 112.225 0 77.7319 0C43.2389 0 15.2769 27.9822 15.2769 62.5C15.2769 97.0178 43.2389 125 77.7319 125Z" fill="#2A2E37"/>
<g filter="url(#filter0_d_111_669)">
<path d="M135.995 24.2664V97.3648C135.995 100.045 133.79 102.251 131.112 102.251H26.9377C24.2599 102.251 22.0547 100.045 22.0547 97.3648V24.2664C22.0547 21.5867 24.2599 19.3799 26.9377 19.3799H131.112C133.79 19.3799 135.995 21.5867 135.995 24.2664Z" fill="#5C6479"/>
</g>
<path d="M135.995 24.2664V27.813H22.0547V24.2664C22.0547 21.5867 24.2599 19.3799 26.9377 19.3799H131.112C133.79 19.3799 135.995 21.5867 135.995 24.2664Z" fill="#393F4E"/>
<path d="M27.1736 25.1331C28.0001 25.1331 28.67 24.4627 28.67 23.6357C28.67 22.8086 28.0001 22.1382 27.1736 22.1382C26.3472 22.1382 25.6772 22.8086 25.6772 23.6357C25.6772 24.4627 26.3472 25.1331 27.1736 25.1331Z" fill="#C6CDDF"/>
<path opacity="0.6" d="M31.8201 25.1331C32.6466 25.1331 33.3165 24.4627 33.3165 23.6357C33.3165 22.8086 32.6466 22.1382 31.8201 22.1382C30.9937 22.1382 30.3237 22.8086 30.3237 23.6357C30.3237 24.4627 30.9937 25.1331 31.8201 25.1331Z" fill="#C6CDDF"/>
<path opacity="0.4" d="M36.5462 25.1331C37.3726 25.1331 38.0426 24.4627 38.0426 23.6357C38.0426 22.8086 37.3726 22.1382 36.5462 22.1382C35.7198 22.1382 35.0498 22.8086 35.0498 23.6357C35.0498 24.4627 35.7198 25.1331 36.5462 25.1331Z" fill="#C6CDDF"/>
<path d="M47.9846 40.2628H32.0036C30.7613 40.2628 29.8013 39.2456 29.8013 38.0589C29.8013 36.8157 30.8177 35.855 32.0036 35.855H47.9846C49.227 35.855 50.1869 36.8722 50.1869 38.0589C50.1869 39.3021 49.227 40.2628 47.9846 40.2628Z" fill="#C6CDDF"/>
<path d="M50.1869 60.437C50.1869 62.0193 48.9446 63.2626 47.3634 63.2626H32.6248C31.0436 63.2626 29.8013 62.0193 29.8013 60.437V47.7787C29.8013 46.1964 31.0436 44.9531 32.6248 44.9531H47.4199C49.0011 44.9531 50.2434 46.1964 50.2434 47.7787V60.437H50.1869Z" fill="#C6CDDF"/>
<path d="M75.9941 60.437C75.9941 62.0193 74.7517 63.2626 73.1706 63.2626H58.4319C56.8507 63.2626 55.6084 62.0193 55.6084 60.437V47.7787C55.6084 46.1964 56.8507 44.9531 58.4319 44.9531H73.227C74.8082 44.9531 76.0505 46.1964 76.0505 47.7787V60.437H75.9941Z" fill="#C6CDDF"/>
<path d="M128.511 60.437C128.511 62.0193 127.269 63.2626 125.688 63.2626H110.949C109.368 63.2626 108.125 62.0193 108.125 60.437V47.7787C108.125 46.1964 109.368 44.9531 110.949 44.9531H125.744C127.325 44.9531 128.568 46.1964 128.568 47.7787V60.437H128.511Z" fill="#C6CDDF"/>
<path d="M75.9941 80.9502C75.9941 82.5325 74.7517 83.7758 73.1706 83.7758H58.4319C56.8507 83.7758 55.6084 82.5325 55.6084 80.9502V68.2918C55.6084 66.7095 56.8507 65.4663 58.4319 65.4663H73.227C74.8082 65.4663 76.0505 66.7095 76.0505 68.2918V80.9502H75.9941Z" fill="#C6CDDF"/>
<path d="M50.2152 91.8001C50.1996 91.8001 50.187 91.8129 50.1868 91.8285C50.1721 93.3973 48.9351 94.6257 47.3634 94.6257H32.6248C31.0436 94.6257 29.8013 93.3824 29.8013 91.8001V68.2352C29.8013 66.6529 31.0436 65.4097 32.6248 65.4097H47.4199C49.0011 65.4097 50.2434 66.6529 50.2434 68.2352V91.7719C50.2434 91.7875 50.2308 91.8001 50.2152 91.8001Z" fill="#474E61"/>
<path d="M100.05 40.2628H84.069C82.8267 40.2628 81.8667 39.2456 81.8667 38.0589C81.8667 36.8157 82.8832 35.855 84.069 35.855H100.05C101.292 35.855 102.252 36.8722 102.252 38.0589C102.252 39.3021 101.292 40.2628 100.05 40.2628Z" fill="#474E61"/>
<path d="M102.253 60.437C102.253 62.0193 101.01 63.2626 99.4292 63.2626H84.634C83.0529 63.2626 81.8105 62.0193 81.8105 60.437V47.7787C81.8105 46.1964 83.0529 44.9531 84.634 44.9531H99.4292C101.01 44.9531 102.253 46.1964 102.253 47.7787V60.437Z" fill="#474E61"/>
<path d="M76.1635 38.0587C76.1635 39.3019 75.147 40.2626 73.9612 40.2626H57.9802C56.7378 40.2626 55.7778 39.2454 55.7778 38.0587C55.7778 36.8155 56.7943 35.8548 57.9802 35.8548H73.9612C75.147 35.7983 76.1635 36.8155 76.1635 38.0587Z" fill="#C6CDDF"/>
<path d="M128.116 38.0587C128.116 39.3019 127.099 40.2626 125.913 40.2626H109.932C108.69 40.2626 107.73 39.2454 107.73 38.0587C107.73 36.8155 108.746 35.8548 109.932 35.8548H125.913C127.156 35.7983 128.116 36.8155 128.116 38.0587Z" fill="#C6CDDF"/>
<path d="M125.292 84.7928H110.497C108.916 84.7928 107.674 83.5496 107.674 81.9673V68.2352C107.674 66.6529 108.916 65.4097 110.497 65.4097H125.292C126.874 65.4097 128.116 66.6529 128.116 68.2352V81.9673C128.116 83.4931 126.874 84.7928 125.292 84.7928Z" fill="#474E61"/>
<path d="M47.9846 56.1985C47.9846 56.7636 47.5328 57.1592 47.0246 57.1592H33.02C32.4553 57.1592 32.0601 56.7071 32.0601 56.1985C32.0601 55.6334 32.5118 55.2378 33.02 55.2378H46.9681C47.5328 55.2378 47.9846 55.6899 47.9846 56.1985Z" fill="#8E96AB"/>
<path d="M73.7917 56.1985C73.7917 56.7636 73.34 57.1592 72.8317 57.1592H58.8272C58.2625 57.1592 57.8672 56.7071 57.8672 56.1985C57.8672 55.6334 58.3189 55.2378 58.8272 55.2378H72.7753C73.34 55.2378 73.7917 55.6899 73.7917 56.1985Z" fill="#8E96AB"/>
<path d="M126.309 56.1985C126.309 56.7636 125.857 57.1592 125.349 57.1592H111.344C110.78 57.1592 110.384 56.7071 110.384 56.1985C110.384 55.6334 110.836 55.2378 111.344 55.2378H125.292C125.857 55.2378 126.309 55.6899 126.309 56.1985Z" fill="#8E96AB"/>
<path d="M73.7917 76.7121C73.7917 77.2773 73.34 77.6728 72.8317 77.6728H58.8272C58.2625 77.6728 57.8672 77.2207 57.8672 76.7121C57.8672 76.147 58.3189 75.7515 58.8272 75.7515H72.7753C73.34 75.7515 73.7917 76.2035 73.7917 76.7121Z" fill="#8E96AB"/>
<path d="M41.66 59.5891C41.66 60.1542 41.2082 60.5498 40.7 60.5498H33.02C32.4553 60.5498 32.0601 60.0977 32.0601 59.5891C32.0601 59.024 32.5118 58.6284 33.02 58.6284H40.7C41.2082 58.6284 41.66 59.024 41.66 59.5891Z" fill="#8E96AB"/>
<path d="M67.4671 59.5891C67.4671 60.1542 67.0153 60.5498 66.5071 60.5498H58.8272C58.2625 60.5498 57.8672 60.0977 57.8672 59.5891C57.8672 59.024 58.3189 58.6284 58.8272 58.6284H66.5071C67.0153 58.6284 67.4671 59.024 67.4671 59.5891Z" fill="#8E96AB"/>
<path d="M119.984 59.5891C119.984 60.1542 119.532 60.5498 119.024 60.5498H111.344C110.78 60.5498 110.384 60.0977 110.384 59.5891C110.384 59.024 110.836 58.6284 111.344 58.6284H119.024C119.532 58.6284 119.984 59.024 119.984 59.5891Z" fill="#8E96AB"/>
<path d="M67.4671 80.1028C67.4671 80.6679 67.0153 81.0635 66.5071 81.0635H58.8272C58.2625 81.0635 57.8672 80.6114 57.8672 80.1028C57.8672 79.5377 58.3189 79.1421 58.8272 79.1421H66.5071C67.0153 79.1421 67.4671 79.5377 67.4671 80.1028Z" fill="#8E96AB"/>
<path d="M34.7714 53.1469C36.2996 53.1469 37.5385 51.9072 37.5385 50.3779C37.5385 48.8486 36.2996 47.6089 34.7714 47.6089C33.2432 47.6089 32.0044 48.8486 32.0044 50.3779C32.0044 51.9072 33.2432 53.1469 34.7714 53.1469Z" fill="#8E96AB"/>
<path d="M60.5781 53.1469C62.1063 53.1469 63.3451 51.9072 63.3451 50.3779C63.3451 48.8486 62.1063 47.6089 60.5781 47.6089C59.0499 47.6089 57.811 48.8486 57.811 50.3779C57.811 51.9072 59.0499 53.1469 60.5781 53.1469Z" fill="#8E96AB"/>
<path d="M113.095 53.1469C114.623 53.1469 115.862 51.9072 115.862 50.3779C115.862 48.8486 114.623 47.6089 113.095 47.6089C111.567 47.6089 110.328 48.8486 110.328 50.3779C110.328 51.9072 111.567 53.1469 113.095 53.1469Z" fill="#8E96AB"/>
<path d="M60.5781 73.6606C62.1063 73.6606 63.3451 72.4209 63.3451 70.8916C63.3451 69.3623 62.1063 68.1226 60.5781 68.1226C59.0499 68.1226 57.811 69.3623 57.811 70.8916C57.811 72.4209 59.0499 73.6606 60.5781 73.6606Z" fill="#8E96AB"/>
<defs>
<filter id="filter0_d_111_669" x="0.0546875" y="8.37988" width="157.94" height="126.872" filterUnits="userSpaceOnUse" color-interpolation-filters="sRGB">
<feFlood flood-opacity="0" result="BackgroundImageFix"/>
<feColorMatrix in="SourceAlpha" type="matrix" values="0 0 0 0 0 0 0 0 0 0 0 0 0 0 0 0 0 0 127 0" result="hardAlpha"/>
<feOffset dy="11"/>
<feGaussianBlur stdDeviation="11"/>
<feColorMatrix type="matrix" values="0 0 0 0 0 0 0 0 0 0 0 0 0 0 0 0 0 0 0.27 0"/>
<feBlend mode="normal" in2="BackgroundImageFix" result="effect1_dropShadow_111_669"/>
<feBlend mode="normal" in="SourceGraphic" in2="effect1_dropShadow_111_669" result="shape"/>
</filter>
</defs>
</svg>
