<svg width="177" height="146" viewBox="0 0 177 146" fill="none" xmlns="http://www.w3.org/2000/svg">
<path d="M80.8662 125C116.463 125 145.32 97.0178 145.32 62.5C145.32 27.9822 116.463 0 80.8662 0C45.2695 0 16.4126 27.9822 16.4126 62.5C16.4126 97.0178 45.2695 125 80.8662 125Z" fill="#2A2E37"/>
<g filter="url(#filter0_d_121_6448)">
<path d="M139.994 25.2044V99.2718C139.994 101.951 137.719 104.158 134.955 104.158H27.4475C24.684 104.158 22.4082 101.951 22.4082 99.2718V25.2044C22.4082 22.5247 24.684 20.3179 27.4475 20.3179H134.955C137.719 20.3179 139.994 22.5247 139.994 25.2044Z" fill="#5C6479"/>
</g>
<path d="M139.994 25.2044V28.751H22.4082V25.2044C22.4082 22.5247 24.684 20.3179 27.4475 20.3179H134.955C137.719 20.3179 139.994 22.5247 139.994 25.2044Z" fill="#474E61"/>
<path d="M27.6908 26.0716C28.5437 26.0716 29.2351 25.4012 29.2351 24.5741C29.2351 23.7471 28.5437 23.0767 27.6908 23.0767C26.8379 23.0767 26.1465 23.7471 26.1465 24.5741C26.1465 25.4012 26.8379 26.0716 27.6908 26.0716Z" fill="#C6CDDF"/>
<path opacity="0.6" d="M32.4862 26.0716C33.3391 26.0716 34.0305 25.4012 34.0305 24.5741C34.0305 23.7471 33.3391 23.0767 32.4862 23.0767C31.6333 23.0767 30.9419 23.7471 30.9419 24.5741C30.9419 25.4012 31.6333 26.0716 32.4862 26.0716Z" fill="#C6CDDF"/>
<path opacity="0.4" d="M37.3631 26.0716C38.216 26.0716 38.9074 25.4012 38.9074 24.5741C38.9074 23.7471 38.216 23.0767 37.3631 23.0767C36.5102 23.0767 35.8188 23.7471 35.8188 24.5741C35.8188 25.4012 36.5102 26.0716 37.3631 26.0716Z" fill="#C6CDDF"/>
<path d="M52.4618 40.6665H35.36C34.2911 40.6665 33.4004 39.5898 33.4004 38.7285C33.4004 37.6519 34.2911 36.7905 35.36 36.7905H52.4618C53.5307 36.7905 54.4214 37.8672 54.4214 38.7285C54.4214 39.8052 53.5307 40.6665 52.4618 40.6665Z" fill="#8E96AB"/>
<path d="M47.8368 67.7983H35.3137C34.2701 67.7983 33.4004 66.7217 33.4004 65.8603C33.4004 64.7837 34.2701 63.9224 35.3137 63.9224H47.8368C48.8804 63.9224 49.7501 64.999 49.7501 65.8603C49.5761 66.7217 48.7065 67.7983 47.8368 67.7983Z" fill="#8E96AB"/>
<path d="M128.318 67.7983H104.313C103.216 67.7983 102.302 66.7217 102.302 65.8603C102.302 64.7837 103.216 63.9224 104.313 63.9224H128.318C129.416 63.9224 130.33 64.999 130.33 65.8603C130.147 66.7217 129.233 67.7983 128.318 67.7983Z" fill="#C6CDDF"/>
<path d="M94.431 67.7983H57.621C56.5126 67.7983 55.5889 66.7217 55.5889 65.8603C55.5889 64.7837 56.5126 63.9224 57.621 63.9224H94.431C95.5394 63.9224 96.4631 64.999 96.4631 65.8603C96.2783 66.7217 95.3546 67.7983 94.431 67.7983Z" fill="#C6CDDF"/>
<path d="M65.2161 76.519H42.4595C41.3404 76.519 40.4077 75.4424 40.4077 74.5811C40.4077 73.5044 41.3404 72.6431 42.4595 72.6431H65.2161C66.3353 72.6431 67.2679 73.7197 67.2679 74.5811C67.0814 75.6577 66.1487 76.519 65.2161 76.519Z" fill="#C6CDDF"/>
<path d="M86.3123 76.519H73.9163C72.838 76.519 71.9395 75.4424 71.9395 74.5811C71.9395 73.5044 72.838 72.6431 73.9163 72.6431H86.3123C87.3906 72.6431 88.2891 73.7197 88.2891 74.5811C88.1094 75.6577 87.2109 76.519 86.3123 76.519Z" fill="#C6CDDF"/>
<path d="M61.715 86.209H35.4495C34.3318 86.209 33.4004 85.1323 33.4004 84.271C33.4004 83.1943 34.3318 82.333 35.4495 82.333H61.715C62.8327 82.333 63.7641 83.4097 63.7641 84.271C63.7641 85.3477 63.019 86.209 61.715 86.209Z" fill="#8E96AB"/>
<path d="M80.4778 86.209H70.4083C69.3325 86.209 68.436 85.1323 68.436 84.271C68.436 83.1943 69.3325 82.333 70.4083 82.333H80.4778C81.5536 82.333 82.45 83.4097 82.45 84.271C82.45 85.3477 81.7329 86.209 80.4778 86.209Z" fill="#C6CDDF"/>
<path d="M46.5456 94.9302H35.437C34.3261 94.9302 33.4004 93.8535 33.4004 92.9922C33.4004 91.9155 34.3261 91.0542 35.437 91.0542H46.5456C47.6565 91.0542 48.5822 92.1309 48.5822 92.9922C48.5822 94.0688 47.8417 94.9302 46.5456 94.9302Z" fill="#C6CDDF"/>
<path d="M56.089 94.9302H53.9201C52.9191 94.9302 52.085 93.8535 52.085 92.9922C52.085 91.9155 52.9191 91.0542 53.9201 91.0542H56.089C57.09 91.0542 57.9241 92.1309 57.9241 92.9922C57.9241 94.0688 57.09 94.9302 56.089 94.9302Z" fill="#C6CDDF"/>
<path d="M39.812 59.0771H35.1636C34.2018 59.0771 33.4004 58.0005 33.4004 57.1392C33.4004 56.0625 34.2018 55.2012 35.1636 55.2012H39.812C40.7738 55.2012 41.5752 56.2778 41.5752 57.1392C41.5752 58.2158 40.7738 59.0771 39.812 59.0771Z" fill="#C6CDDF"/>
<path d="M80.4325 59.0771H51.7688C50.6682 59.0771 49.751 58.0005 49.751 57.1392C49.751 56.0625 50.6682 55.2012 51.7688 55.2012H80.4325C81.5331 55.2012 82.4503 56.2778 82.4503 57.1392C82.4503 58.2158 81.5331 59.0771 80.4325 59.0771Z" fill="#C6CDDF"/>
<path d="M61.715 49.3872H35.4495C34.3318 49.3872 33.4004 48.3105 33.4004 47.4492C33.4004 46.3726 34.3318 45.5112 35.4495 45.5112H61.715C62.8327 45.5112 63.7641 46.5879 63.7641 47.4492C63.7641 48.5259 63.019 49.3872 61.715 49.3872Z" fill="#C6CDDF"/>
<path d="M96.7507 49.3872H70.4851C69.3674 49.3872 68.436 48.3105 68.436 47.4492C68.436 46.3726 69.3674 45.5112 70.4851 45.5112H96.7507C97.8683 45.5112 98.7997 46.5879 98.7997 47.4492C98.7997 48.5259 98.0546 49.3872 96.7507 49.3872Z" fill="#8E96AB"/>
<path d="M115.513 49.3872H105.443C104.368 49.3872 103.471 48.3105 103.471 47.4492C103.471 46.3726 104.368 45.5112 105.443 45.5112H115.513C116.589 45.5112 117.485 46.5879 117.485 47.4492C117.485 48.5259 116.768 49.3872 115.513 49.3872Z" fill="#8E96AB"/>
<g filter="url(#filter1_d_121_6448)">
<circle cx="127" cy="85" r="28" fill="url(#paint0_linear_121_6448)"/>
</g>
<path d="M126.369 76.0937C125.684 75.4016 124.54 74.7094 123.397 74.7094C123.169 73.7866 123.397 71.4794 124.769 70.3259C125.226 70.0952 125.226 69.403 124.998 69.1723C124.54 68.7109 124.083 68.7109 123.626 68.9416C121.797 70.3259 121.339 73.0944 121.568 74.7094C120.196 74.9402 119.282 75.863 118.596 77.0166C116.995 76.3244 114.252 76.0937 112.423 77.478C111.965 77.7087 111.965 78.4009 112.194 78.6316C112.423 79.093 113.109 79.093 113.337 78.8623C114.709 77.7087 116.995 78.1702 117.91 78.6316C117.681 79.7852 117.91 80.9387 118.596 81.8616C118.825 82.0923 119.053 82.0923 119.282 82.0923L119.51 81.8616C120.654 79.093 123.169 77.2473 125.912 76.7859C126.141 76.7859 126.369 76.5552 126.369 76.3244V76.0937Z" fill="#474E61"/>
<path d="M120.875 81.7601C119.507 84.2209 119.279 86.9053 120.419 89.3661L117.683 90.4846L115.402 88.2476C114.946 88.0239 114.49 88.0239 114.262 88.2476C114.034 88.695 114.034 89.1424 114.262 89.3661L116.999 91.8268C117.227 92.0505 117.683 92.0505 117.911 92.0505L121.331 90.4846C121.331 90.7083 121.559 90.7083 121.559 90.932C122.699 92.2742 123.839 93.3928 125.435 94.2876L123.155 97.1957C122.927 97.4194 122.927 97.8668 123.155 98.0906L124.523 100.999C124.751 101.446 125.207 101.67 125.663 101.446C125.663 101.446 125.663 101.446 125.891 101.446C126.12 101.222 126.348 100.775 126.119 100.328L124.979 98.0906L127.032 95.4061C129.084 96.5246 131.364 96.972 133.644 96.972C134.1 96.972 134.556 96.5246 134.556 96.0772C134.556 95.8535 134.556 95.8535 134.328 95.6298L123.155 81.5364C122.699 81.089 122.015 80.8653 121.331 81.3127C120.875 81.5364 120.875 81.7601 120.875 81.7601Z" fill="#474E61"/>
<path d="M133.158 72.9814C132.73 73.2182 132.516 73.6917 132.73 74.1653L134.229 77.2435L132.516 79.6114C130.374 77.9539 127.805 77.2435 125.235 77.9539C124.593 78.1907 124.164 78.901 124.378 79.6114C124.378 79.8482 124.593 80.085 124.593 80.085L135.086 95.0025C135.3 95.4761 135.942 95.4761 136.156 95.2393C136.371 95.2393 136.371 95.0025 136.371 94.7657C137.013 92.3979 137.013 90.03 136.585 87.6621L139.583 86.2414L141.51 87.8989C141.938 88.1357 142.367 88.1357 142.581 87.8989C142.795 87.4254 142.795 86.9518 142.581 86.715L140.225 84.5839C140.011 84.3471 139.583 84.3471 139.369 84.3471L136.156 86.0046C135.728 84.3471 134.871 82.6896 133.801 81.2689C133.801 81.0321 133.587 81.0321 133.587 80.7953L135.728 77.7171C135.942 77.4803 135.942 77.0067 135.728 76.77L134.015 73.2182C134.015 72.9814 133.587 72.7446 133.158 72.9814Z" fill="#474E61"/>
<defs>
<filter id="filter0_d_121_6448" x="0.408203" y="9.31787" width="161.586" height="127.84" filterUnits="userSpaceOnUse" color-interpolation-filters="sRGB">
<feFlood flood-opacity="0" result="BackgroundImageFix"/>
<feColorMatrix in="SourceAlpha" type="matrix" values="0 0 0 0 0 0 0 0 0 0 0 0 0 0 0 0 0 0 127 0" result="hardAlpha"/>
<feOffset dy="11"/>
<feGaussianBlur stdDeviation="11"/>
<feColorMatrix type="matrix" values="0 0 0 0 0 0 0 0 0 0 0 0 0 0 0 0 0 0 0.27 0"/>
<feBlend mode="normal" in2="BackgroundImageFix" result="effect1_dropShadow_121_6448"/>
<feBlend mode="normal" in="SourceGraphic" in2="effect1_dropShadow_121_6448" result="shape"/>
</filter>
<filter id="filter1_d_121_6448" x="77" y="46" width="100" height="100" filterUnits="userSpaceOnUse" color-interpolation-filters="sRGB">
<feFlood flood-opacity="0" result="BackgroundImageFix"/>
<feColorMatrix in="SourceAlpha" type="matrix" values="0 0 0 0 0 0 0 0 0 0 0 0 0 0 0 0 0 0 127 0" result="hardAlpha"/>
<feOffset dy="11"/>
<feGaussianBlur stdDeviation="11"/>
<feColorMatrix type="matrix" values="0 0 0 0 0 0 0 0 0 0 0 0 0 0 0 0 0 0 0.27 0"/>
<feBlend mode="normal" in2="BackgroundImageFix" result="effect1_dropShadow_121_6448"/>
<feBlend mode="normal" in="SourceGraphic" in2="effect1_dropShadow_121_6448" result="shape"/>
</filter>
<linearGradient id="paint0_linear_121_6448" x1="111.846" y1="71.7" x2="135.937" y2="112.485" gradientUnits="userSpaceOnUse">
<stop stop-color="#E3EAF7"/>
<stop offset="1" stop-color="#ADB6C8"/>
</linearGradient>
</defs>
</svg>
