<svg width="152" height="150" viewBox="0 0 152 150" fill="none" xmlns="http://www.w3.org/2000/svg">
<path d="M75.1308 126C109.624 126 137.586 98.0178 137.586 63.5C137.586 28.9822 109.624 1 75.1308 1C40.6379 1 12.6758 28.9822 12.6758 63.5C12.6758 98.0178 40.6379 126 75.1308 126Z" fill="#2A2E37"/>
<g filter="url(#filter0_d_111_1790)">
<path d="M129.196 15.9881V111.373C129.196 114.053 126.991 116.26 124.313 116.26H26.9167C24.2389 116.26 22.0337 114.053 22.0337 111.373V15.9881C22.0337 13.3084 24.2389 11.1016 26.9167 11.1016H124.313C126.991 11.1016 129.196 13.3084 129.196 15.9881Z" fill="#5C6479"/>
</g>
<rect x="40.1006" y="64.9531" width="72.8295" height="15.5659" rx="7.78295" fill="url(#paint0_linear_111_1790)"/>
<path d="M129.196 15.9881V19.5347H22.0337V15.9881C22.0337 13.3084 24.2389 11.1016 26.9167 11.1016H124.313C126.991 11.1016 129.196 13.3084 129.196 15.9881Z" fill="#393F4E"/>
<path d="M27.1527 16.8548C27.9791 16.8548 28.6491 16.1844 28.6491 15.3573C28.6491 14.5303 27.9791 13.8599 27.1527 13.8599C26.3262 13.8599 25.6562 14.5303 25.6562 15.3573C25.6562 16.1844 26.3262 16.8548 27.1527 16.8548Z" fill="#C6CDDF"/>
<path opacity="0.6" d="M31.7996 16.8548C32.6261 16.8548 33.296 16.1844 33.296 15.3573C33.296 14.5303 32.6261 13.8599 31.7996 13.8599C30.9732 13.8599 30.3032 14.5303 30.3032 15.3573C30.3032 16.1844 30.9732 16.8548 31.7996 16.8548Z" fill="#C6CDDF"/>
<path opacity="0.4" d="M36.5252 16.8548C37.3517 16.8548 38.0216 16.1844 38.0216 15.3573C38.0216 14.5303 37.3517 13.8599 36.5252 13.8599C35.6988 13.8599 35.0288 14.5303 35.0288 15.3573C35.0288 16.1844 35.6988 16.8548 36.5252 16.8548Z" fill="#C6CDDF"/>
<circle cx="76.4419" cy="44.7285" r="4" fill="#8E96AB"/>
<circle cx="90.4419" cy="44.7285" r="4" fill="#8E96AB"/>
<circle cx="104.442" cy="44.7285" r="4" fill="#8E96AB"/>
<circle cx="118.442" cy="44.7285" r="4" fill="#8E96AB"/>
<circle cx="34.4419" cy="58.7285" r="4" fill="#8E96AB"/>
<circle cx="48.4419" cy="58.7285" r="4" fill="#8E96AB"/>
<circle cx="62.4419" cy="58.7285" r="4" fill="#8E96AB"/>
<circle cx="76.4419" cy="58.7285" r="4" fill="#8E96AB"/>
<circle cx="90.4419" cy="58.7285" r="4" fill="#8E96AB"/>
<circle cx="104.442" cy="58.7285" r="4" fill="#8E96AB"/>
<circle cx="118.442" cy="58.7285" r="4" fill="#8E96AB"/>
<circle cx="34.4419" cy="72.7285" r="4" fill="#8E96AB"/>
<circle cx="48.4419" cy="72.7285" r="4" fill="#393F4E"/>
<circle cx="62.4419" cy="72.7285" r="4" fill="#393F4E"/>
<circle cx="76.4419" cy="72.7285" r="4" fill="#393F4E"/>
<circle cx="90.4419" cy="72.7285" r="4" fill="#393F4E"/>
<circle cx="104.442" cy="72.7285" r="4" fill="#393F4E"/>
<circle cx="118.442" cy="72.7285" r="4" fill="#8E96AB"/>
<circle cx="34.4419" cy="86.7285" r="4" fill="#8E96AB"/>
<circle cx="48.4419" cy="86.7285" r="4" fill="#8E96AB"/>
<circle cx="62.4419" cy="86.7285" r="4" fill="#8E96AB"/>
<circle cx="76.4419" cy="86.7285" r="4" fill="#8E96AB"/>
<circle cx="90.4419" cy="86.7285" r="4" fill="#8E96AB"/>
<circle cx="104.442" cy="86.7285" r="4" fill="#8E96AB"/>
<circle cx="118.442" cy="86.7285" r="4" fill="#8E96AB"/>
<circle cx="34.4419" cy="100.729" r="4" fill="#8E96AB"/>
<circle cx="48.4419" cy="100.729" r="4" fill="#8E96AB"/>
<circle cx="62.4419" cy="100.729" r="4" fill="#8E96AB"/>
<circle cx="76.4419" cy="100.729" r="4" fill="#8E96AB"/>
<g opacity="0.5">
<rect x="30.4419" y="29.1006" width="8" height="3" rx="1.5" fill="#8E96AB"/>
<rect x="44.4419" y="29.1006" width="8" height="3" rx="1.5" fill="#8E96AB"/>
<rect x="58.4419" y="29.1006" width="8" height="3" rx="1.5" fill="#8E96AB"/>
<rect x="72.4419" y="29.1006" width="8" height="3" rx="1.5" fill="#8E96AB"/>
<rect x="86.4419" y="29.1006" width="8" height="3" rx="1.5" fill="#8E96AB"/>
<rect x="100.442" y="29.1006" width="8" height="3" rx="1.5" fill="#8E96AB"/>
<rect x="114.442" y="29.1006" width="8" height="3" rx="1.5" fill="#8E96AB"/>
</g>
<defs>
<filter id="filter0_d_111_1790" x="0.0336914" y="0.101562" width="151.162" height="149.158" filterUnits="userSpaceOnUse" color-interpolation-filters="sRGB">
<feFlood flood-opacity="0" result="BackgroundImageFix"/>
<feColorMatrix in="SourceAlpha" type="matrix" values="0 0 0 0 0 0 0 0 0 0 0 0 0 0 0 0 0 0 127 0" result="hardAlpha"/>
<feOffset dy="11"/>
<feGaussianBlur stdDeviation="11"/>
<feColorMatrix type="matrix" values="0 0 0 0 0 0 0 0 0 0 0 0 0 0 0 0 0 0 0.27 0"/>
<feBlend mode="normal" in2="BackgroundImageFix" result="effect1_dropShadow_111_1790"/>
<feBlend mode="normal" in="SourceGraphic" in2="effect1_dropShadow_111_1790" result="shape"/>
</filter>
<linearGradient id="paint0_linear_111_1790" x1="56.8066" y1="69.0392" x2="58.7069" y2="84.0914" gradientUnits="userSpaceOnUse">
<stop stop-color="#E3EAF7"/>
<stop offset="1" stop-color="#ADB6C8"/>
</linearGradient>
</defs>
</svg>
