<svg width="159" height="143" viewBox="0 0 159 143" fill="none" xmlns="http://www.w3.org/2000/svg">
<path d="M79.4551 125C113.948 125 141.91 97.0178 141.91 62.5C141.91 27.9822 113.948 0 79.4551 0C44.9621 0 17 27.9822 17 62.5C17 97.0178 44.9621 125 79.4551 125Z" fill="#2A2E37"/>
<g filter="url(#filter0_d_111_1624)">
<path d="M136.425 23.7093V104.56C136.425 107.239 134.22 109.446 131.542 109.446H27.3679C24.6901 109.446 22.4849 107.239 22.4849 104.56V23.7093C22.4849 21.0296 24.6901 18.8228 27.3679 18.8228H131.542C134.22 18.8228 136.425 21.0296 136.425 23.7093Z" fill="#5C6479"/>
</g>
<path d="M136.425 23.7093V27.2559H22.4849V23.7093C22.4849 21.0296 24.6901 18.8228 27.3679 18.8228H131.542C134.22 18.8228 136.425 21.0296 136.425 23.7093Z" fill="#393F4E"/>
<path d="M27.6038 24.576C28.4303 24.576 29.1002 23.9056 29.1002 23.0785C29.1002 22.2515 28.4303 21.5811 27.6038 21.5811C26.7774 21.5811 26.1074 22.2515 26.1074 23.0785C26.1074 23.9056 26.7774 24.576 27.6038 24.576Z" fill="#C6CDDF"/>
<path opacity="0.6" d="M32.2508 24.576C33.0772 24.576 33.7472 23.9056 33.7472 23.0785C33.7472 22.2515 33.0772 21.5811 32.2508 21.5811C31.4244 21.5811 30.7544 22.2515 30.7544 23.0785C30.7544 23.9056 31.4244 24.576 32.2508 24.576Z" fill="#C6CDDF"/>
<path opacity="0.4" d="M36.9764 24.576C37.8028 24.576 38.4728 23.9056 38.4728 23.0785C38.4728 22.2515 37.8028 21.5811 36.9764 21.5811C36.1499 21.5811 35.48 22.2515 35.48 23.0785C35.48 23.9056 36.1499 24.576 36.9764 24.576Z" fill="#C6CDDF"/>
<path d="M127.386 35.8525V99.806H32.4927V35.8525H127.386Z" stroke="#8E96AB" stroke-width="1.5" stroke-miterlimit="10"/>
<path d="M32.5381 51.3311H126.995" stroke="#8E96AB" stroke-width="1.5" stroke-miterlimit="10"/>
<path d="M32.5381 66.8604H126.995" stroke="#8E96AB" stroke-width="1.5" stroke-miterlimit="10"/>
<path d="M32.5381 83.4927H126.995" stroke="#8E96AB" stroke-width="1.5" stroke-miterlimit="10"/>
<path d="M51.8584 35.8525V99.806" stroke="#8E96AB" stroke-width="1.5" stroke-miterlimit="10"/>
<path d="M70.2563 35.8525V99.806" stroke="#8E96AB" stroke-width="1.5" stroke-miterlimit="10"/>
<path d="M89.6221 35.8525V99.806" stroke="#8E96AB" stroke-width="1.5" stroke-miterlimit="10"/>
<path d="M108.988 35.8525V99.806" stroke="#8E96AB" stroke-width="1.5" stroke-miterlimit="10"/>
<rect x="71.8525" y="52.3257" width="17.4419" height="4.84496" rx="1" fill="#C6CDDF"/>
<rect x="34.0615" y="36.8218" width="17.4419" height="4.84496" rx="1" fill="#C6CDDF"/>
<rect x="34.0615" y="76.5503" width="35.8527" height="4.84496" rx="1" fill="#C6CDDF"/>
<rect x="71.8525" y="58.1396" width="17.4419" height="6.78295" rx="1" fill="#C6CDDF"/>
<rect x="53.4414" y="52.3257" width="16.4729" height="6.78295" rx="1" fill="#C6CDDF"/>
<rect x="91.2324" y="36.8218" width="17.4419" height="6.78295" rx="1" fill="#C6CDDF"/>
<circle opacity="0.1" cx="111.581" cy="38.7595" r="0.968992" fill="#8E96AB"/>
<rect x="91.2324" y="58.1396" width="35.8527" height="6.78295" rx="1" fill="#C6CDDF"/>
<circle cx="55.3796" cy="38.7595" r="0.968992" fill="#8E96AB"/>
<circle cx="55.3796" cy="54.2634" r="0.968992" fill="white"/>
<circle cx="55.3796" cy="69.7673" r="0.968992" fill="#8E96AB"/>
<circle cx="55.3796" cy="86.2405" r="0.968992" fill="#8E96AB"/>
<circle cx="35.9998" cy="38.7595" r="0.968992" fill="white"/>
<circle cx="35.9998" cy="54.2634" r="0.968992" fill="#8E96AB"/>
<circle cx="35.9998" cy="69.7673" r="0.968992" fill="#8E96AB"/>
<circle cx="35.9998" cy="86.2405" r="0.968992" fill="#8E96AB"/>
<circle cx="73.7903" cy="38.7595" r="0.968992" fill="#8E96AB"/>
<circle cx="73.7903" cy="54.2634" r="0.968992" fill="white"/>
<circle cx="73.7903" cy="69.7673" r="0.968992" fill="#8E96AB"/>
<circle cx="73.7903" cy="86.2405" r="0.968992" fill="#8E96AB"/>
<circle cx="112.55" cy="38.7595" r="0.968992" fill="#8E96AB"/>
<circle cx="112.55" cy="54.2634" r="0.968992" fill="#8E96AB"/>
<circle cx="112.55" cy="69.7673" r="0.968992" fill="#8E96AB"/>
<circle cx="112.55" cy="86.2405" r="0.968992" fill="#8E96AB"/>
<circle cx="93.1702" cy="38.7595" r="0.968992" fill="white"/>
<circle cx="93.1702" cy="54.2634" r="0.968992" fill="#8E96AB"/>
<circle cx="93.1702" cy="69.7673" r="0.968992" fill="#8E96AB"/>
<circle cx="93.1702" cy="86.2405" r="0.968992" fill="#8E96AB"/>
<defs>
<filter id="filter0_d_111_1624" x="0.484863" y="7.82275" width="157.94" height="134.624" filterUnits="userSpaceOnUse" color-interpolation-filters="sRGB">
<feFlood flood-opacity="0" result="BackgroundImageFix"/>
<feColorMatrix in="SourceAlpha" type="matrix" values="0 0 0 0 0 0 0 0 0 0 0 0 0 0 0 0 0 0 127 0" result="hardAlpha"/>
<feOffset dy="11"/>
<feGaussianBlur stdDeviation="11"/>
<feColorMatrix type="matrix" values="0 0 0 0 0 0 0 0 0 0 0 0 0 0 0 0 0 0 0.27 0"/>
<feBlend mode="normal" in2="BackgroundImageFix" result="effect1_dropShadow_111_1624"/>
<feBlend mode="normal" in="SourceGraphic" in2="effect1_dropShadow_111_1624" result="shape"/>
</filter>
</defs>
</svg>
