<svg width="140" height="132" viewBox="0 0 140 132" fill="none" xmlns="http://www.w3.org/2000/svg">
<path d="M70.4659 115.665C102.299 115.665 128.106 89.8399 128.106 57.9834C128.106 26.127 102.299 0.302246 70.4659 0.302246C38.6324 0.302246 12.8262 26.127 12.8262 57.9834C12.8262 89.8399 38.6324 115.665 70.4659 115.665Z" fill="#2A2E37"/>
<g filter="url(#filter0_d_111_336)">
<path d="M117.698 21.9143V93.6056C117.698 96.1993 115.564 98.3353 112.972 98.3353H27.1355C24.5437 98.3353 22.4092 96.1993 22.4092 93.6056V21.9143C22.4092 19.3206 24.5437 17.1846 27.1355 17.1846H112.972C115.564 17.1846 117.698 19.3206 117.698 21.9143Z" fill="#5C6479"/>
</g>
<path d="M117.698 21.9143V25.3472H22.4092V21.9143C22.4092 19.3206 24.5437 17.1846 27.1355 17.1846H112.972C115.564 17.1846 117.698 19.3206 117.698 21.9143Z" fill="#393F4E"/>
<path d="M27.3639 22.7536C28.1638 22.7536 28.8123 22.1047 28.8123 21.3042C28.8123 20.5037 28.1638 19.8547 27.3639 19.8547C26.564 19.8547 25.9155 20.5037 25.9155 21.3042C25.9155 22.1047 26.564 22.7536 27.3639 22.7536Z" fill="#C6CDDF"/>
<path opacity="0.6" d="M31.8615 22.7536C32.6614 22.7536 33.3099 22.1047 33.3099 21.3042C33.3099 20.5037 32.6614 19.8547 31.8615 19.8547C31.0616 19.8547 30.4131 20.5037 30.4131 21.3042C30.4131 22.1047 31.0616 22.7536 31.8615 22.7536Z" fill="#C6CDDF"/>
<path opacity="0.4" d="M36.4352 22.7536C37.2351 22.7536 37.8836 22.1047 37.8836 21.3042C37.8836 20.5037 37.2351 19.8547 36.4352 19.8547C35.6353 19.8547 34.9868 20.5037 34.9868 21.3042C34.9868 22.1047 35.6353 22.7536 36.4352 22.7536Z" fill="#C6CDDF"/>
<path d="M95.5293 57.9033H44.8864C43.3811 57.9033 42.0908 56.3142 42.0908 54.4602V37.5099C42.0908 35.656 43.3811 34.0669 44.8864 34.0669H95.5293C97.0346 34.0669 98.3249 35.656 98.3249 37.5099V54.4602C98.3249 56.3142 97.0346 57.9033 95.5293 57.9033Z" fill="#8E96AB"/>
<path d="M75.5418 43.9123H49.1335C48.305 43.9123 47.5801 43.1869 47.5801 42.3578C47.5801 41.5287 48.305 40.8032 49.1335 40.8032H75.5418C76.3703 40.8032 77.0952 41.5287 77.0952 42.3578C76.9916 43.1869 76.3703 43.9123 75.5418 43.9123Z" fill="#C6CDDF"/>
<path d="M91.2827 43.9123H80.823C79.9945 43.9123 79.2695 43.1869 79.2695 42.3578C79.2695 41.5287 79.9945 40.8032 80.823 40.8032H91.2827C92.1112 40.8032 92.8361 41.5287 92.8361 42.3578C92.7326 43.1869 92.1112 43.9123 91.2827 43.9123Z" fill="#C6CDDF"/>
<path d="M70.8815 51.0632H49.1335C48.305 51.0632 47.5801 50.3377 47.5801 49.5086C47.5801 48.6796 48.305 47.9541 49.1335 47.9541H70.8815C71.71 47.9541 72.4349 48.6796 72.4349 49.5086C72.4349 50.3377 71.71 51.0632 70.8815 51.0632Z" fill="#C6CDDF"/>
<path d="M95.5293 88.5639H44.8864C43.3811 88.5639 42.0908 86.9748 42.0908 85.1209V68.1706C42.0908 66.3166 43.3811 64.7275 44.8864 64.7275H95.5293C97.0346 64.7275 98.3249 66.3166 98.3249 68.1706V85.1209C98.3249 87.1072 97.0346 88.5639 95.5293 88.5639Z" fill="#8E96AB"/>
<path d="M75.5418 74.573H49.1335C48.305 74.573 47.5801 73.8475 47.5801 73.0184C47.5801 72.1893 48.305 71.4639 49.1335 71.4639H75.5418C76.3703 71.4639 77.0952 72.1893 77.0952 73.0184C76.9916 73.9511 76.3703 74.573 75.5418 74.573Z" fill="#C6CDDF"/>
<path d="M91.2827 74.573H80.823C79.9945 74.573 79.2695 73.8475 79.2695 73.0184C79.2695 72.1893 79.9945 71.4639 80.823 71.4639H91.2827C92.1112 71.4639 92.8361 72.1893 92.8361 73.0184C92.7326 73.9511 92.1112 74.573 91.2827 74.573Z" fill="#C6CDDF"/>
<path d="M70.8815 81.7238H49.1335C48.305 81.7238 47.5801 80.9984 47.5801 80.1693C47.5801 79.3402 48.305 78.6147 49.1335 78.6147H70.8815C71.71 78.6147 72.4349 79.3402 72.4349 80.1693C72.4349 81.102 71.71 81.7238 70.8815 81.7238Z" fill="#C6CDDF"/>
<path d="M90.7885 110.64C90.4133 112.234 89.8506 113.923 89.194 115.329C87.412 118.8 84.5983 121.52 81.1281 123.302C77.564 125.084 73.3434 125.834 69.1229 124.896C59.1811 122.833 52.8033 113.078 54.8667 103.137C56.9301 93.1949 66.5905 86.7233 76.5323 88.8805C80.0964 89.6308 83.1915 91.4128 85.8176 93.8514C90.2257 98.2595 92.1016 104.637 90.7885 110.64Z" fill="url(#paint0_linear_111_336)"/>
<path d="M78.6893 105.294H74.4687V101.073C74.4687 100.229 73.8122 99.479 72.8743 99.479C72.0302 99.479 71.2799 100.136 71.2799 101.073V105.294H67.0593C66.2152 105.294 65.4648 105.951 65.4648 106.888C65.4648 107.826 66.1214 108.483 67.0593 108.483H71.2799V112.703C71.2799 113.548 71.9364 114.298 72.8743 114.298C73.7184 114.298 74.4687 113.641 74.4687 112.703V108.483H78.6893C79.5334 108.483 80.2838 107.826 80.2838 106.888C80.2838 105.951 79.5334 105.294 78.6893 105.294Z" fill="#5C6479"/>
<defs>
<filter id="filter0_d_111_336" x="0.40918" y="6.18457" width="139.289" height="125.151" filterUnits="userSpaceOnUse" color-interpolation-filters="sRGB">
<feFlood flood-opacity="0" result="BackgroundImageFix"/>
<feColorMatrix in="SourceAlpha" type="matrix" values="0 0 0 0 0 0 0 0 0 0 0 0 0 0 0 0 0 0 127 0" result="hardAlpha"/>
<feOffset dy="11"/>
<feGaussianBlur stdDeviation="11"/>
<feColorMatrix type="matrix" values="0 0 0 0 0 0 0 0 0 0 0 0 0 0 0 0 0 0 0.27 0"/>
<feBlend mode="normal" in2="BackgroundImageFix" result="effect1_dropShadow_111_336"/>
<feBlend mode="normal" in="SourceGraphic" in2="effect1_dropShadow_111_336" result="shape"/>
</filter>
<linearGradient id="paint0_linear_111_336" x1="62.9022" y1="98.135" x2="78.7734" y2="124.92" gradientUnits="userSpaceOnUse">
<stop stop-color="#E3EAF7"/>
<stop offset="1" stop-color="#ADB6C8"/>
</linearGradient>
</defs>
</svg>
