<svg width="189" height="144" viewBox="0 0 189 144" fill="none" xmlns="http://www.w3.org/2000/svg">
<path d="M81.4536 125C117.05 125 145.907 97.0178 145.907 62.5C145.907 27.9822 117.05 0 81.4536 0C45.8569 0 17 27.9822 17 62.5C17 97.0178 45.8569 125 81.4536 125Z" fill="#2A2E37"/>
<g filter="url(#filter0_d_121_6417)">
<path d="M140.582 25.2044V99.2718C140.582 101.951 138.306 104.158 135.543 104.158H28.0349C25.2714 104.158 22.9956 101.951 22.9956 99.2718V25.2044C22.9956 22.5247 25.2714 20.3179 28.0349 20.3179H135.543C138.306 20.3179 140.582 22.5247 140.582 25.2044Z" fill="#5C6479"/>
</g>
<rect x="29.1631" y="60" width="106" height="21" fill="#474E61"/>
<path d="M140.582 25.2044V28.751H22.9956V25.2044C22.9956 22.5247 25.2714 20.3179 28.0349 20.3179H135.543C138.306 20.3179 140.582 22.5247 140.582 25.2044Z" fill="#474E61"/>
<path d="M28.2782 26.0716C29.1311 26.0716 29.8225 25.4012 29.8225 24.5741C29.8225 23.7471 29.1311 23.0767 28.2782 23.0767C27.4253 23.0767 26.7339 23.7471 26.7339 24.5741C26.7339 25.4012 27.4253 26.0716 28.2782 26.0716Z" fill="#C6CDDF"/>
<path opacity="0.6" d="M33.0736 26.0716C33.9265 26.0716 34.6179 25.4012 34.6179 24.5741C34.6179 23.7471 33.9265 23.0767 33.0736 23.0767C32.2207 23.0767 31.5293 23.7471 31.5293 24.5741C31.5293 25.4012 32.2207 26.0716 33.0736 26.0716Z" fill="#C6CDDF"/>
<path opacity="0.4" d="M37.9505 26.0716C38.8034 26.0716 39.4948 25.4012 39.4948 24.5741C39.4948 23.7471 38.8034 23.0767 37.9505 23.0767C37.0977 23.0767 36.4062 23.7471 36.4062 24.5741C36.4062 25.4012 37.0977 26.0716 37.9505 26.0716Z" fill="#C6CDDF"/>
<path d="M53.0492 38.6665H35.9474C34.8785 38.6665 33.9878 37.5898 33.9878 36.7285C33.9878 35.6519 34.8785 34.7905 35.9474 34.7905H53.0492C54.1181 34.7905 55.0088 35.8672 55.0088 36.7285C55.0088 37.8052 54.1181 38.6665 53.0492 38.6665Z" fill="#8E96AB"/>
<path d="M48.4242 67.7983H35.9011C34.8575 67.7983 33.9878 66.7217 33.9878 65.8603C33.9878 64.7837 34.8575 63.9224 35.9011 63.9224H48.4242C49.4678 63.9224 50.3375 64.999 50.3375 65.8603C50.1635 66.7217 49.2939 67.7983 48.4242 67.7983Z" fill="#C6CDDF"/>
<path d="M128.906 67.7983H104.9C103.803 67.7983 102.889 66.7217 102.889 65.8603C102.889 64.7837 103.803 63.9224 104.9 63.9224H128.906C130.003 63.9224 130.917 64.999 130.917 65.8603C130.734 66.7217 129.82 67.7983 128.906 67.7983Z" fill="#C6CDDF"/>
<g filter="url(#filter1_d_121_6417)">
<path d="M135.081 68.101L114.316 101.199C111.809 105.195 114.681 110.388 119.399 110.388L160.928 110.388C165.645 110.388 168.517 105.195 166.01 101.199L145.246 68.101C142.894 64.3525 137.432 64.3525 135.081 68.101Z" fill="url(#paint0_linear_121_6417)"/>
</g>
<path d="M140.292 78.7759C138.836 78.7759 137.678 79.9998 137.76 81.454L138.39 92.7141C138.446 93.7235 139.281 94.513 140.292 94.513C141.303 94.513 142.138 93.7235 142.195 92.7141L142.825 81.454C142.906 79.9998 141.749 78.7759 140.292 78.7759ZM140.284 102.023C141.646 102.023 142.708 100.922 142.708 99.5425C142.708 98.1626 141.646 97.0796 140.284 97.0796C138.939 97.0796 137.876 98.1626 137.876 99.5425C137.876 100.922 138.939 102.023 140.284 102.023Z" fill="#393F4E"/>
<path d="M95.0188 67.7983H58.2089C57.1004 67.7983 56.1768 66.7217 56.1768 65.8603C56.1768 64.7837 57.1004 63.9224 58.2089 63.9224H95.0188C96.1273 63.9224 97.051 64.999 97.051 65.8603C96.8662 66.7217 95.9425 67.7983 95.0188 67.7983Z" fill="#C6CDDF"/>
<path d="M65.803 76.5195H43.0464C41.9273 76.5195 40.9946 75.4429 40.9946 74.5815C40.9946 73.5049 41.9273 72.6436 43.0464 72.6436H65.803C66.9222 72.6436 67.8548 73.7202 67.8548 74.5815C67.6683 75.6582 66.7356 76.5195 65.803 76.5195Z" fill="#C6CDDF"/>
<path d="M86.8992 76.5195H74.5032C73.4249 76.5195 72.5264 75.4429 72.5264 74.5815C72.5264 73.5049 73.4249 72.6436 74.5032 72.6436H86.8992C87.9775 72.6436 88.8761 73.7202 88.8761 74.5815C88.6963 75.6582 87.7978 76.5195 86.8992 76.5195Z" fill="#C6CDDF"/>
<path d="M62.3024 88.209H36.0369C34.9192 88.209 33.9878 87.1323 33.9878 86.271C33.9878 85.1943 34.9192 84.333 36.0369 84.333H62.3024C63.4201 84.333 64.3515 85.4097 64.3515 86.271C64.3515 87.3477 63.6064 88.209 62.3024 88.209Z" fill="#8E96AB"/>
<path d="M81.0647 88.209H70.9952C69.9194 88.209 69.0229 87.1323 69.0229 86.271C69.0229 85.1943 69.9194 84.333 70.9952 84.333H81.0647C82.1405 84.333 83.037 85.4097 83.037 86.271C83.037 87.3477 82.3198 88.209 81.0647 88.209Z" fill="#8E96AB"/>
<path d="M47.1331 96.9302H36.0244C34.9135 96.9302 33.9878 95.8535 33.9878 94.9922C33.9878 93.9155 34.9135 93.0542 36.0244 93.0542H47.1331C48.2439 93.0542 49.1696 94.1309 49.1696 94.9922C49.1696 96.0688 48.4291 96.9302 47.1331 96.9302Z" fill="#8E96AB"/>
<path d="M56.6764 96.9302H54.5075C53.5065 96.9302 52.6724 95.8535 52.6724 94.9922C52.6724 93.9155 53.5065 93.0542 54.5075 93.0542H56.6764C57.6774 93.0542 58.5115 94.1309 58.5115 94.9922C58.5115 96.0688 57.6774 96.9302 56.6764 96.9302Z" fill="#8E96AB"/>
<path d="M40.3994 57.0771H35.751C34.7892 57.0771 33.9878 56.0005 33.9878 55.1392C33.9878 54.0625 34.7892 53.2012 35.751 53.2012H40.3994C41.3612 53.2012 42.1626 54.2778 42.1626 55.1392C42.1626 56.2158 41.3612 57.0771 40.3994 57.0771Z" fill="#8E96AB"/>
<path d="M81.0199 57.0771H52.3562C51.2556 57.0771 50.3384 56.0005 50.3384 55.1392C50.3384 54.0625 51.2556 53.2012 52.3562 53.2012H81.0199C82.1205 53.2012 83.0377 54.2778 83.0377 55.1392C83.0377 56.2158 82.1205 57.0771 81.0199 57.0771Z" fill="#8E96AB"/>
<path d="M62.3024 47.3877H36.0369C34.9192 47.3877 33.9878 46.311 33.9878 45.4497C33.9878 44.373 34.9192 43.5117 36.0369 43.5117H62.3024C63.4201 43.5117 64.3515 44.5884 64.3515 45.4497C64.3515 46.5264 63.6064 47.3877 62.3024 47.3877Z" fill="#8E96AB"/>
<path d="M97.3376 47.3877H71.072C69.9544 47.3877 69.0229 46.311 69.0229 45.4497C69.0229 44.373 69.9544 43.5117 71.072 43.5117H97.3376C98.4552 43.5117 99.3866 44.5884 99.3866 45.4497C99.3866 46.5264 98.6415 47.3877 97.3376 47.3877Z" fill="#8E96AB"/>
<path d="M116.1 47.3877H106.031C104.955 47.3877 104.059 46.311 104.059 45.4497C104.059 44.373 104.955 43.5117 106.031 43.5117H116.1C117.176 43.5117 118.073 44.5884 118.073 45.4497C118.073 46.5264 117.355 47.3877 116.1 47.3877Z" fill="#8E96AB"/>
<defs>
<filter id="filter0_d_121_6417" x="0.995605" y="9.31787" width="161.586" height="127.84" filterUnits="userSpaceOnUse" color-interpolation-filters="sRGB">
<feFlood flood-opacity="0" result="BackgroundImageFix"/>
<feColorMatrix in="SourceAlpha" type="matrix" values="0 0 0 0 0 0 0 0 0 0 0 0 0 0 0 0 0 0 127 0" result="hardAlpha"/>
<feOffset dy="11"/>
<feGaussianBlur stdDeviation="11"/>
<feColorMatrix type="matrix" values="0 0 0 0 0 0 0 0 0 0 0 0 0 0 0 0 0 0 0.27 0"/>
<feBlend mode="normal" in2="BackgroundImageFix" result="effect1_dropShadow_121_6417"/>
<feBlend mode="normal" in="SourceGraphic" in2="effect1_dropShadow_121_6417" result="shape"/>
</filter>
<filter id="filter1_d_121_6417" x="91.3887" y="54.2896" width="97.5488" height="89.0981" filterUnits="userSpaceOnUse" color-interpolation-filters="sRGB">
<feFlood flood-opacity="0" result="BackgroundImageFix"/>
<feColorMatrix in="SourceAlpha" type="matrix" values="0 0 0 0 0 0 0 0 0 0 0 0 0 0 0 0 0 0 127 0" result="hardAlpha"/>
<feOffset dy="11"/>
<feGaussianBlur stdDeviation="11"/>
<feColorMatrix type="matrix" values="0 0 0 0 0 0 0 0 0 0 0 0 0 0 0 0 0 0 0.27 0"/>
<feBlend mode="normal" in2="BackgroundImageFix" result="effect1_dropShadow_121_6417"/>
<feBlend mode="normal" in="SourceGraphic" in2="effect1_dropShadow_121_6417" result="shape"/>
</filter>
<linearGradient id="paint0_linear_121_6417" x1="141.521" y1="121.832" x2="153.743" y2="74.3336" gradientUnits="userSpaceOnUse">
<stop stop-color="#E3EAF7"/>
<stop offset="1" stop-color="#ADB6C8"/>
</linearGradient>
</defs>
</svg>
