<svg width="163" height="139" viewBox="0 0 163 139" fill="none" xmlns="http://www.w3.org/2000/svg">
<path d="M81.1445 125C116.741 125 145.598 97.0178 145.598 62.5C145.598 27.9822 116.741 0 81.1445 0C45.5478 0 16.6909 27.9822 16.6909 62.5C16.6909 97.0178 45.5478 125 81.1445 125Z" fill="#2A2E37"/>
<g filter="url(#filter0_d_111_1387)">
<path d="M140.273 26.2044V100.272C140.273 102.951 137.997 105.158 135.234 105.158H27.7258C24.9623 105.158 22.6865 102.951 22.6865 100.272V26.2044C22.6865 23.5247 24.9623 21.3179 27.7258 21.3179H135.234C137.997 21.3179 140.273 23.5247 140.273 26.2044Z" fill="#5C6479"/>
</g>
<path d="M140.273 26.2044V29.751H22.6865V26.2044C22.6865 23.5247 24.9623 21.3179 27.7258 21.3179H135.234C137.997 21.3179 140.273 23.5247 140.273 26.2044Z" fill="#393F4E"/>
<path d="M27.9691 27.0714C28.822 27.0714 29.5134 26.4009 29.5134 25.5739C29.5134 24.7469 28.822 24.0764 27.9691 24.0764C27.1162 24.0764 26.4248 24.7469 26.4248 25.5739C26.4248 26.4009 27.1162 27.0714 27.9691 27.0714Z" fill="#C6CDDF"/>
<path opacity="0.6" d="M32.7645 27.0714C33.6174 27.0714 34.3088 26.4009 34.3088 25.5739C34.3088 24.7469 33.6174 24.0764 32.7645 24.0764C31.9116 24.0764 31.2202 24.7469 31.2202 25.5739C31.2202 26.4009 31.9116 27.0714 32.7645 27.0714Z" fill="#C6CDDF"/>
<path opacity="0.4" d="M37.6415 27.0714C38.4943 27.0714 39.1857 26.4009 39.1857 25.5739C39.1857 24.7469 38.4943 24.0764 37.6415 24.0764C36.7886 24.0764 36.0972 24.7469 36.0972 25.5739C36.0972 26.4009 36.7886 27.0714 37.6415 27.0714Z" fill="#C6CDDF"/>
<path d="M52.7401 41.6667H35.6383C34.5694 41.6667 33.6787 40.5901 33.6787 39.7288C33.6787 38.6521 34.5694 37.7908 35.6383 37.7908H52.7401C53.809 37.7908 54.6997 38.8674 54.6997 39.7288C54.6997 40.8054 53.809 41.6667 52.7401 41.6667Z" fill="#8E96AB"/>
<path d="M48.1151 68.7986H35.592C34.5484 68.7986 33.6787 67.7219 33.6787 66.8606C33.6787 65.7839 34.5484 64.9226 35.592 64.9226H48.1151C49.1587 64.9226 50.0284 65.9993 50.0284 66.8606C49.8545 67.7219 48.9848 68.7986 48.1151 68.7986Z" fill="#8E96AB"/>
<path d="M128.597 68.7986H104.591C103.494 68.7986 102.58 67.7219 102.58 66.8606C102.58 65.7839 103.494 64.9226 104.591 64.9226H128.597C129.694 64.9226 130.608 65.9993 130.608 66.8606C130.425 67.7219 129.511 68.7986 128.597 68.7986Z" fill="#C6CDDF"/>
<path d="M94.7093 68.7986H57.8993C56.7909 68.7986 55.8672 67.7219 55.8672 66.8606C55.8672 65.7839 56.7909 64.9226 57.8993 64.9226H94.7093C95.8177 64.9226 96.7414 65.9993 96.7414 66.8606C96.5566 67.7219 95.633 68.7986 94.7093 68.7986Z" fill="#C6CDDF"/>
<path d="M65.4944 77.5195H42.7379C41.6187 77.5195 40.686 76.4429 40.686 75.5815C40.686 74.5049 41.6187 73.6436 42.7379 73.6436H65.4944C66.6136 73.6436 67.5462 74.7202 67.5462 75.5815C67.3597 76.6582 66.4271 77.5195 65.4944 77.5195Z" fill="#C6CDDF"/>
<path d="M86.5906 77.5195H74.1946C73.1163 77.5195 72.2178 76.4429 72.2178 75.5815C72.2178 74.5049 73.1163 73.6436 74.1946 73.6436H86.5906C87.6689 73.6436 88.5675 74.7202 88.5675 75.5815C88.3877 76.6582 87.4892 77.5195 86.5906 77.5195Z" fill="#C6CDDF"/>
<path d="M61.9933 87.2095H35.7278C34.6101 87.2095 33.6787 86.1328 33.6787 85.2715C33.6787 84.1948 34.6101 83.3335 35.7278 83.3335H61.9933C63.111 83.3335 64.0424 84.4102 64.0424 85.2715C64.0424 86.3481 63.2973 87.2095 61.9933 87.2095Z" fill="#8E96AB"/>
<path d="M80.7561 87.2095H70.6866C69.6108 87.2095 68.7144 86.1328 68.7144 85.2715C68.7144 84.1948 69.6108 83.3335 70.6866 83.3335H80.7561C81.8319 83.3335 82.7284 84.4102 82.7284 85.2715C82.7284 86.3481 82.0112 87.2095 80.7561 87.2095Z" fill="#C6CDDF"/>
<path d="M46.824 95.9304H35.7153C34.6044 95.9304 33.6787 94.8538 33.6787 93.9924C33.6787 92.9158 34.6044 92.0544 35.7153 92.0544H46.824C47.9348 92.0544 48.8606 93.1311 48.8606 93.9924C48.8606 95.0691 48.12 95.9304 46.824 95.9304Z" fill="#C6CDDF"/>
<path d="M56.3673 95.9304H54.1985C53.1974 95.9304 52.3633 94.8538 52.3633 93.9924C52.3633 92.9158 53.1974 92.0544 54.1985 92.0544H56.3673C57.3683 92.0544 58.2025 93.1311 58.2025 93.9924C58.2025 95.0691 57.3683 95.9304 56.3673 95.9304Z" fill="#C6CDDF"/>
<path d="M40.0904 60.0776H35.4419C34.4802 60.0776 33.6787 59.001 33.6787 58.1396C33.6787 57.063 34.4802 56.2017 35.4419 56.2017H40.0904C41.0521 56.2017 41.8536 57.2783 41.8536 58.1396C41.8536 59.2163 41.0521 60.0776 40.0904 60.0776Z" fill="#C6CDDF"/>
<path d="M80.7108 60.0776H52.0471C50.9465 60.0776 50.0293 59.001 50.0293 58.1396C50.0293 57.063 50.9465 56.2017 52.0471 56.2017H80.7108C81.8115 56.2017 82.7287 57.2783 82.7287 58.1396C82.7287 59.2163 81.8115 60.0776 80.7108 60.0776Z" fill="#C6CDDF"/>
<path d="M61.9933 50.3877H35.7278C34.6101 50.3877 33.6787 49.311 33.6787 48.4497C33.6787 47.373 34.6101 46.5117 35.7278 46.5117H61.9933C63.111 46.5117 64.0424 47.5884 64.0424 48.4497C64.0424 49.5264 63.2973 50.3877 61.9933 50.3877Z" fill="#C6CDDF"/>
<path d="M97.029 50.3877H70.7634C69.6458 50.3877 68.7144 49.311 68.7144 48.4497C68.7144 47.373 69.6458 46.5117 70.7634 46.5117H97.029C98.1467 46.5117 99.0781 47.5884 99.0781 48.4497C99.0781 49.5264 98.3329 50.3877 97.029 50.3877Z" fill="#8E96AB"/>
<path d="M115.791 50.3877H105.722C104.646 50.3877 103.75 49.311 103.75 48.4497C103.75 47.373 104.646 46.5117 105.722 46.5117H115.791C116.867 46.5117 117.764 47.5884 117.764 48.4497C117.764 49.5264 117.046 50.3877 115.791 50.3877Z" fill="#8E96AB"/>
<defs>
<filter id="filter0_d_111_1387" x="0.686523" y="10.3179" width="161.586" height="127.84" filterUnits="userSpaceOnUse" color-interpolation-filters="sRGB">
<feFlood flood-opacity="0" result="BackgroundImageFix"/>
<feColorMatrix in="SourceAlpha" type="matrix" values="0 0 0 0 0 0 0 0 0 0 0 0 0 0 0 0 0 0 127 0" result="hardAlpha"/>
<feOffset dy="11"/>
<feGaussianBlur stdDeviation="11"/>
<feColorMatrix type="matrix" values="0 0 0 0 0 0 0 0 0 0 0 0 0 0 0 0 0 0 0.27 0"/>
<feBlend mode="normal" in2="BackgroundImageFix" result="effect1_dropShadow_111_1387"/>
<feBlend mode="normal" in="SourceGraphic" in2="effect1_dropShadow_111_1387" result="shape"/>
</filter>
</defs>
</svg>
