<svg width="136" height="126" viewBox="0 0 136 126" fill="none" xmlns="http://www.w3.org/2000/svg">
<path d="M62.8829 126C97.307 126 125.215 98.0719 125.215 63.5C125.215 28.9281 97.307 1 62.8829 1C28.4589 1 0.550781 28.9281 0.550781 63.5C0.550781 98.0719 28.4589 126 62.8829 126Z" fill="#2A2E37"/>
<path d="M88.5235 51.7705V75.7033C88.5235 77.7844 87.3071 79.8655 85.5693 80.9061L67.1493 91.4851C66.1066 92.1788 64.7164 92.5256 63.5 92.5256V62.6964L87.6546 48.8223C88.3497 49.6894 88.5235 50.73 88.5235 51.7705Z" fill="#8E96AB"/>
<path d="M63.5 62.6964V92.5256C62.2836 92.5256 61.0672 92.1788 59.8508 91.4851L41.4307 80.9061C39.5192 79.8655 38.4766 77.9578 38.4766 75.7033V51.7705C38.4766 50.73 38.8241 49.6894 39.3454 48.8223L63.5 62.6964Z" fill="#393F4E"/>
<path d="M87.8282 48.8222L63.6736 62.6963L39.3452 48.6488C39.8665 47.7816 40.5616 46.9145 41.6043 46.3942L60.5457 35.4684C62.2834 34.4278 64.5425 34.4278 66.454 35.2949L85.7429 46.7411C85.7429 46.7411 85.7429 46.7411 85.9167 46.7411C86.6118 47.2613 87.3069 47.955 87.8282 48.8222Z" fill="#8E96AB"/>
<path d="M88.5235 18.106V42.0388C88.5235 44.1199 87.3071 46.201 85.5693 47.2415L67.1493 57.8205C66.1066 58.5142 64.7164 58.8611 63.5 58.8611V29.0318L87.6546 15.1577C88.3497 16.0248 88.5235 17.0654 88.5235 18.106Z" fill="#474E61"/>
<path d="M63.5 29.0318V58.8611C62.2836 58.8611 61.0672 58.5142 59.8508 57.8205L41.4307 47.2415C39.5192 46.201 38.4766 44.2933 38.4766 42.0388V18.106C38.4766 17.0654 38.8241 16.0248 39.3454 15.1577L63.5 29.0318Z" fill="#393F4E"/>
<path d="M87.8282 15.1574L63.6736 29.0315L39.3452 14.984C39.8665 14.1168 40.5616 13.2497 41.6043 12.7294L60.5457 1.80358C62.2834 0.76302 64.5425 0.763019 66.454 1.63015L85.7429 13.0763C85.7429 13.0763 85.7429 13.0763 85.9167 13.0763C86.6118 13.5965 87.3069 14.2903 87.8282 15.1574Z" fill="#8E96AB"/>
<path d="M61.0469 67.5508V91.4836C61.0469 93.5647 59.8305 95.6458 58.0928 96.6864L39.6727 107.265C38.6301 107.959 37.2399 108.306 36.0234 108.306V78.4766L60.1781 64.6025C60.8731 65.4697 61.0469 66.5102 61.0469 67.5508Z" fill="#474E61"/>
<path d="M36.0235 78.4766V108.306C34.8071 108.306 33.5906 107.959 32.3742 107.265L13.9542 96.6864C12.0426 95.6458 11 93.7381 11 91.4836V67.5508C11 66.5102 11.3475 65.4697 11.8689 64.6025L36.0235 78.4766Z" fill="#393F4E"/>
<path d="M60.3516 64.6022L36.197 78.4763L11.8687 64.4288C12.39 63.5616 13.0851 62.6945 14.1277 62.1742L33.0691 51.2484C34.8068 50.2078 37.0659 50.2078 38.9774 51.075L58.2664 62.5211C58.2664 62.5211 58.2664 62.5211 58.4401 62.5211C59.1352 63.0414 59.8303 63.7351 60.3516 64.6022Z" fill="#8E96AB"/>
<path d="M116 68.603V92.5358C116 94.6169 114.784 96.6981 113.046 97.7386L94.6258 108.318C93.5832 109.011 92.193 109.358 90.9766 109.358V79.5289L115.131 65.6548C115.826 66.5219 116 67.5625 116 68.603Z" fill="#474E61"/>
<path d="M90.9766 79.5289V109.358C89.7602 109.358 88.5438 109.011 87.3274 108.318L68.9073 97.7386C66.9958 96.6981 65.9531 94.7904 65.9531 92.5358V68.603C65.9531 67.5625 66.3007 66.5219 66.822 65.6548L90.9766 79.5289Z" fill="#393F4E"/>
<path d="M115.305 65.6542L91.1502 79.5283L66.8218 65.4808C67.3431 64.6137 68.0382 63.7465 69.0808 63.2262L88.0222 52.3004C89.76 51.2598 92.019 51.2598 93.9305 52.127L113.219 63.5731C113.219 63.5731 113.219 63.5731 113.393 63.5731C114.088 64.0934 114.783 64.7871 115.305 65.6542Z" fill="#8E96AB"/>
<path d="M61.0469 33.8865V57.8193C61.0469 59.9004 59.8305 61.9815 58.0928 63.0221L39.6727 73.601C38.6301 74.2947 37.2399 74.6416 36.0234 74.6416V44.8123L60.1781 30.9382C60.8731 31.8054 61.0469 32.8459 61.0469 33.8865Z" fill="#474E61"/>
<path d="M36.0235 44.8123V74.6416C34.8071 74.6416 33.5906 74.2947 32.3742 73.601L13.9542 63.0221C12.0426 61.9815 11 60.0738 11 57.8193V33.8865C11 32.8459 11.3475 31.8054 11.8689 30.9382L36.0235 44.8123Z" fill="#393F4E"/>
<path d="M60.3516 30.9377L36.197 44.8117L11.8687 30.7642C12.39 29.8971 13.0851 29.03 14.1277 28.5097L33.0691 17.5838C34.8068 16.5433 37.0659 16.5433 38.9774 17.4104L58.2664 28.8565C58.2664 28.8565 58.2664 28.8565 58.4401 28.8565C59.1352 29.3768 59.8303 30.0705 60.3516 30.9377Z" fill="#8E96AB"/>
<path d="M135.047 17.106V41.0388C135.047 43.1199 133.831 45.201 132.093 46.2415L113.673 56.8205C112.63 57.5142 111.24 57.8611 110.023 57.8611V28.0318L134.178 14.1577C134.873 15.0248 135.047 16.0654 135.047 17.106Z" fill="#5C6479"/>
<path d="M110.023 28.0318V57.8611C108.807 57.8611 107.591 57.5142 106.374 56.8205L87.9542 46.2415C86.0426 45.201 85 43.2933 85 41.0388V17.106C85 16.0654 85.3475 15.0248 85.8689 14.1577L110.023 28.0318Z" fill="#393F4E"/>
<path d="M134.352 14.1574L110.197 28.0315L85.8687 13.984C86.39 13.1168 87.0851 12.2497 88.1277 11.7294L107.069 0.803576C108.807 -0.23698 111.066 -0.236981 112.977 0.630149L132.266 12.0763C132.266 12.0763 132.266 12.0763 132.44 12.0763C133.135 12.5965 133.83 13.2903 134.352 14.1574Z" fill="#474E61"/>
<path d="M88.5235 84.3833V108.316C88.5235 110.397 87.3071 112.478 85.5693 113.519L67.1493 124.098C66.1066 124.792 64.7164 125.138 63.5 125.138V95.3091L87.6546 81.4351C88.3497 82.3022 88.5235 83.3427 88.5235 84.3833Z" fill="#474E61"/>
<path d="M63.5 95.3089V125.138C62.2836 125.138 61.0672 124.791 59.8508 124.098L41.4307 113.519C39.5192 112.478 38.4766 110.57 38.4766 108.316V84.3831C38.4766 83.3425 38.8241 82.3019 39.3454 81.4348L63.5 95.3089Z" fill="#393F4E"/>
<path d="M87.8282 81.4347L63.6736 95.3088L39.3452 81.2613C39.8665 80.3942 40.5616 79.527 41.6043 79.0068L60.5457 68.0809C62.2834 67.0404 64.5425 67.0404 66.454 67.9075L85.7429 79.3536C85.7429 79.3536 85.7429 79.3536 85.9167 79.3536C86.6118 79.8739 87.3069 80.5676 87.8282 81.4347Z" fill="#8E96AB"/>
<path d="M88.5235 50.7183V74.6511C88.5235 76.7322 87.3071 78.8133 85.5693 79.8538L67.1493 90.4328C66.1066 91.1265 64.7164 91.4734 63.5 91.4734V61.6441L87.6546 47.77C88.3497 48.6371 88.5235 49.6777 88.5235 50.7183Z" fill="#474E61"/>
<path d="M63.5 61.6443V91.4736C62.2836 91.4736 61.0672 91.1268 59.8508 90.4331L41.4307 79.8541C39.5192 78.8135 38.4766 76.9058 38.4766 74.6513V50.7185C38.4766 49.678 38.8241 48.6374 39.3454 47.7703L63.5 61.6443Z" fill="#393F4E"/>
<path d="M87.8282 47.7699L63.6736 61.644L39.3452 47.5965C39.8665 46.7294 40.5616 45.8622 41.6043 45.342L60.5457 34.4161C62.2834 33.3756 64.5425 33.3756 66.454 34.2427L85.7429 45.6888C85.7429 45.6888 85.7429 45.6888 85.9167 45.6888C86.6118 46.2091 87.3069 46.9028 87.8282 47.7699Z" fill="#8E96AB"/>
</svg>
