<svg width="165" height="140" viewBox="0 0 165 140" fill="none" xmlns="http://www.w3.org/2000/svg">
<path d="M82.7352 131C116.268 131 143.452 103.797 143.452 70.2393C143.452 36.682 116.268 9.47852 82.7352 9.47852C49.202 9.47852 22.0181 36.682 22.0181 70.2393C22.0181 103.797 49.202 131 82.7352 131Z" fill="#2A2E37"/>
<path d="M64.1982 24.2812V30.6969" stroke="#5C6479" stroke-width="2" stroke-miterlimit="10" stroke-linejoin="round"/>
<path d="M66.1562 31.8919C66.1562 32.9548 65.2952 33.8159 64.2339 33.8159C63.1725 33.8159 62.3115 32.9548 62.3115 31.8919C62.3115 30.8289 63.1725 29.9678 64.2339 29.9678C65.2952 29.9678 66.1562 30.8289 66.1562 31.8919Z" fill="#5C6479" stroke="#5C6479"/>
<path d="M61.8809 38.3451C61.8809 39.8474 63.2456 41.0765 64.8832 40.6668C65.7703 40.4619 66.4526 39.7791 66.6573 38.8914C66.9303 37.594 66.1797 36.3649 65.0197 36.0235C64.6103 35.8869 64.3373 35.5455 64.3373 35.0675V32.9507" stroke="#5C6479" stroke-width="2" stroke-miterlimit="10" stroke-linejoin="round"/>
<path d="M34.8257 56.4582L63.674 40.3252L92.9653 56.2951" stroke="#5C6479" stroke-width="2" stroke-miterlimit="10" stroke-linejoin="round"/>
<path d="M159.236 16.9292V24.2811H53.3213L63.5835 17.5576L159.236 16.9292Z" stroke="#5C6479" stroke-width="2" stroke-miterlimit="10" stroke-linejoin="round"/>
<path d="M122.898 18.4551V28.8313" stroke="#5C6479" stroke-width="2" stroke-miterlimit="10" stroke-linejoin="round"/>
<path d="M135.968 105.167H123.111V4.5935L129.589 1L135.968 4.5935V105.167Z" stroke="#5C6479" stroke-width="2" stroke-miterlimit="10" stroke-linejoin="round"/>
<path d="M123.111 42.0479H135.968" stroke="#5C6479" stroke-width="2" stroke-miterlimit="10" stroke-linejoin="round"/>
<path d="M123.111 81.354H135.968" stroke="#5C6479" stroke-width="2" stroke-miterlimit="10" stroke-linejoin="round"/>
<path d="M123.111 54.9146H135.968" stroke="#5C6479" stroke-width="2" stroke-miterlimit="10"/>
<path d="M123.111 67.876H135.968" stroke="#5C6479" stroke-width="2" stroke-miterlimit="10"/>
<path d="M123.111 94.2207H135.968" stroke="#5C6479" stroke-width="2" stroke-miterlimit="10"/>
<path d="M100.541 17.133L129.389 1L158.68 16.9699" stroke="#5C6479" stroke-width="2" stroke-miterlimit="10" stroke-linejoin="round"/>
<path d="M135.356 28.5698L123.111 41.4357" stroke="#5C6479" stroke-width="2" stroke-miterlimit="10" stroke-linejoin="round"/>
<path d="M135.356 67.876L123.111 80.7419" stroke="#5C6479" stroke-width="2" stroke-miterlimit="10" stroke-linejoin="round"/>
<path d="M135.3 18.1548L123.187 27.8522" stroke="#5C6479" stroke-width="2" stroke-miterlimit="10" stroke-linejoin="round"/>
<path d="M135.356 42.6616L123.111 54.3022" stroke="#5C6479" stroke-width="2" stroke-miterlimit="10" stroke-linejoin="round"/>
<path d="M135.356 81.9673L123.111 93.6079" stroke="#5C6479" stroke-width="2" stroke-miterlimit="10" stroke-linejoin="round"/>
<path d="M135.356 5.28906L123.111 16.9296" stroke="#5C6479" stroke-width="2" stroke-miterlimit="10" stroke-linejoin="round"/>
<path d="M135.356 55.5269L123.111 67.1674" stroke="#5C6479" stroke-width="2" stroke-miterlimit="10" stroke-linejoin="round"/>
<path d="M135.356 94.833L123.111 106.474" stroke="#5C6479" stroke-width="2" stroke-miterlimit="10" stroke-linejoin="round"/>
<path d="M143.315 113.235H115.765V117.523H143.315V113.235Z" fill="#5C6479" stroke="#5C6479" stroke-width="2" stroke-miterlimit="10" stroke-linejoin="round"/>
<path d="M162.473 25.5215H151.335V29.9799H162.473V25.5215Z" fill="#5C6479" stroke="#5C6479" stroke-width="2" stroke-miterlimit="10" stroke-linejoin="round"/>
<path d="M162.473 29.98H151.335V34.4384H162.473V29.98Z" fill="#5C6479" stroke="#5C6479" stroke-width="2" stroke-miterlimit="10" stroke-linejoin="round"/>
<path d="M141.29 104.658H117.789L115.765 113.235H143.315L141.29 104.658Z" fill="#5C6479" stroke="#5C6479" stroke-width="2" stroke-miterlimit="10" stroke-linejoin="round"/>
<path d="M111.51 25.9478L118.144 33.2208C118.587 33.7057 119.206 33.9966 119.737 33.9966H136.367V16.9292H110.714V24.1053C110.891 24.8811 111.068 25.4629 111.51 25.9478Z" fill="#5C6479" stroke="#5C6479" stroke-width="2" stroke-miterlimit="10" stroke-linejoin="round"/>
<path d="M119.438 28.5322L129.846 28.5322L129.846 20.5676L119.438 20.5676L119.438 28.5322Z" fill="#2A2E37"/>
<path d="M26.1553 117.812H163.852" stroke="#5C6479" stroke-width="2" stroke-miterlimit="10" stroke-linecap="round" stroke-linejoin="round"/>
<path d="M8.84033 117.812H18.7935" stroke="#5C6479" stroke-width="2" stroke-miterlimit="10" stroke-linecap="round" stroke-linejoin="round"/>
<g filter="url(#filter0_d_111_2491)">
<path d="M102.946 51.1015V102.866C102.946 104.763 101.384 106.326 99.4879 106.326H25.7176C23.8214 106.326 22.2598 104.763 22.2598 102.866V51.1015C22.2598 49.2039 23.8214 47.6411 25.7176 47.6411H99.4879C101.384 47.6411 102.946 49.2039 102.946 51.1015Z" fill="#5C6479"/>
</g>
<rect x="47.3652" y="58.3281" width="51.4639" height="22.6441" rx="2" fill="#474E61"/>
<rect x="47.3652" y="85.0898" width="15.7823" height="16.4685" rx="2" fill="#474E61"/>
<rect x="65.8916" y="85.0898" width="14.4099" height="16.4685" rx="2" fill="#474E61"/>
<rect x="83.0454" y="85.0898" width="15.7823" height="16.4685" rx="2" fill="#474E61"/>
<path d="M24.3467 55.1533H43.9322V104.676H28.3467C26.1375 104.676 24.3467 102.885 24.3467 100.676V55.1533Z" fill="#474E61"/>
<path d="M102.946 51.1015V53.613H22.2598V51.1015C22.2598 49.2039 23.8214 47.6411 25.7176 47.6411H99.4879C101.384 47.6411 102.946 49.2039 102.946 51.1015Z" fill="#393F4E"/>
<path d="M25.8858 51.7156C26.4711 51.7156 26.9455 51.2408 26.9455 50.6552C26.9455 50.0695 26.4711 49.5947 25.8858 49.5947C25.3006 49.5947 24.8262 50.0695 24.8262 50.6552C24.8262 51.2408 25.3006 51.7156 25.8858 51.7156Z" fill="#8E96AB"/>
<path opacity="0.6" d="M29.1764 51.7156C29.7616 51.7156 30.236 51.2408 30.236 50.6552C30.236 50.0695 29.7616 49.5947 29.1764 49.5947C28.5911 49.5947 28.1167 50.0695 28.1167 50.6552C28.1167 51.2408 28.5911 51.7156 29.1764 51.7156Z" fill="#8E96AB"/>
<path opacity="0.4" d="M32.5216 51.7156C33.1068 51.7156 33.5812 51.2408 33.5812 50.6552C33.5812 50.0695 33.1068 49.5947 32.5216 49.5947C31.9363 49.5947 31.4619 50.0695 31.4619 50.6552C31.4619 51.2408 31.9363 51.7156 32.5216 51.7156Z" fill="#8E96AB"/>
<defs>
<filter id="filter0_d_111_2491" x="0.259766" y="36.6411" width="124.686" height="102.685" filterUnits="userSpaceOnUse" color-interpolation-filters="sRGB">
<feFlood flood-opacity="0" result="BackgroundImageFix"/>
<feColorMatrix in="SourceAlpha" type="matrix" values="0 0 0 0 0 0 0 0 0 0 0 0 0 0 0 0 0 0 127 0" result="hardAlpha"/>
<feOffset dy="11"/>
<feGaussianBlur stdDeviation="11"/>
<feColorMatrix type="matrix" values="0 0 0 0 0 0 0 0 0 0 0 0 0 0 0 0 0 0 0.27 0"/>
<feBlend mode="normal" in2="BackgroundImageFix" result="effect1_dropShadow_111_2491"/>
<feBlend mode="normal" in="SourceGraphic" in2="effect1_dropShadow_111_2491" result="shape"/>
</filter>
</defs>
</svg>
