<svg width="158" height="137" viewBox="0 0 158 137" fill="none" xmlns="http://www.w3.org/2000/svg">
<path d="M77.2842 125C111.777 125 139.739 97.0178 139.739 62.5C139.739 27.9822 111.777 0 77.2842 0C42.7912 0 14.8291 27.9822 14.8291 62.5C14.8291 97.0178 42.7912 125 77.2842 125Z" fill="#2A2E37"/>
<path d="M67.5452 29.5227L65.9395 25.0234C65.6184 23.8986 64.4944 23.2559 63.3704 23.2559H34.9492C32.5406 23.2559 30.6138 25.0234 30.6138 27.5944V91.0658V82.6211C30.6138 81.5166 31.5092 80.6211 32.6138 80.6211H125.278C126.382 80.6211 127.278 79.7257 127.278 78.6211V35.6288C127.278 33.2185 125.512 31.2902 122.942 31.2902H69.9538C69.1509 31.2902 68.0269 30.6475 67.5452 29.5227Z" fill="#474E61"/>
<g filter="url(#filter0_d_111_474)">
<path d="M135.097 49.2873L127.229 98.2968C126.748 101.189 124.178 103.439 121.288 103.439H34.9006C31.8498 103.439 29.4412 101.35 28.9595 98.2968L22.3761 58.1251C21.8943 55.072 24.1423 52.1797 27.3538 52.1797H76.0069C77.4521 52.1797 78.7367 51.2155 79.2184 49.7694L80.6635 45.4308C81.1452 43.9846 82.4298 43.0205 83.8749 43.0205H130.28C133.17 43.3419 135.579 46.0736 135.097 49.2873Z" fill="#5C6479"/>
</g>
<path d="M86.7776 21.6856L88.1633 21.0693C88.6252 20.9152 88.6252 20.2989 88.1633 20.1448L86.7776 19.5285C85.084 18.7582 83.6984 17.3715 82.9285 15.6767L82.3127 14.29C82.1587 13.8278 81.5429 13.8278 81.3889 14.29L80.7731 15.6767C80.0032 17.3715 78.6176 18.7582 76.924 19.5285L75.5383 20.1448C75.0764 20.2989 75.0764 20.9152 75.5383 21.0693L76.924 21.6856C78.6176 22.4559 80.0032 23.8426 80.7731 25.5374L81.3889 26.9241C81.5429 27.3863 82.1587 27.3863 82.3127 26.9241L82.9285 25.5374C83.5444 23.8426 84.9301 22.4559 86.7776 21.6856Z" fill="#C6CDDF"/>
<path d="M71.8429 12.9037L72.7667 12.4414C73.0746 12.2874 73.0746 11.9792 72.7667 11.8251L71.8429 11.517C70.6112 11.0548 69.6874 10.1303 69.2256 8.89774L68.7637 7.9733C68.6097 7.66515 68.3018 7.66515 68.1478 7.9733L67.8399 8.89774C67.224 10.1303 66.3003 11.0548 65.2225 11.517L64.1448 11.9792C63.9908 11.9792 63.9908 12.4414 64.1448 12.4414L65.0685 12.9037C66.3003 13.3659 67.224 14.2903 67.8399 15.5229L68.3018 16.4474C68.4557 16.7555 68.7637 16.7555 68.9176 16.4474L69.2256 15.5229C69.6874 14.2903 70.6112 13.3659 71.8429 12.9037Z" fill="#C6CDDF"/>
<path d="M83.6979 3.96741L84.4678 3.65926C84.6217 3.50518 84.6217 3.35111 84.4678 3.19704L83.6979 2.88889C82.7742 2.58074 82.1583 1.81037 81.6964 0.885925L81.3885 0.115556C81.2345 -0.0385185 81.0806 -0.0385185 80.9266 0.115556L80.6187 0.885925C80.3107 1.81037 79.5409 2.42667 78.6172 2.88889L78.1553 3.19704C77.8473 3.35111 77.8473 3.65926 78.1553 3.65926L78.9251 3.96741C79.8489 4.27555 80.4647 5.04592 80.9266 5.97037L81.2345 6.74074C81.3885 6.89481 81.5425 6.89481 81.6964 6.74074L82.0043 5.97037C82.1583 5.04592 82.9281 4.27555 83.6979 3.96741Z" fill="#C6CDDF"/>
<defs>
<filter id="filter0_d_111_474" x="0.311035" y="32.0205" width="156.848" height="104.418" filterUnits="userSpaceOnUse" color-interpolation-filters="sRGB">
<feFlood flood-opacity="0" result="BackgroundImageFix"/>
<feColorMatrix in="SourceAlpha" type="matrix" values="0 0 0 0 0 0 0 0 0 0 0 0 0 0 0 0 0 0 127 0" result="hardAlpha"/>
<feOffset dy="11"/>
<feGaussianBlur stdDeviation="11"/>
<feColorMatrix type="matrix" values="0 0 0 0 0 0 0 0 0 0 0 0 0 0 0 0 0 0 0.27 0"/>
<feBlend mode="normal" in2="BackgroundImageFix" result="effect1_dropShadow_111_474"/>
<feBlend mode="normal" in="SourceGraphic" in2="effect1_dropShadow_111_474" result="shape"/>
</filter>
</defs>
</svg>
