<svg width="127" height="126" viewBox="0 0 127 126" fill="none" xmlns="http://www.w3.org/2000/svg">
<path d="M63.2842 125C97.7771 125 125.739 97.0178 125.739 62.5C125.739 27.9822 97.7771 0 63.2842 0C28.7912 0 0.829102 27.9822 0.829102 62.5C0.829102 97.0178 28.7912 125 63.2842 125Z" fill="#2A2E37"/>
<mask id="mask0_111_1602" style="mask-type:alpha" maskUnits="userSpaceOnUse" x="-1" y="-1" width="128" height="127">
<path d="M63.2842 125C97.7771 125 125.739 97.0178 125.739 62.5C125.739 27.9822 97.7771 0 63.2842 0C28.7912 0 0.829102 27.9822 0.829102 62.5C0.829102 97.0178 28.7912 125 63.2842 125Z" fill="#F1F3F9" stroke="#D6DCE8" stroke-width="2" stroke-miterlimit="10"/>
</mask>
<g mask="url(#mask0_111_1602)">
<g filter="url(#filter0_d_111_1602)">
<path d="M106.634 45.5558L107.758 120.74C107.758 123.216 105.734 125.242 103.034 125.242H29.7037C27.2294 125.242 24.98 123.216 24.98 120.74V24.171C24.98 21.6949 27.0044 19.6689 29.7037 19.6689H82.7898L106.634 45.5558Z" fill="#5C6479"/>
</g>
<path d="M82.79 19.6689V40.3784C82.79 43.3047 85.2644 45.5558 88.1886 45.5558H106.634" fill="#474E61"/>
</g>
<path d="M115.382 26.5303L116.768 25.914C117.23 25.7599 117.23 25.1436 116.768 24.9896L115.382 24.3733C113.689 23.6029 112.303 22.2162 111.533 20.5214L110.917 19.1348C110.763 18.6725 110.147 18.6725 109.993 19.1348L109.378 20.5214C108.608 22.2162 107.222 23.6029 105.528 24.3733L104.143 24.9896C103.681 25.1436 103.681 25.7599 104.143 25.914L105.528 26.5303C107.222 27.3007 108.608 28.6873 109.378 30.3822L109.993 31.7688C110.147 32.231 110.763 32.231 110.917 31.7688L111.533 30.3822C112.149 28.6873 113.535 27.3007 115.382 26.5303Z" fill="#C6CDDF"/>
<path d="M100.448 17.7484L101.372 17.2862C101.68 17.1321 101.68 16.8239 101.372 16.6699L100.448 16.3617C99.2162 15.8995 98.2924 14.9751 97.8305 13.7425L97.3686 12.818C97.2147 12.5099 96.9068 12.5099 96.7528 12.818L96.4449 13.7425C95.829 14.9751 94.9052 15.8995 93.8275 16.3617L92.7497 16.8239C92.5958 16.8239 92.5958 17.2862 92.7497 17.2862L93.6735 17.7484C94.9052 18.2106 95.829 19.1351 96.4449 20.3677L96.9068 21.2921C97.0607 21.6002 97.3686 21.6002 97.5226 21.2921L97.8305 20.3677C98.2924 19.1351 99.2162 18.2106 100.448 17.7484Z" fill="#C6CDDF"/>
<path d="M112.302 8.81213L113.072 8.50398C113.226 8.34991 113.226 8.19584 113.072 8.04176L112.302 7.73361C111.379 7.42547 110.763 6.6551 110.301 5.73065L109.993 4.96028C109.839 4.80621 109.685 4.80621 109.531 4.96028L109.223 5.73065C108.915 6.6551 108.145 7.27139 107.222 7.73361L106.76 8.04176C106.452 8.19584 106.452 8.50398 106.76 8.50398L107.53 8.81213C108.453 9.12028 109.069 9.89065 109.531 10.8151L109.839 11.5855C109.993 11.7395 110.147 11.7395 110.301 11.5855L110.609 10.8151C110.763 9.89065 111.533 9.12028 112.302 8.81213Z" fill="#C6CDDF"/>
<defs>
<filter id="filter0_d_111_1602" x="2.97998" y="8.66895" width="126.778" height="149.573" filterUnits="userSpaceOnUse" color-interpolation-filters="sRGB">
<feFlood flood-opacity="0" result="BackgroundImageFix"/>
<feColorMatrix in="SourceAlpha" type="matrix" values="0 0 0 0 0 0 0 0 0 0 0 0 0 0 0 0 0 0 127 0" result="hardAlpha"/>
<feOffset dy="11"/>
<feGaussianBlur stdDeviation="11"/>
<feColorMatrix type="matrix" values="0 0 0 0 0 0 0 0 0 0 0 0 0 0 0 0 0 0 0.27 0"/>
<feBlend mode="normal" in2="BackgroundImageFix" result="effect1_dropShadow_111_1602"/>
<feBlend mode="normal" in="SourceGraphic" in2="effect1_dropShadow_111_1602" result="shape"/>
</filter>
</defs>
</svg>
