<svg width="145" height="127" viewBox="0 0 145 127" fill="none" xmlns="http://www.w3.org/2000/svg">
<path d="M80.5679 127C112.38 127 138.171 101.191 138.171 69.2416C138.171 37.2927 112.267 11.4834 80.5679 11.4834C48.7556 11.4834 22.9648 37.2927 22.9648 69.2416C22.9648 101.191 48.7556 127 80.5679 127Z" fill="#2A2E37"/>
<path d="M134.421 31.3803C136.994 31.3803 139.08 29.2932 139.08 26.7187C139.08 24.1442 136.994 22.0571 134.421 22.0571C131.849 22.0571 129.763 24.1442 129.763 26.7187C129.763 29.2932 131.849 31.3803 134.421 31.3803Z" fill="#2A2E37"/>
<path d="M141.238 13.1888C142.995 13.1888 144.42 11.7635 144.42 10.0053C144.42 8.24709 142.995 6.82178 141.238 6.82178C139.481 6.82178 138.057 8.24709 138.057 10.0053C138.057 11.7635 139.481 13.1888 141.238 13.1888Z" fill="#2A2E37"/>
<path d="M26.0323 31.267C27.7893 31.267 29.2135 29.8416 29.2135 28.0834C29.2135 26.3252 27.7893 24.8999 26.0323 24.8999C24.2754 24.8999 22.8511 26.3252 22.8511 28.0834C22.8511 29.8416 24.2754 31.267 26.0323 31.267Z" fill="#2A2E37"/>
<path d="M6.60381 92.6634C9.86671 92.6634 12.5118 90.0164 12.5118 86.7511C12.5118 83.4859 9.86671 80.8389 6.60381 80.8389C3.34091 80.8389 0.695801 83.4859 0.695801 86.7511C0.695801 90.0164 3.34091 92.6634 6.60381 92.6634Z" fill="#2A2E37"/>
<mask id="mask0_121_6547" style="mask-type:alpha" maskUnits="userSpaceOnUse" x="23" y="0" width="116" height="127">
<path d="M130.615 0H32.8351V37.3678C26.7996 46.4973 23.2847 57.4514 23.2847 69.2418C23.2847 101.191 49.094 127 80.9292 127C112.764 127 138.574 101.191 138.574 69.2418C138.574 58.5474 135.669 48.541 130.615 39.9602V0Z" fill="#D9D9D9"/>
</mask>
<g mask="url(#mask0_121_6547)">
<g filter="url(#filter0_d_121_6547)">
<path d="M125.209 33.0927L126.232 124.623C126.232 127.439 123.929 129.615 121.115 129.615H40.7869C37.9728 129.615 35.6704 127.311 35.6704 124.623V9.53999C35.6704 6.72391 37.9728 4.54785 40.7869 4.54785H98.9866L125.209 33.0927Z" fill="#5C6479"/>
</g>
<path opacity="0.7" d="M61.728 47.8447L99.7274 47.9193L97.0336 86.7983L80.9358 90.1611L64.4894 86.7376L61.728 47.8447Z" fill="#C6CDDF"/>
<path d="M97.432 49.4129L94.8821 85.3034L81.007 88.1972C80.6779 88.2744 80.3804 88.0429 80.3706 87.7341L79.1695 49.8752C79.1609 49.6051 79.362 49.4121 79.6521 49.4121L97.432 49.4129Z" fill="#8E96AB"/>
<path d="M67.4482 54.0327L92.5126 54.0776L91.1644 81.0039L80.7088 83.277L70.3034 80.9283L69.8804 74.3577L74.6335 74.901L74.7162 77.3839L80.5052 78.3874L86.1042 77.3661L86.328 70.6057L74.204 70.584L74.0437 65.7709L86.8617 65.7939L87.37 58.9958L67.9389 58.961L67.4482 54.0327Z" fill="#474E61"/>
<path d="M99.541 4.54785V27.2363C99.541 30.4229 102.331 32.9722 105.502 32.9722H125.541" fill="#474E61"/>
</g>
<defs>
<filter id="filter0_d_121_6547" x="13.6704" y="-6.45215" width="134.562" height="169.067" filterUnits="userSpaceOnUse" color-interpolation-filters="sRGB">
<feFlood flood-opacity="0" result="BackgroundImageFix"/>
<feColorMatrix in="SourceAlpha" type="matrix" values="0 0 0 0 0 0 0 0 0 0 0 0 0 0 0 0 0 0 127 0" result="hardAlpha"/>
<feOffset dy="11"/>
<feGaussianBlur stdDeviation="11"/>
<feColorMatrix type="matrix" values="0 0 0 0 0 0 0 0 0 0 0 0 0 0 0 0 0 0 0.27 0"/>
<feBlend mode="normal" in2="BackgroundImageFix" result="effect1_dropShadow_121_6547"/>
<feBlend mode="normal" in="SourceGraphic" in2="effect1_dropShadow_121_6547" result="shape"/>
</filter>
</defs>
</svg>
