<svg width="176" height="147" viewBox="0 0 176 147" fill="none" xmlns="http://www.w3.org/2000/svg">
<path d="M95.9267 125C130.42 125 158.382 97.0178 158.382 62.5C158.382 27.9822 130.42 0 95.9267 0C61.4338 0 33.4717 27.9822 33.4717 62.5C33.4717 97.0178 61.4338 125 95.9267 125Z" fill="#2A2E37"/>
<g filter="url(#filter0_d_111_2119)">
<path d="M147.986 110.34H83.6411C80.5696 110.34 78.0493 107.818 78.0493 104.745V24.0385C78.0493 20.9647 80.5696 18.4426 83.6411 18.4426H147.986C151.058 18.4426 153.578 20.9647 153.578 24.0385V104.745C153.578 107.818 151.058 110.34 147.986 110.34Z" fill="#5C6479"/>
</g>
<path d="M142.316 31.5258V66.4407C142.316 67.7017 141.292 68.8051 140.032 68.8051H91.6743C90.4141 68.8051 89.3115 67.7805 89.3115 66.4407V31.5258C89.3115 30.2648 90.3354 29.1614 91.6743 29.1614H139.953C141.213 29.1614 142.316 30.186 142.316 31.5258Z" stroke="#8E96AB" stroke-miterlimit="10"/>
<path d="M89.5479 39.4072H142.079" stroke="#8E96AB" stroke-miterlimit="10"/>
<path d="M89.5479 46.8159H142.079" stroke="#8E96AB" stroke-miterlimit="10"/>
<path d="M89.5479 54.2244H142.079" stroke="#8E96AB" stroke-miterlimit="10"/>
<path d="M89.5479 61.5542H142.079" stroke="#8E96AB" stroke-miterlimit="10"/>
<path d="M142.316 31.5258V32.9445H89.3115V31.5258C89.3115 30.2648 90.3354 29.1614 91.6743 29.1614H139.953C141.213 29.1614 142.316 30.186 142.316 31.5258Z" fill="#8E96AB"/>
<path d="M142.316 75.7409V97.809C142.316 98.5971 141.292 99.3065 140.032 99.3065H91.6743C90.4141 99.3065 89.3115 98.6759 89.3115 97.809V75.7409C89.3115 74.9527 90.3354 74.2434 91.6743 74.2434H139.953C141.213 74.2434 142.316 74.8739 142.316 75.7409Z" stroke="#8E96AB" stroke-miterlimit="10"/>
<path d="M89.5479 84.4893H142.079" stroke="#8E96AB" stroke-miterlimit="10"/>
<path d="M89.5479 91.8977H142.079" stroke="#8E96AB" stroke-miterlimit="10"/>
<path d="M142.316 76.6078V78.0265H89.3115V76.6078C89.3115 75.3468 90.3354 74.2434 91.6743 74.2434H139.953C141.213 74.2434 142.316 75.268 142.316 76.6078Z" fill="#8E96AB"/>
<g filter="url(#filter1_d_111_2119)">
<path d="M125.855 92.0556L44.7342 113.572C41.9777 114.281 39.1424 112.626 38.4336 109.868L22.997 51.7025C22.2882 48.944 23.9421 46.1067 26.6986 45.3973L107.819 23.8809C110.576 23.1716 113.411 24.8267 114.12 27.5852L129.478 85.7504C130.265 88.5089 128.69 91.3462 125.855 92.0556Z" fill="#5C6479"/>
</g>
<path d="M52.2165 71.1697C46.3096 72.746 40.2453 69.1994 38.6701 63.2883C37.095 57.3772 40.6391 51.3084 46.5459 49.7322C52.4528 48.1559 58.5171 51.7025 60.0923 57.6136C61.6674 63.5247 58.1233 69.6723 52.2165 71.1697ZM47.2547 52.4907C42.8443 53.6729 40.2453 58.1653 41.4266 62.5789C42.608 66.9926 47.0972 69.5934 51.5077 68.4112C55.9181 67.229 58.5171 62.7366 57.3358 58.3229C56.1544 53.9881 51.6652 51.3084 47.2547 52.4907Z" fill="#8E96AB"/>
<path d="M52.689 71.091C51.9802 71.2486 51.1926 70.8545 50.9564 70.1452C50.7201 69.357 51.1139 68.5689 51.9015 68.3324C56.0756 66.9926 58.5171 62.6578 57.3358 58.4018C56.1544 53.9882 51.6652 51.3873 47.2547 52.5695C42.8443 53.7517 40.2453 58.2442 41.4266 62.6578C41.6629 63.4459 41.1904 64.2341 40.4028 64.3917C39.6152 64.6282 38.8276 64.1553 38.6701 63.3671C37.095 57.456 40.6391 51.3873 46.5459 49.811C52.4528 48.2347 58.5171 51.7814 60.0923 57.6925C61.5887 63.3671 58.3596 69.2782 52.689 71.091Z" fill="#C2C8D6"/>
<path d="M59.8552 100.095C53.9483 101.671 47.8839 98.1244 46.3088 92.2133C44.7336 86.3022 48.2777 80.2335 54.1846 78.6572C60.0914 77.0809 66.1558 80.6276 67.731 86.5387C69.3061 92.4498 65.762 98.5973 59.8552 100.095ZM54.8934 81.4157C50.483 82.5979 47.8839 87.0904 49.0653 91.504C50.2467 95.9176 54.7359 98.5185 59.1463 97.3363C63.5568 96.154 66.1558 91.6616 64.9744 87.248C63.7931 82.9132 59.3039 80.2335 54.8934 81.4157Z" fill="#8E96AB"/>
<path d="M49.0653 95.7597C48.4353 95.9174 47.8052 95.6809 47.4902 95.1292C46.9389 94.2623 46.5451 93.2377 46.3088 92.2919C44.7336 86.3808 48.2777 80.3121 54.1846 78.7358C58.5163 77.5536 63.0842 79.1299 65.8408 82.6765C66.3133 83.307 66.2346 84.174 65.6045 84.6469C64.9744 85.1198 64.1081 85.041 63.5568 84.4104C61.5091 81.8096 58.1225 80.6273 54.8934 81.4943C50.483 82.6765 47.8839 87.169 49.0653 91.5826C49.3016 92.3707 49.5379 93.0801 49.9317 93.7106C50.3254 94.4199 50.0892 95.2869 49.4591 95.6809C49.3016 95.6809 49.2228 95.6809 49.0653 95.7597Z" fill="#C2C8D6"/>
<path d="M107.819 56.195L76.9462 64.3917L71.4331 43.427L73.2445 42.9541L78.3638 62.0272L107.347 54.3822L107.819 56.195Z" fill="#8E96AB"/>
<path d="M115.336 84.572L85.415 92.4983L85.8987 94.3269L115.82 86.4006L115.336 84.572Z" fill="#8E96AB"/>
<path d="M82.4589 56.9831L80.0962 56.9043L80.49 47.8406L86.1606 43.0329L94.9027 48.944L99.2344 42.4812L102.621 41.6143L103.251 43.8999L100.731 44.6092L95.5328 52.2542L86.3181 46.0279L82.8527 48.944L82.4589 56.9831Z" fill="#C2C8D6"/>
<path d="M83.8432 70.0865L81.5591 70.6912L86.4397 89.1283L88.7238 88.5236L83.8432 70.0865Z" fill="#8E96AB"/>
<path d="M85.9086 77.9963L83.6245 78.6013L86.4058 89.1156L88.6898 88.5105L85.9086 77.9963Z" fill="#C2C8D6"/>
<path d="M92.0273 67.887L89.7432 68.4917L94.6238 86.9288L96.9079 86.3242L92.0273 67.887Z" fill="#8E96AB"/>
<path d="M93.1195 71.9916L90.8354 72.5967L94.6244 86.9204L96.9085 86.3154L93.1195 71.9916Z" fill="#C2C8D6"/>
<path d="M100.287 65.6673L98.0029 66.272L102.884 84.7091L105.168 84.1045L100.287 65.6673Z" fill="#8E96AB"/>
<path d="M103.958 79.7006L101.674 80.3057L102.863 84.8009L105.147 84.1958L103.958 79.7006Z" fill="#C2C8D6"/>
<path d="M108.491 63.544L106.207 64.1487L111.087 82.5858L113.371 81.9812L108.491 63.544Z" fill="#8E96AB"/>
<path d="M108.949 65.2465L106.665 65.8516L111.099 82.6134L113.383 82.0083L108.949 65.2465Z" fill="#C2C8D6"/>
<defs>
<filter id="filter0_d_111_2119" x="56.0493" y="7.44263" width="119.529" height="135.898" filterUnits="userSpaceOnUse" color-interpolation-filters="sRGB">
<feFlood flood-opacity="0" result="BackgroundImageFix"/>
<feColorMatrix in="SourceAlpha" type="matrix" values="0 0 0 0 0 0 0 0 0 0 0 0 0 0 0 0 0 0 127 0" result="hardAlpha"/>
<feOffset dy="11"/>
<feGaussianBlur stdDeviation="11"/>
<feColorMatrix type="matrix" values="0 0 0 0 0 0 0 0 0 0 0 0 0 0 0 0 0 0 0.27 0"/>
<feBlend mode="normal" in2="BackgroundImageFix" result="effect1_dropShadow_111_2119"/>
<feBlend mode="normal" in="SourceGraphic" in2="effect1_dropShadow_111_2119" result="shape"/>
</filter>
<filter id="filter1_d_111_2119" x="0.833008" y="12.7168" width="150.847" height="134.019" filterUnits="userSpaceOnUse" color-interpolation-filters="sRGB">
<feFlood flood-opacity="0" result="BackgroundImageFix"/>
<feColorMatrix in="SourceAlpha" type="matrix" values="0 0 0 0 0 0 0 0 0 0 0 0 0 0 0 0 0 0 127 0" result="hardAlpha"/>
<feOffset dy="11"/>
<feGaussianBlur stdDeviation="11"/>
<feColorMatrix type="matrix" values="0 0 0 0 0 0 0 0 0 0 0 0 0 0 0 0 0 0 0.27 0"/>
<feBlend mode="normal" in2="BackgroundImageFix" result="effect1_dropShadow_111_2119"/>
<feBlend mode="normal" in="SourceGraphic" in2="effect1_dropShadow_111_2119" result="shape"/>
</filter>
</defs>
</svg>
