<svg width="144" height="110" viewBox="0 0 144 110" fill="none" xmlns="http://www.w3.org/2000/svg">
<path d="M28.282 59.5647H27.5792C27.0521 59.5647 26.7007 59.4006 26.7007 59.1544C26.7007 58.9083 27.0521 58.7441 27.5792 58.7441H28.282C28.8092 58.7441 29.1606 58.9083 29.1606 59.1544C29.1606 59.4006 28.8092 59.5647 28.282 59.5647Z" fill="#8E96AB"/>
<path d="M28.282 62.8469H27.5792C27.0521 62.8469 26.7007 62.6828 26.7007 62.4366C26.7007 62.1905 27.0521 62.0264 27.5792 62.0264H28.282C28.8092 62.0264 29.1606 62.1905 29.1606 62.4366C29.1606 62.6828 28.8092 62.8469 28.282 62.8469Z" fill="#8E96AB"/>
<path d="M28.282 66.1291H27.5792C27.0521 66.1291 26.7007 65.965 26.7007 65.7189C26.7007 65.4727 27.0521 65.3086 27.5792 65.3086H28.282C28.8092 65.3086 29.1606 65.4727 29.1606 65.7189C29.1606 65.965 28.8092 66.1291 28.282 66.1291Z" fill="#8E96AB"/>
<path d="M28.282 69.4114H27.5792C27.0521 69.4114 26.7007 69.2473 26.7007 69.0011C26.7007 68.7549 27.0521 68.5908 27.5792 68.5908H28.282C28.8092 68.5908 29.1606 68.7549 29.1606 69.0011C29.1606 69.2473 28.8092 69.4114 28.282 69.4114Z" fill="#8E96AB"/>
<path d="M60.358 59.5647H48.8004C48.3319 59.5647 48.0195 59.4006 48.0195 59.1544C48.0195 58.9083 48.3319 58.7441 48.8004 58.7441H60.358C60.8266 58.7441 61.139 58.9083 61.139 59.1544C61.139 59.4006 60.8266 59.5647 60.358 59.5647Z" fill="#C6CDDF"/>
<path d="M84.9835 69.4114H48.7739C48.3213 69.4114 48.0195 69.2473 48.0195 69.0011C48.0195 68.7549 48.3213 68.5908 48.7739 68.5908H84.9835C85.4362 68.5908 85.7379 68.7549 85.7379 69.0011C85.7379 69.2473 85.4362 69.4114 84.9835 69.4114Z" fill="#8E96AB"/>
<path d="M60.4033 62.8469H44.6558C44.2143 62.8469 43.9199 62.6828 43.9199 62.4366C43.9199 62.1905 44.2143 62.0264 44.6558 62.0264H60.4033C60.8448 62.0264 61.1392 62.1905 61.1392 62.4366C61.1392 62.6828 60.8448 62.8469 60.4033 62.8469Z" fill="#8E96AB"/>
<path d="M72.7044 66.1291H44.6542C44.2136 66.1291 43.9199 65.965 43.9199 65.7189C43.9199 65.4727 44.2136 65.3086 44.6542 65.3086H72.7044C73.1449 65.3086 73.4387 65.4727 73.4387 65.7189C73.2918 65.965 72.9981 66.1291 72.7044 66.1291Z" fill="#8E96AB"/>
<path d="M84.9393 66.1291H74.2371C73.7579 66.1291 73.4385 65.965 73.4385 65.7189C73.4385 65.4727 73.7579 65.3086 74.2371 65.3086H84.9393C85.4185 65.3086 85.7379 65.4727 85.7379 65.7189C85.7379 65.965 85.4185 66.1291 84.9393 66.1291Z" fill="#C6CDDF"/>
<path d="M91.5222 66.1291H87.3337C86.8684 66.1291 86.5581 65.965 86.5581 65.7189C86.5581 65.4727 86.8684 65.3086 87.3337 65.3086H91.5222C91.9876 65.3086 92.2979 65.4727 92.2979 65.7189C92.2979 65.965 91.9876 66.1291 91.5222 66.1291Z" fill="#8E96AB"/>
<path d="M1.28174 103.26H139.036" stroke="#5C6479" stroke-width="2" stroke-miterlimit="10" stroke-linecap="round" stroke-linejoin="round"/>
<path d="M47.1997 58.7441L62.8446 34.1274H143.136L127.048 58.7441H47.1997Z" fill="#8E96AB"/>
<path d="M47.1997 58.7441L62.8446 34.1274H143.136L127.048 58.7441H47.1997Z" fill="#8E96AB"/>
<path d="M17.8361 60.3066H46.7363L32.0616 38.0485C31.0134 36.5744 29.3662 35.69 27.7191 35.69H5.25777C3.76035 35.69 2.71215 37.4589 3.61061 38.6381L17.8361 60.3066Z" fill="#8E96AB"/>
<g filter="url(#filter0_d_121_6618)">
<path d="M116.392 15.2129V72.7354C116.392 74.8166 114.624 76.5304 112.478 76.5304H28.9849C26.8387 76.5304 25.0713 74.8166 25.0713 72.7354V15.2129C25.0713 13.1318 26.8387 11.418 28.9849 11.418H112.478C114.624 11.418 116.392 13.1318 116.392 15.2129Z" fill="#5C6479"/>
</g>
<path d="M116.392 15.2129V17.9674H25.0713V15.2129C25.0713 13.1318 26.8387 11.418 28.9849 11.418H112.478C114.624 11.418 116.392 13.1318 116.392 15.2129Z" fill="#474E61"/>
<path d="M120.091 8.51589C120.518 8.9448 121.231 9.08777 121.801 8.65886L127.217 3.94083C127.645 3.51192 127.787 2.79707 127.36 2.22519C126.932 1.79628 126.219 1.65331 125.649 2.08222L120.233 6.80024C119.806 7.22916 119.663 8.08698 120.091 8.51589Z" fill="#8E96AB"/>
<path d="M121.8 14.6014C121.943 14.8873 122.37 15.1733 122.798 15.1733H126.86C127.572 15.1733 128 14.6014 128 14.0295C128 13.3147 127.43 12.8857 126.86 12.8857H122.798C122.085 12.8857 121.658 13.4576 121.658 14.0295C121.658 14.1725 121.658 14.3154 121.8 14.6014Z" fill="#8E96AB"/>
<path d="M113.57 6.22832C113.712 6.37129 113.997 6.37129 114.14 6.37129C114.852 6.37129 115.28 5.94237 115.422 5.22752L115.565 1.14376C115.565 0.571882 115.137 0 114.425 0C113.712 0 113.285 0.428912 113.142 1.14376L112.999 5.22752C112.999 5.65643 113.285 5.94237 113.57 6.22832Z" fill="#8E96AB"/>
<path d="M29.1739 15.8865C29.8363 15.8865 30.3733 15.3658 30.3733 14.7235C30.3733 14.0812 29.8363 13.5605 29.1739 13.5605C28.5116 13.5605 27.9746 14.0812 27.9746 14.7235C27.9746 15.3658 28.5116 15.8865 29.1739 15.8865Z" fill="#C6CDDF"/>
<path opacity="0.6" d="M32.8985 15.8865C33.5609 15.8865 34.0979 15.3658 34.0979 14.7235C34.0979 14.0812 33.5609 13.5605 32.8985 13.5605C32.2362 13.5605 31.6992 14.0812 31.6992 14.7235C31.6992 15.3658 32.2362 15.8865 32.8985 15.8865Z" fill="#C6CDDF"/>
<path opacity="0.4" d="M36.6852 15.8865C37.3475 15.8865 37.8845 15.3658 37.8845 14.7235C37.8845 14.0812 37.3475 13.5605 36.6852 13.5605C36.0228 13.5605 35.4858 14.0812 35.4858 14.7235C35.4858 15.3658 36.0228 15.8865 36.6852 15.8865Z" fill="#C6CDDF"/>
<path d="M48.411 27.2216H35.1293C34.2992 27.2216 33.6074 26.3854 33.6074 25.7165C33.6074 24.8804 34.2992 24.2114 35.1293 24.2114H48.411C49.2411 24.2114 49.9328 25.0476 49.9328 25.7165C49.9328 26.5527 49.2411 27.2216 48.411 27.2216Z" fill="#8E96AB"/>
<path d="M44.8191 48.2929H35.0933C34.2828 48.2929 33.6074 47.4567 33.6074 46.7878C33.6074 45.9516 34.2828 45.2827 35.0933 45.2827H44.8191C45.6296 45.2827 46.305 46.1189 46.305 46.7878C46.1699 47.4567 45.4945 48.2929 44.8191 48.2929Z" fill="#8E96AB"/>
<path d="M107.323 48.2929H88.6802C87.8282 48.2929 87.1182 47.4567 87.1182 46.7878C87.1182 45.9516 87.8282 45.2827 88.6802 45.2827H107.323C108.175 45.2827 108.885 46.1189 108.885 46.7878C108.743 47.4567 108.033 48.2929 107.323 48.2929Z" fill="#C6CDDF"/>
<path d="M81.006 48.2929H52.4185C51.5577 48.2929 50.8403 47.4567 50.8403 46.7878C50.8403 45.9516 51.5577 45.2827 52.4185 45.2827H81.006C81.8668 45.2827 82.5842 46.1189 82.5842 46.7878C82.4407 47.4567 81.7234 48.2929 81.006 48.2929Z" fill="#C6CDDF"/>
<path d="M58.3161 55.0658H40.6428C39.7736 55.0658 39.0493 54.2297 39.0493 53.5608C39.0493 52.7246 39.7736 52.0557 40.6428 52.0557H58.3161C59.1853 52.0557 59.9096 52.8918 59.9096 53.5608C59.7647 54.3969 59.0404 55.0658 58.3161 55.0658Z" fill="#C6CDDF"/>
<path d="M74.7004 55.0658H65.0733C64.2359 55.0658 63.5381 54.2297 63.5381 53.5608C63.5381 52.7246 64.2359 52.0557 65.0733 52.0557H74.7004C75.5378 52.0557 76.2356 52.8918 76.2356 53.5608C76.0961 54.3969 75.3982 55.0658 74.7004 55.0658Z" fill="#C6CDDF"/>
<path d="M55.5972 62.5912H35.1988C34.3308 62.5912 33.6074 61.7551 33.6074 61.0861C33.6074 60.25 34.3308 59.5811 35.1988 59.5811H55.5972C56.4652 59.5811 57.1886 60.4172 57.1886 61.0861C57.1886 61.9223 56.6099 62.5912 55.5972 62.5912Z" fill="#8E96AB"/>
<path d="M70.1683 62.5912H62.3481C61.5126 62.5912 60.8164 61.7551 60.8164 61.0861C60.8164 60.25 61.5126 59.5811 62.3481 59.5811H70.1683C71.0038 59.5811 71.7 60.4172 71.7 61.0861C71.7 61.9223 71.143 62.5912 70.1683 62.5912Z" fill="#C6CDDF"/>
<path d="M43.8163 69.3642H35.1891C34.3264 69.3642 33.6074 68.528 33.6074 67.8591C33.6074 67.0229 34.3264 66.354 35.1891 66.354H43.8163C44.6791 66.354 45.398 67.1902 45.398 67.8591C45.398 68.6952 44.8229 69.3642 43.8163 69.3642Z" fill="#C6CDDF"/>
<path d="M51.2287 69.3642H49.5444C48.767 69.3642 48.1191 68.528 48.1191 67.8591C48.1191 67.0229 48.767 66.354 49.5444 66.354H51.2287C52.0061 66.354 52.654 67.1902 52.654 67.8591C52.654 68.6952 52.0061 69.3642 51.2287 69.3642Z" fill="#C6CDDF"/>
<path d="M38.5869 41.5199H34.9768C34.2299 41.5199 33.6074 40.6838 33.6074 40.0148C33.6074 39.1787 34.2299 38.5098 34.9768 38.5098H38.5869C39.3338 38.5098 39.9562 39.3459 39.9562 40.0148C39.9562 40.851 39.3338 41.5199 38.5869 41.5199Z" fill="#C6CDDF"/>
<path d="M70.1341 41.5199H47.8733C47.0185 41.5199 46.3062 40.6838 46.3062 40.0148C46.3062 39.1787 47.0185 38.5098 47.8733 38.5098H70.1341C70.9889 38.5098 71.7012 39.3459 71.7012 40.0148C71.7012 40.851 70.9889 41.5199 70.1341 41.5199Z" fill="#C6CDDF"/>
<path d="M55.5972 33.9945H35.1988C34.3308 33.9945 33.6074 33.1584 33.6074 32.4895C33.6074 31.6533 34.3308 30.9844 35.1988 30.9844H55.5972C56.4652 30.9844 57.1886 31.8205 57.1886 32.4895C57.1886 33.3256 56.6099 33.9945 55.5972 33.9945Z" fill="#C6CDDF"/>
<path d="M82.8062 33.9945H62.4078C61.5398 33.9945 60.8164 33.1584 60.8164 32.4895C60.8164 31.6533 61.5398 30.9844 62.4078 30.9844H82.8062C83.6742 30.9844 84.3976 31.8205 84.3976 32.4895C84.3976 33.3256 83.8189 33.9945 82.8062 33.9945Z" fill="#8E96AB"/>
<path d="M97.3773 33.9945H89.5571C88.7216 33.9945 88.0254 33.1584 88.0254 32.4895C88.0254 31.6533 88.7216 30.9844 89.5571 30.9844H97.3773C98.2128 30.9844 98.909 31.8205 98.909 32.4895C98.909 33.3256 98.352 33.9945 97.3773 33.9945Z" fill="#8E96AB"/>
<path d="M98.0376 58.7441V103.26H23.6371C20.7022 103.26 18.501 100.899 18.501 98.0966V58.7441H98.0376Z" fill="#8E96AB"/>
<path d="M127.556 58.7441V98.0966C127.556 101.047 125.109 103.26 122.203 103.26H98.0376V58.7441H127.556Z" fill="#5C6479"/>
<path opacity="0.3" d="M127.556 58.8879V86.643H106.032C104.034 86.643 102.65 85.3487 102.342 83.4792L98.0376 58.7441L127.556 58.8879Z" fill="url(#paint0_linear_121_6618)"/>
<path d="M126.937 58.7441H98.0371L112.712 81.0023C113.76 82.4764 115.407 83.3608 117.054 83.3608H139.516C141.013 83.3608 142.061 81.5919 141.163 80.4127L126.937 58.7441Z" fill="#C6CDDF"/>
<path d="M1.27981 83.7441L17.0342 59.1274H98.0356L81.6867 83.7441H1.27981Z" fill="#C6CDDF"/>
<defs>
<filter id="filter0_d_121_6618" x="3.07129" y="0.417969" width="135.32" height="109.112" filterUnits="userSpaceOnUse" color-interpolation-filters="sRGB">
<feFlood flood-opacity="0" result="BackgroundImageFix"/>
<feColorMatrix in="SourceAlpha" type="matrix" values="0 0 0 0 0 0 0 0 0 0 0 0 0 0 0 0 0 0 127 0" result="hardAlpha"/>
<feOffset dy="11"/>
<feGaussianBlur stdDeviation="11"/>
<feColorMatrix type="matrix" values="0 0 0 0 0 0 0 0 0 0 0 0 0 0 0 0 0 0 0.27 0"/>
<feBlend mode="normal" in2="BackgroundImageFix" result="effect1_dropShadow_121_6618"/>
<feBlend mode="normal" in="SourceGraphic" in2="effect1_dropShadow_121_6618" result="shape"/>
</filter>
<linearGradient id="paint0_linear_121_6618" x1="112.804" y1="87.2156" x2="112.804" y2="61.8031" gradientUnits="userSpaceOnUse">
<stop offset="0.00289017" stop-color="#606673" stop-opacity="0"/>
<stop offset="1" stop-color="#AAB2C5"/>
</linearGradient>
</defs>
</svg>
