<svg width="159" height="137" viewBox="0 0 159 137" fill="none" xmlns="http://www.w3.org/2000/svg">
<path d="M79.1479 125C113.641 125 141.603 97.0178 141.603 62.5C141.603 27.9822 113.641 0 79.1479 0C44.655 0 16.6929 27.9822 16.6929 62.5C16.6929 97.0178 44.655 125 79.1479 125Z" fill="#2A2E37"/>
<g filter="url(#filter0_d_111_1026)">
<path d="M136.118 25.647V98.7454C136.118 101.425 133.913 103.632 131.235 103.632H27.0607C24.383 103.632 22.1777 101.425 22.1777 98.7454V25.647C22.1777 22.9673 24.383 20.7605 27.0607 20.7605H131.235C133.913 20.7605 136.118 22.9673 136.118 25.647Z" fill="#5C6479"/>
</g>
<path d="M63.2804 56.4758L60.1243 56.5152C59.5215 56.5693 59.1059 55.9968 59.0628 55.5128L59.0186 48.1992C58.9647 47.5943 59.5352 47.1772 60.0174 47.1339L63.1735 47.0945C63.7763 47.0404 64.1919 47.6129 64.235 48.0969L64.2792 55.4105C64.3331 56.0154 63.894 56.5427 63.2804 56.4758Z" fill="#8E96AB"/>
<path d="M71.302 56.4876L68.146 56.527C67.5432 56.5811 67.1276 56.0086 67.0845 55.5246L67.1 44.7908C67.0461 44.1858 67.6166 43.7687 68.0988 43.7255L71.2549 43.6861C71.8577 43.632 72.2732 44.2045 72.3164 44.6884L72.3008 55.4223C72.3547 56.0272 71.7843 56.4443 71.302 56.4876Z" fill="#8E96AB"/>
<path d="M79.1919 56.3889L76.0358 56.4283C75.433 56.4824 75.0174 55.9099 74.9743 55.426L74.9183 41.1617C74.8644 40.5568 75.4348 40.1397 75.9171 40.0964L79.0731 40.057C79.6759 40.0029 80.0915 40.5754 80.1346 41.0594L80.1906 55.3236C80.2446 55.9286 79.8055 56.4558 79.1919 56.3889Z" fill="#8E96AB"/>
<path d="M90.6431 39.7285H126.011" stroke="#8E96AB" stroke-width="2" stroke-miterlimit="10"/>
<path d="M90.6431 46.5115H126.011" stroke="#8E96AB" stroke-width="2" stroke-miterlimit="10"/>
<path d="M90.6431 53.2944H110.507" stroke="#8E96AB" stroke-width="2" stroke-miterlimit="10"/>
<path d="M95.0039 71.7053H59.6357" stroke="#8E96AB" stroke-width="2" stroke-miterlimit="10"/>
<path d="M95.0039 78.4883H59.6357" stroke="#8E96AB" stroke-width="2" stroke-miterlimit="10"/>
<path d="M95.0039 85.2712H75.1396" stroke="#8E96AB" stroke-width="2" stroke-miterlimit="10"/>
<path d="M117.26 71.8098L117.182 64.762C125.049 65.3047 131.249 71.8299 131.423 79.6212C131.503 84.6161 128.89 89.0314 124.899 91.5405L121.275 85.1423C123.044 83.8638 124.113 81.7775 124.149 79.2881C124.121 75.6187 121.021 72.3561 117.26 71.8098Z" fill="#8E96AB"/>
<path d="M115.64 64.9388L115.717 71.9299C113.445 72.1243 111.396 73.3607 110.2 75.2699L104.179 71.2825C106.562 67.6085 110.659 65.1356 115.64 64.9388Z" fill="#EAEEF9"/>
<path d="M102.892 73.1321L109.054 77.1282C108.851 77.8326 108.647 78.5371 108.732 79.4173C108.727 83.4828 112.227 86.905 116.571 87.0773C117.775 87.0602 118.84 86.8832 119.767 86.5463L123.359 92.7374C121.335 93.6836 119.045 94.1657 116.648 94.0558C108.395 93.9029 101.683 87.2344 101.533 79.2316C101.546 77.0547 102.006 74.9256 102.892 73.1321Z" fill="#8E96AB"/>
<path d="M150.03 107.757L139.913 97.4667C139.143 96.6832 138.123 96.2633 137.091 96.2068C136.421 96.1702 135.74 95.9919 135.27 95.5138L134.796 95.0324C134.089 94.3129 134.038 93.1835 134.6 92.3456C140.48 83.5806 139.555 71.5087 131.937 63.7592C125.193 56.899 115.141 55.3818 106.97 59.2737C104.7 60.3291 102.56 61.8463 100.615 63.7592C98.2156 66.1339 96.5296 68.9704 95.492 72.0047C94.9732 73.4559 94.5841 74.9071 94.3896 76.4243C93.4168 83.2185 95.492 90.4086 100.615 95.6197C100.745 95.7517 100.81 95.8176 100.939 95.9496C105.219 100.171 110.731 102.216 116.308 102.216C120.655 102.216 125.002 100.933 128.726 98.3678C129.578 97.7806 130.742 97.8342 131.467 98.5723L131.918 99.0312C132.377 99.4975 132.549 100.161 132.577 100.814C132.622 101.88 133.036 102.938 133.817 103.733L143.869 114.024C145.555 115.739 148.279 115.739 149.965 114.024C151.716 112.309 151.716 109.472 150.03 107.757ZM128.759 92.3875C127.981 93.1791 127.138 93.8387 126.295 94.4984C125.452 95.092 124.609 95.5538 123.766 95.9496C119.097 98.1923 113.585 98.1923 108.916 95.9496C107.1 95.092 105.414 93.9047 103.922 92.3875C99.6423 88.0339 98.0211 82.0312 99.0587 76.4243C99.3181 74.9071 99.772 73.3899 100.485 72.0047C101.328 70.2237 102.496 68.5086 103.922 67.0574C104.895 66.0679 105.933 65.2104 107.035 64.5508C109.888 62.7038 113.131 61.8463 116.373 61.8463C120.913 61.8463 125.387 63.5613 128.824 67.0574C135.633 74.0496 135.633 85.3953 128.759 92.3875Z" fill="url(#paint0_linear_111_1026)"/>
<path d="M22.7827 27.1318H51.8525V102.713H26.7827C24.5736 102.713 22.7827 100.922 22.7827 98.7132V27.1318Z" fill="#474E61"/>
<path d="M28.6279 38.7595H44.1318" stroke="#8E96AB" stroke-width="2" stroke-miterlimit="10"/>
<path d="M28.6279 46.5115H41.2248" stroke="#8E96AB" stroke-width="2" stroke-miterlimit="10"/>
<path d="M28.6279 54.2634H45.1008" stroke="#8E96AB" stroke-width="2" stroke-miterlimit="10"/>
<path d="M28.6279 62.0154H35.4109" stroke="#8E96AB" stroke-width="2" stroke-miterlimit="10"/>
<path d="M28.6279 69.7673H42.1938" stroke="#8E96AB" stroke-width="2" stroke-miterlimit="10"/>
<path d="M28.6279 77.5193H37.3489" stroke="#8E96AB" stroke-width="2" stroke-miterlimit="10"/>
<path d="M136.118 25.647V29.1937H22.1777V25.647C22.1777 22.9673 24.383 20.7605 27.0607 20.7605H131.235C133.913 20.7605 136.118 22.9673 136.118 25.647Z" fill="#393F4E"/>
<path d="M27.2967 26.514C28.1231 26.514 28.7931 25.8436 28.7931 25.0165C28.7931 24.1895 28.1231 23.519 27.2967 23.519C26.4703 23.519 25.8003 24.1895 25.8003 25.0165C25.8003 25.8436 26.4703 26.514 27.2967 26.514Z" fill="#EAEEF9"/>
<path opacity="0.6" d="M31.9437 26.514C32.7701 26.514 33.4401 25.8436 33.4401 25.0165C33.4401 24.1895 32.7701 23.519 31.9437 23.519C31.1172 23.519 30.4473 24.1895 30.4473 25.0165C30.4473 25.8436 31.1172 26.514 31.9437 26.514Z" fill="#EAEEF9"/>
<path opacity="0.4" d="M36.6693 26.514C37.4957 26.514 38.1657 25.8436 38.1657 25.0165C38.1657 24.1895 37.4957 23.519 36.6693 23.519C35.8428 23.519 35.1729 24.1895 35.1729 25.0165C35.1729 25.8436 35.8428 26.514 36.6693 26.514Z" fill="#EAEEF9"/>
<defs>
<filter id="filter0_d_111_1026" x="0.177734" y="9.7605" width="157.94" height="126.871" filterUnits="userSpaceOnUse" color-interpolation-filters="sRGB">
<feFlood flood-opacity="0" result="BackgroundImageFix"/>
<feColorMatrix in="SourceAlpha" type="matrix" values="0 0 0 0 0 0 0 0 0 0 0 0 0 0 0 0 0 0 127 0" result="hardAlpha"/>
<feOffset dy="11"/>
<feGaussianBlur stdDeviation="11"/>
<feColorMatrix type="matrix" values="0 0 0 0 0 0 0 0 0 0 0 0 0 0 0 0 0 0 0.27 0"/>
<feBlend mode="normal" in2="BackgroundImageFix" result="effect1_dropShadow_111_1026"/>
<feBlend mode="normal" in="SourceGraphic" in2="effect1_dropShadow_111_1026" result="shape"/>
</filter>
<linearGradient id="paint0_linear_111_1026" x1="107.261" y1="72.432" x2="132.482" y2="114.388" gradientUnits="userSpaceOnUse">
<stop stop-color="#E3EAF7"/>
<stop offset="1" stop-color="#ADB6C8"/>
</linearGradient>
</defs>
</svg>
