<svg width="155" height="154" viewBox="0 0 155 154" fill="none" xmlns="http://www.w3.org/2000/svg">
<path d="M75.8058 137.765C107.673 137.765 133.466 111.835 133.466 79.8437C133.466 47.852 107.673 22.0161 75.8058 22.0161C43.9385 22.0161 18.1455 47.9453 18.1455 79.937C18.1455 112.022 44.0319 137.765 75.8058 137.765Z" fill="#2A2E37"/>
<path d="M104.215 137.951C95.4306 138.231 84.8704 137.951 77.3942 137.858C70.0114 138.138 59.3578 138.231 50.5732 137.951C59.2643 133.008 62.3483 123.774 62.7221 117.711H91.8794C92.5335 123.681 95.6175 132.915 104.215 137.951Z" fill="#8E96AB"/>
<g filter="url(#filter0_d_111_2542)">
<path d="M132.437 40.4832V116.685C132.437 118.644 130.942 120.043 129.26 120.043H26.088C24.3124 120.043 22.9106 118.55 22.9106 116.685V40.4832C22.9106 38.7111 24.4059 37.1255 26.088 37.1255H129.073C131.035 37.1255 132.437 38.7111 132.437 40.4832Z" fill="#5C6479"/>
</g>
<path d="M132.437 40.4832V106.052H22.9106V40.4832C22.9106 38.7111 24.4059 37.1255 26.088 37.1255H129.073C131.035 37.1255 132.437 38.7111 132.437 40.4832Z" fill="#393F4E"/>
<path d="M128.63 41.1318H26.9604V101.509H128.758V41.1318H128.63Z" fill="#474E61"/>
<g filter="url(#filter1_d_111_2542)">
<path d="M117.614 41.0838C117.614 49.5324 110.786 56.3647 102.27 56.3647C102.123 56.3647 100.875 56.3647 91.6988 56.3647C85.3119 56.3647 75.1075 56.3647 58.8098 56.3647H51.028C40.8236 56.5851 32.6748 48.4304 32.6748 38.586C32.6748 28.6681 40.8971 20.4399 51.2483 20.9542C60.1313 -6.8159 100.802 -2.92221 104.252 25.8029C111.887 26.758 117.614 33.2229 117.614 41.0838Z" fill="#5C6479"/>
</g>
<path d="M77.2364 56.5116C92.286 56.5116 104.546 44.3163 104.546 29.2558C104.546 14.1953 92.286 2 77.2364 2C62.1867 2 49.9268 14.1953 49.9268 29.2558C49.9268 44.3163 62.1133 56.5116 77.2364 56.5116Z" fill="url(#paint0_linear_111_2542)" fill-opacity="0.37"/>
<path d="M102.271 56.3645C110.713 56.3645 117.614 49.5322 117.614 41.0836C117.614 32.6351 110.713 25.8027 102.271 25.8027C93.8281 25.8027 86.9272 32.6351 86.9272 41.0836C86.9272 49.5322 93.8281 56.3645 102.271 56.3645Z" fill="url(#paint1_linear_111_2542)" fill-opacity="0.37"/>
<path d="M77.487 115.379C78.9822 115.379 80.1971 114.26 80.1971 112.675C80.1971 111.182 79.0757 109.97 77.487 109.97C75.9917 109.97 74.7769 111.089 74.7769 112.675C74.7769 114.26 75.8983 115.379 77.487 115.379Z" fill="#8E96AB"/>
<path d="M1.69727 138.044H149.353" stroke="#8E96AB" stroke-width="2" stroke-miterlimit="10" stroke-linecap="round" stroke-linejoin="round"/>
<path d="M11.229 73.0349C13.3784 73.0349 15.0606 71.356 15.0606 69.2108C15.0606 67.0656 13.3784 65.3867 11.229 65.3867C9.07961 65.3867 7.39746 67.0656 7.39746 69.2108C7.39746 71.2627 9.17306 73.0349 11.229 73.0349Z" fill="#2A2E37"/>
<path d="M7.39842 60.6299C8.80021 60.6299 10.0151 59.4174 10.0151 58.0183C10.0151 56.6193 8.80021 55.4067 7.39842 55.4067C5.99662 55.4067 4.78174 56.6193 4.78174 58.0183C4.78174 59.4174 5.99662 60.6299 7.39842 60.6299Z" fill="#2A2E37"/>
<path d="M116.832 30.0376C118.234 30.0376 119.449 28.8251 119.449 27.426C119.449 26.027 118.234 24.8145 116.832 24.8145C115.43 24.8145 114.215 26.027 114.215 27.426C114.215 28.8251 115.337 30.0376 116.832 30.0376Z" fill="#2A2E37"/>
<path d="M144.492 82.6415C147.202 82.6415 149.352 80.4963 149.352 77.7915C149.352 75.0866 147.202 72.9414 144.492 72.9414C141.782 72.9414 139.633 75.0866 139.633 77.7915C139.633 80.4963 141.782 82.6415 144.492 82.6415Z" fill="#2A2E37"/>
<path d="M79.9329 81.3352L92.0096 69.102C93.2676 67.8277 93.2676 65.7889 92.0096 64.5146C90.7516 63.2403 88.7389 63.2403 87.7325 64.5146L80.9393 71.3957L80.9393 53.046C80.9393 51.262 79.4297 49.9877 77.9201 49.9877C76.1589 49.9877 74.901 51.5168 74.901 53.046L74.901 71.3957L68.1078 64.5146C66.8498 63.2403 64.837 63.2403 63.579 64.5146C62.321 65.7889 62.321 67.8277 63.579 68.8472L75.6557 81.0803C76.6621 82.6095 78.6749 82.6095 79.9329 81.3352Z" fill="url(#paint2_linear_111_2542)"/>
<defs>
<filter id="filter0_d_111_2542" x="0.910645" y="26.1255" width="153.527" height="126.917" filterUnits="userSpaceOnUse" color-interpolation-filters="sRGB">
<feFlood flood-opacity="0" result="BackgroundImageFix"/>
<feColorMatrix in="SourceAlpha" type="matrix" values="0 0 0 0 0 0 0 0 0 0 0 0 0 0 0 0 0 0 127 0" result="hardAlpha"/>
<feOffset dy="11"/>
<feGaussianBlur stdDeviation="11"/>
<feColorMatrix type="matrix" values="0 0 0 0 0 0 0 0 0 0 0 0 0 0 0 0 0 0 0.27 0"/>
<feBlend mode="normal" in2="BackgroundImageFix" result="effect1_dropShadow_111_2542"/>
<feBlend mode="normal" in="SourceGraphic" in2="effect1_dropShadow_111_2542" result="shape"/>
</filter>
<filter id="filter1_d_111_2542" x="19.6748" y="0.0664062" width="110.939" height="80.3027" filterUnits="userSpaceOnUse" color-interpolation-filters="sRGB">
<feFlood flood-opacity="0" result="BackgroundImageFix"/>
<feColorMatrix in="SourceAlpha" type="matrix" values="0 0 0 0 0 0 0 0 0 0 0 0 0 0 0 0 0 0 127 0" result="hardAlpha"/>
<feOffset dy="11"/>
<feGaussianBlur stdDeviation="6.5"/>
<feColorMatrix type="matrix" values="0 0 0 0 0 0 0 0 0 0 0 0 0 0 0 0 0 0 0.22 0"/>
<feBlend mode="normal" in2="BackgroundImageFix" result="effect1_dropShadow_111_2542"/>
<feBlend mode="normal" in="SourceGraphic" in2="effect1_dropShadow_111_2542" result="shape"/>
</filter>
<linearGradient id="paint0_linear_111_2542" x1="46.9591" y1="-3.78244" x2="71.2028" y2="22.7173" gradientUnits="userSpaceOnUse">
<stop stop-color="white"/>
<stop offset="0.9942" stop-color="white" stop-opacity="0"/>
</linearGradient>
<linearGradient id="paint1_linear_111_2542" x1="85.2599" y1="22.5608" x2="98.8495" y2="37.4463" gradientUnits="userSpaceOnUse">
<stop stop-color="white"/>
<stop offset="0.9942" stop-color="white" stop-opacity="0"/>
</linearGradient>
<linearGradient id="paint2_linear_111_2542" x1="85.9987" y1="73.7894" x2="71.7113" y2="51.0671" gradientUnits="userSpaceOnUse">
<stop stop-color="#E3EAF7"/>
<stop offset="1" stop-color="#ADB6C8"/>
</linearGradient>
</defs>
</svg>
