<svg width="197" height="146" viewBox="0 0 197 146" fill="none" xmlns="http://www.w3.org/2000/svg">
<path d="M94.0361 125C128.529 125 156.491 97.0178 156.491 62.5C156.491 27.9822 128.529 0 94.0361 0C59.5431 0 31.5811 27.9822 31.5811 62.5C31.5811 97.0178 59.5431 125 94.0361 125Z" fill="#2A2E37"/>
<g filter="url(#filter0_d_111_709)">
<path d="M169.328 41.6931H126.878C124.279 41.6931 122.152 39.5651 122.152 36.9642V17.1818C122.152 14.5809 124.279 12.4529 126.878 12.4529H169.328C171.927 12.4529 174.054 14.5809 174.054 17.1818V36.9642C174.054 39.5651 171.927 41.6931 169.328 41.6931Z" fill="#5C6479"/>
</g>
<g filter="url(#filter1_d_111_709)">
<path d="M169.328 112.626H126.878C124.279 112.626 122.152 110.498 122.152 107.897V88.1146C122.152 85.5137 124.279 83.3857 126.878 83.3857H169.328C171.927 83.3857 174.054 85.5137 174.054 88.1146V107.897C174.054 110.498 171.927 112.626 169.328 112.626Z" fill="#5C6479"/>
</g>
<path fill-rule="evenodd" clip-rule="evenodd" d="M134.833 27.0334C134.833 25.7275 135.891 24.6689 137.196 24.6689H159.012C160.317 24.6689 161.374 25.7275 161.374 27.0334C161.374 28.3392 160.317 29.3978 159.012 29.3978H137.196C135.891 29.3978 134.833 28.3392 134.833 27.0334Z" fill="#8E96AB"/>
<path fill-rule="evenodd" clip-rule="evenodd" d="M134.518 97.9665C134.518 96.6606 135.575 95.6021 136.88 95.6021H158.696C160.001 95.6021 161.059 96.6606 161.059 97.9665C161.059 99.2723 160.001 100.331 158.696 100.331H136.88C135.575 100.331 134.518 99.2723 134.518 97.9665Z" fill="#8E96AB"/>
<path d="M114.057 18.1105C113.135 17.1871 111.639 17.1871 110.716 18.1105C109.793 19.0339 109.793 20.5309 110.716 21.4543L112.668 23.4079H97.5011C92.3371 23.4079 88.1289 27.619 88.1289 32.7868V90.952C88.1289 96.1198 92.3371 100.331 97.5011 100.331H112.668L110.716 102.285C109.793 103.208 109.793 104.705 110.716 105.628C111.639 106.552 113.135 106.552 114.057 105.628L120.043 99.6385C120.486 99.1951 120.735 98.5937 120.735 97.9666C120.735 97.3395 120.486 96.7381 120.043 96.2946L114.057 90.3047C113.135 89.3814 111.639 89.3814 110.716 90.3047C109.793 91.2281 109.793 92.7252 110.716 93.6486L112.668 95.6021H97.5011C94.9469 95.6021 92.8544 93.5081 92.8544 90.952V32.7868C92.8544 30.2307 94.9469 28.1367 97.5011 28.1367H112.668L110.716 30.0903C109.793 31.0137 109.793 32.5108 110.716 33.4341C111.639 34.3575 113.135 34.3575 114.057 33.4341L120.043 27.4442C120.486 27.0008 120.735 26.3994 120.735 25.7723C120.735 25.1452 120.486 24.5438 120.043 24.1004L114.057 18.1105Z" fill="#8E96AB"/>
<path d="M65.6516 66.5173H33.5498V61.9504H65.6515L63.6184 59.9159C62.6957 58.9925 62.6957 57.4954 63.6184 56.5721C64.5411 55.6487 66.0371 55.6487 66.9598 56.5721L72.9454 62.562C73.8681 63.4854 73.8681 64.9824 72.9454 65.9058L66.9598 71.8957C66.0371 72.8191 64.5411 72.8191 63.6184 71.8957C62.6957 70.9723 62.6957 69.4753 63.6184 68.5519L65.6516 66.5173Z" fill="#8E96AB"/>
<g filter="url(#filter2_d_111_709)">
<path d="M47.3326 78.8935H27.5643C24.9653 78.8935 22.8389 76.7656 22.8389 74.1647V54.3822C22.8389 51.7813 24.9653 49.6533 27.5643 49.6533H47.3326C49.9316 49.6533 52.0581 51.7813 52.0581 54.3822V74.1647C52.0581 76.7656 49.9316 78.8935 47.3326 78.8935Z" fill="url(#paint0_linear_111_709)"/>
</g>
<g filter="url(#filter3_d_111_709)">
<path d="M104.196 66.9925L93.9573 77.2384C91.9883 79.2088 88.838 79.2088 86.8691 77.2384L76.6305 66.9925C74.6616 65.0222 74.6616 61.8696 76.6305 59.8992L86.8691 49.6533C88.838 47.6829 91.9883 47.6829 93.9573 49.6533L104.196 59.8992C106.165 61.8696 106.165 65.0222 104.196 66.9925Z" fill="url(#paint1_linear_111_709)"/>
</g>
<defs>
<filter id="filter0_d_111_709" x="100.152" y="1.45288" width="95.9014" height="73.2402" filterUnits="userSpaceOnUse" color-interpolation-filters="sRGB">
<feFlood flood-opacity="0" result="BackgroundImageFix"/>
<feColorMatrix in="SourceAlpha" type="matrix" values="0 0 0 0 0 0 0 0 0 0 0 0 0 0 0 0 0 0 127 0" result="hardAlpha"/>
<feOffset dy="11"/>
<feGaussianBlur stdDeviation="11"/>
<feColorMatrix type="matrix" values="0 0 0 0 0 0 0 0 0 0 0 0 0 0 0 0 0 0 0.27 0"/>
<feBlend mode="normal" in2="BackgroundImageFix" result="effect1_dropShadow_111_709"/>
<feBlend mode="normal" in="SourceGraphic" in2="effect1_dropShadow_111_709" result="shape"/>
</filter>
<filter id="filter1_d_111_709" x="100.152" y="72.3857" width="95.9014" height="73.2402" filterUnits="userSpaceOnUse" color-interpolation-filters="sRGB">
<feFlood flood-opacity="0" result="BackgroundImageFix"/>
<feColorMatrix in="SourceAlpha" type="matrix" values="0 0 0 0 0 0 0 0 0 0 0 0 0 0 0 0 0 0 127 0" result="hardAlpha"/>
<feOffset dy="11"/>
<feGaussianBlur stdDeviation="11"/>
<feColorMatrix type="matrix" values="0 0 0 0 0 0 0 0 0 0 0 0 0 0 0 0 0 0 0.27 0"/>
<feBlend mode="normal" in2="BackgroundImageFix" result="effect1_dropShadow_111_709"/>
<feBlend mode="normal" in="SourceGraphic" in2="effect1_dropShadow_111_709" result="shape"/>
</filter>
<filter id="filter2_d_111_709" x="0.838867" y="38.6533" width="73.2192" height="73.2402" filterUnits="userSpaceOnUse" color-interpolation-filters="sRGB">
<feFlood flood-opacity="0" result="BackgroundImageFix"/>
<feColorMatrix in="SourceAlpha" type="matrix" values="0 0 0 0 0 0 0 0 0 0 0 0 0 0 0 0 0 0 127 0" result="hardAlpha"/>
<feOffset dy="11"/>
<feGaussianBlur stdDeviation="11"/>
<feColorMatrix type="matrix" values="0 0 0 0 0 0 0 0 0 0 0 0 0 0 0 0 0 0 0.27 0"/>
<feBlend mode="normal" in2="BackgroundImageFix" result="effect1_dropShadow_111_709"/>
<feBlend mode="normal" in="SourceGraphic" in2="effect1_dropShadow_111_709" result="shape"/>
</filter>
<filter id="filter3_d_111_709" x="53.1538" y="37.1755" width="74.5186" height="74.5408" filterUnits="userSpaceOnUse" color-interpolation-filters="sRGB">
<feFlood flood-opacity="0" result="BackgroundImageFix"/>
<feColorMatrix in="SourceAlpha" type="matrix" values="0 0 0 0 0 0 0 0 0 0 0 0 0 0 0 0 0 0 127 0" result="hardAlpha"/>
<feOffset dy="11"/>
<feGaussianBlur stdDeviation="11"/>
<feColorMatrix type="matrix" values="0 0 0 0 0 0 0 0 0 0 0 0 0 0 0 0 0 0 0.27 0"/>
<feBlend mode="normal" in2="BackgroundImageFix" result="effect1_dropShadow_111_709"/>
<feBlend mode="normal" in="SourceGraphic" in2="effect1_dropShadow_111_709" result="shape"/>
</filter>
<linearGradient id="paint0_linear_111_709" x1="29.5413" y1="57.3289" x2="42.1247" y2="78.6168" gradientUnits="userSpaceOnUse">
<stop stop-color="#E3EAF7"/>
<stop offset="1" stop-color="#ADB6C8"/>
</linearGradient>
<linearGradient id="paint1_linear_111_709" x1="82.1543" y1="56.1925" x2="95.2974" y2="78.4272" gradientUnits="userSpaceOnUse">
<stop stop-color="#E3EAF7"/>
<stop offset="1" stop-color="#ADB6C8"/>
</linearGradient>
</defs>
</svg>
