<svg width="126" height="125" viewBox="0 0 126 125" fill="none" xmlns="http://www.w3.org/2000/svg">
<path d="M62.7319 125C97.2249 125 125.187 97.0178 125.187 62.5C125.187 27.9822 97.2249 0 62.7319 0C28.2389 0 0.276855 27.9822 0.276855 62.5C0.276855 97.0178 28.2389 125 62.7319 125Z" fill="#2A2E37"/>
<mask id="mask0_111_514" style="mask-type:alpha" maskUnits="userSpaceOnUse" x="0" y="0" width="126" height="125">
<path d="M62.7319 125C97.2249 125 125.187 97.0178 125.187 62.5C125.187 27.9822 97.2249 0 62.7319 0C28.2389 0 0.276855 27.9822 0.276855 62.5C0.276855 97.0178 28.2389 125 62.7319 125Z" fill="#2A2E37"/>
</mask>
<g mask="url(#mask0_111_514)">
<g filter="url(#filter0_d_111_514)">
<path d="M103.566 22.3284V129.342C103.566 132.021 101.36 134.228 98.6826 134.228H25.4938C22.8161 134.228 20.6108 132.021 20.6108 129.342V22.3284C20.6108 19.6487 22.8161 17.4419 25.4938 17.4419H98.6826C101.36 17.4419 103.566 19.6487 103.566 22.3284Z" fill="#5C6479"/>
</g>
<path d="M103.566 22.3284V25.8751H20.6108V22.3284C20.6108 19.6487 22.8161 17.4419 25.4938 17.4419H98.6826C101.36 17.4419 103.566 19.6487 103.566 22.3284Z" fill="#393F4E"/>
<path d="M25.4051 23.1952C26.2315 23.1952 26.9015 22.5247 26.9015 21.6977C26.9015 20.8706 26.2315 20.2002 25.4051 20.2002C24.5787 20.2002 23.9087 20.8706 23.9087 21.6977C23.9087 22.5247 24.5787 23.1952 25.4051 23.1952Z" fill="#C6CDDF"/>
<path opacity="0.6" d="M30.0521 23.1952C30.8785 23.1952 31.5485 22.5247 31.5485 21.6977C31.5485 20.8706 30.8785 20.2002 30.0521 20.2002C29.2256 20.2002 28.5557 20.8706 28.5557 21.6977C28.5557 22.5247 29.2256 23.1952 30.0521 23.1952Z" fill="#C6CDDF"/>
<path opacity="0.4" d="M34.7777 23.1952C35.6041 23.1952 36.2741 22.5247 36.2741 21.6977C36.2741 20.8706 35.6041 20.2002 34.7777 20.2002C33.9512 20.2002 33.2812 20.8706 33.2812 21.6977C33.2812 22.5247 33.9512 23.1952 34.7777 23.1952Z" fill="#C6CDDF"/>
<rect opacity="0.6" x="31.0386" y="33.5029" width="20.3488" height="3.87597" rx="1.93798" fill="#C6CDDF"/>
<rect opacity="0.6" x="31.0386" y="58.6968" width="20.3488" height="3.87597" rx="1.93798" fill="#C6CDDF"/>
<rect opacity="0.6" x="31.0386" y="83.8906" width="20.3488" height="3.87597" rx="1.93798" fill="#C6CDDF"/>
<rect x="31.0386" y="41.6665" width="62.9845" height="9.68992" rx="2" fill="#393F4E" stroke="#C6CDDF" stroke-width="1.5"/>
<rect x="35.8838" y="45.5425" width="20.3488" height="1.93798" rx="0.968992" fill="#8E96AB"/>
<rect opacity="0.6" x="31.0386" y="67.4175" width="62.9845" height="9.68992" rx="2" fill="#C6CDDF"/>
<rect opacity="0.6" x="31.0386" y="92.6113" width="62.9845" height="9.68992" rx="2" fill="#C6CDDF"/>
<rect opacity="0.6" x="47.5117" y="109.496" width="30.0388" height="9.68992" rx="2" fill="#C6CDDF"/>
<rect opacity="0.6" x="54.2944" y="113.372" width="16.4729" height="1.93798" rx="0.968992" fill="#393F4E"/>
<path d="M102.821 56.2108C102.666 56.4425 102.589 56.597 102.279 56.7515L98.72 58.2191C98.1783 58.4508 97.6366 58.7598 97.2497 59.146C96.8628 59.5322 96.5533 59.9184 96.4759 60.4591L95.0057 64.0123C94.8509 64.553 94.2319 64.7847 93.845 64.553C93.6902 64.3985 93.4581 64.3213 93.4581 64.1668L86.5711 49.0272C86.4164 48.7955 86.4164 48.4865 86.5711 48.332C86.7259 48.1003 87.1128 47.9458 87.4997 48.1003L102.666 54.9749C102.821 55.2839 102.976 55.8246 102.821 56.2108Z" fill="url(#paint0_linear_111_514)"/>
<path d="M105.452 65.4799C105.298 65.4799 105.22 65.4799 105.065 65.3254L100.113 60.3046C99.8809 60.0729 99.8809 59.6094 100.113 59.5322C100.345 59.3005 100.81 59.3005 100.887 59.5322L105.839 64.4757C106.071 64.7075 106.071 65.1709 105.839 65.2482C105.839 65.4799 105.607 65.4799 105.452 65.4799Z" fill="#8E96AB"/>
<path d="M100.423 65.4799C100.268 65.4799 100.191 65.4799 100.036 65.3254L97.7918 63.0854C97.5596 62.8537 97.5596 62.3902 97.7918 62.313C98.0239 62.0812 98.4882 62.0812 98.5656 62.313L100.81 64.553C101.042 64.7847 101.042 65.2482 100.81 65.3254C100.81 65.4799 100.732 65.4799 100.423 65.4799Z" fill="#8E96AB"/>
</g>
<defs>
<filter id="filter0_d_111_514" x="-1.38916" y="6.44189" width="126.955" height="160.786" filterUnits="userSpaceOnUse" color-interpolation-filters="sRGB">
<feFlood flood-opacity="0" result="BackgroundImageFix"/>
<feColorMatrix in="SourceAlpha" type="matrix" values="0 0 0 0 0 0 0 0 0 0 0 0 0 0 0 0 0 0 127 0" result="hardAlpha"/>
<feOffset dy="11"/>
<feGaussianBlur stdDeviation="11"/>
<feColorMatrix type="matrix" values="0 0 0 0 0 0 0 0 0 0 0 0 0 0 0 0 0 0 0.27 0"/>
<feBlend mode="normal" in2="BackgroundImageFix" result="effect1_dropShadow_111_514"/>
<feBlend mode="normal" in="SourceGraphic" in2="effect1_dropShadow_111_514" result="shape"/>
</filter>
<linearGradient id="paint0_linear_111_514" x1="90.2239" y1="52.3967" x2="97.4032" y2="64.4235" gradientUnits="userSpaceOnUse">
<stop stop-color="#E3EAF7"/>
<stop offset="1" stop-color="#ADB6C8"/>
</linearGradient>
</defs>
</svg>
