<svg width="129" height="125" viewBox="0 0 129 125" fill="none" xmlns="http://www.w3.org/2000/svg">
<path d="M63.2846 125C97.7776 125 125.74 97.0178 125.74 62.5C125.74 27.9822 97.7776 0 63.2846 0C28.7917 0 0.82959 27.9822 0.82959 62.5C0.82959 97.0178 28.7917 125 63.2846 125Z" fill="#2A2E37"/>
<mask id="mask0_111_857" style="mask-type:alpha" maskUnits="userSpaceOnUse" x="0" y="1" width="129" height="123">
<path d="M87.1695 118.285C79.3716 121.867 70.6938 123.864 61.5493 123.864C27.6318 123.864 0.13623 96.3903 0.13623 62.5001C0.13623 28.6099 27.6318 1.13647 61.5493 1.13647C69.6956 1.13647 77.4714 2.7213 84.5849 5.59928H128.545V118.285H87.1695Z" fill="#D9D9D9"/>
</mask>
<g mask="url(#mask0_111_857)">
<g filter="url(#filter0_d_111_857)">
<path d="M-2.40932 118.012C-2.93898 118.012 -3.38037 117.591 -3.38037 117.085V69.5856C-3.38037 69.0803 -2.93898 68.6592 -2.40932 68.6592H32.6364C33.1661 68.6592 33.6075 69.0803 33.6075 69.5856V117.085C33.6075 117.591 33.1661 118.012 32.6364 118.012H-2.40932Z" fill="#5C6479"/>
</g>
<g filter="url(#filter1_d_111_857)">
<path d="M-2.40932 59.8807C-2.93898 59.8807 -3.38037 59.4596 -3.38037 58.9543V11.4545C-3.38037 10.9492 -2.93898 10.5281 -2.40932 10.5281H32.6364C33.1661 10.5281 33.6075 10.9492 33.6075 11.4545V58.9543C33.6075 59.4596 33.1661 59.8807 32.6364 59.8807H-2.40932Z" fill="#5C6479"/>
</g>
<g filter="url(#filter2_d_111_857)">
<path d="M43.6336 118.012C43.104 118.012 42.6626 117.591 42.6626 117.085V69.5856C42.6626 69.0803 43.104 68.6592 43.6336 68.6592H78.6794C79.2091 68.6592 79.6505 69.0803 79.6505 69.5856V117.085C79.6505 117.591 79.2091 118.012 78.6794 118.012H43.6336Z" fill="#5C6479"/>
</g>
<g filter="url(#filter3_d_111_857)">
<path d="M43.6336 59.8807C43.104 59.8807 42.6626 59.4596 42.6626 58.9543V11.4545C42.6626 10.9492 43.104 10.5281 43.6336 10.5281H78.6794C79.2091 10.5281 79.6505 10.9492 79.6505 11.4545V58.9543C79.6505 59.4596 79.2091 59.8807 78.6794 59.8807H43.6336Z" fill="#5C6479"/>
</g>
<g filter="url(#filter4_d_111_857)">
<path d="M88.7626 59.8807C88.2329 59.8807 87.7915 59.4596 87.7915 58.9543V11.4545C87.7915 10.9492 88.2329 10.5281 88.7626 10.5281H123.808C124.338 10.5281 124.779 10.9492 124.779 11.4545V58.9543C124.779 59.4596 124.338 59.8807 123.808 59.8807H88.7626Z" fill="#5C6479"/>
</g>
<path d="M27.539 96.0969H1.64165C1.24807 96.0969 0.854492 95.7709 0.854492 95.2819V73.7664C0.854492 73.3589 1.16935 72.9514 1.64165 72.9514H27.539C27.9326 72.9514 28.3262 73.2774 28.3262 73.7664V95.2819C28.2475 95.7709 27.9326 96.0969 27.539 96.0969Z" fill="#474E61"/>
<path d="M24.4979 105.4H4.76825C4.68247 105.4 4.59668 105.314 4.59668 105.228V103.254C4.59668 103.168 4.68247 103.082 4.76825 103.082H24.4979C24.5837 103.082 24.6694 103.168 24.6694 103.254V105.228C24.6694 105.314 24.5837 105.4 24.4979 105.4Z" fill="#8E96AB"/>
<path d="M28.5297 109.606H0.650887C0.479325 109.606 0.393555 109.52 0.393555 109.349V108.576C0.393555 108.404 0.479325 108.319 0.650887 108.319H28.5297C28.7013 108.319 28.7871 108.404 28.7871 108.576V109.349C28.7871 109.52 28.7013 109.606 28.5297 109.606Z" fill="#8E96AB"/>
<path d="M22.868 113.212H6.31221C5.96909 113.212 5.62598 112.954 5.62598 112.525C5.62598 112.182 5.88331 111.838 6.31221 111.838H22.868C23.2111 111.838 23.5542 112.096 23.5542 112.525C23.5542 112.868 23.2111 113.212 22.868 113.212Z" fill="#8E96AB"/>
<path d="M27.539 37.9658H1.64165C1.24807 37.9658 0.854492 37.6398 0.854492 37.1508V15.6353C0.854492 15.2278 1.16935 14.8203 1.64165 14.8203H27.539C27.9326 14.8203 28.3262 15.1463 28.3262 15.6353V37.1508C28.2475 37.6398 27.9326 37.9658 27.539 37.9658Z" fill="#474E61"/>
<path d="M24.4979 47.2687H4.76825C4.68247 47.2687 4.59668 47.1828 4.59668 47.097V45.1226C4.59668 45.0368 4.68247 44.9509 4.76825 44.9509H24.4979C24.5837 44.9509 24.6694 45.0368 24.6694 45.1226V47.097C24.6694 47.1828 24.5837 47.2687 24.4979 47.2687Z" fill="#8E96AB"/>
<path d="M28.5297 51.4749H0.650887C0.479325 51.4749 0.393555 51.3891 0.393555 51.2174V50.4448C0.393555 50.2731 0.479325 50.1873 0.650887 50.1873H28.5297C28.7013 50.1873 28.7871 50.2731 28.7871 50.4448V51.2174C28.7871 51.3891 28.7013 51.4749 28.5297 51.4749Z" fill="#8E96AB"/>
<path d="M22.868 55.0803H6.31221C5.96909 55.0803 5.62598 54.8227 5.62598 54.3935C5.62598 54.0501 5.88331 53.7068 6.31221 53.7068H22.868C23.2111 53.7068 23.5542 53.9643 23.5542 54.3935C23.5542 54.7369 23.2111 55.0803 22.868 55.0803Z" fill="#8E96AB"/>
<path d="M73.581 96.0969H47.6836C47.2901 96.0969 46.8965 95.7709 46.8965 95.2819V73.7664C46.8965 73.3589 47.2113 72.9514 47.6836 72.9514H73.581C73.9746 72.9514 74.3682 73.2774 74.3682 73.7664V95.2819C74.2895 95.7709 73.9746 96.0969 73.581 96.0969Z" fill="#474E61"/>
<path d="M70.5398 105.4H50.8102C50.7244 105.4 50.6387 105.314 50.6387 105.228V103.254C50.6387 103.168 50.7244 103.082 50.8102 103.082H70.5398C70.6256 103.082 70.7114 103.168 70.7114 103.254V105.228C70.7114 105.314 70.6256 105.4 70.5398 105.4Z" fill="#8E96AB"/>
<path d="M74.5712 109.606H46.6924C46.5209 109.606 46.4351 109.52 46.4351 109.349V108.576C46.4351 108.404 46.5209 108.319 46.6924 108.319H74.5712C74.7428 108.319 74.8286 108.404 74.8286 108.576V109.349C74.8286 109.52 74.7428 109.606 74.5712 109.606Z" fill="#8E96AB"/>
<path d="M68.9104 113.212H52.3547C52.0116 113.212 51.6685 112.954 51.6685 112.525C51.6685 112.182 51.9258 111.838 52.3547 111.838H68.9104C69.2536 111.838 69.5967 112.096 69.5967 112.525C69.5967 112.868 69.2536 113.212 68.9104 113.212Z" fill="#8E96AB"/>
<path d="M73.581 37.9658H47.6836C47.2901 37.9658 46.8965 37.6398 46.8965 37.1508V15.6353C46.8965 15.2278 47.2113 14.8203 47.6836 14.8203H73.581C73.9746 14.8203 74.3682 15.1463 74.3682 15.6353V37.1508C74.2895 37.6398 73.9746 37.9658 73.581 37.9658Z" fill="#474E61"/>
<path d="M70.5398 47.2687H50.8102C50.7244 47.2687 50.6387 47.1828 50.6387 47.097V45.1226C50.6387 45.0368 50.7244 44.9509 50.8102 44.9509H70.5398C70.6256 44.9509 70.7114 45.0368 70.7114 45.1226V47.097C70.7114 47.1828 70.6256 47.2687 70.5398 47.2687Z" fill="#8E96AB"/>
<path d="M74.5712 51.4749H46.6924C46.5209 51.4749 46.4351 51.3891 46.4351 51.2174V50.4448C46.4351 50.2731 46.5209 50.1873 46.6924 50.1873H74.5712C74.7428 50.1873 74.8286 50.2731 74.8286 50.4448V51.2174C74.8286 51.3891 74.7428 51.4749 74.5712 51.4749Z" fill="#8E96AB"/>
<path d="M68.9104 55.0803H52.3547C52.0116 55.0803 51.6685 54.8227 51.6685 54.3935C51.6685 54.0501 51.9258 53.7068 52.3547 53.7068H68.9104C69.2536 53.7068 69.5967 53.9643 69.5967 54.3935C69.5967 54.7369 69.2536 55.0803 68.9104 55.0803Z" fill="#8E96AB"/>
<path d="M118.71 37.9658H92.813C92.4195 37.9658 92.0259 37.6398 92.0259 37.1508V15.6353C92.0259 15.2278 92.3407 14.8203 92.813 14.8203H118.71C119.104 14.8203 119.498 15.1463 119.498 15.6353V37.1508C119.419 37.6398 119.104 37.9658 118.71 37.9658Z" fill="#474E61"/>
<path d="M115.669 47.2687H95.9396C95.8538 47.2687 95.7681 47.1828 95.7681 47.097V45.1226C95.7681 45.0368 95.8538 44.9509 95.9396 44.9509H115.669C115.755 44.9509 115.841 45.0368 115.841 45.1226V47.097C115.841 47.1828 115.755 47.2687 115.669 47.2687Z" fill="#8E96AB"/>
<path d="M119.701 51.4749H91.8223C91.6507 51.4749 91.5649 51.3891 91.5649 51.2174V50.4448C91.5649 50.2731 91.6507 50.1873 91.8223 50.1873H119.701C119.873 50.1873 119.958 50.2731 119.958 50.4448V51.2174C119.958 51.3891 119.873 51.4749 119.701 51.4749Z" fill="#8E96AB"/>
<path d="M114.039 55.0803H97.4836C97.1405 55.0803 96.7974 54.8227 96.7974 54.3935C96.7974 54.0501 97.0547 53.7068 97.4836 53.7068H114.039C114.382 53.7068 114.726 53.9643 114.726 54.3935C114.726 54.7369 114.382 55.0803 114.039 55.0803Z" fill="#8E96AB"/>
<rect x="88.0244" y="68.5176" width="38.2483" height="49.3526" rx="2" fill="url(#paint0_linear_111_857)"/>
<path fill-rule="evenodd" clip-rule="evenodd" d="M106.501 87.2585C107.053 87.2585 107.5 87.7063 107.5 88.2585V98.5597C107.5 99.1119 107.053 99.5597 106.501 99.5597C105.949 99.5597 105.501 99.1119 105.501 98.5597V88.2585C105.501 87.7063 105.949 87.2585 106.501 87.2585Z" fill="#474E61"/>
<path fill-rule="evenodd" clip-rule="evenodd" d="M100.354 93.4092C100.354 92.8569 100.802 92.4092 101.354 92.4092H111.733C112.285 92.4092 112.733 92.8569 112.733 93.4092C112.733 93.9615 112.285 94.4092 111.733 94.4092H101.354C100.802 94.4092 100.354 93.9615 100.354 93.4092Z" fill="#474E61"/>
</g>
<defs>
<filter id="filter0_d_111_857" x="-25.3804" y="57.6592" width="80.9878" height="93.3525" filterUnits="userSpaceOnUse" color-interpolation-filters="sRGB">
<feFlood flood-opacity="0" result="BackgroundImageFix"/>
<feColorMatrix in="SourceAlpha" type="matrix" values="0 0 0 0 0 0 0 0 0 0 0 0 0 0 0 0 0 0 127 0" result="hardAlpha"/>
<feOffset dy="11"/>
<feGaussianBlur stdDeviation="11"/>
<feColorMatrix type="matrix" values="0 0 0 0 0 0 0 0 0 0 0 0 0 0 0 0 0 0 0.27 0"/>
<feBlend mode="normal" in2="BackgroundImageFix" result="effect1_dropShadow_111_857"/>
<feBlend mode="normal" in="SourceGraphic" in2="effect1_dropShadow_111_857" result="shape"/>
</filter>
<filter id="filter1_d_111_857" x="-25.3804" y="-0.471924" width="80.9878" height="93.3525" filterUnits="userSpaceOnUse" color-interpolation-filters="sRGB">
<feFlood flood-opacity="0" result="BackgroundImageFix"/>
<feColorMatrix in="SourceAlpha" type="matrix" values="0 0 0 0 0 0 0 0 0 0 0 0 0 0 0 0 0 0 127 0" result="hardAlpha"/>
<feOffset dy="11"/>
<feGaussianBlur stdDeviation="11"/>
<feColorMatrix type="matrix" values="0 0 0 0 0 0 0 0 0 0 0 0 0 0 0 0 0 0 0.27 0"/>
<feBlend mode="normal" in2="BackgroundImageFix" result="effect1_dropShadow_111_857"/>
<feBlend mode="normal" in="SourceGraphic" in2="effect1_dropShadow_111_857" result="shape"/>
</filter>
<filter id="filter2_d_111_857" x="20.6626" y="57.6592" width="80.9878" height="93.3525" filterUnits="userSpaceOnUse" color-interpolation-filters="sRGB">
<feFlood flood-opacity="0" result="BackgroundImageFix"/>
<feColorMatrix in="SourceAlpha" type="matrix" values="0 0 0 0 0 0 0 0 0 0 0 0 0 0 0 0 0 0 127 0" result="hardAlpha"/>
<feOffset dy="11"/>
<feGaussianBlur stdDeviation="11"/>
<feColorMatrix type="matrix" values="0 0 0 0 0 0 0 0 0 0 0 0 0 0 0 0 0 0 0.27 0"/>
<feBlend mode="normal" in2="BackgroundImageFix" result="effect1_dropShadow_111_857"/>
<feBlend mode="normal" in="SourceGraphic" in2="effect1_dropShadow_111_857" result="shape"/>
</filter>
<filter id="filter3_d_111_857" x="20.6626" y="-0.471924" width="80.9878" height="93.3525" filterUnits="userSpaceOnUse" color-interpolation-filters="sRGB">
<feFlood flood-opacity="0" result="BackgroundImageFix"/>
<feColorMatrix in="SourceAlpha" type="matrix" values="0 0 0 0 0 0 0 0 0 0 0 0 0 0 0 0 0 0 127 0" result="hardAlpha"/>
<feOffset dy="11"/>
<feGaussianBlur stdDeviation="11"/>
<feColorMatrix type="matrix" values="0 0 0 0 0 0 0 0 0 0 0 0 0 0 0 0 0 0 0.27 0"/>
<feBlend mode="normal" in2="BackgroundImageFix" result="effect1_dropShadow_111_857"/>
<feBlend mode="normal" in="SourceGraphic" in2="effect1_dropShadow_111_857" result="shape"/>
</filter>
<filter id="filter4_d_111_857" x="65.7915" y="-0.471924" width="80.9878" height="93.3525" filterUnits="userSpaceOnUse" color-interpolation-filters="sRGB">
<feFlood flood-opacity="0" result="BackgroundImageFix"/>
<feColorMatrix in="SourceAlpha" type="matrix" values="0 0 0 0 0 0 0 0 0 0 0 0 0 0 0 0 0 0 127 0" result="hardAlpha"/>
<feOffset dy="11"/>
<feGaussianBlur stdDeviation="11"/>
<feColorMatrix type="matrix" values="0 0 0 0 0 0 0 0 0 0 0 0 0 0 0 0 0 0 0.27 0"/>
<feBlend mode="normal" in2="BackgroundImageFix" result="effect1_dropShadow_111_857"/>
<feBlend mode="normal" in="SourceGraphic" in2="effect1_dropShadow_111_857" result="shape"/>
</filter>
<linearGradient id="paint0_linear_111_857" x1="96.798" y1="81.4726" x2="120.173" y2="112.142" gradientUnits="userSpaceOnUse">
<stop stop-color="#E3EAF7"/>
<stop offset="1" stop-color="#ADB6C8"/>
</linearGradient>
</defs>
</svg>
