<svg width="163" height="147" viewBox="0 0 163 147" fill="none" xmlns="http://www.w3.org/2000/svg">
<path d="M84.1117 129.13C116.007 129.13 141.863 103.255 141.863 71.3373C141.863 39.4192 116.007 13.5444 84.1117 13.5444C52.2165 13.5444 26.3604 39.4192 26.3604 71.3373C26.3604 103.255 52.2165 129.13 84.1117 129.13Z" fill="#2A2E37"/>
<path d="M86.2256 71.3374L125.65 23.8486" stroke="#5C6479" stroke-width="3" stroke-dasharray="4 4"/>
<path d="M86.225 71.3375L64.7207 16.6807" stroke="#5C6479" stroke-width="3" stroke-dasharray="4 4"/>
<path d="M86.2254 71.3375L20.8164 68.6494" stroke="#5C6479" stroke-width="3" stroke-dasharray="4 4"/>
<path d="M86.2256 71.3374L61.1372 128.682" stroke="#5C6479" stroke-width="3" stroke-dasharray="4 4"/>
<path d="M86.2256 71.3374L142.674 103.594" stroke="#5C6479" stroke-width="3" stroke-dasharray="4 4"/>
<path d="M80.0824 17.0945C80.0824 21.4313 78.3505 25.2863 75.6563 28.1775C75.4639 28.4666 75.1752 28.6594 74.8866 28.8521C72 31.5506 68.1513 33.1889 63.9176 33.1889C60.55 33.1889 57.3748 32.1288 54.7769 30.2977C54.0071 29.8158 53.3336 29.1412 52.6601 28.563C49.6773 25.6718 47.8491 21.624 47.8491 17.0945C47.8491 8.22805 55.0655 1 63.9176 1C72.866 1 80.0824 8.22805 80.0824 17.0945Z" fill="#5C6479"/>
<path d="M80.0824 17.0938C80.0824 21.8161 78.0618 25.9602 74.8866 28.9478C72 31.6463 68.1513 33.2846 63.9176 33.2846C60.55 33.2846 57.3748 32.2245 54.7769 30.3934C50.5432 27.5022 47.8491 22.6835 47.8491 17.1902C47.8491 8.32376 55.0655 1.0957 63.9176 1.0957C72.7698 1.0957 80.0824 8.22738 80.0824 17.0938Z" fill="#5C6479"/>
<path fill-rule="evenodd" clip-rule="evenodd" d="M63.9174 2.0957C55.618 2.0957 48.8482 8.8752 48.8482 17.1902C48.8482 22.3459 51.3732 26.8585 55.3399 29.5674L55.346 29.5716L55.3521 29.5759C57.7855 31.291 60.7605 32.2846 63.9174 32.2846C67.8868 32.2846 71.494 30.7502 74.2032 28.218C77.1939 25.4034 79.0829 21.5169 79.0829 17.0938C79.0829 8.79435 72.2324 2.0957 63.9174 2.0957ZM46.8496 17.1902C46.8496 7.77231 54.5126 0.0957031 63.9174 0.0957031C73.3066 0.0957031 81.0814 7.66042 81.0814 17.0938C81.0814 22.1147 78.9298 26.5159 75.5709 29.6764L75.5685 29.6786C72.5046 32.5428 68.4148 34.2846 63.9174 34.2846C60.3416 34.2846 56.9685 33.1597 54.2073 31.2152C49.7102 28.1413 46.8496 23.0184 46.8496 17.1902Z" fill="#5C6479"/>
<path d="M75.6564 28.1776C75.464 28.4667 75.1753 28.6595 74.8867 28.8522C72.0001 31.5507 68.1514 33.189 63.9177 33.189C60.5501 33.189 57.3749 32.1289 54.777 30.2978C54.0072 29.8159 53.3337 29.1413 52.6602 28.5631C53.045 28.0812 53.6223 27.7921 54.8732 27.3102L55.3543 27.1175C56.3165 26.732 57.6635 26.2501 59.3955 25.4791C59.6841 25.3827 59.8766 25.19 60.069 24.9972C60.1652 24.9009 60.2614 24.8045 60.2614 24.6117C60.3577 24.419 60.4539 24.1299 60.4539 23.9371V20.6604C60.3576 20.564 60.3577 20.564 60.2614 20.4677C59.9728 20.0822 59.7803 19.6003 59.7803 19.022L59.5879 18.9257C58.7219 19.1184 58.8182 18.251 58.6257 16.5163C58.5295 15.8417 58.6257 15.6489 59.0106 15.5526L59.2992 15.1671C58.7219 13.8178 58.4333 12.565 58.4333 11.6012C58.4333 9.96288 59.1068 8.90276 60.069 8.42089C59.4917 7.2644 59.4917 6.87891 59.4917 6.87891C59.4917 6.87891 62.8593 7.45715 64.014 7.2644C65.4572 6.97528 67.7665 7.36078 68.6325 9.28826C70.0757 9.8665 70.5568 10.7339 70.7493 11.6976C70.9417 13.2396 70.0757 14.878 69.8833 15.5526V15.6489C70.0757 15.7453 70.172 15.9381 70.0757 16.6127C69.8833 18.251 69.8833 19.2148 69.1135 19.022L68.3438 20.3713C68.3438 20.564 68.3438 20.564 68.2476 20.6604C68.2476 20.9495 68.2476 21.4314 68.2476 24.0335C68.2476 24.3226 68.3438 24.7081 68.5362 24.9009C68.6325 24.9972 68.6325 25.0936 68.7287 25.0936C68.9211 25.2864 69.1136 25.4791 69.306 25.4791C71.2304 26.2501 72.5774 26.8283 73.6358 27.2138C74.598 27.5993 75.2715 27.8885 75.6564 28.1776Z" fill="#C6CDDF"/>
<path d="M75.6564 28.1774C75.464 28.4665 75.1753 28.6593 74.8867 28.852C72.0001 31.5505 68.1514 33.1889 63.9177 33.1889C60.5501 33.1889 57.3749 32.1288 54.777 30.2976C54.0072 29.8158 53.3337 29.1412 52.6602 28.5629C53.045 28.081 53.6223 27.7919 54.8732 27.31L55.3543 27.1173C56.3165 26.7318 57.6635 26.2499 59.3955 25.4789C59.6841 25.3826 59.8766 25.1898 60.069 24.9971C61.0312 26.3463 62.5707 27.2137 64.3988 27.2137C66.1308 27.2137 67.6703 26.3463 68.6325 25.0934C68.8249 25.2862 69.0173 25.4789 69.2098 25.4789C71.1341 26.2499 72.4812 26.8282 73.5396 27.2137C74.598 27.5992 75.2715 27.8883 75.6564 28.1774Z" fill="#474E61"/>
<path d="M69.7872 15.4562C69.8834 15.0707 69.6909 14.4925 69.4985 14.2033C69.4985 14.107 69.4023 14.107 69.4023 14.0106C68.7288 12.6614 67.2855 12.1795 65.9384 12.0831C62.3783 11.8904 62.0897 12.565 61.0313 11.6012C61.4161 12.0831 61.4161 12.9505 60.8388 13.9142C60.4539 14.5888 59.7804 14.9743 59.1069 15.1671C57.4712 11.5049 58.3371 9.19188 59.8766 8.42089C59.2993 7.2644 59.2993 6.87891 59.2993 6.87891C59.2993 6.87891 62.667 7.45715 63.8216 7.2644C65.2649 6.97528 67.5741 7.36078 68.4401 9.28826C69.8834 9.8665 70.3645 10.7339 70.5569 11.6976C70.8456 13.1432 69.9796 14.7816 69.7872 15.4562Z" fill="#474E61"/>
<path d="M60.5494 23.9371V20.6604C60.4532 20.564 60.4532 20.564 60.3569 20.4676V20.2749C60.5494 20.564 60.7418 20.8531 61.0305 21.0459L63.6284 22.877C64.2057 23.3589 65.0716 23.3589 65.649 22.877L68.0544 20.7568C68.1506 20.6604 68.2469 20.6604 68.3431 20.564C68.3431 20.8531 68.3431 21.335 68.3431 23.9371C68.3431 24.1299 68.3431 24.2262 68.4393 24.419H60.5494C60.4532 24.2262 60.5494 24.1299 60.5494 23.9371Z" fill="url(#paint0_linear_111_1723)"/>
<path d="M110.48 71.7083C110.48 78.6894 107.692 84.8948 103.355 89.5488C103.045 90.0142 102.581 90.3245 102.116 90.6348C97.4693 94.9785 91.274 97.6158 84.459 97.6158C79.0381 97.6158 73.9269 95.9094 69.745 92.9618C68.5059 92.1861 67.4217 91.1002 66.3375 90.1694C61.5361 85.5153 58.5933 78.9996 58.5933 71.7083C58.5933 57.4359 70.2096 45.8008 84.459 45.8008C98.8633 45.8008 110.48 57.4359 110.48 71.7083Z" fill="#5C6479"/>
<path d="M110.48 71.707C110.48 79.3086 107.228 85.9794 102.116 90.7886C97.4698 95.1324 91.2744 97.7696 84.4595 97.7696C79.0385 97.7696 73.9274 96.0632 69.7455 93.1156C62.9305 88.4616 58.5938 80.7048 58.5938 71.8621C58.5938 57.5897 70.2101 45.9546 84.4595 45.9546C98.7089 45.9546 110.48 57.4346 110.48 71.707Z" fill="#5C6479"/>
<path fill-rule="evenodd" clip-rule="evenodd" d="M84.4593 46.9546C70.7626 46.9546 59.5928 58.1411 59.5928 71.8621C59.5928 80.3672 63.7605 87.8178 70.3085 92.2896L70.3146 92.2938L70.3207 92.298C74.3381 95.1297 79.2491 96.7696 84.4593 96.7696C91.0096 96.7696 96.963 94.2366 101.432 90.0596C106.359 85.4233 109.481 79.0098 109.481 71.707C109.481 58.0015 98.1716 46.9546 84.4593 46.9546ZM57.5942 71.8621C57.5942 57.0383 69.6572 44.9546 84.4593 44.9546C99.2458 44.9546 111.479 56.8676 111.479 71.707C111.479 79.6072 108.096 86.5351 102.801 91.5171L102.798 91.5193C97.9745 96.0288 91.5379 98.7696 84.4593 98.7696C78.8302 98.7696 73.5212 96.9983 69.176 93.9375C62.0976 89.1007 57.5942 81.0398 57.5942 71.8621Z" fill="#5C6479"/>
<path d="M103.357 89.549C103.047 90.0144 102.582 90.3247 102.118 90.6349C97.4712 94.9787 91.2758 97.616 84.4609 97.616C79.0399 97.616 73.9287 95.9095 69.7468 92.9619C68.5077 92.1863 67.4235 91.1003 66.3394 90.1695C66.9589 89.3938 67.8882 88.9284 69.9017 88.1528L70.6761 87.8425C72.225 87.222 74.3934 86.4463 77.1813 85.2052C77.6459 85.0501 77.9557 84.7398 78.2655 84.4295C78.4204 84.2744 78.5753 84.1193 78.5753 83.809C78.7301 83.4987 78.885 83.0333 78.885 82.723V77.4485C78.7301 77.2933 78.7301 77.2933 78.5753 77.1382C78.1106 76.5176 77.8008 75.742 77.8008 74.8112L77.4911 74.656C76.0971 74.9663 76.252 73.5701 75.9422 70.7777C75.7873 69.6917 75.9422 69.3814 76.5617 69.2263L77.0264 68.6058C76.0971 66.4339 75.6324 64.4171 75.6324 62.8658C75.6324 60.2285 76.7166 58.522 78.2655 57.7463C77.3362 55.8847 77.3362 55.2642 77.3362 55.2642C77.3362 55.2642 82.7571 56.195 84.6158 55.8847C86.939 55.4193 90.6563 56.0398 92.0502 59.1425C94.3735 60.0733 95.1479 61.4696 95.4577 63.0209C95.7675 65.5031 94.3735 68.1404 94.0637 69.2263V69.3814C94.3735 69.5366 94.5284 69.8468 94.3735 70.9328C94.0637 73.5701 94.0637 75.1214 92.8246 74.8112L91.5856 76.983C91.5856 77.2933 91.5856 77.2933 91.4307 77.4485C91.4307 77.9139 91.4307 78.6895 91.4307 82.8782C91.4307 83.3436 91.5856 83.9641 91.8953 84.2744C92.0502 84.4295 92.0502 84.5847 92.2051 84.5847C92.5149 84.8949 92.8247 85.2052 93.1344 85.2052C96.2321 86.4463 98.4005 87.3771 100.104 87.9976C101.653 88.6182 102.737 89.0836 103.357 89.549Z" fill="#C6CDDF"/>
<path d="M103.355 89.5486C103.046 90.014 102.581 90.3243 102.116 90.6346C97.4697 94.9784 91.2743 97.6157 84.4594 97.6157C79.0384 97.6157 73.9273 95.9092 69.7454 92.9616C68.5063 92.1859 67.4221 91.1 66.3379 90.1692C66.9574 89.3935 67.8867 88.9281 69.9002 88.1524L70.6747 87.8422C72.2235 87.2216 74.3919 86.446 77.1798 85.2049C77.6445 85.0497 77.9543 84.7395 78.264 84.4292C79.8129 86.6011 82.291 87.9973 85.2338 87.9973C88.0218 87.9973 90.4999 86.6011 92.0488 84.5843C92.3585 84.8946 92.6683 85.2049 92.9781 85.2049C96.0758 86.446 98.2442 87.3768 99.9479 87.9973C101.652 88.6178 102.736 89.0832 103.355 89.5486Z" fill="#474E61"/>
<path d="M94.2264 69.0712C94.384 68.4506 94.0689 67.5198 93.7538 67.0544C93.7538 66.8993 93.5963 66.8993 93.5963 66.7441C92.4935 64.5723 90.1305 63.7966 87.925 63.6414C82.0961 63.3312 81.6235 64.4171 79.8906 62.8658C80.5207 63.6414 80.5207 65.0377 79.5755 66.589C78.9453 67.675 77.8426 68.2955 76.7398 68.6058C74.0617 62.7106 75.4795 58.9874 78.0001 57.7463C77.0549 55.8847 77.0549 55.2642 77.0549 55.2642C77.0549 55.2642 82.5687 56.195 84.4591 55.8847C86.8222 55.4193 90.6031 56.0398 92.0209 59.1425C94.384 60.0733 95.1717 61.4696 95.4867 63.0209C95.9593 65.3479 94.5415 67.9852 94.2264 69.0712Z" fill="#474E61"/>
<path d="M79.0383 82.7228V77.4482C78.8834 77.293 78.8834 77.293 78.7285 77.1379V76.8276C79.0383 77.293 79.3481 77.7584 79.8127 78.0687L83.9946 81.0163C84.9239 81.7919 86.3179 81.7919 87.2472 81.0163L91.1193 77.6033C91.2742 77.4482 91.4291 77.4482 91.584 77.293C91.584 77.7584 91.584 78.5341 91.584 82.7228C91.584 83.033 91.584 83.1882 91.7388 83.4984H79.0383C78.8834 83.1882 79.0383 83.033 79.0383 82.7228Z" fill="url(#paint1_linear_111_1723)"/>
<path d="M134.7 23.827C134.7 26.5978 133.593 29.0607 131.872 30.9078C131.749 31.0926 131.565 31.2157 131.38 31.3389C129.536 33.0629 127.077 34.1096 124.372 34.1096C122.221 34.1096 120.192 33.4323 118.533 32.2624C118.041 31.9546 117.61 31.5236 117.18 31.1541C115.274 29.307 114.106 26.7209 114.106 23.827C114.106 18.1624 118.717 13.5444 124.372 13.5444C130.089 13.5444 134.7 18.1624 134.7 23.827Z" fill="#5C6479"/>
<path d="M134.7 23.8265C134.7 26.8435 133.409 29.4911 131.381 31.3999C129.537 33.1239 127.078 34.1707 124.373 34.1707C122.221 34.1707 120.193 33.4934 118.533 32.3235C115.828 30.4763 114.107 27.3977 114.107 23.8881C114.107 18.2234 118.717 13.6055 124.373 13.6055C130.028 13.6055 134.7 18.1618 134.7 23.8265Z" fill="#5C6479"/>
<path fill-rule="evenodd" clip-rule="evenodd" d="M124.373 14.6055C119.27 14.6055 115.106 18.7748 115.106 23.8881C115.106 27.0601 116.658 29.8326 119.096 31.4975L119.102 31.5017L119.108 31.5059C120.603 32.5599 122.432 33.1707 124.373 33.1707C126.813 33.1707 129.03 32.2279 130.697 30.6703C132.541 28.9345 133.701 26.5444 133.701 23.8265C133.701 18.7288 129.491 14.6055 124.373 14.6055ZM113.107 23.8881C113.107 17.672 118.164 12.6055 124.373 12.6055C130.565 12.6055 135.699 17.5949 135.699 23.8265C135.699 27.1421 134.277 30.0468 132.065 32.1284L132.063 32.1306C130.041 34.0204 127.341 35.1707 124.373 35.1707C122.013 35.1707 119.787 34.4285 117.963 33.1453C114.995 31.1154 113.107 27.7326 113.107 23.8881Z" fill="#5C6479"/>
<path d="M131.873 30.9078C131.75 31.0925 131.566 31.2157 131.381 31.3388C129.537 33.0628 127.078 34.1096 124.374 34.1096C122.222 34.1096 120.193 33.4323 118.534 32.2624C118.042 31.9545 117.611 31.5235 117.181 31.1541C117.427 30.8462 117.796 30.6615 118.595 30.3536L118.902 30.2305C119.517 29.9842 120.378 29.6763 121.484 29.1838C121.669 29.1222 121.792 28.9991 121.915 28.8759C121.976 28.8143 122.038 28.7528 122.038 28.6296C122.099 28.5065 122.16 28.3218 122.16 28.1986V26.1051C122.099 26.0436 122.099 26.0436 122.038 25.982C121.853 25.7357 121.73 25.4278 121.73 25.0584L121.607 24.9968C121.054 25.12 121.115 24.5658 120.992 23.4575C120.931 23.0265 120.992 22.9034 121.238 22.8418L121.423 22.5955C121.054 21.7335 120.87 20.9331 120.87 20.3173C120.87 19.2706 121.3 18.5933 121.915 18.2855C121.546 17.5466 121.546 17.3003 121.546 17.3003C121.546 17.3003 123.697 17.6697 124.435 17.5466C125.357 17.3619 126.832 17.6082 127.386 18.8396C128.308 19.209 128.615 19.7632 128.738 20.3789C128.861 21.3641 128.308 22.4108 128.185 22.8418V22.9034C128.308 22.965 128.369 23.0881 128.308 23.5191C128.185 24.5658 128.185 25.1816 127.693 25.0584L127.201 25.9204C127.201 26.0436 127.201 26.0436 127.14 26.1051C127.14 26.2899 127.14 26.5977 127.14 28.2602C127.14 28.4449 127.201 28.6912 127.324 28.8143C127.386 28.8759 127.386 28.9375 127.447 28.9375C127.57 29.0606 127.693 29.1838 127.816 29.1838C129.045 29.6763 129.906 30.0458 130.582 30.2921C131.197 30.5384 131.627 30.7231 131.873 30.9078Z" fill="#C6CDDF"/>
<path d="M131.873 30.9079C131.75 31.0926 131.565 31.2157 131.381 31.3389C129.537 33.0629 127.078 34.1096 124.373 34.1096C122.221 34.1096 120.193 33.4323 118.533 32.2625C118.041 31.9546 117.611 31.5236 117.181 31.1542C117.427 30.8463 117.795 30.6616 118.595 30.3537L118.902 30.2306C119.517 29.9843 120.377 29.6764 121.484 29.1838C121.668 29.1223 121.791 28.9991 121.914 28.876C122.529 29.738 123.512 30.2921 124.68 30.2921C125.787 30.2921 126.77 29.738 127.385 28.9375C127.508 29.0607 127.631 29.1838 127.754 29.1838C128.984 29.6764 129.844 30.0458 130.52 30.2921C131.197 30.5384 131.627 30.7231 131.873 30.9079Z" fill="#474E61"/>
<path d="M128.123 22.7802C128.184 22.5339 128.061 22.1645 127.938 21.9798C127.938 21.9182 127.877 21.9182 127.877 21.8567C127.447 20.9946 126.525 20.6868 125.664 20.6252C123.389 20.5021 123.205 20.9331 122.529 20.3173C122.775 20.6252 122.775 21.1794 122.406 21.7951C122.16 22.2261 121.73 22.4724 121.299 22.5955C120.254 20.2558 120.808 18.778 121.791 18.2855C121.422 17.5466 121.422 17.3003 121.422 17.3003C121.422 17.3003 123.574 17.6697 124.312 17.5466C125.234 17.3619 126.709 17.6082 127.262 18.8396C128.184 19.209 128.492 19.7632 128.615 20.3789C128.799 21.3025 128.246 22.3492 128.123 22.7802Z" fill="#474E61"/>
<path d="M122.221 28.1986V26.1052C122.16 26.0436 122.16 26.0436 122.098 25.982V25.8589C122.221 26.0436 122.344 26.2283 122.528 26.3515L124.188 27.5213C124.557 27.8292 125.11 27.8292 125.479 27.5213L127.016 26.1667C127.077 26.1052 127.139 26.1052 127.2 26.0436C127.2 26.2283 127.2 26.5362 127.2 28.1986C127.2 28.3218 127.2 28.3834 127.262 28.5065H122.221C122.16 28.3834 122.221 28.3218 122.221 28.1986Z" fill="url(#paint2_linear_111_1723)"/>
<path d="M38.1926 68.6496C38.1926 73.9785 35.9286 78.7405 32.3063 82.1419C31.2875 83.049 30.2687 83.8427 29.0236 84.5229C26.3068 86.1103 23.1373 87.0173 19.7413 87.0173C16.3454 87.0173 13.1758 86.1103 10.4591 84.5229C10.0063 84.2962 9.6667 84.0694 9.2139 83.7293C4.45958 80.4412 1.29004 74.8856 1.29004 68.6496C1.29004 58.4453 9.5535 50.2819 19.6281 50.2819C29.9292 50.1685 38.1926 58.4453 38.1926 68.6496Z" fill="#5C6479"/>
<path fill-rule="evenodd" clip-rule="evenodd" d="M37.1931 68.6496C37.1931 58.9987 29.3805 51.1746 19.6389 51.2819L19.6279 51.282V51.2819C10.102 51.2819 2.28909 59.0008 2.28909 68.6496C2.28909 74.5414 5.28431 79.7962 9.7818 82.9066L9.79792 82.9178L9.81359 82.9295C10.2393 83.2493 10.5261 83.4384 10.9061 83.6287L10.9349 83.6431L10.9627 83.6594C13.5292 85.1589 16.5253 86.0173 19.7411 86.0173C22.9569 86.0173 25.953 85.1589 28.5195 83.6594L28.5319 83.6521L28.5445 83.6452C29.6958 83.0162 30.6491 82.278 31.6319 81.4037C35.0598 78.1803 37.1931 73.681 37.1931 68.6496ZM19.6224 49.2819C30.4803 49.1654 39.1917 57.8938 39.1917 68.6496C39.1917 74.2714 36.8011 79.2924 32.9899 82.8712L32.9802 82.8802L32.9703 82.8891C31.9224 83.822 30.8442 84.6659 29.5148 85.3938C26.6506 87.0644 23.312 88.0173 19.7411 88.0173C16.1764 88.0173 12.8432 87.0677 9.98236 85.4025C9.47705 85.1469 9.09328 84.8886 8.62944 84.5408C3.62723 81.0737 0.290527 75.2226 0.290527 68.6496C0.290527 57.8917 9.00155 49.2849 19.6224 49.2819Z" fill="#5C6479"/>
<path d="M16.0067 72.7308C16.2331 72.9576 16.4594 73.2977 16.799 73.5245C17.0254 73.7513 17.2518 73.8646 17.4782 74.0914C17.5914 74.2048 17.8178 74.3182 17.931 74.4315C17.931 74.4315 18.0442 74.4315 18.0442 74.5449L18.1574 74.6583V76.2456C18.1574 76.2456 18.1574 76.2456 18.0442 76.1323C17.931 76.0189 17.7046 75.9055 17.5914 75.7921C17.365 75.6787 17.1386 75.452 16.9122 75.3386C16.799 75.3386 16.799 75.2252 16.6858 75.2252C15.8935 74.7717 15.2143 74.3182 15.2143 73.7513C15.3275 73.5245 15.5539 73.1844 16.0067 72.7308ZM31.7535 81.5007C31.0743 80.0267 30.1564 78.6266 28.5716 77.833C27.7793 77.4928 26.8737 77.1527 25.9681 77.1527C25.7417 77.1527 25.4021 77.1527 25.1757 77.1527C25.0625 77.1527 24.9493 77.1527 24.8361 77.1527C23.5909 77.0393 23.4777 76.8125 23.4777 76.8125V74.2048C24.2701 73.5245 25.0625 72.7308 25.7417 71.9372C26.3077 71.1435 26.7605 70.2365 26.9869 69.1027C28.0057 68.8759 28.6848 67.9688 28.5716 66.835C28.5716 66.3815 28.232 65.928 28.232 65.4745C28.232 65.2477 28.232 65.0209 28.232 64.7942C28.232 64.6808 28.232 64.454 28.232 64.3406C28.232 64.2273 28.232 64.0005 28.232 63.8871C28.1189 63.0935 27.8925 62.2998 27.4397 61.3927C26.0813 58.8984 23.5909 57.311 20.6478 57.311C20.0818 57.311 19.5158 57.4244 18.9498 57.5378C17.931 57.7646 16.9122 58.2181 16.1199 58.8984C16.0067 59.0118 15.7803 59.1251 15.6671 59.3519L15.5539 59.4653C14.6483 60.3723 13.8559 61.3927 13.5163 62.6399C13.0635 63.8871 13.0635 65.1343 13.1767 66.3815C13.1767 66.3815 13.1767 66.3815 13.1767 66.4949V66.6083C13.1767 66.835 13.2899 66.835 13.1767 66.9484C13.1767 67.0618 13.0635 67.0618 13.0635 67.1752C12.8371 67.5153 12.7239 67.9688 12.9503 68.6491C13.4031 69.7829 14.0823 69.6696 14.8747 70.2365C14.8747 70.2365 14.7615 70.2365 14.7615 70.3498L13.9691 70.5766C10.3468 71.7104 9.10157 74.7717 10.6863 76.6992C11.2523 77.3795 12.1579 77.9464 13.5163 78.2865C13.1767 78.2865 12.8371 78.5133 12.6107 78.74C11.0259 79.9872 10.0072 81.9147 9.78076 83.7288C9.78076 83.8422 9.78076 83.9555 9.78076 84.0689C10.2336 84.2957 10.5731 84.6358 11.0259 84.8626L28.7517 84.4479C29.8837 83.7676 30.3845 83.2424 31.4033 82.3354C31.2901 81.7685 31.8667 81.614 31.7535 81.5007Z" fill="#C6CDDF"/>
<path d="M32.3068 82.1418C31.288 83.0489 30.2692 83.8425 29.024 84.5228C26.3073 86.1101 23.1377 87.0172 19.7418 87.0172C16.3458 87.0172 13.1763 86.1101 10.4595 84.5228C10.0067 84.296 9.66715 84.0693 9.21436 83.7291C9.21436 83.6158 9.21436 83.5024 9.21436 83.389C9.44075 81.5749 10.4595 79.6474 12.0443 78.4002C12.2707 78.1735 12.6103 78.0601 12.9499 77.9467C11.5915 77.7199 10.6859 77.153 10.1199 76.3594H14.4215C15.6666 78.0601 17.591 79.0805 19.855 79.0805C21.7793 79.0805 23.4773 78.2869 24.7225 77.0397C24.8357 77.0397 24.9489 77.0397 25.0621 77.0397C25.2885 77.0397 25.5149 77.0397 25.8545 77.0397C26.7601 77.0397 27.6656 77.2664 28.458 77.72C30.0428 78.5136 31.1748 79.8742 31.9672 81.4615C32.1936 81.6883 32.1936 81.915 32.3068 82.1418Z" fill="#474E61"/>
<path d="M23.5905 74.2051V76.5861L16.459 76.8128L16.7986 75.2255C16.9118 75.2255 16.9118 75.3389 17.025 75.3389C17.2514 75.4523 17.4778 75.679 17.7042 75.7924C17.8174 75.9058 17.9306 76.0192 18.157 76.1325C18.157 76.1325 18.2702 76.1325 18.2702 76.2459V74.6586L18.157 74.5452C19.4021 75.2255 21.1001 75.679 23.5905 74.2051Z" fill="url(#paint3_linear_111_1723)"/>
<path d="M28.2313 64.3409C26.873 64.7945 25.2882 65.0212 23.8166 64.9079C21.4395 64.6811 19.1755 63.774 17.3643 62.1867C16.7983 63.8874 15.3268 65.1346 13.6288 65.9283C13.4024 66.0417 13.176 66.155 12.9496 66.155C12.9496 66.155 12.9496 66.155 12.9496 66.0417C12.8364 64.7945 12.8364 63.5473 13.2892 62.3001C13.6288 61.0529 14.4212 60.0325 15.3268 59.1254L15.44 59.0121C15.5532 58.8987 15.7796 58.7853 15.8928 58.5585C16.6851 57.8782 17.7039 57.4247 18.7227 57.198C19.2887 57.0846 19.8547 56.9712 20.4207 56.9712C23.3638 56.9712 25.9674 58.5585 27.2126 61.0529C27.6654 61.9599 27.8918 62.867 28.0049 63.5473C28.2313 64.0008 28.2313 64.2276 28.2313 64.3409Z" fill="#474E61"/>
<path d="M19.1755 81.1216C18.4963 81.9152 17.3644 81.9152 16.3456 81.9152C17.3644 80.8948 16.7984 77.6068 13.176 77.9469C8.19531 77.0399 8.64811 71.8244 13.6288 70.237L14.4212 70.0103L14.5344 70.1236C14.874 71.1441 15.44 72.0511 16.006 72.7314C13.9684 74.4321 16.7984 74.8856 18.1567 76.2462C19.2887 76.9265 20.3075 79.761 19.1755 81.1216Z" fill="#474E61"/>
<path d="M73.8148 131.294C73.8148 135.56 72.0021 139.373 69.1017 142.097C68.286 142.823 67.4703 143.458 66.4733 144.003C64.298 145.274 61.7602 146 59.0412 146C56.3221 146 53.7843 145.274 51.6091 144.003C51.2465 143.821 50.9746 143.64 50.6121 143.368C46.8054 140.735 44.2676 136.287 44.2676 131.294C44.2676 123.123 50.884 116.587 58.9505 116.587C67.1984 116.496 73.8148 123.123 73.8148 131.294Z" fill="#5C6479"/>
<path fill-rule="evenodd" clip-rule="evenodd" d="M72.8153 131.294C72.8153 123.677 66.6497 117.502 58.9613 117.587L58.9503 117.587V117.587C51.4325 117.587 45.2666 123.679 45.2666 131.294C45.2666 135.942 47.6301 140.09 51.18 142.545L51.1961 142.556L51.2117 142.568C51.5472 142.82 51.7663 142.964 52.056 143.109L52.0848 143.123L52.1127 143.139C54.1377 144.323 56.502 145 59.0409 145C61.5799 145 63.9442 144.323 65.9692 143.139L65.9816 143.132L65.9942 143.125C66.8974 142.632 67.6476 142.052 68.4273 141.358C71.1332 138.813 72.8153 135.263 72.8153 131.294ZM58.9448 115.587C67.7495 115.493 74.8138 122.572 74.8138 131.294C74.8138 135.853 72.8745 139.925 69.7853 142.826L69.7756 142.835L69.7657 142.844C68.9209 143.596 68.0457 144.281 66.9646 144.874C64.6419 146.228 61.935 147 59.0409 147C56.153 147 53.4516 146.231 51.1322 144.882C50.7173 144.672 50.4015 144.459 50.0276 144.179C45.973 141.367 43.2681 136.624 43.2681 131.294C43.2681 122.57 50.332 115.59 58.9448 115.587Z" fill="#5C6479"/>
<path d="M56.0504 134.561C56.2317 134.743 56.4129 135.015 56.6848 135.197C56.8661 135.378 57.0474 135.469 57.2286 135.651C57.3193 135.741 57.5006 135.832 57.5912 135.923C57.5912 135.923 57.6818 135.923 57.6818 136.014L57.7725 136.104V137.375C57.7725 137.375 57.7725 137.375 57.6818 137.285C57.5912 137.194 57.4099 137.103 57.3193 137.012C57.138 136.922 56.9567 136.74 56.7755 136.649C56.6848 136.649 56.6848 136.558 56.5942 136.558C55.9597 136.195 55.4159 135.832 55.4159 135.378C55.5066 135.197 55.6878 134.924 56.0504 134.561ZM68.6586 141.583C68.1148 140.403 67.3798 139.282 66.1109 138.646C65.4765 138.374 64.7514 138.102 64.0263 138.102C63.845 138.102 63.5731 138.102 63.3919 138.102C63.3012 138.102 63.2106 138.102 63.12 138.102C62.123 138.011 62.0323 137.829 62.0323 137.829V135.741C62.6668 135.197 63.3012 134.561 63.845 133.926C64.2982 133.29 64.6608 132.564 64.842 131.656C65.6578 131.475 66.2016 130.748 66.1109 129.841C66.1109 129.477 65.839 129.114 65.839 128.751C65.839 128.57 65.839 128.388 65.839 128.206C65.839 128.116 65.839 127.934 65.839 127.843C65.839 127.753 65.839 127.571 65.839 127.48C65.7484 126.845 65.5671 126.209 65.2046 125.483C64.1169 123.486 62.123 122.215 59.7664 122.215C59.3133 122.215 58.8601 122.306 58.4069 122.396C57.5912 122.578 56.7755 122.941 56.141 123.486C56.0504 123.577 55.8691 123.667 55.7785 123.849L55.6878 123.94C54.9628 124.666 54.3283 125.483 54.0564 126.482C53.6939 127.48 53.6939 128.479 53.7845 129.477C53.7845 129.477 53.7845 129.477 53.7845 129.568V129.659C53.7845 129.841 53.8751 129.841 53.7845 129.931C53.7845 130.022 53.6939 130.022 53.6939 130.113C53.5126 130.385 53.422 130.748 53.6032 131.293C53.9658 132.201 54.5096 132.11 55.144 132.564C55.144 132.564 55.0534 132.564 55.0534 132.655L54.4189 132.836C51.5186 133.744 50.5216 136.195 51.7905 137.739C52.2437 138.283 52.9688 138.737 54.0564 139.01C53.7845 139.01 53.5126 139.191 53.3313 139.373C52.0624 140.371 51.2467 141.915 51.0654 143.367C51.0654 143.458 51.0654 143.549 51.0654 143.639C51.428 143.821 51.6999 144.093 52.0624 144.275L66.2551 143.943C67.1615 143.398 67.5625 142.978 68.3782 142.251C68.2876 141.797 68.7492 141.674 68.6586 141.583Z" fill="#C6CDDF"/>
<path d="M69.102 142.096C68.2862 142.822 67.4705 143.458 66.4735 144.003C64.2983 145.274 61.7605 146 59.0414 146C56.3223 146 53.7845 145.274 51.6093 144.003C51.2468 143.821 50.9748 143.639 50.6123 143.367C50.6123 143.276 50.6123 143.186 50.6123 143.095C50.7936 141.642 51.6093 140.099 52.8782 139.1C53.0595 138.919 53.3314 138.828 53.6033 138.737C52.5157 138.556 51.7906 138.102 51.3374 137.466H54.7815C55.7785 138.828 57.3193 139.645 59.132 139.645C60.6729 139.645 62.0324 139.01 63.0294 138.011C63.12 138.011 63.2106 138.011 63.3013 138.011C63.4826 138.011 63.6638 138.011 63.9357 138.011C64.6608 138.011 65.3859 138.193 66.0203 138.556C67.2892 139.191 68.1956 140.281 68.83 141.551C69.0113 141.733 69.0113 141.915 69.102 142.096Z" fill="#474E61"/>
<path d="M62.1236 135.742V137.648L56.4136 137.83L56.6855 136.559C56.7761 136.559 56.7761 136.65 56.8668 136.65C57.048 136.74 57.2293 136.922 57.4106 137.013C57.5012 137.103 57.5918 137.194 57.7731 137.285C57.7731 137.285 57.8637 137.285 57.8637 137.376V136.105L57.7731 136.014C58.7701 136.559 60.1296 136.922 62.1236 135.742Z" fill="url(#paint4_linear_111_1723)"/>
<path d="M65.8394 127.844C64.7517 128.207 63.4829 128.388 62.3046 128.298C60.4012 128.116 58.5885 127.39 57.1384 126.119C56.6852 127.481 55.5069 128.479 54.1474 129.115C53.9661 129.205 53.7848 129.296 53.6036 129.296C53.6036 129.296 53.6036 129.296 53.6036 129.205C53.5129 128.207 53.5129 127.208 53.8755 126.21C54.1474 125.211 54.7818 124.394 55.5069 123.668L55.5976 123.577C55.6882 123.486 55.8695 123.395 55.9601 123.214C56.5946 122.669 57.4103 122.306 58.226 122.124C58.6792 122.034 59.1323 121.943 59.5855 121.943C61.942 121.943 64.0267 123.214 65.0237 125.211C65.3862 125.937 65.5675 126.664 65.6581 127.208C65.8394 127.571 65.8394 127.753 65.8394 127.844Z" fill="#474E61"/>
<path d="M58.5883 141.279C58.0445 141.915 57.1381 141.915 56.3224 141.915C57.1381 141.098 56.685 138.465 53.7846 138.738C49.7967 138.011 50.1592 133.835 54.1472 132.564L54.7816 132.383L54.8722 132.474C55.1442 133.291 55.5973 134.017 56.0505 134.562C54.4191 135.923 56.685 136.286 57.7726 137.376C58.6789 137.921 59.4947 140.19 58.5883 141.279Z" fill="#474E61"/>
<path d="M161.768 104.043C161.768 109.761 159.338 114.872 155.451 118.522C154.357 119.495 153.264 120.347 151.928 121.077C149.012 122.781 145.611 123.754 141.966 123.754C138.322 123.754 134.921 122.781 132.005 121.077C131.519 120.834 131.155 120.591 130.669 120.226C125.567 116.697 122.165 110.735 122.165 104.043C122.165 93.0916 131.033 84.3308 141.845 84.3308C152.9 84.2091 161.768 93.0916 161.768 104.043Z" fill="#5C6479"/>
<path fill-rule="evenodd" clip-rule="evenodd" d="M160.768 104.043C160.768 93.6449 152.351 85.2152 141.856 85.3308L141.845 85.3309V85.3308C131.582 85.3308 123.164 93.647 123.164 104.043C123.164 110.391 126.391 116.052 131.237 119.403L131.253 119.414L131.268 119.426C131.727 119.771 132.039 119.976 132.452 120.183L132.481 120.197L132.509 120.214C135.274 121.829 138.502 122.754 141.966 122.754C145.43 122.754 148.658 121.829 151.424 120.214L151.436 120.206L151.449 120.2C152.691 119.521 153.719 118.725 154.776 117.784C158.469 114.311 160.768 109.464 160.768 104.043ZM141.839 83.3308C153.451 83.206 162.767 92.5401 162.767 104.043C162.767 110.054 160.211 115.424 156.134 119.251L156.125 119.26L156.115 119.269C154.992 120.269 153.84 121.17 152.419 121.948C149.356 123.735 145.786 124.754 141.966 124.754C138.153 124.754 134.588 123.738 131.528 121.957C130.99 121.685 130.581 121.41 130.084 121.037C124.734 117.329 121.166 111.072 121.166 104.043C121.166 92.538 130.481 83.3338 141.839 83.3308Z" fill="#5C6479"/>
<path d="M137.958 108.423C138.201 108.666 138.444 109.031 138.808 109.274C139.051 109.518 139.294 109.639 139.537 109.883C139.659 110.004 139.902 110.126 140.023 110.248C140.023 110.248 140.144 110.248 140.144 110.369L140.266 110.491V112.195C140.266 112.195 140.266 112.195 140.144 112.073C140.023 111.951 139.78 111.83 139.659 111.708C139.416 111.586 139.173 111.343 138.93 111.221C138.808 111.221 138.808 111.099 138.687 111.099C137.836 110.613 137.107 110.126 137.107 109.518C137.229 109.274 137.472 108.909 137.958 108.423ZM154.857 117.834C154.128 116.252 153.143 114.75 151.442 113.898C150.592 113.533 149.62 113.168 148.648 113.168C148.405 113.168 148.041 113.168 147.798 113.168C147.676 113.168 147.555 113.168 147.433 113.168C146.097 113.046 145.976 112.803 145.976 112.803V110.004C146.826 109.274 147.676 108.423 148.405 107.571C149.013 106.719 149.498 105.746 149.741 104.529C150.835 104.286 151.564 103.312 151.442 102.095C151.442 101.609 151.078 101.122 151.078 100.635C151.078 100.392 151.078 100.149 151.078 99.9052C151.078 99.7835 151.078 99.5402 151.078 99.4185C151.078 99.2968 151.078 99.0535 151.078 98.9318C150.956 98.08 150.713 97.2283 150.227 96.2549C148.77 93.578 146.097 91.8745 142.939 91.8745C142.331 91.8745 141.724 91.9962 141.116 92.1179C140.023 92.3612 138.93 92.8479 138.079 93.578C137.958 93.6997 137.715 93.8213 137.593 94.0647L137.472 94.1864C136.5 95.1598 135.65 96.2549 135.285 97.5933C134.799 98.9318 134.799 100.27 134.921 101.609C134.921 101.609 134.921 101.609 134.921 101.73V101.852C134.921 102.095 135.042 102.095 134.921 102.217C134.921 102.339 134.799 102.339 134.799 102.46C134.556 102.825 134.435 103.312 134.678 104.042C135.164 105.259 135.893 105.137 136.743 105.746C136.743 105.746 136.622 105.746 136.622 105.867L135.771 106.111C131.884 107.327 130.547 110.613 132.248 112.681C132.856 113.411 133.827 114.02 135.285 114.385C134.921 114.385 134.556 114.628 134.313 114.871C132.613 116.21 131.519 118.278 131.276 120.225C131.276 120.347 131.276 120.469 131.276 120.59C131.762 120.834 132.127 121.199 132.613 121.442L151.635 120.997C152.85 120.267 153.388 119.703 154.481 118.73C154.36 118.122 154.978 117.956 154.857 117.834Z" fill="#C6CDDF"/>
<path d="M155.451 118.522C154.358 119.495 153.264 120.347 151.928 121.077C149.013 122.781 145.611 123.754 141.967 123.754C138.322 123.754 134.921 122.781 132.005 121.077C131.519 120.834 131.155 120.59 130.669 120.225C130.669 120.104 130.669 119.982 130.669 119.86C130.912 117.914 132.005 115.845 133.706 114.507C133.949 114.263 134.313 114.142 134.678 114.02C133.22 113.777 132.248 113.168 131.641 112.316H136.257C137.593 114.142 139.659 115.237 142.088 115.237C144.153 115.237 145.976 114.385 147.312 113.046C147.433 113.046 147.555 113.046 147.676 113.046C147.919 113.046 148.162 113.046 148.527 113.046C149.498 113.046 150.47 113.29 151.321 113.777C153.021 114.628 154.236 116.088 155.087 117.792C155.33 118.035 155.33 118.279 155.451 118.522Z" fill="#474E61"/>
<path d="M146.097 110.005V112.56L138.444 112.803L138.808 111.1C138.93 111.1 138.93 111.222 139.051 111.222C139.294 111.343 139.537 111.587 139.78 111.708C139.902 111.83 140.023 111.952 140.266 112.073C140.266 112.073 140.388 112.073 140.388 112.195V110.492L140.266 110.37C141.602 111.1 143.425 111.587 146.097 110.005Z" fill="url(#paint5_linear_111_1723)"/>
<path d="M151.077 99.4188C149.619 99.9055 147.919 100.149 146.34 100.027C143.788 99.7838 141.359 98.8104 139.415 97.1069C138.808 98.9321 137.228 100.271 135.406 101.122C135.163 101.244 134.92 101.366 134.677 101.366C134.677 101.366 134.677 101.366 134.677 101.244C134.556 99.9055 134.556 98.567 135.042 97.2286C135.406 95.8901 136.257 94.795 137.228 93.8216L137.35 93.7C137.471 93.5783 137.714 93.4566 137.836 93.2132C138.686 92.4832 139.78 91.9965 140.873 91.7531C141.48 91.6314 142.088 91.5098 142.695 91.5098C145.854 91.5098 148.648 93.2132 149.984 95.8901C150.47 96.8636 150.713 97.837 150.834 98.567C151.077 99.0537 151.077 99.2971 151.077 99.4188Z" fill="#474E61"/>
<path d="M141.359 117.427C140.63 118.279 139.415 118.279 138.322 118.279C139.415 117.184 138.808 113.655 134.92 114.02C129.575 113.047 130.061 107.45 135.406 105.746L136.256 105.503L136.378 105.625C136.742 106.72 137.35 107.693 137.957 108.423C135.771 110.248 138.808 110.735 140.265 112.195C141.48 112.925 142.573 115.967 141.359 117.427Z" fill="#474E61"/>
<defs>
<linearGradient id="paint0_linear_111_1723" x1="64.3825" y1="24.2899" x2="64.3825" y2="22.1193" gradientUnits="userSpaceOnUse">
<stop stop-color="#B0B8CD"/>
<stop offset="0.9913" stop-color="#969EB4"/>
</linearGradient>
<linearGradient id="paint1_linear_111_1723" x1="85.2085" y1="83.2907" x2="85.2085" y2="79.7965" gradientUnits="userSpaceOnUse">
<stop stop-color="#B0B8CD"/>
<stop offset="0.9913" stop-color="#969EB4"/>
</linearGradient>
<linearGradient id="paint2_linear_111_1723" x1="124.67" y1="28.424" x2="124.67" y2="27.0372" gradientUnits="userSpaceOnUse">
<stop stop-color="#B0B8CD"/>
<stop offset="0.9913" stop-color="#969EB4"/>
</linearGradient>
<linearGradient id="paint3_linear_111_1723" x1="20.0109" y1="76.7316" x2="20.0109" y2="75.3657" gradientUnits="userSpaceOnUse">
<stop stop-color="#B0B8CD"/>
<stop offset="0.9913" stop-color="#969EB4"/>
</linearGradient>
<linearGradient id="paint4_linear_111_1723" x1="59.2576" y1="137.765" x2="59.2576" y2="136.671" gradientUnits="userSpaceOnUse">
<stop stop-color="#B0B8CD"/>
<stop offset="0.9913" stop-color="#969EB4"/>
</linearGradient>
<linearGradient id="paint5_linear_111_1723" x1="142.256" y1="112.716" x2="142.256" y2="111.25" gradientUnits="userSpaceOnUse">
<stop stop-color="#B0B8CD"/>
<stop offset="0.9913" stop-color="#969EB4"/>
</linearGradient>
</defs>
</svg>
