<svg width="145" height="127" viewBox="0 0 145 127" fill="none" xmlns="http://www.w3.org/2000/svg">
<path d="M80.4273 127C112.24 127 138.03 101.191 138.03 69.2416C138.03 37.2927 112.126 11.4834 80.4273 11.4834C48.615 11.4834 22.8242 37.2927 22.8242 69.2416C22.8242 101.191 48.615 127 80.4273 127Z" fill="#2A2E37"/>
<path d="M134.281 31.3803C136.853 31.3803 138.939 29.2932 138.939 26.7187C138.939 24.1442 136.853 22.0571 134.281 22.0571C131.708 22.0571 129.623 24.1442 129.623 26.7187C129.623 29.2932 131.708 31.3803 134.281 31.3803Z" fill="#2A2E37"/>
<path d="M141.098 13.1888C142.855 13.1888 144.279 11.7635 144.279 10.0053C144.279 8.24709 142.855 6.82178 141.098 6.82178C139.341 6.82178 137.917 8.24709 137.917 10.0053C137.917 11.7635 139.341 13.1888 141.098 13.1888Z" fill="#2A2E37"/>
<path d="M25.8917 31.267C27.6486 31.267 29.0729 29.8416 29.0729 28.0834C29.0729 26.3252 27.6486 24.8999 25.8917 24.8999C24.1347 24.8999 22.7104 26.3252 22.7104 28.0834C22.7104 29.8416 24.1347 31.267 25.8917 31.267Z" fill="#2A2E37"/>
<path d="M6.46318 92.6634C9.72609 92.6634 12.3712 90.0164 12.3712 86.7511C12.3712 83.4859 9.72609 80.8389 6.46318 80.8389C3.20028 80.8389 0.555176 83.4859 0.555176 86.7511C0.555176 90.0164 3.20028 92.6634 6.46318 92.6634Z" fill="#2A2E37"/>
<mask id="mask0_121_6565" style="mask-type:alpha" maskUnits="userSpaceOnUse" x="23" y="0" width="116" height="127">
<path d="M130.615 0H32.8356V37.3678C26.8001 46.4973 23.2852 57.4514 23.2852 69.2418C23.2852 101.191 49.0944 127 80.9297 127C112.765 127 138.574 101.191 138.574 69.2418C138.574 58.5474 135.67 48.541 130.615 39.9602V0Z" fill="#D9D9D9"/>
</mask>
<g mask="url(#mask0_121_6565)">
<g filter="url(#filter0_d_121_6565)">
<path d="M125.068 33.0927L126.092 124.623C126.092 127.439 123.789 129.615 120.975 129.615H40.6467C37.8327 129.615 35.5303 127.311 35.5303 124.623V9.53999C35.5303 6.72391 37.8327 4.54785 40.6467 4.54785H98.8465L125.068 33.0927Z" fill="#5C6479"/>
</g>
<path opacity="0.7" d="M60.1411 47.8159L101.926 47.466L97.0886 86.0758L80.8277 89.5841L64.6434 86.3612L60.1411 47.8159Z" fill="#C6CDDF"/>
<path d="M99.4534 49.2845L95.0513 84.9288L81.0532 87.8987C80.7217 87.9776 80.438 87.7498 80.4447 87.4434L81.261 49.8712C81.2668 49.6031 81.4771 49.4102 81.7658 49.4082L99.4534 49.2845Z" fill="#8E96AB"/>
<path d="M93.3599 54.8874L70.0972 55.0894L71.2591 71.531L86.1033 71.4021L85.7719 76.9015L81.1091 78.0792L76.662 76.9806L76.7185 74.5541L71.5916 74.7123L71.6553 80.7011L81.0808 82.78L90.5196 80.8027L91.8208 66.8415L76.0819 66.9782L75.5628 59.5908L92.8472 59.4407L93.3599 54.8874Z" fill="#474E61"/>
<path d="M99.4009 4.54785V27.2363C99.4009 30.4229 102.191 32.9722 105.362 32.9722H125.401" fill="#474E61"/>
</g>
<defs>
<filter id="filter0_d_121_6565" x="13.5303" y="-6.45215" width="134.562" height="169.067" filterUnits="userSpaceOnUse" color-interpolation-filters="sRGB">
<feFlood flood-opacity="0" result="BackgroundImageFix"/>
<feColorMatrix in="SourceAlpha" type="matrix" values="0 0 0 0 0 0 0 0 0 0 0 0 0 0 0 0 0 0 127 0" result="hardAlpha"/>
<feOffset dy="11"/>
<feGaussianBlur stdDeviation="11"/>
<feColorMatrix type="matrix" values="0 0 0 0 0 0 0 0 0 0 0 0 0 0 0 0 0 0 0.27 0"/>
<feBlend mode="normal" in2="BackgroundImageFix" result="effect1_dropShadow_121_6565"/>
<feBlend mode="normal" in="SourceGraphic" in2="effect1_dropShadow_121_6565" result="shape"/>
</filter>
</defs>
</svg>
