<svg width="165" height="164" viewBox="0 0 165 164" fill="none" xmlns="http://www.w3.org/2000/svg">
<path d="M77.3687 125.444C110.329 125.444 137.048 98.7059 137.048 65.7222C137.048 32.7386 110.329 6 77.3687 6C44.4088 6 17.6895 32.7386 17.6895 65.7222C17.6895 98.7059 44.4088 125.444 77.3687 125.444Z" fill="#2A2E37"/>
<g filter="url(#filter0_d_111_1112)">
<path d="M131.807 30.5072V100.357C131.807 102.917 129.7 105.026 127.141 105.026H27.5966C25.0379 105.026 22.9307 102.917 22.9307 100.357V30.5072C22.9307 27.9466 25.0379 25.8379 27.5966 25.8379H127.141C129.7 25.8379 131.807 27.9466 131.807 30.5072Z" fill="#5C6479"/>
</g>
<rect x="56.8887" y="40.2593" width="69.4444" height="30.5556" rx="2" fill="#474E61"/>
<rect x="56.8887" y="76.3701" width="21.2963" height="22.2222" rx="2" fill="#474E61"/>
<rect x="81.8887" y="76.3701" width="19.4444" height="22.2222" rx="2" fill="#474E61"/>
<rect x="105.037" y="76.3701" width="21.2963" height="22.2222" rx="2" fill="#474E61"/>
<path d="M23.4814 31.9258H51.2592V105.148H27.4814C25.2723 105.148 23.4814 103.357 23.4814 101.148V31.9258Z" fill="#474E61"/>
<path d="M29.1108 43.0371H43.9257" stroke="#5C6479" stroke-width="2" stroke-miterlimit="10"/>
<path d="M29.1108 50.4443H41.1479" stroke="#5C6479" stroke-width="2" stroke-miterlimit="10"/>
<path d="M29.1108 57.8516H44.8516" stroke="#5C6479" stroke-width="2" stroke-miterlimit="10"/>
<path d="M29.1108 65.2593H35.5923" stroke="#5C6479" stroke-width="2" stroke-miterlimit="10"/>
<path d="M29.1108 72.6665H42.0738" stroke="#5C6479" stroke-width="2" stroke-miterlimit="10"/>
<path d="M29.1108 80.0742H37.4442" stroke="#5C6479" stroke-width="2" stroke-miterlimit="10"/>
<path d="M131.807 30.5072V33.8962H22.9307V30.5072C22.9307 27.9466 25.0379 25.8379 27.5966 25.8379H127.141C129.7 25.8379 131.807 27.9466 131.807 30.5072Z" fill="#393F4E"/>
<path d="M27.822 31.3355C28.6117 31.3355 29.2519 30.6948 29.2519 29.9046C29.2519 29.1143 28.6117 28.4736 27.822 28.4736C27.0323 28.4736 26.3921 29.1143 26.3921 29.9046C26.3921 30.6948 27.0323 31.3355 27.822 31.3355Z" fill="#C6CDDF"/>
<path opacity="0.6" d="M32.2619 31.3355C33.0516 31.3355 33.6918 30.6948 33.6918 29.9046C33.6918 29.1143 33.0516 28.4736 32.2619 28.4736C31.4722 28.4736 30.832 29.1143 30.832 29.9046C30.832 30.6948 31.4722 31.3355 32.2619 31.3355Z" fill="#C6CDDF"/>
<path opacity="0.4" d="M36.7776 31.3355C37.5673 31.3355 38.2074 30.6948 38.2074 29.9046C38.2074 29.1143 37.5673 28.4736 36.7776 28.4736C35.9878 28.4736 35.3477 29.1143 35.3477 29.9046C35.3477 30.6948 35.9878 31.3355 36.7776 31.3355Z" fill="#C6CDDF"/>
<g filter="url(#filter1_d_111_1112)">
<circle cx="53.185" cy="47.6665" r="18.5185" fill="#5C6479"/>
</g>
<g filter="url(#filter2_d_111_1112)">
<circle cx="65.685" cy="106.463" r="24.537" fill="#5C6479"/>
</g>
<g filter="url(#filter3_d_111_1112)">
<circle cx="107.815" cy="36.5557" r="25" fill="#5C6479"/>
</g>
<g filter="url(#filter4_d_111_1112)">
<circle cx="121.241" cy="93.5" r="21.7593" fill="#5C6479"/>
</g>
<path d="M101.159 39.4287C101.159 40.6922 100.139 41.7134 98.877 41.7134C97.6149 41.7134 96.5947 40.6922 96.5947 39.4287C96.5947 38.1652 97.6149 37.144 98.877 37.144H101.159V39.4287ZM102.301 39.4287C102.301 38.1652 103.321 37.144 104.583 37.144C105.845 37.144 106.865 38.1652 106.865 39.4287V45.1404C106.865 46.4039 105.845 47.4251 104.583 47.4251C103.321 47.4251 102.301 46.4039 102.301 45.1404V39.4287Z" fill="#C6CDDF"/>
<path d="M104.583 30.2554C103.321 30.2554 102.301 29.2342 102.301 27.9707C102.301 26.7072 103.321 25.686 104.583 25.686C105.845 25.686 106.865 26.7072 106.865 27.9707V30.2554H104.583ZM104.583 31.4151C105.845 31.4151 106.865 32.4362 106.865 33.6997C106.865 34.9632 105.845 35.9844 104.583 35.9844H98.86C97.5978 35.9844 96.5776 34.9632 96.5776 33.6997C96.5776 32.4362 97.5978 31.4151 98.86 31.4151H104.583Z" fill="#C6CDDF"/>
<path d="M113.729 33.6997C113.729 32.4362 114.749 31.4151 116.011 31.4151C117.273 31.4151 118.293 32.4362 118.293 33.6997C118.293 34.9632 117.273 35.9844 116.011 35.9844H113.729V33.6997ZM112.588 33.6997C112.588 34.9632 111.567 35.9844 110.305 35.9844C109.043 35.9844 108.023 34.9632 108.023 33.6997V27.9707C108.023 26.7072 109.043 25.686 110.305 25.686C111.567 25.686 112.588 26.7072 112.588 27.9707V33.6997Z" fill="#C6CDDF"/>
<path d="M110.305 42.8558C111.567 42.8558 112.588 43.8769 112.588 45.1404C112.588 46.4039 111.567 47.4251 110.305 47.4251C109.043 47.4251 108.023 46.4039 108.023 45.1404V42.8558H110.305ZM110.305 41.7134C109.043 41.7134 108.023 40.6922 108.023 39.4287C108.023 38.1652 109.043 37.144 110.305 37.144H116.028C117.291 37.144 118.311 38.1652 118.311 39.4287C118.311 40.6922 117.291 41.7134 116.028 41.7134H110.305Z" fill="#C6CDDF"/>
<path d="M59.2626 40.9704C58.0677 40.3829 56.8063 39.9659 55.5108 39.7302C55.3349 40.0689 55.1738 40.4233 55.0316 40.7804C54.3425 40.6686 53.6466 40.6124 52.9496 40.6121C52.2538 40.6121 51.5546 40.669 50.8673 40.779C50.727 40.4228 50.564 40.0696 50.3871 39.73C49.0932 39.9671 47.8286 40.3865 46.6343 40.9729C44.2598 44.7494 43.6163 48.4316 43.938 52.0614C45.3285 53.1655 46.8847 54.0052 48.539 54.5441C48.91 54.0057 49.2423 53.4325 49.5245 52.836C48.9862 52.6204 48.4667 52.3538 47.9721 52.0396C48.1023 51.9381 48.2295 51.8336 48.3525 51.7321C49.7906 52.4582 51.3619 52.8369 52.9517 52.8369C54.5416 52.8369 56.1129 52.4582 57.5511 51.7319C57.6755 51.8411 57.8028 51.9457 57.9315 52.0395C57.4359 52.3543 56.9155 52.6216 56.3762 52.8381C56.6593 53.4358 56.989 54.0068 57.3617 54.5448C59.0176 54.0076 60.575 53.1679 61.9658 52.0625L61.9654 52.0629C62.3429 47.8535 61.3204 44.2051 59.2626 40.9704ZM49.9314 49.8291C49.0348 49.8291 48.294 48.9543 48.294 47.8781C48.294 46.8019 49.009 45.9194 49.9286 45.9194C50.8481 45.9194 51.5831 46.8019 51.5674 47.8781C51.5517 48.9543 50.8453 49.8291 49.9314 49.8291ZM55.972 49.8291C55.0739 49.8291 54.336 48.9543 54.336 47.8781C54.336 46.8019 55.0511 45.9194 55.972 45.9194C56.893 45.9194 57.6223 46.8019 57.6066 47.8781C57.5908 48.9543 56.8858 49.8291 55.972 49.8291Z" fill="#C6CDDF"/>
<path d="M126.573 84.8873L125.5 85.9608L122.64 83.0982C121.846 82.3039 120.566 82.311 119.779 83.0982L116.919 85.9608L115.846 84.8873C115.372 84.4128 114.729 84.1463 114.058 84.1463C113.388 84.1463 112.745 84.4128 112.27 84.8873C111.796 85.3618 111.53 86.0054 111.53 86.6764C111.53 87.3475 111.796 87.991 112.27 88.4655L113.343 89.5389L110.483 92.4015C110.103 92.7811 109.89 93.2959 109.89 93.8327C109.89 94.3696 110.103 94.8844 110.483 95.264L113.2 97.9834L114.273 96.91C115.345 95.8365 117.062 95.8365 118.134 96.91C119.207 97.9834 119.207 99.7009 118.134 100.774L117.062 101.848L119.779 104.567C120.158 104.947 120.673 105.16 121.209 105.16C121.746 105.16 122.26 104.947 122.64 104.567L125.357 101.848L124.284 100.774C123.212 99.7009 123.212 97.9834 124.284 96.91C125.357 95.8365 127.073 95.8365 128.146 96.91L129.219 97.9834L131.936 95.264C132.316 94.8844 132.529 94.3696 132.529 93.8327C132.529 93.2959 132.316 92.7811 131.936 92.4015L129.076 89.5389L130.148 88.4655C130.623 87.991 130.889 87.3475 130.889 86.6764C130.889 86.0054 130.623 85.3618 130.148 84.8873C129.674 84.4128 129.031 84.1463 128.361 84.1463C127.69 84.1463 127.047 84.4128 126.573 84.8873Z" fill="#C6CDDF"/>
<path d="M55.8713 117.111L52.1489 111.04L60.1784 96.5727L64.4855 104.391L57.5918 117.111H55.8713ZM74.7978 117.111H59.0313L63.046 109.872H77.6767L78.5313 111.324L74.7978 117.111ZM61.899 93.9629H68.7813L76.8108 108.43H68.2078L60.7519 95.4153L61.899 93.9629Z" fill="#C6CDDF"/>
<defs>
<filter id="filter0_d_111_1112" x="0.930664" y="14.8379" width="152.876" height="123.188" filterUnits="userSpaceOnUse" color-interpolation-filters="sRGB">
<feFlood flood-opacity="0" result="BackgroundImageFix"/>
<feColorMatrix in="SourceAlpha" type="matrix" values="0 0 0 0 0 0 0 0 0 0 0 0 0 0 0 0 0 0 127 0" result="hardAlpha"/>
<feOffset dy="11"/>
<feGaussianBlur stdDeviation="11"/>
<feColorMatrix type="matrix" values="0 0 0 0 0 0 0 0 0 0 0 0 0 0 0 0 0 0 0.27 0"/>
<feBlend mode="normal" in2="BackgroundImageFix" result="effect1_dropShadow_111_1112"/>
<feBlend mode="normal" in="SourceGraphic" in2="effect1_dropShadow_111_1112" result="shape"/>
</filter>
<filter id="filter1_d_111_1112" x="12.6665" y="18.1479" width="81.0371" height="81.0371" filterUnits="userSpaceOnUse" color-interpolation-filters="sRGB">
<feFlood flood-opacity="0" result="BackgroundImageFix"/>
<feColorMatrix in="SourceAlpha" type="matrix" values="0 0 0 0 0 0 0 0 0 0 0 0 0 0 0 0 0 0 127 0" result="hardAlpha"/>
<feOffset dy="11"/>
<feGaussianBlur stdDeviation="11"/>
<feColorMatrix type="matrix" values="0 0 0 0 0 0 0 0 0 0 0 0 0 0 0 0 0 0 0.27 0"/>
<feBlend mode="normal" in2="BackgroundImageFix" result="effect1_dropShadow_111_1112"/>
<feBlend mode="normal" in="SourceGraphic" in2="effect1_dropShadow_111_1112" result="shape"/>
</filter>
<filter id="filter2_d_111_1112" x="19.1479" y="70.9258" width="93.0742" height="93.0742" filterUnits="userSpaceOnUse" color-interpolation-filters="sRGB">
<feFlood flood-opacity="0" result="BackgroundImageFix"/>
<feColorMatrix in="SourceAlpha" type="matrix" values="0 0 0 0 0 0 0 0 0 0 0 0 0 0 0 0 0 0 127 0" result="hardAlpha"/>
<feOffset dy="11"/>
<feGaussianBlur stdDeviation="11"/>
<feColorMatrix type="matrix" values="0 0 0 0 0 0 0 0 0 0 0 0 0 0 0 0 0 0 0.27 0"/>
<feBlend mode="normal" in2="BackgroundImageFix" result="effect1_dropShadow_111_1112"/>
<feBlend mode="normal" in="SourceGraphic" in2="effect1_dropShadow_111_1112" result="shape"/>
</filter>
<filter id="filter3_d_111_1112" x="60.8149" y="0.555664" width="94" height="94" filterUnits="userSpaceOnUse" color-interpolation-filters="sRGB">
<feFlood flood-opacity="0" result="BackgroundImageFix"/>
<feColorMatrix in="SourceAlpha" type="matrix" values="0 0 0 0 0 0 0 0 0 0 0 0 0 0 0 0 0 0 127 0" result="hardAlpha"/>
<feOffset dy="11"/>
<feGaussianBlur stdDeviation="11"/>
<feColorMatrix type="matrix" values="0 0 0 0 0 0 0 0 0 0 0 0 0 0 0 0 0 0 0.27 0"/>
<feBlend mode="normal" in2="BackgroundImageFix" result="effect1_dropShadow_111_1112"/>
<feBlend mode="normal" in="SourceGraphic" in2="effect1_dropShadow_111_1112" result="shape"/>
</filter>
<filter id="filter4_d_111_1112" x="77.4814" y="60.7407" width="87.5186" height="87.5186" filterUnits="userSpaceOnUse" color-interpolation-filters="sRGB">
<feFlood flood-opacity="0" result="BackgroundImageFix"/>
<feColorMatrix in="SourceAlpha" type="matrix" values="0 0 0 0 0 0 0 0 0 0 0 0 0 0 0 0 0 0 127 0" result="hardAlpha"/>
<feOffset dy="11"/>
<feGaussianBlur stdDeviation="11"/>
<feColorMatrix type="matrix" values="0 0 0 0 0 0 0 0 0 0 0 0 0 0 0 0 0 0 0.27 0"/>
<feBlend mode="normal" in2="BackgroundImageFix" result="effect1_dropShadow_111_1112"/>
<feBlend mode="normal" in="SourceGraphic" in2="effect1_dropShadow_111_1112" result="shape"/>
</filter>
</defs>
</svg>
