<svg width="161" height="157" viewBox="0 0 161 157" fill="none" xmlns="http://www.w3.org/2000/svg">
<path d="M86.4622 133C120.899 133 148.818 105.081 148.818 70.5212C148.818 35.9611 120.776 8.04248 86.4622 8.04248C52.0251 8.04248 24.1064 35.9611 24.1064 70.5212C24.1064 105.081 52.0251 133 86.4622 133Z" fill="#2A2E37"/>
<path d="M144.759 29.5656C147.544 29.5656 149.801 27.308 149.801 24.523C149.801 21.7381 147.544 19.4805 144.759 19.4805C141.974 19.4805 139.716 21.7381 139.716 24.523C139.716 27.308 141.974 29.5656 144.759 29.5656Z" fill="#2A2E37"/>
<path d="M152.137 9.88741C154.039 9.88741 155.581 8.34561 155.581 6.44371C155.581 4.5418 154.039 3 152.137 3C150.235 3 148.693 4.5418 148.693 6.44371C148.693 8.34561 150.235 9.88741 152.137 9.88741Z" fill="#2A2E37"/>
<path d="M27.4271 29.4431C29.329 29.4431 30.8708 27.9013 30.8708 25.9994C30.8708 24.0975 29.329 22.5557 27.4271 22.5557C25.5252 22.5557 23.9834 24.0975 23.9834 25.9994C23.9834 27.9013 25.5252 29.4431 27.4271 29.4431Z" fill="#2A2E37"/>
<path d="M6.39546 95.8573C9.92757 95.8573 12.7909 92.994 12.7909 89.4619C12.7909 85.9298 9.92757 83.0664 6.39546 83.0664C2.86334 83.0664 0 85.9298 0 89.4619C0 92.994 2.86334 95.8573 6.39546 95.8573Z" fill="#2A2E37"/>
<g filter="url(#filter0_d_111_1063)">
<path d="M128.892 39.2821L129.876 118.487C129.876 121.193 127.662 123.284 124.956 123.284H47.7189C45.0131 123.284 42.7993 121.07 42.7993 118.487V16.6521C42.7993 13.9463 45.0131 11.8555 47.7189 11.8555H103.679L128.892 39.2821Z" fill="#5C6479"/>
</g>
<path d="M92.856 28.459H55.8362C54.9752 28.459 54.2373 27.721 54.2373 26.8601C54.2373 25.9992 54.9752 25.2612 55.8362 25.2612H92.856C93.717 25.2612 94.4549 25.9992 94.4549 26.8601C94.4549 27.721 93.717 28.459 92.856 28.459Z" fill="#8E96AB"/>
<path d="M70.103 37.3144H55.8362C54.9752 37.3144 54.2373 36.5765 54.2373 35.7156C54.2373 34.8546 54.9752 34.1167 55.8362 34.1167H69.98C70.8409 34.1167 71.5788 34.8546 71.5788 35.7156C71.5788 36.5765 70.8409 37.3144 70.103 37.3144Z" fill="#8E96AB"/>
<path d="M70.103 109.27H55.8362C54.9752 109.27 54.2373 108.533 54.2373 107.672C54.2373 106.811 54.9752 106.073 55.8362 106.073H69.98C70.8409 106.073 71.5788 106.811 71.5788 107.672C71.5788 108.533 70.8409 109.27 70.103 109.27Z" fill="#8E96AB"/>
<path d="M103.679 11.855V33.7471C103.679 36.8219 106.385 39.2816 109.46 39.2816H128.892" fill="#474E61"/>
<rect x="54.8755" y="48.854" width="62.648" height="48.6156" rx="2.25" stroke="#8E96AB" stroke-width="1.5"/>
<path d="M54.627 60.6333H117.271" stroke="#8E96AB" stroke-width="1.5"/>
<path d="M54.627 73.1616H117.271" stroke="#8E96AB" stroke-width="1.5"/>
<path d="M54.627 85.6909H117.271" stroke="#8E96AB" stroke-width="1.5"/>
<path d="M95.2197 48.104L95.2197 97.7185" stroke="#8E96AB" stroke-width="1.5"/>
<path d="M60.1377 54.1177H84.1932" stroke="#8E96AB" stroke-width="2" stroke-linecap="round"/>
<path d="M100.231 54.1177H106.245" stroke="#8E96AB" stroke-width="2" stroke-linecap="round"/>
<path d="M60.1377 66.1455H84.1932" stroke="#8E96AB" stroke-width="2" stroke-linecap="round"/>
<path d="M100.231 66.1455H106.245" stroke="#8E96AB" stroke-width="2" stroke-linecap="round"/>
<path d="M60.1377 79.1758H84.1932" stroke="#8E96AB" stroke-width="2" stroke-linecap="round"/>
<path d="M100.231 79.1758H106.245" stroke="#8E96AB" stroke-width="2" stroke-linecap="round"/>
<path d="M60.1377 91.2036H84.1932" stroke="#8E96AB" stroke-width="2" stroke-linecap="round"/>
<path d="M100.231 91.2036H106.245" stroke="#8E96AB" stroke-width="2" stroke-linecap="round"/>
<path d="M160.096 68.579V118.155C160.096 120.668 158.042 122.679 155.53 122.679H117.587C115.076 122.679 113.021 120.622 113.021 118.155V68.579C113.021 66.0659 115.076 64.0098 117.587 64.0098H155.576C158.042 64.0098 160.096 66.0659 160.096 68.579Z" fill="#8E96AB"/>
<path d="M160.096 68.579V80.9805C160.096 81.4747 159.696 81.8754 159.201 81.8754H113.916C113.422 81.8754 113.021 81.4747 113.021 80.9805V68.579C113.021 66.0659 115.076 64.0098 117.587 64.0098H155.576C158.042 64.0098 160.096 66.0659 160.096 68.579Z" fill="#C6CDDF"/>
<path d="M123.387 90.694H118.319C117.588 90.694 116.995 90.1 116.995 89.369V87.0844C116.995 86.3533 117.588 85.7593 118.319 85.7593H123.387C124.117 85.7593 124.711 86.3533 124.711 87.0844V89.369C124.711 90.1 124.117 90.694 123.387 90.694Z" fill="#C6CDDF"/>
<path d="M133.887 90.694H128.819C128.089 90.694 127.495 90.1 127.495 89.369V87.0844C127.495 86.3533 128.089 85.7593 128.819 85.7593H133.887C134.618 85.7593 135.212 86.3533 135.212 87.0844V89.369C135.212 90.1 134.618 90.694 133.887 90.694Z" fill="#C6CDDF"/>
<path d="M144.436 90.694H139.322C138.591 90.694 137.998 90.1 137.998 89.369V87.0844C137.998 86.3533 138.591 85.7593 139.322 85.7593H144.39C145.12 85.7593 145.714 86.3533 145.714 87.0844V89.369C145.714 90.1 145.12 90.694 144.436 90.694Z" fill="#C6CDDF"/>
<path d="M154.937 90.694H149.869C149.138 90.694 148.544 90.1 148.544 89.369V87.0844C148.544 86.3533 149.138 85.7593 149.869 85.7593H154.937C155.667 85.7593 156.261 86.3533 156.261 87.0844V89.369C156.215 90.1 155.667 90.694 154.937 90.694Z" fill="#C6CDDF"/>
<path d="M123.387 98.9645H118.319C117.588 98.9645 116.995 98.3705 116.995 97.6395V95.3549C116.995 94.6238 117.588 94.0298 118.319 94.0298H123.387C124.117 94.0298 124.711 94.6238 124.711 95.3549V97.6395C124.711 98.3705 124.117 98.9645 123.387 98.9645Z" fill="#C6CDDF"/>
<path d="M133.887 98.9645H128.819C128.089 98.9645 127.495 98.3705 127.495 97.6395V95.3549C127.495 94.6238 128.089 94.0298 128.819 94.0298H133.887C134.618 94.0298 135.212 94.6238 135.212 95.3549V97.6395C135.212 98.3705 134.618 98.9645 133.887 98.9645Z" fill="#C6CDDF"/>
<path d="M144.436 98.9645H139.322C138.591 98.9645 137.998 98.3705 137.998 97.6395V95.3549C137.998 94.6238 138.591 94.0298 139.322 94.0298H144.39C145.12 94.0298 145.714 94.6238 145.714 95.3549V97.6395C145.714 98.3705 145.12 98.9645 144.436 98.9645Z" fill="#C6CDDF"/>
<path d="M154.937 98.9645H149.869C149.138 98.9645 148.544 98.3705 148.544 97.6395V95.3549C148.544 94.6238 149.138 94.0298 149.869 94.0298H154.937C155.667 94.0298 156.261 94.6238 156.261 95.3549V97.6395C156.215 98.3705 155.667 98.9645 154.937 98.9645Z" fill="#C6CDDF"/>
<path d="M123.387 107.189H118.319C117.588 107.189 116.995 106.595 116.995 105.864V103.579C116.995 102.848 117.588 102.254 118.319 102.254H123.387C124.117 102.254 124.711 102.848 124.711 103.579V105.864C124.711 106.64 124.117 107.189 123.387 107.189Z" fill="#C6CDDF"/>
<path d="M133.887 107.189H128.819C128.089 107.189 127.495 106.595 127.495 105.864V103.579C127.495 102.848 128.089 102.254 128.819 102.254H133.887C134.618 102.254 135.212 102.848 135.212 103.579V105.864C135.212 106.64 134.618 107.189 133.887 107.189Z" fill="#C6CDDF"/>
<path d="M144.436 107.189H139.322C138.591 107.189 137.998 106.595 137.998 105.864V103.579C137.998 102.848 138.591 102.254 139.322 102.254H144.39C145.12 102.254 145.714 102.848 145.714 103.579V105.864C145.714 106.64 145.12 107.189 144.436 107.189Z" fill="#C6CDDF"/>
<path d="M156.215 103.625V114.18C156.215 114.911 155.622 115.505 154.937 115.505H149.869C149.138 115.505 148.544 114.911 148.544 114.18V103.625C148.544 102.894 149.138 102.3 149.869 102.3H154.937C155.667 102.3 156.215 102.894 156.215 103.625Z" fill="#C6CDDF"/>
<path d="M123.387 115.459H118.319C117.588 115.459 116.995 114.865 116.995 114.134V111.849C116.995 111.118 117.588 110.524 118.319 110.524H123.387C124.117 110.524 124.711 111.118 124.711 111.849V114.134C124.711 114.911 124.117 115.459 123.387 115.459Z" fill="#C6CDDF"/>
<path d="M133.887 115.459H128.819C128.089 115.459 127.495 114.865 127.495 114.134V111.849C127.495 111.118 128.089 110.524 128.819 110.524H133.887C134.618 110.524 135.212 111.118 135.212 111.849V114.134C135.212 114.911 134.618 115.459 133.887 115.459Z" fill="#C6CDDF"/>
<path d="M144.436 115.459H139.322C138.591 115.459 137.998 114.865 137.998 114.134V111.849C137.998 111.118 138.591 110.524 139.322 110.524H144.39C145.12 110.524 145.714 111.118 145.714 111.849V114.134C145.714 114.911 145.12 115.459 144.436 115.459Z" fill="#C6CDDF"/>
<path d="M154.07 77.5804H119.186C117.999 77.5804 116.995 76.6209 116.995 75.3872V70.224C116.995 69.036 117.953 68.0308 119.186 68.0308H154.07C155.257 68.0308 156.262 68.9903 156.262 70.224V75.3872C156.216 76.5752 155.257 77.5804 154.07 77.5804Z" fill="white"/>
<path d="M139.139 73.8334H152.198C152.837 73.8334 153.339 73.3308 153.339 72.6911C153.339 72.0514 152.837 71.5488 152.198 71.5488H139.139C138.5 71.5488 137.998 72.0514 137.998 72.6911C138.043 73.3308 138.545 73.8334 139.139 73.8334Z" fill="#C6CDDF"/>
<defs>
<filter id="filter0_d_111_1063" x="20.7993" y="0.855469" width="131.077" height="155.429" filterUnits="userSpaceOnUse" color-interpolation-filters="sRGB">
<feFlood flood-opacity="0" result="BackgroundImageFix"/>
<feColorMatrix in="SourceAlpha" type="matrix" values="0 0 0 0 0 0 0 0 0 0 0 0 0 0 0 0 0 0 127 0" result="hardAlpha"/>
<feOffset dy="11"/>
<feGaussianBlur stdDeviation="11"/>
<feColorMatrix type="matrix" values="0 0 0 0 0 0 0 0 0 0 0 0 0 0 0 0 0 0 0.27 0"/>
<feBlend mode="normal" in2="BackgroundImageFix" result="effect1_dropShadow_111_1063"/>
<feBlend mode="normal" in="SourceGraphic" in2="effect1_dropShadow_111_1063" result="shape"/>
</filter>
</defs>
</svg>
