<svg width="145" height="127" viewBox="0 0 145 127" fill="none" xmlns="http://www.w3.org/2000/svg">
<path d="M80.7091 127C112.521 127 138.312 101.191 138.312 69.2416C138.312 37.2927 112.408 11.4834 80.7091 11.4834C48.8967 11.4834 23.106 37.2927 23.106 69.2416C23.106 101.191 48.8967 127 80.7091 127Z" fill="#2A2E37"/>
<path d="M134.563 31.3803C137.135 31.3803 139.221 29.2932 139.221 26.7187C139.221 24.1442 137.135 22.0571 134.563 22.0571C131.99 22.0571 129.904 24.1442 129.904 26.7187C129.904 29.2932 131.99 31.3803 134.563 31.3803Z" fill="#2A2E37"/>
<path d="M141.379 13.1888C143.136 13.1888 144.561 11.7635 144.561 10.0053C144.561 8.24709 143.136 6.82178 141.379 6.82178C139.623 6.82178 138.198 8.24709 138.198 10.0053C138.198 11.7635 139.623 13.1888 141.379 13.1888Z" fill="#2A2E37"/>
<path d="M26.1734 31.267C27.9304 31.267 29.3547 29.8416 29.3547 28.0834C29.3547 26.3252 27.9304 24.8999 26.1734 24.8999C24.4165 24.8999 22.9922 26.3252 22.9922 28.0834C22.9922 29.8416 24.4165 31.267 26.1734 31.267Z" fill="#2A2E37"/>
<path d="M6.74492 92.6634C10.0078 92.6634 12.6529 90.0164 12.6529 86.7511C12.6529 83.4859 10.0078 80.8389 6.74492 80.8389C3.48202 80.8389 0.836914 83.4859 0.836914 86.7511C0.836914 90.0164 3.48202 92.6634 6.74492 92.6634Z" fill="#2A2E37"/>
<mask id="mask0_121_6529" style="mask-type:alpha" maskUnits="userSpaceOnUse" x="23" y="0" width="116" height="127">
<path d="M130.615 0H32.8356V37.3678C26.8001 46.4973 23.2852 57.4514 23.2852 69.2418C23.2852 101.191 49.0944 127 80.9297 127C112.765 127 138.574 101.191 138.574 69.2418C138.574 58.5474 135.67 48.541 130.615 39.9602V0Z" fill="#D9D9D9"/>
</mask>
<g mask="url(#mask0_121_6529)">
<g filter="url(#filter0_d_121_6529)">
<path d="M125.35 33.0927L126.373 124.623C126.373 127.439 124.071 129.615 121.257 129.615H40.9285C38.1144 129.615 35.812 127.311 35.812 124.623V9.53999C35.812 6.72391 38.1144 4.54785 40.9285 4.54785H99.1283L125.35 33.0927Z" fill="#5C6479"/>
</g>
<path opacity="0.7" d="M61.7935 48H98.7669L95.1072 86.6294L80.0915 90L64.9626 86.6294L61.7935 48Z" fill="#C6CDDF"/>
<path d="M96.7683 50L93.5416 85.1506L81.3236 87.9853C81.0336 88.0609 80.7798 87.8342 80.7798 87.5318V50.4536C80.7798 50.189 80.9611 50 81.2148 50H96.7683Z" fill="#8E96AB"/>
<path d="M74.1454 54H78.7809V84L69.9659 82.5606C69.282 82.447 68.7881 81.8788 68.7881 81.197V76.0076L71.9417 76.8788L71.9797 77.9015L74.0695 78.2424L74.1454 54Z" fill="#474E61"/>
<path d="M81.7788 54V72.0025H86.7421L86.0671 79.1802L81.8185 80.6934V85L89.3628 82.9825C90.2363 82.7497 90.8319 82.0125 90.9113 81.1589L92.3805 66.1439H87.0598V58.7722H93.7702V54H81.7788Z" fill="#474E61"/>
<path d="M99.6826 4.54785V27.2363C99.6826 30.4229 102.473 32.9722 105.644 32.9722H125.683" fill="#474E61"/>
</g>
<defs>
<filter id="filter0_d_121_6529" x="13.812" y="-6.45215" width="134.562" height="169.067" filterUnits="userSpaceOnUse" color-interpolation-filters="sRGB">
<feFlood flood-opacity="0" result="BackgroundImageFix"/>
<feColorMatrix in="SourceAlpha" type="matrix" values="0 0 0 0 0 0 0 0 0 0 0 0 0 0 0 0 0 0 127 0" result="hardAlpha"/>
<feOffset dy="11"/>
<feGaussianBlur stdDeviation="11"/>
<feColorMatrix type="matrix" values="0 0 0 0 0 0 0 0 0 0 0 0 0 0 0 0 0 0 0.27 0"/>
<feBlend mode="normal" in2="BackgroundImageFix" result="effect1_dropShadow_121_6529"/>
<feBlend mode="normal" in="SourceGraphic" in2="effect1_dropShadow_121_6529" result="shape"/>
</filter>
</defs>
</svg>
