<svg width="129" height="142" viewBox="0 0 129 142" fill="none" xmlns="http://www.w3.org/2000/svg">
<path d="M64.5386 141.268C99.4768 141.268 127.8 112.771 127.8 77.6187C127.8 42.4662 99.4768 13.9695 64.5386 13.9695C29.6004 13.9695 1.27734 42.4662 1.27734 77.6187C1.27734 112.771 29.6004 141.268 64.5386 141.268Z" fill="#2A2E37"/>
<mask id="mask0_111_959" style="mask-type:alpha" maskUnits="userSpaceOnUse" x="0" y="11" width="129" height="131">
<path d="M64.5386 140.268C99.4768 140.268 127.8 111.771 127.8 76.6187C127.8 41.4662 99.4768 12.9695 64.5386 12.9695C29.6004 12.9695 1.27734 41.4662 1.27734 76.6187C1.27734 111.771 29.6004 140.268 64.5386 140.268Z" fill="#F1F3F9" stroke="#D6DCE8" stroke-width="2" stroke-miterlimit="10"/>
</mask>
<g mask="url(#mask0_111_959)">
<path d="M115.355 133.619H136.974C137.373 132.335 137.692 130.971 137.851 129.686C137.851 129.526 137.931 129.285 137.931 129.125C137.931 128.964 137.931 128.804 138.011 128.643C138.41 122.864 136.415 117.085 132.666 112.831C132.586 112.751 132.586 112.751 132.506 112.671C129.236 109.059 124.689 106.49 119.184 105.928C119.025 105.928 118.865 105.928 118.705 105.848C118.546 105.848 118.386 105.848 118.147 105.848C117.748 105.848 117.429 105.848 117.03 105.848C114.398 105.848 111.845 106.33 109.531 107.213C108.734 107.534 107.936 107.855 107.218 108.256C106.979 108.417 106.739 108.497 106.5 108.657C106.261 108.818 106.101 108.898 105.862 109.059C105.702 109.139 105.543 109.299 105.383 109.38C105.224 109.46 105.064 109.62 104.904 109.701C104.665 109.861 104.426 110.102 104.107 110.263C102.591 111.467 101.235 112.831 100.118 114.356C99.9584 114.597 99.7191 114.838 99.5595 115.159C99.4798 115.319 99.3202 115.48 99.2404 115.64C99.1607 115.801 99.0011 115.961 98.9213 116.202C98.7618 116.443 98.682 116.603 98.6022 116.844C98.5225 116.924 98.5225 117.005 98.4427 117.085C98.3629 117.246 98.2034 117.486 98.1236 117.727C98.0438 117.888 97.9641 118.048 97.8843 118.209C94.9326 118.369 92.1405 119.332 86.2372 123.265L85.2799 101.835H77.8609L77.2227 115.159C74.8294 113.313 72.516 113.553 70.9205 113.634L71.3194 113.553L70.6812 100.39H58.5554L57.8375 116.042C55.7633 114.436 55.1251 115.239 54.4869 115.239C53.2105 115.239 52.0937 115.56 51.0566 116.122L50.4184 101.835H43.0792L42.6005 113.152C39.25 111.145 35.341 110.022 31.2725 110.022C26.2467 110.022 21.6198 111.707 17.8704 114.517C11.0896 111.306 4.06942 112.028 -1.43503 115.159C-1.67435 115.319 -1.8339 115.399 -2.07322 115.56C-2.153 115.64 -2.31255 115.721 -2.39232 115.721C-2.55187 115.801 -2.63165 115.881 -2.79119 115.961C-2.95074 116.042 -3.11029 116.122 -3.19007 116.282C-5.02488 117.567 -6.62037 119.092 -7.89676 120.857C-7.97654 121.018 -8.13609 121.098 -8.21586 121.259C-8.29564 121.419 -8.45519 121.5 -8.53496 121.66C-8.61474 121.821 -8.69451 121.901 -8.85406 122.061C-8.93383 122.222 -9.01361 122.382 -9.09338 122.463C-9.17316 122.543 -9.25293 122.703 -9.25293 122.784C-11.1675 125.994 -12.2046 129.686 -12.2046 133.619L86.2372 143.733L115.355 133.619Z" fill="#5C6479"/>
<path d="M51.0567 116.041L50.4185 101.754H43.0792L42.6006 113.072" fill="#5C6479"/>
<path d="M51.0567 116.041L50.4185 101.754H43.0792L42.6006 113.072" stroke="#8E96AB" stroke-width="2" stroke-miterlimit="10" stroke-linecap="round" stroke-linejoin="round"/>
<path d="M86.1574 123.667L85.1203 101.674H77.8609L77.2227 114.998L86.1574 123.667Z" fill="#5C6479"/>
<path d="M86.1574 123.667L85.1203 101.674H77.8609L77.2227 114.998" stroke="#8E96AB" stroke-width="2" stroke-miterlimit="10" stroke-linecap="round" stroke-linejoin="round"/>
<path d="M71.3991 113.473L70.7609 100.31H58.5554L57.8374 115.72V115.961" fill="#5C6479"/>
<path d="M71.3991 113.473L70.7609 100.31H58.5554L57.8374 115.72V115.961" stroke="#8E96AB" stroke-width="2" stroke-miterlimit="10" stroke-linecap="round" stroke-linejoin="round"/>
<path d="M50.0195 116.764C51.2161 115.721 52.8116 115.159 54.4869 115.159C57.279 115.159 59.6723 116.764 60.7891 119.092" stroke="#8E96AB" stroke-width="2" stroke-miterlimit="10" stroke-linecap="round" stroke-linejoin="round"/>
<path d="M8.85596 132.415C8.85596 119.974 18.8278 109.941 31.1928 109.941C41.4837 109.941 50.1792 116.924 52.732 126.476" stroke="#8E96AB" stroke-width="2" stroke-miterlimit="10" stroke-linecap="round" stroke-linejoin="round"/>
<path d="M52.9712 126.396C53.2105 122.302 56.561 119.092 60.7093 119.092C62.225 119.092 63.661 119.573 64.8576 120.296" stroke="#8E96AB" stroke-width="2" stroke-miterlimit="10" stroke-linecap="round" stroke-linejoin="round"/>
<path d="M68.2085 114.757C69.4849 113.874 70.9208 113.393 72.5961 113.393C75.1489 113.393 77.3826 114.677 78.8185 116.523" stroke="#8E96AB" stroke-width="2" stroke-miterlimit="10" stroke-linecap="round" stroke-linejoin="round"/>
<path d="M115.355 133.138C115.195 131.131 114.637 129.205 113.759 127.519" stroke="#8E96AB" stroke-width="2" stroke-miterlimit="10" stroke-linecap="round" stroke-linejoin="round"/>
<path d="M85.2798 125.192C88.3112 120.857 93.2572 118.048 98.8415 118.048C104.186 118.048 108.973 120.617 112.004 124.549" stroke="#8E96AB" stroke-width="2" stroke-miterlimit="10" stroke-linecap="round" stroke-linejoin="round"/>
<path d="M64.698 132.897C63.9003 128.884 60.3902 125.834 56.1621 125.834C54.9655 125.834 53.8487 126.075 52.8116 126.556C50.8172 127.359 49.2218 128.964 48.3442 130.89" stroke="#8E96AB" stroke-width="2" stroke-miterlimit="10" stroke-linecap="round" stroke-linejoin="round"/>
<path d="M17.8704 114.436C17.7906 114.436 17.7906 114.436 17.8704 114.436C11.5682 111.467 4.06942 111.707 -2.07322 115.48C-2.153 115.56 -2.31255 115.64 -2.39232 115.64C-2.55187 115.721 -2.63165 115.801 -2.79119 115.881C-3.50917 116.363 -4.14736 116.844 -4.78556 117.406C-6.2215 118.69 -7.49789 120.055 -8.53496 121.58C-8.61474 121.74 -8.69451 121.821 -8.85406 121.981C-8.93383 122.142 -9.01361 122.302 -9.09338 122.382C-9.17316 122.463 -9.25293 122.623 -9.25293 122.703C-11.0877 125.834 -12.045 129.365 -12.2046 132.977" stroke="#8E96AB" stroke-width="2" stroke-miterlimit="10" stroke-linecap="round" stroke-linejoin="round"/>
<path d="M97.8047 118.048C97.8845 117.887 97.9642 117.727 98.044 117.566C99.9586 113.553 103.15 110.262 107.059 108.175C107.777 107.774 108.574 107.453 109.372 107.132C111.685 106.249 114.238 105.768 116.871 105.768C117.27 105.768 117.589 105.768 117.988 105.768C118.147 105.768 118.307 105.768 118.546 105.768C118.706 105.768 118.865 105.768 119.025 105.848C124.29 106.41 128.997 108.898 132.347 112.59C132.427 112.67 132.427 112.67 132.507 112.751C135.857 116.523 137.931 121.499 137.931 126.957C137.931 127.519 137.931 128.001 137.852 128.563C137.852 128.723 137.852 128.884 137.772 129.044C137.772 129.205 137.692 129.445 137.692 129.606C137.532 130.73 137.293 131.853 136.974 132.977" stroke="#8E96AB" stroke-width="2" stroke-miterlimit="10" stroke-linecap="round" stroke-linejoin="round"/>
</g>
<path d="M32.4689 68.1476H32.1498C31.7509 68.1476 31.352 67.8266 31.352 67.345V67.0239C31.352 66.7029 31.033 66.3818 30.7139 66.3818C30.3948 66.3818 30.0757 66.7029 30.0757 67.0239V67.345C30.0757 67.7463 29.7566 68.1476 29.2779 68.1476H29.0386C28.7195 68.1476 28.4004 68.4687 28.4004 68.7898C28.4004 69.1108 28.7195 69.4319 29.0386 69.4319H29.3577C29.7566 69.4319 30.1554 69.7529 30.1554 70.2345V70.5556C30.1554 70.8766 30.4745 71.1977 30.7936 71.1977C31.1127 71.1977 31.4318 70.8766 31.4318 70.5556V70.2345C31.4318 69.8332 31.7509 69.4319 32.2296 69.4319H32.5487C32.8678 69.4319 33.1869 69.1108 33.1869 68.7898C33.1071 68.4687 32.8678 68.1476 32.4689 68.1476Z" fill="#474E61"/>
<path d="M28.6401 44.4697H28.321C27.7625 44.4697 27.3637 44.0684 27.3637 43.5065V43.1855C27.3637 42.7841 27.0446 42.3828 26.5659 42.3828C26.0873 42.3828 25.7682 42.7039 25.7682 43.1855V43.5065C25.7682 44.0684 25.3693 44.4697 24.8109 44.4697H24.412C24.0131 44.4697 23.6143 44.7907 23.6143 45.2723C23.6143 45.6736 23.9334 46.075 24.412 46.075H24.7311C25.2895 46.075 25.6884 46.4763 25.6884 47.0381V47.3592C25.6884 47.7605 26.0075 48.1618 26.4861 48.1618C26.9648 48.1618 27.2839 47.8408 27.2839 47.3592V47.0381C27.2839 46.4763 27.6828 46.075 28.2412 46.075H28.5603C28.9592 46.075 29.358 45.7539 29.358 45.2723C29.4378 44.871 29.1187 44.4697 28.6401 44.4697Z" fill="#474E61"/>
<path d="M103.388 41.821H103.149C102.83 41.821 102.511 41.5 102.511 41.1789V40.9381C102.511 40.6171 102.272 40.4565 102.032 40.4565C101.713 40.4565 101.474 40.6973 101.474 40.9381V41.1789C101.474 41.5 101.155 41.821 100.836 41.821H100.596C100.277 41.821 100.118 42.0618 100.118 42.3026C100.118 42.6237 100.357 42.7842 100.596 42.7842H100.836C101.155 42.7842 101.474 43.1053 101.474 43.4263V43.6671C101.474 43.9882 101.713 44.1487 102.032 44.1487C102.351 44.1487 102.511 43.9079 102.511 43.6671V43.4263C102.511 43.1053 102.83 42.7842 103.149 42.7842H103.388C103.708 42.7842 103.867 42.5434 103.867 42.3026C103.947 42.1421 103.628 41.821 103.388 41.821Z" fill="#474E61"/>
<path d="M102.671 103.062H102.431C102.112 103.062 101.793 102.741 101.793 102.42V102.179C101.793 101.858 101.554 101.698 101.314 101.698C100.995 101.698 100.756 101.939 100.756 102.179V102.42C100.756 102.741 100.437 103.062 100.118 103.062H99.8786C99.5595 103.062 99.3999 103.303 99.3999 103.544C99.3999 103.785 99.6392 104.025 99.8786 104.025H100.118C100.437 104.025 100.756 104.346 100.756 104.668V104.908C100.756 105.229 100.995 105.39 101.314 105.39C101.634 105.39 101.793 105.149 101.793 104.908V104.668C101.793 104.346 102.112 104.025 102.431 104.025H102.671C102.99 104.025 103.149 103.785 103.149 103.544C103.149 103.303 102.91 103.062 102.671 103.062Z" fill="#474E61"/>
<path d="M28.8792 102.581H28.6398C28.3207 102.581 28.0016 102.26 28.0016 101.939V101.698C28.0016 101.377 27.7623 101.216 27.523 101.216C27.2039 101.216 26.9646 101.457 26.9646 101.698V101.939C26.9646 102.26 26.6455 102.581 26.3264 102.581H26.087C25.7679 102.581 25.6084 102.822 25.6084 103.062C25.6084 103.383 25.8477 103.544 26.087 103.544H26.3264C26.6455 103.544 26.9646 103.865 26.9646 104.186V104.427C26.9646 104.748 27.2039 104.908 27.523 104.908C27.8421 104.908 28.0016 104.668 28.0016 104.427V104.186C28.0016 103.865 28.3207 103.544 28.6398 103.544H28.8792C29.1983 103.544 29.3578 103.303 29.3578 103.062C29.4376 102.822 29.1185 102.581 28.8792 102.581Z" fill="#474E61"/>
<path d="M16.0358 77.6188C15.0785 77.6188 14.2808 76.8161 14.2808 75.853C14.2808 74.8898 15.0785 74.0872 16.0358 74.0872C16.9931 74.0872 17.7908 74.8898 17.7908 75.853C17.7908 76.8161 16.9931 77.6188 16.0358 77.6188ZM16.0358 75.0503C15.6369 75.0503 15.2381 75.3714 15.2381 75.853C15.2381 76.2543 15.5572 76.6556 16.0358 76.6556C16.4347 76.6556 16.8335 76.3345 16.8335 75.853C16.9133 75.4516 16.5144 75.0503 16.0358 75.0503Z" fill="#474E61"/>
<path d="M97.8044 65.6595C96.2887 65.6595 95.1719 64.4555 95.1719 63.0108C95.1719 61.566 96.3685 60.3621 97.8044 60.3621C99.3202 60.3621 100.437 61.566 100.437 63.0108C100.437 64.4555 99.2404 65.6595 97.8044 65.6595ZM97.8044 61.8068C97.1662 61.8068 96.528 62.3687 96.528 63.091C96.528 63.8134 97.0865 64.3753 97.8044 64.3753C98.4426 64.3753 99.0808 63.8134 99.0808 63.091C99.0808 62.3687 98.5224 61.8068 97.8044 61.8068Z" fill="#474E61"/>
<path d="M113.759 56.991C113.121 56.991 112.562 57.4726 112.562 58.1949C112.562 58.9173 113.041 59.3989 113.759 59.3989C114.397 59.3989 114.956 58.9173 114.956 58.1949C114.956 57.4726 114.397 56.991 113.759 56.991Z" fill="#474E61"/>
<path d="M113.839 84.6017H113.52C113.042 84.6017 112.722 84.2004 112.722 83.799V83.478C112.722 83.0767 112.403 82.7556 112.004 82.7556C111.606 82.7556 111.286 83.0767 111.286 83.478V83.799C111.286 84.2806 110.888 84.6017 110.489 84.6017H110.17C109.771 84.6017 109.452 84.9227 109.452 85.3241C109.452 85.7254 109.771 86.0464 110.17 86.0464H110.489C110.967 86.0464 111.286 86.4478 111.286 86.8491V87.1701C111.286 87.5714 111.606 87.8925 112.004 87.8925C112.403 87.8925 112.722 87.5714 112.722 87.1701V86.8491C112.722 86.3675 113.121 86.0464 113.52 86.0464H113.839C114.238 86.0464 114.557 85.7254 114.557 85.3241C114.477 84.9227 114.238 84.6017 113.839 84.6017Z" fill="#474E61"/>
<path d="M69.4844 95.6545H59.5126L57.4385 97.019C57.0396 97.3401 56.8003 97.7414 56.8003 98.3033V99.6677H72.5159V98.3835C72.5159 97.8217 72.2766 97.3401 71.7979 97.0993L69.4844 95.6545Z" fill="url(#paint0_linear_111_959)"/>
<path d="M73.1542 100.31C73.1542 100.631 72.9148 100.952 72.516 100.952H56.5611C56.242 100.952 55.9229 100.711 55.9229 100.31C55.9229 99.9888 56.1622 99.6677 56.5611 99.6677H72.516C72.8351 99.6677 73.1542 99.9888 73.1542 100.31Z" fill="#8E96AB"/>
<path d="M51.5352 101.755H41.8027C41.5634 101.755 41.4038 101.594 41.4038 101.353C41.4038 101.112 41.5634 100.952 41.8027 100.952H51.5352C51.7745 100.952 51.934 101.112 51.934 101.353C51.8543 101.594 51.6947 101.755 51.5352 101.755Z" fill="#8E96AB"/>
<path d="M50.9766 99.427C51.2159 99.5875 51.4553 99.9086 51.4553 100.23V101.032H41.8823V100.23C41.8823 99.9086 42.0419 99.5875 42.2812 99.427L43.5576 98.5441V95.0928H49.6205V98.6244L50.9766 99.427Z" fill="#8E96AB"/>
<path d="M47.3074 17.638C46.9086 17.317 46.3501 17.317 46.031 17.638C44.276 19.163 41.4839 24.5407 41.4839 30.2394V97.4203C41.4839 98.0624 41.9625 98.544 42.6007 98.544H46.6692H50.7377C51.3759 98.544 51.8546 98.0624 51.8546 97.4203V30.3197C51.8546 24.5407 49.0625 19.2433 47.3074 17.638Z" fill="#474E61"/>
<path d="M65.6555 0.30099C64.778 -0.10033 63.5016 -0.10033 62.6241 0.30099C58.4758 2.38785 51.8545 12.2603 51.8545 20.0459C51.8545 28.8749 51.8545 94.4505 51.8545 94.4505H64.1398H76.425C76.425 94.4505 76.425 28.8749 76.425 20.0459C76.3453 12.2603 69.8038 2.46811 65.6555 0.30099Z" fill="#474E61"/>
<path d="M57.2793 28.9551H76.4252" stroke="#5C6479" stroke-width="2" stroke-miterlimit="10" stroke-linejoin="round"/>
<path d="M51.8545 28.9551H54.168" stroke="#5C6479" stroke-width="2" stroke-miterlimit="10" stroke-linejoin="round"/>
<path d="M46.9082 31.2026H51.8542" stroke="#5C6479" stroke-width="2" stroke-miterlimit="10" stroke-linejoin="round"/>
<path d="M41.4038 31.2026H43.5577" stroke="#5C6479" stroke-width="2" stroke-miterlimit="10" stroke-linejoin="round"/>
<path d="M45.3926 45.0884H51.8543" stroke="#5C6479" stroke-width="2" stroke-miterlimit="10" stroke-linejoin="round"/>
<path d="M86.4766 101.755H76.7441C76.5048 101.755 76.3452 101.594 76.3452 101.353C76.3452 101.112 76.5048 100.952 76.7441 100.952H86.4766C86.7159 100.952 86.8755 101.112 86.8755 101.353C86.7957 101.594 86.6361 101.755 86.4766 101.755Z" fill="#8E96AB"/>
<path d="M85.9981 99.427C86.2374 99.5875 86.4768 99.9086 86.4768 100.23V101.032H76.9038V100.23C76.9038 99.9086 77.0634 99.5875 77.3027 99.427L78.5791 98.5441V95.0928H84.6419V98.6244L85.9981 99.427Z" fill="#8E96AB"/>
<path d="M82.2483 17.638C81.8495 17.317 81.2911 17.317 80.972 17.638C79.2169 19.163 76.4248 24.5407 76.4248 30.2394V97.4203C76.4248 98.0624 76.9035 98.544 77.5416 98.544H81.6102H85.6787C86.3169 98.544 86.7955 98.0624 86.7955 97.4203V30.3197C86.7955 24.5407 84.0034 19.2433 82.2483 17.638Z" fill="#474E61"/>
<path d="M80.5732 31.2026H86.8754" stroke="#5C6479" stroke-width="2" stroke-miterlimit="10" stroke-linejoin="round"/>
<path d="M81.0522 45.0884H86.796" stroke="#5C6479" stroke-width="2" stroke-miterlimit="10" stroke-linejoin="round"/>
<path d="M76.3452 45.0884H78.5789" stroke="#5C6479" stroke-width="2" stroke-miterlimit="10" stroke-linejoin="round"/>
<g filter="url(#filter0_d_111_959)">
<path d="M57.0397 40.192L57.5183 38.2657L58.7947 37.9447L60.9486 37.4631L61.188 37.3828L61.3475 40.192L64.4587 86.3438L57.7577 95.6544L55.1251 95.1728L36.6174 91.9623C35.5006 91.8017 34.623 90.7583 34.623 89.6346V80.8858C34.623 79.8424 35.0219 78.799 35.7399 78.0766L48.1847 65.3949C50.1791 63.308 51.6948 60.7396 52.4128 58.0106L55.0453 47.8974L57.0397 40.192Z" fill="#8E96AB"/>
</g>
<g filter="url(#filter1_d_111_959)">
<path d="M94.5336 80.8858V89.6346C94.5336 90.7583 93.7359 91.8017 92.5392 91.9623L78.6585 94.3702L71.399 95.6544L64.6182 86.3438L67.9687 37.3828L68.208 37.4631L70.3619 37.9447L71.6383 38.2657L76.2652 55.8435L76.8237 58.0106C77.5416 60.8199 78.9776 63.3883 81.0517 65.3949L93.4966 78.0766C94.1347 78.799 94.5336 79.8424 94.5336 80.8858Z" fill="#8E96AB"/>
</g>
<g filter="url(#filter2_d_111_959)">
<path d="M71.6387 35.6974V94.5308H57.2793V35.6974C57.2793 33.1289 57.8377 30.6407 58.8748 28.3131C59.1141 27.9118 59.2737 27.4302 59.513 27.0289L62.5444 21.9722C63.4219 20.5275 65.4163 20.5275 66.2938 21.9722L69.3253 27.0289C69.5646 27.4302 69.8039 27.9118 69.9635 28.3131C71.0803 30.6407 71.6387 33.2092 71.6387 35.6974Z" fill="#8E96AB"/>
</g>
<path d="M70.0429 28.3131C69.5643 27.5104 68.6868 27.0289 67.6497 27.0289H61.2677C60.3105 27.0289 59.4329 27.5104 58.8745 28.3131C59.1138 27.9118 59.2734 27.4302 59.5127 27.0289L62.5441 21.9722C63.4217 20.5275 65.416 20.5275 66.2935 21.9722L69.325 27.0289C69.5643 27.4302 69.8834 27.9118 70.0429 28.3131Z" fill="#2A2E37"/>
<path d="M68.1285 35.1354C68.1285 35.3762 67.8094 35.5367 67.6499 35.2959C67.251 34.8144 66.6926 34.5736 65.9746 34.5736H62.8634C62.2252 34.5736 61.6668 34.8144 61.2679 35.2959C61.2679 35.2959 61.2679 35.2959 61.1881 35.3762C61.0286 35.617 60.7095 35.4565 60.7095 35.2157C60.7095 34.9749 60.7095 34.7341 60.7095 34.413C60.7095 33.2091 61.6668 32.3262 62.8634 32.3262H65.9746C66.0544 32.3262 66.1341 32.3262 66.2139 32.3262C66.533 32.3262 66.7723 32.4867 67.0914 32.567C67.7296 32.9683 68.1285 33.6104 68.1285 34.413C68.1285 34.6538 68.1285 34.8946 68.1285 35.1354Z" fill="#C2C8D6"/>
<path d="M60.7092 82.0098H58.9542C56.8003 82.0098 55.125 83.7756 55.125 85.8624V95.6546H64.6182V85.8624C64.5384 83.7756 62.7834 82.0098 60.7092 82.0098Z" fill="#C6CDDF"/>
<path d="M70.1228 82.0098H68.3677C66.2138 82.0098 64.5386 83.7756 64.5386 85.8624V95.6546H74.0317V85.8624C73.952 83.7756 72.1969 82.0098 70.1228 82.0098Z" fill="#C6CDDF"/>
<path d="M69.4844 95.6545H59.5126L57.4385 97.019C57.0396 97.3401 56.8003 97.7414 56.8003 98.3033V99.6677H72.5159V98.3835C72.5159 97.8217 72.2766 97.3401 71.7979 97.0993L69.4844 95.6545Z" fill="#8E96AB"/>
<path d="M73.1542 100.31C73.1542 100.631 72.9148 100.952 72.516 100.952H56.5611C56.242 100.952 55.9229 100.711 55.9229 100.31C55.9229 99.9888 56.1622 99.6677 56.5611 99.6677H72.516C72.8351 99.6677 73.1542 99.9888 73.1542 100.31Z" fill="#8E96AB"/>
<g filter="url(#filter3_d_111_959)">
<rect x="64.5083" y="75" width="2" height="21" rx="1" fill="#C2C8D6"/>
</g>
<defs>
<filter id="filter0_d_111_959" x="12.623" y="26.3828" width="73.8354" height="102.271" filterUnits="userSpaceOnUse" color-interpolation-filters="sRGB">
<feFlood flood-opacity="0" result="BackgroundImageFix"/>
<feColorMatrix in="SourceAlpha" type="matrix" values="0 0 0 0 0 0 0 0 0 0 0 0 0 0 0 0 0 0 127 0" result="hardAlpha"/>
<feOffset dy="11"/>
<feGaussianBlur stdDeviation="11"/>
<feColorMatrix type="matrix" values="0 0 0 0 0 0 0 0 0 0 0 0 0 0 0 0 0 0 0.27 0"/>
<feBlend mode="normal" in2="BackgroundImageFix" result="effect1_dropShadow_111_959"/>
<feBlend mode="normal" in="SourceGraphic" in2="effect1_dropShadow_111_959" result="shape"/>
</filter>
<filter id="filter1_d_111_959" x="42.6182" y="26.3828" width="73.9155" height="102.271" filterUnits="userSpaceOnUse" color-interpolation-filters="sRGB">
<feFlood flood-opacity="0" result="BackgroundImageFix"/>
<feColorMatrix in="SourceAlpha" type="matrix" values="0 0 0 0 0 0 0 0 0 0 0 0 0 0 0 0 0 0 127 0" result="hardAlpha"/>
<feOffset dy="11"/>
<feGaussianBlur stdDeviation="11"/>
<feColorMatrix type="matrix" values="0 0 0 0 0 0 0 0 0 0 0 0 0 0 0 0 0 0 0.27 0"/>
<feBlend mode="normal" in2="BackgroundImageFix" result="effect1_dropShadow_111_959"/>
<feBlend mode="normal" in="SourceGraphic" in2="effect1_dropShadow_111_959" result="shape"/>
</filter>
<filter id="filter2_d_111_959" x="35.2793" y="9.88867" width="58.3594" height="117.642" filterUnits="userSpaceOnUse" color-interpolation-filters="sRGB">
<feFlood flood-opacity="0" result="BackgroundImageFix"/>
<feColorMatrix in="SourceAlpha" type="matrix" values="0 0 0 0 0 0 0 0 0 0 0 0 0 0 0 0 0 0 127 0" result="hardAlpha"/>
<feOffset dy="11"/>
<feGaussianBlur stdDeviation="11"/>
<feColorMatrix type="matrix" values="0 0 0 0 0 0 0 0 0 0 0 0 0 0 0 0 0 0 0.27 0"/>
<feBlend mode="normal" in2="BackgroundImageFix" result="effect1_dropShadow_111_959"/>
<feBlend mode="normal" in="SourceGraphic" in2="effect1_dropShadow_111_959" result="shape"/>
</filter>
<filter id="filter3_d_111_959" x="42.5083" y="64" width="46" height="65" filterUnits="userSpaceOnUse" color-interpolation-filters="sRGB">
<feFlood flood-opacity="0" result="BackgroundImageFix"/>
<feColorMatrix in="SourceAlpha" type="matrix" values="0 0 0 0 0 0 0 0 0 0 0 0 0 0 0 0 0 0 127 0" result="hardAlpha"/>
<feOffset dy="11"/>
<feGaussianBlur stdDeviation="11"/>
<feColorMatrix type="matrix" values="0 0 0 0 0 0 0 0 0 0 0 0 0 0 0 0 0 0 0.27 0"/>
<feBlend mode="normal" in2="BackgroundImageFix" result="effect1_dropShadow_111_959"/>
<feBlend mode="normal" in="SourceGraphic" in2="effect1_dropShadow_111_959" result="shape"/>
</filter>
<linearGradient id="paint0_linear_111_959" x1="71.8925" y1="95.6545" x2="57.282" y2="95.8537" gradientUnits="userSpaceOnUse">
<stop stop-color="#B0BACC"/>
<stop offset="1" stop-color="#969EAE"/>
</linearGradient>
</defs>
</svg>
