<svg width="153" height="154" viewBox="0 0 153 154" fill="none" xmlns="http://www.w3.org/2000/svg">
<path d="M76.0034 128C110.496 128 138.458 100.018 138.458 65.5C138.458 30.9822 110.496 3 76.0034 3C41.5104 3 13.5483 30.9822 13.5483 65.5C13.5483 100.018 41.5104 128 76.0034 128Z" fill="#2A2E37"/>
<g filter="url(#filter0_d_111_1547)">
<path d="M130.068 16.0501V115.311C130.068 117.991 127.863 120.198 125.185 120.198H27.7892C25.1115 120.198 22.9062 117.991 22.9062 115.311V16.0501C22.9062 13.3704 25.1115 11.1636 27.7892 11.1636H125.185C127.863 11.1636 130.068 13.3704 130.068 16.0501Z" fill="#5C6479"/>
</g>
<rect x="31.4414" y="28.1938" width="56.2015" height="37.7907" rx="4" fill="#474E61"/>
<path opacity="0.5" d="M45.9766 50.0146H72.9843" stroke="#989FB0" stroke-width="2" stroke-miterlimit="10"/>
<path opacity="0.5" d="M45.9766 44.1152H72.9843" stroke="#989FB0" stroke-width="2" stroke-miterlimit="10"/>
<path d="M51.7905 37.8838H67.1703" stroke="#989FB0" stroke-width="3" stroke-miterlimit="10"/>
<path opacity="0.5" d="M53.7285 55.5352H64.59" stroke="#989FB0" stroke-width="2" stroke-miterlimit="10"/>
<rect width="56.2015" height="37.7907" rx="4" transform="matrix(-1 0 0 1 119.62 73.7363)" fill="#474E61"/>
<rect x="96.3643" y="28.1938" width="23.2558" height="37.7907" rx="4" fill="#474E61"/>
<rect width="23.2558" height="37.7907" rx="4" transform="matrix(-1 0 0 1 54.6973 73.7363)" fill="#474E61"/>
<path d="M130.068 16.0501V19.5967H22.9062V16.0501C22.9062 13.3704 25.1115 11.1636 27.7892 11.1636H125.185C127.863 11.1636 130.068 13.3704 130.068 16.0501Z" fill="#393F4E"/>
<path d="M28.0252 16.9168C28.8516 16.9168 29.5216 16.2464 29.5216 15.4194C29.5216 14.5923 28.8516 13.9219 28.0252 13.9219C27.1988 13.9219 26.5288 14.5923 26.5288 15.4194C26.5288 16.2464 27.1988 16.9168 28.0252 16.9168Z" fill="#C6CDDF"/>
<path opacity="0.6" d="M32.6722 16.9168C33.4986 16.9168 34.1686 16.2464 34.1686 15.4194C34.1686 14.5923 33.4986 13.9219 32.6722 13.9219C31.8457 13.9219 31.1758 14.5923 31.1758 15.4194C31.1758 16.2464 31.8457 16.9168 32.6722 16.9168Z" fill="#C6CDDF"/>
<path opacity="0.4" d="M37.3978 16.9168C38.2242 16.9168 38.8942 16.2464 38.8942 15.4194C38.8942 14.5923 38.2242 13.9219 37.3978 13.9219C36.5713 13.9219 35.9014 14.5923 35.9014 15.4194C35.9014 16.2464 36.5713 16.9168 37.3978 16.9168Z" fill="#C6CDDF"/>
<path opacity="0.5" d="M77.9536 96.5259H104.961" stroke="#989FB0" stroke-width="2" stroke-miterlimit="10"/>
<path opacity="0.5" d="M101.209 49.5117H114.775" stroke="#989FB0" stroke-width="2" stroke-miterlimit="10"/>
<path opacity="0.5" d="M36.2866 96.0234H49.8525" stroke="#989FB0" stroke-width="2" stroke-miterlimit="10"/>
<path opacity="0.5" d="M77.9536 90.627H104.961" stroke="#989FB0" stroke-width="2" stroke-miterlimit="10"/>
<path opacity="0.5" d="M101.209 43.6978H114.775" stroke="#989FB0" stroke-width="2" stroke-miterlimit="10"/>
<path opacity="0.5" d="M36.2866 90.2095H49.8525" stroke="#989FB0" stroke-width="2" stroke-miterlimit="10"/>
<path d="M83.7676 84.3955H99.1474" stroke="#989FB0" stroke-width="3" stroke-miterlimit="10"/>
<path d="M101.209 37.8838H108.961" stroke="#989FB0" stroke-width="3" stroke-miterlimit="10"/>
<path d="M36.2866 84.3955H44.0386" stroke="#989FB0" stroke-width="3" stroke-miterlimit="10"/>
<path opacity="0.5" d="M85.7056 102.047H96.5671" stroke="#989FB0" stroke-width="2" stroke-miterlimit="10"/>
<path opacity="0.5" d="M101.209 55.3257H106.054" stroke="#989FB0" stroke-width="2" stroke-miterlimit="10"/>
<path opacity="0.5" d="M36.2866 101.837H41.1316" stroke="#989FB0" stroke-width="2" stroke-miterlimit="10"/>
<defs>
<filter id="filter0_d_111_1547" x="0.90625" y="0.163574" width="151.162" height="153.034" filterUnits="userSpaceOnUse" color-interpolation-filters="sRGB">
<feFlood flood-opacity="0" result="BackgroundImageFix"/>
<feColorMatrix in="SourceAlpha" type="matrix" values="0 0 0 0 0 0 0 0 0 0 0 0 0 0 0 0 0 0 127 0" result="hardAlpha"/>
<feOffset dy="11"/>
<feGaussianBlur stdDeviation="11"/>
<feColorMatrix type="matrix" values="0 0 0 0 0 0 0 0 0 0 0 0 0 0 0 0 0 0 0.27 0"/>
<feBlend mode="normal" in2="BackgroundImageFix" result="effect1_dropShadow_111_1547"/>
<feBlend mode="normal" in="SourceGraphic" in2="effect1_dropShadow_111_1547" result="shape"/>
</filter>
</defs>
</svg>
