<svg width="147" height="125" viewBox="0 0 147 125" fill="none" xmlns="http://www.w3.org/2000/svg">
<path d="M62.7392 125C97.2322 125 125.194 97.0178 125.194 62.5C125.194 27.9822 97.2322 0 62.7392 0C28.2463 0 0.28418 27.9822 0.28418 62.5C0.28418 97.0178 28.2463 125 62.7392 125Z" fill="#2A2E37"/>
<mask id="mask0_111_2454" style="mask-type:alpha" maskUnits="userSpaceOnUse" x="1" y="0" width="146" height="125">
<path d="M107.799 106.589C96.4805 117.961 80.8123 125 63.5 125C28.9822 125 1 97.0178 1 62.5C1 27.9822 28.9822 0 63.5 0C83.1536 0 100.688 9.07151 112.146 23.2558H146.349V106.589H107.799Z" fill="#2A2E37"/>
</mask>
<g mask="url(#mask0_111_2454)">
<path d="M34.5695 20.8345H8.03027V102.204H34.5695V20.8345Z" fill="#474E61"/>
<path d="M25.4639 42.2183H17.0903V80.8194H25.4639V42.2183Z" fill="#5C6479"/>
<path d="M8.03027 32.2363H34.5695" stroke="#5C6479" stroke-width="3" stroke-miterlimit="10"/>
<path d="M8.03027 90.7563H34.5695" stroke="#5C6479" stroke-width="3" stroke-miterlimit="10"/>
<path d="M51.8662 0H36.6748V102.204H51.8662V0Z" fill="#474E61"/>
<path d="M46.6502 26.833H41.8457V75.3249H46.6502V26.833Z" fill="#5C6479"/>
<path d="M36.6748 14.3325H51.8205" stroke="#5C6479" stroke-width="3" stroke-miterlimit="10"/>
<path d="M36.6748 87.8257H51.8205" stroke="#5C6479" stroke-width="3" stroke-miterlimit="10"/>
<path d="M72.2609 3.62709L53.6216 6.45117L63.4098 71.0544L82.049 68.2304L72.2609 3.62709Z" fill="#474E61"/>
<path d="M68.4525 21.5697L62.5713 22.4614L67.2117 53.1111L73.093 52.2194L68.4525 21.5697Z" fill="#5C6479"/>
<path d="M54.9771 15.5227L73.646 12.7295" stroke="#5C6479" stroke-width="3" stroke-miterlimit="10"/>
<path d="M62.0244 61.9996L80.6476 59.1606" stroke="#5C6479" stroke-width="3" stroke-miterlimit="10"/>
<path d="M-18.1133 102.713H143.677" stroke="#5C6479" stroke-width="2" stroke-miterlimit="10" stroke-linecap="round" stroke-linejoin="round"/>
<path d="M126.981 35.8191C126.292 33.2697 124.682 31.0679 122.383 29.6773C119.854 28.1708 117.21 27.939 114.337 27.7073C109.279 27.1279 104.106 27.012 98.9334 27.2437C94.3354 27.3596 89.0477 27.1279 84.7946 29.0979C78.7022 31.7632 77.8976 37.6732 77.6677 44.0468C77.4378 48.798 77.4378 54.4762 78.7022 59.1116C79.7368 62.8198 82.6105 65.7169 86.4039 66.5281C91.2318 67.6869 101.577 67.9187 106.635 67.8028C107.095 67.8028 107.555 67.8028 108.014 67.8028C112.038 67.6869 116.291 67.6869 119.969 66.2963C123.073 65.2534 124.912 63.3992 126.062 61.0816C127.441 58.3004 127.786 54.8239 127.901 50.9998C128.361 46.0168 128.246 40.3385 126.981 35.8191Z" fill="url(#paint0_linear_111_2454)"/>
<path d="M98.4497 40.8399C98.4497 39.3109 99.2219 38.8013 100.477 39.6167C103.855 41.7573 107.33 43.9999 110.708 46.1404C111.963 46.9559 111.963 47.8733 110.708 48.7907C107.33 50.9313 103.951 53.1738 100.573 55.3144C99.2219 56.1299 98.5462 55.7221 98.4497 54.2951C98.4497 53.6835 98.4497 42.267 98.4497 40.8399Z" fill="#5C6479"/>
<path d="M129.597 98.6634H71.2102C63.3857 98.6634 57.0254 92.2985 57.0254 84.4684C57.0254 80.5305 58.6269 77.0046 61.1893 74.4404C63.7517 71.8761 67.3208 70.2734 71.2102 70.2734H129.597C128.361 71.0061 127.263 71.8761 126.256 72.8377C123.282 75.8141 121.452 79.9352 121.452 84.4684C121.452 90.5127 124.7 95.7786 129.597 98.6634Z" fill="#C6CDDF"/>
<path d="M130.924 101.256H71.2102C62.013 101.256 54.5088 93.7469 54.5088 84.543C54.5088 75.3392 62.013 67.8296 71.2102 67.8296H130.924C132.296 67.8296 133.44 68.9743 133.44 70.3481C133.44 71.7218 132.296 72.8665 130.924 72.8665H71.2102C64.7584 72.8665 59.5421 78.0866 59.5421 84.543C59.5421 90.9995 64.7584 96.2195 71.2102 96.2195H130.924C132.296 96.2195 133.44 97.3643 133.44 98.738C133.44 100.112 132.296 101.256 130.924 101.256Z" fill="#8E96AB"/>
<path d="M83.6565 109.515L78.0741 104.021L72.4917 109.515V89.8257H83.6565V109.515Z" fill="white"/>
</g>
<defs>
<linearGradient id="paint0_linear_111_2454" x1="89.157" y1="37.815" x2="104.655" y2="70.4339" gradientUnits="userSpaceOnUse">
<stop stop-color="#E3EAF7"/>
<stop offset="1" stop-color="#ADB6C8"/>
</linearGradient>
</defs>
</svg>
