<svg width="145" height="129" viewBox="0 0 145 129" fill="none" xmlns="http://www.w3.org/2000/svg">
<path d="M72.5 128.222C106.588 128.222 134.222 100.588 134.222 66.5C134.222 32.4121 106.588 4.77832 72.5 4.77832C38.4121 4.77832 10.7783 32.4121 10.7783 66.5C10.7783 100.588 38.4121 128.222 72.5 128.222Z" fill="#2A2E37"/>
<g filter="url(#filter0_d_140_19)">
<path d="M118.966 46.5747H26.1113C24.3211 46.5747 22.8423 45.0959 22.8423 43.3057V15.208C22.8423 13.4178 24.3211 11.939 26.1113 11.939H118.966C120.756 11.939 122.235 13.4178 122.235 15.208V43.3057C122.235 45.0959 120.756 46.5747 118.966 46.5747Z" fill="url(#paint0_linear_140_19)"/>
</g>
<path d="M112.35 22.7578H50.7845C49.9283 22.7578 49.3057 23.4583 49.3057 24.2366C49.3057 25.0928 50.0062 25.7155 50.7845 25.7155H112.35C113.207 25.7155 113.829 25.015 113.829 24.2366C113.829 23.3805 113.129 22.7578 112.35 22.7578Z" fill="#8E96AB"/>
<path d="M84.7197 32.7983H50.7845C49.9283 32.7983 49.3057 33.4988 49.3057 34.2772C49.3057 35.0555 50.0062 35.756 50.7845 35.756H84.7197C85.5759 35.756 86.1986 35.0555 86.1986 34.2772C86.1986 33.4988 85.5759 32.7983 84.7197 32.7983Z" fill="#8E96AB"/>
<path d="M37.0856 37.0012C41.3842 37.0012 44.8689 33.5165 44.8689 29.2179C44.8689 24.9193 41.3842 21.4346 37.0856 21.4346C32.787 21.4346 29.3022 24.9193 29.3022 29.2179C29.3022 33.5165 32.787 37.0012 37.0856 37.0012Z" fill="#5C6479"/>
<path d="M40.5881 26.1823C40.1211 25.871 39.4984 25.9488 39.1871 26.338L36.3851 30.074L34.7506 28.5952C34.3614 28.206 33.7388 28.2838 33.3496 28.673C32.9604 29.0622 33.0383 29.6848 33.4274 30.074L35.8403 32.2533C35.9959 32.409 36.2294 32.4868 36.5408 32.4868H36.6186C36.9299 32.4868 37.1634 32.3312 37.3191 32.0977L40.8216 27.5055C41.1329 27.1163 41.0551 26.4937 40.5881 26.1823Z" fill="#C6CDDF"/>
<path d="M110.794 85.4913H25.8001C24.1656 85.4913 22.7646 84.1681 22.7646 82.4558V56.7708C22.7646 55.1363 24.0878 53.7354 25.8001 53.7354H110.794C112.428 53.7354 113.829 55.0585 113.829 56.7708V82.5336C113.829 84.1681 112.506 85.4913 110.794 85.4913Z" fill="#5C6479"/>
<path d="M104.801 63.698H48.3715C47.5932 63.698 47.0483 64.3207 47.0483 65.0212C47.0483 65.7217 47.671 66.3443 48.3715 66.3443H104.723C105.501 66.3443 106.046 65.7217 106.046 65.0212C106.046 64.3207 105.501 63.698 104.801 63.698Z" fill="#8E96AB"/>
<path d="M79.5048 72.8823H48.3715C47.5932 72.8823 47.0483 73.505 47.0483 74.2055C47.0483 74.906 47.671 75.5287 48.3715 75.5287H79.4269C80.2052 75.5287 80.7501 74.906 80.7501 74.2055C80.7501 73.505 80.2053 72.8823 79.5048 72.8823Z" fill="#8E96AB"/>
<path d="M35.8406 76.6961C39.7524 76.6961 42.9234 73.5251 42.9234 69.6133C42.9234 65.7016 39.7524 62.5305 35.8406 62.5305C31.9289 62.5305 28.7578 65.7016 28.7578 69.6133C28.7578 73.5251 31.9289 76.6961 35.8406 76.6961Z" stroke="#8E96AB" stroke-width="1.5" stroke-miterlimit="10"/>
<path d="M103.4 122.773H25.5664C24.0098 122.773 22.8423 121.528 22.8423 120.049V96.4659C22.8423 94.9092 24.0876 93.7417 25.5664 93.7417H103.4C104.956 93.7417 106.124 94.987 106.124 96.4659V119.971C106.124 121.528 104.878 122.773 103.4 122.773Z" fill="#5C6479"/>
<path d="M97.8736 102.77H46.2702C45.5697 102.77 45.0249 103.315 45.0249 104.016C45.0249 104.716 45.5697 105.261 46.2702 105.261H97.8736C98.5741 105.261 99.1189 104.716 99.1189 104.016C99.1189 103.315 98.4963 102.77 97.8736 102.77Z" fill="#8E96AB"/>
<path d="M74.6793 111.176H46.2702C45.5697 111.176 45.0249 111.721 45.0249 112.422C45.0249 113.122 45.5697 113.667 46.2702 113.667H74.7572C75.4577 113.667 76.0025 113.122 76.0025 112.422C75.9247 111.721 75.3798 111.176 74.6793 111.176Z" fill="#8E96AB"/>
<path d="M34.7509 114.757C38.3617 114.757 41.2889 111.829 41.2889 108.219C41.2889 104.608 38.3617 101.681 34.7509 101.681C31.14 101.681 28.2129 104.608 28.2129 108.219C28.2129 111.829 31.14 114.757 34.7509 114.757Z" stroke="#8E96AB" stroke-width="1.5" stroke-miterlimit="10"/>
<defs>
<filter id="filter0_d_140_19" x="0.842285" y="0.938965" width="143.393" height="78.6357" filterUnits="userSpaceOnUse" color-interpolation-filters="sRGB">
<feFlood flood-opacity="0" result="BackgroundImageFix"/>
<feColorMatrix in="SourceAlpha" type="matrix" values="0 0 0 0 0 0 0 0 0 0 0 0 0 0 0 0 0 0 127 0" result="hardAlpha"/>
<feOffset dy="11"/>
<feGaussianBlur stdDeviation="11"/>
<feColorMatrix type="matrix" values="0 0 0 0 0 0 0 0 0 0 0 0 0 0 0 0 0 0 0.27 0"/>
<feBlend mode="normal" in2="BackgroundImageFix" result="effect1_dropShadow_140_19"/>
<feBlend mode="normal" in="SourceGraphic" in2="effect1_dropShadow_140_19" result="shape"/>
</filter>
<linearGradient id="paint0_linear_140_19" x1="45.6415" y1="21.0308" x2="52.3607" y2="53.6745" gradientUnits="userSpaceOnUse">
<stop stop-color="#E3EAF7"/>
<stop offset="1" stop-color="#ADB6C8"/>
</linearGradient>
</defs>
</svg>
