<svg width="156" height="159" viewBox="0 0 156 159" fill="none" xmlns="http://www.w3.org/2000/svg">
<path d="M73.0034 131C107.496 131 135.458 103.018 135.458 68.5C135.458 33.9822 107.496 6 73.0034 6C38.5104 6 10.5483 33.9822 10.5483 68.5C10.5483 103.018 38.5104 131 73.0034 131Z" fill="#2A2E37"/>
<g filter="url(#filter0_d_111_1323)">
<path d="M119.663 125.562H27.3587C24.5234 125.562 22.1606 123.276 22.1606 120.36V16.64C22.1606 13.8027 24.4446 11.5171 27.3587 11.5171H119.663C122.498 11.5171 124.861 13.8027 124.861 16.7189V120.36C124.861 123.197 122.577 125.562 119.663 125.562Z" fill="#5C6479"/>
</g>
<path d="M113.913 42.8064H32.4773C31.5322 42.8064 30.7446 42.0182 30.7446 41.0725V25.6248C30.7446 24.679 31.5322 23.8909 32.4773 23.8909H113.913C114.858 23.8909 115.646 24.679 115.646 25.6248V40.9936C115.724 42.0182 114.937 42.8064 113.913 42.8064Z" fill="#474E61"/>
<path d="M39.2509 35.713C40.5558 35.713 41.6137 34.6544 41.6137 33.3486C41.6137 32.0427 40.5558 30.9841 39.2509 30.9841C37.946 30.9841 36.8882 32.0427 36.8882 33.3486C36.8882 34.6544 37.946 35.713 39.2509 35.713Z" fill="#AAB2C5"/>
<path d="M97.3738 34.925H49.5677C49.1739 34.925 48.8589 34.6097 48.8589 34.2157V32.4029C48.8589 32.0089 49.1739 31.6936 49.5677 31.6936H97.3738C97.7676 31.6936 98.0826 32.0089 98.0826 32.4029V34.2157C98.0826 34.6097 97.7676 34.925 97.3738 34.925Z" fill="#AAB2C5"/>
<path d="M113.913 67.0813H32.4773C31.5322 67.0813 30.7446 66.2932 30.7446 65.3474V49.9786C30.7446 49.0328 31.5322 48.2446 32.4773 48.2446H113.913C114.858 48.2446 115.646 49.0328 115.646 49.9786V65.3474C115.724 66.2932 114.937 67.0813 113.913 67.0813Z" fill="#474E61"/>
<path d="M39.2509 59.9879C40.5558 59.9879 41.6137 58.9293 41.6137 57.6235C41.6137 56.3176 40.5558 55.259 39.2509 55.259C37.946 55.259 36.8882 56.3176 36.8882 57.6235C36.8882 58.9293 37.946 59.9879 39.2509 59.9879Z" fill="#AAB2C5"/>
<path d="M97.3738 59.2788H49.5677C49.1739 59.2788 48.8589 58.9635 48.8589 58.5694V56.7567C48.8589 56.3626 49.1739 56.0474 49.5677 56.0474H97.3738C97.7676 56.0474 98.0826 56.3626 98.0826 56.7567V58.5694C98.0826 58.9635 97.7676 59.2788 97.3738 59.2788Z" fill="#AAB2C5"/>
<path d="M113.913 115.71H32.4773C31.5322 115.71 30.7446 114.922 30.7446 113.976V98.6072C30.7446 97.6614 31.5322 96.8733 32.4773 96.8733H113.913C114.858 96.8733 115.646 97.6614 115.646 98.6072V113.976C115.724 114.922 114.937 115.71 113.913 115.71Z" fill="#474E61"/>
<path d="M39.2509 108.617C40.5558 108.617 41.6137 107.558 41.6137 106.252C41.6137 104.946 40.5558 103.888 39.2509 103.888C37.946 103.888 36.8882 104.946 36.8882 106.252C36.8882 107.558 37.946 108.617 39.2509 108.617Z" fill="#AAB2C5"/>
<path d="M97.3738 107.829H49.5677C49.1739 107.829 48.8589 107.513 48.8589 107.119V105.307C48.8589 104.912 49.1739 104.597 49.5677 104.597H97.3738C97.7676 104.597 98.0826 104.912 98.0826 105.307V107.119C98.0826 107.513 97.7676 107.829 97.3738 107.829Z" fill="#AAB2C5"/>
<g filter="url(#filter1_d_111_1323)">
<path d="M132.106 91.3562H50.6702C49.7251 91.3562 48.9375 90.5681 48.9375 89.6223V74.2535C48.9375 73.3077 49.7251 72.5195 50.6702 72.5195H132.106C133.051 72.5195 133.839 73.3077 133.839 74.2535V89.6223C133.839 90.5681 133.051 91.3562 132.106 91.3562Z" fill="url(#paint0_linear_111_1323)"/>
</g>
<path d="M57.4438 84.3417C58.7487 84.3417 59.8065 83.2831 59.8065 81.9772C59.8065 80.6714 58.7487 79.6128 57.4438 79.6128C56.1389 79.6128 55.0811 80.6714 55.0811 81.9772C55.0811 83.2831 56.1389 84.3417 57.4438 84.3417Z" fill="#8E96AB"/>
<path d="M115.567 83.5537H67.7606C67.3668 83.5537 67.0518 83.2384 67.0518 82.8443V81.0316C67.0518 80.6375 67.3668 80.3223 67.7606 80.3223H115.567C115.96 80.3223 116.275 80.6375 116.275 81.0316V82.8443C116.275 83.2384 115.96 83.5537 115.567 83.5537Z" fill="#8E96AB"/>
<defs>
<filter id="filter0_d_111_1323" x="0.160645" y="0.51709" width="146.7" height="158.045" filterUnits="userSpaceOnUse" color-interpolation-filters="sRGB">
<feFlood flood-opacity="0" result="BackgroundImageFix"/>
<feColorMatrix in="SourceAlpha" type="matrix" values="0 0 0 0 0 0 0 0 0 0 0 0 0 0 0 0 0 0 127 0" result="hardAlpha"/>
<feOffset dy="11"/>
<feGaussianBlur stdDeviation="11"/>
<feColorMatrix type="matrix" values="0 0 0 0 0 0 0 0 0 0 0 0 0 0 0 0 0 0 0.27 0"/>
<feBlend mode="normal" in2="BackgroundImageFix" result="effect1_dropShadow_111_1323"/>
<feBlend mode="normal" in="SourceGraphic" in2="effect1_dropShadow_111_1323" result="shape"/>
</filter>
<filter id="filter1_d_111_1323" x="26.9375" y="61.5195" width="128.901" height="62.8367" filterUnits="userSpaceOnUse" color-interpolation-filters="sRGB">
<feFlood flood-opacity="0" result="BackgroundImageFix"/>
<feColorMatrix in="SourceAlpha" type="matrix" values="0 0 0 0 0 0 0 0 0 0 0 0 0 0 0 0 0 0 127 0" result="hardAlpha"/>
<feOffset dy="11"/>
<feGaussianBlur stdDeviation="11"/>
<feColorMatrix type="matrix" values="0 0 0 0 0 0 0 0 0 0 0 0 0 0 0 0 0 0 0.27 0"/>
<feBlend mode="normal" in2="BackgroundImageFix" result="effect1_dropShadow_111_1323"/>
<feBlend mode="normal" in="SourceGraphic" in2="effect1_dropShadow_111_1323" result="shape"/>
</filter>
<linearGradient id="paint0_linear_111_1323" x1="68.4125" y1="77.4642" x2="70.7968" y2="95.6572" gradientUnits="userSpaceOnUse">
<stop stop-color="#E3EAF7"/>
<stop offset="1" stop-color="#ADB6C8"/>
</linearGradient>
</defs>
</svg>
