<svg width="158" height="137" viewBox="0 0 158 137" fill="none" xmlns="http://www.w3.org/2000/svg">
<path d="M79.0034 125C113.496 125 141.458 97.0178 141.458 62.5C141.458 27.9822 113.496 0 79.0034 0C44.5104 0 16.5483 27.9822 16.5483 62.5C16.5483 97.0178 44.5104 125 79.0034 125Z" fill="#2A2E37"/>
<g filter="url(#filter0_d_111_1151)">
<path d="M135.973 25.6472V98.7457C135.973 101.425 133.768 103.632 131.09 103.632H26.9162C24.2384 103.632 22.0332 101.425 22.0332 98.7457V25.6472C22.0332 22.9676 24.2384 20.7607 26.9162 20.7607H131.09C133.768 20.7607 135.973 22.9676 135.973 25.6472Z" fill="#474E61"/>
</g>
<path d="M22.4814 28.9258H50.2592V104.148H26.4814C24.2723 104.148 22.4814 102.357 22.4814 100.148V28.9258Z" fill="#393F4E"/>
<rect x="57.6978" y="35.853" width="72.6744" height="31.9767" rx="2" fill="#393F4E"/>
<g opacity="0.3">
<path d="M96.889 48.6393C97.7372 48.6393 98.4249 47.9462 98.4249 47.0911C98.4249 46.2361 97.7372 45.543 96.889 45.543C96.0407 45.543 95.353 46.2361 95.353 47.0911C95.353 47.9462 96.0407 48.6393 96.889 48.6393Z" fill="#C6CDDF"/>
<path d="M96.9785 58.6912H85.2606C84.5046 58.6912 84.0636 57.8069 84.5046 57.2384L90.3636 49.0269C90.7416 48.5216 91.4976 48.5216 91.8756 49.0269L97.7345 57.2384C98.1755 57.8701 97.7345 58.6912 96.9785 58.6912Z" fill="#C6CDDF"/>
<path opacity="0.7" d="M101.059 58.5235H95.2915C94.4155 58.5235 93.9775 57.6054 94.4155 56.9697L97.2625 53.0854C97.7005 52.5204 98.5035 52.5204 98.9415 53.0854L101.789 56.9697C102.446 57.6054 101.935 58.5235 101.059 58.5235Z" fill="#C6CDDF"/>
</g>
<rect x="57.6978" y="73.6436" width="22.2868" height="23.2558" rx="2" fill="#393F4E"/>
<rect x="83.8604" y="73.6436" width="20.3488" height="23.2558" rx="2" fill="#393F4E"/>
<rect x="108.085" y="73.6436" width="22.2868" height="23.2558" rx="2" fill="#393F4E"/>
<path d="M28.6279 38.7598H44.1318" stroke="#5C6479" stroke-width="2" stroke-miterlimit="10"/>
<path d="M28.6279 46.5117H41.2248" stroke="#5C6479" stroke-width="2" stroke-miterlimit="10"/>
<path d="M28.6279 54.2637H45.1008" stroke="#5C6479" stroke-width="2" stroke-miterlimit="10"/>
<path d="M28.6279 62.0156H35.4109" stroke="#5C6479" stroke-width="2" stroke-miterlimit="10"/>
<path d="M28.6279 69.7676H42.1938" stroke="#5C6479" stroke-width="2" stroke-miterlimit="10"/>
<path d="M28.6279 77.5195H37.3489" stroke="#5C6479" stroke-width="2" stroke-miterlimit="10"/>
<path d="M135.973 25.6472V29.1939H22.0332V25.6472C22.0332 22.9676 24.2384 20.7607 26.9162 20.7607H131.09C133.768 20.7607 135.973 22.9676 135.973 25.6472Z" fill="#393F4E"/>
<path d="M27.1522 26.5145C27.9786 26.5145 28.6486 25.844 28.6486 25.017C28.6486 24.19 27.9786 23.5195 27.1522 23.5195C26.3257 23.5195 25.6558 24.19 25.6558 25.017C25.6558 25.844 26.3257 26.5145 27.1522 26.5145Z" fill="#C6CDDF"/>
<path opacity="0.6" d="M31.7991 26.5145C32.6256 26.5145 33.2955 25.844 33.2955 25.017C33.2955 24.19 32.6256 23.5195 31.7991 23.5195C30.9727 23.5195 30.3027 24.19 30.3027 25.017C30.3027 25.844 30.9727 26.5145 31.7991 26.5145Z" fill="#C6CDDF"/>
<path opacity="0.4" d="M36.5247 26.5145C37.3512 26.5145 38.0211 25.844 38.0211 25.017C38.0211 24.19 37.3512 23.5195 36.5247 23.5195C35.6983 23.5195 35.0283 24.19 35.0283 25.017C35.0283 25.844 35.6983 26.5145 36.5247 26.5145Z" fill="#C6CDDF"/>
<path d="M84.8291 61.0464L98.181 71.2734C104.438 76.0661 111.245 80.0945 118.458 83.2729L136.186 91.0851" stroke="#C6CDDF" stroke-width="4" stroke-linecap="round" stroke-linejoin="round" stroke-dasharray="1.5 7"/>
<path d="M74.6548 60.562L57.1667 73.0054C52.0412 76.6524 46.5798 79.8026 40.8565 82.4132L21.8447 91.0853" stroke="#C6CDDF" stroke-width="4" stroke-linecap="round" stroke-linejoin="round" stroke-dasharray="1.5 7"/>
<path d="M79.9844 54.7483L83.8358 54.2951C102.95 52.0464 121.24 45.2216 137.155 34.3994V34.3994" stroke="#C6CDDF" stroke-width="4" stroke-linecap="round" stroke-linejoin="round" stroke-dasharray="1.5 7"/>
<path d="M79.0151 54.7483L75.1637 54.2951C56.0496 52.0464 37.7596 45.2216 21.8446 34.3994V34.3994" stroke="#C6CDDF" stroke-width="4" stroke-linecap="round" stroke-linejoin="round" stroke-dasharray="1.5 7"/>
<path d="M86.0325 83.0566H72.7767C71.3163 83.0566 70.1367 81.857 70.1367 80.3719V61.6935C70.1367 56.4955 74.2932 52.3257 79.3484 52.3257C84.4036 52.3257 88.5601 56.5526 88.5601 61.6935V80.429C88.6162 81.857 87.4367 83.0566 86.0325 83.0566ZM75.4166 77.7444H83.3925V61.6935C83.3925 59.4658 81.5951 57.6379 79.4046 57.6379C77.214 57.6379 75.4166 59.4658 75.4166 61.6935V77.7444Z" fill="url(#paint0_linear_111_1151)"/>
<path d="M91.6503 88.1786H67.0487C65.3779 88.1786 63.9951 86.7882 63.9951 85.1081V68.713C63.9951 67.033 65.3779 65.6426 67.0487 65.6426H91.6503C93.3212 65.6426 94.7039 67.033 94.7039 68.713V85.1081C94.7039 86.7882 93.3212 88.1786 91.6503 88.1786Z" fill="url(#paint1_linear_111_1151)"/>
<path d="M82.4206 74.7613C82.4206 75.9269 81.7382 76.9259 80.7714 77.4254V80.6446C80.7714 81.4216 80.1458 82.0322 79.3497 82.0322C78.5535 82.0322 77.928 81.4216 77.928 80.6446V77.4254C76.9612 76.9259 76.2788 75.9269 76.2788 74.7613C76.2788 73.0962 77.6436 71.7642 79.3497 71.7642C81.0557 71.7642 82.4206 73.0962 82.4206 74.7613Z" fill="#393F4E"/>
<defs>
<filter id="filter0_d_111_1151" x="0.0332031" y="9.76074" width="157.94" height="126.872" filterUnits="userSpaceOnUse" color-interpolation-filters="sRGB">
<feFlood flood-opacity="0" result="BackgroundImageFix"/>
<feColorMatrix in="SourceAlpha" type="matrix" values="0 0 0 0 0 0 0 0 0 0 0 0 0 0 0 0 0 0 127 0" result="hardAlpha"/>
<feOffset dy="11"/>
<feGaussianBlur stdDeviation="11"/>
<feColorMatrix type="matrix" values="0 0 0 0 0 0 0 0 0 0 0 0 0 0 0 0 0 0 0.27 0"/>
<feBlend mode="normal" in2="BackgroundImageFix" result="effect1_dropShadow_111_1151"/>
<feBlend mode="normal" in="SourceGraphic" in2="effect1_dropShadow_111_1151" result="shape"/>
</filter>
<linearGradient id="paint0_linear_111_1151" x1="74.3632" y1="60.3925" x2="89.4568" y2="75.7133" gradientUnits="userSpaceOnUse">
<stop stop-color="#E3EAF7"/>
<stop offset="1" stop-color="#ADB6C8"/>
</linearGradient>
<linearGradient id="paint1_linear_111_1151" x1="71.0393" y1="71.5583" x2="79.1182" y2="90.1959" gradientUnits="userSpaceOnUse">
<stop stop-color="#E3EAF7"/>
<stop offset="1" stop-color="#ADB6C8"/>
</linearGradient>
</defs>
</svg>
