<svg width="178" height="140" viewBox="0 0 178 140" fill="none" xmlns="http://www.w3.org/2000/svg">
<path d="M79.289 125C113.782 125 141.744 97.0178 141.744 62.5C141.744 27.9822 113.782 0 79.289 0C44.7961 0 16.834 27.9822 16.834 62.5C16.834 97.0178 44.7961 125 79.289 125Z" fill="#2A2E37"/>
<g filter="url(#filter0_d_111_1967)">
<path d="M136.902 25.2615V101.676C136.902 104.37 134.691 106.589 132.006 106.589H27.5402C24.8549 106.589 22.6436 104.37 22.6436 101.676V25.2615C22.6436 22.5673 24.8549 20.3486 27.5402 20.3486H132.006C134.691 20.3486 136.902 22.5673 136.902 25.2615Z" fill="#5C6479"/>
</g>
<path d="M101.244 57.0715C100.636 54.8256 99.2183 52.8859 97.193 51.6609C94.9651 50.3338 92.636 50.1296 90.1044 49.9254C85.6487 49.415 81.0918 49.3129 76.5348 49.517C72.4842 49.6191 67.826 49.415 64.0792 51.1505C58.7121 53.4985 58.0033 58.7049 57.8007 64.3197C57.5982 68.5053 57.5982 73.5076 58.7121 77.5911C59.6235 80.8579 62.1552 83.4101 65.4969 84.1247C69.7501 85.1455 78.8639 85.3497 83.3196 85.2476C83.7247 85.2476 84.1297 85.2476 84.5348 85.2476C88.0791 85.1455 91.8259 85.1455 95.0664 83.9205C97.8006 83.0017 99.4208 81.3683 100.433 79.3266C101.649 76.8765 101.952 73.8138 102.054 70.445C102.459 66.0552 102.358 61.0529 101.244 57.0715Z" fill="url(#paint0_linear_111_1967)"/>
<path d="M76.1084 61.4946C76.1084 60.1476 76.7886 59.6986 77.894 60.417C80.8701 62.3028 83.9312 64.2783 86.9073 66.1641C88.0127 66.8825 88.0127 67.6906 86.9073 68.4988C83.9312 70.3846 80.9551 72.3601 77.9791 74.2459C76.7886 74.9643 76.1934 74.6051 76.1084 73.3479C76.1084 72.8091 76.1084 62.7518 76.1084 61.4946Z" fill="#5C6479"/>
<path d="M136.902 25.6468V29.1934H22.6436V25.6468C22.6436 22.9671 24.8549 20.7603 27.5402 20.7603H132.006C134.691 20.7603 136.902 22.9671 136.902 25.6468Z" fill="#393F4E"/>
<path d="M27.4378 26.5135C28.2642 26.5135 28.9342 25.8431 28.9342 25.016C28.9342 24.189 28.2642 23.5186 27.4378 23.5186C26.6114 23.5186 25.9414 24.189 25.9414 25.016C25.9414 25.8431 26.6114 26.5135 27.4378 26.5135Z" fill="#C6CDDF"/>
<path opacity="0.6" d="M32.0843 26.5135C32.9107 26.5135 33.5807 25.8431 33.5807 25.016C33.5807 24.189 32.9107 23.5186 32.0843 23.5186C31.2579 23.5186 30.5879 24.189 30.5879 25.016C30.5879 25.8431 31.2579 26.5135 32.0843 26.5135Z" fill="#C6CDDF"/>
<path opacity="0.4" d="M36.8099 26.5135C37.6363 26.5135 38.3063 25.8431 38.3063 25.016C38.3063 24.189 37.6363 23.5186 36.8099 23.5186C35.9834 23.5186 35.3135 24.189 35.3135 25.016C35.3135 25.8431 35.9834 26.5135 36.8099 26.5135Z" fill="#C6CDDF"/>
<g filter="url(#filter1_d_111_1967)">
<rect x="109.054" y="40.6978" width="46.5116" height="46.5116" rx="6" fill="#5C6479"/>
</g>
<rect x="114.003" y="45.646" width="36.6155" height="36.6155" rx="2" fill="#474E61"/>
<path d="M136.507 59.6811C137.355 59.6811 138.042 58.9956 138.042 58.1501C138.042 57.3046 137.355 56.6191 136.507 56.6191C135.659 56.6191 134.972 57.3046 134.972 58.1501C134.972 58.9956 135.659 59.6811 136.507 59.6811Z" fill="#8E96AB"/>
<path d="M136.596 69.6211H124.885C124.13 69.6211 123.689 68.7466 124.13 68.1844L129.985 60.0642C130.363 59.5645 131.118 59.5645 131.496 60.0642L137.352 68.1844C137.793 68.8091 137.352 69.6211 136.596 69.6211Z" fill="#8E96AB"/>
<path opacity="0.7" d="M140.674 69.4554H134.91C134.035 69.4554 133.597 68.5475 134.035 67.9189L136.88 64.0777C137.318 63.519 138.12 63.519 138.558 64.0777L141.403 67.9189C142.06 68.5475 141.549 69.4554 140.674 69.4554Z" fill="#8E96AB"/>
<defs>
<filter id="filter0_d_111_1967" x="0.643555" y="9.34863" width="158.259" height="130.24" filterUnits="userSpaceOnUse" color-interpolation-filters="sRGB">
<feFlood flood-opacity="0" result="BackgroundImageFix"/>
<feColorMatrix in="SourceAlpha" type="matrix" values="0 0 0 0 0 0 0 0 0 0 0 0 0 0 0 0 0 0 127 0" result="hardAlpha"/>
<feOffset dy="11"/>
<feGaussianBlur stdDeviation="11"/>
<feColorMatrix type="matrix" values="0 0 0 0 0 0 0 0 0 0 0 0 0 0 0 0 0 0 0.27 0"/>
<feBlend mode="normal" in2="BackgroundImageFix" result="effect1_dropShadow_111_1967"/>
<feBlend mode="normal" in="SourceGraphic" in2="effect1_dropShadow_111_1967" result="shape"/>
</filter>
<filter id="filter1_d_111_1967" x="87.0542" y="29.6978" width="90.5117" height="90.5117" filterUnits="userSpaceOnUse" color-interpolation-filters="sRGB">
<feFlood flood-opacity="0" result="BackgroundImageFix"/>
<feColorMatrix in="SourceAlpha" type="matrix" values="0 0 0 0 0 0 0 0 0 0 0 0 0 0 0 0 0 0 127 0" result="hardAlpha"/>
<feOffset dy="11"/>
<feGaussianBlur stdDeviation="11"/>
<feColorMatrix type="matrix" values="0 0 0 0 0 0 0 0 0 0 0 0 0 0 0 0 0 0 0.27 0"/>
<feBlend mode="normal" in2="BackgroundImageFix" result="effect1_dropShadow_111_1967"/>
<feBlend mode="normal" in="SourceGraphic" in2="effect1_dropShadow_111_1967" result="shape"/>
</filter>
<linearGradient id="paint0_linear_111_1967" x1="67.9223" y1="58.8298" x2="81.5749" y2="87.5655" gradientUnits="userSpaceOnUse">
<stop stop-color="#E3EAF7"/>
<stop offset="1" stop-color="#ADB6C8"/>
</linearGradient>
</defs>
</svg>
