<svg width="186" height="136" viewBox="0 0 186 136" fill="none" xmlns="http://www.w3.org/2000/svg">
<path d="M92.8525 125C127.346 125 155.308 97.0178 155.308 62.5C155.308 27.9822 127.346 0 92.8525 0C58.3595 0 30.3975 27.9822 30.3975 62.5C30.3975 97.0178 58.3595 125 92.8525 125Z" fill="#2A2E37"/>
<path d="M52.2856 34.8296C59.2 34.8296 74.9647 34.8296 80.0813 52.2748" stroke="#8E96AB" stroke-width="3" stroke-miterlimit="10" stroke-linecap="round" stroke-linejoin="round"/>
<path d="M132.354 34.8296C125.44 34.8296 109.675 34.8296 104.559 52.2748" stroke="#8E96AB" stroke-width="3" stroke-miterlimit="10" stroke-linecap="round" stroke-linejoin="round"/>
<path d="M52.2856 94.1434C59.2 94.1434 74.9647 94.1434 80.0813 76.6982" stroke="#8E96AB" stroke-width="3" stroke-miterlimit="10" stroke-linecap="round" stroke-linejoin="round"/>
<path d="M132.354 94.1434C125.44 94.1434 109.675 94.1434 104.559 76.6982" stroke="#8E96AB" stroke-width="3" stroke-miterlimit="10" stroke-linecap="round" stroke-linejoin="round"/>
<g filter="url(#filter0_d_111_453)">
<path d="M53.1918 43.6047H25.033C23.7721 43.6047 22.6514 42.6107 22.6514 41.3326V29.546C22.6514 28.2679 23.7721 27.1318 25.033 27.1318H53.1918C54.4527 27.1318 55.5734 28.2679 55.5734 29.546V41.3326C55.5734 42.6107 54.4527 43.6047 53.1918 43.6047Z" fill="#5C6479"/>
</g>
<path d="M46.8585 36.8215H31.3658C30.8124 36.8215 30.3975 36.1986 30.3975 35.368C30.3975 34.5375 30.8124 33.9146 31.3658 33.9146H46.8585C47.4118 33.9146 47.8268 34.5375 47.8268 35.368C47.8268 36.1986 47.4118 36.8215 46.8585 36.8215Z" fill="#8E96AB"/>
<g filter="url(#filter1_d_111_453)">
<path d="M160.672 43.6047H132.513C131.253 43.6047 130.132 42.6107 130.132 41.3326V29.546C130.132 28.2679 131.253 27.1318 132.513 27.1318H160.672C161.933 27.1318 163.054 28.2679 163.054 29.546V41.3326C163.054 42.6107 161.933 43.6047 160.672 43.6047Z" fill="#5C6479"/>
</g>
<g filter="url(#filter2_d_111_453)">
<path d="M132.483 86.2402H160.278C161.523 86.2402 162.629 87.3567 162.629 88.6128V100.196C162.629 101.452 161.523 102.569 160.278 102.569H132.483C131.238 102.569 130.132 101.452 130.132 100.196V88.6128C130.27 87.3567 131.238 86.2402 132.483 86.2402Z" fill="#5C6479"/>
</g>
<path d="M154.339 95.9304H138.847C138.293 95.9304 137.878 95.3075 137.878 94.4769C137.878 93.6464 138.293 93.0234 138.847 93.0234H154.339C154.893 93.0234 155.308 93.6464 155.308 94.4769C155.308 95.3075 154.893 95.9304 154.339 95.9304Z" fill="#8E96AB"/>
<path d="M154.339 36.8215H138.847C138.293 36.8215 137.878 36.1986 137.878 35.368C137.878 34.5375 138.293 33.9146 138.847 33.9146H154.339C154.893 33.9146 155.308 34.5375 155.308 35.368C155.308 36.1986 154.893 36.8215 154.339 36.8215Z" fill="#8E96AB"/>
<path d="M115.994 78.4885H68.5832C66.1968 78.4885 64.2876 76.5505 64.2876 74.128V54.7482C64.2876 52.3257 66.1968 50.3877 68.5832 50.3877H116.153C118.54 50.3877 120.449 52.3257 120.449 54.7482V74.128C120.29 76.5505 118.38 78.4885 115.994 78.4885Z" fill="url(#paint0_linear_111_453)"/>
<path d="M106.067 62.9844H78.6694C77.6909 62.9844 76.8755 62.1035 76.8755 61.0464C76.8755 59.9893 77.6909 59.1084 78.6694 59.1084H106.067C107.046 59.1084 107.861 59.9893 107.861 61.0464C107.861 62.1035 107.046 62.9844 106.067 62.9844Z" fill="#8E96AB"/>
<path d="M100.976 69.7673H83.7614C83.1466 69.7673 82.6855 69.1444 82.6855 68.3138C82.6855 67.4833 83.1466 66.8604 83.7614 66.8604H100.976C101.59 66.8604 102.051 67.4833 102.051 68.3138C102.051 69.1444 101.59 69.7673 100.976 69.7673Z" fill="#8E96AB"/>
<g filter="url(#filter3_d_111_453)">
<path d="M53.0947 102.744H24.9358C23.6749 102.744 22.5542 101.75 22.5542 100.472V88.6856C22.5542 87.4075 23.6749 86.2715 24.9358 86.2715H53.0947C54.3555 86.2715 55.4762 87.4075 55.4762 88.6856V100.472C55.4762 101.75 54.3555 102.744 53.0947 102.744Z" fill="#5C6479"/>
</g>
<path d="M46.8585 95.9304H31.3658C30.8124 95.9304 30.3975 95.3075 30.3975 94.4769C30.3975 93.6464 30.8124 93.0234 31.3658 93.0234H46.8585C47.4118 93.0234 47.8268 93.6464 47.8268 94.4769C47.8268 95.3075 47.4118 95.9304 46.8585 95.9304Z" fill="#8E96AB"/>
<defs>
<filter id="filter0_d_111_453" x="0.651367" y="16.1318" width="76.9219" height="60.4727" filterUnits="userSpaceOnUse" color-interpolation-filters="sRGB">
<feFlood flood-opacity="0" result="BackgroundImageFix"/>
<feColorMatrix in="SourceAlpha" type="matrix" values="0 0 0 0 0 0 0 0 0 0 0 0 0 0 0 0 0 0 127 0" result="hardAlpha"/>
<feOffset dy="11"/>
<feGaussianBlur stdDeviation="11"/>
<feColorMatrix type="matrix" values="0 0 0 0 0 0 0 0 0 0 0 0 0 0 0 0 0 0 0.27 0"/>
<feBlend mode="normal" in2="BackgroundImageFix" result="effect1_dropShadow_111_453"/>
<feBlend mode="normal" in="SourceGraphic" in2="effect1_dropShadow_111_453" result="shape"/>
</filter>
<filter id="filter1_d_111_453" x="108.132" y="16.1318" width="76.9219" height="60.4727" filterUnits="userSpaceOnUse" color-interpolation-filters="sRGB">
<feFlood flood-opacity="0" result="BackgroundImageFix"/>
<feColorMatrix in="SourceAlpha" type="matrix" values="0 0 0 0 0 0 0 0 0 0 0 0 0 0 0 0 0 0 127 0" result="hardAlpha"/>
<feOffset dy="11"/>
<feGaussianBlur stdDeviation="11"/>
<feColorMatrix type="matrix" values="0 0 0 0 0 0 0 0 0 0 0 0 0 0 0 0 0 0 0.27 0"/>
<feBlend mode="normal" in2="BackgroundImageFix" result="effect1_dropShadow_111_453"/>
<feBlend mode="normal" in="SourceGraphic" in2="effect1_dropShadow_111_453" result="shape"/>
</filter>
<filter id="filter2_d_111_453" x="108.132" y="75.2402" width="76.4976" height="60.3286" filterUnits="userSpaceOnUse" color-interpolation-filters="sRGB">
<feFlood flood-opacity="0" result="BackgroundImageFix"/>
<feColorMatrix in="SourceAlpha" type="matrix" values="0 0 0 0 0 0 0 0 0 0 0 0 0 0 0 0 0 0 127 0" result="hardAlpha"/>
<feOffset dy="11"/>
<feGaussianBlur stdDeviation="11"/>
<feColorMatrix type="matrix" values="0 0 0 0 0 0 0 0 0 0 0 0 0 0 0 0 0 0 0.27 0"/>
<feBlend mode="normal" in2="BackgroundImageFix" result="effect1_dropShadow_111_453"/>
<feBlend mode="normal" in="SourceGraphic" in2="effect1_dropShadow_111_453" result="shape"/>
</filter>
<filter id="filter3_d_111_453" x="0.554199" y="75.2715" width="76.9219" height="60.4727" filterUnits="userSpaceOnUse" color-interpolation-filters="sRGB">
<feFlood flood-opacity="0" result="BackgroundImageFix"/>
<feColorMatrix in="SourceAlpha" type="matrix" values="0 0 0 0 0 0 0 0 0 0 0 0 0 0 0 0 0 0 127 0" result="hardAlpha"/>
<feOffset dy="11"/>
<feGaussianBlur stdDeviation="11"/>
<feColorMatrix type="matrix" values="0 0 0 0 0 0 0 0 0 0 0 0 0 0 0 0 0 0 0.27 0"/>
<feBlend mode="normal" in2="BackgroundImageFix" result="effect1_dropShadow_111_453"/>
<feBlend mode="normal" in="SourceGraphic" in2="effect1_dropShadow_111_453" result="shape"/>
</filter>
<linearGradient id="paint0_linear_111_453" x1="77.1701" y1="57.7641" x2="84.6738" y2="83.153" gradientUnits="userSpaceOnUse">
<stop stop-color="#E3EAF7"/>
<stop offset="1" stop-color="#ADB6C8"/>
</linearGradient>
</defs>
</svg>
