<svg width="158" height="137" viewBox="0 0 158 137" fill="none" xmlns="http://www.w3.org/2000/svg">
<path d="M79.0034 125C113.496 125 141.458 97.0178 141.458 62.5C141.458 27.9822 113.496 0 79.0034 0C44.5104 0 16.5483 27.9822 16.5483 62.5C16.5483 97.0178 44.5104 125 79.0034 125Z" fill="#2A2E37"/>
<g filter="url(#filter0_d_111_2384)">
<path d="M135.973 25.6472V98.7457C135.973 101.425 133.768 103.632 131.09 103.632H26.9162C24.2384 103.632 22.0332 101.425 22.0332 98.7457V25.6472C22.0332 22.9676 24.2384 20.7607 26.9162 20.7607H131.09C133.768 20.7607 135.973 22.9676 135.973 25.6472Z" fill="#5C6479"/>
</g>
<rect opacity="0.7" x="57.6978" y="35.853" width="72.6744" height="31.9767" rx="2" fill="#474E61"/>
<rect opacity="0.7" x="57.6978" y="73.6436" width="22.2868" height="23.2558" rx="2" fill="#474E61"/>
<rect opacity="0.7" x="83.8604" y="73.6436" width="20.3488" height="23.2558" rx="2" fill="#474E61"/>
<rect opacity="0.7" x="108.085" y="73.6436" width="22.2868" height="23.2558" rx="2" fill="#474E61"/>
<path opacity="0.7" d="M22.7827 30.1318C22.7827 29.0273 23.6781 28.1318 24.7827 28.1318H49.8525C50.9571 28.1318 51.8525 29.0273 51.8525 30.1318V101.713C51.8525 102.818 50.9571 103.713 49.8525 103.713H24.7827C23.6781 103.713 22.7827 102.818 22.7827 101.713V30.1318Z" fill="#474E61"/>
<path d="M28.6279 38.7598H44.1318" stroke="#5C6479" stroke-width="2" stroke-miterlimit="10"/>
<path d="M28.6279 46.5117H41.2248" stroke="#5C6479" stroke-width="2" stroke-miterlimit="10"/>
<path d="M28.6279 54.2637H45.1008" stroke="#5C6479" stroke-width="2" stroke-miterlimit="10"/>
<path d="M28.6279 62.0156H35.4109" stroke="#5C6479" stroke-width="2" stroke-miterlimit="10"/>
<path d="M28.6279 69.7676H42.1938" stroke="#5C6479" stroke-width="2" stroke-miterlimit="10"/>
<path d="M28.6279 77.5195H37.3489" stroke="#5C6479" stroke-width="2" stroke-miterlimit="10"/>
<path opacity="0.7" d="M135.973 25.6472V98.7457C135.973 101.425 133.768 103.632 131.09 103.632H26.9162C24.2384 103.632 22.0332 101.425 22.0332 98.7457V25.6472C22.0332 22.9676 24.2384 20.7607 26.9162 20.7607H131.09C133.768 20.7607 135.973 22.9676 135.973 25.6472Z" fill="#2A2E37"/>
<path d="M135.973 25.6472V29.1939H22.0332V25.6472C22.0332 22.9676 24.2384 20.7607 26.9162 20.7607H131.09C133.768 20.7607 135.973 22.9676 135.973 25.6472Z" fill="#393F4E"/>
<path d="M27.1522 26.5145C27.9786 26.5145 28.6486 25.844 28.6486 25.017C28.6486 24.19 27.9786 23.5195 27.1522 23.5195C26.3257 23.5195 25.6558 24.19 25.6558 25.017C25.6558 25.844 26.3257 26.5145 27.1522 26.5145Z" fill="#C6CDDF"/>
<path opacity="0.6" d="M31.7991 26.5145C32.6256 26.5145 33.2955 25.844 33.2955 25.017C33.2955 24.19 32.6256 23.5195 31.7991 23.5195C30.9727 23.5195 30.3027 24.19 30.3027 25.017C30.3027 25.844 30.9727 26.5145 31.7991 26.5145Z" fill="#C6CDDF"/>
<path opacity="0.4" d="M36.5247 26.5145C37.3512 26.5145 38.0211 25.844 38.0211 25.017C38.0211 24.19 37.3512 23.5195 36.5247 23.5195C35.6983 23.5195 35.0283 24.19 35.0283 25.017C35.0283 25.844 35.6983 26.5145 36.5247 26.5145Z" fill="#C6CDDF"/>
<g filter="url(#filter1_d_111_2384)">
<rect x="43.1626" y="37.7905" width="75.5814" height="52.3256" rx="4" fill="#8E96AB"/>
</g>
<rect x="48.9766" y="75.5811" width="23.2558" height="6.78295" rx="2" fill="#C6CDDF"/>
<path d="M48.9766 62.9844H72.2324" stroke="#C6CDDF" stroke-width="2" stroke-miterlimit="10"/>
<path d="M48.9766 56.2017H72.2324" stroke="#C6CDDF" stroke-width="2" stroke-miterlimit="10"/>
<path d="M48.9766 69.7671H62.5425" stroke="#C6CDDF" stroke-width="2" stroke-miterlimit="10"/>
<path d="M48.9766 45.5425H57.6975" stroke="#C6CDDF" stroke-width="3" stroke-miterlimit="10"/>
<rect opacity="0.5" x="79.9844" y="39.7598" width="36.7907" height="48.3876" rx="3" fill="#474E61"/>
<circle cx="118.411" cy="38.124" r="5.90793" transform="rotate(-45 118.411 38.124)" fill="url(#paint0_linear_111_2384)"/>
<path d="M116.985 36.4937L120.245 39.7542" stroke="#393F4E" stroke-width="1.5" stroke-linecap="round"/>
<path d="M116.985 39.7544L120.245 36.4939" stroke="#393F4E" stroke-width="1.5" stroke-linecap="round"/>
<path d="M100.526 60.3232C101.096 60.3232 101.559 59.8344 101.559 59.2314C101.559 58.6285 101.096 58.1396 100.526 58.1396C99.9549 58.1396 99.4922 58.6285 99.4922 59.2314C99.4922 59.8344 99.9549 60.3232 100.526 60.3232Z" fill="#8E96AB"/>
<path d="M100.586 67.4117H92.7019C92.1933 67.4117 91.8966 66.7881 92.1933 66.3872L96.1353 60.5964C96.3897 60.24 96.8983 60.24 97.1526 60.5964L101.095 66.3872C101.391 66.8326 101.095 67.4117 100.586 67.4117Z" fill="#474E61"/>
<path opacity="0.7" d="M103.331 67.2935H99.4506C98.8612 67.2935 98.5665 66.646 98.8612 66.1978L100.777 63.4585C101.071 63.0601 101.612 63.0601 101.906 63.4585L103.822 66.1978C104.264 66.646 103.92 67.2935 103.331 67.2935Z" fill="#8E96AB"/>
<defs>
<filter id="filter0_d_111_2384" x="0.0332031" y="9.76074" width="157.94" height="126.872" filterUnits="userSpaceOnUse" color-interpolation-filters="sRGB">
<feFlood flood-opacity="0" result="BackgroundImageFix"/>
<feColorMatrix in="SourceAlpha" type="matrix" values="0 0 0 0 0 0 0 0 0 0 0 0 0 0 0 0 0 0 127 0" result="hardAlpha"/>
<feOffset dy="11"/>
<feGaussianBlur stdDeviation="11"/>
<feColorMatrix type="matrix" values="0 0 0 0 0 0 0 0 0 0 0 0 0 0 0 0 0 0 0.27 0"/>
<feBlend mode="normal" in2="BackgroundImageFix" result="effect1_dropShadow_111_2384"/>
<feBlend mode="normal" in="SourceGraphic" in2="effect1_dropShadow_111_2384" result="shape"/>
</filter>
<filter id="filter1_d_111_2384" x="21.1626" y="26.7905" width="119.582" height="96.3257" filterUnits="userSpaceOnUse" color-interpolation-filters="sRGB">
<feFlood flood-opacity="0" result="BackgroundImageFix"/>
<feColorMatrix in="SourceAlpha" type="matrix" values="0 0 0 0 0 0 0 0 0 0 0 0 0 0 0 0 0 0 127 0" result="hardAlpha"/>
<feOffset dy="11"/>
<feGaussianBlur stdDeviation="11"/>
<feColorMatrix type="matrix" values="0 0 0 0 0 0 0 0 0 0 0 0 0 0 0 0 0 0 0.27 0"/>
<feBlend mode="normal" in2="BackgroundImageFix" result="effect1_dropShadow_111_2384"/>
<feBlend mode="normal" in="SourceGraphic" in2="effect1_dropShadow_111_2384" result="shape"/>
</filter>
<linearGradient id="paint0_linear_111_2384" x1="115.213" y1="35.3178" x2="120.296" y2="43.9233" gradientUnits="userSpaceOnUse">
<stop stop-color="#E3EAF7"/>
<stop offset="1" stop-color="#ADB6C8"/>
</linearGradient>
</defs>
</svg>
