<svg width="159" height="137" viewBox="0 0 159 137" fill="none" xmlns="http://www.w3.org/2000/svg">
<path d="M79.1445 125C113.637 125 141.6 97.0178 141.6 62.5C141.6 27.9822 113.637 0 79.1445 0C44.6515 0 16.6895 27.9822 16.6895 62.5C16.6895 97.0178 44.6515 125 79.1445 125Z" fill="#2A2E37"/>
<g filter="url(#filter0_d_111_2347)">
<path d="M136.115 25.6472V98.7457C136.115 101.425 133.909 103.632 131.232 103.632H27.0573C24.3795 103.632 22.1743 101.425 22.1743 98.7457V25.6472C22.1743 22.9676 24.3795 20.7607 27.0573 20.7607H131.232C133.909 20.7607 136.115 22.9676 136.115 25.6472Z" fill="#5C6479"/>
</g>
<rect opacity="0.7" x="57.6978" y="35.853" width="72.6744" height="31.9767" rx="2" fill="#474E61"/>
<rect opacity="0.7" x="57.6978" y="73.6436" width="22.2868" height="23.2558" rx="2" fill="#474E61"/>
<rect opacity="0.7" x="83.8604" y="73.6436" width="20.3488" height="23.2558" rx="2" fill="#474E61"/>
<rect opacity="0.7" x="108.085" y="73.6436" width="22.2868" height="23.2558" rx="2" fill="#474E61"/>
<path opacity="0.7" d="M22.7827 30.1318C22.7827 29.0273 23.6781 28.1318 24.7827 28.1318H49.8525C50.9571 28.1318 51.8525 29.0273 51.8525 30.1318V101.713C51.8525 102.818 50.9571 103.713 49.8525 103.713H24.7827C23.6781 103.713 22.7827 102.818 22.7827 101.713V30.1318Z" fill="#474E61"/>
<path d="M28.6279 38.7598H44.1318" stroke="#5C6479" stroke-width="2" stroke-miterlimit="10"/>
<path d="M28.6279 46.5117H41.2248" stroke="#5C6479" stroke-width="2" stroke-miterlimit="10"/>
<path d="M28.6279 54.2637H45.1008" stroke="#5C6479" stroke-width="2" stroke-miterlimit="10"/>
<path d="M28.6279 62.0156H35.4109" stroke="#5C6479" stroke-width="2" stroke-miterlimit="10"/>
<path d="M28.6279 69.7676H42.1938" stroke="#5C6479" stroke-width="2" stroke-miterlimit="10"/>
<path d="M28.6279 77.5195H37.3489" stroke="#5C6479" stroke-width="2" stroke-miterlimit="10"/>
<path opacity="0.7" d="M136.115 25.6472V98.7457C136.115 101.425 133.909 103.632 131.232 103.632H27.0573C24.3795 103.632 22.1743 101.425 22.1743 98.7457V25.6472C22.1743 22.9676 24.3795 20.7607 27.0573 20.7607H131.232C133.909 20.7607 136.115 22.9676 136.115 25.6472Z" fill="#2A2E37"/>
<path d="M136.115 25.6472V29.1939H22.1743V25.6472C22.1743 22.9676 24.3795 20.7607 27.0573 20.7607H131.232C133.909 20.7607 136.115 22.9676 136.115 25.6472Z" fill="#393F4E"/>
<path d="M27.2933 26.5145C28.1197 26.5145 28.7897 25.844 28.7897 25.017C28.7897 24.19 28.1197 23.5195 27.2933 23.5195C26.4668 23.5195 25.7969 24.19 25.7969 25.017C25.7969 25.844 26.4668 26.5145 27.2933 26.5145Z" fill="#C6CDDF"/>
<path opacity="0.6" d="M31.9403 26.5145C32.7667 26.5145 33.4367 25.844 33.4367 25.017C33.4367 24.19 32.7667 23.5195 31.9403 23.5195C31.1138 23.5195 30.4438 24.19 30.4438 25.017C30.4438 25.844 31.1138 26.5145 31.9403 26.5145Z" fill="#C6CDDF"/>
<path opacity="0.4" d="M36.6658 26.5145C37.4923 26.5145 38.1622 25.844 38.1622 25.017C38.1622 24.19 37.4923 23.5195 36.6658 23.5195C35.8394 23.5195 35.1694 24.19 35.1694 25.017C35.1694 25.844 35.8394 26.5145 36.6658 26.5145Z" fill="#C6CDDF"/>
<g filter="url(#filter1_d_111_2347)">
<rect x="54.7905" y="39.5249" width="51.5601" height="51.5601" rx="4" fill="#8E96AB"/>
</g>
<circle cx="105.814" cy="40.062" r="5.90793" transform="rotate(-45 105.814 40.062)" fill="url(#paint0_linear_111_2347)"/>
<path d="M104.387 38.4316L107.648 41.6922" stroke="#393F4E" stroke-width="1.5" stroke-linecap="round"/>
<path d="M104.387 41.6924L107.648 38.4319" stroke="#393F4E" stroke-width="1.5" stroke-linecap="round"/>
<rect x="62.3101" y="78.1953" width="36.5217" height="7.51918" rx="2" fill="#C6CDDF"/>
<path opacity="0.3" d="M54.7905 50.8037H105.814" stroke="#474E61" stroke-width="2" stroke-miterlimit="10"/>
<path d="M62.3101 59.9341H98.2947" stroke="#C6CDDF" stroke-width="2" stroke-miterlimit="10"/>
<path d="M59.0874 44.896H74.6628" stroke="#C6CDDF" stroke-width="2" stroke-miterlimit="10"/>
<path d="M62.3101 65.8423H98.2947" stroke="#C6CDDF" stroke-width="2" stroke-miterlimit="10"/>
<path d="M62.3101 71.75H85.4047" stroke="#C6CDDF" stroke-width="2" stroke-miterlimit="10"/>
<defs>
<filter id="filter0_d_111_2347" x="0.174316" y="9.76074" width="157.94" height="126.872" filterUnits="userSpaceOnUse" color-interpolation-filters="sRGB">
<feFlood flood-opacity="0" result="BackgroundImageFix"/>
<feColorMatrix in="SourceAlpha" type="matrix" values="0 0 0 0 0 0 0 0 0 0 0 0 0 0 0 0 0 0 127 0" result="hardAlpha"/>
<feOffset dy="11"/>
<feGaussianBlur stdDeviation="11"/>
<feColorMatrix type="matrix" values="0 0 0 0 0 0 0 0 0 0 0 0 0 0 0 0 0 0 0.27 0"/>
<feBlend mode="normal" in2="BackgroundImageFix" result="effect1_dropShadow_111_2347"/>
<feBlend mode="normal" in="SourceGraphic" in2="effect1_dropShadow_111_2347" result="shape"/>
</filter>
<filter id="filter1_d_111_2347" x="32.7905" y="28.5249" width="95.5601" height="95.5601" filterUnits="userSpaceOnUse" color-interpolation-filters="sRGB">
<feFlood flood-opacity="0" result="BackgroundImageFix"/>
<feColorMatrix in="SourceAlpha" type="matrix" values="0 0 0 0 0 0 0 0 0 0 0 0 0 0 0 0 0 0 127 0" result="hardAlpha"/>
<feOffset dy="11"/>
<feGaussianBlur stdDeviation="11"/>
<feColorMatrix type="matrix" values="0 0 0 0 0 0 0 0 0 0 0 0 0 0 0 0 0 0 0.27 0"/>
<feBlend mode="normal" in2="BackgroundImageFix" result="effect1_dropShadow_111_2347"/>
<feBlend mode="normal" in="SourceGraphic" in2="effect1_dropShadow_111_2347" result="shape"/>
</filter>
<linearGradient id="paint0_linear_111_2347" x1="102.616" y1="37.2557" x2="107.699" y2="45.8613" gradientUnits="userSpaceOnUse">
<stop stop-color="#E3EAF7"/>
<stop offset="1" stop-color="#ADB6C8"/>
</linearGradient>
</defs>
</svg>
