<svg width="145" height="127" viewBox="0 0 145 127" fill="none" xmlns="http://www.w3.org/2000/svg">
<path d="M80.2896 127C112.102 127 137.893 101.191 137.893 69.2416C137.893 37.2927 111.988 11.4834 80.2896 11.4834C48.4773 11.4834 22.6865 37.2927 22.6865 69.2416C22.6865 101.191 48.4773 127 80.2896 127Z" fill="#2A2E37"/>
<path d="M134.143 31.3803C136.716 31.3803 138.801 29.2932 138.801 26.7187C138.801 24.1442 136.716 22.0571 134.143 22.0571C131.57 22.0571 129.485 24.1442 129.485 26.7187C129.485 29.2932 131.57 31.3803 134.143 31.3803Z" fill="#2A2E37"/>
<path d="M140.96 13.1888C142.717 13.1888 144.141 11.7635 144.141 10.0053C144.141 8.24709 142.717 6.82178 140.96 6.82178C139.203 6.82178 137.779 8.24709 137.779 10.0053C137.779 11.7635 139.203 13.1888 140.96 13.1888Z" fill="#2A2E37"/>
<path d="M25.754 31.267C27.5109 31.267 28.9352 29.8416 28.9352 28.0834C28.9352 26.3252 27.5109 24.8999 25.754 24.8999C23.997 24.8999 22.5728 26.3252 22.5728 28.0834C22.5728 29.8416 23.997 31.267 25.754 31.267Z" fill="#2A2E37"/>
<path d="M6.32549 92.6634C9.58839 92.6634 12.2335 90.0164 12.2335 86.7511C12.2335 83.4859 9.58839 80.8389 6.32549 80.8389C3.06259 80.8389 0.41748 83.4859 0.41748 86.7511C0.41748 90.0164 3.06259 92.6634 6.32549 92.6634Z" fill="#2A2E37"/>
<mask id="mask0_121_6598" style="mask-type:alpha" maskUnits="userSpaceOnUse" x="23" y="0" width="116" height="127">
<path d="M130.615 0H32.8351V37.3678C26.7996 46.4973 23.2847 57.4514 23.2847 69.2418C23.2847 101.191 49.094 127 80.9292 127C112.764 127 138.574 101.191 138.574 69.2418C138.574 58.5474 135.669 48.541 130.615 39.9602V0Z" fill="#D9D9D9"/>
</mask>
<g mask="url(#mask0_121_6598)">
<g filter="url(#filter0_d_121_6598)">
<path d="M124.93 33.0927L125.953 124.623C125.953 127.439 123.651 129.615 120.837 129.615H40.5086C37.6945 129.615 35.3921 127.311 35.3921 124.623V9.53999C35.3921 6.72391 37.6945 4.54785 40.5086 4.54785H98.7083L124.93 33.0927Z" fill="#5C6479"/>
</g>
<path d="M103 58.1985V75.8015C103 76.0745 103 76.3474 103 76.6203C102.727 78.6672 101.639 80.4411 99.8698 81.3963L84.7653 90.1296C83.2685 90.9484 81.6356 91.2213 80.0027 90.8119C79.4584 90.6755 78.9141 90.4025 78.3698 90.1296L63.2653 81.3963C62.1767 80.714 61.2242 79.7588 60.6799 78.5307C60.2717 77.712 59.9995 76.7567 59.9995 75.8015V58.1985C59.9995 57.2433 60.1356 56.4245 60.5438 55.6058C61.0881 54.3776 62.0407 53.286 63.1293 52.6037L78.2337 43.8704C79.7305 43.0516 81.3634 42.7787 82.9964 43.1881C83.5407 43.3245 84.085 43.5975 84.6293 43.8704L99.7337 52.6037C101.094 53.4224 102.047 54.6505 102.591 56.0151C103 56.6974 103 57.5162 103 58.1985Z" fill="#C6CDDF"/>
<path opacity="0.3" d="M103 56.187L95.6198 70.1513L67.6324 66.0035L59.6957 79C59.278 78.1704 58.9995 77.2026 58.9995 76.2348V58.3992C58.9995 57.4314 59.1387 56.6018 59.5565 55.7723C60.1134 54.5279 61.0881 53.4218 62.202 52.7305L77.6577 43.8819C79.1894 43.0523 80.8603 42.7758 82.5312 43.1906C83.0881 43.3288 83.6451 43.6053 84.202 43.8819L99.6577 52.7305C101.468 53.5601 102.443 54.8044 103 56.187Z" fill="#5C6479"/>
<path d="M103 76.6203C102.725 78.6672 101.626 80.4411 99.8398 81.3963L84.5906 90.1296C83.0794 90.9484 81.4308 91.2213 79.7823 90.8119L59.9995 55.6058C60.549 54.3776 61.5107 53.286 62.6097 52.6037L77.8589 43.8704C79.3701 43.0516 81.0187 42.7787 82.6672 43.1881L103 76.6203Z" fill="#8E96AB"/>
<path d="M88.9995 64.1972V76L83.7114 73.0493V67.1479L80.9995 65.5385L78.2876 67.1479V73.0493L72.9995 76V64.1972C72.9995 63.7949 73.2707 63.3925 73.5419 63.2584L80.4571 59.1006C80.7283 58.9665 81.1351 58.9665 81.4063 59.1006L88.3215 63.2584C88.8639 63.3925 88.9995 63.7949 88.9995 64.1972Z" fill="#474E61"/>
<path d="M99.2627 4.54785V27.2363C99.2627 30.4229 102.053 32.9722 105.224 32.9722H125.263" fill="#474E61"/>
</g>
<defs>
<filter id="filter0_d_121_6598" x="13.3921" y="-6.45215" width="134.562" height="169.067" filterUnits="userSpaceOnUse" color-interpolation-filters="sRGB">
<feFlood flood-opacity="0" result="BackgroundImageFix"/>
<feColorMatrix in="SourceAlpha" type="matrix" values="0 0 0 0 0 0 0 0 0 0 0 0 0 0 0 0 0 0 127 0" result="hardAlpha"/>
<feOffset dy="11"/>
<feGaussianBlur stdDeviation="11"/>
<feColorMatrix type="matrix" values="0 0 0 0 0 0 0 0 0 0 0 0 0 0 0 0 0 0 0.27 0"/>
<feBlend mode="normal" in2="BackgroundImageFix" result="effect1_dropShadow_121_6598"/>
<feBlend mode="normal" in="SourceGraphic" in2="effect1_dropShadow_121_6598" result="shape"/>
</filter>
</defs>
</svg>
