<svg width="164" height="145" viewBox="0 0 164 145" fill="none" xmlns="http://www.w3.org/2000/svg">
<path d="M86.4617 130C120.899 130 148.817 102.081 148.817 67.5212C148.817 32.9611 120.776 5.04248 86.4617 5.04248C52.0246 5.04248 24.106 32.9611 24.106 67.5212C24.106 102.081 52.0246 130 86.4617 130Z" fill="#2A2E37"/>
<path d="M144.759 26.5656C147.544 26.5656 149.801 24.308 149.801 21.523C149.801 18.7381 147.544 16.4805 144.759 16.4805C141.974 16.4805 139.716 18.7381 139.716 21.523C139.716 24.308 141.974 26.5656 144.759 26.5656Z" fill="#2A2E37"/>
<path d="M152.138 6.88742C154.04 6.88742 155.582 5.34562 155.582 3.44371C155.582 1.5418 154.04 0 152.138 0C150.236 0 148.694 1.5418 148.694 3.44371C148.694 5.34562 150.236 6.88742 152.138 6.88742Z" fill="#2A2E37"/>
<path d="M27.4266 26.4431C29.3285 26.4431 30.8703 24.9013 30.8703 22.9994C30.8703 21.0975 29.3285 19.5557 27.4266 19.5557C25.5247 19.5557 23.9829 21.0975 23.9829 22.9994C23.9829 24.9013 25.5247 26.4431 27.4266 26.4431Z" fill="#2A2E37"/>
<path d="M6.39546 92.8573C9.92758 92.8573 12.7909 89.994 12.7909 86.4619C12.7909 82.9298 9.92758 80.0664 6.39546 80.0664C2.86335 80.0664 0 82.9298 0 86.4619C0 89.994 2.86335 92.8573 6.39546 92.8573Z" fill="#2A2E37"/>
<g filter="url(#filter0_d_111_1246)">
<rect x="81.0845" y="29.5684" width="60.2418" height="77.1619" rx="6" fill="#474E61"/>
</g>
<rect opacity="0.7" x="89.8696" y="89.103" width="42.6713" height="8.81361" rx="2" fill="#8E96AB"/>
<path d="M89.8696 76.5122H131.913" stroke="#8E96AB" stroke-width="2" stroke-miterlimit="10"/>
<path d="M89.8696 70.0923H131.913" stroke="#8E96AB" stroke-width="2" stroke-miterlimit="10"/>
<path d="M89.8696 82.52H114.343" stroke="#8E96AB" stroke-width="2" stroke-miterlimit="10"/>
<path d="M82.3389 34.8276C82.3389 32.6185 84.1297 30.8276 86.3389 30.8276H136.071C138.28 30.8276 140.071 32.6185 140.071 34.8276V61.6209H82.3389V34.8276Z" fill="#393F4E"/>
<path d="M114.472 42.3173C115.179 42.3173 115.752 41.7182 115.752 40.9792C115.752 40.2402 115.179 39.6411 114.472 39.6411C113.766 39.6411 113.193 40.2402 113.193 40.9792C113.193 41.7182 113.766 42.3173 114.472 42.3173Z" fill="#8E96AB"/>
<path d="M114.547 51.0053H104.785C104.155 51.0053 103.788 50.241 104.155 49.7496L109.036 42.6523C109.351 42.2155 109.981 42.2155 110.296 42.6523L115.177 49.7496C115.544 50.2956 115.177 51.0053 114.547 51.0053Z" fill="#8E96AB"/>
<path opacity="0.7" d="M117.946 50.8605H113.141C112.412 50.8605 112.047 50.0669 112.412 49.5175L114.784 46.1602C115.148 45.6719 115.817 45.6719 116.182 46.1602L118.554 49.5175C119.101 50.0669 118.676 50.8605 117.946 50.8605Z" fill="#8E96AB"/>
<g filter="url(#filter1_d_111_1246)">
<rect x="32.0737" y="29.5684" width="60.2418" height="77.1619" rx="6" fill="#474E61"/>
</g>
<rect opacity="0.7" x="40.8604" y="89.103" width="42.6713" height="8.81361" rx="2" fill="#8E96AB"/>
<path d="M40.8604 76.5122H82.9041" stroke="#8E96AB" stroke-width="2" stroke-miterlimit="10"/>
<path d="M40.8604 70.0923H82.9041" stroke="#8E96AB" stroke-width="2" stroke-miterlimit="10"/>
<path d="M40.8604 82.52H65.3336" stroke="#8E96AB" stroke-width="2" stroke-miterlimit="10"/>
<path d="M33.3291 34.8276C33.3291 32.6185 35.12 30.8276 37.3291 30.8276H87.0609C89.27 30.8276 91.0609 32.6185 91.0609 34.8276V61.6209H33.3291V34.8276Z" fill="#393F4E"/>
<path d="M65.4973 42.3173C66.204 42.3173 66.7769 41.7182 66.7769 40.9792C66.7769 40.2402 66.204 39.6411 65.4973 39.6411C64.7906 39.6411 64.2178 40.2402 64.2178 40.9792C64.2178 41.7182 64.7906 42.3173 65.4973 42.3173Z" fill="#8E96AB"/>
<path d="M65.5726 51.0053H55.8107C55.1809 51.0053 54.8135 50.241 55.1809 49.7496L60.0618 42.6523C60.3767 42.2155 61.0065 42.2155 61.3214 42.6523L66.2024 49.7496C66.5698 50.2956 66.2024 51.0053 65.5726 51.0053Z" fill="#8E96AB"/>
<path opacity="0.7" d="M68.9703 50.8605H64.1659C63.4361 50.8605 63.0712 50.0669 63.4361 49.5175L65.8079 46.1602C66.1728 45.6719 66.8418 45.6719 67.2067 46.1602L69.5785 49.5175C70.1258 50.0669 69.7001 50.8605 68.9703 50.8605Z" fill="#8E96AB"/>
<g filter="url(#filter2_d_111_1246)">
<rect x="54.1245" y="26.0601" width="67.3763" height="85.8949" rx="6" fill="#5C6479"/>
</g>
<rect x="63.9512" y="92.333" width="47.7249" height="9.81112" rx="2" fill="#8E96AB"/>
<path d="M63.9512 78.3169H110.974" stroke="#8E96AB" stroke-width="2" stroke-miterlimit="10"/>
<path d="M63.9512 71.1704H110.974" stroke="#8E96AB" stroke-width="2" stroke-miterlimit="10"/>
<path d="M63.9512 85.0044H91.3228" stroke="#8E96AB" stroke-width="2" stroke-miterlimit="10"/>
<path d="M55.5293 31.4614C55.5293 29.2523 57.3202 27.4614 59.5293 27.4614H116.098C118.307 27.4614 120.098 29.2523 120.098 31.4614V61.7398H55.5293V31.4614Z" fill="#474E61"/>
<path d="M91.579 40.2521C92.3694 40.2521 93.0101 39.5852 93.0101 38.7625C93.0101 37.9398 92.3694 37.2729 91.579 37.2729C90.7887 37.2729 90.1479 37.9398 90.1479 38.7625C90.1479 39.5852 90.7887 40.2521 91.579 40.2521Z" fill="#8E96AB"/>
<path d="M91.6619 49.9233H80.7439C80.0395 49.9233 79.6286 49.0724 80.0395 48.5255L85.4985 40.6249C85.8507 40.1387 86.5551 40.1387 86.9073 40.6249L92.3663 48.5255C92.7772 49.1332 92.3663 49.9233 91.6619 49.9233Z" fill="#8E96AB"/>
<path opacity="0.7" d="M95.463 49.762H90.0896C89.2734 49.762 88.8653 48.8786 89.2734 48.2671L91.9261 44.5298C92.3342 43.9862 93.0824 43.9862 93.4905 44.5298L96.1432 48.2671C96.7553 48.8786 96.2792 49.762 95.463 49.762Z" fill="#8E96AB"/>
<defs>
<filter id="filter0_d_111_1246" x="59.0845" y="18.5684" width="104.242" height="121.162" filterUnits="userSpaceOnUse" color-interpolation-filters="sRGB">
<feFlood flood-opacity="0" result="BackgroundImageFix"/>
<feColorMatrix in="SourceAlpha" type="matrix" values="0 0 0 0 0 0 0 0 0 0 0 0 0 0 0 0 0 0 127 0" result="hardAlpha"/>
<feOffset dy="11"/>
<feGaussianBlur stdDeviation="11"/>
<feColorMatrix type="matrix" values="0 0 0 0 0 0 0 0 0 0 0 0 0 0 0 0 0 0 0.27 0"/>
<feBlend mode="normal" in2="BackgroundImageFix" result="effect1_dropShadow_111_1246"/>
<feBlend mode="normal" in="SourceGraphic" in2="effect1_dropShadow_111_1246" result="shape"/>
</filter>
<filter id="filter1_d_111_1246" x="10.0737" y="18.5684" width="104.242" height="121.162" filterUnits="userSpaceOnUse" color-interpolation-filters="sRGB">
<feFlood flood-opacity="0" result="BackgroundImageFix"/>
<feColorMatrix in="SourceAlpha" type="matrix" values="0 0 0 0 0 0 0 0 0 0 0 0 0 0 0 0 0 0 127 0" result="hardAlpha"/>
<feOffset dy="11"/>
<feGaussianBlur stdDeviation="11"/>
<feColorMatrix type="matrix" values="0 0 0 0 0 0 0 0 0 0 0 0 0 0 0 0 0 0 0.27 0"/>
<feBlend mode="normal" in2="BackgroundImageFix" result="effect1_dropShadow_111_1246"/>
<feBlend mode="normal" in="SourceGraphic" in2="effect1_dropShadow_111_1246" result="shape"/>
</filter>
<filter id="filter2_d_111_1246" x="32.1245" y="15.0601" width="111.376" height="129.895" filterUnits="userSpaceOnUse" color-interpolation-filters="sRGB">
<feFlood flood-opacity="0" result="BackgroundImageFix"/>
<feColorMatrix in="SourceAlpha" type="matrix" values="0 0 0 0 0 0 0 0 0 0 0 0 0 0 0 0 0 0 127 0" result="hardAlpha"/>
<feOffset dy="11"/>
<feGaussianBlur stdDeviation="11"/>
<feColorMatrix type="matrix" values="0 0 0 0 0 0 0 0 0 0 0 0 0 0 0 0 0 0 0.27 0"/>
<feBlend mode="normal" in2="BackgroundImageFix" result="effect1_dropShadow_111_1246"/>
<feBlend mode="normal" in="SourceGraphic" in2="effect1_dropShadow_111_1246" result="shape"/>
</filter>
</defs>
</svg>
