<svg width="162" height="128" viewBox="0 0 162 128" fill="none" xmlns="http://www.w3.org/2000/svg">
<path d="M80.8672 125C115.36 125 143.322 97.0178 143.322 62.5C143.322 27.9822 115.36 0 80.8672 0C46.3742 0 18.4121 27.9822 18.4121 62.5C18.4121 97.0178 46.3742 125 80.8672 125Z" fill="#2A2E37"/>
<path d="M81.7334 2.52197H80.0008C79.5282 2.52197 79.0557 2.91605 79.0557 3.46775V28.7672C79.0557 29.2401 79.4495 29.713 80.0008 29.713H81.7334C82.206 29.713 82.6785 29.3189 82.6785 28.7672V3.38893C82.6785 2.91605 82.2847 2.52197 81.7334 2.52197Z" fill="#5C6479"/>
<path d="M81.9704 91.3459H79.7651V118.458H81.9704V91.3459Z" fill="#C2C8D6"/>
<path opacity="0.5" d="M81.9704 78.9722H79.7651V106.084H81.9704V78.9722Z" fill="#393F4E"/>
<path d="M72.2317 84.1177L70.3306 82.9995L47.7526 121.441L49.6537 122.559L72.2317 84.1177Z" fill="#C2C8D6"/>
<path opacity="0.5" d="M69.717 88.398L67.8159 87.2798L54.088 110.653L55.9891 111.771L69.717 88.398Z" fill="#393F4E"/>
<path d="M112.617 122.501L114.518 121.383L93.3667 85.3697L91.4655 86.4879L112.617 122.501Z" fill="#C2C8D6"/>
<path opacity="0.5" d="M106.349 111.831L108.25 110.712L94.5226 87.3389L92.6215 88.4571L106.349 111.831Z" fill="#393F4E"/>
<g filter="url(#filter0_d_111_2223)">
<path d="M131.43 87.2476H30.3044C29.2018 87.2476 28.3354 86.3807 28.3354 85.2772V15.1322C28.3354 14.0288 29.2018 13.1619 30.3044 13.1619H131.43C132.532 13.1619 133.399 14.0288 133.399 15.1322V85.2772C133.399 86.3807 132.532 87.2476 131.43 87.2476Z" fill="#5C6479"/>
</g>
<g filter="url(#filter1_d_111_2223)">
<path d="M138.44 94.9715H23.2954C22.9016 94.9715 22.5078 94.6563 22.5078 94.1834V85.5926C22.5078 85.1985 22.8228 84.8044 23.2954 84.8044H138.44C138.833 84.8044 139.227 85.1197 139.227 85.5926V94.1834C139.227 94.6563 138.833 94.9715 138.44 94.9715Z" fill="#8E96AB"/>
</g>
<path d="M126.941 80.3119H34.7937C33.8486 80.3119 33.061 79.5238 33.061 78.578V18.9153C33.061 17.9695 33.8486 17.1814 34.7937 17.1814H126.941C127.886 17.1814 128.673 17.9695 128.673 18.9153V78.578C128.673 79.5238 127.886 80.3119 126.941 80.3119Z" fill="#474E61"/>
<path d="M95.6738 19.3096H66.0608C65.8245 19.3096 65.667 19.1776 65.667 18.9796V11.5216C65.667 11.3236 65.8245 11.1917 66.0608 11.1917H95.6738C95.91 11.1917 96.0676 11.3236 96.0676 11.5216V18.9796C96.0676 19.1776 95.91 19.3096 95.6738 19.3096Z" fill="#8E96AB"/>
<path d="M61.0987 46.4217C55.8219 46.4217 51.4902 42.0869 51.4902 36.8063C51.4902 31.5257 55.8219 27.1909 61.0987 27.1909C66.3755 27.1909 70.7072 31.5257 70.7072 36.8063C70.7072 42.0869 66.3755 46.4217 61.0987 46.4217ZM61.0987 29.713C57.1608 29.713 53.9317 32.9444 53.9317 36.8063C53.9317 40.747 57.1608 43.9784 61.0199 43.9784C64.8791 43.9784 68.1869 40.747 68.1869 36.8851C68.1869 33.0232 65.0366 29.713 61.0987 29.713Z" fill="#5C6479"/>
<path d="M61.4925 46.4217C60.8624 46.4217 60.3111 45.87 60.2324 45.2395C60.2324 44.5301 60.7049 43.9784 61.4137 43.9784C65.1941 43.8208 68.1869 40.6682 68.1869 36.8851C68.1869 32.9444 64.9578 29.713 61.0987 29.713C57.2396 29.713 53.9317 32.9444 53.9317 36.8063C53.9317 37.5156 53.3804 38.0673 52.6716 38.0673C51.9628 38.0673 51.4902 37.5156 51.4902 36.8063C51.4902 31.5257 55.8219 27.1909 61.0987 27.1909C66.3755 27.1909 70.7072 31.5257 70.7072 36.8063C70.7072 41.9293 66.6905 46.1852 61.4925 46.4217C61.5713 46.4217 61.4925 46.4217 61.4925 46.4217Z" fill="#C2C8D6"/>
<path d="M61.0987 72.3516C55.8219 72.3516 51.4902 68.0168 51.4902 62.7362C51.4902 57.4557 55.8219 53.1208 61.0987 53.1208C66.3755 53.1208 70.7072 57.4557 70.7072 62.7362C70.7072 68.0168 66.3755 72.3516 61.0987 72.3516ZM61.0987 55.5641C57.1608 55.5641 53.9317 58.7955 53.9317 62.6574C53.9317 66.5193 57.1608 69.8295 61.0199 69.8295C64.9578 69.8295 68.1869 66.5981 68.1869 62.7362C68.1869 58.7955 65.0366 55.5641 61.0987 55.5641Z" fill="#5C6479"/>
<path d="M53.0654 66.2829C52.5141 66.2829 52.0415 65.9676 51.884 65.4159C51.6478 64.549 51.4902 63.682 51.4902 62.7362C51.4902 57.4557 55.8219 53.1208 61.0987 53.1208C64.9578 53.1208 68.4232 55.4065 69.9196 59.0319C70.1559 59.6625 69.9196 60.3718 69.2895 60.6871C68.6595 60.9235 67.9506 60.687 67.6356 60.0565C66.533 57.3768 63.934 55.7217 61.0987 55.7217C57.1608 55.7217 53.9317 58.9531 53.9317 62.815C53.9317 63.5244 54.0105 64.1549 54.2468 64.7854C54.4043 65.4159 54.0892 66.1253 53.3804 66.2829C53.2229 66.2829 53.1442 66.2829 53.0654 66.2829Z" fill="#C2C8D6"/>
<path d="M110.873 46.264H83.3081V27.5061H84.962V44.6089H110.873V46.264Z" fill="#5C6479"/>
<path d="M110.874 71.5635H84.0962V73.2186H110.874V71.5635Z" fill="#5C6479"/>
<path d="M89.53 41.2988L87.561 40.6683L89.9238 33.1809L95.6731 30.4224L101.737 37.3581L106.778 32.8656H109.771V34.9148H107.566L101.501 40.2742L95.2006 32.9444L91.6564 34.6784L89.53 41.2988Z" fill="#C2C8D6"/>
<path d="M87.7972 52.4905H85.7495V69.0415H87.7972V52.4905Z" fill="#5C6479"/>
<path d="M87.7972 59.5837H85.7495V69.0415H87.7972V59.5837Z" fill="#C2C8D6"/>
<path d="M95.1224 52.4905H93.0747V69.0415H95.1224V52.4905Z" fill="#5C6479"/>
<path d="M95.1224 56.1948H93.0747V69.0416H95.1224V56.1948Z" fill="#C2C8D6"/>
<path d="M102.526 52.4905H100.478V69.0415H102.526V52.4905Z" fill="#5C6479"/>
<path d="M102.526 65.022H100.478V69.0415H102.526V65.022Z" fill="#C2C8D6"/>
<path d="M109.85 52.4905H107.802V69.0415H109.85V52.4905Z" fill="#5C6479"/>
<path d="M109.85 54.0667H107.802V69.0414H109.85V54.0667Z" fill="#C2C8D6"/>
<defs>
<filter id="filter0_d_111_2223" x="6.33545" y="2.16187" width="149.063" height="118.086" filterUnits="userSpaceOnUse" color-interpolation-filters="sRGB">
<feFlood flood-opacity="0" result="BackgroundImageFix"/>
<feColorMatrix in="SourceAlpha" type="matrix" values="0 0 0 0 0 0 0 0 0 0 0 0 0 0 0 0 0 0 127 0" result="hardAlpha"/>
<feOffset dy="11"/>
<feGaussianBlur stdDeviation="11"/>
<feColorMatrix type="matrix" values="0 0 0 0 0 0 0 0 0 0 0 0 0 0 0 0 0 0 0.27 0"/>
<feBlend mode="normal" in2="BackgroundImageFix" result="effect1_dropShadow_111_2223"/>
<feBlend mode="normal" in="SourceGraphic" in2="effect1_dropShadow_111_2223" result="shape"/>
</filter>
<filter id="filter1_d_111_2223" x="0.507812" y="73.8044" width="160.719" height="54.167" filterUnits="userSpaceOnUse" color-interpolation-filters="sRGB">
<feFlood flood-opacity="0" result="BackgroundImageFix"/>
<feColorMatrix in="SourceAlpha" type="matrix" values="0 0 0 0 0 0 0 0 0 0 0 0 0 0 0 0 0 0 127 0" result="hardAlpha"/>
<feOffset dy="11"/>
<feGaussianBlur stdDeviation="11"/>
<feColorMatrix type="matrix" values="0 0 0 0 0 0 0 0 0 0 0 0 0 0 0 0 0 0 0.27 0"/>
<feBlend mode="normal" in2="BackgroundImageFix" result="effect1_dropShadow_111_2223"/>
<feBlend mode="normal" in="SourceGraphic" in2="effect1_dropShadow_111_2223" result="shape"/>
</filter>
</defs>
</svg>
