<svg width="163" height="141" viewBox="0 0 163 141" fill="none" xmlns="http://www.w3.org/2000/svg">
<path d="M82.0034 125C116.496 125 144.458 97.0178 144.458 62.5C144.458 27.9822 116.496 0 82.0034 0C47.5104 0 19.5483 27.9822 19.5483 62.5C19.5483 97.0178 47.5104 125 82.0034 125Z" fill="#2A2E37"/>
<g filter="url(#filter0_d_111_753)">
<path d="M135.757 107.954H27.8505C25.1615 107.954 22.9551 105.779 22.9551 103.128V20.7355C22.9551 18.0843 25.1615 15.9089 27.8505 15.9089H135.757C138.446 15.9089 140.653 18.0843 140.653 20.7355V103.128C140.653 105.779 138.446 107.954 135.757 107.954Z" fill="#5C6479"/>
</g>
<path d="M130.724 76.0075H32.1942C30.6084 76.0075 29.2983 74.6965 29.2983 73.1095V43.2327C29.2983 41.6457 30.6084 40.3347 32.1942 40.3347H130.724C132.31 40.3347 133.62 41.6457 133.62 43.2327V73.0405C133.62 74.6965 132.31 76.0075 130.724 76.0075Z" fill="#474E61"/>
<mask id="mask0_111_753" style="mask-type:alpha" maskUnits="userSpaceOnUse" x="29" y="40" width="105" height="37">
<path d="M130.724 76.0075H32.1942C30.6084 76.0075 29.2983 74.6965 29.2983 73.1095V43.2327C29.2983 41.6457 30.6084 40.3347 32.1942 40.3347H130.724C132.31 40.3347 133.62 41.6457 133.62 43.2327V73.0405C133.62 74.6965 132.31 76.0075 130.724 76.0075Z" fill="#474E61"/>
</mask>
<g mask="url(#mask0_111_753)">
<path d="M116.657 78.0774H46.2593V48.6836C46.2593 47.5796 47.1556 46.6826 48.2588 46.6826H114.658C115.761 46.6826 116.657 47.5796 116.657 48.6836V78.0774Z" fill="#C6CDDF"/>
</g>
<path fill-rule="evenodd" clip-rule="evenodd" d="M56.396 58.1368C56.396 57.7557 56.7047 57.4468 57.0855 57.4468H74.7367C75.1175 57.4468 75.4262 57.7557 75.4262 58.1368C75.4262 58.5178 75.1175 58.8268 74.7367 58.8268H57.0855C56.7047 58.8268 56.396 58.5178 56.396 58.1368Z" fill="#5C6479"/>
<path fill-rule="evenodd" clip-rule="evenodd" d="M56.396 62.6216C56.396 62.2406 56.7047 61.9316 57.0855 61.9316H69.0138C69.3946 61.9316 69.7033 62.2406 69.7033 62.6216C69.7033 63.0027 69.3946 63.3116 69.0138 63.3116H57.0855C56.7047 63.3116 56.396 63.0027 56.396 62.6216Z" fill="#5C6479"/>
<path fill-rule="evenodd" clip-rule="evenodd" d="M56.396 66.4854C56.396 66.1043 56.7047 65.7954 57.0855 65.7954H105.419C105.8 65.7954 106.109 66.1043 106.109 66.4854C106.109 66.8665 105.8 67.1754 105.419 67.1754H57.0855C56.7047 67.1754 56.396 66.8665 56.396 66.4854Z" fill="#5C6479"/>
<path fill-rule="evenodd" clip-rule="evenodd" d="M56.396 70.4876C56.396 70.1065 56.7047 69.7976 57.0855 69.7976H105.419C105.8 69.7976 106.109 70.1065 106.109 70.4876C106.109 70.8687 105.8 71.1776 105.419 71.1776H57.0855C56.7047 71.1776 56.396 70.8687 56.396 70.4876Z" fill="#5C6479"/>
<path fill-rule="evenodd" clip-rule="evenodd" d="M56.396 74.4896C56.396 74.1085 56.7047 73.7996 57.0855 73.7996H105.419C105.8 73.7996 106.109 74.1085 106.109 74.4896C106.109 74.8706 105.8 75.1796 105.419 75.1796H57.0855C56.7047 75.1796 56.396 74.8706 56.396 74.4896Z" fill="#5C6479"/>
<path d="M108.246 31.1579H47.7767C46.9493 31.1579 46.2598 30.6117 46.2598 29.9563V28.0448C46.2598 27.3894 46.9493 26.8433 47.7767 26.8433H108.246C109.073 26.8433 109.763 27.3894 109.763 28.0448V29.9563C109.832 30.6117 109.142 31.1579 108.246 31.1579Z" fill="#8E96AB"/>
<path d="M132.516 89.0484H47.3631C46.7425 89.0484 46.1909 88.7002 46.1909 88.2028V86.9593C46.1909 86.5117 46.6736 86.1138 47.3631 86.1138H132.447C133.068 86.1138 133.62 86.4619 133.62 86.9593V88.2028C133.62 88.7002 133.137 89.0484 132.516 89.0484Z" fill="#8E96AB"/>
<path d="M103.419 97.6734H47.3631C46.7425 97.6734 46.1909 97.3252 46.1909 96.8278V95.5843C46.1909 95.1367 46.6736 94.7388 47.3631 94.7388H103.35C103.971 94.7388 104.523 95.0869 104.523 95.5843V96.8278C104.523 97.2755 104.04 97.6734 103.419 97.6734Z" fill="#8E96AB"/>
<path d="M38.6066 34.0558H30.9531C30.0568 34.0558 29.2983 33.2968 29.2983 32.3998V24.6719C29.2983 23.7749 30.0568 23.0159 30.9531 23.0159H38.6066C39.5029 23.0159 40.2614 23.7749 40.2614 24.6719V32.3308C40.2614 33.2968 39.5029 34.0558 38.6066 34.0558Z" fill="#8E96AB"/>
<path d="M35.5038 97.6733C32.0563 97.6733 29.2983 94.9134 29.2983 91.4634C29.2983 88.0134 32.0563 85.2534 35.5038 85.2534C38.9513 85.2534 41.7093 88.0134 41.7093 91.4634C41.7093 94.8444 38.9513 97.6733 35.5038 97.6733Z" fill="#8E96AB"/>
<path d="M39.2269 94.6374C38.2616 93.6714 37.3652 93.1194 35.5036 93.1194C33.573 93.1194 32.7456 93.7404 31.7803 94.6374C32.6766 95.6724 34.0556 96.3624 35.5725 96.3624C36.9515 96.3624 38.1926 95.8104 39.089 94.9134C39.089 94.8444 39.2269 94.7754 39.2269 94.6374C39.2958 94.6374 39.2269 94.6374 39.2269 94.6374Z" fill="#5C6479"/>
<path d="M35.5031 91.9464C36.6455 91.9464 37.5716 91.0196 37.5716 89.8764C37.5716 88.7332 36.6455 87.8064 35.5031 87.8064C34.3607 87.8064 33.4346 88.7332 33.4346 89.8764C33.4346 91.0196 34.3607 91.9464 35.5031 91.9464Z" fill="#5C6479"/>
<path fill-rule="evenodd" clip-rule="evenodd" d="M38.1241 26.1554H31.1602V25.1204H38.1241V26.1554Z" fill="#5C6479"/>
<path fill-rule="evenodd" clip-rule="evenodd" d="M38.1241 28.9154H31.1602V27.8804H38.1241V28.9154Z" fill="#5C6479"/>
<path fill-rule="evenodd" clip-rule="evenodd" d="M35.9177 31.6754H31.1602V30.6404H35.9177V31.6754Z" fill="#5C6479"/>
<defs>
<filter id="filter0_d_111_753" x="0.955078" y="4.90894" width="161.698" height="136.045" filterUnits="userSpaceOnUse" color-interpolation-filters="sRGB">
<feFlood flood-opacity="0" result="BackgroundImageFix"/>
<feColorMatrix in="SourceAlpha" type="matrix" values="0 0 0 0 0 0 0 0 0 0 0 0 0 0 0 0 0 0 127 0" result="hardAlpha"/>
<feOffset dy="11"/>
<feGaussianBlur stdDeviation="11"/>
<feColorMatrix type="matrix" values="0 0 0 0 0 0 0 0 0 0 0 0 0 0 0 0 0 0 0.27 0"/>
<feBlend mode="normal" in2="BackgroundImageFix" result="effect1_dropShadow_111_753"/>
<feBlend mode="normal" in="SourceGraphic" in2="effect1_dropShadow_111_753" result="shape"/>
</filter>
</defs>
</svg>
