<svg width="145" height="127" viewBox="0 0 145 127" fill="none" xmlns="http://www.w3.org/2000/svg">
<path d="M80.1524 127C111.965 127 137.755 101.191 137.755 69.2416C137.755 37.2927 111.851 11.4834 80.1524 11.4834C48.3401 11.4834 22.5493 37.2927 22.5493 69.2416C22.5493 101.191 48.3401 127 80.1524 127Z" fill="#2A2E37"/>
<path d="M134.006 31.3803C136.579 31.3803 138.664 29.2932 138.664 26.7187C138.664 24.1442 136.579 22.0571 134.006 22.0571C131.433 22.0571 129.348 24.1442 129.348 26.7187C129.348 29.2932 131.433 31.3803 134.006 31.3803Z" fill="#2A2E37"/>
<path d="M140.823 13.1888C142.58 13.1888 144.004 11.7635 144.004 10.0053C144.004 8.24709 142.58 6.82178 140.823 6.82178C139.066 6.82178 137.642 8.24709 137.642 10.0053C137.642 11.7635 139.066 13.1888 140.823 13.1888Z" fill="#2A2E37"/>
<path d="M25.6168 31.267C27.3737 31.267 28.798 29.8416 28.798 28.0834C28.798 26.3252 27.3737 24.8999 25.6168 24.8999C23.8598 24.8999 22.4355 26.3252 22.4355 28.0834C22.4355 29.8416 23.8598 31.267 25.6168 31.267Z" fill="#2A2E37"/>
<path d="M6.18828 92.6634C9.45119 92.6634 12.0963 90.0164 12.0963 86.7511C12.0963 83.4859 9.45119 80.8389 6.18828 80.8389C2.92538 80.8389 0.280273 83.4859 0.280273 86.7511C0.280273 90.0164 2.92538 92.6634 6.18828 92.6634Z" fill="#2A2E37"/>
<mask id="mask0_121_6582" style="mask-type:alpha" maskUnits="userSpaceOnUse" x="23" y="0" width="116" height="127">
<path d="M130.615 0H32.8351V37.3678C26.7996 46.4973 23.2847 57.4514 23.2847 69.2418C23.2847 101.191 49.094 127 80.9292 127C112.764 127 138.574 101.191 138.574 69.2418C138.574 58.5474 135.669 48.541 130.615 39.9602V0Z" fill="#D9D9D9"/>
</mask>
<g mask="url(#mask0_121_6582)">
<g filter="url(#filter0_d_121_6582)">
<path d="M124.793 33.0927L125.816 124.623C125.816 127.439 123.514 129.615 120.7 129.615H40.3713C37.5573 129.615 35.2549 127.311 35.2549 124.623V9.53999C35.2549 6.72391 37.5573 4.54785 40.3713 4.54785H98.5711L124.793 33.0927Z" fill="#5C6479"/>
</g>
<path d="M91.9122 53C93.4842 53 94.5323 53 95.8423 53C98.9864 53 100.558 55.3433 101.344 58.4677C102.131 61.5921 102.393 63.9353 101.082 68.1012C100.296 70.9652 98.2004 73.0481 94.5323 73.0481C89.8161 73.0481 84.8379 73.0481 79.8598 73.0481C79.8598 73.5689 79.8598 74.35 79.8598 74.8707C83.2659 74.8707 86.672 74.8707 90.0781 74.8707C90.0781 74.8707 90.0781 74.8707 90.0781 75.131C90.0781 80.078 90.6021 82.1609 88.2441 83.4627C85.1 85.2853 81.4318 85.2853 78.0257 84.5042C75.1436 83.9835 71.9995 82.6816 71.9995 79.2969C71.9995 78.5158 71.9995 69.9237 71.9995 69.9237C71.9995 68.6219 72.2615 67.5805 73.3096 66.539C74.3576 65.2372 75.6676 64.7164 77.2397 64.7164C80.1218 64.7164 83.0039 64.7164 85.886 64.7164C88.7681 64.7164 91.1261 62.6335 91.9122 60.0299C92.1742 59.2488 91.9122 58.9884 91.9122 53ZM86.148 77.214C85.0999 77.214 84.3139 77.9951 84.3139 79.0365C84.3139 80.078 85.0999 80.8591 86.148 80.8591C87.196 80.8591 87.982 80.078 87.982 79.0365C87.982 77.9951 87.196 77.214 86.148 77.214Z" fill="#393F4E"/>
<path d="M70.1085 74.9787C65.9209 74.9787 64.6123 75.2391 63.042 73.9373C60.9482 72.375 60.4247 69.2506 60.163 66.9072C59.6396 62.7412 60.163 56.7527 64.8741 55.1905C66.1827 54.6697 65.6592 54.9301 81.8861 54.9301C81.8861 54.4093 81.8861 53.6282 81.8861 53.1075C78.4837 53.1075 75.0813 53.1075 71.6789 53.1075C71.6789 53.1075 71.6789 48.4208 71.6789 47.9C71.6789 46.8585 72.2023 45.5567 72.9875 44.7756C74.2961 43.7341 76.1282 43.4737 77.6985 43.2133C81.6244 42.6926 89.9995 42.6926 89.9995 48.4208C89.9995 51.5452 89.9995 54.6697 89.9995 58.0545C89.9995 60.6583 87.9057 63.0016 84.765 63.0016C81.8861 63.0016 79.0071 63.0016 76.1282 63.0016C72.7257 63.0016 69.8468 65.8657 69.8468 69.2506C70.1085 71.3335 70.1085 72.8958 70.1085 74.9787ZM74.0344 48.9415C74.0344 49.983 74.8195 50.7641 75.8664 50.7641C76.9133 50.7641 77.6985 49.983 77.6985 48.9415C77.6985 47.9 76.9133 47.1189 75.8664 47.1189C74.8195 47.1189 74.0344 47.9 74.0344 48.9415Z" fill="#C6CDDF"/>
<path d="M99 4.5498V27.2383C99 30.4249 101.79 32.9741 104.961 32.9741H125" fill="#474E61"/>
</g>
<defs>
<filter id="filter0_d_121_6582" x="13.2549" y="-6.45215" width="134.562" height="169.067" filterUnits="userSpaceOnUse" color-interpolation-filters="sRGB">
<feFlood flood-opacity="0" result="BackgroundImageFix"/>
<feColorMatrix in="SourceAlpha" type="matrix" values="0 0 0 0 0 0 0 0 0 0 0 0 0 0 0 0 0 0 127 0" result="hardAlpha"/>
<feOffset dy="11"/>
<feGaussianBlur stdDeviation="11"/>
<feColorMatrix type="matrix" values="0 0 0 0 0 0 0 0 0 0 0 0 0 0 0 0 0 0 0.27 0"/>
<feBlend mode="normal" in2="BackgroundImageFix" result="effect1_dropShadow_121_6582"/>
<feBlend mode="normal" in="SourceGraphic" in2="effect1_dropShadow_121_6582" result="shape"/>
</filter>
</defs>
</svg>
