<svg width="145" height="127" viewBox="0 0 145 127" fill="none" xmlns="http://www.w3.org/2000/svg">
<path d="M80.7091 127C112.521 127 138.312 101.191 138.312 69.2416C138.312 37.2927 112.408 11.4834 80.7091 11.4834C48.8967 11.4834 23.106 37.2927 23.106 69.2416C23.106 101.191 48.8967 127 80.7091 127Z" fill="#2A2E37"/>
<path d="M134.563 31.3803C137.135 31.3803 139.221 29.2932 139.221 26.7187C139.221 24.1442 137.135 22.0571 134.563 22.0571C131.99 22.0571 129.904 24.1442 129.904 26.7187C129.904 29.2932 131.99 31.3803 134.563 31.3803Z" fill="#2A2E37"/>
<path d="M141.379 13.1888C143.136 13.1888 144.561 11.7635 144.561 10.0053C144.561 8.24709 143.136 6.82178 141.379 6.82178C139.623 6.82178 138.198 8.24709 138.198 10.0053C138.198 11.7635 139.623 13.1888 141.379 13.1888Z" fill="#2A2E37"/>
<path d="M26.1734 31.267C27.9304 31.267 29.3547 29.8416 29.3547 28.0834C29.3547 26.3252 27.9304 24.8999 26.1734 24.8999C24.4165 24.8999 22.9922 26.3252 22.9922 28.0834C22.9922 29.8416 24.4165 31.267 26.1734 31.267Z" fill="#2A2E37"/>
<path d="M6.74492 92.6634C10.0078 92.6634 12.6529 90.0164 12.6529 86.7511C12.6529 83.4859 10.0078 80.8389 6.74492 80.8389C3.48202 80.8389 0.836914 83.4859 0.836914 86.7511C0.836914 90.0164 3.48202 92.6634 6.74492 92.6634Z" fill="#2A2E37"/>
<mask id="mask0_121_6480" style="mask-type:alpha" maskUnits="userSpaceOnUse" x="23" y="0" width="116" height="127">
<path d="M130.615 0H32.8356V37.3678C26.8001 46.4973 23.2852 57.4514 23.2852 69.2418C23.2852 101.191 49.0944 127 80.9297 127C112.765 127 138.574 101.191 138.574 69.2418C138.574 58.5474 135.67 48.541 130.615 39.9602V0Z" fill="#D9D9D9"/>
</mask>
<g mask="url(#mask0_121_6480)">
<g filter="url(#filter0_d_121_6480)">
<path d="M125.35 33.0927L126.373 124.623C126.373 127.439 124.071 129.615 121.257 129.615H40.9285C38.1144 129.615 35.812 127.311 35.812 124.623V9.53999C35.812 6.72391 38.1144 4.54785 40.9285 4.54785H99.1283L125.35 33.0927Z" fill="#5C6479"/>
</g>
<path d="M81.0611 74.1447C83.5869 74.1447 85.6345 72.0972 85.6345 69.5713C85.6345 67.0455 83.5869 64.9979 81.0611 64.9979C78.5352 64.9979 76.4877 67.0455 76.4877 69.5713C76.4877 72.0972 78.5352 74.1447 81.0611 74.1447Z" fill="#8E96AB"/>
<path fill-rule="evenodd" clip-rule="evenodd" d="M95.6392 77.9165C96.5871 77.6427 97.4843 77.3424 98.3239 77.0182C100.556 76.1561 102.435 75.1033 103.776 73.8797C105.116 72.6555 106 71.1769 106 69.5C106 67.823 105.116 66.3444 103.776 65.1203C102.435 63.8966 100.556 62.8438 98.3239 61.9818C97.4843 61.6575 96.5871 61.3572 95.6393 61.0834C95.8762 60.1255 96.0648 59.1982 96.2038 58.3088C96.5732 55.9449 96.6013 53.7907 96.2116 52.0183C95.8217 50.2452 94.9832 48.7403 93.531 47.9018C92.0787 47.0633 90.3562 47.0897 88.6257 47.6386C86.8959 48.1873 85.0444 49.2887 83.1819 50.7906C82.4811 51.3556 81.7724 51.9826 81.0613 52.6667C80.3501 51.9826 79.6414 51.3556 78.9407 50.7906C77.0782 49.2887 75.2266 48.1873 73.4968 47.6386C71.7663 47.0897 70.0438 47.0633 68.5915 47.9018C67.1393 48.7402 66.3008 50.2452 65.911 52.0183C65.5213 53.7907 65.5493 55.9448 65.9187 58.3088C66.0577 59.1981 66.2463 60.1254 66.4832 61.0832C65.5351 61.3571 64.6377 61.6574 63.7979 61.9818C61.566 62.8438 59.6864 63.8966 58.3463 65.1203C57.0057 66.3444 56.1216 67.823 56.1216 69.5C56.1216 71.1769 57.0057 72.6555 58.3463 73.8797C59.6864 75.1033 61.566 76.1561 63.7979 77.0182C64.6377 77.3425 65.5352 77.6428 66.4833 77.9167C66.2464 78.8745 66.0578 79.8017 65.9189 80.691C65.5494 83.0549 65.5214 85.2091 65.9111 86.9815C66.3009 88.7546 67.1394 90.2595 68.5917 91.098C70.0439 91.9365 71.7665 91.9101 73.4969 91.3612C75.2267 90.8125 77.0783 89.7111 78.9408 88.2092C79.6415 87.6442 80.3502 87.0172 81.0613 86.3332C81.7724 87.0172 82.4811 87.6442 83.1818 88.2092C85.0443 89.7111 86.8958 90.8125 88.6256 91.3612C90.3561 91.9101 92.0786 91.9364 93.5309 91.098C94.9831 90.2595 95.8216 88.7546 96.2115 86.9814C96.6012 85.2091 96.5731 83.0549 96.2037 80.691C96.0647 79.8016 95.8761 78.8744 95.6392 77.9165ZM92.459 89.2414C91.7067 89.6757 90.6613 89.7578 89.2738 89.3177C87.8856 88.8774 86.2692 87.9449 84.5275 86.5404C83.8824 86.0203 83.2264 85.4404 82.565 84.8051C84.0144 83.2533 85.4576 81.4788 86.8476 79.5222C89.2371 79.2966 91.4954 78.934 93.564 78.4547C93.7835 79.3452 93.9577 80.2033 94.0856 81.022C94.4311 83.2327 94.4304 85.0987 94.1177 86.5211C93.8051 87.9427 93.2112 88.8071 92.459 89.2414ZM92.9901 76.387C91.5632 76.7142 90.0335 76.9853 88.4221 77.191C88.951 76.3674 89.4689 75.5179 89.9729 74.645C90.4768 73.7721 90.9535 72.8989 91.4024 72.0291C92.0299 73.5274 92.56 74.9877 92.9901 76.387ZM81.0613 83.2742C82.0581 82.2021 83.0578 81.0128 84.0416 79.7201C83.0637 79.7664 82.069 79.7901 81.0609 79.7901C80.0531 79.7901 79.0586 79.7664 78.081 79.7202C79.0648 81.0128 80.0644 82.2021 81.0613 83.2742ZM75.275 79.5222C76.665 81.4788 78.1082 83.2533 79.5575 84.8051C78.8961 85.4404 78.2401 86.0203 77.5951 86.5404C75.8533 87.9449 74.2369 88.8774 72.8488 89.3177C71.4613 89.7579 70.4158 89.6757 69.6635 89.2414C68.9113 88.8071 68.3174 87.9428 68.0048 86.5211C67.6921 85.0988 67.6915 83.2327 68.0369 81.022C68.1649 80.2034 68.339 79.3454 68.5585 78.4549C70.6271 78.9341 72.8855 79.2967 75.275 79.5222ZM76.4586 77.472C77.944 77.5862 79.4829 77.6463 81.0609 77.6463C82.6392 77.6463 84.1784 77.5862 85.664 77.4719C86.5056 76.2426 87.3272 74.9398 88.1163 73.5731C88.9054 72.2064 89.6227 70.8435 90.2666 69.5C89.6227 68.1564 88.9053 66.7935 88.1162 65.4267C87.3271 64.06 86.5055 62.7573 85.6639 61.528C84.1784 61.4137 82.6392 61.3536 81.0609 61.3536C79.4829 61.3536 77.944 61.4137 76.4586 61.5279C75.617 62.7573 74.7954 64.06 74.0064 65.4267C73.2172 66.7935 72.4998 68.1564 71.856 69.5C72.4998 70.8435 73.2172 72.2064 74.0062 73.5731C74.7954 74.9398 75.617 76.2426 76.4586 77.472ZM70.7202 72.0291C71.169 72.8989 71.6457 73.7721 72.1497 74.6449C72.6537 75.5179 73.1716 76.3674 73.7005 77.1911C72.0891 76.9854 70.5593 76.7144 69.1324 76.3872C69.5625 74.9878 70.0926 73.5274 70.7202 72.0291ZM70.7202 66.9709C71.169 66.101 71.6458 65.2277 72.1498 64.3548C72.6537 63.4819 73.1716 62.6324 73.7005 61.8088C72.0891 62.0145 70.5593 62.2855 69.1324 62.6128C69.5624 64.0121 70.0926 65.4725 70.7202 66.9709ZM67.0547 63.1496C67.6739 65.1807 68.4891 67.3178 69.4886 69.5C68.4892 71.6821 67.674 73.8192 67.0548 75.8503C66.1737 75.5952 65.3434 75.3169 64.5703 75.0183C62.483 74.2122 60.8673 73.2786 59.7919 72.2966C58.717 71.3151 58.2654 70.3686 58.2654 69.5C58.2654 68.6313 58.717 67.6848 59.7919 66.7033C60.8673 65.7213 62.483 64.7877 64.5703 63.9816C65.3433 63.683 66.1736 63.4047 67.0547 63.1496ZM68.5585 60.5451C70.6271 60.0658 72.8855 59.7032 75.275 59.4777C76.665 57.5211 78.1082 55.7466 79.5576 54.1948C78.8961 53.5594 78.24 52.9795 77.595 52.4594C75.8532 51.0548 74.2368 50.1224 72.8486 49.682C71.4612 49.2419 70.4157 49.324 69.6634 49.7583C68.9112 50.1927 68.3173 51.057 68.0047 52.4787C67.692 53.901 67.6913 55.7671 68.0368 57.9778C68.1648 58.7965 68.3389 59.6545 68.5585 60.5451ZM81.0613 55.7257C80.0644 56.7978 79.0648 57.9871 78.081 59.2797C79.0586 59.2335 80.0531 59.2098 81.0609 59.2098C82.069 59.2098 83.0637 59.2335 84.0416 59.2798C83.0577 57.9871 82.0581 56.7978 81.0613 55.7257ZM86.8476 59.4778C89.2371 59.7033 91.4955 60.0659 93.564 60.5452C93.7836 59.6546 93.9578 58.7965 94.0857 57.9778C94.4312 55.7671 94.4305 53.901 94.1178 52.4787C93.8052 51.057 93.2114 50.1927 92.4591 49.7584C91.7068 49.3241 90.6614 49.2419 89.2739 49.6821C87.8857 50.1224 86.2693 51.0549 84.5276 52.4594C83.8825 52.9795 83.2265 53.5594 82.565 54.1948C84.0144 55.7466 85.4576 57.5211 86.8476 59.4778ZM88.4221 61.8089C90.0335 62.0146 91.5633 62.2857 92.9901 62.6129C92.5601 64.0122 92.0299 65.4726 91.4024 66.9709C90.9535 66.101 90.4767 65.2277 89.9727 64.3548C89.4688 63.482 88.951 62.6325 88.4221 61.8089ZM92.634 69.5C93.6334 67.3179 94.4485 65.1808 95.0678 63.1498C95.9486 63.4049 96.7787 63.683 97.5516 63.9816C99.6388 64.7877 101.255 65.7213 102.33 66.7033C103.405 67.6848 103.856 68.6313 103.856 69.5C103.856 70.3686 103.405 71.3151 102.33 72.2966C101.255 73.2786 99.6388 74.2122 97.5516 75.0183C96.7787 75.3169 95.9486 75.595 95.0677 75.8502C94.4485 73.8191 93.6334 71.6821 92.634 69.5Z" fill="#8E96AB"/>
<path d="M99.6826 4.54785V27.2363C99.6826 30.4229 102.473 32.9722 105.644 32.9722H125.683" fill="#474E61"/>
</g>
<defs>
<filter id="filter0_d_121_6480" x="13.812" y="-6.45215" width="134.562" height="169.067" filterUnits="userSpaceOnUse" color-interpolation-filters="sRGB">
<feFlood flood-opacity="0" result="BackgroundImageFix"/>
<feColorMatrix in="SourceAlpha" type="matrix" values="0 0 0 0 0 0 0 0 0 0 0 0 0 0 0 0 0 0 127 0" result="hardAlpha"/>
<feOffset dy="11"/>
<feGaussianBlur stdDeviation="11"/>
<feColorMatrix type="matrix" values="0 0 0 0 0 0 0 0 0 0 0 0 0 0 0 0 0 0 0.27 0"/>
<feBlend mode="normal" in2="BackgroundImageFix" result="effect1_dropShadow_121_6480"/>
<feBlend mode="normal" in="SourceGraphic" in2="effect1_dropShadow_121_6480" result="shape"/>
</filter>
</defs>
</svg>
