<svg width="188" height="156" viewBox="0 0 188 156" fill="none" xmlns="http://www.w3.org/2000/svg">
<path d="M95.3598 130C129.853 130 157.815 102.018 157.815 67.5C157.815 32.9822 129.853 5 95.3598 5C60.8669 5 32.9048 32.9822 32.9048 67.5C32.9048 102.018 60.8669 130 95.3598 130Z" fill="#2A2E37"/>
<g filter="url(#filter0_d_111_2258)">
<path d="M119.418 122.887H26.8284C24.3359 122.887 22.2832 120.833 22.2832 118.339V63.7572C22.2832 61.2629 24.3359 59.2087 26.8284 59.2087H119.418C121.911 59.2087 123.964 61.2629 123.964 63.7572V118.339C123.964 120.833 121.911 122.887 119.418 122.887Z" fill="#5C6479"/>
</g>
<path d="M47.7037 86.6539L47.6239 79.4377C55.6787 79.9934 62.0269 86.6745 62.205 94.6518C62.2873 99.766 59.6115 104.287 55.5256 106.856L51.8146 100.305C53.6259 98.9957 54.7208 96.8596 54.7569 94.3108C54.7283 90.5537 51.5542 87.2132 47.7037 86.6539Z" fill="#8E96AB"/>
<path d="M46.0439 79.6189L46.1228 86.7769C43.7969 86.976 41.6991 88.2419 40.4739 90.1967L34.3097 86.1141C36.749 82.3524 40.9447 79.8204 46.0439 79.6189Z" fill="#EAEEF9"/>
<path d="M32.9922 88.0077L39.3008 92.0992C39.0928 92.8204 38.8848 93.5417 38.971 94.443C38.9661 98.6055 42.5494 102.109 46.998 102.286C48.2302 102.268 49.3208 102.087 50.2699 101.742L53.948 108.081C51.8751 109.05 49.5301 109.544 47.0769 109.431C38.6264 109.274 31.7539 102.447 31.6 94.2528C31.6135 92.024 32.085 89.844 32.9922 88.0077Z" fill="#C6CDDF"/>
<path d="M70.9607 69.6264H31.2269C30.1273 69.6264 29.2476 68.746 29.2476 67.6456C29.2476 66.5451 30.1273 65.6648 31.2269 65.6648H71.034C72.1336 65.6648 73.0133 66.5451 73.0133 67.6456C73.0133 68.746 72.0603 69.6264 70.9607 69.6264Z" fill="#C6CDDF"/>
<g filter="url(#filter1_d_111_2258)">
<path d="M160.765 75.2751H68.1751C65.6825 75.2751 63.6299 73.221 63.6299 70.7267V16.1451C63.6299 13.6508 65.6825 11.5967 68.1751 11.5967H160.765C163.258 11.5967 165.31 13.6508 165.31 16.1451V70.7267C165.31 73.221 163.258 75.2751 160.765 75.2751Z" fill="#5C6479"/>
</g>
<path d="M112.307 22.0141H72.5731C71.4735 22.0141 70.5938 21.1337 70.5938 20.0333C70.5938 18.9328 71.4735 18.0525 72.5731 18.0525H112.38C113.48 18.0525 114.36 18.9328 114.36 20.0333C114.36 21.1337 113.407 22.0141 112.307 22.0141Z" fill="#C6CDDF"/>
<path d="M88.9221 67.9391H84.963C84.3765 67.9391 83.8633 67.4255 83.8633 66.8386C83.8633 66.2516 84.3765 65.738 84.963 65.738H88.9221C89.5087 65.738 90.0219 66.2516 90.0219 66.8386C90.0952 67.4255 89.582 67.9391 88.9221 67.9391Z" fill="#C6CDDF"/>
<path d="M111.281 67.9391H107.322C106.735 67.9391 106.222 67.4255 106.222 66.8386C106.222 66.2516 106.735 65.738 107.322 65.738H111.281C111.868 65.738 112.381 66.2516 112.381 66.8386C112.381 67.4255 111.868 67.9391 111.281 67.9391Z" fill="#C6CDDF"/>
<path d="M102.877 99.5063H87.2352C86.7221 99.5063 86.2822 99.0661 86.2822 98.5526V98.4059C86.2822 97.8923 86.7221 97.4521 87.2352 97.4521H102.877C103.391 97.4521 103.83 97.8923 103.83 98.4059V98.5526C103.83 99.0661 103.391 99.5063 102.877 99.5063Z" fill="#C6CDDF"/>
<path d="M95.642 90.4555H87.2352C86.7221 90.4555 86.2822 90.0153 86.2822 89.5018V89.3551C86.2822 88.8415 86.7221 88.4014 87.2352 88.4014H95.642C96.1551 88.4014 96.595 88.8415 96.595 89.3551V89.5018C96.595 90.0153 96.1551 90.4555 95.642 90.4555Z" fill="#C6CDDF"/>
<path d="M99.749 108.31H87.2352C86.7221 108.31 86.2822 107.87 86.2822 107.356V107.209C86.2822 106.696 86.7221 106.256 87.2352 106.256H99.749C100.262 106.256 100.702 106.696 100.702 107.209V107.356C100.775 107.87 100.335 108.31 99.749 108.31Z" fill="#C6CDDF"/>
<path d="M133.641 67.9391H129.682C129.096 67.9391 128.583 67.4255 128.583 66.8386C128.583 66.2516 129.096 65.738 129.682 65.738H133.641C134.228 65.738 134.741 66.2516 134.741 66.8386C134.814 67.4255 134.301 67.9391 133.641 67.9391Z" fill="#C6CDDF"/>
<path d="M156.22 67.9391H152.261C151.675 67.9391 151.162 67.4255 151.162 66.8386C151.162 66.2516 151.675 65.738 152.261 65.738H156.22C156.807 65.738 157.32 66.2516 157.32 66.8386C157.32 67.4255 156.88 67.9391 156.22 67.9391Z" fill="#C6CDDF"/>
<path d="M75.2866 58.6955H72.0607C71.4742 58.6955 70.9609 58.1819 70.9609 57.5949C70.9609 57.008 71.4742 56.4944 72.0607 56.4944H75.2866C75.8732 56.4944 76.3864 57.008 76.3864 57.5949C76.3864 58.2553 75.8732 58.6955 75.2866 58.6955Z" fill="#C6CDDF"/>
<path d="M75.2866 45.5636H72.0607C71.4742 45.5636 70.9609 45.05 70.9609 44.4631C70.9609 43.8761 71.4742 43.3625 72.0607 43.3625H75.2866C75.8732 43.3625 76.3864 43.8761 76.3864 44.4631C76.3864 45.05 75.8732 45.5636 75.2866 45.5636Z" fill="#C6CDDF"/>
<path d="M75.2866 32.4318H72.0607C71.4742 32.4318 70.9609 31.9182 70.9609 31.3313C70.9609 30.7443 71.4742 30.2307 72.0607 30.2307H75.2866C75.8732 30.2307 76.3864 30.7443 76.3864 31.3313C76.3864 31.9182 75.8732 32.4318 75.2866 32.4318Z" fill="#C6CDDF"/>
<path d="M158.419 56.7144H81.6641V57.448H158.419V56.7144Z" fill="#C6CDDF"/>
<path d="M83.1304 43.5093H81.6641V44.243H83.1304V43.5093Z" fill="#C6CDDF"/>
<path d="M153.947 44.2429H151.014V43.5093H153.947V44.2429ZM148.082 44.2429H145.149V43.5093H148.082V44.2429ZM142.144 44.2429H139.211V43.5093H142.144V44.2429ZM136.279 44.2429H133.347V43.5093H136.279V44.2429ZM130.341 44.2429H127.409V43.5093H130.341V44.2429ZM124.476 44.2429H121.544V43.5093H124.476V44.2429ZM118.538 44.2429H115.606V43.5093H118.538V44.2429ZM112.673 44.2429H109.741V43.5093H112.673V44.2429ZM106.735 44.2429H103.803V43.5093H106.735V44.2429ZM100.871 44.2429H97.9382V43.5093H100.871V44.2429ZM94.9325 44.2429H92.0001V43.5093H94.9325V44.2429ZM88.9944 44.2429H86.062V43.5093H88.9944V44.2429Z" fill="#C6CDDF"/>
<path d="M158.419 43.5093H156.953V44.243H158.419V43.5093Z" fill="#C6CDDF"/>
<path d="M83.1304 30.3042H81.6641V31.0379H83.1304V30.3042Z" fill="#C6CDDF"/>
<path d="M153.947 31.0378H151.014V30.3042H153.947V31.0378ZM148.082 31.0378H145.149V30.3042H148.082V31.0378ZM142.144 31.0378H139.211V30.3042H142.144V31.0378ZM136.279 31.0378H133.347V30.3042H136.279V31.0378ZM130.341 31.0378H127.409V30.3042H130.341V31.0378ZM124.476 31.0378H121.544V30.3042H124.476V31.0378ZM118.538 31.0378H115.606V30.3042H118.538V31.0378ZM112.673 31.0378H109.741V30.3042H112.673V31.0378ZM106.735 31.0378H103.803V30.3042H106.735V31.0378ZM100.871 31.0378H97.9382V30.3042H100.871V31.0378ZM94.9325 31.0378H92.0001V30.3042H94.9325V31.0378ZM88.9944 31.0378H86.062V30.3042H88.9944V31.0378Z" fill="#C6CDDF"/>
<path d="M158.419 30.3042H156.953V31.0379H158.419V30.3042Z" fill="#C6CDDF"/>
<path d="M80.4178 100.681H78.4383C77.7051 100.681 77.1919 100.094 77.1919 99.4333V97.4524C77.1919 96.7187 77.7784 96.2051 78.4383 96.2051H80.4178C81.151 96.2051 81.6642 96.792 81.6642 97.4524V99.4333C81.6642 100.167 81.0777 100.681 80.4178 100.681Z" fill="#C6CDDF"/>
<path d="M80.4178 91.6298H78.4383C77.7051 91.6298 77.1919 91.0429 77.1919 90.3826V88.4016C77.1919 87.6679 77.7784 87.1543 78.4383 87.1543H80.4178C81.151 87.1543 81.6642 87.7413 81.6642 88.4016V90.3826C81.6642 91.1163 81.0777 91.6298 80.4178 91.6298Z" fill="#EAEEF9"/>
<path d="M80.4178 109.484H78.4383C77.7051 109.484 77.1919 108.897 77.1919 108.237V106.256C77.1919 105.522 77.7784 105.009 78.4383 105.009H80.4178C81.151 105.009 81.6642 105.595 81.6642 106.256V108.237C81.6642 108.971 81.0777 109.484 80.4178 109.484Z" fill="#8E96AB"/>
<path d="M89.2148 42.7024H84.8163C83.7166 42.7024 82.8369 43.5827 82.8369 44.6832V56.7146H91.1942V44.6832C91.1942 43.5827 90.3145 42.7024 89.2148 42.7024Z" fill="#8E96AB"/>
<path d="M111.5 36.6133H107.102C106.002 36.6133 105.123 37.4936 105.123 38.5941V56.6412H113.553V38.5941C113.48 37.4936 112.6 36.6133 111.5 36.6133Z" fill="#8E96AB"/>
<path d="M133.934 50.9189H129.535C128.435 50.9189 127.556 51.7994 127.556 52.8999V56.6418H135.914V52.8999C135.914 51.7994 135.034 50.9189 133.934 50.9189Z" fill="#8E96AB"/>
<path d="M156.439 32.3582H152.041C150.941 32.3582 150.062 33.2385 150.062 34.3389V56.7144H158.492V34.3389C158.419 33.2385 157.539 32.3582 156.439 32.3582Z" fill="#8E96AB"/>
<defs>
<filter id="filter0_d_111_2258" x="0.283203" y="48.2087" width="145.68" height="107.678" filterUnits="userSpaceOnUse" color-interpolation-filters="sRGB">
<feFlood flood-opacity="0" result="BackgroundImageFix"/>
<feColorMatrix in="SourceAlpha" type="matrix" values="0 0 0 0 0 0 0 0 0 0 0 0 0 0 0 0 0 0 127 0" result="hardAlpha"/>
<feOffset dy="11"/>
<feGaussianBlur stdDeviation="11"/>
<feColorMatrix type="matrix" values="0 0 0 0 0 0 0 0 0 0 0 0 0 0 0 0 0 0 0.27 0"/>
<feBlend mode="normal" in2="BackgroundImageFix" result="effect1_dropShadow_111_2258"/>
<feBlend mode="normal" in="SourceGraphic" in2="effect1_dropShadow_111_2258" result="shape"/>
</filter>
<filter id="filter1_d_111_2258" x="41.6299" y="0.59668" width="145.68" height="107.678" filterUnits="userSpaceOnUse" color-interpolation-filters="sRGB">
<feFlood flood-opacity="0" result="BackgroundImageFix"/>
<feColorMatrix in="SourceAlpha" type="matrix" values="0 0 0 0 0 0 0 0 0 0 0 0 0 0 0 0 0 0 127 0" result="hardAlpha"/>
<feOffset dy="11"/>
<feGaussianBlur stdDeviation="11"/>
<feColorMatrix type="matrix" values="0 0 0 0 0 0 0 0 0 0 0 0 0 0 0 0 0 0 0.27 0"/>
<feBlend mode="normal" in2="BackgroundImageFix" result="effect1_dropShadow_111_2258"/>
<feBlend mode="normal" in="SourceGraphic" in2="effect1_dropShadow_111_2258" result="shape"/>
</filter>
</defs>
</svg>
