<svg width="125" height="125" viewBox="0 0 125 125" fill="none" xmlns="http://www.w3.org/2000/svg">
<g clip-path="url(#clip0_111_777)">
<path d="M5.44507 28.9352C7.76203 28.9352 9.73144 27.0833 9.73144 24.6528C9.73144 22.338 7.87788 20.3704 5.44507 20.3704C3.12811 20.3704 1.15869 22.2222 1.15869 24.6528C1.15869 27.0833 3.01226 28.9352 5.44507 28.9352Z" fill="#2A2E37"/>
<path d="M14.0174 14.5833C14.9442 14.5833 15.6393 13.8888 15.6393 12.9629C15.6393 12.037 14.9442 11.3425 14.0174 11.3425C13.0906 11.3425 12.3955 12.037 12.3955 12.9629C12.3955 13.8888 13.0906 14.5833 14.0174 14.5833Z" fill="#2A2E37"/>
<path d="M116.543 23.9583C117.586 23.9583 118.281 23.1481 118.281 22.2222C118.281 21.1805 117.47 20.4861 116.543 20.4861C115.616 20.4861 114.689 21.1805 114.689 22.1065C114.689 23.1481 115.5 23.9583 116.543 23.9583Z" fill="#2A2E37"/>
<path d="M62.5581 123.843C96.5016 123.843 123.958 96.4121 123.958 62.5001C123.958 28.588 96.3857 1.15747 62.5581 1.15747C28.6147 1.15747 1.15869 28.588 1.15869 62.5001C1.15869 96.4121 28.6147 123.843 62.5581 123.843Z" fill="#2A2E37"/>
<path d="M56.8165 27.0005C58.724 25.5655 59.2309 22.8381 57.6927 20.7964C56.2571 18.8907 53.5278 18.3848 51.4842 19.9224C49.5767 21.3574 49.0698 24.0848 50.608 26.1265C52.0436 28.0322 54.9091 28.4356 56.8165 27.0005Z" fill="#8E96AB"/>
<g filter="url(#filter0_d_111_777)">
<path d="M85.2688 100.602L27.7801 117.089C26.7744 117.312 25.8698 116.82 25.527 115.798L1.92365 33.7479C1.70026 32.743 2.19323 31.8389 3.21578 31.4961L60.7213 14.89C61.727 14.6666 62.6316 15.1589 62.9744 16.1806L86.6972 98.2478C86.8012 99.2359 86.2913 100.259 85.2688 100.602Z" fill="#5C6479"/>
</g>
<path opacity="0.4" d="M19.6426 57.413L14.9555 58.7001L11.8171 48.1588L16.4016 46.7357L19.6426 57.413Z" fill="#8E96AB"/>
<path d="M25.8631 55.6127L21.0399 57.0022L16.3745 40.8923L21.0615 39.6053L25.8631 55.6127Z" fill="#474E61"/>
<path d="M38.3391 51.7733L33.7547 53.1965L27.3586 32.0975L32.0624 30.6912L38.3391 51.7733Z" fill="#8E96AB"/>
<path opacity="0.4" d="M44.1874 50.0418L39.6028 51.465L37.8537 45.7431L42.6771 44.3535L44.1874 50.0418Z" fill="#8E96AB"/>
<path d="M65.678 51.3618L17.5771 65.1566C17.1852 65.3448 16.6219 65.0221 16.4505 64.5112C16.2623 64.1196 16.5853 63.5566 16.9772 63.3684L65.0781 49.5736C65.47 49.3854 66.0333 49.7081 66.2047 50.219C66.3761 50.7299 66.1893 51.1904 65.678 51.3618Z" fill="#C6CDDF"/>
<path d="M66.9656 56.0449L18.8647 69.8397C18.4728 70.0279 17.9095 69.7052 17.7381 69.1943C17.5499 68.8027 17.8729 68.2397 18.2648 68.0515L66.3657 54.2567C66.7576 54.0685 67.3209 54.3912 67.4923 54.9021C67.7999 55.3105 67.46 55.9928 66.9656 56.0449Z" fill="#C6CDDF"/>
<path d="M68.3892 60.6255L20.2715 74.5396C19.8796 74.7279 19.3162 74.4052 19.1448 73.8943C18.9566 73.5027 19.2796 72.9397 19.6716 72.7515L67.7724 58.9567C68.1643 58.7684 68.7276 59.0911 68.899 59.602C69.0704 60.1129 68.8836 60.5734 68.3892 60.6255Z" fill="#C6CDDF"/>
<path d="M39.8488 73.8847L21.8154 79.1343C21.4235 79.3225 20.8602 78.9999 20.6888 78.489C20.5005 78.0974 20.8236 77.5344 21.2155 77.3462L39.232 72.2158C39.6239 72.0276 40.1872 72.3503 40.3586 72.8612C40.4275 73.236 40.2407 73.6964 39.8488 73.8847Z" fill="#474E61"/>
<path d="M73.1528 72.6115L74.4215 76.5625C74.6954 77.2095 74.2193 77.9943 73.4523 78.2514L63.1743 81.1854L25.8463 91.9939C25.1987 92.2678 24.4135 91.7922 24.1564 91.0258L22.8877 87.0748C22.6138 86.4278 23.0899 85.643 23.8569 85.3859L61.0486 74.6799L71.3435 71.6266C72.3156 71.6418 72.9983 71.9812 73.1528 72.6115Z" fill="#C6CDDF"/>
<path d="M75.7443 81.8584L77.0129 85.8095C77.2869 86.4565 76.8107 87.2413 76.0438 87.4984L72.6178 88.4764L28.5571 101.258C27.9096 101.532 27.1243 101.056 26.8672 100.29L25.5986 96.3386C25.3246 95.6915 25.8008 94.9067 26.5677 94.6496L70.7309 82.0045L74.1401 81.1458C74.9239 80.7694 75.6066 81.1089 75.7443 81.8584Z" fill="#C6CDDF"/>
<path d="M78.4721 91.0026L79.7408 94.9537C80.0147 95.6007 79.5386 96.3855 78.7716 96.6426L61.1302 101.704L31.3018 110.283C30.6543 110.556 29.869 110.081 29.6119 109.315L28.4627 105.38C28.1887 104.733 28.6649 103.948 29.4318 103.691L60.0272 94.8557L76.9016 90.0514C77.5492 89.7775 78.3344 90.2531 78.4721 91.0026Z" fill="#C6CDDF"/>
<path d="M29.2961 103.793L59.8912 94.9571L61.1306 101.703L31.3024 110.281C30.6548 110.555 29.8696 110.08 29.6125 109.313L28.3438 105.362C28.1893 104.732 28.6654 103.947 29.2961 103.793Z" fill="#8E96AB"/>
<path d="M24.2591 91.1609L22.9905 87.2098C22.7165 86.5628 23.1927 85.778 23.9596 85.5209L61.1512 74.8151L63.0381 81.2869L25.8465 91.9928C25.1989 92.2667 24.3968 91.9104 24.2591 91.1609Z" fill="#8E96AB"/>
<path d="M70.867 81.9016L72.737 88.4928L28.5571 101.257C27.9095 101.531 27.1243 101.056 26.8672 100.289L25.5985 96.3381C25.3246 95.6911 25.8007 94.9063 26.5677 94.6492L70.867 81.9016Z" fill="#8E96AB"/>
<path d="M32.8561 82.8772L34.7429 89.3488L25.8627 91.8709C25.2152 92.1448 24.43 91.6692 24.1729 90.9029L22.9043 86.9521C22.6303 86.3051 23.1065 85.5203 23.8734 85.2633L32.8561 82.8772Z" fill="#474E61"/>
<path d="M26.5683 94.6464L35.4484 92.1243L37.3353 98.5958L28.4551 101.118C27.8076 101.392 27.0224 100.916 26.7653 100.15L25.4967 96.1992C25.5978 95.4833 25.9376 94.801 26.5683 94.6464Z" fill="#474E61"/>
<g filter="url(#filter1_d_111_777)">
<path d="M112.713 104.691L52.9332 104.948C51.9616 104.914 51.1658 104.138 51.1999 103.167L50.8976 21.4215C50.9317 20.4507 51.7078 19.6556 52.6794 19.6898L112.46 19.4326C113.431 19.4668 114.227 20.2425 114.193 21.2133L114.495 102.959C114.581 103.919 113.805 104.714 112.713 104.691Z" fill="#5C6479"/>
</g>
<path d="M107.284 53.5241L57.4127 53.6221C56.9323 53.665 56.5289 53.217 56.4859 52.7368C56.4429 52.2566 56.8911 51.8536 57.3715 51.8107L107.233 51.5927C107.713 51.5498 108.116 51.9978 108.159 52.4779C108.213 53.0782 107.765 53.4812 107.284 53.5241Z" fill="#C6CDDF"/>
<path d="M107.343 58.2364L57.3619 58.4651C56.8815 58.508 56.4781 58.06 56.4351 57.5798C56.3921 57.0996 56.8403 56.6966 57.3207 56.6537L107.302 56.425C107.782 56.382 108.186 56.83 108.229 57.3102C108.282 57.9105 107.824 58.1935 107.343 58.2364Z" fill="#C6CDDF"/>
<path d="M107.293 63.0791L57.4317 63.2971C56.9513 63.34 56.548 62.892 56.505 62.4119C56.4619 61.9317 56.9101 61.5286 57.3906 61.4857L107.372 61.257C107.852 61.2141 108.256 61.6621 108.299 62.1423C108.232 62.7532 107.784 63.1563 107.293 63.0791Z" fill="#C6CDDF"/>
<path d="M79.5426 31.6902L57.3908 31.7311C56.9104 31.774 56.507 31.3259 56.464 30.8456C56.421 30.3653 56.8691 29.9622 57.3495 29.9194L79.4905 29.7584C79.9709 29.7155 80.3743 30.1636 80.4173 30.6439C80.4604 31.1241 79.9029 31.658 79.5426 31.6902Z" fill="#C6CDDF"/>
<path d="M79.481 36.4131L57.3293 36.454C56.8489 36.4969 56.4455 36.0488 56.4025 35.5685C56.3594 35.0882 56.8076 34.6851 57.288 34.6423L79.4397 34.6013C79.9202 34.5584 80.3235 35.0066 80.3666 35.4868C80.4204 36.0872 79.9615 36.3702 79.481 36.4131Z" fill="#C6CDDF"/>
<path d="M72.2901 41.2887L57.2785 41.2974C56.7981 41.3403 56.3947 40.8922 56.3517 40.412C56.3086 39.9317 56.7568 39.5286 57.2372 39.4858L72.2488 39.4771C72.7292 39.4342 73.1326 39.8823 73.1756 40.3625C73.2294 40.9628 72.7705 41.2458 72.2901 41.2887Z" fill="#C6CDDF"/>
<path d="M107.258 78.9264L90.4342 78.9769C89.9537 79.0198 89.5504 78.5718 89.5074 78.0917C89.4644 77.6116 89.9126 77.2086 90.393 77.1657L107.217 77.1151C107.697 77.0722 108.101 77.5202 108.144 78.0003C108.067 78.4912 107.749 79.0035 107.258 78.9264Z" fill="#C6CDDF"/>
<path d="M86.351 79.3424C87.0824 79.398 87.6291 78.7444 87.5646 78.0243C87.6202 77.2935 86.9659 76.7471 86.2453 76.8115C85.514 76.7558 84.9672 77.4095 85.0317 78.1295C85.0963 78.8495 85.6304 79.4067 86.351 79.3424Z" fill="#C6CDDF"/>
<path d="M107.25 84.2494L90.4264 84.2999C89.9459 84.3428 89.5426 83.8948 89.4996 83.4147C89.4566 82.9346 89.9047 82.5316 90.3852 82.4887L107.209 82.4381C107.69 82.3952 108.093 82.8432 108.136 83.3233C108.059 83.8142 107.742 84.3265 107.25 84.2494Z" fill="#C6CDDF"/>
<path d="M86.3432 84.6651C87.0746 84.7208 87.6213 84.0671 87.5568 83.3471C87.6124 82.6163 86.9581 82.0699 86.2375 82.1342C85.5062 82.0786 84.9594 82.7322 85.0239 83.4523C85.0884 84.1723 85.7427 84.7187 86.3432 84.6651Z" fill="#8E96AB"/>
<path d="M107.374 89.6813L90.5499 89.7318C90.0695 89.7747 89.6661 89.3267 89.6231 88.8466C89.5801 88.3665 90.0283 87.9634 90.5087 87.9205L107.333 87.87C107.813 87.8271 108.217 88.2751 108.26 88.7552C108.172 89.126 107.734 89.6491 107.374 89.6813Z" fill="#C6CDDF"/>
<path d="M86.466 90.0973C87.1974 90.153 87.7441 89.4993 87.6796 88.7793C87.7352 88.0485 87.0809 87.5021 86.3603 87.5664C85.629 87.5108 85.0822 88.1644 85.1467 88.8845C85.0804 89.4952 85.7347 90.0417 86.466 90.0973Z" fill="#474E61"/>
<path d="M67.727 76.8934L67.6913 71.0901C61.4255 71.4076 56.572 76.6797 56.5414 83.0938C56.5467 87.2063 58.692 90.8857 61.9091 93.0178L64.7105 87.808C63.2821 86.7258 62.4003 84.99 62.3376 82.9392C62.309 79.9175 64.7357 77.2814 67.727 76.8934Z" fill="#474E61"/>
<path d="M69.266 71.0702L69.3021 76.8738C71.1358 77.0731 72.8046 78.1339 73.7959 79.7391L78.5923 76.5287C76.6205 73.4383 73.2829 71.3166 69.266 71.0702Z" fill="#C6CDDF"/>
<path d="M79.4401 77.9032L74.5235 81.1244C74.6974 81.7137 74.8713 82.3031 74.8158 83.0339C74.8768 86.4158 72.1004 89.2041 68.5961 89.2748C67.6246 89.2405 66.7624 89.0755 66.0096 88.7798L63.1974 93.8698C64.8447 94.6906 66.6999 95.1299 68.6322 95.0785C75.2912 95.0892 80.6146 89.6541 80.6234 82.9996C80.5821 81.1886 80.1805 79.4098 79.4401 77.9032Z" fill="#8E96AB"/>
<path d="M91.1953 44.1946L88.0513 44.2334C87.4508 44.287 87.0368 43.7192 86.9938 43.2391L86.9492 35.9853C86.8954 35.3853 87.4637 34.9716 87.944 34.9287L91.088 34.8899C91.6885 34.8363 92.1025 35.4042 92.1456 35.8842L92.1901 43.138C92.2439 43.7381 91.8065 44.261 91.1953 44.1946Z" fill="#474E61"/>
<path d="M99.1871 44.2062L96.0432 44.245C95.4427 44.2986 95.0287 43.7308 94.9857 43.2508L95.0004 32.6047C94.9466 32.0047 95.5148 31.5911 95.9952 31.5482L99.1391 31.5094C99.7395 31.4558 100.154 32.0236 100.197 32.5036L100.182 43.1497C100.236 43.7497 99.6675 44.1633 99.1871 44.2062Z" fill="#8E96AB"/>
<path d="M107.048 44.1085L103.904 44.1473C103.304 44.201 102.89 43.6331 102.847 43.1531L102.79 29.0056C102.736 28.4056 103.304 27.992 103.785 27.9491L106.928 27.9103C107.529 27.8567 107.943 28.4245 107.986 28.9045L108.043 43.052C108.097 43.652 107.659 44.1749 107.048 44.1085Z" fill="#474E61"/>
</g>
<defs>
<filter id="filter0_d_111_777" x="-20.1294" y="3.83691" width="128.84" height="146.305" filterUnits="userSpaceOnUse" color-interpolation-filters="sRGB">
<feFlood flood-opacity="0" result="BackgroundImageFix"/>
<feColorMatrix in="SourceAlpha" type="matrix" values="0 0 0 0 0 0 0 0 0 0 0 0 0 0 0 0 0 0 127 0" result="hardAlpha"/>
<feOffset dy="11"/>
<feGaussianBlur stdDeviation="11"/>
<feColorMatrix type="matrix" values="0 0 0 0 0 0 0 0 0 0 0 0 0 0 0 0 0 0 0.27 0"/>
<feBlend mode="normal" in2="BackgroundImageFix" result="effect1_dropShadow_111_777"/>
<feBlend mode="normal" in="SourceGraphic" in2="effect1_dropShadow_111_777" result="shape"/>
</filter>
<filter id="filter1_d_111_777" x="28.8975" y="8.43262" width="107.604" height="129.515" filterUnits="userSpaceOnUse" color-interpolation-filters="sRGB">
<feFlood flood-opacity="0" result="BackgroundImageFix"/>
<feColorMatrix in="SourceAlpha" type="matrix" values="0 0 0 0 0 0 0 0 0 0 0 0 0 0 0 0 0 0 127 0" result="hardAlpha"/>
<feOffset dy="11"/>
<feGaussianBlur stdDeviation="11"/>
<feColorMatrix type="matrix" values="0 0 0 0 0 0 0 0 0 0 0 0 0 0 0 0 0 0 0.27 0"/>
<feBlend mode="normal" in2="BackgroundImageFix" result="effect1_dropShadow_111_777"/>
<feBlend mode="normal" in="SourceGraphic" in2="effect1_dropShadow_111_777" result="shape"/>
</filter>
<clipPath id="clip0_111_777">
<rect width="125" height="125" fill="white"/>
</clipPath>
</defs>
</svg>
