<svg width="132" height="146" viewBox="0 0 132 146" fill="none" xmlns="http://www.w3.org/2000/svg">
<path d="M103.47 123.265H25.431C25.2001 123.265 25.0205 123.085 25.0205 122.854V108.503C25.0205 106.68 26.5084 105.191 28.3299 105.191H100.571C102.393 105.191 103.88 106.68 103.88 108.503V122.854C103.906 123.085 103.701 123.265 103.47 123.265Z" fill="#474E61"/>
<path opacity="0.2" d="M103.469 115.743H25.5335C25.3029 115.743 25.1235 115.638 25.1235 115.504V107.146C25.1235 106.084 26.6095 105.217 28.4285 105.217H100.574C102.393 105.217 103.879 106.084 103.879 107.146V115.504C103.904 115.638 103.699 115.743 103.469 115.743Z" fill="#2A2E37"/>
<g filter="url(#filter0_d_121_6891)">
<path d="M105.83 112.149H23.0711C22.5067 112.149 22.0449 111.687 22.0449 111.122V19.1381C22.0449 14.6455 25.6878 11 30.1772 11H98.75C103.239 11 106.882 14.6455 106.882 19.1381V111.122C106.882 111.687 106.42 112.149 105.83 112.149Z" fill="#5C6479"/>
</g>
<path opacity="0.5" d="M101.079 21.7015V75.0052C101.079 76.3805 100.025 77.4806 98.7076 77.4806H29.8601C29.1223 77.4806 28.49 77.1231 28.0421 76.6005C27.6996 76.1879 27.4888 75.6103 27.4888 75.0327V21.7015C27.4888 20.3263 28.5427 19.2261 29.8601 19.2261H98.7339C99.3399 19.2261 99.8932 19.4461 100.315 19.8587C100.789 20.2988 101.079 20.9589 101.079 21.7015Z" fill="#474E61"/>
<path opacity="0.7" d="M101.079 21.6606V75.0033C101.079 76.3795 100.025 77.4805 98.7069 77.4805H29.8457C29.1078 77.4805 28.4754 77.1227 28.0273 76.5997L100.288 19.8164C100.789 20.2568 101.079 20.9174 101.079 21.6606Z" fill="#8E96AB"/>
<path d="M91.8241 23.605H36.7453C33.9233 23.605 31.6401 25.8898 31.6401 28.7138V68.0181C31.6401 70.842 33.9233 73.1269 36.7453 73.1269H91.7984C94.6204 73.1269 96.9035 70.842 96.9035 68.0181V28.6881C96.9035 25.8898 94.6204 23.605 91.8241 23.605Z" fill="#393F4E"/>
<path d="M39.9413 54.0952C44.1203 50.9587 44.3057 51.1105 44.491 49.7278C45.3673 43.1344 45.62 42.4599 46.1256 41.4144C47.1703 39.2559 50.3383 39.5932 50.5573 42.3081C50.6753 43.8089 50.254 45.1916 49.5631 46.5069C49.3778 46.8442 49.2093 47.1815 49.0239 47.5356C51.1808 48.3619 51.6863 49.2725 51.3493 51.5658C51.2313 52.3078 51.1302 53.0666 51.046 53.8086C50.8775 55.4274 52.7479 54.9047 54.3993 54.5505C54.8711 54.4494 54.7869 54.129 54.6689 53.758C54.1465 52.1054 54.2813 50.4866 55.107 48.9521C55.5283 48.1764 56.1518 47.6368 57.0112 47.4007C58.9321 46.8948 60.4993 48.2101 60.3982 50.2336C60.3308 51.5489 59.7073 52.5944 58.8142 53.4882C58.4266 53.876 58.0054 54.247 57.5335 54.7023C58.8647 55.2082 60.0443 55.0396 61.207 54.5674C61.6114 54.3988 61.9821 54.129 62.3697 53.9097C63.1617 53.4544 63.3639 52.8642 63.3133 51.9031C63.128 48.6485 63.5492 45.4446 64.7794 42.4093C65.0658 41.7347 65.5039 41.0602 66.0432 40.5543C67.2564 39.4077 69.0931 40.0316 69.4302 41.6504C69.8177 43.4716 69.3291 45.2254 68.7898 46.9454C68.1158 49.1376 66.9699 51.1105 65.5882 52.9317C65.0995 53.5725 65.268 53.9772 65.723 54.4494C66.3465 55.0901 67.1722 55.1913 67.9136 54.9215C68.8404 54.5843 69.7335 54.0784 70.576 53.5388C70.8456 53.3701 71.0141 52.8137 70.9804 52.4595C70.7108 49.1544 71.2669 45.9673 72.3116 42.8477C72.5475 42.1732 72.952 41.5324 73.3732 40.9422C74.0136 40.0653 74.9235 39.8124 75.8334 40.1159C76.8108 40.4363 77.1141 41.2457 77.1815 42.1563C77.3163 44.2473 76.9119 46.2709 76.0357 48.1426C75.2437 49.8121 74.2832 51.3972 73.3058 52.9486C72.9688 53.4882 72.9857 53.8423 73.3395 54.2807C74.0304 55.1407 75.4627 55.3431 76.4401 54.4999C77.1984 53.8423 77.7881 52.9486 78.3274 52.0886C78.7149 51.4815 78.8666 50.7395 79.153 50.065C80.1135 47.8222 82.6243 46.5575 85.0677 47.9403C87.7132 49.4411 88.0839 46.8442 89.2129 47.0803C89.6005 47.1646 90.0892 47.603 89.7016 48.2438C88.9939 49.3905 87.7638 49.8795 86.4494 50.0313C86.4494 50.9419 86.5505 51.8187 86.4326 52.6619C86.045 55.2082 84.0735 56.7764 81.7649 56.5235C80.4337 56.3717 79.5912 55.5792 78.9171 54.4325C77.9398 55.4949 76.8782 56.3886 75.3785 56.5235C73.8451 56.6584 72.6487 56.0851 71.9072 55.0058C70.4581 55.5286 69.1437 56.1694 67.7619 56.4729C66.2117 56.8102 64.8973 56.1525 64.1559 54.9552C59.9263 56.5066 59.3029 57.2149 56.4214 55.9333C56.1181 55.7984 55.6968 55.8152 55.3429 55.8658C54.2139 56.0513 53.1018 56.4223 51.9728 56.4392C50.3888 56.4729 49.3609 55.2925 49.462 53.7074C49.5126 52.7799 49.6979 51.8693 49.8327 50.9587C49.917 50.3348 50.0181 49.6434 49.3609 49.3062C48.67 48.9521 48.0297 49.2556 47.541 49.7783C46.1593 51.2623 45.7717 53.1003 45.4852 54.9721C45.3841 55.6129 45.5021 56.5235 44.491 56.3717C43.4969 56.2368 43.8507 55.3768 43.9013 54.736C43.935 54.2807 43.9855 53.8086 44.0361 53.269C40.3626 55.7309 40.3458 55.8152 39.8908 55.7984C39.5538 55.7815 39.2505 55.5117 39.1831 55.1913C39.0651 54.6517 39.5032 54.4156 39.9413 54.0952ZM84.9497 51.5658C84.9666 50.0819 84.4947 49.2387 83.45 48.9689C82.4558 48.6991 81.2762 49.2725 80.7876 50.5203C80.4506 51.3635 80.2652 52.3752 80.3663 53.269C80.5517 54.8878 82.321 55.5117 83.6353 54.5168C84.5958 53.7748 84.9328 52.7462 84.9497 51.5658ZM72.5981 50.9925C74.4011 48.6654 75.3953 46.0348 75.6144 43.1344C75.6481 42.6285 75.7155 41.6673 75.2942 41.583C74.7887 41.4649 74.3337 42.2575 74.1147 42.7128C72.8677 45.3097 72.6824 48.1426 72.5981 50.9925ZM64.7794 50.9419C64.8468 50.9587 64.931 50.9587 64.9984 50.9756C66.6498 48.4799 67.8462 45.8156 67.8967 42.7465C67.8967 42.3755 67.863 41.701 67.5597 41.6167C67.1722 41.583 66.7846 42.0383 66.5655 42.3587C66.2454 42.814 66.0095 43.3536 65.8747 43.8763C65.5376 45.2928 65.2512 46.7262 65.0153 48.1595C64.8805 49.087 64.8636 50.0144 64.7794 50.9419ZM46.2267 48.1258C46.3278 48.1595 46.412 48.1932 46.5131 48.227C47.6758 46.6418 48.8048 45.0399 48.9902 42.9657C49.007 42.7128 49.0239 42.443 48.9396 42.2238C48.8385 41.9877 48.6363 41.6673 48.4341 41.6504C48.1814 41.6167 47.8443 41.7853 47.659 41.9877C47.4399 42.2238 47.2883 42.561 47.2209 42.8814C46.8839 44.6352 46.5637 46.3889 46.2267 48.1258ZM56.354 53.4713C57.4156 52.6282 58.4772 51.8187 58.7468 50.3854C58.8479 49.8121 58.7636 49.1376 58.1402 49.0026C57.7189 48.9183 57.0786 49.1376 56.7584 49.4411C55.8485 50.2842 55.6799 52.3078 56.354 53.4713Z" fill="#C6CDDF"/>
<path d="M89.416 56.3378C89.9279 56.3378 90.3428 55.9226 90.3428 55.4104C90.3428 54.8981 89.9279 54.4829 89.416 54.4829C88.9042 54.4829 88.4893 54.8981 88.4893 55.4104C88.4893 55.9226 88.9042 56.3378 89.416 56.3378Z" fill="#C6CDDF"/>
<path opacity="0.3" d="M96.7294 26.6914C95.9504 24.8799 94.1466 23.605 92.0564 23.605H36.9379C34.1139 23.605 31.8291 25.8898 31.8291 28.7138V28.9705H32.6616C33.5737 27.5785 35.1474 26.66 36.9379 26.66H96.1639C96.355 26.66 96.5436 26.6706 96.7294 26.6914Z" fill="#2A2E37"/>
<path d="M33.8966 97.952H30.6129C29.4072 97.952 28.458 96.9765 28.458 95.7956V92.5095C28.458 91.3029 29.4329 90.353 30.6129 90.353H33.8966C35.1024 90.353 36.0515 91.3286 36.0515 92.5095V95.7956C36.0772 96.9765 35.1024 97.952 33.8966 97.952Z" fill="#474E61"/>
<path d="M88.7962 93.6394H95.9279C96.4667 93.6394 96.9028 93.203 96.9028 92.6639V90.0966C96.9028 89.5575 96.4667 89.1211 95.9279 89.1211H88.7962C88.2574 89.1211 87.8213 89.5575 87.8213 90.0966C87.8213 90.2242 87.7179 90.3277 87.5903 90.3277H65.3998C64.938 90.3277 64.5532 90.7128 64.5532 91.1749V91.5599C64.5532 92.022 64.938 92.4071 65.3998 92.4071H87.5646C87.7064 92.4071 87.8213 92.5221 87.8213 92.6639C87.8213 93.203 88.2574 93.6394 88.7962 93.6394Z" fill="#393F4E"/>
<path opacity="0.2" d="M27.1048 11.6802C24.234 12.9378 22.2271 15.8048 22.2271 19.1383V111.122C22.2271 111.687 22.6892 112.149 23.2539 112.149H27.1048V11.6802Z" fill="#8E96AB"/>
<path d="M124.583 136.315C126.338 136.315 127.761 134.871 127.761 133.089C127.761 131.307 126.338 129.863 124.583 129.863C122.828 129.863 121.405 131.307 121.405 133.089C121.405 134.871 122.828 136.315 124.583 136.315Z" fill="#474E61"/>
<path d="M15.5973 129.863H11.043C9.94461 129.863 9.0542 130.753 9.0542 131.852C9.0542 132.95 9.94461 133.84 11.043 133.84H15.5973C16.6957 133.84 17.5861 132.95 17.5861 131.852C17.5861 130.753 16.6957 129.863 15.5973 129.863Z" fill="#474E61"/>
<path d="M23.1286 129.863H21.186C20.0877 129.863 19.1973 130.753 19.1973 131.852C19.1973 132.95 20.0877 133.84 21.186 133.84H23.1286C24.2269 133.84 25.1174 132.95 25.1174 131.852C25.1174 130.753 24.2269 129.863 23.1286 129.863Z" fill="#474E61"/>
<path d="M95.4896 133.844L100.044 133.844C101.142 133.844 102.033 132.954 102.033 131.855C102.033 130.757 101.142 129.867 100.044 129.867L95.4896 129.867C94.3912 129.867 93.5008 130.757 93.5008 131.855C93.5008 132.954 94.3912 133.844 95.4896 133.844Z" fill="#474E61"/>
<path d="M87.9354 133.844L89.8779 133.844C90.9763 133.844 91.8667 132.954 91.8667 131.855C91.8667 130.757 90.9763 129.867 89.8779 129.867L87.9354 129.867C86.837 129.867 85.9466 130.757 85.9466 131.855C85.9466 132.954 86.837 133.844 87.9354 133.844Z" fill="#474E61"/>
<path d="M81.7634 129.863H29.1519C28.0535 129.863 27.1631 130.753 27.1631 131.852C27.1631 132.95 28.0535 133.84 29.1519 133.84H81.7634C82.8617 133.84 83.7521 132.95 83.7521 131.852C83.7521 130.753 82.8617 129.863 81.7634 129.863Z" fill="#474E61"/>
<path d="M104.777 141H5.96403C4.78872 141 3.83105 140.028 3.83105 138.835V136.802V134.769C3.83105 133.575 4.78872 132.603 5.96403 132.603H104.821C105.996 132.603 106.954 133.575 106.954 134.769V138.835C106.91 140.028 105.953 141 104.777 141Z" fill="#5C6479"/>
<path d="M129.198 141H115.834C114.659 141 113.701 140.028 113.701 138.835V136.802V134.769C113.701 133.575 114.659 132.603 115.834 132.603H129.198C130.373 132.603 131.331 133.575 131.331 134.769V138.835C131.331 140.028 130.373 141 129.198 141Z" fill="#5C6479"/>
<path d="M106.91 136.801H3.83105" stroke="#8E96AB" stroke-width="2" stroke-miterlimit="10"/>
<path d="M131.331 136.801H113.745" stroke="#8E96AB" stroke-width="2" stroke-miterlimit="10"/>
<defs>
<filter id="filter0_d_121_6891" x="0.0449219" y="0" width="128.837" height="145.149" filterUnits="userSpaceOnUse" color-interpolation-filters="sRGB">
<feFlood flood-opacity="0" result="BackgroundImageFix"/>
<feColorMatrix in="SourceAlpha" type="matrix" values="0 0 0 0 0 0 0 0 0 0 0 0 0 0 0 0 0 0 127 0" result="hardAlpha"/>
<feOffset dy="11"/>
<feGaussianBlur stdDeviation="11"/>
<feColorMatrix type="matrix" values="0 0 0 0 0 0 0 0 0 0 0 0 0 0 0 0 0 0 0.27 0"/>
<feBlend mode="normal" in2="BackgroundImageFix" result="effect1_dropShadow_121_6891"/>
<feBlend mode="normal" in="SourceGraphic" in2="effect1_dropShadow_121_6891" result="shape"/>
</filter>
</defs>
</svg>
