<svg width="133" height="146" viewBox="0 0 133 146" fill="none" xmlns="http://www.w3.org/2000/svg">
<path d="M104.328 123.265H26.2894C26.0585 123.265 25.8789 123.085 25.8789 122.854V108.503C25.8789 106.68 27.3668 105.191 29.1883 105.191H101.43C103.251 105.191 104.739 106.68 104.739 108.503V122.854C104.765 123.085 104.559 123.265 104.328 123.265Z" fill="#474E61"/>
<path opacity="0.2" d="M104.327 115.743H26.3918C26.1613 115.743 25.9819 115.638 25.9819 115.504V107.146C25.9819 106.084 27.4679 105.217 29.2869 105.217H101.432C103.251 105.217 104.737 106.084 104.737 107.146V115.504C104.763 115.638 104.558 115.743 104.327 115.743Z" fill="#2A2E37"/>
<g filter="url(#filter0_d_121_6917)">
<path d="M106.689 112.149H23.9295C23.3651 112.149 22.9033 111.687 22.9033 111.122V19.1381C22.9033 14.6455 26.5462 11 31.0356 11H99.6084C104.098 11 107.741 14.6455 107.741 19.1381V111.122C107.741 111.687 107.279 112.149 106.689 112.149Z" fill="#5C6479"/>
</g>
<path opacity="0.5" d="M101.937 21.7015V75.0052C101.937 76.3805 100.883 77.4806 99.566 77.4806H30.7185C29.9807 77.4806 29.3484 77.1231 28.9005 76.6005C28.558 76.1879 28.3472 75.6103 28.3472 75.0327V21.7015C28.3472 20.3263 29.4011 19.2261 30.7185 19.2261H99.5923C100.198 19.2261 100.752 19.4461 101.173 19.8587C101.647 20.2988 101.937 20.9589 101.937 21.7015Z" fill="#474E61"/>
<path opacity="0.7" d="M101.937 21.6606V75.0033C101.937 76.3795 100.883 77.4805 99.5653 77.4805H30.7041C29.9662 77.4805 29.3337 77.1227 28.8857 76.5997L101.147 19.8164C101.647 20.2568 101.937 20.9174 101.937 21.6606Z" fill="#8E96AB"/>
<path d="M92.9872 23.605H37.9083C35.0864 23.605 32.8032 25.8898 32.8032 28.7138V68.0181C32.8032 70.842 35.0864 73.1269 37.9083 73.1269H92.9615C95.7834 73.1269 98.0666 70.842 98.0666 68.0181V28.6881C98.0666 25.8898 95.7834 23.605 92.9872 23.605Z" fill="#393F4E"/>
<path d="M52.1924 36.2085V43.0271" stroke="#C6CDDF" stroke-width="2.5" stroke-miterlimit="10" stroke-linecap="round" stroke-linejoin="round"/>
<path d="M77.354 36.2085V43.0271" stroke="#C6CDDF" stroke-width="2.5" stroke-miterlimit="10" stroke-linecap="round" stroke-linejoin="round"/>
<path d="M66.7338 39.6367V50.6455H62.9653" stroke="#C6CDDF" stroke-width="2.5" stroke-miterlimit="10" stroke-linecap="round" stroke-linejoin="round"/>
<path d="M73.7382 57.1973C73.7382 59.4066 71.9491 61.2351 69.7033 61.2351H59.7683C57.5605 61.2351 55.7334 59.4447 55.7334 57.1973" stroke="#C6CDDF" stroke-width="2.5" stroke-miterlimit="10" stroke-linecap="round" stroke-linejoin="round"/>
<path opacity="0.3" d="M97.7294 26.6914C96.9504 24.8799 95.1466 23.605 93.0564 23.605H37.9379C35.1139 23.605 32.8291 25.8898 32.8291 28.7138V28.9705H33.6616C34.5737 27.5785 36.1474 26.66 37.9379 26.66H97.1639C97.355 26.66 97.5436 26.6706 97.7294 26.6914Z" fill="#2A2E37"/>
<path d="M34.755 97.952H31.4713C30.2656 97.952 29.3164 96.9765 29.3164 95.7956V92.5095C29.3164 91.3029 30.2913 90.353 31.4713 90.353H34.755C35.9608 90.353 36.9099 91.3286 36.9099 92.5095V95.7956C36.9356 96.9765 35.9608 97.952 34.755 97.952Z" fill="#474E61"/>
<path d="M89.6546 93.6394H96.7863C97.3251 93.6394 97.7612 93.203 97.7612 92.6639V90.0966C97.7612 89.5575 97.3251 89.1211 96.7863 89.1211H89.6546C89.1158 89.1211 88.6797 89.5575 88.6797 90.0966C88.6797 90.2242 88.5763 90.3277 88.4487 90.3277H66.2582C65.7964 90.3277 65.4116 90.7128 65.4116 91.1749V91.5599C65.4116 92.022 65.7964 92.4071 66.2582 92.4071H88.423C88.5648 92.4071 88.6797 92.5221 88.6797 92.6639C88.6797 93.203 89.1158 93.6394 89.6546 93.6394Z" fill="#393F4E"/>
<path opacity="0.2" d="M28.1048 11.6802C25.234 12.9378 23.2271 15.8048 23.2271 19.1383V111.122C23.2271 111.687 23.6892 112.149 24.2539 112.149H28.1048V11.6802Z" fill="#8E96AB"/>
<path d="M125.441 136.315C127.196 136.315 128.619 134.871 128.619 133.089C128.619 131.307 127.196 129.863 125.441 129.863C123.686 129.863 122.264 131.307 122.264 133.089C122.264 134.871 123.686 136.315 125.441 136.315Z" fill="#474E61"/>
<path d="M16.4557 129.863H11.9014C10.803 129.863 9.9126 130.753 9.9126 131.852C9.9126 132.95 10.803 133.84 11.9014 133.84H16.4557C17.5541 133.84 18.4445 132.95 18.4445 131.852C18.4445 130.753 17.5541 129.863 16.4557 129.863Z" fill="#474E61"/>
<path d="M23.987 129.863H22.0444C20.9461 129.863 20.0557 130.753 20.0557 131.852C20.0557 132.95 20.9461 133.84 22.0444 133.84H23.987C25.0853 133.84 25.9758 132.95 25.9758 131.852C25.9758 130.753 25.0853 129.863 23.987 129.863Z" fill="#474E61"/>
<path d="M96.348 133.844L100.902 133.844C102.001 133.844 102.891 132.954 102.891 131.855C102.891 130.757 102.001 129.867 100.902 129.867L96.348 129.867C95.2496 129.867 94.3592 130.757 94.3592 131.855C94.3592 132.954 95.2496 133.844 96.348 133.844Z" fill="#474E61"/>
<path d="M88.7938 133.844L90.7363 133.844C91.8347 133.844 92.7251 132.954 92.7251 131.855C92.7251 130.757 91.8347 129.867 90.7363 129.867L88.7938 129.867C87.6954 129.867 86.805 130.757 86.805 131.855C86.805 132.954 87.6954 133.844 88.7938 133.844Z" fill="#474E61"/>
<path d="M82.6218 129.863H30.0103C28.9119 129.863 28.0215 130.753 28.0215 131.852C28.0215 132.95 28.9119 133.84 30.0103 133.84H82.6218C83.7201 133.84 84.6105 132.95 84.6105 131.852C84.6105 130.753 83.7201 129.863 82.6218 129.863Z" fill="#474E61"/>
<path d="M105.636 141H6.82243C5.64711 141 4.68945 140.028 4.68945 138.835V136.802V134.769C4.68945 133.575 5.64711 132.603 6.82243 132.603H105.679C106.854 132.603 107.812 133.575 107.812 134.769V138.835C107.769 140.028 106.811 141 105.636 141Z" fill="#5C6479"/>
<path d="M130.056 141H116.693C115.517 141 114.56 140.028 114.56 138.835V136.802V134.769C114.56 133.575 115.517 132.603 116.693 132.603H130.056C131.232 132.603 132.189 133.575 132.189 134.769V138.835C132.189 140.028 131.232 141 130.056 141Z" fill="#5C6479"/>
<path d="M107.769 136.801H4.68945" stroke="#8E96AB" stroke-width="2" stroke-miterlimit="10"/>
<path d="M132.189 136.801H114.603" stroke="#8E96AB" stroke-width="2" stroke-miterlimit="10"/>
<defs>
<filter id="filter0_d_121_6917" x="0.90332" y="0" width="128.837" height="145.149" filterUnits="userSpaceOnUse" color-interpolation-filters="sRGB">
<feFlood flood-opacity="0" result="BackgroundImageFix"/>
<feColorMatrix in="SourceAlpha" type="matrix" values="0 0 0 0 0 0 0 0 0 0 0 0 0 0 0 0 0 0 127 0" result="hardAlpha"/>
<feOffset dy="11"/>
<feGaussianBlur stdDeviation="11"/>
<feColorMatrix type="matrix" values="0 0 0 0 0 0 0 0 0 0 0 0 0 0 0 0 0 0 0.27 0"/>
<feBlend mode="normal" in2="BackgroundImageFix" result="effect1_dropShadow_121_6917"/>
<feBlend mode="normal" in="SourceGraphic" in2="effect1_dropShadow_121_6917" result="shape"/>
</filter>
</defs>
</svg>
