<svg width="133" height="146" viewBox="0 0 133 146" fill="none" xmlns="http://www.w3.org/2000/svg">
<path d="M104.188 123.265H26.1492C25.9183 123.265 25.7388 123.085 25.7388 122.854V108.503C25.7388 106.68 27.2267 105.191 29.0481 105.191H101.289C103.111 105.191 104.599 106.68 104.599 108.503V122.854C104.624 123.085 104.419 123.265 104.188 123.265Z" fill="#474E61"/>
<path opacity="0.2" d="M104.187 115.743H26.2517C26.0211 115.743 25.8418 115.638 25.8418 115.504V107.146C25.8418 106.084 27.3277 105.217 29.1467 105.217H101.292C103.111 105.217 104.597 106.084 104.597 107.146V115.504C104.623 115.638 104.418 115.743 104.187 115.743Z" fill="#2A2E37"/>
<g filter="url(#filter0_d_121_6861)">
<path d="M106.549 112.149H23.7893C23.225 112.149 22.7632 111.687 22.7632 111.122V19.1381C22.7632 14.6455 26.406 11 30.8955 11H99.4682C103.958 11 107.6 14.6455 107.6 19.1381V111.122C107.6 111.687 107.139 112.149 106.549 112.149Z" fill="#5C6479"/>
</g>
<path opacity="0.5" d="M101.797 21.7015V75.0052C101.797 76.3805 100.743 77.4806 99.4258 77.4806H30.5784C29.8406 77.4806 29.2083 77.1231 28.7603 76.6005C28.4178 76.1879 28.207 75.6103 28.207 75.0327V21.7015C28.207 20.3263 29.261 19.2261 30.5784 19.2261H99.4522C100.058 19.2261 100.611 19.4461 101.033 19.8587C101.507 20.2988 101.797 20.9589 101.797 21.7015Z" fill="#474E61"/>
<path opacity="0.7" d="M101.797 21.6606V75.0033C101.797 76.3795 100.743 77.4805 99.4252 77.4805H30.564C29.8261 77.4805 29.1936 77.1227 28.7456 76.5997L101.006 19.8164C101.507 20.2568 101.797 20.9174 101.797 21.6606Z" fill="#8E96AB"/>
<path d="M92.5423 23.605H37.4635C34.6416 23.605 32.3584 25.8898 32.3584 28.7138V68.0181C32.3584 70.842 34.6416 73.1269 37.4635 73.1269H92.5167C95.3386 73.1269 97.6218 70.842 97.6218 68.0181V28.6881C97.6218 25.8898 95.3386 23.605 92.5423 23.605Z" fill="#393F4E"/>
<path d="M79.3198 37.0576L73.7798 42.6016" stroke="#C6CDDF" stroke-width="2.5" stroke-miterlimit="10" stroke-linecap="round" stroke-linejoin="round"/>
<path d="M73.7798 37.0576L79.3198 42.6016" stroke="#C6CDDF" stroke-width="2.5" stroke-miterlimit="10" stroke-linecap="round" stroke-linejoin="round"/>
<path d="M57.6193 37.0576L52.0522 42.6016" stroke="#C6CDDF" stroke-width="2.5" stroke-miterlimit="10" stroke-linecap="round" stroke-linejoin="round"/>
<path d="M52.0522 37.0576L57.6193 42.6016" stroke="#C6CDDF" stroke-width="2.5" stroke-miterlimit="10" stroke-linecap="round" stroke-linejoin="round"/>
<path d="M61.6465 48.9028L63.6733 50.9582H67.6999L69.6187 48.9028" stroke="#C6CDDF" stroke-width="2.5" stroke-miterlimit="10" stroke-linecap="round" stroke-linejoin="round"/>
<path d="M57.7812 58.3408H72.1041L75.9686 61.4238" stroke="#C6CDDF" stroke-width="2.5" stroke-miterlimit="10" stroke-linecap="round" stroke-linejoin="round"/>
<path opacity="0.3" d="M97.7294 26.6914C96.9504 24.8799 95.1466 23.605 93.0564 23.605H37.9379C35.1139 23.605 32.8291 25.8898 32.8291 28.7138V28.9705H33.6616C34.5737 27.5785 36.1474 26.66 37.9379 26.66H97.1639C97.355 26.66 97.5436 26.6706 97.7294 26.6914Z" fill="#2A2E37"/>
<path d="M34.6149 97.952H31.3312C30.1255 97.952 29.1763 96.9765 29.1763 95.7956V92.5095C29.1763 91.3029 30.1511 90.353 31.3312 90.353H34.6149C35.8206 90.353 36.7698 91.3286 36.7698 92.5095V95.7956C36.7955 96.9765 35.8206 97.952 34.6149 97.952Z" fill="#474E61"/>
<path d="M89.5144 93.6394H96.6462C97.1849 93.6394 97.621 93.203 97.621 92.6639V90.0966C97.621 89.5575 97.1849 89.1211 96.6462 89.1211H89.5144C88.9757 89.1211 88.5396 89.5575 88.5396 90.0966C88.5396 90.2242 88.4361 90.3277 88.3085 90.3277H66.1181C65.6563 90.3277 65.2715 90.7128 65.2715 91.1749V91.5599C65.2715 92.022 65.6563 92.4071 66.1181 92.4071H88.2828C88.4246 92.4071 88.5396 92.5221 88.5396 92.6639C88.5396 93.203 88.9757 93.6394 89.5144 93.6394Z" fill="#393F4E"/>
<path opacity="0.2" d="M28.1053 11.6802C25.2345 12.9378 23.2275 15.8048 23.2275 19.1383V111.122C23.2275 111.687 23.6896 112.149 24.2544 112.149H28.1053V11.6802Z" fill="#8E96AB"/>
<path d="M125.301 136.315C127.056 136.315 128.479 134.871 128.479 133.089C128.479 131.307 127.056 129.863 125.301 129.863C123.546 129.863 122.124 131.307 122.124 133.089C122.124 134.871 123.546 136.315 125.301 136.315Z" fill="#474E61"/>
<path d="M16.3156 129.863H11.7612C10.6629 129.863 9.77246 130.753 9.77246 131.852C9.77246 132.95 10.6629 133.84 11.7612 133.84H16.3156C17.4139 133.84 18.3043 132.95 18.3043 131.852C18.3043 130.753 17.4139 129.863 16.3156 129.863Z" fill="#474E61"/>
<path d="M23.8468 129.863H21.9043C20.8059 129.863 19.9155 130.753 19.9155 131.852C19.9155 132.95 20.8059 133.84 21.9043 133.84H23.8468C24.9452 133.84 25.8356 132.95 25.8356 131.852C25.8356 130.753 24.9452 129.863 23.8468 129.863Z" fill="#474E61"/>
<path d="M96.2079 133.844L100.762 133.844C101.861 133.844 102.751 132.954 102.751 131.855C102.751 130.757 101.861 129.867 100.762 129.867L96.2079 129.867C95.1095 129.867 94.2191 130.757 94.2191 131.855C94.2191 132.954 95.1095 133.844 96.2079 133.844Z" fill="#474E61"/>
<path d="M88.6537 133.844L90.5962 133.844C91.6946 133.844 92.585 132.954 92.585 131.855C92.585 130.757 91.6946 129.867 90.5962 129.867L88.6537 129.867C87.5553 129.867 86.6649 130.757 86.6649 131.855C86.6649 132.954 87.5553 133.844 88.6537 133.844Z" fill="#474E61"/>
<path d="M82.4816 129.863H29.8701C28.7718 129.863 27.8813 130.753 27.8813 131.852C27.8813 132.95 28.7718 133.84 29.8701 133.84H82.4816C83.58 133.84 84.4704 132.95 84.4704 131.852C84.4704 130.753 83.58 129.863 82.4816 129.863Z" fill="#474E61"/>
<path d="M105.495 141H6.68229C5.50698 141 4.54932 140.028 4.54932 138.835V136.802V134.769C4.54932 133.575 5.50698 132.603 6.68229 132.603H105.539C106.714 132.603 107.672 133.575 107.672 134.769V138.835C107.628 140.028 106.671 141 105.495 141Z" fill="#5C6479"/>
<path d="M129.916 141H116.552C115.377 141 114.419 140.028 114.419 138.835V136.802V134.769C114.419 133.575 115.377 132.603 116.552 132.603H129.916C131.091 132.603 132.049 133.575 132.049 134.769V138.835C132.049 140.028 131.091 141 129.916 141Z" fill="#5C6479"/>
<path d="M107.628 136.801H4.54932" stroke="#8E96AB" stroke-width="2" stroke-miterlimit="10"/>
<path d="M132.049 136.801H114.463" stroke="#8E96AB" stroke-width="2" stroke-miterlimit="10"/>
<defs>
<filter id="filter0_d_121_6861" x="0.763184" y="0" width="128.837" height="145.149" filterUnits="userSpaceOnUse" color-interpolation-filters="sRGB">
<feFlood flood-opacity="0" result="BackgroundImageFix"/>
<feColorMatrix in="SourceAlpha" type="matrix" values="0 0 0 0 0 0 0 0 0 0 0 0 0 0 0 0 0 0 127 0" result="hardAlpha"/>
<feOffset dy="11"/>
<feGaussianBlur stdDeviation="11"/>
<feColorMatrix type="matrix" values="0 0 0 0 0 0 0 0 0 0 0 0 0 0 0 0 0 0 0.27 0"/>
<feBlend mode="normal" in2="BackgroundImageFix" result="effect1_dropShadow_121_6861"/>
<feBlend mode="normal" in="SourceGraphic" in2="effect1_dropShadow_121_6861" result="shape"/>
</filter>
</defs>
</svg>
