<svg width="139" height="151" viewBox="0 0 139 151" fill="none" xmlns="http://www.w3.org/2000/svg">
<path d="M62.7319 125.302C97.2249 125.302 125.187 97.32 125.187 62.8022C125.187 28.2845 97.2249 0.302246 62.7319 0.302246C28.2389 0.302246 0.276855 28.2845 0.276855 62.8022C0.276855 97.32 28.2389 125.302 62.7319 125.302Z" fill="#2A2E37"/>
<path d="M83.5236 62.0929C83.5236 67.7676 81.2397 72.8905 77.6956 76.6736C77.4593 77.0677 77.0655 77.3042 76.6717 77.5406C72.8913 81.0873 67.772 83.2153 62.259 83.2153C57.8485 83.2153 53.6744 81.7966 50.209 79.4322C49.1852 78.8016 48.3188 77.9347 47.4525 77.1465C43.5146 73.3634 41.1519 68.004 41.1519 62.0141C41.1519 50.3496 50.6816 40.813 62.3377 40.813C74.0727 40.8918 83.5236 50.4284 83.5236 62.0929Z" fill="white"/>
<path d="M83.5238 62.093C83.5238 68.3194 80.846 73.7576 76.6718 77.6983C72.8915 81.245 67.7722 83.373 62.2591 83.373C57.8487 83.373 53.6745 81.9543 50.2092 79.5899C44.6174 75.8068 41.0732 69.4228 41.0732 62.1718C41.0732 50.5073 50.603 40.9707 62.2591 40.9707C73.9153 40.9707 83.5238 50.4285 83.5238 62.093Z" fill="#5C6479" stroke="#5C6479" stroke-width="2" stroke-miterlimit="10"/>
<path d="M77.6962 76.6738C77.4599 77.0678 77.0661 77.3043 76.6723 77.5407C72.8919 81.0874 67.7727 83.2154 62.2596 83.2154C57.8492 83.2154 53.675 81.7967 50.2097 79.4323C49.1858 78.8018 48.3195 77.9348 47.4531 77.1467C47.9257 76.5161 48.7133 76.1221 50.3672 75.4916L50.9972 75.2551C52.2574 74.7822 54.0688 74.1517 56.3528 73.1271C56.7466 72.9695 56.9828 72.733 57.2191 72.4966C57.3766 72.339 57.4554 72.2602 57.4554 72.0237C57.6129 71.7873 57.6917 71.3932 57.6917 71.1567V66.8219C57.5341 66.6643 57.5341 66.6643 57.4554 66.5855C57.0616 66.1126 56.8253 65.4821 56.8253 64.6939L56.589 64.5363C55.4864 64.7728 55.5652 63.6694 55.3289 61.3837C55.1714 60.5168 55.3289 60.2803 55.8015 60.1227L56.1953 59.6498C55.4077 57.8371 55.0926 56.2608 55.0926 54.9209C55.0926 52.7929 55.959 51.3743 57.2191 50.7438C56.4315 49.2463 56.4315 48.6946 56.4315 48.6946C56.4315 48.6946 60.842 49.4827 62.4171 49.1675C64.3073 48.7734 67.3789 49.3251 68.4815 51.8472C70.3717 52.6353 71.0018 53.7387 71.238 54.9998C71.4743 57.0489 70.3717 59.1769 70.1354 60.0439V60.2015C70.3717 60.3591 70.5292 60.5956 70.3717 61.4625C70.1354 63.5905 70.1354 64.8516 69.1116 64.6151L68.0877 66.4279C68.0877 66.6643 68.0877 66.6643 67.9302 66.8219C67.9302 67.216 67.9302 67.8465 67.9302 71.2356C67.9302 71.6296 68.0877 72.1025 68.324 72.339C68.4815 72.4966 68.4815 72.5754 68.5603 72.5754C68.7965 72.8119 69.0328 73.0483 69.3478 73.0483C71.8681 74.0729 73.6795 74.861 75.0184 75.3339C76.3573 75.8856 77.2236 76.2797 77.6962 76.6738Z" fill="#C6CDDF"/>
<path d="M77.9312 76.6738C77.6931 77.0678 77.2962 77.3043 76.8994 77.5407C73.0896 81.0874 67.9306 83.2154 62.3747 83.2154C57.93 83.2154 53.7234 81.7967 50.2311 79.4323C49.1993 78.8018 48.3262 77.9348 47.4531 77.1466C47.9293 76.5161 48.723 76.1221 50.3898 75.4915L51.0248 75.2551C52.2947 74.7822 54.1202 74.1517 56.4219 73.1271C56.8188 72.9695 57.0569 72.733 57.295 72.4966C58.5649 74.3093 60.6285 75.4127 63.0096 75.4127C65.3114 75.4127 67.375 74.3093 68.6449 72.6542C68.883 72.8907 69.1211 73.1271 69.4386 73.1271C71.9784 74.1517 73.804 74.9398 75.1532 75.4127C76.5819 75.8856 77.455 76.2797 77.9312 76.6738Z" fill="#474E61"/>
<path d="M70.6169 59.8862C70.781 59.4133 70.4528 58.6252 70.2066 58.2311C70.2066 58.0735 70.0425 58.0735 70.0425 57.9947C69.1398 56.1819 67.1703 55.5514 65.2829 55.4726C60.3592 55.2362 60.031 56.1031 58.5539 54.8421C59.0463 55.4726 59.0463 56.6548 58.3077 57.9158C57.8153 58.7828 56.8306 59.3345 55.9279 59.571C53.7123 54.7633 54.8611 51.6895 56.9947 50.6649C56.1741 49.1674 56.1741 48.6157 56.1741 48.6157C56.1741 48.6157 60.7695 49.4039 62.4108 49.0886C64.3802 48.6945 67.5806 49.2462 68.7295 51.7683C70.699 52.5565 71.3555 53.6599 71.6016 54.9209C72.094 56.8913 70.8631 59.0193 70.6169 59.8862Z" fill="#474E61"/>
<path d="M57.8491 71.0777V66.7429C57.6915 66.5853 57.6916 66.5853 57.6128 66.5065V66.27C57.8491 66.6641 58.0853 67.0582 58.4791 67.2946L61.8657 69.7379C62.6533 70.3684 63.7559 70.3684 64.5435 69.7379L67.6938 66.9794C67.8513 66.8217 67.9301 66.8217 68.0876 66.7429C68.0876 67.137 68.0876 67.7675 68.0876 71.1565C68.0876 71.393 68.0876 71.5506 68.2451 71.787H57.8491C57.6915 71.4718 57.8491 71.3142 57.8491 71.0777Z" fill="url(#paint0_linear_111_379)"/>
<g opacity="0.6">
<mask id="mask0_111_379" style="mask-type:alpha" maskUnits="userSpaceOnUse" x="0" y="0" width="126" height="126">
<path d="M62.7319 125.302C97.2249 125.302 125.187 97.32 125.187 62.8022C125.187 28.2845 97.2249 0.302246 62.7319 0.302246C28.2389 0.302246 0.276855 28.2845 0.276855 62.8022C0.276855 97.32 28.2389 125.302 62.7319 125.302Z" fill="#2A2E37"/>
</mask>
<g mask="url(#mask0_111_379)">
<path d="M37.3713 30.0941C37.3713 34.823 35.4023 39.0002 32.1733 41.9951C31.3069 42.7833 30.3618 43.4926 29.2592 44.1231C26.8965 45.5418 24.0612 46.3299 21.0684 46.3299C18.0756 46.3299 15.2403 45.5418 12.8776 44.1231C12.4838 43.8867 12.1687 43.729 11.7749 43.4138C7.60077 40.4976 4.84424 35.6111 4.84424 30.0941C4.84424 21.1092 12.1687 13.8583 21.0684 13.8583C30.1255 13.7795 37.3713 21.1092 37.3713 30.0941Z" fill="#5C6479"/>
<path d="M17.8397 33.7196C18.076 33.9561 18.2335 34.1925 18.5485 34.429C18.7848 34.6654 18.9423 34.7442 19.1786 34.9019C19.2574 34.9807 19.4936 35.1383 19.5724 35.2171C19.5724 35.2171 19.6512 35.2171 19.6512 35.2959L19.7299 35.3748V36.7934C19.7299 36.7934 19.7299 36.7934 19.6512 36.7146C19.5724 36.6358 19.3361 36.4782 19.2574 36.3993C19.0211 36.3205 18.8636 36.0841 18.6273 36.0053C18.5485 36.0053 18.5485 35.9265 18.391 35.9265C17.6822 35.5324 17.1309 35.1383 17.1309 34.5866C17.2097 34.429 17.4459 34.1137 17.8397 33.7196ZM31.7011 41.4435C31.0711 40.1036 30.2835 38.9214 28.8658 38.2121C28.157 37.8968 27.3694 37.5816 26.5819 37.5816C26.3456 37.5816 26.1093 37.5816 25.873 37.5816C25.7943 37.5816 25.6368 37.5816 25.558 37.5816C24.4554 37.5027 24.3766 37.2663 24.3766 37.2663V34.9807C25.0855 34.3502 25.7943 33.6408 26.3456 33.0103C26.8181 32.301 27.2119 31.5128 27.4482 30.4882C28.3145 30.2518 28.9446 29.4637 28.8658 28.5179C28.8658 28.1238 28.5508 27.7297 28.5508 27.3357C28.5508 27.0992 28.5508 26.9416 28.5508 26.7051C28.5508 26.6263 28.5508 26.3899 28.5508 26.3111C28.5508 26.2323 28.5508 25.9958 28.5508 25.917C28.472 25.2077 28.2358 24.4983 27.842 23.7102C26.6606 21.5034 24.4554 20.0847 21.8564 20.0847C21.3838 20.0847 20.8325 20.1635 20.36 20.3212C19.4936 20.5576 18.5485 20.9517 17.8397 21.5034C17.761 21.5822 17.5247 21.7398 17.4459 21.8975L17.3672 21.9763C16.5796 22.7644 15.8708 23.7102 15.5557 24.8136C15.1619 25.917 15.1619 27.0204 15.2407 28.1238C15.2407 28.1238 15.2407 28.1238 15.2407 28.2026V28.2814C15.2407 28.5179 15.3195 28.5179 15.2407 28.5967C15.2407 28.6755 15.1619 28.6755 15.1619 28.8331C14.9257 29.1484 14.8469 29.5425 15.0832 30.173C15.477 31.1976 16.107 31.04 16.8159 31.5917C16.8159 31.5917 16.7371 31.5917 16.7371 31.6705L16.0283 31.8281C12.7992 32.8527 11.6966 35.5324 13.1142 37.2663C13.5868 37.8968 14.3744 38.3697 15.6345 38.685C15.3195 38.685 15.0044 38.9214 14.8469 39.079C13.4293 40.1824 12.5629 41.9164 12.3267 43.4927C12.3267 43.5715 12.3267 43.7291 12.3267 43.8079C12.7204 44.0444 13.0355 44.2808 13.4293 44.5173L29.1021 44.1232C30.126 43.4927 30.5197 43.0198 31.4648 42.2316C31.3073 41.6799 31.8586 41.5223 31.7011 41.4435Z" fill="#C6CDDF"/>
<path d="M32.1732 41.995C31.3069 42.7832 30.3618 43.4925 29.2592 44.123C26.8964 45.5417 24.0611 46.3298 21.0683 46.3298C18.0755 46.3298 15.2403 45.5417 12.8775 44.123C12.4837 43.8866 12.1687 43.7289 11.7749 43.4137C11.7749 43.3349 11.7749 43.1772 11.7749 43.0984C12.0112 41.5221 12.8775 39.7882 14.2952 38.6848C14.5314 38.4484 14.7677 38.3695 15.0827 38.2907C13.9014 38.0543 13.1138 37.5814 12.5625 36.8721H16.3429C17.4455 38.3695 19.1782 39.2365 21.1471 39.2365C22.8798 39.2365 24.3762 38.5272 25.4788 37.4238C25.5575 37.4238 25.7151 37.4238 25.7938 37.4238C26.0301 37.4238 26.1876 37.4238 26.5026 37.4238C27.2902 37.4238 28.0778 37.6602 28.7866 38.0543C30.2043 38.7636 31.1494 39.9458 31.8582 41.3645C32.0945 41.6009 32.0945 41.8374 32.1732 41.995Z" fill="#474E61"/>
<path d="M28.6299 26.3109C27.4485 26.705 26.0308 26.9415 24.7707 26.7838C22.6443 26.5474 20.6753 25.7592 19.1001 24.4194C18.6276 25.9169 17.2887 27.0203 15.7923 27.7296C15.556 27.8084 15.3985 27.9661 15.1622 27.9661C15.1622 27.9661 15.1622 27.9661 15.1622 27.8872C15.0835 26.7838 15.0835 25.6804 15.4773 24.577C15.7923 23.4736 16.5011 22.6067 17.2887 21.7397L17.3675 21.6609C17.4462 21.5821 17.6825 21.4244 17.7613 21.2668C18.4701 20.6363 19.3364 20.2422 20.2815 20.0846C20.7541 20.0058 21.3054 19.8481 21.7779 19.8481C24.3769 19.8481 26.6609 21.2668 27.7635 23.4736C28.1573 24.2618 28.3936 25.0499 28.4723 25.6804C28.6299 25.9957 28.6299 26.1533 28.6299 26.3109Z" fill="#474E61"/>
<path d="M20.5961 41.128C19.966 41.8373 19.021 41.8373 18.0759 41.8373C18.9422 40.9704 18.4696 38.0542 15.2406 38.3695C10.8301 37.5813 11.2239 32.9313 15.6344 31.5914L16.3432 31.355L16.4219 31.4338C16.737 32.3008 17.2095 33.1677 17.6821 33.7194C15.8706 35.2169 18.3909 35.611 19.5723 36.7932C20.6749 37.4237 21.62 39.867 20.5961 41.128Z" fill="#AAB2C5"/>
<path d="M120.697 33.4043C120.697 38.212 118.728 42.5468 115.736 45.7782C115.499 46.0935 115.184 46.3299 114.869 46.5663C111.64 49.5613 107.387 51.374 102.662 51.374C98.8814 51.374 95.3373 50.1918 92.502 48.1426C91.6356 47.5909 90.9268 46.8816 90.1392 46.1723C86.8314 42.9409 84.7837 38.4484 84.7837 33.4043C84.7837 23.5525 92.817 15.4346 102.662 15.4346C112.664 15.4346 120.697 23.5525 120.697 33.4043Z" fill="#D6DCE8"/>
<path d="M120.697 33.4043C120.697 38.6849 118.413 43.2562 114.869 46.6452C111.64 49.6402 107.387 51.4529 102.662 51.4529C98.8814 51.4529 95.3373 50.2707 92.502 48.2215C87.7765 44.9901 84.7837 39.6307 84.7837 33.4832C84.7837 23.6313 92.817 15.5134 102.662 15.5134C112.506 15.5922 120.697 23.5525 120.697 33.4043Z" fill="#5C6479"/>
<path d="M115.736 45.7781C115.499 46.0934 115.184 46.3298 114.869 46.5663C111.64 49.5612 107.387 51.374 102.662 51.374C98.8813 51.374 95.3372 50.1917 92.5019 48.1426C91.6356 47.5909 90.9267 46.8815 90.1392 46.1722C90.5329 45.6205 91.2418 45.3052 92.5807 44.7535L93.132 44.5171C94.2346 44.123 95.731 43.5713 97.6212 42.7044C97.9362 42.6255 98.1725 42.3891 98.4087 42.1527C98.4875 42.0738 98.645 41.9162 98.645 41.7586C98.7238 41.5221 98.8813 41.2069 98.8813 40.9704V37.345C98.8025 37.2662 98.8025 37.2662 98.645 37.1085C98.33 36.7145 98.0937 36.1627 98.0937 35.5322L97.8574 35.4534C96.9123 35.6899 96.9911 34.6653 96.7548 32.7737C96.6761 31.9856 96.7548 31.8279 97.1486 31.6703L97.4637 31.2762C96.8336 29.7788 96.5186 28.3601 96.5186 27.3355C96.5186 25.5228 97.3061 24.3406 98.33 23.7889C97.6999 22.5278 97.6999 22.0549 97.6999 22.0549C97.6999 22.0549 101.48 22.6854 102.74 22.449C104.316 22.1337 106.915 22.5278 107.86 24.7346C109.435 25.3651 109.986 26.3109 110.222 27.4143C110.459 29.1482 109.435 30.961 109.277 31.6703V31.8279C109.514 31.9068 109.592 32.1432 109.514 32.9313C109.277 34.7441 109.277 35.8475 108.411 35.611L107.545 37.1085C107.545 37.345 107.545 37.345 107.466 37.4238C107.466 37.739 107.466 38.2907 107.466 41.2069C107.466 41.5221 107.545 41.995 107.781 42.1527C107.86 42.2315 107.86 42.3891 108.017 42.3891C108.253 42.6255 108.411 42.7832 108.647 42.7832C110.774 43.6501 112.27 44.2807 113.452 44.7535C114.554 45.1476 115.342 45.4629 115.736 45.7781Z" fill="#C6CDDF"/>
<path d="M115.736 45.7783C115.499 46.0936 115.184 46.33 114.869 46.5665C111.64 49.5614 107.387 51.3741 102.662 51.3741C98.8813 51.3741 95.3372 50.1919 92.5019 48.1427C91.6356 47.591 90.9267 46.8817 90.1392 46.1724C90.5329 45.6207 91.2418 45.3054 92.5807 44.7537L93.132 44.5173C94.2346 44.1232 95.731 43.5715 97.6212 42.7045C97.9362 42.6257 98.1725 42.3893 98.4087 42.1528C99.5114 43.6503 101.165 44.5961 103.213 44.5961C105.182 44.5961 106.836 43.6503 107.938 42.2316C108.175 42.4681 108.332 42.6257 108.569 42.6257C110.695 43.4927 112.191 44.1232 113.373 44.5961C114.554 45.1478 115.342 45.463 115.736 45.7783Z" fill="#474E61"/>
<path d="M109.375 31.5915C109.455 31.1974 109.295 30.4881 109.056 30.1728C109.056 30.094 108.976 30.094 108.976 29.9364C108.177 28.4389 106.581 27.8872 105.064 27.8084C101.072 27.572 100.753 28.3601 99.5553 27.2567C99.9545 27.8084 99.9545 28.7542 99.3158 29.8576C98.9166 30.6457 98.1183 31.0398 97.32 31.2762C95.4838 27.1779 96.4418 24.6558 98.1981 23.7889C97.5595 22.5278 97.5595 22.0549 97.5595 22.0549C97.5595 22.0549 101.391 22.6854 102.669 22.449C104.266 22.1337 106.9 22.5278 107.858 24.7346C109.455 25.3651 110.014 26.3109 110.253 27.4143C110.572 28.9906 109.614 30.8034 109.375 31.5915Z" fill="#474E61"/>
<path d="M51.7846 102.84C51.7846 107.332 49.9732 111.352 47.2167 114.347C46.9804 114.662 46.7441 114.82 46.4291 115.056C43.4363 117.894 39.4196 119.549 35.0092 119.549C31.5438 119.549 28.236 118.445 25.4795 116.554C24.6919 116.081 23.9831 115.371 23.2743 114.741C20.2027 111.746 18.3125 107.569 18.3125 102.84C18.3125 93.6186 25.7945 86.1312 35.0092 86.1312C44.3026 86.0524 51.7846 93.6186 51.7846 102.84Z" fill="#D6DCE8"/>
<path d="M51.7843 102.84C51.7843 107.726 49.6578 112.061 46.35 115.135C43.3572 117.972 39.3405 119.627 34.9301 119.627C31.4647 119.627 28.1569 118.524 25.4004 116.632C20.9899 113.637 18.2334 108.593 18.2334 102.919C18.2334 93.6973 25.7154 86.21 34.9301 86.21C44.2235 86.21 51.7843 93.6185 51.7843 102.84Z" fill="#5C6479"/>
<path d="M47.2163 114.347C46.9801 114.662 46.7438 114.82 46.4288 115.056C43.436 117.893 39.4193 119.549 35.0089 119.549C31.5435 119.549 28.2357 118.445 25.4791 116.554C24.6916 116.081 23.9827 115.371 23.2739 114.741C23.6677 114.268 24.2978 113.953 25.5579 113.401L26.0305 113.165C27.0543 112.771 28.3932 112.298 30.2046 111.431C30.5197 111.352 30.6772 111.115 30.9134 110.958C30.9922 110.879 31.1497 110.721 31.1497 110.564C31.2285 110.327 31.386 110.091 31.386 109.854V106.465C31.3072 106.387 31.3072 106.387 31.1497 106.229C30.8347 105.835 30.6772 105.362 30.6772 104.731L30.4409 104.653C29.5746 104.889 29.6533 103.943 29.417 102.131C29.3383 101.421 29.417 101.264 29.8108 101.106L30.1259 100.712C29.4958 99.2932 29.2595 98.0322 29.2595 97.0076C29.2595 95.2737 29.9684 94.1703 30.9922 93.6974C30.3621 92.5152 30.3621 92.1211 30.3621 92.1211C30.3621 92.1211 33.8275 92.7516 35.0876 92.5152C36.584 92.1999 38.9468 92.594 39.8919 94.6432C41.3883 95.2737 41.8608 96.1406 42.0971 97.1652C42.3334 98.7415 41.3883 100.475 41.2307 101.185V101.264C41.467 101.342 41.5458 101.579 41.467 102.288C41.2307 104.022 41.2307 104.968 40.4432 104.81L39.6556 106.229C39.6556 106.465 39.6556 106.465 39.5768 106.544C39.5768 106.859 39.5768 107.332 39.5768 110.012C39.5768 110.327 39.6556 110.721 39.8919 110.879C39.9706 110.958 39.9706 111.115 40.1281 111.115C40.3644 111.352 40.5219 111.509 40.7582 111.509C42.7271 112.298 44.1448 112.928 45.2474 113.322C46.1137 113.716 46.8226 114.032 47.2163 114.347Z" fill="#C6CDDF"/>
<path d="M47.2163 114.347C46.9801 114.662 46.7438 114.82 46.4288 115.056C43.436 117.893 39.4193 119.549 35.0089 119.549C31.5435 119.549 28.2357 118.445 25.4791 116.554C24.6916 116.081 23.9827 115.371 23.2739 114.741C23.6677 114.268 24.2978 113.953 25.5579 113.401L26.0305 113.165C27.0543 112.771 28.3932 112.298 30.2046 111.431C30.5197 111.352 30.6772 111.115 30.9134 110.958C31.9373 112.376 33.5125 113.243 35.4027 113.243C37.2141 113.243 38.7892 112.376 39.8131 111.037C40.0494 111.273 40.2069 111.431 40.4432 111.431C42.4121 112.219 43.8298 112.849 44.9324 113.243C46.1137 113.716 46.8226 114.032 47.2163 114.347Z" fill="#474E61"/>
<path d="M42.0748 101.106C42.1601 100.712 41.9896 100.081 41.7338 99.7662C41.7338 99.6873 41.6485 99.6873 41.6485 99.5297C40.881 98.1111 39.2609 97.6382 37.726 97.5593C33.7182 97.3229 33.3771 98.0322 32.1833 97.0865C32.6097 97.5593 32.6097 98.5051 31.9275 99.4509C31.5011 100.16 30.7337 100.554 29.9663 100.791C28.0903 97.0076 29.1135 94.5644 30.819 93.7762C30.1368 92.594 30.1368 92.2 30.1368 92.2C30.1368 92.2 33.8888 92.8305 35.2531 92.594C36.8733 92.2788 39.4314 92.6728 40.4547 94.722C42.0748 95.3525 42.5865 96.2195 42.8423 97.2441C43.2687 98.6628 42.3307 100.397 42.0748 101.106Z" fill="#474E61"/>
</g>
</g>
<g filter="url(#filter0_d_111_379)">
<path d="M114.264 105.643L98.6693 89.8855C97.0699 88.2693 94.7707 87.6633 92.6714 88.0673L88.8727 84.2289C99.669 70.6936 98.7693 50.7946 86.3736 38.2693C75.9772 27.7643 60.4826 25.4411 47.887 31.4007C44.3882 33.0168 41.0893 35.34 38.0904 38.2693C34.3916 41.9057 31.7925 46.2491 30.1931 50.8956C29.3934 53.1178 28.7936 55.34 28.4937 57.6633C26.9942 68.0673 30.1931 79.0774 38.0904 87.0572C38.2903 87.2592 38.3903 87.3602 38.5902 87.5623C45.1879 94.0269 53.6849 97.1582 62.282 97.1582C69.8793 97.1582 77.4767 94.633 83.6745 89.5825L87.4732 93.4208C87.0733 95.542 87.6731 97.8653 89.2726 99.4814L104.767 115.239C107.366 117.865 111.565 117.865 114.164 115.239C116.863 112.613 116.863 108.269 114.264 105.643ZM81.4753 82.1077C80.2757 83.3198 78.9762 84.3299 77.6766 85.34C76.3771 86.2491 75.0775 86.9562 73.778 87.5623C66.5805 90.9966 58.0834 90.9966 50.8859 87.5623C48.0869 86.2491 45.4878 84.4309 43.1886 82.1077C36.5909 75.441 34.0917 66.2491 35.6912 57.6633C36.0911 55.34 36.7908 53.0168 37.8904 50.8956C39.19 48.1683 40.9894 45.5421 43.1886 43.3198C44.6881 41.8047 46.2875 40.4916 47.9869 39.4815C52.3854 36.6532 57.3837 35.34 62.3819 35.34C69.3795 35.34 76.2771 37.9663 81.5753 43.3198C92.0716 54.0269 92.0716 71.4006 81.4753 82.1077Z" fill="url(#paint1_linear_111_379)"/>
</g>
<defs>
<filter id="filter0_d_111_379" x="6.13477" y="17.1799" width="132.066" height="133.029" filterUnits="userSpaceOnUse" color-interpolation-filters="sRGB">
<feFlood flood-opacity="0" result="BackgroundImageFix"/>
<feColorMatrix in="SourceAlpha" type="matrix" values="0 0 0 0 0 0 0 0 0 0 0 0 0 0 0 0 0 0 127 0" result="hardAlpha"/>
<feOffset dy="11"/>
<feGaussianBlur stdDeviation="11"/>
<feColorMatrix type="matrix" values="0 0 0 0 0 0 0 0 0 0 0 0 0 0 0 0 0 0 0.27 0"/>
<feBlend mode="normal" in2="BackgroundImageFix" result="effect1_dropShadow_111_379"/>
<feBlend mode="normal" in="SourceGraphic" in2="effect1_dropShadow_111_379" result="shape"/>
</filter>
<linearGradient id="paint0_linear_111_379" x1="62.9084" y1="71.6152" x2="62.9084" y2="68.7254" gradientUnits="userSpaceOnUse">
<stop stop-color="#B0B8CD"/>
<stop offset="0.9913" stop-color="#969EB4"/>
</linearGradient>
<linearGradient id="paint1_linear_111_379" x1="48.3358" y1="51.55" x2="86.8354" y2="116.024" gradientUnits="userSpaceOnUse">
<stop stop-color="#E3EAF7"/>
<stop offset="1" stop-color="#ADB6C8"/>
</linearGradient>
</defs>
</svg>
