<svg width="171" height="156" viewBox="0 0 171 156" fill="none" xmlns="http://www.w3.org/2000/svg">
<path d="M83.1362 128C116.249 128 143.094 101.155 143.094 67.9243C143.094 34.6935 116.13 7.84863 83.1362 7.84863C50.0236 7.84863 23.1787 34.6935 23.1787 67.9243C23.1787 101.155 50.0236 128 83.1362 128Z" fill="#2A2E37"/>
<path d="M139.191 28.5439C141.869 28.5439 144.04 26.3731 144.04 23.6953C144.04 21.0175 141.869 18.8467 139.191 18.8467C136.514 18.8467 134.343 21.0175 134.343 23.6953C134.343 26.3731 136.514 28.5439 139.191 28.5439Z" fill="#2A2E37"/>
<path d="M146.286 9.62252C148.115 9.62252 149.598 8.14002 149.598 6.31126C149.598 4.4825 148.115 3 146.286 3C144.458 3 142.975 4.4825 142.975 6.31126C142.975 8.14002 144.458 9.62252 146.286 9.62252Z" fill="#2A2E37"/>
<path d="M26.3718 28.4257C28.2006 28.4257 29.6831 26.9432 29.6831 25.1145C29.6831 23.2857 28.2006 21.8032 26.3718 21.8032C24.543 21.8032 23.0605 23.2857 23.0605 25.1145C23.0605 26.9432 24.543 28.4257 26.3718 28.4257Z" fill="#2A2E37"/>
<path d="M6.14948 92.2858C9.54575 92.2858 12.299 89.5326 12.299 86.1363C12.299 82.74 9.54575 79.9868 6.14948 79.9868C2.75322 79.9868 0 82.74 0 86.1363C0 89.5326 2.75322 92.2858 6.14948 92.2858Z" fill="#2A2E37"/>
<g filter="url(#filter0_d_111_1988)">
<path d="M123.935 37.8865L124.881 114.045C124.881 116.647 122.753 118.658 120.151 118.658H45.8842C43.2825 118.658 41.1538 116.529 41.1538 114.045V16.1268C41.1538 13.5251 43.2825 11.5146 45.8842 11.5146H99.6921L123.935 37.8865Z" fill="#5C6479"/>
</g>
<path d="M77.3417 103.402H62.7958C62.2045 103.402 61.7314 102.811 61.7314 102.101C61.7314 101.392 62.2045 100.8 62.7958 100.8H77.3417C77.933 100.8 78.406 101.392 78.406 102.101C78.406 102.929 77.933 103.402 77.3417 103.402Z" fill="#8E96AB"/>
<path d="M69.0634 103.402H53.2167C52.6254 103.402 52.1523 102.811 52.1523 102.101C52.1523 101.392 52.6254 100.8 53.2167 100.8H69.0634C69.6547 100.8 70.1278 101.392 70.1278 102.101C70.1278 102.929 69.6547 103.402 69.0634 103.402Z" fill="#8E96AB"/>
<path d="M89.2858 27.4795H53.6897C52.8619 27.4795 52.1523 26.77 52.1523 25.9422C52.1523 25.1143 52.8619 24.4048 53.6897 24.4048H89.2858C90.1136 24.4048 90.8231 25.1143 90.8231 25.9422C90.8231 26.77 90.1136 27.4795 89.2858 27.4795Z" fill="#8E96AB"/>
<path d="M67.4078 35.9942H53.6897C52.8619 35.9942 52.1523 35.2846 52.1523 34.4568C52.1523 33.629 52.8619 32.9194 53.6897 32.9194H67.2895C68.1173 32.9194 68.8269 33.629 68.8269 34.4568C68.8269 35.2846 68.1173 35.9942 67.4078 35.9942Z" fill="#8E96AB"/>
<path d="M99.6924 11.5146V32.5648C99.6924 35.5213 102.294 37.8865 105.251 37.8865H123.936" fill="#474E61"/>
<path d="M82.2566 82.9375H71.9799H67.4609H53.7936C53.2425 82.9375 52.6914 83.4902 52.6914 84.2639C52.6914 84.9271 53.1323 85.5903 53.7936 85.5903H67.4609H71.9799H82.2566C82.8077 85.5903 83.3588 85.0376 83.3588 84.2639C83.2485 83.4902 82.8077 82.9375 82.2566 82.9375Z" fill="#8E96AB"/>
<path d="M80.9646 73.3208H65.7542H60.5739H53.7936C53.2425 73.3208 52.6914 73.8735 52.6914 74.6472C52.6914 75.3104 53.1323 75.9736 53.7936 75.9736H60.5739H65.7542H80.9646C81.5157 75.9736 82.0668 75.4209 82.0668 74.6472C81.9566 73.8735 81.5157 73.3208 80.9646 73.3208Z" fill="#8E96AB"/>
<path d="M88.3857 63.5938H84.4178H80.4499H53.7936C53.2425 63.5938 52.6914 64.1464 52.6914 64.9202C52.6914 65.5834 53.1323 66.2466 53.7936 66.2466H80.4499H84.8587H88.2755C88.8266 66.2466 89.3777 65.6939 89.3777 64.9202C89.4879 64.257 88.9368 63.5938 88.3857 63.5938Z" fill="#8E96AB"/>
<path d="M113.536 84.5991H106.314H98.2239H84.393C83.4065 84.5991 82.4199 85.5846 82.4199 86.9643C82.4199 88.1469 83.2092 89.3295 84.393 89.3295H98.2239H106.314H113.536C114.522 89.3295 115.509 88.344 115.509 86.9643C115.311 85.5846 114.522 84.5991 113.536 84.5991Z" fill="#C6CDDF"/>
<path d="M113.532 72.7729H95.7083H86.418H83.2149C82.2266 72.7729 81.2383 73.7584 81.2383 75.1381C81.2383 76.3207 82.0289 77.5033 83.2149 77.5033H86.418H95.7083H113.532C114.52 77.5033 115.509 76.5178 115.509 75.1381C115.311 73.7584 114.52 72.7729 113.532 72.7729Z" fill="#C6CDDF"/>
<path d="M113.711 60.9473H106.622H99.5336H89.1161C88.1315 60.9473 87.147 61.9328 87.147 63.3124C87.147 64.495 87.9346 65.6776 89.1161 65.6776H99.5336H107.41H113.514C114.499 65.6776 115.483 64.6921 115.483 63.3124C115.68 62.1299 114.696 60.9473 113.711 60.9473Z" fill="#C6CDDF"/>
<path d="M113.643 53.9775H100.747H97.551H53.7936C53.2425 53.9775 52.6914 54.5302 52.6914 55.3039C52.6914 55.9671 53.1323 56.6303 53.7936 56.6303H97.551H100.747H113.533C114.304 56.6303 114.745 56.0777 114.745 55.3039C114.745 54.6407 114.304 53.9775 113.643 53.9775Z" fill="#8E96AB"/>
<g filter="url(#filter1_d_111_1988)">
<path d="M147.064 113.224L134.718 100.665C133.452 99.3773 131.631 98.8943 129.969 99.2163L126.962 96.1571C135.509 85.3695 134.797 69.5101 124.983 59.5275C116.752 51.1551 104.485 49.3035 94.513 54.0532C91.743 55.3413 89.1312 57.1929 86.7569 59.5275C83.8286 62.4257 81.7709 65.8874 80.5046 69.5906C79.8715 71.3617 79.3966 73.1328 79.1592 74.9844C77.972 83.2764 80.5046 92.0514 86.7569 98.4113C86.9152 98.5723 86.9944 98.6528 87.1527 98.8138C92.3761 103.966 99.1033 106.462 105.91 106.462C111.925 106.462 117.939 104.449 122.846 100.424L125.854 103.483C125.537 105.174 126.012 107.025 127.278 108.313L139.546 120.872C141.603 122.965 144.927 122.965 146.985 120.872C149.122 118.779 149.122 115.317 147.064 113.224ZM121.105 94.4665C120.155 95.4326 119.127 96.2376 118.098 97.0427C117.069 97.7672 116.04 98.3307 115.011 98.8138C109.313 101.551 102.586 101.551 96.8873 98.8138C94.6713 97.7672 92.6136 96.3181 90.7933 94.4665C85.5698 89.1532 83.5912 81.8273 84.8575 74.9844C85.1741 73.1328 85.7281 71.2812 86.5986 69.5906C87.6275 67.417 89.0521 65.3239 90.7933 63.5528C91.9804 62.3452 93.2467 61.2986 94.5921 60.4936C98.0744 58.2395 102.032 57.1929 105.989 57.1929C111.529 57.1929 116.99 59.286 121.184 63.5528C129.494 72.0863 129.494 85.933 121.105 94.4665Z" fill="url(#paint0_linear_111_1988)"/>
</g>
<defs>
<filter id="filter0_d_111_1988" x="19.1538" y="0.514648" width="127.728" height="151.143" filterUnits="userSpaceOnUse" color-interpolation-filters="sRGB">
<feFlood flood-opacity="0" result="BackgroundImageFix"/>
<feColorMatrix in="SourceAlpha" type="matrix" values="0 0 0 0 0 0 0 0 0 0 0 0 0 0 0 0 0 0 127 0" result="hardAlpha"/>
<feOffset dy="11"/>
<feGaussianBlur stdDeviation="11"/>
<feColorMatrix type="matrix" values="0 0 0 0 0 0 0 0 0 0 0 0 0 0 0 0 0 0 0.27 0"/>
<feBlend mode="normal" in2="BackgroundImageFix" result="effect1_dropShadow_111_1988"/>
<feBlend mode="normal" in="SourceGraphic" in2="effect1_dropShadow_111_1988" result="shape"/>
</filter>
<filter id="filter1_d_111_1988" x="56.875" y="40.4863" width="113.723" height="114.956" filterUnits="userSpaceOnUse" color-interpolation-filters="sRGB">
<feFlood flood-opacity="0" result="BackgroundImageFix"/>
<feColorMatrix in="SourceAlpha" type="matrix" values="0 0 0 0 0 0 0 0 0 0 0 0 0 0 0 0 0 0 127 0" result="hardAlpha"/>
<feOffset dy="11"/>
<feGaussianBlur stdDeviation="11"/>
<feColorMatrix type="matrix" values="0 0 0 0 0 0 0 0 0 0 0 0 0 0 0 0 0 0 0.27 0"/>
<feBlend mode="normal" in2="BackgroundImageFix" result="effect1_dropShadow_111_1988"/>
<feBlend mode="normal" in="SourceGraphic" in2="effect1_dropShadow_111_1988" result="shape"/>
</filter>
<linearGradient id="paint0_linear_111_1988" x1="94.8684" y1="70.1122" x2="125.649" y2="121.317" gradientUnits="userSpaceOnUse">
<stop stop-color="#E3EAF7"/>
<stop offset="1" stop-color="#ADB6C8"/>
</linearGradient>
</defs>
</svg>
