<svg width="167" height="159" viewBox="0 0 167 159" fill="none" xmlns="http://www.w3.org/2000/svg">
<path d="M57.1936 113.077C88.3965 113.077 113.691 87.7638 113.691 56.5385C113.691 25.3131 88.3965 0 57.1936 0C25.9907 0 0.695801 25.3131 0.695801 56.5385C0.695801 87.7638 25.9907 113.077 57.1936 113.077Z" fill="#2A2E37"/>
<mask id="mask0_111_719" style="mask-type:alpha" maskUnits="userSpaceOnUse" x="0" y="0" width="114" height="114">
<path d="M57.1936 113.077C88.3965 113.077 113.691 87.7638 113.691 56.5385C113.691 25.3131 88.3965 0 57.1936 0C25.9907 0 0.695801 25.3131 0.695801 56.5385C0.695801 87.7638 25.9907 113.077 57.1936 113.077Z" fill="#2A2E37"/>
</mask>
<g mask="url(#mask0_111_719)">
<rect x="48.3843" y="57.0769" width="52.7692" height="33.4615" rx="5" fill="white"/>
<rect x="16.0767" y="17.2307" width="48.4615" height="30.1538" rx="5" fill="#393F4E"/>
<g filter="url(#filter0_d_111_719)">
<path d="M65.6786 19.1145C65.6786 15.7984 63.0749 13.1929 59.7612 13.1929H0.942742C-1.66089 13.1929 -3.79114 14.8509 -4.61957 17.1011C-4.85626 17.6933 -4.97461 18.4039 -4.97461 18.996V42.2088C-4.97461 43.9852 -4.14618 45.6433 -2.84436 46.7092C-1.77924 47.5382 -0.477422 48.1304 0.942742 48.1304H53.7255H59.7612C63.0749 48.1304 65.6786 45.5249 65.6786 42.2088V34.6291V19.1145ZM63.3116 42.3272C63.3116 44.2221 61.7731 45.8802 59.7612 45.8802H54.909C56.2108 43.5115 57.986 41.3797 59.9979 39.3664C61.063 38.3005 62.1282 37.353 63.3116 36.524V42.3272Z" fill="#393F4E"/>
</g>
<path d="M34.4345 27.1679H8.1615C6.97803 27.1679 6.03125 26.2204 6.03125 25.0361C6.03125 23.8518 6.97803 22.9043 8.1615 22.9043H34.4345C35.618 22.9043 36.5648 23.8518 36.5648 25.0361C36.5648 26.2204 35.618 27.1679 34.4345 27.1679Z" fill="#5C6479"/>
<path d="M45.2041 38.5375H8.1615C6.97803 38.5375 6.03125 37.59 6.03125 36.4057C6.03125 35.2214 6.97803 34.2739 8.1615 34.2739H45.0858C46.2692 34.2739 47.216 35.2214 47.216 36.4057C47.216 37.59 46.2692 38.5375 45.2041 38.5375Z" fill="#5C6479"/>
<g filter="url(#filter1_d_111_719)">
<path d="M20.2334 91.2398H-38.5851C-41.8988 91.2398 -44.5024 88.6343 -44.5024 85.3182V62.1054C-44.5024 58.7893 -41.8988 56.1838 -38.5851 56.1838H20.2334C23.5471 56.1838 26.1507 58.7893 26.1507 62.1054V85.3182C26.1507 88.5158 23.4288 91.2398 20.2334 91.2398Z" fill="#393F4E"/>
</g>
<path d="M5.55794 81.5285H-31.3663C-32.5498 81.5285 -33.4966 80.581 -33.4966 79.3967C-33.4966 78.2124 -32.5498 77.2649 -31.3663 77.2649H5.55794C6.74141 77.2649 7.68818 78.2124 7.68818 79.3967C7.68818 80.581 6.74141 81.5285 5.55794 81.5285Z" fill="#5C6479"/>
<g filter="url(#filter2_d_111_719)">
<path d="M95.9751 56.1838H37.1566C33.8429 56.1838 31.2393 58.7893 31.2393 62.1054V85.3182C31.2393 88.6343 33.8429 91.2398 37.1566 91.2398H95.9751C99.2888 91.2398 101.892 88.6343 101.892 85.3182V62.1054C101.892 58.7893 99.2888 56.1838 95.9751 56.1838ZM99.5255 85.3182C99.5255 87.2131 97.987 88.8711 95.9751 88.8711H64.9682C63.193 87.6868 61.5361 86.384 59.9976 84.8444C52.8968 77.7385 49.8197 67.9086 50.7665 58.5525H95.9751C97.8686 58.5525 99.5255 60.0921 99.5255 62.1054V85.3182Z" fill="#393F4E"/>
</g>
<path d="M100.946 88.5159C99.9993 90.0555 98.2241 91.1214 96.3306 91.1214C97.8691 90.4108 99.4076 89.5818 100.946 88.5159Z" fill="#393F4E"/>
<path d="M70.6489 70.0404H44.3758C43.1924 70.0404 42.2456 69.093 42.2456 67.9086C42.2456 66.7243 43.1924 65.7769 44.3758 65.7769H70.6489C71.8324 65.7769 72.7791 66.7243 72.7791 67.9086C72.6608 69.093 71.714 70.0404 70.6489 70.0404Z" fill="#393F4E"/>
<path d="M81.3001 81.5285H44.3758C43.1924 81.5285 42.2456 80.581 42.2456 79.3967C42.2456 78.2124 43.1924 77.2649 44.3758 77.2649H81.3001C82.4836 77.2649 83.4304 78.2124 83.4304 79.3967C83.4304 80.581 82.4836 81.5285 81.3001 81.5285Z" fill="#5C6479"/>
</g>
<mask id="mask1_111_719" style="mask-type:alpha" maskUnits="userSpaceOnUse" x="47" y="48" width="65" height="49">
<path d="M47.3076 53.3076L101.692 48.4614L110.846 49.5383L111.923 96.3845H68.3076L50.5384 75.3845L47.3076 53.3076Z" fill="#D9D9D9"/>
</mask>
<g mask="url(#mask1_111_719)">
<path d="M100.475 53.8459H33.2832C29.4977 53.8459 26.5234 56.8075 26.5234 60.5767V86.9613C26.5234 90.7306 29.4977 93.6921 33.2832 93.6921H100.475C104.26 93.6921 107.235 90.7306 107.235 86.9613V60.5767C107.235 56.8075 104.26 53.8459 100.475 53.8459ZM104.531 86.9613C104.531 89.1152 102.773 90.9998 100.475 90.9998H65.0539C63.026 89.6536 61.1333 88.1729 59.3757 86.4229C51.2641 78.3459 47.749 67.1729 48.8305 56.5383H100.475C102.638 56.5383 104.531 58.2883 104.531 60.5767V86.9613Z" fill="#393F4E"/>
<path d="M47.231 55.9228C47.231 54.8183 48.1264 53.9229 49.231 53.9229H101.539C104.852 53.9229 107.539 56.6091 107.539 59.9229V91.6921C107.539 92.7967 106.643 93.6921 105.539 93.6921H49.231C48.1264 93.6921 47.231 92.7966 47.231 91.6921V55.9228Z" fill="#8E96AB"/>
<path d="M71.4712 68.9229H41.8396C40.5048 68.9229 39.437 67.9657 39.437 66.7691C39.437 65.5725 40.5048 64.6152 41.8396 64.6152H71.4712C72.806 64.6152 73.8738 65.5725 73.8738 66.7691C73.7403 67.9657 72.6725 68.9229 71.4712 68.9229Z" fill="#C6CDDF"/>
<path d="M84.3384 81.846H41.8862C40.5255 81.846 39.437 80.8888 39.437 79.6922C39.437 78.4956 40.5255 77.5383 41.8862 77.5383H84.3384C85.6991 77.5383 86.7876 78.4956 86.7876 79.6922C86.7876 80.8888 85.6991 81.846 84.3384 81.846Z" fill="#C6CDDF"/>
</g>
<path d="M50 41C50 36.5817 53.5817 33 58 33H66V42C66 45.3137 63.3137 48 60 48H50V41Z" fill="#8E96AB"/>
<g filter="url(#filter3_d_111_719)">
<path d="M142.627 112.43L124.333 93.9405C122.457 92.0442 119.76 91.3331 117.297 91.8072L112.841 87.3034C125.506 71.4218 124.451 48.0734 109.909 33.3769C97.7133 21.0509 79.5365 18.3249 64.7606 25.3176C60.6562 27.2139 56.7863 29.9399 53.2682 33.3769C48.9293 37.6436 45.8803 42.74 44.004 48.1919C43.0658 50.7993 42.3622 53.4068 42.0104 56.1327C40.2514 68.3403 44.004 81.2589 53.2682 90.622C53.5028 90.859 53.6201 90.9775 53.8546 91.2146C61.5944 98.7998 71.5622 102.474 81.6474 102.474C90.5598 102.474 99.4723 99.5109 106.743 93.585L111.199 98.0887C110.73 100.578 111.434 103.304 113.31 105.2L131.487 123.689C134.536 126.77 139.461 126.77 142.51 123.689C145.676 120.607 145.676 115.511 142.627 112.43ZM104.163 84.8145C102.756 86.2367 101.231 87.4219 99.7068 88.6071C98.1823 89.6738 96.6578 90.5034 95.1333 91.2146C86.69 95.2442 76.7221 95.2442 68.2787 91.2146C64.9952 89.6738 61.9462 87.5405 59.249 84.8145C51.5092 76.9922 48.5775 66.2069 50.4538 56.1327C50.9229 53.4068 51.7437 50.6808 53.0337 48.1919C54.5582 44.9919 56.6691 41.9104 59.249 39.3029C61.008 37.5251 62.8843 35.9844 64.8779 34.7992C70.0377 31.4806 75.9012 29.9399 81.7647 29.9399C89.9735 29.9399 98.0651 33.0214 104.28 39.3029C116.594 51.866 116.594 72.2514 104.163 84.8145Z" fill="url(#paint0_linear_111_719)"/>
</g>
<defs>
<filter id="filter0_d_111_719" x="-26.9746" y="2.19287" width="114.653" height="78.9375" filterUnits="userSpaceOnUse" color-interpolation-filters="sRGB">
<feFlood flood-opacity="0" result="BackgroundImageFix"/>
<feColorMatrix in="SourceAlpha" type="matrix" values="0 0 0 0 0 0 0 0 0 0 0 0 0 0 0 0 0 0 127 0" result="hardAlpha"/>
<feOffset dy="11"/>
<feGaussianBlur stdDeviation="11"/>
<feColorMatrix type="matrix" values="0 0 0 0 0 0 0 0 0 0 0 0 0 0 0 0 0 0 0.27 0"/>
<feBlend mode="normal" in2="BackgroundImageFix" result="effect1_dropShadow_111_719"/>
<feBlend mode="normal" in="SourceGraphic" in2="effect1_dropShadow_111_719" result="shape"/>
</filter>
<filter id="filter1_d_111_719" x="-66.5024" y="45.1838" width="114.653" height="79.0559" filterUnits="userSpaceOnUse" color-interpolation-filters="sRGB">
<feFlood flood-opacity="0" result="BackgroundImageFix"/>
<feColorMatrix in="SourceAlpha" type="matrix" values="0 0 0 0 0 0 0 0 0 0 0 0 0 0 0 0 0 0 127 0" result="hardAlpha"/>
<feOffset dy="11"/>
<feGaussianBlur stdDeviation="11"/>
<feColorMatrix type="matrix" values="0 0 0 0 0 0 0 0 0 0 0 0 0 0 0 0 0 0 0.27 0"/>
<feBlend mode="normal" in2="BackgroundImageFix" result="effect1_dropShadow_111_719"/>
<feBlend mode="normal" in="SourceGraphic" in2="effect1_dropShadow_111_719" result="shape"/>
</filter>
<filter id="filter2_d_111_719" x="9.23926" y="45.1838" width="114.653" height="79.0559" filterUnits="userSpaceOnUse" color-interpolation-filters="sRGB">
<feFlood flood-opacity="0" result="BackgroundImageFix"/>
<feColorMatrix in="SourceAlpha" type="matrix" values="0 0 0 0 0 0 0 0 0 0 0 0 0 0 0 0 0 0 127 0" result="hardAlpha"/>
<feOffset dy="11"/>
<feGaussianBlur stdDeviation="11"/>
<feColorMatrix type="matrix" values="0 0 0 0 0 0 0 0 0 0 0 0 0 0 0 0 0 0 0.27 0"/>
<feBlend mode="normal" in2="BackgroundImageFix" result="effect1_dropShadow_111_719"/>
<feBlend mode="normal" in="SourceGraphic" in2="effect1_dropShadow_111_719" result="shape"/>
</filter>
<filter id="filter3_d_111_719" x="19.5894" y="10.5386" width="147.31" height="148.461" filterUnits="userSpaceOnUse" color-interpolation-filters="sRGB">
<feFlood flood-opacity="0" result="BackgroundImageFix"/>
<feColorMatrix in="SourceAlpha" type="matrix" values="0 0 0 0 0 0 0 0 0 0 0 0 0 0 0 0 0 0 127 0" result="hardAlpha"/>
<feOffset dy="11"/>
<feGaussianBlur stdDeviation="11"/>
<feColorMatrix type="matrix" values="0 0 0 0 0 0 0 0 0 0 0 0 0 0 0 0 0 0 0.27 0"/>
<feBlend mode="normal" in2="BackgroundImageFix" result="effect1_dropShadow_111_719"/>
<feBlend mode="normal" in="SourceGraphic" in2="effect1_dropShadow_111_719" result="shape"/>
</filter>
<linearGradient id="paint0_linear_111_719" x1="65.2872" y1="48.9597" x2="110.465" y2="124.601" gradientUnits="userSpaceOnUse">
<stop stop-color="#E3EAF7"/>
<stop offset="1" stop-color="#ADB6C8"/>
</linearGradient>
</defs>
</svg>
