<svg width="138" height="125" viewBox="0 0 138 125" fill="none" xmlns="http://www.w3.org/2000/svg">
<path d="M62.7348 125C97.2278 125 125.19 97.0178 125.19 62.5C125.19 27.9822 97.2278 0 62.7348 0C28.2419 0 0.279785 27.9822 0.279785 62.5C0.279785 97.0178 28.2419 125 62.7348 125Z" fill="#2A2E37"/>
<mask id="mask0_111_2090" style="mask-type:alpha" maskUnits="userSpaceOnUse" x="0" y="0" width="126" height="125">
<path d="M62.7348 125C97.2278 125 125.19 97.0178 125.19 62.5C125.19 27.9822 97.2278 0 62.7348 0C28.2419 0 0.279785 27.9822 0.279785 62.5C0.279785 97.0178 28.2419 125 62.7348 125Z" fill="#2A2E37"/>
</mask>
<g mask="url(#mask0_111_2090)">
<rect x="7.6709" y="51.0098" width="113.546" height="22.6989" rx="4" fill="#C6CDDF"/>
<path opacity="0.6" d="M71.2388 40.245H-0.244685C-1.16961 40.245 -1.9624 39.4516 -1.9624 38.526V33.1047C-1.9624 32.1791 -1.16961 31.3857 -0.244685 31.3857H71.2388C72.1637 31.3857 72.9565 32.1791 72.9565 33.1047V38.526C72.9565 39.4516 72.1637 40.245 71.2388 40.245Z" fill="#5C6479"/>
<path opacity="0.6" d="M127.264 40.245H81.9423C81.0174 40.245 80.2246 39.4516 80.2246 38.526V33.1047C80.2246 32.1791 81.0174 31.3857 81.9423 31.3857H127.264C128.189 31.3857 128.981 32.1791 128.981 33.1047V38.526C128.981 39.4516 128.189 40.245 127.264 40.245Z" fill="#5C6479"/>
<path opacity="0.6" d="M124.092 66.9539H208.392C209.317 66.9539 210.11 66.1606 210.11 65.235V59.8137C210.11 58.8881 209.317 58.0947 208.392 58.0947H124.092C123.167 58.0947 122.374 58.8881 122.374 59.8137V65.235C122.374 66.1606 123.167 66.9539 124.092 66.9539Z" fill="#5C6479"/>
<path d="M58.4218 66.9539H112.067C112.992 66.9539 113.785 66.1606 113.785 65.235V59.8137C113.785 58.8881 112.992 58.0947 112.067 58.0947H58.4218C57.4969 58.0947 56.7041 58.8881 56.7041 59.8137V65.235C56.8362 66.1606 57.4969 66.9539 58.4218 66.9539Z" fill="#5C6479"/>
<path d="M15.8769 66.9539H47.0601C47.985 66.9539 48.7778 66.1606 48.7778 65.235V59.8137C48.7778 58.8881 47.985 58.0947 47.0601 58.0947H15.8769C14.952 58.0947 14.1592 58.8881 14.1592 59.8137V65.235C14.1592 66.1606 14.8198 66.9539 15.8769 66.9539Z" fill="#5C6479"/>
<path opacity="0.6" d="M84.0558 84.1436H-3.81207C-4.73699 84.1436 -5.52979 84.9369 -5.52979 85.8625V91.2838C-5.52979 92.2094 -4.73699 93.0028 -3.81207 93.0028H84.1879C85.1128 93.0028 85.9056 92.2094 85.9056 91.2838V85.8625C85.7735 84.9369 84.9807 84.1436 84.0558 84.1436Z" fill="#5C6479"/>
<path opacity="0.6" d="M84.0558 6.74707H-3.81207C-4.73699 6.74707 -5.52979 7.54043 -5.52979 8.46602V13.8873C-5.52979 14.8129 -4.73699 15.6063 -3.81207 15.6063H84.1879C85.1128 15.6063 85.9056 14.8129 85.9056 13.8873V8.46602C85.7735 7.54043 84.9807 6.74707 84.0558 6.74707Z" fill="#5C6479"/>
<path opacity="0.6" d="M152.501 84.1436H96.3452C95.4202 84.1436 94.6274 84.9369 94.6274 85.8625V91.2838C94.6274 92.2094 95.4202 93.0028 96.3452 93.0028H152.369C153.294 93.0028 154.087 92.2094 154.087 91.2838V85.8625C154.087 84.9369 153.426 84.1436 152.501 84.1436Z" fill="#5C6479"/>
<path opacity="0.6" d="M152.501 6.74707H96.3452C95.4202 6.74707 94.6274 7.54043 94.6274 8.46602V13.8873C94.6274 14.8129 95.4202 15.6063 96.3452 15.6063H152.369C153.294 15.6063 154.087 14.8129 154.087 13.8873V8.46602C154.087 7.54043 153.426 6.74707 152.501 6.74707Z" fill="#5C6479"/>
<path opacity="0.6" d="M80.092 108.892H136.248C137.173 108.892 137.966 109.685 137.966 110.611V116.032C137.966 116.958 137.173 117.751 136.248 117.751H80.2241C79.2992 117.751 78.5064 116.958 78.5064 116.032V110.611C78.5064 109.685 79.1671 108.892 80.092 108.892Z" fill="#5C6479"/>
<path opacity="0.6" d="M-3.81155 108.892H68.3326C69.2575 108.892 70.0503 109.685 70.0503 110.611V116.032C70.0503 116.958 69.2575 117.751 68.3326 117.751H-3.81155C-4.73647 117.751 -5.52924 116.958 -5.52924 116.032V110.611C-5.52924 109.685 -4.73647 108.892 -3.81155 108.892Z" fill="#5C6479"/>
</g>
<path d="M130.71 75.7846L108.232 64.42C107.128 63.8514 105.752 64.8779 105.918 66.1463L110.385 90.9485C110.569 92.1106 112.156 92.4123 112.827 91.3544L116.209 86.8816C116.657 86.1763 117.7 86.1406 118.145 86.7374L123.88 94.4362C124.236 94.9137 124.878 94.9918 125.378 94.6186L129.944 91.2125C130.444 90.8393 130.552 90.2012 130.197 89.7238L124.461 82.0249C123.972 81.3684 124.349 80.4374 125.152 80.2095L130.401 78.2434C131.543 77.9483 131.77 76.2935 130.71 75.7846Z" fill="url(#paint0_linear_111_2090)"/>
<defs>
<linearGradient id="paint0_linear_111_2090" x1="106.546" y1="76.1928" x2="132.622" y2="82.7805" gradientUnits="userSpaceOnUse">
<stop stop-color="#E3EAF7"/>
<stop offset="1" stop-color="#ADB6C8"/>
</linearGradient>
</defs>
</svg>
