<svg width="172" height="149" viewBox="0 0 172 149" fill="none" xmlns="http://www.w3.org/2000/svg">
<path d="M84.145 125C118.638 125 146.6 97.0178 146.6 62.5C146.6 27.9822 118.638 0 84.145 0C49.652 0 21.6899 27.9822 21.6899 62.5C21.6899 97.0178 49.652 125 84.145 125Z" fill="#2A2E37"/>
<g filter="url(#filter0_d_111_2301)">
<path d="M22 45.9099C22 41.4916 25.5817 37.9099 30 37.9099H101.09C105.508 37.9099 109.09 41.4916 109.09 45.9099V94.928C109.09 99.3463 105.508 102.928 101.09 102.928H41.2151C39.1986 102.928 37.2564 103.69 35.7773 105.06L25.3594 114.715C24.0793 115.901 22 114.993 22 113.248V45.9099Z" fill="#5C6479"/>
</g>
<g filter="url(#filter1_d_111_2301)">
<path d="M149.049 25.418C149.049 20.9997 145.467 17.418 141.049 17.418H69.9587C65.5404 17.418 61.9587 20.9997 61.9587 25.418V74.436C61.9587 78.8543 65.5404 82.436 69.9587 82.436H129.834C131.85 82.436 133.792 83.1976 135.271 84.5683L145.689 94.2227C146.97 95.4091 149.049 94.5012 149.049 92.7558V25.418Z" fill="#5C6479"/>
</g>
<path d="M109.09 81.9673V44.7939C109.09 40.992 106.076 37.9099 102.357 37.9099H61.959V75.0833C61.959 78.8852 64.9735 81.9673 68.692 81.9673H109.09Z" fill="url(#paint0_linear_111_2301)"/>
<path d="M76.3032 29.7131H136.754" stroke="#8E96AB" stroke-width="2" stroke-linecap="round"/>
<path d="M92.6968 91.1885H31.2214" stroke="#8E96AB" stroke-width="2" stroke-linecap="round"/>
<path d="M114.213 42.0083H136.754" stroke="#8E96AB" stroke-width="2" stroke-linecap="round"/>
<path d="M53.7622 78.8933H31.2212" stroke="#8E96AB" stroke-width="2" stroke-linecap="round"/>
<path d="M114.213 54.3032H136.754" stroke="#8E96AB" stroke-width="2" stroke-linecap="round"/>
<path d="M53.7622 66.5984H31.2212" stroke="#8E96AB" stroke-width="2" stroke-linecap="round"/>
<path d="M114.213 65.5737H136.754" stroke="#8E96AB" stroke-width="2" stroke-linecap="round"/>
<path d="M53.7622 55.3279H31.2212" stroke="#8E96AB" stroke-width="2" stroke-linecap="round"/>
<path d="M94.3696 58.8498L91.3072 61.9144C90.7816 62.4404 90.1576 62.8577 89.4709 63.1423C88.7842 63.427 88.0482 63.5735 87.3049 63.5735C86.5615 63.5735 85.8255 63.427 85.1388 63.1423C84.4521 62.8577 83.8281 62.4404 83.3025 61.9144C83.173 61.8065 83.0673 61.6727 82.9923 61.5216C82.9173 61.3705 82.8746 61.2054 82.8669 61.0369C82.8592 60.8684 82.8867 60.7001 82.9477 60.5428C83.0086 60.3855 83.1016 60.2427 83.2209 60.1234C83.3401 60.0041 83.4828 59.911 83.64 59.85C83.7972 59.789 83.9653 59.7614 84.1337 59.7691C84.3022 59.7768 84.4671 59.8196 84.6181 59.8946C84.7691 59.9697 84.9027 60.0754 85.0106 60.2051C85.6199 60.8085 86.4425 61.147 87.2998 61.147C88.1571 61.147 88.9797 60.8085 89.589 60.2051L92.6514 57.1405C93.2585 56.533 93.5996 55.7089 93.5996 54.8497C93.5996 53.9904 93.2585 53.1664 92.6514 52.5588C92.0443 51.9513 91.2208 51.6099 90.3622 51.6099C89.5036 51.6099 88.6801 51.9513 88.073 52.5588L87.1027 53.5399C86.8749 53.7679 86.5659 53.896 86.2436 53.896C85.9214 53.896 85.6124 53.7679 85.3846 53.5399C85.1567 53.3119 85.0287 53.0026 85.0287 52.6802C85.0287 52.3577 85.1567 52.0485 85.3846 51.8205L86.3649 50.8394C87.4264 49.7772 88.8661 49.1804 90.3672 49.1804C91.8684 49.1804 93.3081 49.7772 94.3696 50.8394C95.431 51.9017 96.0274 53.3424 96.0274 54.8446C96.0274 56.3469 95.431 57.7876 94.3696 58.8498ZM84.4749 65.3127L83.5047 66.2938C82.8975 66.9014 82.0741 67.2427 81.2155 67.2427C80.3569 67.2427 79.5334 66.9014 78.9263 66.2938C78.3191 65.6862 77.9781 64.8622 77.9781 64.003C77.9781 63.1437 78.3191 62.3197 78.9263 61.7121L81.9887 58.6475C82.598 58.0441 83.4206 57.7056 84.2779 57.7056C85.1351 57.7056 85.9577 58.0441 86.5671 58.6475C86.7996 58.8412 87.096 58.9409 87.3983 58.9271C87.7005 58.9133 87.9866 58.787 88.2006 58.5729C88.4145 58.3588 88.5407 58.0725 88.5545 57.77C88.5683 57.4676 88.4687 57.1709 88.2751 56.9382C87.7502 56.411 87.1265 55.9927 86.4397 55.7073C85.7529 55.4218 85.0165 55.2749 84.2728 55.2749C83.5291 55.2749 82.7927 55.4218 82.1059 55.7073C81.4191 55.9927 80.7954 56.411 80.2705 56.9382L77.2081 60.0028C76.1466 61.0651 75.5503 62.5058 75.5503 64.008C75.5503 65.5103 76.1466 66.951 77.2081 68.0132C78.2696 69.0755 79.7093 69.6722 81.2104 69.6722C82.7116 69.6722 84.1513 69.0755 85.2127 68.0132L86.1931 67.0321C86.4209 66.8041 86.5489 66.4949 86.5489 66.1724C86.5489 65.85 86.4209 65.5408 86.1931 65.3127C85.9653 65.0847 85.6562 64.9566 85.334 64.9566C85.0118 64.9566 84.7028 65.0847 84.4749 65.3127Z" fill="#5C6479"/>
<defs>
<filter id="filter0_d_111_2301" x="0" y="26.9099" width="131.09" height="121.342" filterUnits="userSpaceOnUse" color-interpolation-filters="sRGB">
<feFlood flood-opacity="0" result="BackgroundImageFix"/>
<feColorMatrix in="SourceAlpha" type="matrix" values="0 0 0 0 0 0 0 0 0 0 0 0 0 0 0 0 0 0 127 0" result="hardAlpha"/>
<feOffset dy="11"/>
<feGaussianBlur stdDeviation="11"/>
<feColorMatrix type="matrix" values="0 0 0 0 0 0 0 0 0 0 0 0 0 0 0 0 0 0 0.27 0"/>
<feBlend mode="normal" in2="BackgroundImageFix" result="effect1_dropShadow_111_2301"/>
<feBlend mode="normal" in="SourceGraphic" in2="effect1_dropShadow_111_2301" result="shape"/>
</filter>
<filter id="filter1_d_111_2301" x="39.9585" y="6.41797" width="131.09" height="121.342" filterUnits="userSpaceOnUse" color-interpolation-filters="sRGB">
<feFlood flood-opacity="0" result="BackgroundImageFix"/>
<feColorMatrix in="SourceAlpha" type="matrix" values="0 0 0 0 0 0 0 0 0 0 0 0 0 0 0 0 0 0 127 0" result="hardAlpha"/>
<feOffset dy="11"/>
<feGaussianBlur stdDeviation="11"/>
<feColorMatrix type="matrix" values="0 0 0 0 0 0 0 0 0 0 0 0 0 0 0 0 0 0 0.27 0"/>
<feBlend mode="normal" in2="BackgroundImageFix" result="effect1_dropShadow_111_2301"/>
<feBlend mode="normal" in="SourceGraphic" in2="effect1_dropShadow_111_2301" result="shape"/>
</filter>
<linearGradient id="paint0_linear_111_2301" x1="72.7702" y1="49.475" x2="91.0851" y2="82.6449" gradientUnits="userSpaceOnUse">
<stop stop-color="#E3EAF7"/>
<stop offset="1" stop-color="#ADB6C8"/>
</linearGradient>
</defs>
</svg>
