<svg width="159" height="138" viewBox="0 0 159 138" fill="none" xmlns="http://www.w3.org/2000/svg">
<path d="M78.2842 125C112.777 125 140.739 97.0178 140.739 62.5C140.739 27.9822 112.777 0 78.2842 0C43.7912 0 15.8291 27.9822 15.8291 62.5C15.8291 97.0178 43.7912 125 78.2842 125Z" fill="#2A2E37"/>
<g filter="url(#filter0_d_111_595)">
<path d="M136.547 26.2044V99.3028C136.547 101.983 134.342 104.189 131.664 104.189H27.4899C24.8122 104.189 22.6069 101.983 22.6069 99.3028V26.2044C22.6069 23.5247 24.8122 21.3179 27.4899 21.3179H131.664C134.342 21.3179 136.547 23.5247 136.547 26.2044Z" fill="#5C6479"/>
</g>
<path d="M136.547 26.2044V29.751H22.6069V26.2044C22.6069 23.5247 24.8122 21.3179 27.4899 21.3179H131.664C134.342 21.3179 136.547 23.5247 136.547 26.2044Z" fill="#393F4E"/>
<path d="M27.7259 27.0711C28.5523 27.0711 29.2223 26.4007 29.2223 25.5737C29.2223 24.7466 28.5523 24.0762 27.7259 24.0762C26.8995 24.0762 26.2295 24.7466 26.2295 25.5737C26.2295 26.4007 26.8995 27.0711 27.7259 27.0711Z" fill="#C6CDDF"/>
<path opacity="0.6" d="M32.3724 27.0711C33.1988 27.0711 33.8688 26.4007 33.8688 25.5737C33.8688 24.7466 33.1988 24.0762 32.3724 24.0762C31.5459 24.0762 30.876 24.7466 30.876 25.5737C30.876 26.4007 31.5459 27.0711 32.3724 27.0711Z" fill="#C6CDDF"/>
<path opacity="0.4" d="M37.0985 27.0711C37.9249 27.0711 38.5949 26.4007 38.5949 25.5737C38.5949 24.7466 37.9249 24.0762 37.0985 24.0762C36.272 24.0762 35.6021 24.7466 35.6021 25.5737C35.6021 26.4007 36.272 27.0711 37.0985 27.0711Z" fill="#C6CDDF"/>
<path d="M46.9401 42.8679H31.7264C31.0124 42.8679 30.4082 42.2633 30.4082 41.5488V38.1961C30.4082 37.4815 31.0124 36.877 31.7264 36.877H46.9401C47.6541 36.877 48.2582 37.4815 48.2582 38.1961V41.5488C48.2582 42.2633 47.6541 42.8679 46.9401 42.8679Z" fill="#8E96AB"/>
<path d="M99.2819 42.8679H84.0682C83.3542 42.8679 82.75 42.2633 82.75 41.5488V38.1961C82.75 37.4815 83.3542 36.877 84.0682 36.877H99.2819C99.9959 36.877 100.6 37.4815 100.6 38.1961V41.5488C100.655 42.2633 100.051 42.8679 99.2819 42.8679Z" fill="#8E96AB"/>
<path d="M77.2032 42.8677H54.0256C53.1469 42.8677 52.3779 42.1532 52.3779 41.2188V38.4707C52.3779 37.5913 53.0919 36.8218 54.0256 36.8218H77.2032C78.082 36.8218 78.8509 37.5363 78.8509 38.4707V41.2188C78.8509 42.1532 78.1369 42.8677 77.2032 42.8677Z" fill="#8E96AB"/>
<path d="M125.535 42.8677H106.202C105.324 42.8677 104.555 42.1532 104.555 41.2188V38.4707C104.555 37.5913 105.269 36.8218 106.202 36.8218H125.535C126.414 36.8218 127.183 37.5363 127.183 38.4707V41.2188C127.183 42.1532 126.469 42.8677 125.535 42.8677Z" fill="#8E96AB"/>
<path d="M46.2812 52.7058H32.3307C31.2323 52.7058 30.3535 51.8264 30.3535 50.7272C30.3535 49.6279 31.2323 48.7485 32.3307 48.7485H46.2812C47.3797 48.7485 48.2585 49.6279 48.2585 50.7272C48.2585 51.8264 47.3797 52.7058 46.2812 52.7058Z" fill="#8E96AB"/>
<path d="M98.6777 52.7058H84.7272C83.6288 52.7058 82.75 51.8264 82.75 50.7272C82.75 49.6279 83.6288 48.7485 84.7272 48.7485H98.6777C99.7762 48.7485 100.655 49.6279 100.655 50.7272C100.655 51.8264 99.7762 52.7058 98.6777 52.7058Z" fill="#8E96AB"/>
<path d="M76.8737 52.7058H54.3552C53.2567 52.7058 52.3779 51.8264 52.3779 50.7272C52.3779 49.6279 53.2567 48.7485 54.3552 48.7485H76.9286C78.027 48.7485 78.9058 49.6279 78.9058 50.7272C78.8509 51.8264 77.9721 52.7058 76.8737 52.7058Z" fill="#C6CDDF"/>
<path d="M32.6607 51.9364C33.2977 51.9364 33.8141 51.4196 33.8141 50.7821C33.8141 50.1447 33.2977 49.6279 32.6607 49.6279C32.0237 49.6279 31.5073 50.1447 31.5073 50.7821C31.5073 51.4196 32.0237 51.9364 32.6607 51.9364Z" fill="#474E61"/>
<path d="M46.2812 61.4451H32.3307C31.2323 61.4451 30.3535 60.5657 30.3535 59.4664C30.3535 58.3672 31.2323 57.4878 32.3307 57.4878H46.2812C47.3797 57.4878 48.2585 58.3672 48.2585 59.4664C48.2585 60.5657 47.3797 61.4451 46.2812 61.4451Z" fill="#8E96AB"/>
<path d="M98.6777 61.4451H84.7272C83.6288 61.4451 82.75 60.5657 82.75 59.4664C82.75 58.3672 83.6288 57.4878 84.7272 57.4878H98.6777C99.7762 57.4878 100.655 58.3672 100.655 59.4664C100.655 60.5657 99.7762 61.4451 98.6777 61.4451Z" fill="#8E96AB"/>
<path d="M76.8737 61.4451H54.3552C53.2567 61.4451 52.3779 60.5657 52.3779 59.4664C52.3779 58.3672 53.2567 57.4878 54.3552 57.4878H76.9286C78.027 57.4878 78.9058 58.3672 78.9058 59.4664C78.8509 60.5657 77.9721 61.4451 76.8737 61.4451Z" fill="#8E96AB"/>
<path d="M32.6607 60.6204C33.2977 60.6204 33.8141 60.1037 33.8141 59.4662C33.8141 58.8288 33.2977 58.312 32.6607 58.312C32.0237 58.312 31.5073 58.8288 31.5073 59.4662C31.5073 60.1037 32.0237 60.6204 32.6607 60.6204Z" fill="#474E61"/>
<path d="M46.2812 70.1844H32.3307C31.2323 70.1844 30.3535 69.305 30.3535 68.2057C30.3535 67.1065 31.2323 66.2271 32.3307 66.2271H46.2812C47.3797 66.2271 48.2585 67.1065 48.2585 68.2057C48.2585 69.305 47.3797 70.1844 46.2812 70.1844Z" fill="#C6CDDF"/>
<path d="M98.6777 70.1844H84.7272C83.6288 70.1844 82.75 69.305 82.75 68.2057C82.75 67.1065 83.6288 66.2271 84.7272 66.2271H98.6777C99.7762 66.2271 100.655 67.1065 100.655 68.2057C100.655 69.305 99.7762 70.1844 98.6777 70.1844Z" fill="#C6CDDF"/>
<path d="M76.8737 70.1844H54.3552C53.2567 70.1844 52.3779 69.305 52.3779 68.2057C52.3779 67.1065 53.2567 66.2271 54.3552 66.2271H76.9286C78.027 66.2271 78.9058 67.1065 78.9058 68.2057C78.8509 69.305 77.9721 70.1844 76.8737 70.1844Z" fill="#C6CDDF"/>
<path d="M32.6607 69.3597C33.2977 69.3597 33.8141 68.8429 33.8141 68.2055C33.8141 67.568 33.2977 67.0513 32.6607 67.0513C32.0237 67.0513 31.5073 67.568 31.5073 68.2055C31.5073 68.8429 32.0237 69.3597 32.6607 69.3597Z" fill="#474E61"/>
<path d="M46.2812 78.8684H32.3307C31.2323 78.8684 30.3535 77.989 30.3535 76.8898C30.3535 75.7905 31.2323 74.9111 32.3307 74.9111H46.2812C47.3797 74.9111 48.2585 75.7905 48.2585 76.8898C48.2585 77.989 47.3797 78.8684 46.2812 78.8684Z" fill="#8E96AB"/>
<path d="M98.6777 78.8684H84.7272C83.6288 78.8684 82.75 77.989 82.75 76.8898C82.75 75.7905 83.6288 74.9111 84.7272 74.9111H98.6777C99.7762 74.9111 100.655 75.7905 100.655 76.8898C100.655 77.989 99.7762 78.8684 98.6777 78.8684Z" fill="#8E96AB"/>
<path d="M76.8737 78.8684H54.3552C53.2567 78.8684 52.3779 77.989 52.3779 76.8898C52.3779 75.7905 53.2567 74.9111 54.3552 74.9111H76.9286C78.027 74.9111 78.9058 75.7905 78.9058 76.8898C78.8509 77.989 77.9721 78.8684 76.8737 78.8684Z" fill="#8E96AB"/>
<path d="M32.6607 78.099C33.2977 78.099 33.8141 77.5822 33.8141 76.9447C33.8141 76.3073 33.2977 75.7905 32.6607 75.7905C32.0237 75.7905 31.5073 76.3073 31.5073 76.9447C31.5073 77.5822 32.0237 78.099 32.6607 78.099Z" fill="#474E61"/>
<path d="M46.2812 87.6072H32.3307C31.2323 87.6072 30.3535 86.7278 30.3535 85.6286C30.3535 84.5293 31.2323 83.6499 32.3307 83.6499H46.2812C47.3797 83.6499 48.2585 84.5293 48.2585 85.6286C48.2585 86.7278 47.3797 87.6072 46.2812 87.6072Z" fill="#C6CDDF"/>
<path d="M98.6777 87.6072H84.7272C83.6288 87.6072 82.75 86.7278 82.75 85.6286C82.75 84.5293 83.6288 83.6499 84.7272 83.6499H98.6777C99.7762 83.6499 100.655 84.5293 100.655 85.6286C100.655 86.7278 99.7762 87.6072 98.6777 87.6072Z" fill="#8E96AB"/>
<path d="M76.8737 87.6072H54.3552C53.2567 87.6072 52.3779 86.7278 52.3779 85.6286C52.3779 84.5293 53.2567 83.6499 54.3552 83.6499H76.9286C78.027 83.6499 78.9058 84.5293 78.9058 85.6286C78.8509 86.7278 77.9721 87.6072 76.8737 87.6072Z" fill="#8E96AB"/>
<path d="M32.6607 86.783C33.2977 86.783 33.8141 86.2663 33.8141 85.6288C33.8141 84.9914 33.2977 84.4746 32.6607 84.4746C32.0237 84.4746 31.5073 84.9914 31.5073 85.6288C31.5073 86.2663 32.0237 86.783 32.6607 86.783Z" fill="#474E61"/>
<path d="M46.2812 96.3465H32.3307C31.2323 96.3465 30.3535 95.4671 30.3535 94.3678C30.3535 93.2686 31.2323 92.3892 32.3307 92.3892H46.2812C47.3797 92.3892 48.2585 93.2686 48.2585 94.3678C48.2585 95.4671 47.3797 96.3465 46.2812 96.3465Z" fill="#8E96AB"/>
<path d="M98.6777 96.3465H84.7272C83.6288 96.3465 82.75 95.4671 82.75 94.3678C82.75 93.2686 83.6288 92.3892 84.7272 92.3892H98.6777C99.7762 92.3892 100.655 93.2686 100.655 94.3678C100.655 95.4671 99.7762 96.3465 98.6777 96.3465Z" fill="#C6CDDF"/>
<path d="M76.8737 96.3465H54.3552C53.2567 96.3465 52.3779 95.4671 52.3779 94.3678C52.3779 93.2686 53.2567 92.3892 54.3552 92.3892H76.9286C78.027 92.3892 78.9058 93.2686 78.9058 94.3678C78.8509 95.4671 77.9721 96.3465 76.8737 96.3465Z" fill="#8E96AB"/>
<path d="M32.6607 95.5218C33.2977 95.5218 33.8141 95.0051 33.8141 94.3676C33.8141 93.7301 33.2977 93.2134 32.6607 93.2134C32.0237 93.2134 31.5073 93.7301 31.5073 94.3676C31.5073 95.0051 32.0237 95.5218 32.6607 95.5218Z" fill="#474E61"/>
<path d="M125.206 52.7058H106.477C105.378 52.7058 104.5 51.8264 104.5 50.7272C104.5 49.6279 105.378 48.7485 106.477 48.7485H125.206C126.304 48.7485 127.183 49.6279 127.183 50.7272C127.183 51.8264 126.304 52.7058 125.206 52.7058Z" fill="#8E96AB"/>
<path d="M125.206 61.4451H106.477C105.378 61.4451 104.5 60.5657 104.5 59.4664C104.5 58.3672 105.378 57.4878 106.477 57.4878H125.206C126.304 57.4878 127.183 58.3672 127.183 59.4664C127.183 60.5657 126.304 61.4451 125.206 61.4451Z" fill="#C6CDDF"/>
<path d="M125.206 70.1844H106.477C105.378 70.1844 104.5 69.305 104.5 68.2057C104.5 67.1065 105.378 66.2271 106.477 66.2271H125.206C126.304 66.2271 127.183 67.1065 127.183 68.2057C127.183 69.305 126.304 70.1844 125.206 70.1844Z" fill="#8E96AB"/>
<path d="M125.206 78.8684H106.477C105.378 78.8684 104.5 77.989 104.5 76.8898C104.5 75.7905 105.378 74.9111 106.477 74.9111H125.206C126.304 74.9111 127.183 75.7905 127.183 76.8898C127.183 77.989 126.304 78.8684 125.206 78.8684Z" fill="#8E96AB"/>
<path d="M125.206 87.6072H106.477C105.378 87.6072 104.5 86.7278 104.5 85.6286C104.5 84.5293 105.378 83.6499 106.477 83.6499H125.206C126.304 83.6499 127.183 84.5293 127.183 85.6286C127.183 86.7278 126.304 87.6072 125.206 87.6072Z" fill="#8E96AB"/>
<path d="M125.206 96.3465H106.477C105.378 96.3465 104.5 95.4671 104.5 94.3678C104.5 93.2686 105.378 92.3892 106.477 92.3892H125.206C126.304 92.3892 127.183 93.2686 127.183 94.3678C127.183 95.4671 126.304 96.3465 125.206 96.3465Z" fill="#8E96AB"/>
<defs>
<filter id="filter0_d_111_595" x="0.606934" y="10.3179" width="157.94" height="126.872" filterUnits="userSpaceOnUse" color-interpolation-filters="sRGB">
<feFlood flood-opacity="0" result="BackgroundImageFix"/>
<feColorMatrix in="SourceAlpha" type="matrix" values="0 0 0 0 0 0 0 0 0 0 0 0 0 0 0 0 0 0 127 0" result="hardAlpha"/>
<feOffset dy="11"/>
<feGaussianBlur stdDeviation="11"/>
<feColorMatrix type="matrix" values="0 0 0 0 0 0 0 0 0 0 0 0 0 0 0 0 0 0 0.27 0"/>
<feBlend mode="normal" in2="BackgroundImageFix" result="effect1_dropShadow_111_595"/>
<feBlend mode="normal" in="SourceGraphic" in2="effect1_dropShadow_111_595" result="shape"/>
</filter>
</defs>
</svg>
