<svg width="143" height="147" viewBox="0 0 143 147" fill="none" xmlns="http://www.w3.org/2000/svg">
<path d="M71.7319 125C106.225 125 134.187 97.0178 134.187 62.5C134.187 27.9822 106.225 0 71.7319 0C37.2389 0 9.27686 27.9822 9.27686 62.5C9.27686 97.0178 37.2389 125 71.7319 125Z" fill="#2A2E37"/>
<path d="M88.8229 63.6823H54.6419C54.2481 63.6823 53.9331 63.3671 53.9331 62.973V62.0272C53.9331 61.6331 54.2481 61.3179 54.6419 61.3179H88.8229C89.2167 61.3179 89.5317 61.6331 89.5317 62.0272V62.973C89.5317 63.3671 89.2167 63.6823 88.8229 63.6823Z" fill="#AAB2C5"/>
<g filter="url(#filter0_d_111_1344)">
<path d="M120.956 16.5511V108.449C120.956 111.129 118.751 113.335 116.073 113.335H27.3913C24.7135 113.335 22.5083 111.129 22.5083 108.449V16.5511C22.5083 13.8714 24.7135 11.6646 27.3913 11.6646H116.073C118.751 11.6646 120.956 13.8714 120.956 16.5511Z" fill="#5C6479"/>
</g>
<path d="M120.956 16.5511V20.0977H22.5083V16.5511C22.5083 13.8714 24.7135 11.6646 27.3913 11.6646H116.073C118.751 11.6646 120.956 13.8714 120.956 16.5511Z" fill="#393F4E"/>
<path d="M27.6273 17.4181C28.4537 17.4181 29.1237 16.7476 29.1237 15.9206C29.1237 15.0935 28.4537 14.4231 27.6273 14.4231C26.8008 14.4231 26.1309 15.0935 26.1309 15.9206C26.1309 16.7476 26.8008 17.4181 27.6273 17.4181Z" fill="#C6CDDF"/>
<path opacity="0.6" d="M32.2742 17.4181C33.1007 17.4181 33.7706 16.7476 33.7706 15.9206C33.7706 15.0935 33.1007 14.4231 32.2742 14.4231C31.4478 14.4231 30.7778 15.0935 30.7778 15.9206C30.7778 16.7476 31.4478 17.4181 32.2742 17.4181Z" fill="#C6CDDF"/>
<path opacity="0.4" d="M36.9998 17.4181C37.8263 17.4181 38.4962 16.7476 38.4962 15.9206C38.4962 15.0935 37.8263 14.4231 36.9998 14.4231C36.1734 14.4231 35.5034 15.0935 35.5034 15.9206C35.5034 16.7476 36.1734 17.4181 36.9998 17.4181Z" fill="#C6CDDF"/>
<path d="M55.3242 80.5084C64.9705 80.5084 72.7904 72.6829 72.7904 63.0296C72.7904 53.3763 64.9705 45.5508 55.3242 45.5508C45.6778 45.5508 37.8579 53.3763 37.8579 63.0296C37.8579 72.6829 45.6778 80.5084 55.3242 80.5084Z" fill="#393F4E"/>
<path d="M95.8972 44.9785L71.727 38.9615C70.1193 38.5613 68.4919 39.5403 68.0922 41.1481L62.8023 62.4281C62.0029 65.6439 63.9616 68.8997 67.1771 69.7002L88.4362 74.9925C90.044 75.3927 91.6713 74.4137 92.071 72.8058L98.0846 48.6145C98.4843 47.0066 97.505 45.3787 95.8972 44.9785Z" fill="#474E61"/>
<path d="M71.0413 70.6623C72.1617 68.3561 72.7902 65.7663 72.7902 63.0296C72.7902 57.4348 70.1634 52.4539 66.0766 49.2546L62.121 65.1669C61.6976 66.8701 62.7341 68.5943 64.4361 69.018L71.0413 70.6623Z" fill="#5C6479"/>
<path d="M106.205 83.2126C107.45 85.2109 106.013 87.7995 103.659 87.7995H75.5621C73.2075 87.7995 71.7707 85.2109 73.0162 83.2126L87.0645 60.6736C88.2389 58.7894 90.982 58.7894 92.1564 60.6736L106.205 83.2126Z" fill="#C6CDDF"/>
<path fill-rule="evenodd" clip-rule="evenodd" d="M94.2516 64.0348L92.1566 60.6736C90.9823 58.7895 88.2391 58.7895 87.0647 60.6736L79.5229 72.7736L88.4365 74.9926C90.0442 75.3928 91.6716 74.4138 92.0713 72.806L94.2516 64.0348Z" fill="#8E96AB"/>
<defs>
<filter id="filter0_d_111_1344" x="0.508301" y="0.664551" width="142.447" height="145.671" filterUnits="userSpaceOnUse" color-interpolation-filters="sRGB">
<feFlood flood-opacity="0" result="BackgroundImageFix"/>
<feColorMatrix in="SourceAlpha" type="matrix" values="0 0 0 0 0 0 0 0 0 0 0 0 0 0 0 0 0 0 127 0" result="hardAlpha"/>
<feOffset dy="11"/>
<feGaussianBlur stdDeviation="11"/>
<feColorMatrix type="matrix" values="0 0 0 0 0 0 0 0 0 0 0 0 0 0 0 0 0 0 0.27 0"/>
<feBlend mode="normal" in2="BackgroundImageFix" result="effect1_dropShadow_111_1344"/>
<feBlend mode="normal" in="SourceGraphic" in2="effect1_dropShadow_111_1344" result="shape"/>
</filter>
</defs>
</svg>
