<svg width="199" height="163" viewBox="0 0 199 163" fill="none" xmlns="http://www.w3.org/2000/svg">
<path d="M106 129C141.596 129 170.453 100.122 170.453 64.5C170.453 28.8776 141.596 0 106 0C70.4028 0 41.5459 28.8776 41.5459 64.5C41.5459 100.122 70.4028 129 106 129Z" fill="#2A2E37"/>
<path d="M138.116 29.5H49.5L48 32V37.3849L88.6656 107.82L159.667 66.8273L138.116 29.5Z" fill="#C6CDDF"/>
<g filter="url(#filter0_d_111_2012)">
<path d="M164.792 26.4677V109.905C164.792 112.671 162.517 114.948 159.753 114.948H52.2453C49.4818 114.948 47.2061 112.671 47.2061 109.905V26.4677C47.2061 23.7022 49.4818 21.4248 52.2453 21.4248H159.753C162.517 21.4248 164.792 23.7022 164.792 26.4677Z" fill="#5C6479"/>
</g>
<path d="M138.116 29.5L49.5 27.5L48 30V37.3849L88.6656 107.82L159.667 66.8273L138.116 29.5Z" fill="#8E96AB"/>
<path d="M164.792 26.4677V30.1278H47.2061V26.4677C47.2061 23.7022 49.4818 21.4248 52.2453 21.4248H159.753C162.517 21.4248 164.792 23.7022 164.792 26.4677Z" fill="#393F4E"/>
<path d="M52.4891 27.3623C53.342 27.3623 54.0334 26.6704 54.0334 25.8169C54.0334 24.9634 53.342 24.2715 52.4891 24.2715C51.6362 24.2715 50.9448 24.9634 50.9448 25.8169C50.9448 26.6704 51.6362 27.3623 52.4891 27.3623Z" fill="#C6CDDF"/>
<path opacity="0.6" d="M57.2845 27.3623C58.1374 27.3623 58.8288 26.6704 58.8288 25.8169C58.8288 24.9634 58.1374 24.2715 57.2845 24.2715C56.4316 24.2715 55.7402 24.9634 55.7402 25.8169C55.7402 26.6704 56.4316 27.3623 57.2845 27.3623Z" fill="#C6CDDF"/>
<path opacity="0.4" d="M62.161 27.3623C63.0139 27.3623 63.7053 26.6704 63.7053 25.8169C63.7053 24.9634 63.0139 24.2715 62.161 24.2715C61.3081 24.2715 60.6167 24.9634 60.6167 25.8169C60.6167 26.6704 61.3081 27.3623 62.161 27.3623Z" fill="#C6CDDF"/>
<path fill-rule="evenodd" clip-rule="evenodd" d="M147.093 60.0817C146.487 59.0314 146.847 57.6883 147.896 57.0819L153.914 53.6049C157.413 51.5835 161.887 52.7831 163.907 56.2842L173.233 72.4497C175.253 75.9508 174.054 80.4277 170.556 82.4491L137.456 101.573C136.057 102.381 135.577 104.172 136.385 105.573L138.47 109.186C139.076 110.236 138.716 111.579 137.667 112.186C136.617 112.792 135.275 112.432 134.669 111.382L132.584 107.769C130.564 104.268 131.763 99.7906 135.262 97.7692L168.361 78.6455C169.761 77.8369 170.24 76.0461 169.432 74.6457L160.106 58.4802C159.298 57.0798 157.508 56.5999 156.109 57.4085L150.091 60.8855C149.041 61.492 147.699 61.1321 147.093 60.0817Z" fill="#8E96AB"/>
<path d="M157.379 140.058L151.868 143.243C150.506 144.03 148.757 143.561 147.971 142.198L132.738 115.794C131.952 114.431 132.42 112.681 133.782 111.894L139.293 108.71C140.655 107.923 142.404 108.392 143.19 109.755L158.424 136.159C159.21 137.522 158.741 139.272 157.379 140.058Z" fill="#C6CDDF"/>
<g filter="url(#filter1_d_111_2012)">
<path d="M148.479 49.307L157.11 64.268C158.994 67.5327 157.869 71.7325 154.607 73.6174L95.788 107.601C92.5256 109.486 88.3288 108.361 86.4452 105.096L77.8137 90.1349C75.9302 86.8701 77.0547 82.6703 80.3171 80.7854L139.136 46.8018C142.398 44.9169 146.595 46.0422 148.479 49.307Z" fill="url(#paint0_linear_111_2012)"/>
</g>
<path d="M98.2888 53.8461L99.493 53.3105C99.8945 53.1766 99.8945 52.641 99.493 52.5071L98.2888 51.9715C96.817 51.302 95.6128 50.0969 94.9438 48.624L94.4086 47.4189C94.2748 47.0173 93.7396 47.0173 93.6058 47.4189L93.0705 48.624C92.4015 50.0969 91.1973 51.302 89.7255 51.9715L88.5213 52.5071C88.1199 52.641 88.1199 53.1766 88.5213 53.3105L89.7255 53.8461C91.1973 54.5156 92.4015 55.7207 93.0705 57.1935L93.6058 58.3986C93.7396 58.8003 94.2748 58.8003 94.4086 58.3986L94.9438 57.1935C95.479 55.7207 96.6832 54.5156 98.2888 53.8461Z" fill="#C6CDDF"/>
<path d="M85.31 46.2136L86.1128 45.8119C86.3804 45.678 86.3804 45.4102 86.1128 45.2763L85.31 45.0085C84.2396 44.6068 83.4368 43.8035 83.0354 42.7323L82.6339 41.9289C82.5001 41.6611 82.2325 41.6611 82.0987 41.9289L81.8311 42.7323C81.2959 43.8035 80.4931 44.6068 79.5565 45.0085L78.6199 45.4102C78.4861 45.4102 78.4861 45.8119 78.6199 45.8119L79.4227 46.2136C80.4931 46.6153 81.2959 47.4187 81.8311 48.4899L82.2325 49.2933C82.3663 49.5611 82.6339 49.5611 82.7678 49.2933L83.0354 48.4899C83.4368 47.4187 84.2396 46.6153 85.31 46.2136Z" fill="#C6CDDF"/>
<path d="M95.6128 38.4479L96.2818 38.1801C96.4156 38.0462 96.4156 37.9123 96.2818 37.7784L95.6128 37.5106C94.81 37.2428 94.2748 36.5733 93.8734 35.7699L93.6058 35.1004C93.472 34.9665 93.3382 34.9665 93.2044 35.1004L92.9368 35.7699C92.6691 36.5733 92.0001 37.1089 91.1973 37.5106L90.7959 37.7784C90.5283 37.9123 90.5283 38.1801 90.7959 38.1801L91.4649 38.4479C92.2677 38.7157 92.803 39.3852 93.2044 40.1886L93.472 40.8581C93.6058 40.992 93.7396 40.992 93.8734 40.8581L94.141 40.1886C94.2748 39.3852 94.9438 38.7157 95.6128 38.4479Z" fill="#C6CDDF"/>
<g filter="url(#filter2_d_111_2012)">
<path d="M47.0443 44.9755L61.7342 49.0724C63.7733 49.6482 64.9573 51.752 64.3872 53.8116L53.0299 95.3568C51.3416 101.513 45.0491 105.123 38.9538 103.418C32.8586 101.713 29.2848 95.3568 30.973 89.2003L42.3523 47.6772C42.9223 45.6177 45.0052 44.4218 47.0443 44.9755ZM39.787 100.45C42.8127 101.292 45.9261 99.498 46.7593 96.4419C47.5924 93.3858 45.8165 90.2412 42.7908 89.3996C39.7651 88.5581 36.6517 90.3519 35.8185 93.408C35.0073 96.4641 36.7613 99.6088 39.787 100.45Z" fill="url(#paint1_linear_111_2012)"/>
</g>
<g filter="url(#filter3_d_111_2012)">
<path d="M34.2189 46.8403H48.875C50.8966 46.8403 52.5391 48.5225 52.5391 50.5929V92.5827C52.5391 98.7938 47.6116 103.84 41.547 103.84C35.4824 103.84 30.5549 98.8154 30.5549 92.5827V50.5929C30.5549 48.5225 32.1974 46.8403 34.2189 46.8403ZM41.547 99.1173C43.6317 99.1173 45.3373 97.3704 45.3373 95.2353C45.3373 93.1003 43.6527 91.3534 41.547 91.3534C39.4623 91.3534 37.7566 93.0787 37.7566 95.2353C37.7566 97.3704 39.4412 99.1173 41.547 99.1173Z" fill="url(#paint2_linear_111_2012)"/>
</g>
<path d="M30.5549 73.8403H52.5391V86.8403H30.5549V73.8403Z" fill="#C6CDDF"/>
<path d="M30.5549 59.8403H52.5391V73.8403H30.5549V59.8403Z" fill="#8E96AB"/>
<path opacity="0.7" d="M30.5549 50.5124V59.8403H52.5391V50.5124C52.5391 48.4864 50.895 46.8403 48.8715 46.8403H34.2013C32.1989 46.8403 30.5549 48.4864 30.5549 50.5124Z" fill="#5C6479"/>
<path d="M23.9893 45.3677L39.3541 62.8563C40.582 64.254 40.806 66.1855 40.0782 67.7472L41.9516 69.8795C42.6128 70.6321 42.547 71.7701 41.8046 72.4233C41.0622 73.0765 39.9259 72.996 39.2647 72.2434L37.3914 70.1111C35.7505 70.6335 33.8649 70.1639 32.637 68.7662L17.2721 51.2776L23.9893 45.3677Z" fill="#8E96AB" stroke="#8E96AB" stroke-width="2" stroke-miterlimit="10"/>
<path d="M24.0655 58.4458C27.4563 59.6004 30.6968 59.4028 33.6194 59.2246C34.6413 59.1623 35.6244 59.1023 36.5615 59.1034L39.8942 62.8939C41.123 64.2916 41.3471 66.2231 40.6188 67.7848L42.4935 69.9171C43.1552 70.6697 43.0894 71.8077 42.3464 72.4609C41.6035 73.1141 40.4664 73.0336 39.8047 72.281L37.93 70.1487C36.2879 70.6711 34.401 70.2015 33.1722 68.8038L24.0655 58.4458Z" fill="white"/>
<path d="M23.9893 45.3677L39.3541 62.8563C40.582 64.254 40.806 66.1855 40.0782 67.7472L41.9516 69.8795C42.6128 70.6321 42.547 71.7701 41.8046 72.4233C41.0622 73.0765 39.9259 72.996 39.2647 72.2434L37.3914 70.1111C35.7505 70.6335 33.8649 70.1639 32.637 68.7662L17.2721 51.2776L23.9893 45.3677V45.3677Z" stroke="#C6CDDF" stroke-width="2" stroke-miterlimit="10"/>
<path d="M17.2604 53.1486L25.8943 45.5523L19.2109 37.945C17.1079 35.5513 13.475 35.3176 11.083 37.4221C8.69109 39.5266 8.45754 43.1621 10.5605 45.5558L17.244 53.1631L17.2604 53.1486Z" fill="#C6CDDF"/>
<path d="M17.7781 54.2339L26.9199 46.1906C27.7718 45.4411 27.8549 44.1471 27.1059 43.2945C26.3569 42.442 25.0639 42.3588 24.2119 43.1084L15.0701 51.1516C14.2182 51.9011 14.135 53.1951 14.8841 54.0477C15.6023 54.8982 16.9097 54.9978 17.7781 54.2339Z" fill="#C6CDDF"/>
<path d="M44.6488 81.4802C44.6488 83.4278 43.2567 84.9987 41.5567 84.9747C39.7448 84.9426 38.3877 83.0992 38.5625 81.0394C38.7514 78.8273 40.3255 76.9999 41.13 76.1984C41.3958 75.9339 41.7946 75.9339 42.0604 76.1984C42.9139 77.056 44.6488 79.0918 44.6488 81.4802Z" fill="white"/>
<defs>
<filter id="filter0_d_111_2012" x="25.2061" y="10.4248" width="161.586" height="137.523" filterUnits="userSpaceOnUse" color-interpolation-filters="sRGB">
<feFlood flood-opacity="0" result="BackgroundImageFix"/>
<feColorMatrix in="SourceAlpha" type="matrix" values="0 0 0 0 0 0 0 0 0 0 0 0 0 0 0 0 0 0 127 0" result="hardAlpha"/>
<feOffset dy="11"/>
<feGaussianBlur stdDeviation="11"/>
<feColorMatrix type="matrix" values="0 0 0 0 0 0 0 0 0 0 0 0 0 0 0 0 0 0 0.27 0"/>
<feBlend mode="normal" in2="BackgroundImageFix" result="effect1_dropShadow_111_2012"/>
<feBlend mode="normal" in="SourceGraphic" in2="effect1_dropShadow_111_2012" result="shape"/>
</filter>
<filter id="filter1_d_111_2012" x="54.9004" y="34.8877" width="125.123" height="106.627" filterUnits="userSpaceOnUse" color-interpolation-filters="sRGB">
<feFlood flood-opacity="0" result="BackgroundImageFix"/>
<feColorMatrix in="SourceAlpha" type="matrix" values="0 0 0 0 0 0 0 0 0 0 0 0 0 0 0 0 0 0 127 0" result="hardAlpha"/>
<feOffset dy="11"/>
<feGaussianBlur stdDeviation="11"/>
<feColorMatrix type="matrix" values="0 0 0 0 0 0 0 0 0 0 0 0 0 0 0 0 0 0 0.27 0"/>
<feBlend mode="normal" in2="BackgroundImageFix" result="effect1_dropShadow_111_2012"/>
<feBlend mode="normal" in="SourceGraphic" in2="effect1_dropShadow_111_2012" result="shape"/>
</filter>
<filter id="filter2_d_111_2012" x="8.55469" y="33.8403" width="77.9756" height="103" filterUnits="userSpaceOnUse" color-interpolation-filters="sRGB">
<feFlood flood-opacity="0" result="BackgroundImageFix"/>
<feColorMatrix in="SourceAlpha" type="matrix" values="0 0 0 0 0 0 0 0 0 0 0 0 0 0 0 0 0 0 127 0" result="hardAlpha"/>
<feOffset dy="11"/>
<feGaussianBlur stdDeviation="11"/>
<feColorMatrix type="matrix" values="0 0 0 0 0 0 0 0 0 0 0 0 0 0 0 0 0 0 0.27 0"/>
<feBlend mode="normal" in2="BackgroundImageFix" result="effect1_dropShadow_111_2012"/>
<feBlend mode="normal" in="SourceGraphic" in2="effect1_dropShadow_111_2012" result="shape"/>
</filter>
<filter id="filter3_d_111_2012" x="8.55469" y="35.8403" width="65.9844" height="101" filterUnits="userSpaceOnUse" color-interpolation-filters="sRGB">
<feFlood flood-opacity="0" result="BackgroundImageFix"/>
<feColorMatrix in="SourceAlpha" type="matrix" values="0 0 0 0 0 0 0 0 0 0 0 0 0 0 0 0 0 0 127 0" result="hardAlpha"/>
<feOffset dy="11"/>
<feGaussianBlur stdDeviation="11"/>
<feColorMatrix type="matrix" values="0 0 0 0 0 0 0 0 0 0 0 0 0 0 0 0 0 0 0.27 0"/>
<feBlend mode="normal" in2="BackgroundImageFix" result="effect1_dropShadow_111_2012"/>
<feBlend mode="normal" in="SourceGraphic" in2="effect1_dropShadow_111_2012" result="shape"/>
</filter>
<linearGradient id="paint0_linear_111_2012" x1="94.6647" y1="81.8813" x2="114.768" y2="103.708" gradientUnits="userSpaceOnUse">
<stop stop-color="#E3EAF7"/>
<stop offset="1" stop-color="#ADB6C8"/>
</linearGradient>
<linearGradient id="paint1_linear_111_2012" x1="56.7368" y1="60.3278" x2="27.7649" y2="88.5728" gradientUnits="userSpaceOnUse">
<stop stop-color="#E3EAF7"/>
<stop offset="1" stop-color="#ADB6C8"/>
</linearGradient>
<linearGradient id="paint2_linear_111_2012" x1="47.4962" y1="61.8028" x2="21.8616" y2="78.5412" gradientUnits="userSpaceOnUse">
<stop stop-color="#E3EAF7"/>
<stop offset="1" stop-color="#ADB6C8"/>
</linearGradient>
</defs>
</svg>
