<svg width="131" height="131" viewBox="0 0 131 131" fill="none" xmlns="http://www.w3.org/2000/svg">
<path d="M118.545 57.0429L119.792 56.488C120.208 56.3493 120.208 55.7943 119.792 55.6556L118.545 55.1007C117.02 54.407 115.772 53.1585 115.079 51.6325L114.524 50.3839C114.386 49.9677 113.831 49.9677 113.693 50.3839L113.138 51.6325C112.445 53.1585 111.197 54.407 109.672 55.1007L108.425 55.6556C108.009 55.7943 108.009 56.3493 108.425 56.488L109.672 57.0429C111.197 57.7365 112.445 58.9851 113.138 60.5111L113.693 61.7597C113.831 62.1759 114.386 62.1759 114.524 61.7597L115.079 60.5111C115.633 58.9851 116.881 57.7365 118.545 57.0429Z" fill="#393F4E"/>
<path d="M109.457 77.0546L110.289 76.6385C110.566 76.4997 110.566 76.2223 110.289 76.0835L109.457 75.8061C108.348 75.3899 107.516 74.5575 107.1 73.4477L106.684 72.6153C106.546 72.3379 106.268 72.3379 106.13 72.6153L105.852 73.4477C105.298 74.5575 104.466 75.3899 103.496 75.8061L102.525 76.2223C102.387 76.2223 102.387 76.6385 102.525 76.6385L103.357 77.0546C104.466 77.4708 105.298 78.3032 105.852 79.413L106.268 80.2454C106.407 80.5229 106.684 80.5229 106.823 80.2454L107.1 79.413C107.516 78.3032 108.348 77.4708 109.457 77.0546Z" fill="#393F4E"/>
<path d="M28.7434 91.9418L29.991 91.3869C30.4069 91.2482 30.4069 90.6933 29.991 90.5545L28.7434 89.9996C27.2184 89.306 25.9708 88.0574 25.2776 86.5314L24.7231 85.2828C24.5845 84.8667 24.03 84.8667 23.8913 85.2828L23.3368 86.5314C22.6437 88.0574 21.396 89.306 19.8711 89.9996L18.6234 90.5545C18.2076 90.6933 18.2076 91.2482 18.6234 91.3869L19.8711 91.9418C21.396 92.6355 22.6437 93.884 23.3368 95.41L23.8913 96.6586C24.03 97.0748 24.5845 97.0748 24.7231 96.6586L25.2776 95.41C25.8321 93.884 27.0798 92.6355 28.7434 91.9418Z" fill="#393F4E"/>
<path d="M29.2459 29.9404L30.0776 29.5242C30.3549 29.3855 30.3549 29.108 30.0776 28.9693L29.2459 28.6918C28.1368 28.2756 27.3051 27.4433 26.8892 26.3334L26.4733 25.5011C26.3347 25.2236 26.0574 25.2236 25.9188 25.5011L25.6415 26.3334C25.087 27.4433 24.2552 28.2756 23.2848 28.6918L22.3144 29.108C22.1758 29.108 22.1758 29.5242 22.3144 29.5242L23.1462 29.9404C24.2552 30.3566 25.087 31.1889 25.6415 32.2988L26.0574 33.1311C26.196 33.4086 26.4733 33.4086 26.6119 33.1311L26.8892 32.2988C27.3051 31.1889 28.1368 30.3566 29.2459 29.9404Z" fill="#393F4E"/>
<path d="M39.9198 20.1494L40.6129 19.872C40.7516 19.7332 40.7516 19.5945 40.6129 19.4558L39.9198 19.1783C39.088 18.9009 38.5335 18.2072 38.1176 17.3748L37.8403 16.6812C37.7017 16.5425 37.5631 16.5425 37.4245 16.6812L37.1472 17.3748C36.8699 18.2072 36.1768 18.7621 35.345 19.1783L34.9291 19.4558C34.6519 19.5945 34.6519 19.872 34.9291 19.872L35.6223 20.1494C36.4541 20.4269 37.0086 21.1205 37.4245 21.9529L37.7017 22.6465C37.8403 22.7853 37.979 22.7853 38.1176 22.6465L38.3949 21.9529C38.5335 21.1205 39.2266 20.4269 39.9198 20.1494Z" fill="#393F4E"/>
<path d="M33.1455 121.225C32.8396 121.225 32.5337 121.123 32.2278 120.918C31.412 120.408 31.1061 119.286 31.616 118.469C32.1258 117.653 33.1455 117.347 33.9612 117.755C33.9612 117.755 34.0632 117.755 34.0632 117.857C34.8789 118.367 35.1848 119.49 34.675 120.306C34.2671 120.918 33.7573 121.225 33.1455 121.225Z" fill="#393F4E"/>
<path d="M48.1349 127.653C47.9309 127.653 47.829 127.653 47.625 127.551C45.6877 126.939 43.6483 126.327 41.7109 125.612C40.7932 125.204 40.3853 124.184 40.6913 123.265C41.0991 122.347 42.1188 121.939 43.0365 122.245C44.8719 122.959 46.7073 123.572 48.6447 124.082C49.5624 124.388 50.1742 125.306 49.8683 126.327C49.5624 127.143 48.8486 127.653 48.1349 127.653Z" fill="#393F4E"/>
<path d="M65.3672 130C63.6338 130 61.7984 129.898 59.9629 129.796C58.9433 129.694 58.2295 128.877 58.3315 127.857C58.4334 126.837 59.2492 126.122 60.2688 126.224C61.9003 126.326 63.6338 126.428 65.3672 126.428C99.2204 126.428 126.752 98.8774 126.752 64.9998C126.752 63.9794 127.567 63.1631 128.587 63.1631C129.607 63.1631 130.422 63.9794 130.422 64.9998C130.321 100.816 101.158 130 65.3672 130Z" fill="#393F4E"/>
<path d="M108.092 20.2039C107.684 20.2039 107.174 19.9998 106.868 19.6937C106.154 18.9794 106.154 17.857 106.766 17.1427C107.48 16.4284 108.5 16.3264 109.213 17.0406L109.315 17.1427C110.029 17.857 110.029 18.9794 109.315 19.6937C109.009 20.1019 108.602 20.2039 108.092 20.2039Z" fill="#393F4E"/>
<path d="M100.138 13.9797C99.8322 13.9797 99.4244 13.8776 99.1185 13.6736C96.4673 11.9389 93.7142 10.4083 90.9611 9.08173C90.0434 8.67356 89.6355 7.65315 90.0434 6.73479C90.4512 5.81642 91.4709 5.40826 92.3886 5.81642C95.3457 7.14295 98.3027 8.7756 101.056 10.6123C101.872 11.1225 102.076 12.245 101.566 13.0613C101.26 13.7756 100.75 13.9797 100.138 13.9797Z" fill="#393F4E"/>
<path d="M2.24948 66.8368C1.2298 66.8368 0.414062 66.0204 0.414062 65C0.414062 29.1837 29.5768 0 65.3673 0C70.7716 0 76.1759 0.714286 81.2743 1.93878C82.192 2.14286 82.8038 3.16327 82.5998 4.08163C82.3959 5 81.3762 5.61225 80.4585 5.40817C75.5641 4.18367 70.4657 3.57143 65.3673 3.57143C31.5141 3.57143 3.98292 31.1225 3.98292 65C3.98292 66.0204 3.16718 66.8368 2.24948 66.8368Z" fill="#393F4E"/>
<path d="M74.4866 38.6282H54.1353V34.6085C54.1353 30.8903 57.2483 27.8755 60.9639 27.8755H67.658C71.474 27.8755 74.4866 30.9908 74.4866 34.6085V38.6282Z" fill="#5C6479"/>
<path d="M88.5632 50.5867L83.3413 44.9591L88.3623 40.3365C89.0653 39.633 90.1699 39.7335 90.7724 40.437L93.6846 43.5522C94.3876 44.2557 94.2872 45.3611 93.5842 45.9641L88.5632 50.5867Z" fill="#5C6479"/>
<path d="M39.2569 50.5867L44.4788 44.9591L39.4577 40.3365C38.7548 39.633 37.6502 39.7335 37.0476 40.437L34.1354 43.5522C33.4325 44.2557 33.5329 45.3611 34.2359 45.9641L39.2569 50.5867Z" fill="#5C6479"/>
<g filter="url(#filter0_d_111_1424)">
<path d="M63.9598 97.718C81.2081 97.718 95.1906 83.8605 95.1906 66.7662C95.1906 49.672 81.2081 35.8145 63.9598 35.8145C46.7115 35.8145 32.729 49.672 32.729 66.7662C32.729 83.8605 46.7115 97.718 63.9598 97.718Z" fill="#8E96AB"/>
</g>
<path d="M63.9598 93.0953C78.6014 93.0953 90.4708 81.3073 90.4708 66.7661C90.4708 52.225 78.6014 40.437 63.9598 40.437C49.3181 40.437 37.4487 52.225 37.4487 66.7661C37.4487 81.3073 49.3181 93.0953 63.9598 93.0953Z" fill="#5C6479" stroke="#8E96AB" stroke-width="2" stroke-miterlimit="10"/>
<path opacity="0.2" d="M89.4716 66.8171C89.4716 67.3015 89.4716 67.689 89.3749 68.1734C88.6984 54.7067 77.5845 44.1465 63.9579 44.1465C50.3313 44.1465 39.2174 54.8036 38.4443 68.0765C38.4443 67.5921 38.3477 67.2046 38.3477 66.7202C38.3477 52.6722 49.8481 41.3369 63.8613 41.3369C78.0678 41.4338 89.4716 52.7691 89.4716 66.8171Z" fill="#2A2E37"/>
<path opacity="0.7" d="M85.2491 66.7664C85.2491 67.5704 85.1487 68.2738 85.1487 68.9773C85.0483 70.5851 83.2407 71.4896 81.7344 70.7861L70.5877 64.9575C69.7843 64.5556 69.2822 63.7516 69.2822 62.8472V49.6826C69.2822 47.9743 70.9894 46.7683 72.5961 47.4718C80.0272 50.7881 85.2491 58.124 85.2491 66.7664Z" fill="#8E96AB"/>
<path d="M65.4664 65.6609H62.5542L62.6546 52.5968C62.6546 51.7929 63.3576 51.1899 64.0605 51.1899C64.8639 51.1899 65.4664 51.8934 65.4664 52.5968V65.6609Z" fill="#8E96AB"/>
<path d="M62.0518 67.4699C62.0518 66.465 62.8551 65.5605 63.9597 65.5605C65.0644 65.5605 65.7673 66.3645 65.7673 67.3694C65.7673 68.3743 64.964 69.2788 63.8593 69.2788C62.8551 69.2788 62.0518 68.5753 62.0518 67.4699Z" fill="#8E96AB"/>
<path d="M82.6382 77.1171C82.5378 77.2176 82.2365 77.2176 82.1361 77.2176L63.6587 67.9723C63.4579 67.8718 63.3574 67.5703 63.4579 67.3693C63.5583 67.1683 63.8595 67.0678 64.0604 67.1683L82.5378 76.4137C82.7386 76.5142 82.839 76.8156 82.7386 77.0166C82.839 77.1171 82.7386 77.1171 82.6382 77.1171Z" fill="#8E96AB"/>
<path d="M60.6465 67.4695C60.6465 65.7612 62.0524 64.3543 63.8599 64.2538C65.6675 64.1533 66.973 65.6607 66.973 67.3691C66.973 69.0774 65.5671 70.4843 63.7595 70.5848C62.0524 70.7858 60.6465 69.2784 60.6465 67.4695Z" fill="#5C6479" stroke="#8E96AB" stroke-width="2" stroke-miterlimit="10"/>
<path d="M64.7633 85.1562H63.0561C62.7549 85.1562 62.4536 85.3572 62.4536 85.7592V89.9799C62.4536 90.2814 62.6545 90.5829 63.0561 90.5829H64.7633C65.0645 90.5829 65.3658 90.3819 65.3658 89.9799V85.7592C65.2654 85.4577 65.0645 85.1562 64.7633 85.1562Z" fill="#8E96AB"/>
<path d="M64.7633 42.4468H63.0561C62.7549 42.4468 62.4536 42.6478 62.4536 43.0497V47.2704C62.4536 47.5719 62.6545 47.8734 63.0561 47.8734H64.7633C65.0645 47.8734 65.3658 47.6724 65.3658 47.2704V43.0497C65.2654 42.7483 65.0645 42.4468 64.7633 42.4468Z" fill="#8E96AB"/>
<path d="M44.9803 64.8569H40.7627C40.4614 64.8569 40.1602 65.0579 40.1602 65.4599V67.1683C40.1602 67.4697 40.361 67.7712 40.7627 67.7712H44.9803C45.2816 67.7712 45.5829 67.5702 45.5829 67.1683V65.4599C45.5829 65.0579 45.2816 64.8569 44.9803 64.8569Z" fill="#8E96AB"/>
<path d="M72.5066 88.8855C73.2315 88.6072 73.5935 87.7936 73.3151 87.0682C73.0366 86.3429 72.2232 85.9805 71.4982 86.2588C70.7732 86.5371 70.4113 87.3507 70.6897 88.0761C70.9682 88.8014 71.7816 89.1638 72.5066 88.8855Z" fill="#8E96AB"/>
<path d="M81.1456 83.182C81.685 82.6231 81.6695 81.7324 81.111 81.1926C80.5525 80.6528 79.6625 80.6683 79.1231 81.2273C78.5837 81.7862 78.5992 82.6768 79.1577 83.2166C79.7162 83.7564 80.6062 83.741 81.1456 83.182Z" fill="#8E96AB"/>
<path d="M43.1143 74.5421C43.849 74.2907 44.2406 73.491 43.989 72.7559C43.7374 72.0208 42.9379 71.6288 42.2033 71.8802C41.4686 72.1316 41.077 72.9313 41.3286 73.6664C41.5801 74.4015 42.3796 74.7936 43.1143 74.5421Z" fill="#8E96AB"/>
<path d="M48.8479 82.7532C49.4075 82.2145 49.4247 81.3238 48.8864 80.7638C48.3481 80.2039 47.4581 80.1866 46.8985 80.7253C46.3389 81.264 46.3216 82.1546 46.86 82.7146C47.3983 83.2746 48.2883 83.2919 48.8479 82.7532Z" fill="#8E96AB"/>
<path d="M57.2681 87.459C57.5479 86.7342 57.1874 85.92 56.463 85.6403C55.7386 85.3607 54.9245 85.7216 54.6448 86.4464C54.365 87.1712 54.7254 87.9855 55.4499 88.2651C56.1743 88.5447 56.9883 88.1838 57.2681 87.459Z" fill="#8E96AB"/>
<path d="M57.5699 46.8907C58.307 46.6462 58.7062 45.8502 58.4616 45.1127C58.217 44.3753 57.4212 43.9756 56.6842 44.22C55.9471 44.4644 55.5479 45.2604 55.7925 45.9979C56.0371 46.7354 56.8329 47.1351 57.5699 46.8907Z" fill="#8E96AB"/>
<path d="M49.5505 51.6117C50.1152 51.0784 50.1409 50.188 49.6079 49.623C49.0749 49.0579 48.1852 49.0322 47.6205 49.5656C47.0559 50.0989 47.0302 50.9893 47.5632 51.5543C48.0961 52.1194 48.9859 52.1451 49.5505 51.6117Z" fill="#8E96AB"/>
<path d="M44.2589 59.2099C44.525 58.5393 44.1975 57.7799 43.5274 57.5137C42.8573 57.2474 42.0984 57.5752 41.8323 58.2458C41.5663 58.9164 41.8938 59.6758 42.5639 59.942C43.234 60.2082 43.9929 59.8805 44.2589 59.2099Z" fill="#8E96AB"/>
<defs>
<filter id="filter0_d_111_1424" x="10.729" y="24.8145" width="106.461" height="105.904" filterUnits="userSpaceOnUse" color-interpolation-filters="sRGB">
<feFlood flood-opacity="0" result="BackgroundImageFix"/>
<feColorMatrix in="SourceAlpha" type="matrix" values="0 0 0 0 0 0 0 0 0 0 0 0 0 0 0 0 0 0 127 0" result="hardAlpha"/>
<feOffset dy="11"/>
<feGaussianBlur stdDeviation="11"/>
<feColorMatrix type="matrix" values="0 0 0 0 0 0 0 0 0 0 0 0 0 0 0 0 0 0 0.27 0"/>
<feBlend mode="normal" in2="BackgroundImageFix" result="effect1_dropShadow_111_1424"/>
<feBlend mode="normal" in="SourceGraphic" in2="effect1_dropShadow_111_1424" result="shape"/>
</filter>
</defs>
</svg>
