<svg width="166" height="151" viewBox="0 0 166 151" fill="none" xmlns="http://www.w3.org/2000/svg">
<path d="M82.0108 135C117.608 135 146.464 106.122 146.464 70.5C146.464 34.8776 117.608 6 82.0108 6C46.414 6 17.5571 34.8776 17.5571 70.5C17.5571 106.122 46.414 135 82.0108 135Z" fill="#2A2E37"/>
<g filter="url(#filter0_d_111_2564)">
<path d="M66.7691 15.8083V74.4388C66.7691 77.0757 64.5991 79.2472 61.9642 79.2472H27.3586C24.7236 79.2472 22.5537 77.0757 22.5537 74.4388V15.8083C22.5537 13.1715 24.7236 11 27.3586 11H61.9642C64.5991 11 66.7691 13.1715 66.7691 15.8083Z" fill="#5C6479"/>
</g>
<path d="M66.7691 15.8083V19.2982H22.5537V15.8083C22.5537 13.1715 24.7236 11 27.3586 11H61.9642C64.5991 11 66.7691 13.1715 66.7691 15.8083Z" fill="#393F4E"/>
<path d="M27.5135 16.6614C28.3267 16.6614 28.9859 16.0017 28.9859 15.1879C28.9859 14.3741 28.3267 13.7144 27.5135 13.7144C26.7003 13.7144 26.041 14.3741 26.041 15.1879C26.041 16.0017 26.7003 16.6614 27.5135 16.6614Z" fill="#C6CDDF"/>
<path opacity="0.6" d="M32.1634 16.6614C32.9766 16.6614 33.6358 16.0017 33.6358 15.1879C33.6358 14.3741 32.9766 13.7144 32.1634 13.7144C31.3502 13.7144 30.6909 14.3741 30.6909 15.1879C30.6909 16.0017 31.3502 16.6614 32.1634 16.6614Z" fill="#C6CDDF"/>
<path opacity="0.4" d="M36.7356 16.6614C37.5489 16.6614 38.2081 16.0017 38.2081 15.1879C38.2081 14.3741 37.5489 13.7144 36.7356 13.7144C35.9224 13.7144 35.2632 14.3741 35.2632 15.1879C35.2632 16.0017 35.9224 16.6614 36.7356 16.6614Z" fill="#C6CDDF"/>
<path d="M31 65.5186H58.872" stroke="#8E96AB" stroke-width="2" stroke-miterlimit="10"/>
<path d="M31 59.4307H58.872" stroke="#8E96AB" stroke-width="2" stroke-miterlimit="10"/>
<path d="M37 53H52.872" stroke="#8E96AB" stroke-width="3" stroke-miterlimit="10"/>
<path d="M39 71.2163H50.2091" stroke="#8E96AB" stroke-width="2" stroke-miterlimit="10"/>
<circle cx="45.5" cy="35.5" r="10.5" fill="#474E61"/>
<rect x="79.3564" y="46.4453" width="62.2208" height="79.6966" rx="3" fill="#5C6479" stroke="#8E96AB" stroke-width="2" stroke-miterlimit="10"/>
<rect x="88.9302" y="108.436" width="43.0731" height="8.10314" rx="1.5" fill="#C6CDDF" stroke="#C6CDDF"/>
<path d="M88.4302 94.9312H131.855" stroke="#8E96AB" stroke-width="2" stroke-miterlimit="10"/>
<path d="M88.4302 88.3003H131.855" stroke="#8E96AB" stroke-width="2" stroke-miterlimit="10"/>
<path d="M88.4302 101.136H113.707" stroke="#8E96AB" stroke-width="2" stroke-miterlimit="10"/>
<path d="M80.6528 51.7456C80.6528 49.5365 82.4437 47.7456 84.6528 47.7456H136.281C138.49 47.7456 140.281 49.5365 140.281 51.7456V79.5504H80.6528V51.7456Z" fill="#474E61"/>
<path d="M114.15 59.6128C114.88 59.6128 115.472 58.994 115.472 58.2307C115.472 57.4674 114.88 56.8486 114.15 56.8486C113.42 56.8486 112.829 57.4674 112.829 58.2307C112.829 58.994 113.42 59.6128 114.15 59.6128Z" fill="#8E96AB"/>
<path d="M114.228 68.5863H104.146C103.495 68.5863 103.116 67.7969 103.495 67.2894L108.537 59.9589C108.862 59.5078 109.512 59.5078 109.838 59.9589L114.879 67.2894C115.258 67.8533 114.879 68.5863 114.228 68.5863Z" fill="#8E96AB"/>
<path opacity="0.7" d="M117.739 68.4366H112.777C112.023 68.4366 111.646 67.6169 112.023 67.0495L114.473 63.5819C114.849 63.0775 115.54 63.0775 115.917 63.5819L118.367 67.0495C118.932 67.6169 118.493 68.4366 117.739 68.4366Z" fill="#8E96AB"/>
<rect x="137.079" y="41" width="9.80198" height="9.80198" rx="2" fill="#C6CDDF" stroke="#8E96AB" stroke-width="2" stroke-miterlimit="10"/>
<rect x="137.079" y="121.594" width="9.80198" height="9.80198" rx="2" fill="#C6CDDF" stroke="#8E96AB" stroke-width="2" stroke-miterlimit="10"/>
<rect x="75" y="41" width="9.80198" height="9.80198" rx="2" fill="#C6CDDF" stroke="#8E96AB" stroke-width="2" stroke-miterlimit="10"/>
<rect x="75" y="121.594" width="9.80198" height="9.80198" rx="2" fill="#C6CDDF" stroke="#8E96AB" stroke-width="2" stroke-miterlimit="10"/>
<path d="M165.829 137.124C165.572 137.505 165.443 137.759 164.929 138.014L159.013 140.429C158.113 140.81 157.213 141.319 156.569 141.954C155.926 142.59 155.412 143.226 155.283 144.115L152.84 149.963C152.583 150.853 151.554 151.234 150.911 150.853C150.654 150.599 150.268 150.472 150.268 150.217L141.097 127.578C140.84 127.197 140.84 126.689 141.097 126.434C141.354 126.053 141.997 125.799 142.64 126.053L165.572 135.09C165.829 135.598 166.086 136.488 165.829 137.124Z" fill="url(#paint0_linear_111_2564)"/>
<rect x="25" y="93" width="39" height="24.0882" rx="12.0441" fill="#5C6479"/>
<circle cx="38.1912" cy="105.044" r="7.45588" fill="#393F4E"/>
<g filter="url(#filter1_d_111_2564)">
<rect x="82" y="13.625" width="61" height="18.375" rx="5" fill="#5C6479"/>
</g>
<path d="M96.3916 14.0713L96.3916 31.2614" stroke="#8E96AB" stroke-width="2" stroke-miterlimit="10"/>
<path d="M129.392 14.0713L129.392 31.2614" stroke="#8E96AB" stroke-width="2" stroke-miterlimit="10"/>
<circle cx="105.188" cy="22.8125" r="2.1875" fill="#C6CDDF"/>
<circle cx="112.938" cy="22.8125" r="2.1875" fill="#8E96AB"/>
<circle cx="120.688" cy="22.8125" r="2.1875" fill="#8E96AB"/>
<path d="M90.3125 19.75L87.25 22.8125L90.3125 25.875" stroke="#8E96AB" stroke-width="2" stroke-miterlimit="10" stroke-linecap="round" stroke-linejoin="round"/>
<path d="M135.125 19.75L138.188 22.8125L135.125 25.875" stroke="#8E96AB" stroke-width="2" stroke-miterlimit="10" stroke-linecap="round" stroke-linejoin="round"/>
<defs>
<filter id="filter0_d_111_2564" x="0.553711" y="0" width="88.2153" height="112.247" filterUnits="userSpaceOnUse" color-interpolation-filters="sRGB">
<feFlood flood-opacity="0" result="BackgroundImageFix"/>
<feColorMatrix in="SourceAlpha" type="matrix" values="0 0 0 0 0 0 0 0 0 0 0 0 0 0 0 0 0 0 127 0" result="hardAlpha"/>
<feOffset dy="11"/>
<feGaussianBlur stdDeviation="11"/>
<feColorMatrix type="matrix" values="0 0 0 0 0 0 0 0 0 0 0 0 0 0 0 0 0 0 0.27 0"/>
<feBlend mode="normal" in2="BackgroundImageFix" result="effect1_dropShadow_111_2564"/>
<feBlend mode="normal" in="SourceGraphic" in2="effect1_dropShadow_111_2564" result="shape"/>
</filter>
<filter id="filter1_d_111_2564" x="60" y="2.625" width="105" height="62.375" filterUnits="userSpaceOnUse" color-interpolation-filters="sRGB">
<feFlood flood-opacity="0" result="BackgroundImageFix"/>
<feColorMatrix in="SourceAlpha" type="matrix" values="0 0 0 0 0 0 0 0 0 0 0 0 0 0 0 0 0 0 127 0" result="hardAlpha"/>
<feOffset dy="11"/>
<feGaussianBlur stdDeviation="11"/>
<feColorMatrix type="matrix" values="0 0 0 0 0 0 0 0 0 0 0 0 0 0 0 0 0 0 0.27 0"/>
<feBlend mode="normal" in2="BackgroundImageFix" result="effect1_dropShadow_111_2564"/>
<feBlend mode="normal" in="SourceGraphic" in2="effect1_dropShadow_111_2564" result="shape"/>
</filter>
<linearGradient id="paint0_linear_111_2564" x1="146.646" y1="132.526" x2="157.426" y2="150.763" gradientUnits="userSpaceOnUse">
<stop stop-color="#E3EAF7"/>
<stop offset="1" stop-color="#ADB6C8"/>
</linearGradient>
</defs>
</svg>
