<svg width="159" height="140" viewBox="0 0 159 140" fill="none" xmlns="http://www.w3.org/2000/svg">
<path d="M78.8677 125C113.361 125 141.323 97.0178 141.323 62.5C141.323 27.9822 113.361 0 78.8677 0C44.3747 0 16.4126 27.9822 16.4126 62.5C16.4126 97.0178 44.3747 125 78.8677 125Z" fill="#2A2E37"/>
<g filter="url(#filter0_d_111_486)">
<path d="M136.162 25.6472V101.653C136.162 104.332 133.957 106.539 131.279 106.539H27.1052C24.4274 106.539 22.2222 104.332 22.2222 101.653V25.6472C22.2222 22.9676 24.4274 20.7607 27.1052 20.7607H131.279C133.957 20.7607 136.162 22.9676 136.162 25.6472Z" fill="#5C6479"/>
</g>
<path d="M136.162 25.6472V29.1939H22.2222V25.6472C22.2222 22.9676 24.4274 20.7607 27.1052 20.7607H131.279C133.957 20.7607 136.162 22.9676 136.162 25.6472Z" fill="#393F4E"/>
<path d="M27.0164 26.5145C27.8429 26.5145 28.5128 25.844 28.5128 25.017C28.5128 24.19 27.8429 23.5195 27.0164 23.5195C26.19 23.5195 25.52 24.19 25.52 25.017C25.52 25.844 26.19 26.5145 27.0164 26.5145Z" fill="#C6CDDF"/>
<path opacity="0.6" d="M31.6629 26.5145C32.4893 26.5145 33.1593 25.844 33.1593 25.017C33.1593 24.19 32.4893 23.5195 31.6629 23.5195C30.8365 23.5195 30.1665 24.19 30.1665 25.017C30.1665 25.844 30.8365 26.5145 31.6629 26.5145Z" fill="#C6CDDF"/>
<path opacity="0.4" d="M36.3885 26.5145C37.2149 26.5145 37.8849 25.844 37.8849 25.017C37.8849 24.19 37.2149 23.5195 36.3885 23.5195C35.5621 23.5195 34.8921 24.19 34.8921 25.017C34.8921 25.844 35.5621 26.5145 36.3885 26.5145Z" fill="#C6CDDF"/>
<rect x="32.5039" y="36.8218" width="20.3488" height="4.84496" rx="1" fill="#8E96AB"/>
<rect x="99.3643" y="36.8218" width="11.6279" height="2.90698" rx="1" fill="#8E96AB"/>
<rect x="114.868" y="36.8218" width="11.6279" height="2.90698" rx="1" fill="#8E96AB"/>
<rect x="32.5039" y="48.4497" width="93.9922" height="25.1938" rx="2" fill="#474E61"/>
<path d="M81.822 58.1836C82.3927 58.1836 82.8554 57.6948 82.8554 57.0918C82.8554 56.4888 82.3927 56 81.822 56C81.2512 56 80.7886 56.4888 80.7886 57.0918C80.7886 57.6948 81.2512 58.1836 81.822 58.1836Z" fill="#C6CDDF"/>
<path d="M81.8824 65.2721H73.9983C73.4897 65.2721 73.193 64.6485 73.4897 64.2475L77.4317 58.4567C77.686 58.1004 78.1947 58.1004 78.449 58.4567L82.3911 64.2475C82.6878 64.693 82.3911 65.2721 81.8824 65.2721Z" fill="#C6CDDF"/>
<path opacity="0.7" d="M84.6272 65.1539H80.747C80.1576 65.1539 79.8629 64.5064 80.1576 64.0581L82.0732 61.3189C82.3679 60.9204 82.9081 60.9204 83.2029 61.3189L85.1184 64.0581C85.5605 64.5064 85.2166 65.1539 84.6272 65.1539Z" fill="#C6CDDF"/>
<rect x="32.5039" y="78.4883" width="29.0698" height="18.4109" rx="2" fill="#474E61"/>
<rect x="65.4497" y="78.4883" width="28.1008" height="18.4109" rx="2" fill="#474E61"/>
<rect x="97.4263" y="78.4883" width="29.0698" height="18.4109" rx="2" fill="#474E61"/>
<rect x="44.1318" y="22.2866" width="70.7364" height="4.84496" rx="2" fill="#5C6479"/>
<path d="M138.34 102.17C138.149 102.457 138.053 102.648 137.67 102.839L133.264 104.655C132.594 104.942 131.923 105.325 131.444 105.803C130.965 106.281 130.582 106.759 130.487 107.428L128.667 111.826C128.475 112.495 127.709 112.782 127.23 112.495C127.039 112.304 126.751 112.208 126.751 112.017L118.227 93.2784C118.036 92.9916 118.036 92.6092 118.227 92.418C118.419 92.1312 118.898 91.94 119.376 92.1312L138.149 100.64C138.34 101.022 138.532 101.692 138.34 102.17Z" fill="url(#paint0_linear_111_486)"/>
<path d="M141.597 113.642C141.405 113.642 141.31 113.642 141.118 113.451L134.988 107.237C134.701 106.95 134.701 106.376 134.988 106.281C135.276 105.994 135.85 105.994 135.946 106.281L142.076 112.399C142.363 112.686 142.363 113.26 142.076 113.355C142.076 113.642 141.789 113.642 141.597 113.642Z" fill="#C6CDDF"/>
<path d="M135.371 113.642C135.18 113.642 135.084 113.642 134.892 113.451L132.115 110.678C131.828 110.392 131.828 109.818 132.115 109.722C132.402 109.436 132.977 109.436 133.073 109.722L135.85 112.495C136.138 112.782 136.138 113.355 135.85 113.451C135.85 113.642 135.754 113.642 135.371 113.642Z" fill="#C6CDDF"/>
<defs>
<filter id="filter0_d_111_486" x="0.222168" y="9.76074" width="157.94" height="129.778" filterUnits="userSpaceOnUse" color-interpolation-filters="sRGB">
<feFlood flood-opacity="0" result="BackgroundImageFix"/>
<feColorMatrix in="SourceAlpha" type="matrix" values="0 0 0 0 0 0 0 0 0 0 0 0 0 0 0 0 0 0 127 0" result="hardAlpha"/>
<feOffset dy="11"/>
<feGaussianBlur stdDeviation="11"/>
<feColorMatrix type="matrix" values="0 0 0 0 0 0 0 0 0 0 0 0 0 0 0 0 0 0 0.27 0"/>
<feBlend mode="normal" in2="BackgroundImageFix" result="effect1_dropShadow_111_486"/>
<feBlend mode="normal" in="SourceGraphic" in2="effect1_dropShadow_111_486" result="shape"/>
</filter>
<linearGradient id="paint0_linear_111_486" x1="122.748" y1="97.449" x2="131.634" y2="112.335" gradientUnits="userSpaceOnUse">
<stop stop-color="#E3EAF7"/>
<stop offset="1" stop-color="#ADB6C8"/>
</linearGradient>
</defs>
</svg>
