<svg width="47" height="47" viewBox="0 0 47 47" fill="none" xmlns="http://www.w3.org/2000/svg">
<g clip-path="url(#clip0_103_99)">
<g filter="url(#filter0_d_103_99)">
<circle cx="22.8221" cy="22.7465" r="21.167" fill="url(#paint0_linear_103_99)"/>
<circle cx="22.8221" cy="22.7465" r="20.0116" stroke="white" stroke-width="2.31081"/>
</g>
<circle cx="9.97406" cy="26.5362" r="3.6973" fill="#FAA0BF"/>
<circle cx="36.4097" cy="26.5362" r="3.6973" fill="#FAA0BF"/>
<path d="M30.3414 14.3447C34.1246 14.1221 35.61 17.8571 35.61 17.8571C35.7024 18.3192 35.1123 18.0867 34.963 18.0419C31.4506 16.563 30.7053 16.2619 26.2743 17.8571C26.0102 17.9319 25.35 18.1344 25.5349 17.6722C25.5349 17.6722 27.1987 14.5295 30.3414 14.3447Z" fill="#312107"/>
<path d="M30.3414 14.3447C34.1246 14.1221 35.61 17.8571 35.61 17.8571C35.7024 18.3192 35.1123 18.0867 34.963 18.0419C31.4506 16.563 30.7053 16.2619 26.2743 17.8571C26.0102 17.9319 25.35 18.1344 25.5349 17.6722C25.5349 17.6722 27.1987 14.5295 30.3414 14.3447Z" fill="#312107"/>
<path d="M22.3601 35.948C28.7199 36.3265 31.2171 29.9751 31.2171 29.9751C31.3725 29.1892 30.3803 29.5847 30.1294 29.6608C24.2247 32.1757 22.9719 32.6877 15.5232 29.9752C15.0791 29.848 13.9693 29.5037 14.2801 30.2895C14.2801 30.2895 17.077 35.6337 22.3601 35.948Z" fill="#312107"/>
<path d="M22.3601 35.948C28.7199 36.3265 31.2171 29.9751 31.2171 29.9751C31.3725 29.1892 30.3803 29.5847 30.1294 29.6608C24.2247 32.1757 22.9719 32.6877 15.5232 29.9752C15.0791 29.848 13.9693 29.5037 14.2801 30.2895C14.2801 30.2895 17.077 35.6337 22.3601 35.948Z" fill="#312107"/>
<path d="M14.9976 14.3447C18.7808 14.1221 20.2662 17.8571 20.2662 17.8571C20.3587 18.3192 19.7685 18.0867 19.6192 18.0419C16.1068 16.563 15.3615 16.2619 10.9306 17.8571C10.6664 17.9319 10.0062 18.1344 10.1911 17.6722C10.1911 17.6722 11.8549 14.5295 14.9976 14.3447Z" fill="#312107"/>
<path d="M14.9976 14.3447C18.7808 14.1221 20.2662 17.8571 20.2662 17.8571C20.3587 18.3192 19.7685 18.0867 19.6192 18.0419C16.1068 16.563 15.3615 16.2619 10.9306 17.8571C10.6664 17.9319 10.0062 18.1344 10.1911 17.6722C10.1911 17.6722 11.8549 14.5295 14.9976 14.3447Z" fill="#312107"/>
<path d="M10.5286 15.8329V15.8292L10.538 15.8193V15.8192H10.529V15.8141H10.5471V15.8182L10.5386 15.8276V15.8277H10.5474V15.8329H10.5286Z" fill="#3655F5"/>
<path d="M10.3438 16.0177V16.014L10.3531 16.0041V16.004H10.3441V15.9989H10.3622V16.003L10.3537 16.0125V16.0126H10.3625V16.0177H10.3438Z" fill="#3655F5"/>
<path d="M10.1589 16.2026V16.1989L10.1683 16.189V16.1889H10.1592V16.1838H10.1774V16.1879L10.1688 16.1973V16.1974H10.1777V16.2026H10.1589Z" fill="#3655F5"/>
</g>
<defs>
<filter id="filter0_d_103_99" x="0.655121" y="0.579468" width="46.334" height="46.334" filterUnits="userSpaceOnUse" color-interpolation-filters="sRGB">
<feFlood flood-opacity="0" result="BackgroundImageFix"/>
<feColorMatrix in="SourceAlpha" type="matrix" values="0 0 0 0 0 0 0 0 0 0 0 0 0 0 0 0 0 0 127 0" result="hardAlpha"/>
<feOffset dx="1" dy="1"/>
<feGaussianBlur stdDeviation="1"/>
<feComposite in2="hardAlpha" operator="out"/>
<feColorMatrix type="matrix" values="0 0 0 0 0 0 0 0 0 0 0 0 0 0 0 0 0 0 0.25 0"/>
<feBlend mode="normal" in2="BackgroundImageFix" result="effect1_dropShadow_103_99"/>
<feBlend mode="normal" in="SourceGraphic" in2="effect1_dropShadow_103_99" result="shape"/>
</filter>
<linearGradient id="paint0_linear_103_99" x1="22.8221" y1="1.57947" x2="22.8221" y2="43.9135" gradientUnits="userSpaceOnUse">
<stop stop-color="#FCF050"/>
<stop offset="1" stop-color="#F1BE3A"/>
</linearGradient>
<clipPath id="clip0_103_99">
<rect width="47" height="47" fill="white"/>
</clipPath>
</defs>
</svg>
