<svg width="47" height="48" viewBox="0 0 47 48" fill="none" xmlns="http://www.w3.org/2000/svg">
<g clip-path="url(#clip0_119_1435)">
<g filter="url(#filter0_d_119_1435)">
<mask id="path-1-outside-1_119_1435" maskUnits="userSpaceOnUse" x="0.0179443" y="-0.160034" width="45" height="46" fill="black">
<rect fill="white" x="0.0179443" y="-0.160034" width="45" height="46"/>
<path fill-rule="evenodd" clip-rule="evenodd" d="M8.01325 3.36158C8.01468 3.33568 8.01541 3.30959 8.01541 3.28335C8.01541 2.48619 7.34412 1.83997 6.51605 1.83997C5.68798 1.83997 5.01669 2.48619 5.01669 3.28335C5.01669 3.93924 5.47115 4.49296 6.09346 4.6686C6.08913 4.75369 6.0925 4.84104 6.10432 4.93014L7.85049 18.0978C6.51994 20.5147 5.76633 23.2712 5.76633 26.197C5.76633 35.7629 13.8218 43.5176 23.7586 43.5176C31.1227 43.5176 37.4535 39.2587 40.2381 33.1599C41.14 32.4893 41.91 31.5101 42.4329 30.1258C43.2403 27.9885 42.8577 26.2039 41.7159 25.1075C41.573 22.8908 40.9969 20.787 40.0683 18.8736C40.6156 18.6586 41.0013 18.141 41.0013 17.5368C41.0013 16.7396 40.33 16.0934 39.502 16.0934C39.1594 16.0934 38.8436 16.204 38.5912 16.3901C35.3471 11.8519 29.9138 8.87646 23.7586 8.87646C22.9087 8.87646 22.0724 8.9332 21.2539 9.04296L8.20326 3.42954C8.14021 3.40242 8.07677 3.37984 8.01325 3.36158ZM24.5084 4.54635C24.5084 5.3435 23.8371 5.98973 23.009 5.98973C22.1809 5.98973 21.5097 5.3435 21.5097 4.54635C21.5097 3.74919 22.1809 3.10297 23.009 3.10297C23.8371 3.10297 24.5084 3.74919 24.5084 4.54635ZM37.2529 8.87649C37.2529 9.67364 36.5816 10.3199 35.7535 10.3199C34.9255 10.3199 34.2542 9.67364 34.2542 8.87649C34.2542 8.07933 34.9255 7.43311 35.7535 7.43311C36.5816 7.43311 37.2529 8.07933 37.2529 8.87649ZM5.01666 16.8151C5.01666 17.6122 4.34538 18.2584 3.5173 18.2584C2.68923 18.2584 2.01794 17.6122 2.01794 16.8151C2.01794 16.0179 2.68923 15.3717 3.5173 15.3717C4.34538 15.3717 5.01666 16.0179 5.01666 16.8151Z"/>
</mask>
<path fill-rule="evenodd" clip-rule="evenodd" d="M8.01325 3.36158C8.01468 3.33568 8.01541 3.30959 8.01541 3.28335C8.01541 2.48619 7.34412 1.83997 6.51605 1.83997C5.68798 1.83997 5.01669 2.48619 5.01669 3.28335C5.01669 3.93924 5.47115 4.49296 6.09346 4.6686C6.08913 4.75369 6.0925 4.84104 6.10432 4.93014L7.85049 18.0978C6.51994 20.5147 5.76633 23.2712 5.76633 26.197C5.76633 35.7629 13.8218 43.5176 23.7586 43.5176C31.1227 43.5176 37.4535 39.2587 40.2381 33.1599C41.14 32.4893 41.91 31.5101 42.4329 30.1258C43.2403 27.9885 42.8577 26.2039 41.7159 25.1075C41.573 22.8908 40.9969 20.787 40.0683 18.8736C40.6156 18.6586 41.0013 18.141 41.0013 17.5368C41.0013 16.7396 40.33 16.0934 39.502 16.0934C39.1594 16.0934 38.8436 16.204 38.5912 16.3901C35.3471 11.8519 29.9138 8.87646 23.7586 8.87646C22.9087 8.87646 22.0724 8.9332 21.2539 9.04296L8.20326 3.42954C8.14021 3.40242 8.07677 3.37984 8.01325 3.36158ZM24.5084 4.54635C24.5084 5.3435 23.8371 5.98973 23.009 5.98973C22.1809 5.98973 21.5097 5.3435 21.5097 4.54635C21.5097 3.74919 22.1809 3.10297 23.009 3.10297C23.8371 3.10297 24.5084 3.74919 24.5084 4.54635ZM37.2529 8.87649C37.2529 9.67364 36.5816 10.3199 35.7535 10.3199C34.9255 10.3199 34.2542 9.67364 34.2542 8.87649C34.2542 8.07933 34.9255 7.43311 35.7535 7.43311C36.5816 7.43311 37.2529 8.07933 37.2529 8.87649ZM5.01666 16.8151C5.01666 17.6122 4.34538 18.2584 3.5173 18.2584C2.68923 18.2584 2.01794 17.6122 2.01794 16.8151C2.01794 16.0179 2.68923 15.3717 3.5173 15.3717C4.34538 15.3717 5.01666 16.0179 5.01666 16.8151Z" fill="#66AAF9"/>
<path d="M8.01325 3.36158L6.01632 3.25079L5.92796 4.84325L7.46082 5.28378L8.01325 3.36158ZM6.09346 4.6686L8.09087 4.77038L8.17205 3.17714L6.63673 2.7438L6.09346 4.6686ZM6.10432 4.93014L4.12168 5.19306L4.12168 5.19306L6.10432 4.93014ZM7.85049 18.0978L9.60254 19.0624L9.91955 18.4865L9.83314 17.8349L7.85049 18.0978ZM40.2381 33.1599L39.0448 31.5548L38.6323 31.8615L38.4187 32.3292L40.2381 33.1599ZM42.4329 30.1258L44.3039 30.8325L44.3039 30.8325L42.4329 30.1258ZM41.7159 25.1075L39.7201 25.2362L39.7701 26.0117L40.3306 26.5501L41.7159 25.1075ZM40.0683 18.8736L39.3368 17.0122L37.3253 17.8026L38.269 19.7469L40.0683 18.8736ZM38.5912 16.3901L36.9641 17.5532L38.1444 19.2043L39.778 17.9999L38.5912 16.3901ZM21.2539 9.04296L20.4636 10.8802L20.9716 11.0987L21.5197 11.0252L21.2539 9.04296ZM8.20326 3.42954L8.99351 1.59229L8.99351 1.59229L8.20326 3.42954ZM6.01541 3.28335C6.01541 3.27262 6.01571 3.26176 6.01632 3.25079L10.0102 3.47238C10.0137 3.4096 10.0154 3.34657 10.0154 3.28335H6.01541ZM6.51605 3.83997C6.31196 3.83997 6.01541 3.6618 6.01541 3.28335H10.0154C10.0154 1.31058 8.37629 -0.160034 6.51605 -0.160034V3.83997ZM7.01669 3.28335C7.01669 3.6618 6.72014 3.83997 6.51605 3.83997V-0.160034C4.65582 -0.160034 3.01669 1.31058 3.01669 3.28335H7.01669ZM6.63673 2.7438C6.80895 2.79241 7.01669 2.97601 7.01669 3.28335H3.01669C3.01669 4.90247 4.13334 6.1935 5.55019 6.59341L6.63673 2.7438ZM8.08696 4.66722C8.09107 4.69818 8.09278 4.7329 8.09087 4.77038L4.09606 4.56683C4.08547 4.77448 4.09394 4.9839 4.12168 5.19306L8.08696 4.66722ZM9.83314 17.8349L8.08696 4.66722L4.12168 5.19306L5.86785 18.3608L9.83314 17.8349ZM7.76633 26.197C7.76633 23.6196 8.4292 21.1937 9.60254 19.0624L6.09845 17.1333C4.61068 19.8358 3.76633 22.9228 3.76633 26.197H7.76633ZM23.7586 41.5176C14.8539 41.5176 7.76633 34.5873 7.76633 26.197H3.76633C3.76633 36.9385 12.7896 45.5176 23.7586 45.5176V41.5176ZM38.4187 32.3292C35.9612 37.7117 30.344 41.5176 23.7586 41.5176V45.5176C31.9014 45.5176 38.9458 40.8056 42.0574 33.9905L38.4187 32.3292ZM40.562 29.419C40.1643 30.4719 39.6175 31.1291 39.0448 31.5548L41.4313 34.7649C42.6626 33.8496 43.6558 32.5483 44.3039 30.8325L40.562 29.419ZM40.3306 26.5501C40.7588 26.9612 41.1596 27.837 40.562 29.419L44.3039 30.8325C45.3209 28.14 44.9566 25.4467 43.1012 23.6649L40.3306 26.5501ZM38.269 19.7469C39.0875 21.4334 39.5942 23.2848 39.7201 25.2362L43.7118 24.9788C43.5517 22.4967 42.9064 20.1407 41.8675 18.0004L38.269 19.7469ZM39.0013 17.5368C39.0013 17.2552 39.1798 17.0739 39.3368 17.0122L40.7998 20.7351C42.0515 20.2432 43.0013 19.0268 43.0013 17.5368H39.0013ZM39.502 18.0934C39.2979 18.0934 39.0013 17.9152 39.0013 17.5368H43.0013C43.0013 15.564 41.3622 14.0934 39.502 14.0934V18.0934ZM39.778 17.9999C39.6935 18.0622 39.5949 18.0934 39.502 18.0934V14.0934C38.7239 14.0934 37.9938 14.3458 37.4043 14.7803L39.778 17.9999ZM23.7586 10.8765C29.2607 10.8765 34.0911 13.5341 36.9641 17.5532L40.2182 15.2271C36.6031 10.1697 30.567 6.87646 23.7586 6.87646V10.8765ZM21.5197 11.0252C22.2503 10.9273 22.9977 10.8765 23.7586 10.8765V6.87646C22.8196 6.87646 21.8946 6.93916 20.9881 7.0607L21.5197 11.0252ZM7.413 5.26679L20.4636 10.8802L22.0441 7.20571L8.99351 1.59229L7.413 5.26679ZM7.46082 5.28378C7.44315 5.2787 7.42716 5.27288 7.413 5.26679L8.99351 1.59229C8.85325 1.53196 8.71039 1.48098 8.56567 1.43939L7.46082 5.28378ZM23.009 7.98973C24.8692 7.98973 26.5084 6.51911 26.5084 4.54635H22.5084C22.5084 4.16789 22.8049 3.98973 23.009 3.98973V7.98973ZM19.5097 4.54635C19.5097 6.51912 21.1488 7.98973 23.009 7.98973V3.98973C23.2131 3.98973 23.5097 4.16789 23.5097 4.54635H19.5097ZM23.009 1.10297C21.1488 1.10297 19.5097 2.57358 19.5097 4.54635H23.5097C23.5097 4.9248 23.2131 5.10297 23.009 5.10297V1.10297ZM26.5084 4.54635C26.5084 2.57358 24.8692 1.10297 23.009 1.10297V5.10297C22.8049 5.10297 22.5084 4.9248 22.5084 4.54635H26.5084ZM35.7535 12.3199C37.6138 12.3199 39.2529 10.8493 39.2529 8.87649H35.2529C35.2529 8.49803 35.5495 8.31987 35.7535 8.31987V12.3199ZM32.2542 8.87649C32.2542 10.8493 33.8933 12.3199 35.7535 12.3199V8.31987C35.9576 8.31987 36.2542 8.49803 36.2542 8.87649H32.2542ZM35.7535 5.43311C33.8933 5.43311 32.2542 6.90371 32.2542 8.87649H36.2542C36.2542 9.25494 35.9576 9.43311 35.7535 9.43311V5.43311ZM39.2529 8.87649C39.2529 6.90371 37.6138 5.43311 35.7535 5.43311V9.43311C35.5495 9.43311 35.2529 9.25494 35.2529 8.87649H39.2529ZM3.5173 20.2584C5.37754 20.2584 7.01666 18.7878 7.01666 16.8151H3.01666C3.01666 16.4366 3.31321 16.2584 3.5173 16.2584V20.2584ZM0.0179443 16.8151C0.0179443 18.7878 1.65707 20.2584 3.5173 20.2584V16.2584C3.72139 16.2584 4.01794 16.4366 4.01794 16.8151H0.0179443ZM3.5173 13.3717C1.65707 13.3717 0.0179443 14.8423 0.0179443 16.8151H4.01794C4.01794 17.1935 3.72139 17.3717 3.5173 17.3717V13.3717ZM7.01666 16.8151C7.01666 14.8423 5.37754 13.3717 3.5173 13.3717V17.3717C3.31321 17.3717 3.01666 17.1935 3.01666 16.8151H7.01666Z" fill="white" mask="url(#path-1-outside-1_119_1435)"/>
<path d="M23.3838 9.94121C15.2873 10.2299 9.76464 16.3161 8.01538 19.3232L6.10434 4.91225C5.95619 3.79503 7.13509 2.9522 8.20328 3.41166L23.3838 9.94121Z" fill="url(#paint0_linear_119_1435)"/>
<path fill-rule="evenodd" clip-rule="evenodd" d="M7.76649 5.21073C7.99616 4.87909 8.46161 4.78948 8.80611 5.01057L18.9268 11.5058C19.2713 11.7269 19.3644 12.1749 19.1347 12.5066C18.905 12.8382 18.4396 12.9278 18.0951 12.7067L7.97441 6.21153C7.62992 5.99044 7.53682 5.54236 7.76649 5.21073Z" fill="#99C7FB"/>
<ellipse cx="23.7587" cy="26.1792" rx="17.9923" ry="17.3206" fill="url(#paint1_linear_119_1435)"/>
<path fill-rule="evenodd" clip-rule="evenodd" d="M41.194 24.6712C42.7276 25.6942 43.3531 27.672 42.433 30.1079C41.7421 31.9369 40.6198 33.0588 39.3318 33.6959C38.0799 34.315 36.7665 34.4289 35.7536 34.4289C35.7535 34.4289 35.7536 34.4289 35.7536 34.4289H25.6329C25.0118 34.4289 24.5084 33.9443 24.5084 33.3464C24.5084 32.7485 25.0118 32.2639 25.6329 32.2639H35.7536C36.6148 32.2639 37.513 32.1613 38.304 31.7701C39.0588 31.3968 39.8108 30.7144 40.3193 29.368C40.9813 27.6155 40.4062 26.7797 39.913 26.4508C39.294 26.0378 38.4811 26.1172 38.0481 26.5341C37.6569 26.9107 37.6011 27.4252 37.7773 27.8373C37.9535 28.2491 38.2473 28.3704 38.5317 28.3156C39.1407 28.1984 39.7332 28.5786 39.8549 29.1648C39.9767 29.7511 39.5818 30.3214 38.9728 30.4386C37.383 30.7447 36.1775 29.7835 35.6977 28.6617C35.218 27.5402 35.3496 26.0701 36.4577 25.0032C37.7466 23.7624 39.7864 23.7322 41.194 24.6712Z" fill="#9353D3"/>
<path fill-rule="evenodd" clip-rule="evenodd" d="M37.5179 24.7917C37.6643 24.9326 37.6643 25.1611 37.5179 25.302C36.8878 25.9087 36.8067 26.7418 37.0841 27.3903C37.3614 28.0388 37.9592 28.4401 38.6787 28.3015C38.8817 28.2624 39.0792 28.3892 39.1198 28.5846C39.1604 28.78 39.0287 28.9701 38.8257 29.0092C37.6711 29.2315 36.7695 28.5503 36.3909 27.6651C36.0123 26.7801 36.1186 25.6285 36.9878 24.7917C37.1342 24.6508 37.3715 24.6508 37.5179 24.7917Z" fill="#AE7EDE"/>
<path fill-rule="evenodd" clip-rule="evenodd" d="M38.9826 31.8118C39.0866 31.9841 39.0259 32.205 38.8469 32.3051C37.7497 32.9192 36.5557 32.9779 35.7572 32.9855C35.756 32.9855 35.7547 32.9855 35.7535 32.9855H25.6328C25.4258 32.9855 25.258 32.8239 25.258 32.6246C25.258 32.4254 25.4258 32.2638 25.6328 32.2638H35.7516C36.5304 32.2563 37.5532 32.1944 38.4701 31.6812C38.6491 31.581 38.8785 31.6395 38.9826 31.8118Z" fill="#AE7EDE"/>
<path fill-rule="evenodd" clip-rule="evenodd" d="M25.3089 31.9215C25.902 31.3768 26.2774 30.6922 26.4283 30.2651C26.6283 29.6991 27.2671 29.3963 27.8551 29.5888C28.443 29.7813 28.7576 30.3963 28.5576 30.9623C28.3077 31.6693 27.7539 32.6682 26.8615 33.4879C25.9494 34.3257 24.6383 35.011 22.9459 34.9195C22.3258 34.8859 21.8514 34.3748 21.8862 33.7779C21.921 33.181 22.4519 32.7243 23.072 32.7578C24.005 32.8082 24.7356 32.4481 25.3089 31.9215Z" fill="black"/>
<path d="M24.5084 4.52846C24.5084 5.32562 23.8371 5.97184 23.009 5.97184C22.1809 5.97184 21.5096 5.32562 21.5096 4.52846C21.5096 3.73131 22.1809 3.08508 23.009 3.08508C23.8371 3.08508 24.5084 3.73131 24.5084 4.52846Z" fill="#66AAF9"/>
<path d="M8.01544 3.26546C8.01544 4.06262 7.34416 4.70884 6.51608 4.70884C5.68801 4.70884 5.01672 4.06262 5.01672 3.26546C5.01672 2.46831 5.68801 1.82208 6.51608 1.82208C7.34416 1.82208 8.01544 2.46831 8.01544 3.26546Z" fill="#006FEE"/>
<path d="M37.2529 8.8586C37.2529 9.65576 36.5816 10.302 35.7536 10.302C34.9255 10.302 34.2542 9.65576 34.2542 8.8586C34.2542 8.06145 34.9255 7.41522 35.7536 7.41522C36.5816 7.41522 37.2529 8.06145 37.2529 8.8586Z" fill="#AE7EDE"/>
<path d="M20.0102 23.4613C20.0102 24.2585 19.3389 24.9047 18.5108 24.9047C17.6828 24.9047 17.0115 24.2585 17.0115 23.4613C17.0115 22.6642 17.6828 22.0179 18.5108 22.0179C19.3389 22.0179 20.0102 22.6642 20.0102 23.4613Z" fill="#66AAF9"/>
<path d="M5.01666 16.7971C5.01666 17.5943 4.34538 18.2405 3.5173 18.2405C2.68923 18.2405 2.01794 17.5943 2.01794 16.7971C2.01794 16 2.68923 15.3538 3.5173 15.3538C4.34538 15.3538 5.01666 16 5.01666 16.7971Z" fill="#F871A0"/>
<path d="M13.2631 31.9527C13.2631 32.7498 12.5918 33.396 11.7638 33.396C10.9357 33.396 10.2644 32.7498 10.2644 31.9527C10.2644 31.1555 10.9357 30.5093 11.7638 30.5093C12.5918 30.5093 13.2631 31.1555 13.2631 31.9527Z" fill="#AE7EDE"/>
<path d="M34.2541 22.0179C34.2541 22.8151 33.5829 23.4613 32.7548 23.4613C31.9267 23.4613 31.2554 22.8151 31.2554 22.0179C31.2554 21.2207 31.9267 20.5745 32.7548 20.5745C33.5829 20.5745 34.2541 21.2207 34.2541 22.0179Z" fill="#F871A0"/>
<path d="M41.0013 17.5189C41.0013 18.316 40.3301 18.9623 39.502 18.9623C38.6739 18.9623 38.0026 18.316 38.0026 17.5189C38.0026 16.7217 38.6739 16.0755 39.502 16.0755C40.3301 16.0755 41.0013 16.7217 41.0013 17.5189Z" fill="#66AAF9"/>
</g>
<path d="M18.9637 17.7549C19.3314 18.3092 20.3412 19.1076 19.8829 19.7872C19.3266 20.6121 18.504 18.7712 15.6543 18.6788C13.1723 18.6788 11.7064 20.6343 11.1499 19.7872C10.7069 19.1128 11.3338 18.3093 11.8853 17.755C12.7127 16.739 14.3673 16 15.4705 16C16.6215 16 17.5848 16.2771 18.9637 17.7549Z" fill="#312107"/>
<path d="M33.0788 17.7549C33.4057 18.3092 34.3033 19.1076 33.8959 19.7872C33.4014 20.6121 32.6702 18.7712 30.1372 18.6788C27.9309 18.6788 26.6279 20.6343 26.1333 19.7872C25.7395 19.1128 26.2967 18.3093 26.787 17.755C27.5224 16.739 28.9932 16 29.9737 16C30.9969 16 31.8531 16.2771 33.0788 17.7549Z" fill="#312107"/>
</g>
<defs>
<filter id="filter0_d_119_1435" x="-0.922056" y="-1.10003" width="48.6022" height="49.4376" filterUnits="userSpaceOnUse" color-interpolation-filters="sRGB">
<feFlood flood-opacity="0" result="BackgroundImageFix"/>
<feColorMatrix in="SourceAlpha" type="matrix" values="0 0 0 0 0 0 0 0 0 0 0 0 0 0 0 0 0 0 127 0" result="hardAlpha"/>
<feOffset dx="0.94" dy="0.94"/>
<feGaussianBlur stdDeviation="0.94"/>
<feComposite in2="hardAlpha" operator="out"/>
<feColorMatrix type="matrix" values="0 0 0 0 0 0 0 0 0 0 0 0 0 0 0 0 0 0 0.25 0"/>
<feBlend mode="normal" in2="BackgroundImageFix" result="effect1_dropShadow_119_1435"/>
<feBlend mode="normal" in="SourceGraphic" in2="effect1_dropShadow_119_1435" result="shape"/>
</filter>
<linearGradient id="paint0_linear_119_1435" x1="21.717" y1="10.7473" x2="5.63783" y2="2.39592" gradientUnits="userSpaceOnUse">
<stop stop-color="#7EE7FC"/>
<stop offset="1" stop-color="#006FEE"/>
</linearGradient>
<linearGradient id="paint1_linear_119_1435" x1="23.7587" y1="8.85858" x2="23.7587" y2="43.4997" gradientUnits="userSpaceOnUse">
<stop stop-color="#FCF050"/>
<stop offset="1" stop-color="#F1BE3A"/>
</linearGradient>
<clipPath id="clip0_119_1435">
<rect width="47" height="48" fill="white"/>
</clipPath>
</defs>
</svg>
