<svg width="42" height="42" viewBox="0 0 42 42" fill="none" xmlns="http://www.w3.org/2000/svg">
<g clip-path="url(#clip0_102_79)">
<g filter="url(#filter0_dii_102_79)">
<rect x="1" y="1" width="39" height="39" rx="10" fill="#3BBA00"/>
<rect x="2.5" y="2.5" width="36" height="36" rx="8.5" stroke="white" stroke-width="3"/>
</g>
<path d="M9.29534 21.7659C8.28427 20.4791 9.20098 18.593 10.8375 18.593C11.4393 18.593 12.0078 18.8693 12.3796 19.3425L15.9419 23.8763C16.3578 24.4056 17.1672 24.3812 17.5504 23.8277L28.4693 8.05591C28.8163 7.55481 29.3869 7.2558 29.9964 7.2558C31.4979 7.2558 32.3788 8.94508 31.5193 10.1763L19.8691 26.8644C18.3316 29.0668 15.1035 29.1581 13.444 27.046L9.29534 21.7659Z" fill="white"/>
</g>
<defs>
<filter id="filter0_dii_102_79" x="-1" y="-1" width="44" height="44" filterUnits="userSpaceOnUse" color-interpolation-filters="sRGB">
<feFlood flood-opacity="0" result="BackgroundImageFix"/>
<feColorMatrix in="SourceAlpha" type="matrix" values="0 0 0 0 0 0 0 0 0 0 0 0 0 0 0 0 0 0 127 0" result="hardAlpha"/>
<feOffset dx="1" dy="1"/>
<feGaussianBlur stdDeviation="1"/>
<feComposite in2="hardAlpha" operator="out"/>
<feColorMatrix type="matrix" values="0 0 0 0 0 0 0 0 0 0 0 0 0 0 0 0 0 0 0.25 0"/>
<feBlend mode="normal" in2="BackgroundImageFix" result="effect1_dropShadow_102_79"/>
<feBlend mode="normal" in="SourceGraphic" in2="effect1_dropShadow_102_79" result="shape"/>
<feColorMatrix in="SourceAlpha" type="matrix" values="0 0 0 0 0 0 0 0 0 0 0 0 0 0 0 0 0 0 127 0" result="hardAlpha"/>
<feOffset dx="-2" dy="-2"/>
<feGaussianBlur stdDeviation="2"/>
<feComposite in2="hardAlpha" operator="arithmetic" k2="-1" k3="1"/>
<feColorMatrix type="matrix" values="0 0 0 0 0 0 0 0 0 0 0 0 0 0 0 0 0 0 0.25 0"/>
<feBlend mode="normal" in2="shape" result="effect2_innerShadow_102_79"/>
<feColorMatrix in="SourceAlpha" type="matrix" values="0 0 0 0 0 0 0 0 0 0 0 0 0 0 0 0 0 0 127 0" result="hardAlpha"/>
<feOffset dx="2" dy="2"/>
<feGaussianBlur stdDeviation="2"/>
<feComposite in2="hardAlpha" operator="arithmetic" k2="-1" k3="1"/>
<feColorMatrix type="matrix" values="0 0 0 0 1 0 0 0 0 1 0 0 0 0 1 0 0 0 0.5 0"/>
<feBlend mode="normal" in2="effect2_innerShadow_102_79" result="effect3_innerShadow_102_79"/>
</filter>
<clipPath id="clip0_102_79">
<rect width="42" height="42" fill="white"/>
</clipPath>
</defs>
</svg>
