<svg width="46" height="46" viewBox="0 0 46 46" fill="none" xmlns="http://www.w3.org/2000/svg">
<g clip-path="url(#clip0_103_187)">
<g filter="url(#filter0_d_103_187)">
<circle cx="20.6647" cy="21.6647" r="19.5093" fill="url(#paint0_linear_103_187)" stroke="white" stroke-width="2.31081"/>
<path d="M15.1602 15.9797C15.1602 16.8351 14.9129 17.6174 14.5039 18.2181C14.0074 18.9472 13.2728 19.4088 12.453 19.4088C11.6205 19.4088 10.8759 18.9328 10.3793 18.1841C9.98393 17.588 9.74582 16.8191 9.74582 15.9797C9.74582 14.0859 10.9579 12.5506 12.453 12.5506C13.9481 12.5506 15.1602 14.0859 15.1602 15.9797Z" fill="#312107"/>
<path d="M30.3204 15.9797C30.3204 16.8351 30.0731 17.6174 29.6641 18.2181C29.1676 18.9472 28.433 19.4088 27.6132 19.4088C26.7807 19.4088 26.036 18.9328 25.5394 18.1841C25.1441 17.588 24.906 16.8191 24.906 15.9797C24.906 14.0859 26.118 12.5506 27.6132 12.5506C29.1083 12.5506 30.3204 14.0859 30.3204 15.9797Z" fill="#312107"/>
<circle cx="12.462" cy="17.0716" r="0.00902196" fill="#46BC4A"/>
<path d="M12.4614 17.0766V17.066H12.462V17.0766H12.4614ZM12.463 17.0695C12.463 17.0692 12.4629 17.0689 12.4626 17.0687C12.4624 17.0686 12.4621 17.0685 12.4617 17.0685C12.4615 17.0685 12.4612 17.0685 12.4611 17.0686C12.4609 17.0687 12.4607 17.0688 12.4606 17.0689C12.4605 17.0691 12.4605 17.0692 12.4605 17.0694C12.4605 17.0696 12.4605 17.0697 12.4606 17.0698C12.4607 17.0699 12.4607 17.07 12.4609 17.0701C12.461 17.0702 12.4611 17.0703 12.4612 17.0703C12.4614 17.0704 12.4615 17.0704 12.4617 17.0705L12.4624 17.0706C12.4627 17.0707 12.463 17.0708 12.4633 17.071C12.4636 17.0711 12.4638 17.0713 12.464 17.0715C12.4642 17.0717 12.4644 17.0719 12.4645 17.0722C12.4646 17.0725 12.4647 17.0728 12.4647 17.0731C12.4647 17.0736 12.4646 17.0741 12.4643 17.0745C12.4641 17.0748 12.4637 17.0751 12.4633 17.0753C12.4629 17.0755 12.4623 17.0757 12.4617 17.0757C12.4611 17.0757 12.4606 17.0755 12.4601 17.0753C12.4597 17.0751 12.4593 17.0748 12.459 17.0744C12.4588 17.074 12.4587 17.0735 12.4586 17.0729H12.4602C12.4602 17.0732 12.4603 17.0734 12.4604 17.0736C12.4606 17.0738 12.4607 17.0739 12.461 17.074C12.4612 17.0741 12.4614 17.0742 12.4617 17.0742C12.462 17.0742 12.4622 17.0741 12.4624 17.074C12.4626 17.0739 12.4628 17.0738 12.4629 17.0737C12.463 17.0735 12.463 17.0733 12.463 17.0731C12.463 17.0729 12.463 17.0728 12.4629 17.0726C12.4628 17.0725 12.4627 17.0724 12.4625 17.0723C12.4623 17.0722 12.462 17.0721 12.4618 17.0721L12.4609 17.0718C12.4603 17.0717 12.4598 17.0714 12.4594 17.071C12.459 17.0707 12.4588 17.0702 12.4588 17.0695C12.4588 17.069 12.459 17.0686 12.4592 17.0682C12.4595 17.0678 12.4598 17.0675 12.4602 17.0673C12.4607 17.0671 12.4612 17.067 12.4617 17.067C12.4623 17.067 12.4628 17.0671 12.4632 17.0673C12.4636 17.0675 12.464 17.0678 12.4642 17.0682C12.4644 17.0686 12.4646 17.069 12.4646 17.0695H12.463Z" fill="white"/>
<circle cx="27.6222" cy="17.0716" r="0.00902196" fill="#46BC4A"/>
<path d="M27.6216 17.0766V17.066H27.6222V17.0766H27.6216ZM27.6232 17.0695C27.6232 17.0692 27.623 17.0689 27.6228 17.0687C27.6226 17.0686 27.6223 17.0685 27.6219 17.0685C27.6216 17.0685 27.6214 17.0685 27.6212 17.0686C27.621 17.0687 27.6209 17.0688 27.6208 17.0689C27.6207 17.0691 27.6207 17.0692 27.6207 17.0694C27.6207 17.0696 27.6207 17.0697 27.6207 17.0698C27.6208 17.0699 27.6209 17.07 27.621 17.0701C27.6211 17.0702 27.6212 17.0703 27.6214 17.0703C27.6215 17.0704 27.6217 17.0704 27.6219 17.0705L27.6225 17.0706C27.6229 17.0707 27.6232 17.0708 27.6235 17.071C27.6237 17.0711 27.624 17.0713 27.6242 17.0715C27.6244 17.0717 27.6245 17.0719 27.6247 17.0722C27.6248 17.0725 27.6248 17.0728 27.6248 17.0731C27.6248 17.0736 27.6247 17.0741 27.6245 17.0745C27.6242 17.0748 27.6239 17.0751 27.6235 17.0753C27.623 17.0755 27.6225 17.0757 27.6219 17.0757C27.6213 17.0757 27.6207 17.0755 27.6203 17.0753C27.6198 17.0751 27.6195 17.0748 27.6192 17.0744C27.619 17.074 27.6188 17.0735 27.6188 17.0729H27.6204C27.6204 17.0732 27.6205 17.0734 27.6206 17.0736C27.6207 17.0738 27.6209 17.0739 27.6211 17.074C27.6213 17.0741 27.6216 17.0742 27.6219 17.0742C27.6221 17.0742 27.6224 17.0741 27.6226 17.074C27.6228 17.0739 27.6229 17.0738 27.623 17.0737C27.6232 17.0735 27.6232 17.0733 27.6232 17.0731C27.6232 17.0729 27.6232 17.0728 27.6231 17.0726C27.623 17.0725 27.6228 17.0724 27.6226 17.0723C27.6224 17.0722 27.6222 17.0721 27.6219 17.0721L27.6211 17.0718C27.6204 17.0717 27.6199 17.0714 27.6196 17.071C27.6192 17.0707 27.619 17.0702 27.619 17.0695C27.619 17.069 27.6191 17.0686 27.6194 17.0682C27.6196 17.0678 27.62 17.0675 27.6204 17.0673C27.6208 17.0671 27.6213 17.067 27.6219 17.067C27.6225 17.067 27.623 17.0671 27.6234 17.0673C27.6238 17.0675 27.6241 17.0678 27.6244 17.0682C27.6246 17.0686 27.6247 17.069 27.6247 17.0695H27.6232Z" fill="white"/>
<path d="M9.38483 31.2611C9.38483 28.5996 11.3388 26.9161 14.8027 26.442C18.2666 25.968 23.5957 25.968 26.5267 26.442C29.4577 26.916 31.9446 28.0717 31.9446 31.2611C31.9446 34.569 29.3689 35.4482 26.5267 36.0802C23.6845 36.7122 17.7337 36.7122 14.8027 36.0802C11.8717 35.4482 9.38483 33.9226 9.38483 31.2611Z" fill="#312107"/>
<path d="M12.092 28.5872C12.092 28.0239 12.5331 28.0402 12.8089 27.8831C13.0847 27.7259 16.4753 27.1318 20.394 27.0012C23.6121 26.8939 27.9741 27.5189 28.2207 27.6014C28.4673 27.684 29.057 27.7423 29.057 28.2351L28.9972 29.7804C28.9972 30.0137 28.7173 30.4179 28.5194 30.4179H12.5699C12.372 30.4179 12.2115 30.0879 12.2115 29.8546L12.092 28.5872Z" fill="white"/>
<path d="M2.96325 9.06848C3.36199 8.27494 4.48452 7.99863 4.94863 7.95956C5.70414 7.89596 5.79131 8.41974 5.73947 8.92948C5.68763 9.43921 4.23313 17.2966 4.23313 17.2966L2.81717 10.5049C2.81717 10.5049 2.71009 9.57229 2.96325 9.06848Z" fill="#CCE3FD"/>
<path d="M3.3689 9.19678C3.56475 8.81104 4.11733 8.67733 4.34584 8.65861C4.71782 8.62814 4.76107 8.88297 4.73585 9.13088C4.71064 9.37879 3.99927 13.1998 3.99927 13.1998L3.29785 9.89538C3.29785 9.89538 3.24455 9.44169 3.3689 9.19678Z" fill="#E6F1FE"/>
<path d="M4.47408 7.55259C4.95712 6.57209 6.33597 6.22114 6.90679 6.16855C7.836 6.08295 7.94837 6.72673 7.88952 7.35458C7.83066 7.98243 6.1168 17.6669 6.1168 17.6669L4.30823 9.32184C4.30823 9.32184 4.16739 8.17511 4.47408 7.55259Z" fill="#CCE3FD"/>
<path d="M4.97456 7.70662C5.21187 7.22998 5.89064 7.06006 6.17169 7.0348C6.6292 6.99369 6.68491 7.3069 6.65628 7.61225C6.62766 7.91761 5.78923 12.6272 5.78923 12.6272L4.8939 8.5671C4.8939 8.5671 4.8239 8.00924 4.97456 7.70662Z" fill="#E6F1FE"/>
<path d="M11.398 34.6151C11.9666 34.4292 12.6893 34.5962 13.0728 34.6862C13.7004 34.8333 13.6817 35.2468 13.6106 35.6743C13.5396 36.1018 11.9909 42.3198 11.9909 42.3198L11.1231 35.5124C11.1231 35.5124 10.9647 34.7567 11.398 34.6151Z" fill="#CCE3FD"/>
<path d="M11.6124 35.2164C11.7983 34.9013 12.3547 35.0385 12.5485 35.0349C12.8642 35.0291 12.887 35.2465 12.8525 35.4544C12.8179 35.6623 12.0129 38.8494 12.0129 38.8494L11.5978 36.0227C11.5978 36.0227 11.4943 35.4165 11.6124 35.2164Z" fill="#E6F1FE"/>
<path d="M12.6545 35.1002C13.0719 34.9591 13.6054 35.0769 13.8885 35.1403C14.3518 35.2441 14.3411 35.5488 14.2919 35.8641C14.2427 36.1795 13.1477 40.7705 13.1477 40.7705L12.4586 35.7631C12.4586 35.7631 12.3364 35.2077 12.6545 35.1002Z" fill="#CCE3FD"/>
<path d="M12.8167 35.5415C12.9514 35.308 13.3621 35.405 13.5049 35.4009C13.7373 35.3943 13.7557 35.5543 13.7318 35.7076C13.7079 35.861 13.1384 38.2143 13.1384 38.2143L12.8119 36.1354C12.8119 36.1354 12.7312 35.6897 12.8167 35.5415Z" fill="#E6F1FE"/>
<path d="M15.3857 35.6386C15.8043 35.5012 16.3368 35.6235 16.6194 35.6894C17.0818 35.7972 17.0684 36.1018 17.0165 36.4167C16.9645 36.7316 15.8297 41.313 15.8297 41.313L15.1841 36.2998C15.1841 36.2998 15.0668 35.7434 15.3857 35.6386Z" fill="#CCE3FD"/>
<path d="M15.5442 36.0813C15.6809 35.8491 16.0908 35.9496 16.2336 35.9468C16.466 35.9422 16.4831 36.1023 16.4578 36.2555C16.4326 36.4086 15.8426 38.7568 15.8426 38.7568L15.5342 36.6752C15.5342 36.6752 15.4574 36.2288 15.5442 36.0813Z" fill="#E6F1FE"/>
<path d="M22.9615 36.0287C23.37 35.8635 23.9095 35.95 24.1958 35.9968C24.6644 36.0734 24.6714 36.3782 24.6406 36.6959C24.6099 37.0136 23.7841 41.6606 23.7841 41.6606L22.8046 36.7018C22.8046 36.7018 22.6503 36.1545 22.9615 36.0287Z" fill="#CCE3FD"/>
<path d="M23.1492 36.4597C23.27 36.2189 23.6857 36.2917 23.828 36.2793C24.0596 36.2592 24.0873 36.4178 24.0724 36.5723C24.0574 36.7268 23.6259 39.1093 23.6259 39.1093L23.1789 37.0529C23.1789 37.0529 23.0725 36.6127 23.1492 36.4597Z" fill="#E6F1FE"/>
<path d="M25.7061 35.4686C26.2551 35.2342 26.9882 35.3372 27.3773 35.3931C28.0141 35.4847 28.0315 35.8974 27.9982 36.3285C27.9649 36.7597 26.9679 43.0763 26.9679 43.0763L25.5112 36.3846C25.5112 36.3846 25.2878 35.6472 25.7061 35.4686Z" fill="#CCE3FD"/>
<path d="M25.9717 36.0477C26.129 35.7182 26.694 35.806 26.8865 35.7855C27.1997 35.7522 27.2414 35.9664 27.2252 36.176C27.209 36.3857 26.6868 39.6243 26.6868 39.6243L26.0275 36.8505C26.0275 36.8505 25.8717 36.2569 25.9717 36.0477Z" fill="#E6F1FE"/>
<path d="M38.2982 12.6789C39.0312 12.381 38.688 12.5261 39.2024 12.6092C39.5489 12.816 39.6494 12.7999 39.9211 13.4378C40.1929 14.0757 40.8256 16.0154 40.7719 16.7353C40.3206 19.3816 39.706 22.8872 39.706 22.8872L37.9309 13.9853C37.9309 13.9853 37.7397 12.9059 38.2982 12.6789Z" fill="#CCE3FD"/>
<path d="M38.549 13.5496C38.7652 13.1166 38.9649 13.2942 39.2203 13.2715C39.6362 13.2346 39.956 14.4043 39.9296 14.6818C39.9033 14.9593 39.4137 18.3062 39.4137 18.3062L38.6043 14.6148C38.6043 14.6148 38.4117 13.8245 38.549 13.5496Z" fill="#E6F1FE"/>
<path d="M31.4659 3.85575C31.5686 3.8623 31.6417 3.99447 31.9121 4.15157C32.0958 4.25828 32.4864 4.56018 32.6314 4.67352C32.7764 4.78686 32.8633 4.84414 32.942 5.02984C32.7208 6.42552 32.3156 9.16858 32.3156 9.16858L31.3262 4.49406C31.3262 4.49406 31.1492 3.83555 31.4659 3.85575Z" fill="#CCE3FD"/>
<path d="M31.7674 4.59542C31.8785 4.36618 31.9847 4.4584 32.119 4.44489C32.3377 4.42292 32.5133 5.03656 32.5011 5.18279C32.4889 5.32903 32.252 7.09366 32.252 7.09366L31.8031 5.15574C31.8031 5.15574 31.6969 4.74096 31.7674 4.59542Z" fill="#E6F1FE"/>
<path d="M18.0019 35.9528C18.2972 35.853 18.6746 35.9364 18.8748 35.9812C19.2025 36.0547 19.1949 36.2702 19.1601 36.4933C19.1252 36.7163 18.3503 39.9636 18.3503 39.9636L17.8633 36.4216C17.8633 36.4216 17.777 36.0288 18.0019 35.9528Z" fill="#CCE3FD"/>
<path d="M18.1167 36.2649C18.212 36.0998 18.5025 36.1684 18.6035 36.1656C18.7679 36.1609 18.7809 36.2741 18.764 36.3825C18.747 36.491 18.344 38.1555 18.344 38.1555L18.1133 36.685C18.1133 36.685 18.0563 36.3697 18.1167 36.2649Z" fill="#E6F1FE"/>
</g>
<path d="M13.8115 33.8547C13.8244 34.4178 14.2649 34.3914 14.5442 34.5422C14.8236 34.6931 18.2269 35.2096 22.1476 35.2507C25.3673 35.2845 29.7139 34.5601 29.9585 34.4719C30.2031 34.3837 30.7913 34.312 30.7801 33.8192L30.6851 32.2758C30.6797 32.0425 30.3906 31.6448 30.1928 31.6493L14.2475 32.0135C14.0496 32.0181 13.8967 32.3516 13.902 32.5849L13.8115 33.8547Z" fill="white"/>
</g>
<defs>
<filter id="filter0_d_103_187" x="-1" y="0" width="45.3295" height="46.0762" filterUnits="userSpaceOnUse" color-interpolation-filters="sRGB">
<feFlood flood-opacity="0" result="BackgroundImageFix"/>
<feColorMatrix in="SourceAlpha" type="matrix" values="0 0 0 0 0 0 0 0 0 0 0 0 0 0 0 0 0 0 127 0" result="hardAlpha"/>
<feOffset dx="1" dy="1"/>
<feGaussianBlur stdDeviation="1"/>
<feComposite in2="hardAlpha" operator="out"/>
<feColorMatrix type="matrix" values="0 0 0 0 0 0 0 0 0 0 0 0 0 0 0 0 0 0 0.25 0"/>
<feBlend mode="normal" in2="BackgroundImageFix" result="effect1_dropShadow_103_187"/>
<feBlend mode="normal" in="SourceGraphic" in2="effect1_dropShadow_103_187" result="shape"/>
</filter>
<linearGradient id="paint0_linear_103_187" x1="20.6647" y1="1" x2="20.6647" y2="42.3295" gradientUnits="userSpaceOnUse">
<stop stop-color="#7EE7FC"/>
<stop offset="1" stop-color="#006FEE"/>
</linearGradient>
<clipPath id="clip0_103_187">
<rect width="46" height="46" fill="white"/>
</clipPath>
</defs>
</svg>
