<svg width="52" height="54" viewBox="0 0 52 54" fill="none" xmlns="http://www.w3.org/2000/svg">
<g clip-path="url(#clip0_120_1885)">
<g filter="url(#filter0_d_120_1885)">
<path d="M49.1386 30.2837C48.4966 28.9323 47.4149 27.8255 46.0606 27.1392C45.2427 26.6415 44.3545 26.2597 43.4223 26.0109C44.095 23.6085 43.1409 21.6952 41.7997 20.2667C39.8166 18.1732 37.7544 17.8686 37.7544 17.8686C38.4667 16.5516 38.6822 15.0329 38.3524 13.5786C38.0138 11.9957 36.998 11.6357 35.5558 10.8378C34.1927 10.0528 32.2237 8.81746 30.5 8.5C29.6733 8.35414 27.4467 7.95192 26 6C24.8348 4.41701 24.8286 2.34372 24.512 1.49002C24.1954 0.636324 23.0258 0.99668 21.7726 1.81606C20.3083 2.78559 16.2743 4.84432 15.1047 7.92021C14.3308 9.81207 14.1373 11.8798 14.5418 13.8789C13.6008 14.0291 12.6818 14.2951 11.8112 14.6726C11.7408 14.6726 11.6705 14.7155 11.5957 14.7455C10.2766 15.2775 7.44924 17.7485 7.1986 21.5451C7.10626 22.8878 7.28214 24.2306 7.71306 25.509C6.75009 25.7535 6.86183 26.0109 5.99999 26.5C4.99304 26.9204 4.27828 27.7493 3.49999 28.5C2.64255 29.5339 1.99986 30.6478 1.65688 31.9348C0.861001 34.7704 1.1732 37.7948 2.53631 40.416C3.3278 41.9046 4.32155 43.2774 5.49999 44.5C9.25955 48.2709 14.5242 49.6614 19.6645 50.4722C25.9041 51.476 32.4382 51.1242 38.2776 48.7562C47.0367 45.2298 49.3672 39.5585 49.7102 37.9584C50.4709 34.4192 49.5387 31.0859 49.1386 30.2837Z" fill="white"/>
<path d="M46.242 30.3156C45.677 29.0967 44.7251 28.0984 43.5333 27.4793C42.8136 27.0304 42.032 26.686 41.2116 26.4616C41.8037 24.2947 40.964 22.5689 39.7838 21.2803C38.0386 19.392 36.2239 19.1173 36.2239 19.1173C36.8507 17.9294 37.0403 16.5596 36.7501 15.2478C36.4522 13.82 35.5583 12.5933 34.2891 11.8736C33.0896 11.1655 31.6114 10.8172 30.0946 10.5309C29.3671 10.3993 26.2986 9.96982 25.0256 8.2092C24.0001 6.78136 23.9692 4.21202 23.6906 3.442C23.412 2.67197 22.3827 2.99701 21.2799 3.73608C19.9914 4.61058 17.3214 7.36953 16.2921 10.1439C15.6111 11.8504 15.4408 13.7155 15.7968 15.5187C14.9688 15.6541 14.16 15.894 13.3939 16.2345C13.332 16.2345 13.2701 16.2732 13.2043 16.3003C12.0434 16.7801 9.55535 19.0089 9.33479 22.4334C9.25353 23.6446 9.40831 24.8557 9.78752 26.0088C8.9401 26.2294 8.12364 26.5622 7.36522 27.0033C6.47911 27.3825 5.67039 27.9242 4.98549 28.6014C4.23094 29.5339 3.68147 30.6135 3.37965 31.7744C2.67927 34.3321 2.95401 37.0601 4.15355 39.4244C4.85005 40.7671 5.72456 42.0053 6.76158 43.1081C10.07 46.5094 15.7814 47.7941 20.3048 48.5254C25.7956 49.4308 31.5456 49.1136 36.6843 46.9776C44.3923 43.7969 46.4432 38.6814 46.745 37.2381C47.4144 34.0458 46.5941 31.0392 46.242 30.3156Z" fill="url(#paint0_linear_120_1885)"/>
<path d="M20.7537 24.7121C20.7537 25.6381 20.4909 26.4849 20.0563 27.1352C19.5287 27.9245 18.748 28.4241 17.8768 28.4241C16.9922 28.4241 16.2009 27.9089 15.6731 27.0984C15.253 26.4531 15 25.6207 15 24.7121C15 22.6619 16.288 21 17.8768 21C19.4657 21 20.7537 22.6619 20.7537 24.7121Z" fill="#312107"/>
<path d="M34.117 24.7121C34.117 25.6381 33.8542 26.4849 33.4196 27.1352C32.8921 27.9245 32.1113 28.4241 31.2402 28.4241C30.3556 28.4241 29.5642 27.9089 29.0365 27.0984C28.6164 26.4531 28.3633 25.6207 28.3633 24.7121C28.3633 22.6619 29.6513 21 31.2402 21C32.829 21 34.117 22.6619 34.117 24.7121Z" fill="#312107"/>
<path d="M34.0763 37.1878C33.4688 37.4974 32.8497 37.776 32.2267 38.0236C31.8088 38.19 31.387 38.3409 30.9613 38.4763C30.5357 38.6156 30.1062 38.7356 29.6728 38.8633C28.806 39.08 27.9238 39.2386 27.0338 39.3315C26.3605 39.405 25.6795 39.4398 25.0023 39.4398C23.2146 39.4398 21.4347 39.1883 19.7127 38.7008L19.1478 38.5305C18.1998 38.2287 17.275 37.8611 16.3811 37.4316L15.8433 37.1646C16.4856 39.792 18.3004 41.9743 20.7652 43.0888C22.0925 43.704 23.5397 44.0174 25.0023 44.0097C26.4805 44.0213 27.9431 43.7195 29.2936 43.1158C31.7817 42.0208 33.5926 39.7997 34.1614 37.1414L34.0763 37.1878Z" fill="#312107"/>
<path d="M33.2018 36.0695C30.4931 36.5454 27.7497 36.7737 25.0023 36.7544C22.255 36.7699 19.5115 36.5416 16.8029 36.0695C16.3501 35.9805 15.9129 36.2784 15.8239 36.7312C15.8046 36.8357 15.8046 36.9479 15.8239 37.0523V37.1491C18.6564 38.6311 21.8061 39.4089 25.0023 39.4205C25.6795 39.4205 26.3605 39.3856 27.0338 39.3121C27.9238 39.2193 28.806 39.0606 29.6728 38.8439C30.1062 38.7356 30.5357 38.6156 30.9613 38.457C31.387 38.2983 31.8087 38.1706 32.2267 38.0042C32.8535 37.745 33.4688 37.4664 34.0763 37.1684L34.1614 37.122L34.1846 37.0175C34.2504 36.5571 33.9292 36.1314 33.4649 36.0656C33.3798 36.054 33.2908 36.054 33.2018 36.0695Z" fill="white"/>
</g>
</g>
<defs>
<filter id="filter0_d_120_1885" x="0.225464" y="0" width="52.7745" height="54" filterUnits="userSpaceOnUse" color-interpolation-filters="sRGB">
<feFlood flood-opacity="0" result="BackgroundImageFix"/>
<feColorMatrix in="SourceAlpha" type="matrix" values="0 0 0 0 0 0 0 0 0 0 0 0 0 0 0 0 0 0 127 0" result="hardAlpha"/>
<feOffset dx="1" dy="1"/>
<feGaussianBlur stdDeviation="1"/>
<feComposite in2="hardAlpha" operator="out"/>
<feColorMatrix type="matrix" values="0 0 0 0 0 0 0 0 0 0 0 0 0 0 0 0 0 0 0.25 0"/>
<feBlend mode="normal" in2="BackgroundImageFix" result="effect1_dropShadow_120_1885"/>
<feBlend mode="normal" in="SourceGraphic" in2="effect1_dropShadow_120_1885" result="shape"/>
</filter>
<linearGradient id="paint0_linear_120_1885" x1="25" y1="3" x2="25" y2="49.0015" gradientUnits="userSpaceOnUse">
<stop stop-color="#C4841D"/>
<stop offset="1" stop-color="#62420E"/>
</linearGradient>
<clipPath id="clip0_120_1885">
<rect width="52" height="54" fill="white"/>
</clipPath>
</defs>
</svg>
