<svg width="57" height="68" viewBox="0 0 57 68" fill="none" xmlns="http://www.w3.org/2000/svg">
<g filter="url(#filter0_d_102_82)">
<mask id="path-1-outside-1_102_82" maskUnits="userSpaceOnUse" x="-0.612053" y="-1.68391" width="62.9263" height="68.6521" fill="black">
<rect fill="white" x="-0.612053" y="-1.68391" width="62.9263" height="68.6521"/>
<path fill-rule="evenodd" clip-rule="evenodd" d="M42.9799 5.65125C46.0174 4.49176 49.3313 6.54518 49.6467 9.78211C50.0819 14.2484 48.4611 18.6657 45.2423 21.7863L41.7731 25.1496C41.3143 29.1003 39.582 32.792 36.8374 35.6678L34.3562 38.2678L34.794 41.0112L38.6187 41.583C39.1212 41.6581 39.6061 41.8236 40.05 42.0714L40.621 42.3902C41.3876 42.8182 41.9159 43.5738 42.0541 44.4399L43.5221 44.2091C44.0677 44.1233 44.5805 44.4959 44.6675 45.0413L46.5347 56.7423L35.0781 58.5434L35.0797 58.5533L23.6193 60.3549L21.7521 48.6538C21.6651 48.1085 22.0369 47.5968 22.5824 47.511L24.0504 47.2803C23.9122 46.4142 24.1794 45.5336 24.7752 44.8914L25.2191 44.413C25.564 44.0412 25.9737 43.7351 26.4282 43.5096L29.8878 41.7926L29.45 39.0492L26.2807 37.3375C22.7752 35.4442 19.9783 32.4645 18.3119 28.8479L13.9654 26.7133C9.93254 24.7327 7.0159 21.0288 6.03923 16.6476C5.3314 13.4723 7.84389 10.503 11.0936 10.6741L14.3202 10.844C14.1993 10.0864 14.7157 9.37566 15.4735 9.25652L26.9222 7.45673L26.9206 7.44685L38.3731 5.64646C39.131 5.52732 39.8433 6.04488 39.9642 6.80246L42.9799 5.65125ZM40.4625 9.05917C41.3035 13.197 41.7551 17.4051 41.8105 21.6283L44.8265 18.7843C47.0952 16.6449 48.2391 13.5722 47.923 10.467C47.6872 8.1519 45.2213 6.7699 43.1253 7.77821L40.4625 9.05917ZM14.5488 13.1431L11.6176 12.7415C9.31025 12.4254 7.39529 14.4961 7.89187 16.7702C8.55789 19.8204 10.6025 22.3919 13.4262 23.7307L17.18 25.5105C15.9179 21.4769 15.0372 17.3363 14.5488 13.1431Z"/>
</mask>
<path fill-rule="evenodd" clip-rule="evenodd" d="M42.9799 5.65125C46.0174 4.49176 49.3313 6.54518 49.6467 9.78211C50.0819 14.2484 48.4611 18.6657 45.2423 21.7863L41.7731 25.1496C41.3143 29.1003 39.582 32.792 36.8374 35.6678L34.3562 38.2678L34.794 41.0112L38.6187 41.583C39.1212 41.6581 39.6061 41.8236 40.05 42.0714L40.621 42.3902C41.3876 42.8182 41.9159 43.5738 42.0541 44.4399L43.5221 44.2091C44.0677 44.1233 44.5805 44.4959 44.6675 45.0413L46.5347 56.7423L35.0781 58.5434L35.0797 58.5533L23.6193 60.3549L21.7521 48.6538C21.6651 48.1085 22.0369 47.5968 22.5824 47.511L24.0504 47.2803C23.9122 46.4142 24.1794 45.5336 24.7752 44.8914L25.2191 44.413C25.564 44.0412 25.9737 43.7351 26.4282 43.5096L29.8878 41.7926L29.45 39.0492L26.2807 37.3375C22.7752 35.4442 19.9783 32.4645 18.3119 28.8479L13.9654 26.7133C9.93254 24.7327 7.0159 21.0288 6.03923 16.6476C5.3314 13.4723 7.84389 10.503 11.0936 10.6741L14.3202 10.844C14.1993 10.0864 14.7157 9.37566 15.4735 9.25652L26.9222 7.45673L26.9206 7.44685L38.3731 5.64646C39.131 5.52732 39.8433 6.04488 39.9642 6.80246L42.9799 5.65125ZM40.4625 9.05917C41.3035 13.197 41.7551 17.4051 41.8105 21.6283L44.8265 18.7843C47.0952 16.6449 48.2391 13.5722 47.923 10.467C47.6872 8.1519 45.2213 6.7699 43.1253 7.77821L40.4625 9.05917ZM14.5488 13.1431L11.6176 12.7415C9.31025 12.4254 7.39529 14.4961 7.89187 16.7702C8.55789 19.8204 10.6025 22.3919 13.4262 23.7307L17.18 25.5105C15.9179 21.4769 15.0372 17.3363 14.5488 13.1431Z" fill="url(#paint0_linear_102_82)"/>
<path d="M49.6467 9.78211L53.6287 9.39979L53.6287 9.39979L49.6467 9.78211ZM42.9799 5.65125L44.4117 9.38745L44.4117 9.38745L42.9799 5.65125ZM45.2423 21.7863L42.4548 18.9137L42.4548 18.9137L45.2423 21.7863ZM41.7731 25.1496L38.9856 22.277L37.9632 23.2682L37.7989 24.6832L41.7731 25.1496ZM36.8374 35.6678L33.9407 32.9054L33.9407 32.9054L36.8374 35.6678ZM34.3562 38.2678L31.4595 35.5054L30.0932 36.937L30.4053 38.8925L34.3562 38.2678ZM34.794 41.0112L30.843 41.636L31.3053 44.5325L34.2074 44.9663L34.794 41.0112ZM38.6187 41.583L39.2053 37.6279L39.2053 37.6279L38.6187 41.583ZM40.05 42.0714L38.1025 45.5622L38.1026 45.5622L40.05 42.0714ZM40.621 42.3902L42.5684 38.8994L42.5684 38.8994L40.621 42.3902ZM42.0541 44.4399L38.1032 45.0646L38.733 49.0111L42.6809 48.3904L42.0541 44.4399ZM43.5221 44.2091L42.8953 40.2585L42.8953 40.2585L43.5221 44.2091ZM44.6675 45.0413L40.7166 45.666L40.7166 45.666L44.6675 45.0413ZM46.5347 56.7423L47.1615 60.6929L51.1165 60.0712L50.4856 56.1176L46.5347 56.7423ZM35.0781 58.5434L34.4513 54.5928L30.4966 55.2145L31.1272 59.1678L35.0781 58.5434ZM35.0797 58.5533L35.7065 62.5038L39.6612 61.8821L39.0307 57.9288L35.0797 58.5533ZM23.6193 60.3549L19.6684 60.9796L20.2982 64.9261L24.2461 64.3055L23.6193 60.3549ZM21.7521 48.6538L25.7031 48.0291L25.7031 48.0291L21.7521 48.6538ZM22.5824 47.511L21.9557 43.5605L21.9556 43.5605L22.5824 47.511ZM24.0504 47.2803L24.6771 51.2309L28.6322 50.6091L28.0013 46.6555L24.0504 47.2803ZM24.7752 44.8914L21.84 42.1699L21.84 42.1699L24.7752 44.8914ZM25.2191 44.413L28.1543 47.1345L28.1543 47.1345L25.2191 44.413ZM26.4282 43.5096L28.2113 47.092L28.2113 47.092L26.4282 43.5096ZM29.8878 41.7926L31.6708 45.375L34.3017 44.0694L33.8387 41.1679L29.8878 41.7926ZM29.45 39.0492L33.4009 38.4244L33.0893 36.4717L31.3482 35.5313L29.45 39.0492ZM26.2807 37.3375L24.3825 40.8553L24.3825 40.8553L26.2807 37.3375ZM18.3119 28.8479L21.9456 27.179L21.3501 25.8866L20.0723 25.259L18.3119 28.8479ZM13.9654 26.7133L15.7258 23.1244L15.7258 23.1244L13.9654 26.7133ZM6.03923 16.6476L9.94428 15.7828L6.03923 16.6476ZM11.0936 10.6741L10.8885 14.6677L10.8885 14.6677L11.0936 10.6741ZM14.3202 10.844L14.1151 14.8376L19.0495 15.0974L18.2711 10.2192L14.3202 10.844ZM15.4735 9.25652L14.8467 5.30593L15.4735 9.25652ZM26.9222 7.45673L27.549 11.4073L31.5037 10.7856L30.8731 6.83227L26.9222 7.45673ZM26.9206 7.44685L26.2938 3.49626L22.3391 4.11797L22.9696 8.07131L26.9206 7.44685ZM38.3731 5.64646L38.9999 9.59704L38.3731 5.64646ZM39.9642 6.80246L36.0133 7.42718L36.7903 12.2968L41.396 10.5387L39.9642 6.80246ZM41.8105 21.6283L37.81 21.6754L37.9296 30.7895L44.5581 24.539L41.8105 21.6283ZM40.4625 9.05917L38.7236 5.45523L35.9224 6.80277L36.5418 9.85029L40.4625 9.05917ZM44.8265 18.7843L47.5741 21.6949L47.5741 21.6949L44.8265 18.7843ZM47.923 10.467L43.9426 10.8667L43.9426 10.8667L47.923 10.467ZM43.1253 7.77821L41.3863 4.17426L41.3863 4.17426L43.1253 7.77821ZM14.5488 13.1431L18.5228 12.6859L18.1637 9.6025L15.0868 9.181L14.5488 13.1431ZM11.6176 12.7415L12.1556 8.77944L12.1556 8.77944L11.6176 12.7415ZM7.89187 16.7702L11.8007 15.9225L7.89187 16.7702ZM13.4262 23.7307L15.1369 20.1179L15.1369 20.1179L13.4262 23.7307ZM17.18 25.5105L15.4693 29.1233L23.7258 33.0379L20.9983 24.3214L17.18 25.5105ZM53.6287 9.39979C53.0573 3.53439 47.0537 -0.186608 41.5482 1.91505L44.4117 9.38745C44.981 9.17014 45.6054 9.55596 45.6647 10.1644L53.6287 9.39979ZM48.0297 24.6588C52.1219 20.6916 54.1818 15.0763 53.6287 9.39979L45.6647 10.1644C45.9819 13.4205 44.8004 16.6398 42.4548 18.9137L48.0297 24.6588ZM44.5605 28.0221L48.0297 24.6588L42.4548 18.9137L38.9856 22.277L44.5605 28.0221ZM39.7342 38.4302C43.0779 34.9264 45.1883 30.4288 45.7472 25.6159L37.7989 24.6832C37.4402 27.7718 36.086 30.6575 33.9407 32.9054L39.7342 38.4302ZM37.2529 41.0302L39.7342 38.4302L33.9407 32.9054L31.4595 35.5054L37.2529 41.0302ZM38.7449 40.3865L38.3071 37.643L30.4053 38.8925L30.843 41.636L38.7449 40.3865ZM39.2053 37.6279L35.3805 37.0561L34.2074 44.9663L38.0322 45.5381L39.2053 37.6279ZM41.9974 38.5806C41.1316 38.0973 40.1857 37.7745 39.2053 37.6279L38.0321 45.5381C38.0567 45.5418 38.0806 45.5499 38.1025 45.5622L41.9974 38.5806ZM42.5684 38.8994L41.9973 38.5806L38.1026 45.5622L38.6736 45.881L42.5684 38.8994ZM46.0051 43.8151C45.6735 41.7372 44.4062 39.9255 42.5684 38.8994L38.6736 45.881C38.3691 45.711 38.1584 45.4104 38.1032 45.0646L46.0051 43.8151ZM42.8953 40.2585L41.4274 40.4893L42.6809 48.3904L44.1488 48.1597L42.8953 40.2585ZM48.6184 44.4166C48.1835 41.691 45.6218 39.8299 42.8953 40.2585L44.1488 48.1597C42.5135 48.4168 40.9775 47.3008 40.7166 45.666L48.6184 44.4166ZM50.4856 56.1176L48.6184 44.4166L40.7166 45.666L42.5838 57.3671L50.4856 56.1176ZM35.7049 62.494L47.1615 60.6929L45.9079 52.7918L34.4513 54.5928L35.7049 62.494ZM31.1272 59.1678L31.1287 59.1777L39.0307 57.9288L39.0291 57.9189L31.1272 59.1678ZM34.4529 54.6027L22.9925 56.4043L24.2461 64.3055L35.7065 62.5038L34.4529 54.6027ZM27.5702 59.7302L25.7031 48.0291L17.8012 49.2786L19.6684 60.9796L27.5702 59.7302ZM25.7031 48.0291C25.9644 49.6667 24.8474 51.2041 23.2092 51.4616L21.9556 43.5605C19.2263 43.9895 17.3659 46.5503 17.8012 49.2786L25.7031 48.0291ZM23.2092 51.4616L24.6771 51.2309L23.4236 43.3297L21.9557 43.5605L23.2092 51.4616ZM28.0013 46.6555C28.0565 47.0017 27.9498 47.3549 27.7104 47.6129L21.84 42.1699C20.409 43.7122 19.7678 45.8267 20.0995 47.905L28.0013 46.6555ZM27.7104 47.6129L28.1543 47.1345L22.2839 41.6915L21.84 42.1699L27.7104 47.6129ZM28.1543 47.1345C28.1704 47.1171 28.1897 47.1026 28.2113 47.092L24.6451 39.9272C23.7577 40.3676 22.9576 40.9653 22.2839 41.6915L28.1543 47.1345ZM28.2113 47.092L31.6708 45.375L28.1047 38.2102L24.6451 39.9272L28.2113 47.092ZM33.8387 41.1679L33.4009 38.4244L25.4991 39.6739L25.9368 42.4174L33.8387 41.1679ZM31.3482 35.5313L28.1789 33.8197L24.3825 40.8553L27.5518 42.567L31.3482 35.5313ZM28.1789 33.8197C25.4366 32.3386 23.2489 30.0078 21.9456 27.179L14.6783 30.5167C16.7077 34.9213 20.1137 38.5498 24.3825 40.8553L28.1789 33.8197ZM20.0723 25.259L15.7258 23.1244L12.205 30.3021L16.5516 32.4367L20.0723 25.259ZM15.7258 23.1244C12.7837 21.6795 10.6565 18.9776 9.94428 15.7828L2.13419 17.5123C3.37534 23.0799 7.0814 27.7858 12.205 30.3021L15.7258 23.1244ZM9.94428 15.7828C9.81209 15.1898 10.2799 14.6356 10.8885 14.6677L11.2987 6.68048C5.40792 6.37031 0.850698 11.7548 2.13419 17.5123L9.94428 15.7828ZM10.8885 14.6677L14.1151 14.8376L14.5253 6.85038L11.2987 6.68048L10.8885 14.6677ZM18.2711 10.2192C18.4985 11.6446 17.5261 12.983 16.1003 13.2071L14.8467 5.30593C11.9052 5.76836 9.90004 8.52819 10.3693 11.4687L18.2711 10.2192ZM16.1003 13.2071L27.549 11.4073L26.2954 3.50614L14.8467 5.30593L16.1003 13.2071ZM22.9696 8.07131L22.9712 8.08119L30.8731 6.83227L30.8716 6.82239L22.9696 8.07131ZM37.7463 1.69587L26.2938 3.49626L27.5474 11.3974L38.9999 9.59704L37.7463 1.69587ZM43.9151 6.17774C43.4463 3.23999 40.6851 1.23388 37.7463 1.69587L38.9999 9.59704C37.5768 9.82076 36.2403 8.84977 36.0133 7.42718L43.9151 6.17774ZM41.5482 1.91505L38.5324 3.06627L41.396 10.5387L44.4117 9.38745L41.5482 1.91505ZM45.8111 21.5812C45.7524 17.1079 45.274 12.6508 44.3833 8.26806L36.5418 9.85029C37.333 13.7432 37.7579 17.7022 37.81 21.6754L45.8111 21.5812ZM42.079 15.8736L39.063 18.7176L44.5581 24.539L47.5741 21.6949L42.079 15.8736ZM43.9426 10.8667C44.1331 12.7368 43.4442 14.5862 42.079 15.8736L47.5741 21.6949C50.7462 18.7037 52.3452 14.4076 51.9033 10.0674L43.9426 10.8667ZM44.8643 11.3822C44.4595 11.5769 43.9879 11.3107 43.9426 10.8667L51.9033 10.0674C51.3866 4.99314 45.9831 1.96291 41.3863 4.17426L44.8643 11.3822ZM42.2015 12.6631L44.8643 11.3822L41.3863 4.17426L38.7236 5.45523L42.2015 12.6631ZM15.0868 9.181L12.1556 8.77944L11.0796 16.7036L14.0108 17.1051L15.0868 9.181ZM12.1556 8.77944C7.09653 8.08639 2.89361 12.6287 3.98307 17.618L11.8007 15.9225C11.897 16.3636 11.524 16.7645 11.0796 16.7036L12.1556 8.77944ZM3.98307 17.618C4.91384 21.8806 7.77081 25.4732 11.7155 27.3435L15.1369 20.1179C13.4342 19.3106 12.2019 17.7602 11.8007 15.9225L3.98307 17.618ZM11.7155 27.3435L15.4693 29.1233L18.8907 21.8976L15.1369 20.1179L11.7155 27.3435ZM20.9983 24.3214C19.8109 20.5265 18.9824 16.6309 18.5228 12.6859L10.5748 13.6003C11.0921 18.0417 12.0249 22.4274 13.3617 26.6996L20.9983 24.3214Z" fill="white" mask="url(#path-1-outside-1_102_82)"/>
</g>
<path d="M22.402 21.0043L22.3756 12.7628L23.6347 12.553L23.6611 20.7946L22.402 21.0043ZM18.4595 19.6157L18.4573 18.3276L24.7527 17.2789L24.7549 18.567L18.4595 19.6157ZM19.5691 21.4762L19.5427 13.2347L20.8017 13.0249L20.8282 21.2665L19.5691 21.4762ZM18.451 16.7503L18.4528 15.4616L24.7482 14.4129L24.7464 15.7016L18.451 16.7503Z" fill="#312107"/>
<path d="M27.678 30.3134L27.7607 30.8057L28.2532 30.7237L34.5909 29.668L35.0848 29.5857L35.0018 29.0919L34.7608 27.6581L34.678 27.1657L34.1855 27.2477L32.5354 27.5226L30.7502 16.9029L30.6674 16.4106L30.1749 16.4926L28.9866 16.6906L28.828 16.717L28.7145 16.8309L25.4364 20.1223L25.0793 20.4808L25.4422 20.8336L26.5263 21.8875L26.8884 22.2394L27.2368 21.8739L28.6557 20.3851L29.9286 27.9569L27.8479 28.3035L27.3539 28.3858L27.4369 28.8796L27.678 30.3134Z" fill="#312107" stroke="#312107"/>
<defs>
<filter id="filter0_d_102_82" x="0.91626" y="0.322388" width="55.801" height="67.6037" filterUnits="userSpaceOnUse" color-interpolation-filters="sRGB">
<feFlood flood-opacity="0" result="BackgroundImageFix"/>
<feColorMatrix in="SourceAlpha" type="matrix" values="0 0 0 0 0 0 0 0 0 0 0 0 0 0 0 0 0 0 127 0" result="hardAlpha"/>
<feOffset dx="1" dy="1"/>
<feGaussianBlur stdDeviation="1"/>
<feComposite in2="hardAlpha" operator="out"/>
<feColorMatrix type="matrix" values="0 0 0 0 0 0 0 0 0 0 0 0 0 0 0 0 0 0 0.25 0"/>
<feBlend mode="normal" in2="BackgroundImageFix" result="effect1_dropShadow_102_82"/>
<feBlend mode="normal" in="SourceGraphic" in2="effect1_dropShadow_102_82" result="shape"/>
</filter>
<linearGradient id="paint0_linear_102_82" x1="25.5" y1="4" x2="37.3975" y2="76.5168" gradientUnits="userSpaceOnUse">
<stop stop-color="#FCF050"/>
<stop offset="1" stop-color="#F1BE3A"/>
</linearGradient>
</defs>
</svg>
