<svg width="69" height="61" viewBox="0 0 69 61" fill="none" xmlns="http://www.w3.org/2000/svg">
<g clip-path="url(#clip0_108_363)">
<g filter="url(#filter0_d_108_363)">
<path d="M66.2061 6.0842C65.3537 4.25261 63.4414 1.81594 59.1718 0.596334C58.5246 0.408686 56.9206 0 55.2451 0C52.1846 0 49.6044 1.35499 48.1661 3.71545C47.5131 4.78746 46.9026 6.34552 47.0943 8.27105C46.4749 9.90256 45.9245 11.5106 45.4403 13.0907C44.089 12.1419 42.4313 11.6757 40.7575 11.7839L36.9424 12.0296C34.7308 12.1721 32.7567 13.2888 31.5371 14.9891C31.0111 15.2748 30.5284 15.6791 30.0976 16.0775C28.2663 16.112 26.647 16.3869 25.4183 17.0777H24.6174C22.6681 17.0777 20.8054 17.7889 19.457 19.1457C18.6289 18.9486 17.7517 18.8167 16.836 18.8167C13.226 18.8167 9.919 20.4171 8.99169 20.9121C7.60943 21.6496 6.51904 22.8004 5.89002 24.1991C5.27245 25.5732 3.48172 28.9458 1.88916 30.6171C0.0898568 32.5056 -0.476918 35.1965 0.417247 37.6129C1.00597 39.2034 2.16671 40.7939 3.79648 41.9272C3.6546 45.1451 3.78574 50.4167 10.5938 53.0551C10.9033 54.0099 11.404 55.0092 12.2045 55.9223L12.2391 55.9617C14.4151 58.473 16.9262 59 18.6499 59C20.5515 59 22.3827 58.3804 24.2471 57.1058C25.9494 55.9898 36.5914 50.1342 40.9647 48.3142C43.0961 48.2043 45.0113 47.3819 46.3981 45.9705C47.783 44.5612 48.5114 42.7254 48.4692 40.7787C48.4814 40.7695 48.4933 40.7601 48.5052 40.7509C49.5658 41.1975 50.7347 41.4381 51.9422 41.4381H51.9424C53.9088 41.4381 55.9321 40.8041 57.6384 39.6535C61.3207 37.1717 62.7432 32.9739 61.3557 29.4397C62.8481 24.1146 64.5802 18.1469 65.0077 16.9948C65.0346 16.9215 65.0609 16.8481 65.0852 16.7742L66.4512 12.6616C67.2567 10.5786 67.1759 8.16698 66.2061 6.0842Z" fill="white"/>
<path d="M17.5932 24.9941C16.2922 22.6328 11.9064 24.2231 10.0755 25.2351C10.0755 25.2351 7.37695 31.4518 4.05142 35.0664C4.05142 35.0664 5.01544 37.7651 7.66594 36.0784L9.0152 34.6326C9.0152 34.6326 8.58144 38.7289 8.38869 42.6324C8.19594 46.5359 8.3887 47.4999 11.2319 48.5602C14.0752 49.6204 15.4247 50.6807 15.714 47.8371C16.0032 44.9942 18.8947 27.3556 17.5932 24.9941Z" fill="#F31260"/>
<path d="M43.6173 16.4644C43.6173 16.1752 42.7983 15.5004 42.7983 15.5004L38.4608 15.7897L38.027 17.1489L35.762 18.2474C34.7503 20.8982 35.3771 21.8619 35.3771 21.8619L36.1958 21.8137L35.714 23.7656C35.5373 24.6805 35.4223 25.5285 35.3535 26.3236C35.1244 22.627 33.1096 20.8169 31.377 20.4633C29.0152 19.9813 26.654 21.3447 26.654 21.3447H23.907C23.907 21.3447 21.642 23.8805 20.0512 28.8923C18.4612 33.9043 18.7985 40.5578 24.2925 42.1963C29.7865 43.8348 32.967 38.1046 34.7985 31.1166C35.0441 30.1791 35.2025 29.3122 35.2906 28.5089C35.5389 35.3468 40.2009 36.7535 42.6538 36.5122C45.5936 36.223 48.1478 33.4759 48.8223 31.376C49.4968 29.2761 50.5093 21.5724 49.1113 19.2109C47.7138 16.8496 43.6173 16.7534 43.6173 16.4644ZM28.8705 32.5607C27.8102 35.9825 25.3045 39.404 24.967 39.0667C24.6297 38.7295 24.0515 37.4282 24.967 31.9825C25.8825 26.5367 28.8705 23.1149 28.8705 23.1149C31.3282 25.5244 29.9307 29.1389 28.8705 32.5607ZM44.34 26.5847C42.872 33.6953 40.6293 33.7172 40.6293 33.7172C38.557 30.392 42.4985 19.4522 42.4985 19.4522C42.4985 19.4522 45.8826 19.1149 44.34 26.5847Z" fill="#F31260"/>
<path d="M39.7457 39.9598C39.7457 39.9598 24.8154 45.5132 14.6257 53.7949C14.6257 53.7949 14.5169 55.1354 15.1165 55.7578C15.7157 56.3801 16.2065 57.0504 18.277 55.7578C20.3476 54.4651 37.9477 45.5609 43.5601 43.9333C43.5601 43.9333 45.5764 44.3162 45.5218 43.4065C45.4672 42.4971 43.3421 40.2472 39.7457 39.9598Z" fill="#F31260"/>
<path d="M60.0561 2.36918C60.0561 2.36918 57.3576 1.54993 56.8756 2.36918C56.3936 3.18843 57.4059 3.38118 56.8756 4.82693C56.3453 6.27268 51.2853 18.6582 52.1046 29.5015C52.1046 29.5015 52.3456 30.7545 54.1286 29.5015C55.9116 28.2485 56.8271 27.0917 56.8271 27.0917C56.8271 27.0917 60.4419 13.6945 61.3573 11.1399L62.9958 6.03168C62.9958 6.03168 64.1523 3.57393 60.0561 2.36918Z" fill="#F31260"/>
<path d="M57.1163 31.1778C56.6212 30.4686 55.3031 30.5335 54.1722 31.3229C53.0414 32.1123 52.526 33.3272 53.0211 34.0365C53.5162 34.7457 54.8343 34.6808 55.9651 33.8914C57.096 33.102 57.6114 31.8871 57.1163 31.1778Z" fill="#F31260"/>
</g>
</g>
<defs>
<filter id="filter0_d_108_363" x="-1" y="-1" width="71" height="63" filterUnits="userSpaceOnUse" color-interpolation-filters="sRGB">
<feFlood flood-opacity="0" result="BackgroundImageFix"/>
<feColorMatrix in="SourceAlpha" type="matrix" values="0 0 0 0 0 0 0 0 0 0 0 0 0 0 0 0 0 0 127 0" result="hardAlpha"/>
<feOffset dx="1" dy="1"/>
<feGaussianBlur stdDeviation="1"/>
<feComposite in2="hardAlpha" operator="out"/>
<feColorMatrix type="matrix" values="0 0 0 0 0 0 0 0 0 0 0 0 0 0 0 0 0 0 0.25 0"/>
<feBlend mode="normal" in2="BackgroundImageFix" result="effect1_dropShadow_108_363"/>
<feBlend mode="normal" in="SourceGraphic" in2="effect1_dropShadow_108_363" result="shape"/>
</filter>
<clipPath id="clip0_108_363">
<rect width="69" height="61" fill="white"/>
</clipPath>
</defs>
</svg>
