<svg width="38" height="38" viewBox="0 0 38 38" fill="none" xmlns="http://www.w3.org/2000/svg">
<g clip-path="url(#clip0_108_360)">
<g filter="url(#filter0_d_108_360)">
<mask id="path-1-outside-1_108_360" maskUnits="userSpaceOnUse" x="1.99838" y="1" width="34" height="35" fill="black">
<rect fill="white" x="1.99838" y="1" width="34" height="35"/>
<path fill-rule="evenodd" clip-rule="evenodd" d="M16.813 5.9192C16.813 4.85925 17.6723 4 18.7322 4C19.7922 4 20.6514 4.85925 20.6514 5.9192V15.4384L29.133 10.6127C30.0443 10.0942 31.2126 10.4072 31.7426 11.3118C32.2725 12.2164 31.9634 13.3701 31.0522 13.8885L22.8384 18.5618L31.0522 23.2352C31.9635 23.7536 32.2725 24.9072 31.7426 25.8118C31.2126 26.7164 30.0443 27.0295 29.133 26.511L20.6514 21.6853V31.0808C20.6514 32.1407 19.7922 33 18.7322 33C17.6723 33 16.813 32.1407 16.813 31.0808V21.99L8.867 26.511C7.95576 27.0295 6.78742 26.7164 6.25745 25.8118C5.72748 24.9072 6.03656 23.7536 6.9478 23.2352L15.1616 18.5618L6.94781 13.8885C6.03657 13.3701 5.72749 12.2164 6.25746 11.3118C6.78743 10.4072 7.95576 10.0942 8.86701 10.6127L16.813 15.1336V5.9192Z"/>
</mask>
<path fill-rule="evenodd" clip-rule="evenodd" d="M16.813 5.9192C16.813 4.85925 17.6723 4 18.7322 4C19.7922 4 20.6514 4.85925 20.6514 5.9192V15.4384L29.133 10.6127C30.0443 10.0942 31.2126 10.4072 31.7426 11.3118C32.2725 12.2164 31.9634 13.3701 31.0522 13.8885L22.8384 18.5618L31.0522 23.2352C31.9635 23.7536 32.2725 24.9072 31.7426 25.8118C31.2126 26.7164 30.0443 27.0295 29.133 26.511L20.6514 21.6853V31.0808C20.6514 32.1407 19.7922 33 18.7322 33C17.6723 33 16.813 32.1407 16.813 31.0808V21.99L8.867 26.511C7.95576 27.0295 6.78742 26.7164 6.25745 25.8118C5.72748 24.9072 6.03656 23.7536 6.9478 23.2352L15.1616 18.5618L6.94781 13.8885C6.03657 13.3701 5.72749 12.2164 6.25746 11.3118C6.78743 10.4072 7.95576 10.0942 8.86701 10.6127L16.813 15.1336V5.9192Z" fill="#F31260"/>
<path d="M20.6514 15.4384H17.6514V20.5968L22.135 18.0459L20.6514 15.4384ZM29.133 10.6127L27.6494 8.00518L29.133 10.6127ZM31.7426 11.3118L29.1541 12.8283L29.1541 12.8283L31.7426 11.3118ZM31.0522 13.8885L29.5686 11.281L29.5686 11.281L31.0522 13.8885ZM22.8384 18.5618L21.3548 15.9543L16.7719 18.5618L21.3548 21.1693L22.8384 18.5618ZM31.0522 23.2352L32.5358 20.6277L31.0522 23.2352ZM31.7426 25.8118L29.1541 24.2953V24.2953L31.7426 25.8118ZM29.133 26.511L30.6166 23.9035L29.133 26.511ZM20.6514 21.6853L22.135 19.0778L17.6514 16.5269V21.6853H20.6514ZM16.813 21.99H19.813V16.8316L15.3295 19.3825L16.813 21.99ZM8.867 26.511L7.38344 23.9035L7.38344 23.9035L8.867 26.511ZM6.9478 23.2352L5.46424 20.6277L5.46424 20.6277L6.9478 23.2352ZM15.1616 18.5618L16.6452 21.1693L21.2281 18.5618L16.6452 15.9543L15.1616 18.5618ZM6.94781 13.8885L8.43137 11.281L8.43137 11.281L6.94781 13.8885ZM6.25746 11.3118L8.84594 12.8283L8.84594 12.8283L6.25746 11.3118ZM8.86701 10.6127L10.3506 8.00518L10.3506 8.00518L8.86701 10.6127ZM16.813 15.1336L15.3295 17.7411L19.813 20.2921V15.1336H16.813ZM18.7322 1C16.0154 1 13.813 3.2024 13.813 5.9192H19.813C19.813 6.5161 19.3291 7 18.7322 7V1ZM23.6514 5.9192C23.6514 3.2024 21.449 1 18.7322 1V7C18.1353 7 17.6514 6.51611 17.6514 5.9192H23.6514ZM23.6514 15.4384V5.9192H17.6514V15.4384H23.6514ZM27.6494 8.00518L19.1679 12.8309L22.135 18.0459L30.6166 13.2202L27.6494 8.00518ZM34.331 9.79534C32.971 7.47396 29.9879 6.67471 27.6494 8.00518L30.6166 13.2202C30.1006 13.5137 29.4541 13.3405 29.1541 12.8283L34.331 9.79534ZM32.5358 16.496C34.9 15.1508 35.7061 12.1423 34.331 9.79534L29.1541 12.8283C28.839 12.2905 29.0269 11.5893 29.5686 11.281L32.5358 16.496ZM24.322 21.1693L32.5358 16.496L29.5686 11.281L21.3548 15.9543L24.322 21.1693ZM32.5358 20.6277L24.322 15.9543L21.3548 21.1693L29.5686 25.8427L32.5358 20.6277ZM34.331 27.3283C35.7061 24.9813 34.9 21.9728 32.5358 20.6277L29.5686 25.8427C29.0269 25.5344 28.839 24.8332 29.1541 24.2953L34.331 27.3283ZM27.6495 29.1185C29.9879 30.449 32.971 29.6497 34.331 27.3283L29.1541 24.2953C29.4541 23.7832 30.1006 23.61 30.6166 23.9035L27.6495 29.1185ZM19.1679 24.2928L27.6495 29.1185L30.6166 23.9035L22.135 19.0778L19.1679 24.2928ZM23.6514 31.0808V21.6853H17.6514V31.0808H23.6514ZM18.7322 36C21.449 36 23.6514 33.7976 23.6514 31.0808H17.6514C17.6514 30.4839 18.1353 30 18.7322 30V36ZM13.813 31.0808C13.813 33.7976 16.0154 36 18.7322 36V30C19.3291 30 19.813 30.4839 19.813 31.0808H13.813ZM13.813 21.99V31.0808H19.813V21.99H13.813ZM10.3506 29.1185L18.2966 24.5975L15.3295 19.3825L7.38344 23.9035L10.3506 29.1185ZM3.66897 27.3283C5.02898 29.6497 8.01213 30.449 10.3506 29.1185L7.38344 23.9035C7.89939 23.61 8.54586 23.7832 8.84593 24.2953L3.66897 27.3283ZM5.46424 20.6277C3.09999 21.9728 2.29395 24.9813 3.66897 27.3283L8.84593 24.2953C9.16102 24.8332 8.97313 25.5344 8.43137 25.8427L5.46424 20.6277ZM13.6781 15.9543L5.46424 20.6277L8.43137 25.8427L16.6452 21.1693L13.6781 15.9543ZM5.46425 16.496L13.6781 21.1693L16.6452 15.9543L8.43137 11.281L5.46425 16.496ZM3.66898 9.79534C2.29395 12.1423 3.09999 15.1508 5.46425 16.496L8.43137 11.281C8.97314 11.5893 9.16102 12.2905 8.84594 12.8283L3.66898 9.79534ZM10.3506 8.00518C8.01214 6.67471 5.02899 7.47396 3.66898 9.79534L8.84594 12.8283C8.54587 13.3405 7.89939 13.5137 7.38345 13.2202L10.3506 8.00518ZM18.2966 12.5261L10.3506 8.00518L7.38345 13.2202L15.3295 17.7411L18.2966 12.5261ZM13.813 5.9192V15.1336H19.813V5.9192H13.813Z" fill="white" mask="url(#path-1-outside-1_108_360)"/>
</g>
</g>
<defs>
<filter id="filter0_d_108_360" x="0.997864" y="0" width="36.0043" height="39" filterUnits="userSpaceOnUse" color-interpolation-filters="sRGB">
<feFlood flood-opacity="0" result="BackgroundImageFix"/>
<feColorMatrix in="SourceAlpha" type="matrix" values="0 0 0 0 0 0 0 0 0 0 0 0 0 0 0 0 0 0 127 0" result="hardAlpha"/>
<feOffset dy="1"/>
<feGaussianBlur stdDeviation="1"/>
<feComposite in2="hardAlpha" operator="out"/>
<feColorMatrix type="matrix" values="0 0 0 0 0 0 0 0 0 0 0 0 0 0 0 0 0 0 0.25 0"/>
<feBlend mode="normal" in2="BackgroundImageFix" result="effect1_dropShadow_108_360"/>
<feBlend mode="normal" in="SourceGraphic" in2="effect1_dropShadow_108_360" result="shape"/>
</filter>
<clipPath id="clip0_108_360">
<rect width="38" height="38" fill="white"/>
</clipPath>
</defs>
</svg>
