<svg width="66" height="53" viewBox="0 0 66 53" fill="none" xmlns="http://www.w3.org/2000/svg">
<g clip-path="url(#clip0_108_364)">
<g filter="url(#filter0_d_108_364)">
<path d="M60.7273 5.00996C58.265 2.45048 54.5936 0.982675 50.655 0.982675C49.6748 0.982675 48.7205 1.07569 47.8205 1.25887C47.5909 1.30562 46.9161 1.45302 46.0124 1.73781C44.3408 0.619182 42.3359 0 40.1628 0C37.6804 0 35.5088 0.819053 33.8798 1.86445C33.7898 1.89761 33.7044 1.92933 33.6219 1.9601C31.8769 0.739629 29.8057 0.0768026 27.5722 0.0768026C24.9897 0.0768026 22.7989 0.958346 21.1323 2.1304C19.7948 1.33186 18.2073 0.890132 16.5287 0.890132C15.424 0.890132 14.3179 1.07641 13.1873 1.45564C8.89193 1.78193 5.04205 4.05281 2.94963 6.01768C-1.25026 9.96006 -0.0936577 16.0779 1.14182 20.3387C2.53529 25.1416 5.3801 27.6703 6.90848 29.0303C6.99903 29.1107 7.08699 29.1842 7.17105 29.2603C8.24722 30.2344 9.4788 30.8786 10.7239 31.301C10.5812 31.4224 10.4413 31.5476 10.3062 31.679C7.5532 34.3571 7.38561 38.0182 7.5846 41.2501C7.99841 47.9723 13.3134 49.6274 15.8668 50.3975C17.0948 50.7679 18.3401 51 19.5683 51C19.5686 51 19.5686 51 19.5689 51C21.7632 51 23.7825 50.4741 25.48 49.4272C27.1379 50.1046 28.8922 50.523 30.6295 50.523C30.6297 50.523 30.6297 50.523 30.63 50.523C31.1741 50.523 31.7212 50.371 32.2575 50.3024C33.425 50.1526 34.5492 49.7647 35.6009 49.2503C37.4056 50.075 39.5105 50.7615 41.9023 50.7615C41.9026 50.7615 41.9026 50.7615 41.9029 50.7615C43.4616 50.7615 44.9295 50.4292 46.2659 49.8117C48.2359 48.9011 53.0193 46.2257 54.8898 41.1537C55.2419 40.1985 56.0919 37.6953 56.3747 35.1313C56.6336 32.7841 56.3329 30.9234 55.7465 29.4575C55.9193 29.3397 56.089 29.2181 56.253 29.0909C57.8496 27.8528 62.7085 24.0841 63.8565 15.5074C64.5599 10.2506 62.5432 6.89708 60.7273 5.00996Z" fill="white"/>
<path d="M18.1416 23.7828C19.9459 22.0601 18.5928 15.6912 18.1416 14.5135C17.6907 13.3358 17.3568 13.8374 16.3593 14.2081C15.3618 14.5788 14.2125 15.364 14.2125 15.364C14.2125 15.364 14.2558 16.0837 14.6466 16.2145C15.0367 16.3453 15.7955 15.9311 15.7955 15.9311L16.3593 18.6358C17.14 23.3907 15.9472 23.2378 15.9472 23.2378C11.7405 21.493 9.62187 10.7235 9.36945 8.99395C9.05866 6.86503 11.632 6.80722 12.0874 7.99207C12.4601 8.96236 12.3028 9.21536 13.3957 9.42426C14.2884 9.59502 16.0124 9.16977 16.2292 8.7773C16.2292 8.7773 15.6871 5.35298 15.1236 4.43693C14.7206 3.78222 13.3913 4.44021 12.6634 4.87022C9.72113 4.4417 6.5164 6.72289 5.38733 7.88301C4.02835 9.27884 4.52016 13.292 5.56065 17.2179C6.60173 21.1437 8.70493 22.9323 10.0929 24.3064C11.4807 25.6808 16.3377 25.5062 18.1416 23.7828Z" fill="#17C964"/>
<path d="M28.1555 23.945C29.5688 23.5066 31.2082 21.1045 31.4373 17.8307C31.7412 13.4907 31.9797 9.06436 29.875 5.15138C27.8867 1.45475 24.9904 3.5605 24.276 4.75008C23.9754 4.92966 22.3271 5.91933 21.8065 6.32094C21.233 6.76348 20.3932 6.36277 20.4218 12.7353C20.4503 19.1078 22.1506 22.0138 23.6354 23.0136C25.1201 24.0131 26.7422 24.3834 28.1555 23.945ZM25.0428 14.711C24.6151 9.3046 24.6283 6.89138 24.7207 5.81445C24.8992 5.65548 25.2981 5.34262 25.5622 5.45557C25.9107 5.60468 29.0814 6.52234 28.6199 15.4168C28.1576 24.3108 25.7028 23.0527 25.0428 14.711Z" fill="#17C964"/>
<path d="M35.4223 22.1368C36.7309 23.3719 38.2801 24.0114 39.7563 23.8201C41.2322 23.6284 43.2596 21.5437 44.0298 18.3619C45.0518 14.1443 46.0231 9.83025 44.5823 5.62364C43.2211 1.64972 39.9955 3.22947 39.0887 4.27867C38.7614 4.40394 36.9594 5.09785 36.3758 5.40523C35.733 5.74356 34.9655 5.20676 33.9366 11.4805C32.9075 17.7543 34.1137 20.9016 35.4223 22.1368ZM38.1973 14.208C38.6698 8.81647 39.0831 6.44491 39.3536 5.40107C39.5571 5.2752 40.005 5.03477 40.2486 5.19039C40.5703 5.3963 43.5667 6.83709 41.632 15.5086C39.6975 24.1804 37.4685 22.526 38.1973 14.208Z" fill="#17C964"/>
<path d="M52.4224 4.29424C49.8449 4.86739 46.8487 6.83994 47.5759 7.34171C48.1778 7.75722 48.8763 7.4583 50.1349 6.83727C49.9077 7.70992 48.5812 12.8293 47.5835 17.1697C47.3252 18.2934 46.0129 22.5645 48.1684 23.6587C50.3232 24.7529 53.0755 24.5891 54.3845 23.4791C55.6941 22.3687 59.0969 19.5066 59.9842 12.2603C60.9037 4.74723 54.9998 3.7205 52.4224 4.29424ZM52.4002 21.7822C52.4002 21.7822 51.7544 22.6641 50.5925 22.4922C50.5925 22.4922 50.7035 21.9101 52.4954 12.768C53.1554 9.39992 53.8334 7.7477 53.9305 6.79086C54.2658 7.08562 54.5488 7.44045 54.7829 7.78785C56.3286 10.0825 56.7832 15.5246 52.4002 21.7822Z" fill="#17C964"/>
<path d="M28.8964 28.1536C28.5433 28.2868 26.5958 29.025 25.97 29.3474C25.281 29.702 24.4018 29.1767 23.6436 35.5277C22.8859 41.8783 24.4066 45.0282 25.9247 46.247C27.4428 47.4658 29.1911 48.0783 30.8087 47.8541C32.4256 47.6299 34.465 45.5372 35.1959 42.2579C36.1465 37.9975 36.8821 33.6091 35.0392 29.3956C33.2985 25.4149 29.8341 27.0762 28.8964 28.1536ZM32.3791 39.4298C30.7662 48.2184 28.2065 46.5963 28.5102 38.1898C28.707 32.7408 29.0208 30.3395 29.2562 29.2805C29.4731 29.1492 29.9531 28.8972 30.2314 29.0494C30.5987 29.2505 33.9919 30.6409 32.3791 39.4298Z" fill="#17C964"/>
<path d="M16.1735 29.2669C17.6639 45.7459 16.9603 46.1599 16.2561 45.9117C15.5525 45.6633 15.7592 44.007 15.7592 44.007C15.6351 40.5704 15.6766 39.9906 13.896 39.5766C12.1156 39.1626 12.1571 42.9303 12.2812 45.1249C12.4052 47.3192 12.9851 47.6091 15.6351 48.4786C18.2849 49.3483 20.1896 47.8987 20.7276 44.9591C21.266 42.0194 19.9411 29.5154 19.8171 28.563C19.6927 27.6107 16.1735 29.2669 16.1735 29.2669Z" fill="#17C964"/>
<path d="M49.1762 33.0023C49.1762 33.0023 48.2881 32.5362 47.217 32.7162C47.217 32.7162 49.6375 29.7973 48.8507 28.1757C48.0639 26.5541 45.0001 26.7282 43.6889 27.1537C42.3785 27.5796 41.1984 28.5879 41.1984 28.5879C41.1984 28.5879 40.833 28.1952 40.4717 28.3048C40.1107 28.4143 39.0506 29.0356 39.0145 29.4733C39.0145 29.4733 37.5777 46.6488 38.0479 46.8288C38.5188 47.0089 41.8292 49.1626 43.5713 48.2867C45.314 47.4104 48.018 45.5084 48.9925 42.6339C49.9668 39.7596 51.3432 34.0097 49.1762 33.0023ZM42.6039 29.7558C42.6039 29.7558 44.4935 27.5695 45.688 28.0596C46.8829 28.55 42.3563 32.9075 42.3563 32.9075L42.6039 29.7558ZM45.3813 40.9412C43.9134 45.0544 41.3595 45.6026 41.3595 45.6026L42.0264 37.1099C42.3089 37.4404 42.4505 37.3195 43.0033 37.0104C43.5562 36.7015 46.5305 34.1601 46.6484 34.3452C46.7654 34.5309 46.8498 36.828 45.3813 40.9412Z" fill="#17C964"/>
</g>
</g>
<defs>
<filter id="filter0_d_108_364" x="-1" y="-1" width="68" height="55" filterUnits="userSpaceOnUse" color-interpolation-filters="sRGB">
<feFlood flood-opacity="0" result="BackgroundImageFix"/>
<feColorMatrix in="SourceAlpha" type="matrix" values="0 0 0 0 0 0 0 0 0 0 0 0 0 0 0 0 0 0 127 0" result="hardAlpha"/>
<feOffset dx="1" dy="1"/>
<feGaussianBlur stdDeviation="1"/>
<feComposite in2="hardAlpha" operator="out"/>
<feColorMatrix type="matrix" values="0 0 0 0 0 0 0 0 0 0 0 0 0 0 0 0 0 0 0.25 0"/>
<feBlend mode="normal" in2="BackgroundImageFix" result="effect1_dropShadow_108_364"/>
<feBlend mode="normal" in="SourceGraphic" in2="effect1_dropShadow_108_364" result="shape"/>
</filter>
<clipPath id="clip0_108_364">
<rect width="66" height="53" fill="white"/>
</clipPath>
</defs>
</svg>
