<svg width="59" height="55" viewBox="0 0 59 55" fill="none" xmlns="http://www.w3.org/2000/svg">
<g clip-path="url(#clip0_108_365)">
<g filter="url(#filter0_d_108_365)">
<path d="M56.2539 35.3447C54.7564 32.4755 52.6368 31.2499 50.6835 30.7919C52.3688 29.8498 53.6731 28.5127 54.4535 26.8528C55.4222 24.7928 55.4379 23.0481 55.1167 21.7038C55.8956 20.2813 56.1013 18.6234 55.676 17.0704C55.5676 16.6741 55.4273 16.3022 55.259 15.9506C55.3087 15.8501 55.3555 15.7511 55.3999 15.6476C56.707 12.5937 56.6164 10.0289 55.1311 7.90885C53.858 6.09195 51.7311 5.07222 49.4405 5.07222C49.4403 5.07222 49.4396 5.07222 49.4394 5.07222C48.0759 5.07222 46.1653 5.31805 44.4374 5.65825C43.8811 5.38575 43.2834 5.14775 42.6509 5.00938C41.9855 4.86362 41.0937 4.68315 40.0974 4.68315C39.1323 4.68315 37.768 4.8395 36.3886 5.54506C36.0418 5.46445 35.6799 5.39845 35.3042 5.35613C33.1738 5.1158 31.498 5.29288 30.0864 5.90048C29.0856 5.53363 27.8821 5.28886 26.4409 5.28886C26.032 5.28886 25.6055 5.30811 25.1729 5.34725C24.2067 5.43441 23.2793 5.72637 22.4496 6.19138C21.9892 5.97707 21.5037 5.79682 20.9956 5.65465C20.8401 5.11136 20.6262 4.57124 20.3373 4.03958C18.9623 1.51014 16.4266 0 13.5541 0C12.1149 0 10.8179 0.382719 9.68225 0.974249C9.41208 0.95013 9.13507 0.937434 8.85231 0.937434C7.94305 0.937434 7.02054 1.07474 6.11062 1.34575C3.80325 2.03248 1.96066 3.54558 0.922176 5.60641C-0.71541 8.85601 0.131328 12.4765 1.12983 14.941C2.64592 18.6833 4.86714 20.3054 6.83101 20.9644C6.40797 23.2639 6.56017 24.8078 7.15044 26.2736C8.23376 28.9644 10.9304 30.9544 15.1654 32.1882C15.6839 32.3393 16.2145 32.4241 16.746 32.4508C15.8575 35.8753 15.3218 38.5103 15.1217 40.4389C14.8628 42.9379 15.6406 45.3233 17.3119 47.0909C19.003 48.8792 21.4767 49.9235 24.0991 49.9235C24.0993 49.9235 24.0995 49.9235 24.0998 49.9235C25.3596 49.9235 26.547 49.6404 27.6016 49.1964C28.6138 49.676 29.8915 49.9732 31.5006 49.9732C31.7434 49.9732 32.0005 49.9536 32.2632 49.9457C32.3765 49.9423 32.4918 49.9315 32.6062 49.9305L32.6407 49.9275C32.8203 49.9354 32.9676 49.939 33.1886 49.939V49.9381C34.7349 49.9381 36.1719 49.5065 37.3929 48.714C37.7624 49.1213 38.172 49.522 38.6571 49.9197C39.7462 50.8127 41.4651 52 43.8683 52C46.0288 52 48.062 50.9976 49.3106 49.3227C49.4071 49.1936 49.5045 49.0504 49.6028 48.8936C50.9952 47.7114 52.4024 46.3204 52.4899 46.2336C53.5801 45.154 54.4202 44.2202 55.059 43.3788C57.6987 39.9028 57.1654 37.0912 56.2539 35.3447Z" fill="white"/>
<path d="M42.6737 45.5503C42.6737 45.5503 44.8156 47.0121 45.1554 46.7063C45.4955 46.4002 45.0194 43.4227 45.4275 41.1379C45.8353 38.8531 46.4475 38.241 46.5835 38.9211C46.7195 39.601 47.3314 40.6209 48.5551 40.2809C49.7791 39.9408 50.7647 39.21 49.371 41.0543C47.9772 42.8986 43.428 45.9244 43.7306 46.5703C44.0332 47.2161 45.7333 48.6102 45.9031 48.3721C46.0734 48.1341 45.7341 47.794 46.3626 47.4202C46.991 47.0464 54.2324 40.4509 53.5523 39.0909C52.8724 37.7309 52.3965 36.881 48.8269 38.0369C48.8269 38.0369 48.82 38.0781 48.5888 37.187C48.3508 36.2694 46.7148 35.6543 45.4613 36.0964C44.2075 36.5385 43.1493 38.2412 42.8432 40.2128C42.5377 42.1845 42.6737 45.5503 42.6737 45.5503Z" fill="#F31260"/>
<path d="M5.66147 10.9729C6.52781 13.2055 7.39414 13.8052 7.89384 13.8719C8.39354 13.9386 10.4262 14.0052 10.6928 13.4722C10.9595 12.9392 15.4343 6.74922 14.0249 4.04221C12.7586 1.60959 9.79317 5.74155 9.62652 6.24125C9.62652 6.24125 9.02657 3.8089 6.56088 4.57524C4.09519 5.34159 4.79513 8.74027 5.66147 10.9729Z" fill="#F31260"/>
<path d="M20.2544 18.9495C20.2544 18.9495 18.7997 19.7239 17.1824 21.4083L19.512 12.0981C18.8162 10.1136 15.5695 10.8695 15.5695 10.8695C12.4156 19.3271 11.3024 23.4377 11.8126 24.761C12.3228 26.0843 15.8942 27.1706 15.8942 27.1706L20.6713 21.5009C20.6718 21.5009 21.6922 19.7057 20.2544 18.9495Z" fill="#F31260"/>
<path d="M29.3659 12.7367C29.3659 12.7367 29.252 12.6597 29.1163 12.6607C29.1463 12.0174 28.9044 10.5111 25.9068 10.7938C25.9068 10.7938 23.6798 12.6856 22.5901 18.9246C21.5003 25.1636 24.3804 26.8513 25.8545 27.0558C27.3286 27.2604 30.4084 26.1864 31.5457 20.3054C31.5457 20.3054 32.3038 15.2681 31.2141 14.0664C30.4116 13.1817 29.3659 12.7367 29.3659 12.7367ZM26.049 25.0614C26.049 25.0614 25.6227 21.6862 27.8971 15.1403C27.8971 15.1403 28.2565 14.2645 28.6658 13.5562C28.6579 13.7744 28.6675 14.042 28.7025 14.3731C28.9396 16.6235 28.3709 23.4761 26.049 25.0614Z" fill="#F31260"/>
<path d="M43.6993 10.2323C42.0295 9.85058 41.5845 10.0182 40.912 11.5443C40.2394 13.0702 37.7854 19.4931 37.7854 19.4931L38.0638 12.1912C38.0638 12.1912 37.9247 10.9521 36.4868 10.783C35.0489 10.6138 34.6085 10.8178 34.6085 10.8178C34.6085 10.8178 34.075 19.3912 33.9359 21.0959C33.7969 22.8004 33.7041 25.2175 34.9564 26.0826C36.2087 26.9475 37.5305 27.4819 37.8089 26.4897C38.0873 25.4973 44.2095 11.3772 44.2095 11.3772C44.2095 11.3772 44.6862 10.4579 43.6993 10.2323Z" fill="#F31260"/>
<path d="M53.062 12.5722C53.062 12.5722 53.9657 10.3677 53.2495 10.368C51.3805 10.3682 46.4967 11.5908 46.4967 11.5908C46.4967 11.5908 44.5486 17.2261 44.1544 19.0202C43.7602 20.8144 42.3223 24.9339 44.0153 26.1217C44.0904 26.1742 44.1626 26.2193 44.2352 26.2653L44.2338 26.2665C45.8707 27.562 51.0966 27.3517 52.1322 25.0521C53.1678 22.7525 51.0422 23.19 51.0422 23.19C50.83 24.6697 48.4017 24.5687 47.2035 24.4263C47.3711 23.5104 47.5965 22.3696 47.8845 21.0851C49.6139 20.7859 53.1673 19.1526 53.0596 18.7424C52.9203 18.2115 51.5522 17.7567 50.8101 17.883C50.4301 17.9478 49.3991 18.2777 48.4837 18.5841C49.074 16.2365 49.5175 14.6522 49.7043 13.7259L53.062 12.5722Z" fill="#F31260"/>
<path d="M24.3078 30.6925C22.9593 35.5384 21.5654 41.0562 21.2344 44.3899C20.9035 47.7233 25.1589 47.6018 25.1117 46.6322C25.0643 45.6626 28.1376 34.3288 28.2322 32.5108C28.3265 30.6925 24.3078 30.6925 24.3078 30.6925Z" fill="#F31260"/>
<path d="M39.6105 30.6925C38.7594 30.1724 37.4994 29.9042 31.6836 31.3463C31.6836 31.3463 30.2887 31.7953 29.556 31.5827C29.556 31.5827 30.9035 33.1274 31.6599 33.2692C32.0828 33.3484 32.5597 33.3633 33.2607 33.3117C32.7718 35.6887 32.6393 36.1057 32.0026 39.1436C31.3486 42.2634 30.4872 46.4982 30.8111 46.9651C31.1352 47.4322 32.2776 47.2706 33.3469 47.2706C34.2479 47.2706 34.822 47.6409 35.3329 44.7958C35.9359 41.4377 37.0898 35.1986 37.4334 32.8422C38.8193 32.7151 40.0111 32.6408 40.313 32.5442C40.7566 32.4022 40.4616 31.2124 39.6105 30.6925Z" fill="#F31260"/>
</g>
</g>
<defs>
<filter id="filter0_d_108_365" x="-1" y="-1" width="61" height="56" filterUnits="userSpaceOnUse" color-interpolation-filters="sRGB">
<feFlood flood-opacity="0" result="BackgroundImageFix"/>
<feColorMatrix in="SourceAlpha" type="matrix" values="0 0 0 0 0 0 0 0 0 0 0 0 0 0 0 0 0 0 127 0" result="hardAlpha"/>
<feOffset dx="1" dy="1"/>
<feGaussianBlur stdDeviation="1"/>
<feComposite in2="hardAlpha" operator="out"/>
<feColorMatrix type="matrix" values="0 0 0 0 0 0 0 0 0 0 0 0 0 0 0 0 0 0 0.25 0"/>
<feBlend mode="normal" in2="BackgroundImageFix" result="effect1_dropShadow_108_365"/>
<feBlend mode="normal" in="SourceGraphic" in2="effect1_dropShadow_108_365" result="shape"/>
</filter>
<clipPath id="clip0_108_365">
<rect width="59" height="55" fill="white"/>
</clipPath>
</defs>
</svg>
