<svg width="112" height="43" viewBox="0 0 112 43" fill="none" xmlns="http://www.w3.org/2000/svg">
<g clip-path="url(#clip0_108_366)">
<g filter="url(#filter0_d_108_366)">
<path d="M102.188 0.0521143C100.455 -0.168473 98.7033 0.318149 97.4014 1.38013C96.321 2.26158 95.6418 3.4651 95.4739 4.75701C95.0452 5.97635 93.0677 9.81149 91.7638 11.8002C91.6783 11.9306 91.5933 12.0619 91.5084 12.1938C90.4666 11.4467 89.196 10.8548 87.6955 10.5728C87.202 10.4801 86.6932 10.433 86.1835 10.433C84.6282 10.433 83.1718 10.8639 81.8278 11.5703C80.4007 10.712 79.0701 10.442 78.5772 10.3673C77.3751 10.1851 76.1583 10.3452 75.0831 10.8027C75.0595 10.7928 75.0405 10.7849 75.0261 10.7792C73.6793 10.23 72.231 10.0033 70.8535 10.3784C70.2311 10.206 69.6183 10.1034 69.0506 10.061C67.6306 9.95484 66.267 10.3191 65.1621 11.0224C64.7817 10.8765 64.3689 10.7506 63.9199 10.6549C62.906 10.2316 61.7936 10.0078 60.6503 10.0078C60.2976 10.0078 59.9553 10.0294 59.6328 10.0721C58.6777 10.1984 57.7759 10.5367 57 11.049C55.6336 10.5022 54.2553 10.2417 53.2418 10.2417C52.9779 10.2417 52.7141 10.2559 52.4557 10.2839C52.0313 10.3304 51.2739 10.4142 50.1411 10.948C49.1436 10.6094 48.0405 10.4262 46.8646 10.4262C46.5159 10.4262 46.1539 10.4415 45.7878 10.4715C45.7369 10.4756 45.6865 10.4822 45.6359 10.4871C44.4044 9.55965 42.6523 8.68502 40.4211 8.68502C39.1087 8.68502 37.8108 9.00764 36.6687 9.61713C35.7002 10.1337 34.3888 11.1564 33.1168 12.2951C33.1281 11.424 32.9305 10.5544 32.5102 9.74144C31.1992 7.20612 28.2353 5.84559 23.9368 5.80517C21.1374 5.73835 18.4283 6.93433 15.1308 9.68162C13.2737 11.2286 11.1871 13.3105 8.92906 15.8694C5.72215 19.5033 1.64652 24.7768 0.654368 26.9593C-0.70589 29.9501 0.358656 32.1178 1.11425 33.1435C2.36769 34.8453 4.45961 35.821 6.85376 35.821C8.5386 35.821 10.0882 35.3269 10.676 35.1144C10.8396 35.0553 10.9994 34.9899 11.1557 34.9182C11.523 35.5184 11.8964 36.012 12.2279 36.4011C13.0278 37.3398 15.2125 39.6416 18.2177 39.8841C18.4111 39.8996 18.6071 40 18.8004 40C18.8004 40 18.8008 40 18.8012 40C20.7277 40 22.5356 39.1369 23.761 37.7929C25.1133 36.3095 25.3991 34.5191 25.3485 33.1496C25.77 33.0538 26.1796 32.8936 26.595 32.6991C27.275 32.9669 28.0077 33.1399 28.7801 33.234C29.2293 33.289 29.6842 33.2904 30.1356 33.2516L31.0257 33.1711C32.347 33.0558 33.5712 32.5408 34.5194 31.7326C36.0883 32.7734 38.022 33.3806 40.1371 33.3806L40.1373 33.3802C41.0319 33.3802 41.9412 33.2703 42.839 33.0538C44.326 32.6956 45.0338 32.5255 45.3712 32.4443C46.9071 33.3127 48.3477 33.4885 49.2593 33.4885C49.7772 33.4885 50.2948 33.4355 50.7954 33.3315C50.869 33.3163 50.9499 33.3006 51.0367 33.2838C51.7423 33.1471 52.9993 32.9024 54.405 32.3342C55.2882 32.8516 56.3168 33.3691 57.4883 33.4995C57.8295 33.5377 58.1798 33.7129 58.5295 33.7129C58.5299 33.7129 58.5297 33.7129 58.5301 33.7129C59.5692 33.7129 60.7146 33.3764 61.8624 32.976C62.7068 33.3423 63.6479 33.4963 64.6545 33.4963C66.5985 33.4963 68.4252 32.6173 69.5414 31.1815C69.5878 31.1215 69.6331 31.1932 69.6768 31.1319C71.6776 33.2079 73.9752 33.7129 75.3105 33.7129H75.3109C76.5565 33.7129 77.7575 33.2651 78.8209 32.6951C78.9522 32.7526 79.0843 32.7409 79.2178 32.7917C80.3807 33.2342 81.6899 33.4246 83.1091 33.4246C85.8368 33.4246 88.7707 32.567 91.1207 31.1373C92.3152 31.95 93.4118 32.7373 95.0004 32.8147C95.2023 32.8246 95.7601 32.8147 95.9543 32.8147C95.9543 32.8147 95.9543 32.8147 95.9547 32.8147C100.766 32.8147 102.418 29.6459 102.809 28.7274C103.299 27.5778 103.374 26.2916 103.078 25.1215C103.163 24.63 103.171 24.0888 103.094 23.5748C103.093 23.5653 103.093 23.5377 103.092 23.526C103.724 22.0051 105.764 17.9689 106.476 16.8733C108.277 14.1045 110.341 10.116 109.952 6.85871C109.466 2.77856 105.702 0.498139 102.188 0.0521143Z" fill="white"/>
<path d="M24.5232 11.3912C26.056 9.52131 21.2426 9.49147 21.2426 9.49147C16.279 9.27812 3.57302 27.634 2.45244 30.3477C1.33186 33.061 4.94247 31.6243 4.94247 31.6243C5.716 30.3734 6.50489 29.1517 7.28977 27.9735L12.2869 26.256C11.0442 33.7202 15.0928 36.6085 15.8436 36.6752C16.8888 36.7674 16.486 34.6484 16.486 34.6484C11.6348 28.7876 22.9907 13.2614 24.5232 11.3912ZM12.7321 24.2212C11.7788 24.3591 10.2345 24.9792 8.92745 25.5657C13.0812 19.5857 16.7086 15.2568 16.7086 15.2568C14.6543 18.7209 13.4112 21.6921 12.7321 24.2212Z" fill="#9353D3"/>
<path d="M41.2903 14.4783C41.2903 14.4783 39.6847 12.1469 38.0904 13.084C37.3505 13.5185 34.9792 15.6348 33.0744 17.963C30.8742 20.652 29.164 23.5642 29.164 23.5642C29.164 23.5642 30.4463 19.8255 29.9935 19.6078C29.5407 19.39 27.4578 19.2847 27.4578 19.2847L22.7069 24.2269C22.7069 24.2269 27.2884 16.798 27.8324 16.6152C27.8324 16.6152 26.3898 14.1838 25.1372 15.3058C25.1372 15.3058 18.5994 25.1875 18.4091 27.2528C18.4091 27.2528 20.4973 29.0994 21.2248 29.0298C21.9523 28.9598 25.7334 24.2908 25.7334 24.2908C25.7334 24.2908 24.4156 28.6256 27.3513 29.0193L28.2972 28.9285C28.2972 28.9285 37.5346 14.4905 41.2903 14.4783Z" fill="#9353D3"/>
<path d="M42.9319 25.3767C40.8018 26.3241 37.0219 27.1924 36.9685 26.4346C36.9452 26.1002 37.3326 24.6805 38.5619 22.9161C42.5813 21.9931 46.639 19.7 47.5651 18.5561C48.5239 17.3721 48.8293 14.5955 45.1546 14.9268C42.584 15.1589 38.4767 18.7266 36.2553 21.7421C34.7541 21.9042 34.1407 21.5893 33.9305 21.8363V22.2033C33.9305 22.2033 33.9578 22.9865 35.3067 23.1993C34.9153 23.9095 34.7011 24.5382 34.7011 25.0143C34.7011 27.6193 36.8008 29.7821 39.8365 28.9766C42.872 28.1715 42.8754 28.1715 42.8754 28.1715C42.8754 28.1715 45.0623 24.4293 42.9319 25.3767ZM46.0894 16.7403C47.7935 16.7403 42.8754 20.3014 39.3742 20.9119C40.9523 19.3568 44.3853 16.7403 46.0894 16.7403Z" fill="#9353D3"/>
<path d="M52.4275 14.6878C51.7202 14.773 48.5348 17.4509 48.6399 18.3237C48.745 19.1964 49.2184 20.2556 49.8231 20.4913C50.4281 20.7263 51.9224 21.0081 52.0563 21.8006C52.19 22.5928 52.9204 24.1901 50.5235 25.6723C48.1266 27.1542 46.7939 27.1838 47.1952 26.5196C47.596 25.8555 49.3788 22.4644 48.4244 22.8394C47.4703 23.2142 45.398 25.1575 45.4135 25.9258C45.4291 26.694 47.0825 29.5744 48.5039 29.2492C49.9255 28.9245 53.2168 28.4898 54.473 24.8741C55.7289 21.2585 52.0645 19.1624 51.5871 19.0274C51.1098 18.8925 53.2107 16.942 53.2107 16.942C53.2107 16.942 52.2066 18.1793 53.3753 18.3081C54.5438 18.4367 54.8467 18.4002 55.5342 17.086C56.2218 15.7712 53.1346 14.6029 52.4275 14.6878Z" fill="#9353D3"/>
<path d="M61.7299 14.9283C61.7295 14.9283 61.7289 14.9283 61.7284 14.9283C61.0438 14.2977 60.2093 14.4192 60.2093 14.4192C58.9136 15.5709 56.6784 20.0851 55.8866 22.9325C55.4611 24.4628 55.6911 25.9203 55.9481 26.859C55.9481 26.859 56.3221 28.9724 57.7874 29.1519C59.2527 29.3314 61.8171 28.3641 62.9627 24.3196C65.4433 15.5614 63.129 14.9283 61.7299 14.9283ZM61.0463 21.8649C59.9762 26.0315 58.6498 27.0356 57.9591 26.4096C57.9526 26.2585 57.9286 26.0922 57.8826 25.9085C57.5295 24.5006 59.9241 20.1848 61.3848 17.7336C61.6174 18.3312 61.6479 19.522 61.0463 21.8649Z" fill="#9353D3"/>
<path d="M77.2334 27.4192C77.2334 27.4192 76.4929 28.0307 76.3209 27.0497C76.149 26.0687 77.9719 22.8461 79.1322 20.3798C80.2927 17.9133 80.8913 16.7562 80.1176 15.8296C79.3438 14.9031 78.3944 14.7446 78.3944 14.7446C78.3944 14.7446 74.9824 18.1216 74.455 18.937C74.455 18.937 75.6491 16.2792 74.7348 15.6865C73.8204 15.0935 73.0761 14.7593 73.0761 14.7593C73.0761 14.7593 72.3648 16.3482 70.4461 17.9718C70.4208 17.9932 70.3954 18.0151 70.3702 18.0365C72.2017 14.7305 68.7935 14.4509 68.7935 14.4509C68.7935 14.4509 69.2811 14.7507 68.4067 16.0339C66.0506 19.4907 63.9757 24.0863 63.1317 26.1692C62.2876 28.2522 64.7845 29.4441 64.679 29.1475C64.6185 28.9779 65.1324 27.1897 66.2145 24.8653C67.6041 23.7056 69.661 21.9864 71.1906 20.6935L70.2705 23.2383C70.2705 23.2383 70.9388 25.2001 71.7474 25.4967C72.5563 25.7931 74.3591 21.8216 75.9323 20.3649C75.9323 20.3649 73.024 25.6483 74.1141 27.5752C75.2044 29.5023 76.3373 29.4317 77.0224 28.531C77.7221 27.6103 77.2334 27.4192 77.2334 27.4192Z" fill="#9353D3"/>
<path d="M89.3462 22.9535C88.5956 24.0758 87.726 24.5164 86.0267 25.478C84.3275 26.4395 82.6976 26.6968 82.2231 25.0538C82.1954 24.958 82.1758 24.8621 82.1616 24.7665C83.5464 24.1445 85.3293 23.1063 87.1727 21.3911C90.5317 18.2658 90.5712 17.3439 90.5712 17.3439C90.5712 17.3439 89.7809 15.3409 87.8445 14.9401C85.9082 14.5394 82.8638 17.8791 80.6904 21.5475C80.2536 22.2847 80.0146 23.0105 79.9233 23.7031C78.465 24.443 78.0439 24.4363 78.0439 24.4363C78.0439 24.4363 78.8343 25.7984 79.7434 25.598C79.8189 25.5814 79.9114 25.5594 80.0169 25.5325C80.4104 27.1989 81.5776 28.4624 82.5494 28.8698C84.2091 29.5649 87.4102 29.0039 89.6627 27.2809C91.9153 25.5579 92.6663 24.4361 91.6784 23.1139C90.6898 21.7915 90.0972 21.8321 89.3462 22.9535ZM84.5495 19.8944C87.9827 16.1459 87.884 17.5848 87.884 17.5848C87.884 17.5848 88.9246 17.9612 82.9216 22.4381C82.5494 22.2346 84.1047 20.3802 84.5495 19.8944Z" fill="#9353D3"/>
<path d="M24.5232 11.3912C26.056 9.52131 21.2426 9.49147 21.2426 9.49147C16.279 9.27812 3.57302 27.634 2.45244 30.3477C1.33186 33.061 4.94247 31.6243 4.94247 31.6243C5.716 30.3734 6.50489 29.1517 7.28977 27.9735L12.2869 26.256C11.0442 33.7202 15.0928 36.6085 15.8436 36.6752C16.8888 36.7674 16.486 34.6484 16.486 34.6484C11.6348 28.7876 22.9907 13.2614 24.5232 11.3912ZM12.7321 24.2212C11.7788 24.3591 10.2345 24.9792 8.92745 25.5657C13.0812 19.5857 16.7086 15.2568 16.7086 15.2568C14.6543 18.7209 13.4112 21.6921 12.7321 24.2212Z" stroke="#9353D3" stroke-width="0.406985"/>
<path d="M41.2903 14.4783C41.2903 14.4783 39.6847 12.1469 38.0904 13.084C37.3505 13.5185 34.9792 15.6348 33.0744 17.963C30.8742 20.652 29.164 23.5642 29.164 23.5642C29.164 23.5642 30.4463 19.8255 29.9935 19.6078C29.5407 19.39 27.4578 19.2847 27.4578 19.2847L22.7069 24.2269C22.7069 24.2269 27.2884 16.798 27.8324 16.6152C27.8324 16.6152 26.3898 14.1838 25.1372 15.3058C25.1372 15.3058 18.5994 25.1875 18.4091 27.2528C18.4091 27.2528 20.4973 29.0994 21.2248 29.0298C21.9523 28.9598 25.7334 24.2908 25.7334 24.2908C25.7334 24.2908 24.4156 28.6256 27.3513 29.0193L28.2972 28.9285C28.2972 28.9285 37.5346 14.4905 41.2903 14.4783Z" stroke="#9353D3" stroke-width="0.406985"/>
<path d="M42.9319 25.3767C40.8018 26.3241 37.0219 27.1924 36.9685 26.4346C36.9452 26.1002 37.3326 24.6805 38.5619 22.9161C42.5813 21.9931 46.639 19.7 47.5651 18.5561C48.5239 17.3721 48.8293 14.5955 45.1546 14.9268C42.584 15.1589 38.4767 18.7266 36.2553 21.7421C34.7541 21.9042 34.1407 21.5893 33.9305 21.8363V22.2033C33.9305 22.2033 33.9578 22.9865 35.3067 23.1993C34.9153 23.9095 34.7011 24.5382 34.7011 25.0143C34.7011 27.6193 36.8008 29.7821 39.8365 28.9766C42.872 28.1715 42.8754 28.1715 42.8754 28.1715C42.8754 28.1715 45.0623 24.4293 42.9319 25.3767ZM46.0894 16.7403C47.7935 16.7403 42.8754 20.3014 39.3742 20.9119C40.9523 19.3568 44.3853 16.7403 46.0894 16.7403Z" stroke="#9353D3" stroke-width="0.406985"/>
<path d="M52.4275 14.6878C51.7202 14.773 48.5348 17.4509 48.6399 18.3237C48.745 19.1964 49.2184 20.2556 49.8231 20.4913C50.4281 20.7263 51.9224 21.0081 52.0563 21.8006C52.19 22.5928 52.9204 24.1901 50.5235 25.6723C48.1266 27.1542 46.7939 27.1838 47.1952 26.5196C47.596 25.8555 49.3788 22.4644 48.4244 22.8394C47.4703 23.2142 45.398 25.1575 45.4135 25.9258C45.4291 26.694 47.0825 29.5744 48.5039 29.2492C49.9255 28.9245 53.2168 28.4898 54.473 24.8741C55.7289 21.2585 52.0645 19.1624 51.5871 19.0274C51.1098 18.8925 53.2107 16.942 53.2107 16.942C53.2107 16.942 52.2066 18.1793 53.3753 18.3081C54.5438 18.4367 54.8467 18.4002 55.5342 17.086C56.2218 15.7712 53.1346 14.6029 52.4275 14.6878Z" stroke="#9353D3" stroke-width="0.406985"/>
<path d="M61.7299 14.9283C61.7295 14.9283 61.7289 14.9283 61.7284 14.9283C61.0438 14.2977 60.2093 14.4192 60.2093 14.4192C58.9136 15.5709 56.6784 20.0851 55.8866 22.9325C55.4611 24.4628 55.6911 25.9203 55.9481 26.859C55.9481 26.859 56.3221 28.9724 57.7874 29.1519C59.2527 29.3314 61.8171 28.3641 62.9627 24.3196C65.4433 15.5614 63.129 14.9283 61.7299 14.9283ZM61.0463 21.8649C59.9762 26.0315 58.6498 27.0356 57.9591 26.4096C57.9526 26.2585 57.9286 26.0922 57.8826 25.9085C57.5295 24.5006 59.9241 20.1848 61.3848 17.7336C61.6174 18.3312 61.6479 19.522 61.0463 21.8649Z" stroke="#9353D3" stroke-width="0.406985"/>
<path d="M77.2334 27.4192C77.2334 27.4192 76.4929 28.0307 76.3209 27.0497C76.149 26.0687 77.9719 22.8461 79.1322 20.3798C80.2927 17.9133 80.8913 16.7562 80.1176 15.8296C79.3438 14.9031 78.3944 14.7446 78.3944 14.7446C78.3944 14.7446 74.9824 18.1216 74.455 18.937C74.455 18.937 75.6491 16.2792 74.7348 15.6865C73.8204 15.0935 73.0761 14.7593 73.0761 14.7593C73.0761 14.7593 72.3648 16.3482 70.4461 17.9718C70.4208 17.9932 70.3954 18.0151 70.3702 18.0365C72.2017 14.7305 68.7935 14.4509 68.7935 14.4509C68.7935 14.4509 69.2811 14.7507 68.4067 16.0339C66.0506 19.4907 63.9757 24.0863 63.1317 26.1692C62.2876 28.2522 64.7845 29.4441 64.679 29.1475C64.6185 28.9779 65.1324 27.1897 66.2145 24.8653C67.6041 23.7056 69.661 21.9864 71.1906 20.6935L70.2705 23.2383C70.2705 23.2383 70.9388 25.2001 71.7474 25.4967C72.5563 25.7931 74.3591 21.8216 75.9323 20.3649C75.9323 20.3649 73.024 25.6483 74.1141 27.5752C75.2044 29.5023 76.3373 29.4317 77.0224 28.531C77.7221 27.6103 77.2334 27.4192 77.2334 27.4192Z" stroke="#9353D3" stroke-width="0.406985"/>
<path d="M89.3462 22.9535C88.5956 24.0758 87.726 24.5164 86.0267 25.478C84.3275 26.4395 82.6976 26.6968 82.2231 25.0538C82.1954 24.958 82.1758 24.8621 82.1616 24.7665C83.5464 24.1445 85.3293 23.1063 87.1727 21.3911C90.5317 18.2658 90.5712 17.3439 90.5712 17.3439C90.5712 17.3439 89.7809 15.3409 87.8445 14.9401C85.9082 14.5394 82.8638 17.8791 80.6904 21.5475C80.2536 22.2847 80.0146 23.0105 79.9233 23.7031C78.465 24.443 78.0439 24.4363 78.0439 24.4363C78.0439 24.4363 78.8343 25.7984 79.7434 25.598C79.8189 25.5814 79.9114 25.5594 80.0169 25.5325C80.4104 27.1989 81.5776 28.4624 82.5494 28.8698C84.2091 29.5649 87.4102 29.0039 89.6627 27.2809C91.9153 25.5579 92.6663 24.4361 91.6784 23.1139C90.6898 21.7915 90.0972 21.8321 89.3462 22.9535ZM84.5495 19.8944C87.9827 16.1459 87.884 17.5848 87.884 17.5848C87.884 17.5848 88.9246 17.9612 82.9216 22.4381C82.5494 22.2346 84.1047 20.3802 84.5495 19.8944Z" stroke="#9353D3" stroke-width="0.406985"/>
<path d="M106.506 5.09364C106.286 3.06752 103.651 2.69925 103.651 2.69925C103.695 4.08068 100.445 10.773 98.8638 13.4281C97.2825 16.0831 95.4378 19.5983 96.3601 22.1306C97.1181 24.2113 99.2151 24.6084 99.2151 24.6084C99.2151 24.6084 99.1272 23.834 99.2151 22.8673C99.303 21.9006 102.509 14.8555 103.651 12.9215C104.793 10.9876 106.726 7.11975 106.506 5.09364Z" fill="#9353D3"/>
<path d="M98.7001 26.1657C97.8462 25.3886 95.8132 25.2667 95.8132 25.2667C95.8132 25.2667 95.3253 27.9505 97.6024 28.0725C99.8793 28.1944 99.5539 26.9429 98.7001 26.1657Z" fill="#9353D3"/>
</g>
</g>
<defs>
<filter id="filter0_d_108_366" x="-1" y="-1" width="114" height="44" filterUnits="userSpaceOnUse" color-interpolation-filters="sRGB">
<feFlood flood-opacity="0" result="BackgroundImageFix"/>
<feColorMatrix in="SourceAlpha" type="matrix" values="0 0 0 0 0 0 0 0 0 0 0 0 0 0 0 0 0 0 127 0" result="hardAlpha"/>
<feOffset dx="1" dy="1"/>
<feGaussianBlur stdDeviation="1"/>
<feComposite in2="hardAlpha" operator="out"/>
<feColorMatrix type="matrix" values="0 0 0 0 0 0 0 0 0 0 0 0 0 0 0 0 0 0 0.25 0"/>
<feBlend mode="normal" in2="BackgroundImageFix" result="effect1_dropShadow_108_366"/>
<feBlend mode="normal" in="SourceGraphic" in2="effect1_dropShadow_108_366" result="shape"/>
</filter>
<clipPath id="clip0_108_366">
<rect width="112" height="43" fill="white"/>
</clipPath>
</defs>
</svg>
