<svg width="44" height="47" viewBox="0 0 44 47" fill="none" xmlns="http://www.w3.org/2000/svg">
<g clip-path="url(#clip0_108_361)">
<g filter="url(#filter0_d_108_361)">
<rect x="11" y="26" width="21" height="13" fill="white"/>
<path d="M7.94786 2.5C6.61912 2.5 5.52252 3.53942 5.45144 4.86626L4.05859 30.8663C3.98191 32.2975 5.12175 33.5 6.55501 33.5H10.1327C11.3768 33.5 12.4316 32.5852 12.6076 31.3536L16.3219 5.35355C16.537 3.84747 15.3684 2.5 13.847 2.5H7.94786Z" fill="#F31260" stroke="white" stroke-width="3"/>
<circle cx="7.5" cy="38.5" r="5" fill="#F31260" stroke="white" stroke-width="3"/>
<path d="M19.9479 2.5C18.6191 2.5 17.5225 3.53942 17.4514 4.86626L16.0586 30.8663C15.9819 32.2975 17.1217 33.5 18.555 33.5H22.1327C23.3768 33.5 24.4316 32.5852 24.6076 31.3536L28.3219 5.35355C28.537 3.84747 27.3684 2.5 25.847 2.5H19.9479Z" fill="#F31260" stroke="white" stroke-width="3"/>
<circle cx="19.5" cy="38.5" r="5" fill="#F31260" stroke="white" stroke-width="3"/>
<path d="M31.9479 2.5C30.6191 2.5 29.5225 3.53942 29.4514 4.86626L28.0586 30.8663C27.9819 32.2975 29.1217 33.5 30.555 33.5H34.1327C35.3768 33.5 36.4316 32.5852 36.6076 31.3536L40.3219 5.35355C40.537 3.84747 39.3684 2.5 37.847 2.5H31.9479Z" fill="#F31260" stroke="white" stroke-width="3"/>
<circle cx="31.5" cy="38.5" r="5" fill="#F31260" stroke="white" stroke-width="3"/>
</g>
</g>
<defs>
<filter id="filter0_d_108_361" x="0" y="0" width="44.8477" height="48" filterUnits="userSpaceOnUse" color-interpolation-filters="sRGB">
<feFlood flood-opacity="0" result="BackgroundImageFix"/>
<feColorMatrix in="SourceAlpha" type="matrix" values="0 0 0 0 0 0 0 0 0 0 0 0 0 0 0 0 0 0 127 0" result="hardAlpha"/>
<feOffset dx="1" dy="1"/>
<feGaussianBlur stdDeviation="1"/>
<feComposite in2="hardAlpha" operator="out"/>
<feColorMatrix type="matrix" values="0 0 0 0 0 0 0 0 0 0 0 0 0 0 0 0 0 0 0.25 0"/>
<feBlend mode="normal" in2="BackgroundImageFix" result="effect1_dropShadow_108_361"/>
<feBlend mode="normal" in="SourceGraphic" in2="effect1_dropShadow_108_361" result="shape"/>
</filter>
<clipPath id="clip0_108_361">
<rect width="44" height="47" fill="white"/>
</clipPath>
</defs>
</svg>
