<svg width="47" height="47" viewBox="0 0 47 47" fill="none" xmlns="http://www.w3.org/2000/svg">
<g clip-path="url(#clip0_103_177)">
<g filter="url(#filter0_d_103_177)">
<path d="M41.6713 22.8913C41.6713 34.3748 32.8774 43.5737 22.162 43.5737C11.4465 43.5737 2.65263 34.3748 2.65263 22.8913C2.65263 11.4077 11.4465 2.20881 22.162 2.20881C32.8774 2.20881 41.6713 11.4077 41.6713 22.8913Z" fill="url(#paint0_linear_103_177)" stroke="white" stroke-width="2.31081"/>
<path d="M21.7855 37.149C28.8945 37.149 31.6325 30.2222 31.6325 30.2222C33.4786 26.9143 31.332 26.2655 30.4179 26.898C23.9303 29.8657 21.0919 30.4151 12.9077 27.2141C12.4198 27.064 10.4108 27.0032 11.6295 29.6381C11.6295 29.6381 14.4732 37.149 21.7855 37.149Z" fill="#312107"/>
<path d="M21.7855 37.149C28.8945 37.149 31.6325 30.2222 31.6325 30.2222C33.4786 26.9143 31.332 26.2655 30.4179 26.898C23.9303 29.8657 21.0919 30.4151 12.9077 27.2141C12.4198 27.064 10.4108 27.0032 11.6295 29.6381C11.6295 29.6381 14.4732 37.149 21.7855 37.149Z" fill="#312107"/>
<circle cx="29.4713" cy="15.8526" r="0.180478" fill="white"/>
<path d="M33.676 16.6647C33.8564 16.9354 34.3965 17.7674 33.9467 18.289C33.4006 18.9222 32.5931 16.8452 29.525 16.6647C26.9983 16.5161 25.893 17.8184 25.1935 18.0183C24.5618 18.1988 24.4716 17.5671 24.7423 17.0257C25.5093 15.4916 27.269 14.0478 29.3445 14.0478C31.42 14.0478 32.8638 15.2209 33.676 16.6647Z" fill="#312107"/>
<path d="M17.6167 15.7622C17.9777 16.3037 18.969 17.0837 18.5191 17.7476C17.973 18.5535 17.1655 16.755 14.3681 16.6647C11.9316 16.6647 10.4926 18.5751 9.94638 17.7476C9.51152 17.0888 10.1269 16.3038 10.6683 15.7623C11.4804 14.7697 13.1047 14.0478 14.1876 14.0478C15.3175 14.0478 16.2631 14.3185 17.6167 15.7622Z" fill="#312107"/>
</g>
<path d="M15.5549 33.5784C15.5549 33.357 15.5549 33.3589 15.5549 33.3589C15.5549 33.3589 21.3483 32.8276 28.0267 33.359V33.5894C28.1072 34.4197 24.0432 36.1069 21.44 36.0662C18.9631 36.0274 16.0377 34.464 15.5549 33.5784Z" fill="#F54180"/>
</g>
<defs>
<filter id="filter0_d_103_177" x="0.497223" y="0.0534058" width="45.3295" height="47.6757" filterUnits="userSpaceOnUse" color-interpolation-filters="sRGB">
<feFlood flood-opacity="0" result="BackgroundImageFix"/>
<feColorMatrix in="SourceAlpha" type="matrix" values="0 0 0 0 0 0 0 0 0 0 0 0 0 0 0 0 0 0 127 0" result="hardAlpha"/>
<feOffset dx="1" dy="1"/>
<feGaussianBlur stdDeviation="1"/>
<feComposite in2="hardAlpha" operator="out"/>
<feColorMatrix type="matrix" values="0 0 0 0 0 0 0 0 0 0 0 0 0 0 0 0 0 0 0.25 0"/>
<feBlend mode="normal" in2="BackgroundImageFix" result="effect1_dropShadow_103_177"/>
<feBlend mode="normal" in="SourceGraphic" in2="effect1_dropShadow_103_177" result="shape"/>
</filter>
<linearGradient id="paint0_linear_103_177" x1="22.162" y1="1.05341" x2="22.162" y2="44.7291" gradientUnits="userSpaceOnUse">
<stop stop-color="#FCF050"/>
<stop offset="1" stop-color="#F1BE3A"/>
</linearGradient>
<clipPath id="clip0_103_177">
<rect width="47" height="47" fill="white"/>
</clipPath>
</defs>
</svg>
