<svg width="74" height="41" viewBox="0 0 74 41" fill="none" xmlns="http://www.w3.org/2000/svg">
<g clip-path="url(#clip0_108_367)">
<g filter="url(#filter0_d_108_367)">
<path d="M16.1055 35.5792C18.3544 33.9044 23.4575 29.1229 27.6611 25.0331C29.1647 26.6539 31.5743 28.4591 35.1419 28.4591C36.2466 28.4591 37.1556 28.2594 39.1946 27.5684C39.9773 27.303 41.1309 26.8902 42.4358 26.3551C44.1234 27.8128 46.2432 28.4127 48.1175 28.4127C48.985 28.4127 49.8653 28.2903 50.7316 28.0493C53.2694 27.3447 56.7281 26.2985 58.7935 25.3143C59.005 25.2134 59.2406 25.1083 59.4912 24.9953C60.6218 24.4868 62.0292 23.8535 63.2997 22.9686C67.4438 20.0826 67.3487 16.4404 67.1154 15.0086C67.0915 14.8609 67.0651 14.7142 67.0364 14.5693C68.6298 13.7622 69.8833 12.4417 70.536 10.7752C71.6476 7.93432 70.7227 4.78382 68.1819 2.7508C65.9025 0.9255 63.2646 0 60.3412 0C57.7104 0 55.7272 0.3984 52.7618 1.52277C52.1403 1.75836 51.161 2.16756 50.1884 2.59511C49.4569 2.13279 48.8074 1.82509 48.4234 1.64327C45.3296 0.178804 43.7211 0.178795 43.1926 0.178795C42.0994 0.178795 40.573 0.358889 38.1195 1.50853C36.9942 0.857914 35.6727 0.491047 34.286 0.486512C32.6129 0.477443 29.712 0.448937 29.709 0.448937C28.6229 0.441811 27.552 0.67178 26.5968 1.11315C24.5346 0.144683 22.3508 0.112941 21.179 0.0958817C21.0077 0.0932905 20.7208 0.0889763 20.6122 0.0816346C20.4236 0.0691103 20.2312 0.0628404 20.0403 0.0628404C17.3438 0.0628404 14.858 1.21551 10.2075 3.66205C9.86711 3.84127 9.12851 4.22974 8.76495 4.40875C6.63848 5.21397 5.09353 6.96305 4.61215 9.03278C4.57104 9.15327 4.53384 9.27463 4.50007 9.39771C3.99252 11.255 4.38593 13.2278 5.57445 14.7859C5.74876 15.0144 5.92583 15.2331 6.10566 15.4428C5.16909 17.7168 5.12752 19.7427 5.62015 21.443C4.35286 21.7418 3.19076 22.349 2.24132 23.2234C0.874131 24.4816 -0.583093 26.7556 0.238418 30.4447C1.00205 33.8703 3.2275 36.4431 6.3413 37.5027C7.30956 37.8324 8.32743 38 9.36644 38C11.6815 38 13.9487 37.1853 16.1055 35.5792Z" fill="white"/>
<path d="M34.6762 4.44435C32.7617 4.43339 29.4238 4.39841 29.4238 4.39841C27.7576 6.60897 25.687 8.45558 24.0046 9.90509C20.5583 12.8733 17.7797 14.3797 16.5748 14.9946C17.0027 14.1646 18.4601 12.3524 19.5704 10.9719C21.0719 9.10514 22.4903 7.34129 22.9274 6.34188C23.1968 5.72599 23.2044 5.21245 22.9496 4.81613C22.4337 4.0141 21.0361 3.99216 19.6848 3.97127C19.2999 3.96527 18.9365 3.95901 18.6125 3.93551C17.4113 3.85066 14.5308 5.40121 11.1611 7.28673C10.0862 7.88825 8.86774 8.56758 8.62885 8.61823C8.62964 8.61823 8.70196 8.59969 8.79386 8.63912L8.50536 9.30225L8.43435 9.33619C8.89307 9.97558 9.7588 11.0149 10.4024 11.0149H10.4465C11.0853 11.0149 11.5621 10.9935 13.1844 9.8675C14.8454 8.71562 16.3678 7.79609 17.2108 7.36636C16.7484 8.012 15.9247 9.00829 15.3193 9.74035C14.5674 10.6497 13.857 11.5086 13.5572 11.9794C13.451 12.1467 13.2272 12.4391 12.9437 12.8091C11.3754 14.8583 8.11139 19.1225 10.3575 20.93C11.7733 22.0693 19.6809 16.7874 19.8153 16.6931C16.0022 20.3227 9.28991 27.3084 5.77735 29.326L5.74784 29.3445C5.60973 29.4411 5.13483 29.698 4.77767 29.62L4.67272 29.5957C4.367 29.5247 4.02028 29.4445 3.75973 29.6996C3.47541 29.9779 3.51144 30.4703 3.66992 31.2272C3.81142 31.9018 4.28319 33.5231 5.61051 34.0035C5.85462 34.092 6.11153 34.1361 6.3807 34.1361C7.20414 34.1361 8.14142 33.7231 9.17843 32.9015C12.5302 30.2468 24.1398 18.3071 27.725 14.2782C29.122 12.708 33.728 6.8656 34.9699 4.87957C35.248 4.43469 34.7282 4.44461 34.6762 4.44435Z" fill="#17C964"/>
<path d="M48.1387 12.3404C48.0531 12.2396 47.9301 12.1819 47.8009 12.1819C47.6288 12.1819 47.5759 12.2062 45.8916 13.2218C43.1957 14.8478 36.8828 18.6551 34.8073 18.6554C34.7668 18.6554 34.7281 18.6538 34.6913 18.6502C34.6284 18.6447 34.5117 18.2372 34.6276 17.7646C34.8237 17.6944 35.0286 17.6168 35.2391 17.5325C39.101 15.988 47.0331 12.3109 49.4118 9.44949L49.4642 9.36725C49.4862 9.3213 49.9966 8.22529 49.6462 6.97942C49.2564 5.59413 45.2721 4.0723 44.834 4.0723C43.2174 4.0723 38.2433 7.23554 35.9617 9.46228C33.5488 11.8162 32.1382 13.727 31.5458 15.4494C31.0474 15.5399 30.476 15.6381 29.8031 15.753L29.2619 15.8454L29.5254 16.3271C29.5387 16.3516 30.9386 17.9555 31.3203 18.1098C31.4315 18.6332 31.644 19.1353 31.9539 19.6055C33.2037 21.5025 34.2143 22.6008 35.6819 22.6008C36.1865 22.6008 46.6806 18.9893 47.9536 15.8679L47.9774 15.7846C48.4836 12.7477 48.2507 12.4728 48.1387 12.3404ZM38.9827 11.665C41.6953 9.43043 44.4215 7.87022 45.6125 7.87022C45.7355 7.87022 45.9375 7.88041 46.0174 7.96761C46.2313 8.20101 46.1615 8.41928 46.148 8.48977C45.9475 9.54531 42.1696 11.8227 39.3599 13.1892C38.6366 13.5409 36.2966 14.2714 35.5743 14.6251C36.1713 13.9205 38.294 12.2323 38.9827 11.665Z" fill="#17C964"/>
<path d="M68.163 5.31268C67.4288 4.6874 66.2328 3.85638 64.3283 3.85638C62.6135 3.85638 61.3253 4.04672 58.642 5.12889C57.2191 5.70274 52.4304 7.91251 52.2437 8.36392L52.2299 8.39369C52.1053 8.6532 51.9923 9.00827 52.2259 9.94163C52.4962 11.0201 53.423 12.2973 54.6083 12.5407C55.0195 12.625 55.8424 12.7414 56.7951 12.8762C58.1214 13.0636 59.7719 13.297 60.2351 13.4477C60.6544 13.5839 60.8327 13.7962 60.8463 13.898C60.8562 13.9701 60.7729 14.0716 60.6238 14.1698C59.9218 14.6319 55.9722 16.6639 51.9314 18.0056C50.0277 18.6379 49.2131 18.6536 48.8653 18.6606C48.6795 18.6645 48.487 18.6682 48.3492 18.8457C48.2132 19.0209 48.2568 19.2063 48.2917 19.3551C48.3118 19.4407 48.3395 19.5582 48.3604 19.7284C48.4552 20.4986 48.7071 22.5444 50.4326 22.5444C50.666 22.5444 50.9195 22.5048 51.1861 22.4259C52.8818 21.9252 57.0405 20.6516 59.0265 19.6452C59.3171 19.4979 59.6409 19.3431 59.9797 19.181C62.1167 18.1583 64.5384 16.9996 64.2868 15.3564C63.9275 13.0106 62.9127 11.5402 61.27 10.9865C59.8617 10.5116 58.419 10.2815 57.3656 10.1134C57.1611 10.0808 56.946 10.0466 56.7531 10.0129C58.0169 9.29128 60.9089 7.7932 61.823 7.56032C62.0981 7.49009 62.4415 7.37782 62.8388 7.24755C63.7753 6.94052 65.058 6.52018 65.9877 6.52018C66.2838 6.52018 66.5239 6.56274 66.7012 6.64629C67.0182 6.79588 67.3406 6.87499 67.6333 6.87499C68.0962 6.87499 68.445 6.67788 68.5666 6.34787C68.6249 6.18966 68.7021 5.77166 68.163 5.31268Z" fill="#17C964"/>
</g>
</g>
<defs>
<filter id="filter0_d_108_367" x="-1" y="-1" width="75" height="42" filterUnits="userSpaceOnUse" color-interpolation-filters="sRGB">
<feFlood flood-opacity="0" result="BackgroundImageFix"/>
<feColorMatrix in="SourceAlpha" type="matrix" values="0 0 0 0 0 0 0 0 0 0 0 0 0 0 0 0 0 0 127 0" result="hardAlpha"/>
<feOffset dx="1" dy="1"/>
<feGaussianBlur stdDeviation="1"/>
<feComposite in2="hardAlpha" operator="out"/>
<feColorMatrix type="matrix" values="0 0 0 0 0 0 0 0 0 0 0 0 0 0 0 0 0 0 0.25 0"/>
<feBlend mode="normal" in2="BackgroundImageFix" result="effect1_dropShadow_108_367"/>
<feBlend mode="normal" in="SourceGraphic" in2="effect1_dropShadow_108_367" result="shape"/>
</filter>
<clipPath id="clip0_108_367">
<rect width="74" height="41" fill="white"/>
</clipPath>
</defs>
</svg>
