<svg width="71" height="53" viewBox="0 0 71 53" fill="none" xmlns="http://www.w3.org/2000/svg">
<g clip-path="url(#clip0_108_362)">
<g filter="url(#filter0_d_108_362)">
<path d="M68.0647 4.97943C65.9463 1.04156 61.5391 1.04155 60.0908 1.04155C57.6733 1.04155 54.3358 1.43442 52.5806 1.66556C51.4755 1.25921 50.15 1 48.5559 1C48.4594 1 48.363 1.0009 48.2661 1.00269C47.1664 1.02291 46.0894 1.23675 45.0544 1.62603C43.9565 1.12332 42.7215 0.904983 41.4657 1.03953L36.6474 1.55527C36.0005 1.58672 35.3444 1.68353 34.6904 1.84256C34.6805 1.84503 34.6705 1.84818 34.6603 1.85065C32.8939 1.18958 31.0205 1 29.4589 1C29.2961 1 29.1382 1.00225 28.9868 1.00652C27.3741 1.05234 25.7515 1.5629 23.9313 2.62066C22.4898 1.89153 20.2037 1 17.6362 1C16.1568 1 14.7527 1.29044 13.4626 1.86368C10.6783 3.10068 7.72258 4.78265 4.97391 8.68166C3.75618 10.4092 2.2611 12.7348 1.50368 15.4055C0.202883 19.9928 1.44921 24.3163 4.92329 27.2677C4.97663 27.313 5.03088 27.3575 5.08558 27.4013C5.32935 27.5956 5.7892 27.9368 6.43245 28.3052C6.57431 28.7437 6.75407 29.185 6.9781 29.6255C7.61 30.8688 8.99705 32.8309 11.7673 33.934C10.9565 36.813 9.91494 40.6934 11.9312 44.2267C13.0129 46.1225 14.7849 47.535 16.921 48.1212C17.8232 48.369 18.7293 48.5294 19.614 48.5294C19.6143 48.5294 19.6141 48.5294 19.6143 48.5294C21.0819 48.5294 22.3804 48.1621 23.4992 47.6257C24.7305 48.3955 26.1475 48.754 27.6413 48.754C27.6415 48.754 27.6413 48.754 27.6415 48.754C29.8999 48.754 31.7472 47.8485 33.1724 46.7591C33.4398 46.9235 33.7129 47.0686 33.9916 47.2009C35.5731 48.068 37.2795 48.5213 38.9603 48.5213C39.7854 48.5213 40.5932 48.4123 41.3767 48.203C42.1477 48.4609 42.9653 48.6621 43.8071 48.6722C44.772 49.4562 46.9691 51 49.7773 51C49.7775 51 49.7777 51 49.7782 51C53.139 51 56.042 48.8566 57.1737 45.6342C57.9177 43.5153 59.5788 34.6753 59.1595 28.3757C59.8203 27.8544 60.4127 27.2054 60.912 26.4678C61.6109 25.4356 62.1456 24.1804 62.6463 22.4515C63.1123 20.8428 64.0411 18.0316 64.8321 15.6872C64.8798 15.6596 64.9272 15.6295 64.9742 15.6005C68.7488 13.2871 70.0773 8.71918 68.0647 4.97943Z" fill="white"/>
<path d="M18.1001 15.5336C17.8111 15.1426 16.6377 14.7175 15.7198 14.8027C14.8017 14.8879 13.5942 15.1429 13.4413 15.0917C13.2881 15.0408 13.0671 14.8196 12.7952 14.9556C12.5231 15.0917 12.6763 15.6188 13.9855 16.1968C13.9855 16.1968 14.1385 16.2991 13.6963 17.0812C13.2543 17.8633 12.2341 19.3086 12.2341 19.3086C12.2341 19.3086 8.76529 22.5053 8.18728 22.182C7.60927 21.859 9.87067 13.4254 16.1106 8.83462L18.3209 9.61672C18.3209 9.61672 19.4431 9.78654 19.9531 8.52847C20.4631 7.27041 19.5272 7.09269 19.5272 7.09269C19.5272 7.09269 15.9471 4.74664 13.3722 5.90239C10.7973 7.05814 8.7993 8.29063 6.75861 11.2152C4.71845 14.1398 1.52201 19.2066 5.36449 22.5051C5.36449 22.5051 7.64303 24.3414 10.1594 23.3892C10.1594 23.3892 7.33873 28.5921 12.3367 29.3064C12.3367 29.3064 13.152 25.4977 14.5461 23.3212C15.9403 21.1447 17.8787 16.8706 17.8787 16.8706C17.8787 16.8706 18.3889 15.9244 18.1001 15.5336Z" fill="#9353D3"/>
<path d="M21.6874 12.0966C21.7863 12.0855 21.8857 12.0676 21.9843 12.0449C20.818 14.1027 17.7658 19.5814 17.4367 21.1387C17.0288 23.0687 20.0127 23.8513 20.3442 23.3819C20.4789 23.1908 21.3694 21.2777 22.3783 19.0751C22.846 20.552 24.1373 24.0688 25.7337 23.7266C27.7486 23.2941 27.825 21.6587 27.6721 19.8158C27.6721 19.8158 26.3204 21.5981 25.7849 20.6005C25.5117 20.0919 25.0138 18.6735 24.5914 17.4054C24.7146 17.3493 24.8306 17.2939 24.935 17.2417C25.8532 16.7826 32.8415 9.84229 33.3261 7.92078C33.8108 5.99928 30.3844 5.52886 28.3951 5.58634C26.4059 5.64356 21.56 9.85943 20.7183 11.1214C19.8766 12.3832 20.9224 12.1828 21.6874 12.0966ZM28.1665 9.30832C27.6629 10.0688 26.5733 11.1043 25.5526 11.9882C25.4629 11.783 25.0584 10.9827 24.1711 10.8298L26.8903 8.74112C28.1425 7.77918 28.8299 8.30683 28.1665 9.30832Z" fill="#9353D3"/>
<path d="M33.3643 13.0685C32.0501 16.1105 31.0238 19.3907 30.7628 20.4637C30.4587 21.7144 30.9186 22.5149 31.4281 22.9912C31.4288 22.9925 32.6009 24.8001 37.3176 22.7436C37.3176 22.7436 39.3577 21.8262 39.0518 20.7975C38.7457 19.7689 38.006 19.9912 37.7002 20.3524C37.5021 20.5863 35.6186 20.9447 34.3125 21.1685C34.707 19.8127 35.3486 17.8118 36.2177 15.7524C37.586 15.4362 39.0903 15.0531 39.3324 14.8479C39.7915 14.4587 39.3324 13.5888 39.3324 13.5888L37.076 13.8327C38.583 10.5983 39.9953 8.14756 39.9953 8.14756C39.9953 8.14756 39.9726 8.03181 39.9096 7.85724C41.3839 7.52473 43.2437 7.07092 43.515 6.84072C43.9741 6.45125 43.515 5.5816 43.515 5.5816L37.6184 6.21894C37.3384 6.21868 37.027 6.25507 36.6797 6.34024C36.6802 6.34051 34.8758 9.57096 33.3643 13.0685Z" fill="#9353D3"/>
<path d="M44.9912 18.5482C45.074 18.336 45.1731 18.0752 45.2849 17.7775L47.4459 18.0604C46.6147 21.3468 46.1332 23.7751 46.1332 23.7751C45.2211 28.103 48.7746 27.8818 48.7746 27.8818C48.7746 27.8818 52.8808 12.8597 53.9266 9.56963C54.9721 6.27932 53.0593 5.53993 50.713 5.58371C48.3667 5.62748 46.1986 8.49853 45.0255 11.1766C43.8523 13.8543 40.749 23.5148 40.749 23.5148C43.3756 24.688 44.1239 20.7672 44.9912 18.5482ZM49.361 8.77883C50.5563 8.70789 49.033 12.3099 47.9791 16.0393L45.8023 16.3923C46.9459 13.3312 48.6681 8.81996 49.361 8.77883Z" fill="#9353D3"/>
<path d="M66.5844 6.05994C65.9658 4.89787 55.4159 6.46233 55.4159 6.46233C55.4159 6.46233 54.9468 8.42154 57.9787 8.4487C58.3961 8.45239 58.8475 8.44817 59.3148 8.43789C58.5298 10.6458 56.1977 17.2625 55.664 19.4303C55.0198 22.0466 54.9001 22.636 56.3151 23.2688C57.7303 23.9019 58.5366 24.6121 59.6679 20.6652C60.6016 17.4078 62.9302 10.5361 63.7155 8.2338C64.944 8.15443 65.8113 8.08376 65.8113 8.08376C65.8113 8.08376 67.2031 7.22176 66.5844 6.05994Z" fill="#9353D3"/>
<path d="M21.2976 27.8462C19.9035 27.5245 18.8493 28.329 18.8493 28.329C18.8493 28.329 16.7068 35.1375 15.9258 37.9521C15.1444 40.7667 13.9526 44.6822 16.2649 45.3238C19.0054 46.0837 19.5465 43.7153 19.5465 43.7153C22.3521 35.1375 22.9982 30.4733 22.9982 30.4733C22.9982 30.4733 22.6918 28.1679 21.2976 27.8462Z" fill="#9353D3"/>
<path d="M30.9455 28.1634C29.8626 27.881 28.5958 28.4326 27.6966 28.9682C27.26 28.8242 26.7363 28.8092 26.0486 28.9753C26.0486 28.9753 23.7534 35.7321 23.2772 37.8092C22.801 39.8862 22.682 42.0116 23.1068 42.4889C23.404 42.8227 24.0087 43.6562 24.6244 44.0312C25.1011 44.8576 25.8745 45.5511 25.9125 45.569C25.9634 45.593 27.3066 46.9536 30.3164 42.7518C33.3259 38.5496 34.4821 34.0131 34.4141 31.9123C34.3461 29.8109 32.867 28.6647 30.9455 28.1634ZM31.5407 33.1775C31.0476 35.9707 27.2897 41.5578 26.8647 42.035C26.668 42.256 26.5156 42.2974 26.408 42.2787C26.4868 41.9425 26.5839 41.5401 26.7115 41.0562C27.2494 39.0182 28.9328 33.9092 29.2292 31.4084C31.5831 28.8814 31.9874 30.6474 31.5407 33.1775Z" fill="#9353D3"/>
<path d="M42.0429 29.6599C42.0373 29.6404 42.0308 29.6224 42.025 29.6032C43.3953 29.6032 44.6753 29.6032 45.026 29.6032C45.8648 29.6032 46.1443 27.7574 46.1443 27.7574H39.4598C39.209 27.7402 38.9949 27.7468 38.8488 27.7574H38.5949L38.3304 28.631C37.7345 30.289 36.3955 34.146 35.3122 38.22C34.644 40.7335 35.3924 42.6745 36.285 43.797L36.2844 43.7981C36.2844 43.7981 36.2873 43.8013 36.2924 43.8068C36.7356 44.3616 37.2118 44.7131 37.5691 44.8333C38.4675 45.3916 39.7258 45.8572 40.9794 45.2692C43.3176 44.1725 42.4838 42.7143 42.4674 42.1063C42.4585 41.7803 40.8025 43.088 39.8814 43.2233C39.4126 43.2921 38.7257 43.2422 38.2278 42.9511C38.4301 41.8368 38.8343 40.2554 39.3074 38.5686C40.6546 38.5686 42.237 38.5686 42.5892 38.5686C43.2268 38.5686 43.4396 36.7228 43.4396 36.7228H39.839C40.8972 33.1313 42.0429 29.6599 42.0429 29.6599Z" fill="#9353D3"/>
<path d="M50.4749 29.1726C48.1966 32.3954 44.9574 42.6661 44.3114 44.2896C44.3114 44.2896 44.3072 46.2399 46.3476 45.4741C46.3476 45.4741 47.3262 42.2516 48.5059 38.8671C49.5651 38.8713 50.9922 38.7282 51.6939 38.6493C51.1148 42.9055 50.348 47.3996 50.348 47.3996C50.348 47.3996 52.7284 49.4542 53.4424 47.3996C54.1565 45.3449 56.0385 34.3902 55.1678 28.7697C55.1675 28.7697 52.7531 25.95 50.4749 29.1726ZM49.2129 36.8916C50.3317 33.8581 51.4911 31.1853 52.1045 31.1853C52.4583 31.1853 52.3489 33.1741 52.0573 35.7574C51.3034 36.3365 50.112 36.6917 49.2129 36.8916Z" fill="#9353D3"/>
</g>
</g>
<defs>
<filter id="filter0_d_108_362" x="0" y="0" width="72" height="54" filterUnits="userSpaceOnUse" color-interpolation-filters="sRGB">
<feFlood flood-opacity="0" result="BackgroundImageFix"/>
<feColorMatrix in="SourceAlpha" type="matrix" values="0 0 0 0 0 0 0 0 0 0 0 0 0 0 0 0 0 0 127 0" result="hardAlpha"/>
<feOffset dx="1" dy="1"/>
<feGaussianBlur stdDeviation="1"/>
<feComposite in2="hardAlpha" operator="out"/>
<feColorMatrix type="matrix" values="0 0 0 0 0 0 0 0 0 0 0 0 0 0 0 0 0 0 0.25 0"/>
<feBlend mode="normal" in2="BackgroundImageFix" result="effect1_dropShadow_108_362"/>
<feBlend mode="normal" in="SourceGraphic" in2="effect1_dropShadow_108_362" result="shape"/>
</filter>
<clipPath id="clip0_108_362">
<rect width="71" height="53" fill="white"/>
</clipPath>
</defs>
</svg>
