<svg width="70" height="29" viewBox="0 0 70 29" fill="none" xmlns="http://www.w3.org/2000/svg">
<g clip-path="url(#clip0_108_368)">
<g filter="url(#filter0_d_108_368)">
<path d="M64.0205 5.20928C60.9159 1.89467 55.8853 0.214265 49.0689 0.214265C48.9596 0.214265 48.8496 0.214665 48.7391 0.215472C46.4216 -0.0300627 44.0596 0.151919 41.8077 0.750321C40.3103 1.14818 38.9498 1.6576 37.7312 2.27255C35.0689 0.0125042 30.9426 0.0106886 29.4839 0.0106886C29.2896 0.0106886 29.0883 0.012515 28.8788 0.0165501C25.8026 0.0754622 23.6487 0.720664 22.1409 1.59406C20.0172 0.533235 17.263 0.0982604 13.1208 0.0165501C12.5629 0.00545365 12.0277 0 11.5295 0C8.04747 0 2.62283 -1.92407e-06 0.665714 4.2574C0.20798 5.25326 0 6.3159 0 7.34666V18.2456C0 19.6621 0.413803 21.1085 1.27928 22.3525C3.69672 25.8273 8.50087 25.9084 10.2794 25.9389C10.4329 25.9415 10.6227 25.9429 10.767 25.9429C12.2549 25.9429 16.7946 25.9427 19.3201 22.6761C19.8823 22.9368 20.4781 23.1783 21.0887 23.397C22.922 25.1064 25.5836 25.9437 29.2114 25.9556C29.393 25.9625 29.6584 25.9693 29.9741 25.9693C33.2064 25.9693 35.636 25.2743 37.3753 23.8529C40.3349 25.3092 44.2911 26 49.5316 26C56.1539 26 61.0574 24.2718 64.1051 20.863C66.9212 17.7128 67.1001 14.2825 66.9698 12.5707C67.0168 10.4333 66.2736 7.61439 64.0205 5.20928Z" fill="white"/>
<path d="M34.2083 3.58356C34.2083 3.58356 33.4856 2.47537 29.2032 2.57589C24.9206 2.67668 24.7385 4.23817 24.7385 4.23817L24.8259 14.4639C24.8259 14.4639 21.6628 8.34027 20.23 6.55537C18.5358 4.44487 18.9529 2.77096 10.9231 2.57559C2.89317 2.38079 3.89108 3.58328 3.89108 3.58328V20.2569C3.89108 20.2569 3.29426 21.8685 8.06781 21.9696C12.8411 22.0698 12.2971 20.2569 12.2971 20.2569L12.172 6.55537C12.172 6.55537 15.9854 17.436 25.1178 19.7529V20.2566C25.1178 20.2566 25.1048 22.0129 29.6093 21.9911C29.6093 21.9911 34.3103 22.3218 34.2209 20.2566C34.1318 18.1917 34.2083 3.58356 34.2083 3.58356Z" fill="#3F3F46"/>
<path d="M64.1578 11.7359C64.1578 11.7359 65.271 2.36409 50.3696 2.71178C48.954 2.47253 47.0518 2.4309 44.916 3.1294C40.3801 4.61247 37.5155 7.55029 37.7539 11.7359C37.9929 15.9215 37.6105 21.9008 51.696 21.9008C65.7814 21.9008 64.1578 11.7359 64.1578 11.7359ZM50.8844 14.9487C44.3905 14.9487 42.0514 13.6969 42.0514 12.2603C42.0514 11.0553 45.9188 9.47931 50.8844 9.47931C56.1363 9.47931 59.813 10.5108 59.813 12.2603C59.813 13.6969 57.7123 14.9487 50.8844 14.9487Z" fill="#3F3F46"/>
</g>
</g>
<defs>
<filter id="filter0_d_108_368" x="-1" y="-1" width="71" height="30" filterUnits="userSpaceOnUse" color-interpolation-filters="sRGB">
<feFlood flood-opacity="0" result="BackgroundImageFix"/>
<feColorMatrix in="SourceAlpha" type="matrix" values="0 0 0 0 0 0 0 0 0 0 0 0 0 0 0 0 0 0 127 0" result="hardAlpha"/>
<feOffset dx="1" dy="1"/>
<feGaussianBlur stdDeviation="1"/>
<feComposite in2="hardAlpha" operator="out"/>
<feColorMatrix type="matrix" values="0 0 0 0 0 0 0 0 0 0 0 0 0 0 0 0 0 0 0.25 0"/>
<feBlend mode="normal" in2="BackgroundImageFix" result="effect1_dropShadow_108_368"/>
<feBlend mode="normal" in="SourceGraphic" in2="effect1_dropShadow_108_368" result="shape"/>
</filter>
<clipPath id="clip0_108_368">
<rect width="70" height="29" fill="white"/>
</clipPath>
</defs>
</svg>
