<svg width="83" height="29" viewBox="0 0 83 29" fill="none" xmlns="http://www.w3.org/2000/svg">
<g clip-path="url(#clip0_108_370)">
<g filter="url(#filter0_d_108_370)">
<path d="M4.86395 15.5356C4.85785 15.8138 4.85597 16.0858 4.85902 16.3475C4.8757 17.8894 5.04969 19.1827 5.39091 20.2948C6.46154 23.7852 9.10912 25.1631 10.5917 25.6697C10.7323 25.7176 10.8655 25.93 10.9923 25.9751C11.9387 26.3127 13.3689 27 15.1699 27C15.1703 27 15.1706 27 15.1708 27C16.1421 27 18.6053 26.8217 20.6684 25.1179C22.8207 26.4207 25.4056 27 27.9151 27C27.9153 27 27.9155 27 27.9158 27C28.3317 27 28.7624 26.8144 29.1956 26.786C29.5836 26.7607 29.9685 26.622 30.3461 26.542C32.7755 26.0273 36.4078 24.4427 38.7075 21.0306C38.7869 21.0324 38.8656 21.1443 38.9462 21.1443C38.9464 21.1443 38.9466 21.1443 38.9469 21.1443C39.9562 21.1443 40.9357 20.8426 41.8577 20.5478C42.0134 20.498 42.1611 20.3754 42.3044 20.3304C42.4948 21.9102 42.9854 23.2958 44.2446 24.4752C45.9366 26.0578 48.4679 27 51.7686 27C51.7688 27 51.7691 27 51.7693 27C52.2742 27 52.7789 26.8021 53.2584 26.7629C53.3423 26.7575 53.4249 26.6668 53.5078 26.6642C55.5096 26.5941 57.7239 26.4166 60.4342 24.8495C62.6219 26.268 65.277 27 67.8323 27C67.8325 27 67.8328 27 67.833 27C68.3767 27 68.9424 26.8017 69.514 26.7516C69.8766 26.7197 70.2354 26.5776 70.5879 26.4978C71.261 26.346 73.6394 25.6706 75.9824 23.9145C79.1718 21.5241 80.9533 18.026 80.9984 14.1035C81.0446 10.1158 80.1163 7.05975 78.1605 4.7835C76.6752 3.05445 73.8888 0.951052 69.0483 0.773766C68.8337 0.765891 68.6237 0.75963 68.4194 0.75963C65.5941 0.75963 63.2915 1.47341 61.5694 2.45616C60.6728 1.98367 59.728 1.63576 58.7772 1.42112C57.0267 1.02556 55.3825 0.824246 53.8911 0.824246C53.0574 0.824246 52.2608 0.887443 51.5042 1.01263C51.1904 0.986586 50.8621 0.971434 50.5223 0.971434C47.2268 0.971434 44.3289 2.39801 42.7703 4.78814C42.5127 5.1831 42.314 5.57281 42.1606 5.95343C41.9087 5.96271 41.6548 5.97645 41.3986 6.00007C40.6466 6.06933 39.9379 6.1933 39.274 6.34757C38.7374 5.41368 38.0704 4.57087 37.2671 3.82659C35.1382 1.85383 32.2375 0.755786 29.0991 0.73418L28.9681 0.733786C27.7312 0.733786 26.6279 0.853119 25.6463 1.04777C24.2772 0.342462 22.7218 0 21.2076 0C20.6801 0 20.1407 0.0403876 19.6034 0.119742C18.5407 0.249173 12.179 0.757001 6.58603 1.1778C3.68365 1.39608 1.23686 3.12815 0.43019 5.53545C0.102354 6.51416 -0.780413 9.94701 1.63279 13.0239C2.46882 14.0886 3.56929 14.9383 4.86395 15.5356Z" fill="white"/>
<path d="M21.7971 6.13868C21.7971 4.15466 21.2029 2.66362 19.2558 3.00898C17.716 3.28195 2.60696 4.59501 2.60696 4.59501C2.60696 4.59501 1.38282 8.81542 5.17707 9.20742C6.38854 9.33274 7.7161 9.29354 9.04797 9.16049C8.35352 14.0673 7.64524 21.8423 9.95756 22.7554C13.3664 24.1013 14.028 25.2396 15.198 12.7634L15.7574 7.89151C16.6831 7.65345 17.4239 7.44458 17.8805 7.32555C20.465 6.65172 21.7971 6.43712 21.7971 6.13868Z" fill="#3F3F46"/>
<path d="M29.178 3.92838C25.6337 3.89912 24.3297 5.62654 24.3297 5.62654C24.3297 5.62654 21.5149 8.45712 21.5553 15.3387C21.5885 21.0182 23.6686 23.9088 28.724 23.5128C28.724 23.5128 34.3244 22.0933 34.8219 14.4333C35.349 6.31884 32.0333 3.95191 29.178 3.92838ZM30.0347 13.4721C29.7151 17.5183 28.7611 20.8398 27.6309 20.6404C27.0442 20.5374 26.7639 17.9355 26.9672 12.8788C27.1532 8.25542 28.3384 7.1167 29.0818 7.16347C29.8253 7.21052 30.487 7.74416 30.0347 13.4721Z" fill="#3F3F46"/>
<path d="M71.8109 3.93669C68.1297 3.78147 66.8192 5.76059 66.8192 5.76059C66.8192 5.76059 63.9714 8.65958 64.2007 15.5231C64.3897 21.188 66.6299 24.016 71.8727 23.4856C71.8727 23.4856 78.1588 21.8495 78.2353 14.1885C78.3147 6.25358 75.4921 4.09221 71.8109 3.93669ZM72.9612 13.4342C72.7391 17.4787 71.8385 20.8178 70.6587 20.6496C70.0461 20.5619 69.502 17.9685 69.7577 12.9248C70.0464 7.22489 71.0256 7.1398 71.7996 7.16683C72.573 7.19356 73.2754 7.7081 72.9612 13.4342Z" fill="#3F3F46"/>
<path d="M57.3826 4.49673C55.9542 4.12268 52.8172 3.44916 51.0694 4.45915C51.0694 4.45915 48.4175 3.38353 47.4116 5.17141C46.7869 6.28172 47.9901 7.01133 47.9457 9.38225C47.9016 11.7538 47.5912 22.4408 48.0487 22.9375C48.506 23.4332 50.3586 23.6535 51.9665 23.5011C53.5748 23.3494 54.9344 23.7471 57.9629 21.2626C59.6071 19.9138 61.2276 17.9976 61.5047 12.3943C61.7832 6.76128 58.8107 4.8705 57.3826 4.49673ZM53.2928 20.4382C54.6028 5.87674 52.9397 5.98542 52.9397 5.98542C53.361 5.42203 55.7488 5.99352 55.7488 5.99352C55.7488 5.99352 57.8796 6.65462 58.0012 11.2881C58.1538 17.1191 53.2928 20.4382 53.2928 20.4382Z" fill="#3F3F46"/>
<path d="M42.8549 11.951C40.1135 12.2445 37.5856 14.3743 36.5732 14.1541V14.306C37.0794 14.5705 38.8407 15.7208 39.893 15.3292C40.9459 14.9375 44.2014 13.738 45.4013 13.6646C45.4013 13.6646 45.5969 11.6574 42.8549 11.951Z" fill="#3F3F46"/>
</g>
</g>
<defs>
<filter id="filter0_d_108_370" x="-1" y="-1" width="85" height="31" filterUnits="userSpaceOnUse" color-interpolation-filters="sRGB">
<feFlood flood-opacity="0" result="BackgroundImageFix"/>
<feColorMatrix in="SourceAlpha" type="matrix" values="0 0 0 0 0 0 0 0 0 0 0 0 0 0 0 0 0 0 127 0" result="hardAlpha"/>
<feOffset dx="1" dy="1"/>
<feGaussianBlur stdDeviation="1"/>
<feComposite in2="hardAlpha" operator="out"/>
<feColorMatrix type="matrix" values="0 0 0 0 0 0 0 0 0 0 0 0 0 0 0 0 0 0 0.25 0"/>
<feBlend mode="normal" in2="BackgroundImageFix" result="effect1_dropShadow_108_370"/>
<feBlend mode="normal" in="SourceGraphic" in2="effect1_dropShadow_108_370" result="shape"/>
</filter>
<clipPath id="clip0_108_370">
<rect width="83" height="29" fill="white"/>
</clipPath>
</defs>
</svg>
