<svg width="26" height="43" viewBox="0 0 26 43" fill="none" xmlns="http://www.w3.org/2000/svg">
<g clip-path="url(#clip0_108_373)">
<g filter="url(#filter0_d_108_373)">
<path d="M22.5186 13.6244C21.9733 12.8384 21.354 12.2215 20.7659 11.7466C20.8234 11.6107 20.8717 11.4865 20.9099 11.3754C21.2808 10.2946 21.6789 8.11341 20.1752 5.64696C19.4905 4.52381 18.4252 3.37748 16.9182 2.14204C14.8913 0.48048 13.9302 0 12.6328 0C11.1205 0 9.70747 0.846459 8.86312 2.2579C7.17789 5.07516 1.59363 14.5791 0.486043 18.5866C0.199189 19.6241 -0.673321 22.7811 0.987068 25.5915C1.76948 26.9159 2.80753 27.6468 3.78653 28.061C3.7685 28.0953 3.75064 28.1295 3.73261 28.1639C2.93369 29.6868 2.10767 31.2613 1.50383 33.1009C0.984946 34.6845 1.18971 36.4602 2.05133 37.8507C2.9287 39.2664 4.18032 39.9063 5.78952 40.4321C6.94299 40.809 7.90639 41 8.6523 41C10.1599 40.9998 11.1929 40.2973 11.793 39.7094C12.6823 38.8382 13.8964 37.0916 16.2666 33.5865C16.7037 32.9403 17.1075 32.3431 17.4334 31.8706C18.5859 30.2 22.5847 23.6807 23.5331 20.9895C24.4102 18.5026 24.0403 15.8183 22.5186 13.6244Z" fill="white"/>
<path d="M12.6359 2.0575C12.8528 2.0575 18.677 5.74743 18.0621 7.33915C17.4471 8.93067 10.9718 18.0105 10.9718 18.0105L17.1938 13.5611C17.1938 13.5611 17.1937 13.5611 18.7855 14.2483C20.3772 14.9357 22.4392 16.6721 21.6069 18.7703C20.775 20.8686 16.1445 27.8502 14.2635 30.2738C12.3826 32.6974 8.6204 37.7983 7.49875 38.7747C7.19758 39.0372 3.27628 37.9634 3.41099 37.5979C4.3733 34.9918 6.08793 32.6249 7.53497 29.876C8.71258 27.6386 12.3101 21.6282 12.3101 21.6282L13.2145 19.928C13.2145 19.928 10.7207 21.7991 9.37984 22.8219C7.62553 24.1603 7.4263 24.4498 5.40053 24.1605C3.37476 23.8711 0.806298 24.2689 2.14487 19.9642C3.48345 15.6591 12.6359 2.0575 12.6359 2.0575Z" fill="#F5A524"/>
</g>
</g>
<defs>
<filter id="filter0_d_108_373" x="-1" y="-1" width="28" height="45" filterUnits="userSpaceOnUse" color-interpolation-filters="sRGB">
<feFlood flood-opacity="0" result="BackgroundImageFix"/>
<feColorMatrix in="SourceAlpha" type="matrix" values="0 0 0 0 0 0 0 0 0 0 0 0 0 0 0 0 0 0 127 0" result="hardAlpha"/>
<feOffset dx="1" dy="1"/>
<feGaussianBlur stdDeviation="1"/>
<feComposite in2="hardAlpha" operator="out"/>
<feColorMatrix type="matrix" values="0 0 0 0 0 0 0 0 0 0 0 0 0 0 0 0 0 0 0.25 0"/>
<feBlend mode="normal" in2="BackgroundImageFix" result="effect1_dropShadow_108_373"/>
<feBlend mode="normal" in="SourceGraphic" in2="effect1_dropShadow_108_373" result="shape"/>
</filter>
<clipPath id="clip0_108_373">
<rect width="26" height="43" fill="white"/>
</clipPath>
</defs>
</svg>
