<svg width="92" height="30" viewBox="0 0 92 30" fill="none" xmlns="http://www.w3.org/2000/svg">
<g clip-path="url(#clip0_108_369)">
<g filter="url(#filter0_d_108_369)">
<path d="M83.3049 1.40485C80.7318 0.241608 77.9502 0.116127 76.8735 0.116127C75.6369 0.116127 74.5377 0.258536 73.5414 0.543371C73.2244 0.457323 72.8898 0.381237 72.5356 0.317099C71.9178 0.205555 71.2777 0.148988 70.6321 0.148988C68.9316 0.148988 67.4673 0.540983 66.5117 0.883582C65.0948 0.472065 63.8086 0.374463 63.095 0.320285C62.041 0.241009 61.0052 0.365904 60.0522 0.664483C59.0157 0.375464 57.9656 0.22767 56.9196 0.22767C55.6598 0.22767 54.4239 0.447164 53.3119 0.8541C52.5513 0.571456 51.761 0.387415 50.9709 0.297781C50.8861 0.279855 50.7956 0.26172 50.7004 0.244192C50.0542 0.125876 49.3878 0.0659292 48.7191 0.0659292C47.2625 0.0659292 45.9564 0.350166 44.8596 0.725233C43.5355 0.263919 42.3587 0.172891 41.8025 0.130266C41.7557 0.126481 41.709 0.123487 41.6622 0.119105C41.3538 0.0904226 41.0375 0.075886 40.7225 0.075886C38.9776 0.075886 37.2446 0.492385 35.6056 1.26522C34.1985 0.442588 32.5303 0 30.7603 0C30.7103 0 30.6605 0.000399344 30.609 0.0009969C28.7996 0.026891 27.2662 0.38661 26.0642 0.81944C25.0371 0.485804 23.8846 0.296383 22.6157 0.296383C21.8051 0.296383 21.0429 0.372072 20.3302 0.509112C19.6625 0.315703 18.9477 0.186439 18.1941 0.128077C17.8652 0.102582 17.5203 0.0906207 17.1093 0.0906207C14.5196 0.0906207 7.65696 0.671251 6.30787 0.787576C4.12782 0.975607 2.1762 2.02074 1.03216 3.61283C-0.111874 5.20492 -0.317182 7.16091 0.477776 8.9004C1.00268 10.0495 2.04781 11.3088 3.62347 12.2595C3.59705 12.9572 3.57205 13.4681 3.55077 13.732C3.14488 18.7545 3.88115 21.626 6.09207 23.6437C7.65042 25.0659 9.7657 25.8262 12.0449 25.7561C12.0779 25.7551 12.1101 25.7549 12.1419 25.7549C12.3182 25.7549 12.5434 25.7648 12.7814 25.7756C13.0954 25.7895 13.451 25.8053 13.838 25.8053C13.838 25.8053 13.838 25.8053 13.8382 25.8053C15.1775 25.8053 16.3524 25.5991 17.4296 25.1753C17.521 25.1392 17.6084 25.099 17.6975 25.0605C19.3277 25.7593 21.2673 26.0146 23.3398 25.7326C23.7803 25.6724 24.2068 25.5933 24.6188 25.4882C25.9573 26.223 27.4603 26.792 29.007 26.8321C29.0904 26.8343 29.1739 27 29.2557 27C29.256 27 29.2562 27 29.2564 27C30.6378 27 31.9574 26.5498 33.1209 25.9925C33.6649 25.9423 34.4611 25.9021 35.3566 25.6702C37.0204 26.5136 38.899 27 40.593 27C40.5932 27 40.5932 27 40.5935 27C41.8523 27 43.0417 26.6327 44.0969 26.2074C45.2246 26.6327 46.3981 26.7546 47.4773 26.7546C47.9232 26.7546 48.3775 26.6922 48.8276 26.6331C50.1994 26.4528 51.4068 25.9848 52.4456 25.2659C52.7467 25.3689 53.014 25.4465 53.3355 25.5141C53.7201 25.5947 54.7652 25.7752 55.9343 25.7752V25.7746C57.3372 25.7746 58.5625 25.5471 59.6699 25.1348C61.1137 25.7021 62.4391 25.8099 63.2112 25.8099C64.3735 25.8099 65.5159 25.5896 66.5383 25.183C67.5033 25.5507 68.4885 25.7509 69.5101 25.8003C69.6945 25.8093 69.8842 25.8137 70.0675 25.8137C71.2174 25.8137 72.3167 25.7894 73.3256 25.4667C74.7067 25.8483 76.1936 26.2035 77.632 26.2035C77.6327 26.2035 77.6324 26.2035 77.6331 26.2035C83.628 26.2035 88.1467 22.6301 88.876 17.5337C89.24 14.9913 88.8018 12.7076 87.5732 10.8773C88.9987 6.04688 86.2895 2.75374 83.3049 1.40485Z" fill="white"/>
<path d="M15.545 4.77153C13.8429 4.61703 4.06497 5.60691 4.06497 5.60691C4.06497 5.60691 4.57684 6.92183 6.63296 6.96841C7.25911 6.98266 7.76614 6.99105 8.15125 6.99589C8.12096 8.5432 8.0166 13.5641 7.9125 15.0753C7.78905 16.87 7.51059 22.3466 9.274 22.2847C11.0379 22.2229 12.461 22.6561 12.461 21.821C12.461 21.4506 12.9866 18.2776 13.0749 14.8587C13.1597 11.5678 12.9907 8.05221 12.9067 6.58584L15.1115 6.34938L16.4114 6.07067C16.4114 6.07093 17.2468 4.92603 15.545 4.77153Z" fill="#006FEE"/>
<path d="M31.9148 8.18457C31.9805 7.23261 31.8491 4.60633 29.8795 4.63916C27.9099 4.67225 26.6625 5.72245 26.6625 5.72245C26.6625 5.72245 25.9819 6.80601 25.3117 13.0024L22.7961 13.9872C23.073 10.7989 23.4126 6.91545 23.4126 6.91545C23.4126 6.91545 23.183 5.0179 21.0493 5.0179C18.9155 5.0179 18.5217 6.5642 18.5217 6.5642C18.5217 6.5642 17.5698 16.2622 17.9307 18.1944C18.2921 20.1273 17.7752 22.7976 20.6305 22.341C22.988 21.9638 22.2965 19.8112 22.4932 17.4918C22.52 17.1762 22.5568 16.7476 22.6001 16.2474L25.1136 15.5294C24.8838 21.9332 27.2482 23.4179 28.2375 23.4479C29.3208 23.4808 29.5838 22.2007 29.5176 20.3625C29.4524 18.5242 31.8491 9.13627 31.9148 8.18457Z" fill="#006FEE"/>
<path d="M40.9592 4.74633C39.4493 4.58216 36.1996 6.35447 33.9017 11.41C31.604 16.4648 31.3777 22.4652 31.3777 22.4652C33.7658 22.2369 33.6174 21.5158 33.6174 21.5158C34.1226 19.6009 34.4159 18.2572 34.7119 17.0546L37.6886 16.2039C37.4657 18.6077 37.3244 20.8504 37.5779 21.585C38.2018 23.3904 41.3527 24.1128 41.5173 23.0295C41.6815 21.9462 42.7317 16.3996 43.421 10.524C44.1105 4.64782 42.4693 4.91051 40.9592 4.74633ZM37.9452 13.6201L35.3907 14.6205C37.2386 8.55797 37.7268 8.79672 38.212 8.83108C38.438 8.84687 38.2102 11.0402 37.9452 13.6201Z" fill="#006FEE"/>
<path d="M57.1299 5.32053C57.1299 5.32053 55.6022 8.34057 55.8412 15.9056C54.7859 14.0577 53.3623 10.6769 53.0584 8.17639C52.6318 4.66408 50.5757 4.94229 50.5757 4.94229V4.9428C50.3211 4.87586 50.2018 4.82012 50.0188 4.78067C48.3434 4.42076 46.651 5.87185 46.651 5.87185C46.651 5.87185 45.5972 14.6818 45.9309 18.0139C46.2641 21.3462 46.5054 23.7439 48.4198 23.4487C49.7535 23.2428 50.6345 18.0969 50.6345 18.0969C50.6345 18.0969 50.7913 16.83 50.9857 15.2023C52.5229 17.2495 54.8521 18.7075 56.0693 19.4955C56.1482 20.349 56.2441 21.2403 56.3668 22.1824C56.3668 22.1824 58.8076 22.7836 59.0043 21.3068C59.2016 19.8297 61.8273 6.23991 61.8273 6.23991C61.8273 6.23991 61.5728 6.00269 59.8 5.24799C58.0277 4.49228 57.1299 5.32053 57.1299 5.32053Z" fill="#006FEE"/>
<path d="M73.8093 4.87815C72.726 4.64856 71.5116 5.30501 71.5116 5.30501L67.1652 11.5665C67.3314 10.6573 67.4902 9.8525 67.6221 9.25257C68.2788 6.26587 67.7534 5.31365 64.4384 5.01839C64.4384 5.01839 63.8631 6.11519 63.3795 8.38207C62.4797 12.5979 61.1801 16.7196 62.789 20.002C64.3971 23.2845 66.367 22.4967 66.006 21.3808C65.9088 21.0805 65.934 20.2782 66.0346 19.2115C66.4927 18.8279 67.0168 18.2743 67.575 17.6135C68.7912 19.3191 71.0939 22.2666 72.5379 22.3489C74.5732 22.4642 75.1642 20.5279 74.2779 19.5757C74.2779 19.5757 73.9826 20.3306 73.654 19.871C73.399 19.5141 70.5301 16.6923 69.2618 15.4505C71.5297 12.3591 73.8546 8.57576 74.4991 7.53726C75.6806 5.63335 74.8926 5.10774 73.8093 4.87815Z" fill="#006FEE"/>
<path d="M80.6743 11.4294C78.5093 9.7156 80.0594 7.86056 80.5048 7.50803C80.9502 7.1555 81.2256 7.37924 81.2256 7.37924C81.2256 7.37924 80.6341 8.38338 81.0197 8.82092C81.4059 9.25846 83.491 11.421 84.0314 9.97929C84.5722 8.53787 85.0309 6.33565 83.5378 5.54328C82.0445 4.75092 79.5302 4.5954 78.7287 5.01105C77.9271 5.42671 77.4392 6.07882 77.079 7.13947C76.7184 8.20011 75.8168 10.4161 78.2881 12.3101C80.7596 14.2043 81.8951 14.4324 81.7665 15.7967C81.6377 17.161 81.5217 19.2197 79.7198 19.0015C79.7198 19.0015 79.1471 19.4788 79.5012 15.282C79.5012 15.282 79.2436 13.8144 77.8793 13.7889C76.5153 13.763 75.8972 13.8146 75.9486 15.6424C76.0001 17.4702 75.5371 20.7392 77.905 21.8202C80.2737 22.9015 85.008 23.167 85.6021 18.2937C86.2456 13.0169 82.9651 13.2429 80.6743 11.4294Z" fill="#006FEE"/>
</g>
</g>
<defs>
<filter id="filter0_d_108_369" x="-1" y="-1" width="93" height="31" filterUnits="userSpaceOnUse" color-interpolation-filters="sRGB">
<feFlood flood-opacity="0" result="BackgroundImageFix"/>
<feColorMatrix in="SourceAlpha" type="matrix" values="0 0 0 0 0 0 0 0 0 0 0 0 0 0 0 0 0 0 127 0" result="hardAlpha"/>
<feOffset dx="1" dy="1"/>
<feGaussianBlur stdDeviation="1"/>
<feComposite in2="hardAlpha" operator="out"/>
<feColorMatrix type="matrix" values="0 0 0 0 0 0 0 0 0 0 0 0 0 0 0 0 0 0 0.25 0"/>
<feBlend mode="normal" in2="BackgroundImageFix" result="effect1_dropShadow_108_369"/>
<feBlend mode="normal" in="SourceGraphic" in2="effect1_dropShadow_108_369" result="shape"/>
</filter>
<clipPath id="clip0_108_369">
<rect width="92" height="30" fill="white"/>
</clipPath>
</defs>
</svg>
