<svg width="21" height="49" viewBox="0 0 21 49" fill="none" xmlns="http://www.w3.org/2000/svg">
<g clip-path="url(#clip0_108_374)">
<g filter="url(#filter0_d_108_374)">
<path d="M6.13183 47C8.97076 47 10.7919 44.4357 11.489 42.2398C11.6931 41.5968 11.7952 40.9114 11.79 40.2205C11.7359 33.2303 12.5051 27.2328 13.271 23.0361C13.8438 22.8658 14.4571 22.6059 15.1062 22.2573C16.8349 21.3295 17.8773 20.27 18.4863 18.822C19.0676 17.4397 19.1518 15.8611 18.7578 14.4451C18.5582 13.1031 18.0964 8.54325 17.7562 4.6662C17.5749 2.6012 15.6528 0 13.4328 0H11.5773C10.2611 0 8.62669 0.372777 7.5 1.23704C6.40488 2.07707 5.42125 3.4983 4.19601 5.36656C3.15837 6.94898 2.21626 8.488 2.17668 8.55366C1.27807 10.0392 1.06136 11.9844 1.60308 13.7146C1.74341 14.1628 2.03825 14.9002 2.6078 15.6417C2.30324 17.1601 1.99158 18.9095 1.69006 20.8019C0.75375 26.6756 0.129245 32.4702 0.0196542 36.304C-0.0821089 39.8558 0.17115 42.6178 1.73761 44.5563C3.36987 46.5766 5.02809 47 6.13183 47Z" fill="white"/>
<path d="M7.8324 10.4404C7.8324 10.4404 7.08618 11.0916 5.78403 10.8203C4.48188 10.549 4.27147 10.0063 4.27147 10.0063C4.27147 10.0063 9.42981 3.11505 10.2979 3.11505C10.8247 2.46387 12.5803 2.46387 12.5803 2.46387H15.185C15.185 2.46387 16.4871 14.4559 16.867 14.9986C17.247 15.5411 13.6114 17.1145 12.6891 16.9521C11.7667 16.7891 11.3325 13.3165 11.3325 13.3165C11.3325 13.3165 6.61183 25.3625 6.77442 42.3466C6.77442 42.3466 5.58074 45.3856 3.0847 42.8893C0.588251 40.3931 5.96026 11.7969 7.8324 10.4404Z" fill="#006FEE"/>
</g>
</g>
<defs>
<filter id="filter0_d_108_374" x="-1" y="-1" width="23" height="51" filterUnits="userSpaceOnUse" color-interpolation-filters="sRGB">
<feFlood flood-opacity="0" result="BackgroundImageFix"/>
<feColorMatrix in="SourceAlpha" type="matrix" values="0 0 0 0 0 0 0 0 0 0 0 0 0 0 0 0 0 0 127 0" result="hardAlpha"/>
<feOffset dx="1" dy="1"/>
<feGaussianBlur stdDeviation="1"/>
<feComposite in2="hardAlpha" operator="out"/>
<feColorMatrix type="matrix" values="0 0 0 0 0 0 0 0 0 0 0 0 0 0 0 0 0 0 0.25 0"/>
<feBlend mode="normal" in2="BackgroundImageFix" result="effect1_dropShadow_108_374"/>
<feBlend mode="normal" in="SourceGraphic" in2="effect1_dropShadow_108_374" result="shape"/>
</filter>
<clipPath id="clip0_108_374">
<rect width="21" height="49" fill="white"/>
</clipPath>
</defs>
</svg>
