<svg width="34" height="40" viewBox="0 0 34 40" fill="none" xmlns="http://www.w3.org/2000/svg">
<g clip-path="url(#clip0_108_375)">
<g filter="url(#filter0_d_108_375)">
<path d="M30.115 6.68707L29.9291 6.43321C28.3276 4.24572 25.6471 0.584392 20.5445 0.0925719C19.9072 0.0311964 19.2404 0 18.5627 0C14.5609 0 6.99706 1.09477 1.30288 8.42659C-0.148195 10.2948 -0.410106 12.866 0.63261 15.0054C1.0238 15.8084 1.56203 16.7798 2.25303 17.7381C1.57466 19.2207 1.47657 20.9727 2.0975 22.5986C2.21869 22.9159 2.87081 24.5781 3.80793 26.1266C3.83931 26.181 3.92062 26.3399 3.98003 26.4561C4.12806 26.7456 4.34753 27.1734 4.65247 27.6583C4.55438 28.4387 4.58459 29.2447 4.75176 30.0457C5.54776 33.8599 9.32703 36.5727 10.5869 37.1972C11.5413 37.6705 12.573 38 13.6532 38H13.6538C15.6376 38 17.2158 37.1008 18.3681 36.5092C18.626 36.3769 18.8694 36.1883 19.0589 36.1031C21.3955 35.0507 22.9429 33.0675 23.3043 30.6841C23.419 29.928 23.4 29.1544 23.2639 28.4097C23.3126 28.3791 23.3132 28.3486 23.3612 28.3163C25.0418 27.1879 26.0063 25.2547 26.0063 23.184V22.3866C26.0063 22.0552 26.0296 21.7265 25.9785 21.4027C27.2859 20.3355 28.514 19.2362 29.2348 18.3056C29.3459 18.1621 29.4657 18.0273 29.5677 17.8994C30.3317 16.94 31.3841 15.6263 31.812 13.6702C32.3345 11.2825 31.7674 8.93309 30.115 6.68707Z" fill="white"/>
<path d="M28.4909 8.2355C26.7279 5.91556 24.8217 3.17831 21.3419 2.85338C17.8624 2.52871 9.04254 2.76046 2.7326 10.6246C2.7326 10.6246 5.28429 15.6933 7.3722 15.1366C9.46012 14.5799 15.7233 8.13658 21.0125 8.60062C21.0125 8.60062 9.04253 18.7641 4.95962 20.9911C4.95962 20.9911 5.65568 22.7556 6.58376 24.2404C7.51157 25.7249 8.05623 27.9063 10.3297 27.3496C12.6032 26.7929 20.5485 24.1493 21.5925 24.6134V23.5926L18.9596 20.1593C18.9596 20.1593 25.8087 15.5662 27.4793 13.4783C29.1494 11.3903 30.2542 10.5554 28.4909 8.2355Z" fill="#F31260"/>
<path d="M17.6259 32.1293C15.0742 29.2529 11.548 28.7889 10.7128 29.5311C9.87793 30.2737 8.99633 30.923 8.99633 30.923C8.02206 32.0828 11.1304 34.8203 12.2905 35.3768C13.4504 35.9335 15.1669 34.7272 16.9763 33.9385C18.7858 33.1498 17.6259 32.1293 17.6259 32.1293Z" fill="#F31260"/>
</g>
</g>
<defs>
<filter id="filter0_d_108_375" x="-1" y="-1" width="36" height="42" filterUnits="userSpaceOnUse" color-interpolation-filters="sRGB">
<feFlood flood-opacity="0" result="BackgroundImageFix"/>
<feColorMatrix in="SourceAlpha" type="matrix" values="0 0 0 0 0 0 0 0 0 0 0 0 0 0 0 0 0 0 127 0" result="hardAlpha"/>
<feOffset dx="1" dy="1"/>
<feGaussianBlur stdDeviation="1"/>
<feComposite in2="hardAlpha" operator="out"/>
<feColorMatrix type="matrix" values="0 0 0 0 0 0 0 0 0 0 0 0 0 0 0 0 0 0 0.25 0"/>
<feBlend mode="normal" in2="BackgroundImageFix" result="effect1_dropShadow_108_375"/>
<feBlend mode="normal" in="SourceGraphic" in2="effect1_dropShadow_108_375" result="shape"/>
</filter>
<clipPath id="clip0_108_375">
<rect width="34" height="40" fill="white"/>
</clipPath>
</defs>
</svg>
