<svg width="64" height="34" viewBox="0 0 64 34" fill="none" xmlns="http://www.w3.org/2000/svg">
<g clip-path="url(#clip0_108_371)">
<g filter="url(#filter0_d_108_371)">
<path d="M0.212723 14.1606C0.192564 14.7036 0.172407 15.2503 0.156332 15.7902C0.0953454 17.8412 0.0323177 22.1465 0.231097 23.7579C0.971096 29.7699 8.3471 31.8432 12.1507 31.9678C12.3952 31.9892 12.6417 32 12.8892 32C13.3526 32 13.82 31.962 14.2852 31.8844C15.7583 31.6387 17.0908 31.0135 18.145 30.116C19.2646 30.4936 20.4372 30.7345 22.1409 30.7345C23.0932 30.7345 24.9634 30.5659 26.795 29.45C28.7017 30.2672 31.074 30.696 33.8962 30.7241C33.9248 30.7243 33.9531 30.7246 33.9817 30.7246C35.0629 30.7246 36.1027 30.6939 37.0494 30.3195C38.2523 30.7697 39.5848 31.1816 40.99 31.1816C40.9903 31.1816 40.9903 31.1816 40.9905 31.1816C42.963 31.1816 45.037 30.5438 46.6816 29.7376C49.0124 28.5941 50.1936 26.6832 51.3416 23.9907C52.4062 23.2893 53.5715 22.3519 54.9056 21.2254C56.788 19.6361 58.6033 17.8829 59.3553 17.0618C62.2231 13.929 62.7883 9.88507 60.9054 5.98668C59.1777 2.40927 54.9395 0 50.3597 0C49.2982 0 48.2609 0.133097 47.2777 0.400435C46.8842 0.507508 46.527 0.608372 46.1963 0.710149C45.6826 0.628635 45.3017 0.579345 45.1554 0.561384C43.4279 0.350001 41.7371 0.678597 40.312 1.41798C39.4281 1.18357 38.2926 0.983236 36.7679 0.843004C36.4852 0.816294 36.2027 0.803174 35.9067 0.803174C35.6452 0.803174 35.0322 0.803166 33.1657 1.01639C32.5089 1.09146 31.8722 1.24251 31.2687 1.46196C30.581 1.30307 29.8244 1.19209 28.9842 1.1541C28.7461 1.1435 28.5187 1.1237 28.2559 1.1009C27.8042 1.06176 27.2924 1.01754 26.693 1.01754C24.239 1.01754 22.0389 1.84304 20.4252 3.30661C19.7709 3.24398 19.0868 3.21243 18.3736 3.21243C18.1692 3.21243 17.9732 3.2152 17.788 3.21935C17.0064 2.58197 16.1605 2.15275 15.3702 1.86377C13.7317 1.26416 11.8361 0.960217 9.736 0.960217C8.03554 0.960217 6.68593 1.15594 6.31287 1.21581C4.198 1.55591 2.33882 2.68167 1.18901 4.31932C0.0657447 5.91874 -0.279502 7.86264 0.229567 9.69579C0.350263 10.461 0.267585 12.6812 0.212723 14.1606Z" fill="white"/>
<path d="M28.1187 5.37331C25.945 5.26494 25.1119 4.83901 24.5682 5.97581C24.2323 6.67885 21.9701 10.3709 20.104 14.4566C20.3168 11.6762 20.5106 9.35877 20.5106 9.35877C19.1704 7.61975 14.3518 8.1631 14.3518 8.1631C14.3518 8.1631 11.7669 9.84657 9.54433 13.9341C9.73722 10.312 10.1164 6.07844 9.06256 5.65131C6.75665 4.71645 3.33868 5.32531 3.33868 5.32531C3.90316 7.40664 3.62817 11.7241 3.5198 15.7588C3.4057 20.0111 3.44434 23.957 3.55633 24.9607C3.77155 26.8999 9.00098 27.9479 9.44743 27.6135L9.53286 27.714C9.53286 27.714 11.2619 22.7725 14.0448 17.6792C14.1722 20.8874 14.7037 23.5305 16.1267 24.4294C16.9227 24.932 17.5358 25.2849 18.0097 25.4528C18.0121 25.4537 18.0145 25.4552 18.017 25.4561C19.0611 25.8425 19.1845 26.0504 20.4738 26.0504C21.2393 26.0504 21.5382 25.2457 23.1549 21.3502C25.878 14.7889 27.937 10.0473 30.0745 6.56898C30.0751 6.56898 30.2924 5.48198 28.1187 5.37331Z" fill="#006FEE"/>
<path d="M39.8372 5.536C39.2981 5.17739 36.8388 4.92775 36.8388 4.92775C36.5373 4.89394 34.6543 5.13241 34.6543 5.13241C33.2733 7.01058 29.062 21.8654 28.8262 23.919C28.5902 25.9723 34.4804 26.0375 34.4804 26.0375C34.4804 26.0375 38.8936 10.5553 39.5 8.46918C40.1068 6.38272 40.3763 5.89401 39.8372 5.536Z" fill="#006FEE"/>
<path d="M58.03 6.26739C57.276 4.53773 54.6414 3.45978 52.8217 4.00826C51.198 4.49728 50.6982 4.73635 49.8804 5.24771C48.4258 4.78797 46.4827 4.52445 46.4827 4.52445C46.4827 4.52445 40.8092 21.2466 40.5695 24.0708C40.3299 26.895 43.9467 26.2835 45.1804 25.613C45.6148 25.377 46.5678 23.0125 47.6017 20.0063C50.0621 19.3346 56.3574 12.7888 57.516 11.386C58.8867 9.72702 58.7841 7.99735 58.03 6.26739ZM49.1232 14.0013C49.6696 12.0875 51.051 8.53919 51.2753 7.43317C53.814 5.56134 54.2079 5.86531 54.5007 6.19675C55.8372 8.20883 51.5556 11.7591 49.1232 14.0013Z" fill="#006FEE"/>
</g>
</g>
<defs>
<filter id="filter0_d_108_371" x="-1" y="-1" width="66" height="36" filterUnits="userSpaceOnUse" color-interpolation-filters="sRGB">
<feFlood flood-opacity="0" result="BackgroundImageFix"/>
<feColorMatrix in="SourceAlpha" type="matrix" values="0 0 0 0 0 0 0 0 0 0 0 0 0 0 0 0 0 0 127 0" result="hardAlpha"/>
<feOffset dx="1" dy="1"/>
<feGaussianBlur stdDeviation="1"/>
<feComposite in2="hardAlpha" operator="out"/>
<feColorMatrix type="matrix" values="0 0 0 0 0 0 0 0 0 0 0 0 0 0 0 0 0 0 0.25 0"/>
<feBlend mode="normal" in2="BackgroundImageFix" result="effect1_dropShadow_108_371"/>
<feBlend mode="normal" in="SourceGraphic" in2="effect1_dropShadow_108_371" result="shape"/>
</filter>
<clipPath id="clip0_108_371">
<rect width="64" height="34" fill="white"/>
</clipPath>
</defs>
</svg>
