<svg width="43" height="45" viewBox="0 0 43 45" fill="none" xmlns="http://www.w3.org/2000/svg">
<g filter="url(#filter0_d_103_88)">
<mask id="path-1-outside-1_103_88" maskUnits="userSpaceOnUse" x="-0.229004" y="-0.228943" width="41" height="43" fill="black">
<rect fill="white" x="-0.229004" y="-0.228943" width="41" height="43"/>
<path fill-rule="evenodd" clip-rule="evenodd" d="M20.7293 39.9425C30.6475 39.9425 38.6877 31.6214 38.6877 21.3568C38.6877 18.2381 37.9455 15.2988 36.6339 12.7177C37.3681 10.6505 36.0114 8.29638 33.8931 7.90342C33.5967 7.84827 33.3244 7.83411 33.068 7.85254C29.8505 4.70264 25.5079 2.77106 20.7293 2.77106C15.8998 2.77106 11.5155 4.7441 8.288 7.95382C8.044 7.94187 7.78172 7.95629 7.49439 8.00166C5.68485 8.28902 4.3462 9.89694 4.77729 11.9719C4.81611 12.1587 4.86639 12.3411 4.92709 12.5194C3.55187 15.1478 2.771 18.1579 2.771 21.3568C2.771 31.6214 10.8112 39.9425 20.7293 39.9425Z"/>
</mask>
<path d="M36.6339 12.7177L34.6755 12.0222L34.3767 12.8634L34.7811 13.6593L36.6339 12.7177ZM33.8931 7.90342L33.5129 9.94661L33.514 9.94682L33.8931 7.90342ZM33.068 7.85254L31.6142 9.33762L32.2832 9.99261L33.2171 9.92545L33.068 7.85254ZM8.288 7.95382L8.18632 10.0296L9.10284 10.0745L9.75349 9.42743L8.288 7.95382ZM7.49439 8.00166L7.17025 5.94884L7.16844 5.94912L7.49439 8.00166ZM4.77729 11.9719L2.74248 12.3946L2.74252 12.3948L4.77729 11.9719ZM4.92709 12.5194L6.76852 13.4829L7.18165 12.6933L6.89449 11.8497L4.92709 12.5194ZM36.6094 21.3568C36.6094 30.5414 29.433 37.8642 20.7293 37.8642V42.0207C31.8619 42.0207 40.7659 32.7013 40.7659 21.3568H36.6094ZM34.7811 13.6593C35.9469 15.9533 36.6094 18.5706 36.6094 21.3568H40.7659C40.7659 17.9055 39.944 14.6442 38.4866 11.7762L34.7811 13.6593ZM33.514 9.94682C34.3598 10.1037 34.9873 11.1441 34.6755 12.0222L38.5923 13.4133C39.7489 10.1569 37.6629 6.48903 34.2721 5.86002L33.514 9.94682ZM33.2171 9.92545C33.288 9.92035 33.3823 9.92231 33.5129 9.94661L34.2733 5.86024C33.8111 5.77423 33.3609 5.74786 32.919 5.77964L33.2171 9.92545ZM20.7293 4.84932C24.9331 4.84932 28.7621 6.5455 31.6142 9.33762L34.5219 6.36747C30.9389 2.85979 26.0827 0.692798 20.7293 0.692798V4.84932ZM9.75349 9.42743C12.6148 6.58184 16.4809 4.84932 20.7293 4.84932V0.692798C15.3186 0.692798 10.4162 2.90635 6.82252 6.48022L9.75349 9.42743ZM7.81853 10.0545C7.97938 10.0291 8.09844 10.0253 8.18632 10.0296L8.38969 5.87805C7.98957 5.85845 7.58406 5.8835 7.17025 5.94884L7.81853 10.0545ZM6.8121 11.5491C6.71172 11.066 6.82557 10.7462 6.97652 10.5386C7.14207 10.3109 7.4291 10.1163 7.82034 10.0542L7.16844 5.94912C4.28519 6.40699 2.05032 9.06313 2.74248 12.3946L6.8121 11.5491ZM6.89449 11.8497C6.86039 11.7495 6.83295 11.6495 6.81206 11.549L2.74252 12.3948C2.79927 12.6679 2.8724 12.9327 2.95969 13.1891L6.89449 11.8497ZM4.84926 21.3568C4.84926 18.4991 5.54625 15.8189 6.76852 13.4829L3.08567 11.5559C1.55748 14.4766 0.692737 17.8167 0.692737 21.3568H4.84926ZM20.7293 37.8642C12.0257 37.8642 4.84926 30.5414 4.84926 21.3568H0.692737C0.692737 32.7013 9.59674 42.0207 20.7293 42.0207V37.8642Z" fill="white" mask="url(#path-1-outside-1_103_88)"/>
</g>
<ellipse cx="20.7293" cy="21.3568" rx="17.9583" ry="18.5857" fill="url(#paint0_linear_103_88)"/>
<path fill-rule="evenodd" clip-rule="evenodd" d="M11.1705 9.3621C11.8806 8.2535 12.3509 7.31973 13.6716 6.92539C16.1511 6.18352 18.9492 8.50202 18.1325 11.4004C17.9002 12.2258 17.3157 13.2608 16.6496 14.2921C15.9187 15.4244 15.0883 16.5537 14.5163 17.3999L12.9562 19.7074L11.1109 18.3913C8.89069 16.8068 5.3929 14.9338 4.77729 11.9719C4.3462 9.89691 5.68485 8.28899 7.49439 8.00163C9.11139 7.74631 9.93526 8.471 11.1705 9.3621Z" fill="#F54180"/>
<path fill-rule="evenodd" clip-rule="evenodd" d="M30.5105 8.94314C31.6638 8.27219 32.5198 7.64785 33.8931 7.90339C36.472 8.3818 37.9221 11.767 35.8446 14.0025C35.2532 14.6392 34.2473 15.3019 33.1695 15.9236C31.9866 16.6063 30.7153 17.2403 29.808 17.7386L27.3337 19.0973L26.2788 17.0567C25.0101 14.6008 22.723 11.2935 23.5385 8.338C24.1099 6.26764 26.0609 5.43729 27.8254 6.01549C29.4015 6.53349 29.8091 7.56813 30.5105 8.94314Z" fill="#F54180"/>
<path d="M28.513 26.9434C29.2386 27.6085 29.1781 27.8503 29.2386 28.6365C29.2386 29.2411 28.7163 34.7374 21.2569 34.7374C13.6599 34.7374 12.9728 30.2086 12.7914 29.2992C12.731 28.5157 12.7915 27.6083 13.1543 27.1852C15.2102 25.7353 19.6175 26.166 21.2569 26.1548C22.8962 26.1437 27.2389 25.7757 28.513 26.9434Z" fill="#312107"/>
<defs>
<filter id="filter0_d_103_88" x="-3.99351e-06" y="5.70416e-05" width="42.8442" height="44.099" filterUnits="userSpaceOnUse" color-interpolation-filters="sRGB">
<feFlood flood-opacity="0" result="BackgroundImageFix"/>
<feColorMatrix in="SourceAlpha" type="matrix" values="0 0 0 0 0 0 0 0 0 0 0 0 0 0 0 0 0 0 127 0" result="hardAlpha"/>
<feOffset dx="0.692753" dy="0.692753"/>
<feGaussianBlur stdDeviation="0.692753"/>
<feComposite in2="hardAlpha" operator="out"/>
<feColorMatrix type="matrix" values="0 0 0 0 0 0 0 0 0 0 0 0 0 0 0 0 0 0 0.25 0"/>
<feBlend mode="normal" in2="BackgroundImageFix" result="effect1_dropShadow_103_88"/>
<feBlend mode="normal" in="SourceGraphic" in2="effect1_dropShadow_103_88" result="shape"/>
</filter>
<linearGradient id="paint0_linear_103_88" x1="20.7293" y1="2.77106" x2="20.7293" y2="39.9425" gradientUnits="userSpaceOnUse">
<stop stop-color="#FCF050"/>
<stop offset="1" stop-color="#F1BE3A"/>
</linearGradient>
</defs>
</svg>
