<svg width="72" height="44" viewBox="0 0 72 44" fill="none" xmlns="http://www.w3.org/2000/svg">
<g clip-path="url(#clip0_108_372)">
<g filter="url(#filter0_d_108_372)">
<path d="M61.276 0C60.3004 0 59.2989 0.126609 58.123 0.39878C56.8596 0.691406 53.0259 1.85632 50.839 2.52899C50.4911 2.35178 50.1267 2.18361 49.7418 2.0275C48.0671 1.34772 46.7227 1.04475 45.3831 1.04475C43.6663 1.04475 42.0789 1.57704 40.818 2.51176C39.8358 2.2004 38.7886 1.99542 37.6887 1.99542C35.8385 1.99542 34.1444 2.5755 32.8173 3.59571C31.3952 3.09228 29.8424 2.82054 28.2268 2.82054C28.0213 2.82054 27.8473 2.82528 27.7091 2.83153C26.3754 2.88902 25.1127 3.28564 24.0111 3.9538C23.1181 4.09591 22.2769 4.36615 21.505 4.74662C20.0763 4.18312 18.3713 3.83946 16.3724 3.83946C16.0884 3.83946 15.7965 3.84656 15.5053 3.86077C13.7906 3.94303 12.2448 4.24514 10.8777 4.76278C10.6212 4.74943 10.3632 4.74275 10.1042 4.74275C8.89853 4.74275 8.00047 4.89283 7.67012 4.95743C5.10622 5.45849 3.07115 7.30534 2.43341 9.71009C0.997885 15.1231 0.363333 20.5818 0.124381 22.6371C0.0980078 22.8645 0.0786824 23.035 0.0645863 23.1403C-0.232114 25.1644 0.449046 27.7612 3.03545 29.5861C2.85562 30.1681 2.75558 30.9398 2.75558 31.5664C2.75558 38.6315 7.36296 42 11.9292 42C11.9294 42 11.9296 42 11.9299 42C13.2469 42 14.396 41.5276 15.2468 41.2429C18.159 40.73 29.7692 38.5625 33.7784 37.8937C36.4016 37.4564 44.7129 36.869 49.6786 36.5424C51.266 36.4379 52.6447 36.327 53.6371 36.2549C55.7704 36.0994 57.1797 35.987 58.8279 34.8176C60.8054 33.4131 61.4879 31.4314 61.7773 29.8505C62.2557 28.4035 62.4737 27.0629 62.4344 25.8379C64.2578 24.9775 67.0814 23.4129 67.5056 19.8814C67.6418 18.7464 67.4794 17.6364 67.0475 16.6166C67.1039 16.49 67.1573 16.3591 67.208 16.2245C67.6336 15.0928 67.7302 13.9128 67.5124 12.7638C68.3511 12.0907 69.103 11.1691 69.583 9.89311C70.4299 7.64167 69.974 5.19902 68.3329 3.1922C66.6503 1.13347 64.1441 0 61.276 0ZM61.9826 23.4625C61.9826 23.4622 61.9826 23.4622 61.9826 23.4625C61.9826 23.4622 61.9826 23.4625 61.9826 23.4625Z" fill="white"/>
<path d="M9.33207 26.66C9.92749 26.6463 11.3909 26.5403 12.2367 25.8485C13.3157 24.9655 19.2025 19.733 19.1697 10.576C19.1697 10.576 18.4176 8.12301 13.9045 8.352C11.6597 8.46586 10.4514 9.12164 9.80348 9.75231C7.95585 9.15841 6.31742 9.49644 6.31742 9.49644C4.58415 16.3968 3.96286 23.5916 3.83201 24.507C3.70116 25.4228 9.35869 26.731 9.35869 26.731C9.3488 26.7105 9.34018 26.6866 9.33207 26.66ZM14.1178 11.5246C14.223 12.1287 14.1992 16.1947 9.73502 21.2971C10.1408 18.4932 10.7212 15.2359 11.1229 13.0675C11.5555 13.2062 11.9235 12.6965 12.4656 12.2114C13.0869 11.6552 14.0039 10.8704 14.1178 11.5246Z" fill="#17C964"/>
<path d="M25.6122 25.1945L26.0047 25.1223C27.5265 25.1395 30.812 23.2652 32.6109 18.85C34.4096 14.4353 34.1152 11.6228 32.6109 9.40059C31.1064 7.1784 28.196 7.10968 27.4763 7.1424C26.7566 7.17511 26.3645 8.33148 26.3645 8.33148L28.196 8.51583C31.5316 10.2164 29.1117 16.3319 27.2802 19.6678C26.2471 21.5497 25.4326 22.3592 24.9188 22.7076C24.7903 22.3356 24.68 21.9035 24.5986 21.4011C24.0754 18.1636 27.967 9.40085 27.967 9.40085C27.967 9.40085 24.1408 7.10994 23.0616 9.23576C21.9823 11.3613 18.4503 17.346 19.8565 22.1208C19.8565 22.1203 21.7206 25.1945 25.6122 25.1945Z" fill="#17C964"/>
<path d="M39.8463 23.6735C40.4369 22.8425 39.8731 21.5824 40.2855 17.505C40.4729 18.3104 40.7158 19.0334 41.0234 19.5854C41.7367 20.8653 42.6248 21.1879 43.4551 21.2127C43.4584 21.5297 43.4647 21.8482 43.4761 22.169C43.4761 22.169 43.8687 22.9538 45.4711 23.1501C47.0735 23.3464 47.3025 23.2155 47.695 20.6317C48.0876 18.0482 50.5403 7.38712 50.5403 7.38712C50.5403 7.38712 50.998 6.56955 48.7089 5.58842C46.4197 4.60729 46.3531 5.20779 46.2562 5.45757C46.2562 5.45757 44.3241 10.0754 43.644 16.41C42.8216 13.6355 41.9815 8.07382 41.9815 8.07382V7.82963C41.9815 7.82963 41.9959 7.84155 41.9368 7.86665C41.8537 7.68889 41.7446 7.52102 41.5009 7.38712C40.4871 6.83126 37.9243 5.44793 37.4171 6.63015V6.76583C37.4171 6.76583 34.5929 16.7404 34.8219 22.2019C34.8217 22.2019 38.9633 24.9161 39.8463 23.6735Z" fill="#17C964"/>
<path d="M66.426 4.62429C65.6412 3.61045 64.3332 3.70859 62.8613 4.06818C61.3898 4.42802 54.4891 6.67988 54.4891 6.67988C54.4891 6.67988 54.7826 7.03768 55.1969 7.42262C54.2721 8.66393 52.1348 11.673 51.35 13.9776C50.4454 16.6324 50.0372 19.6762 51.4223 20.9759C51.422 20.9766 51.4215 20.9774 51.4212 20.9781C51.4212 20.9781 51.4367 20.9918 51.4593 21.0111C51.5201 21.0656 51.5838 21.1179 51.6515 21.1656C52.0976 21.5061 53.1383 22.1944 54.2934 22.2187C55.8306 22.2514 59.3296 21.3684 61.4555 20.3221C63.5813 19.2753 64.497 18.9482 63.6467 18.2617C62.7962 17.5748 62.2403 16.8551 61.7499 17.1495C61.3068 17.4152 57.4604 18.8003 55.7992 18.826C56.1032 17.9924 56.6971 16.546 57.3494 14.9968C58.9437 14.4762 60.6873 13.8544 61.6517 13.6175C63.5158 13.1595 64.5624 13.0944 63.7775 12.0803C62.9927 11.0664 61.6844 11.1648 60.2129 11.5247C59.8972 11.602 59.3306 11.7663 58.6368 11.9768C59.4377 10.1165 60.082 8.64643 60.082 8.64643C60.082 8.64643 60.3173 8.06801 60.0044 7.53852C61.5972 7.01816 63.3376 6.39763 64.3007 6.16103C66.1643 5.70356 67.2109 5.63788 66.426 4.62429Z" fill="#17C964"/>
<path d="M57.7039 26.0123C56.436 26.0123 47.9831 26.0123 30.9144 28.4569C13.6532 30.9289 6.90576 33.1417 6.90576 33.1417C6.90576 39.4208 11.0935 37.1968 11.0935 37.1968C11.0935 37.1968 27.3812 34.1639 32.581 33.2482C37.7808 32.3327 57.0136 31.31 57.2753 31.114C57.5368 30.918 57.7037 29.577 57.7037 29.577C57.7037 29.577 58.9718 26.0123 57.7039 26.0123Z" fill="#17C964"/>
</g>
</g>
<defs>
<filter id="filter0_d_108_372" x="-1" y="-1" width="74" height="46" filterUnits="userSpaceOnUse" color-interpolation-filters="sRGB">
<feFlood flood-opacity="0" result="BackgroundImageFix"/>
<feColorMatrix in="SourceAlpha" type="matrix" values="0 0 0 0 0 0 0 0 0 0 0 0 0 0 0 0 0 0 127 0" result="hardAlpha"/>
<feOffset dx="1" dy="1"/>
<feGaussianBlur stdDeviation="1"/>
<feComposite in2="hardAlpha" operator="out"/>
<feColorMatrix type="matrix" values="0 0 0 0 0 0 0 0 0 0 0 0 0 0 0 0 0 0 0.25 0"/>
<feBlend mode="normal" in2="BackgroundImageFix" result="effect1_dropShadow_108_372"/>
<feBlend mode="normal" in="SourceGraphic" in2="effect1_dropShadow_108_372" result="shape"/>
</filter>
<clipPath id="clip0_108_372">
<rect width="72" height="44" fill="white"/>
</clipPath>
</defs>
</svg>
