<svg width="65" height="55" viewBox="0 0 65 55" fill="none" xmlns="http://www.w3.org/2000/svg">
<g clip-path="url(#clip0_120_1918)">
<g filter="url(#filter0_d_120_1918)">
<path fill-rule="evenodd" clip-rule="evenodd" d="M34.7618 14.8975C36.0255 12.0883 35.1746 8.77854 32.7128 6.92713L26.5935 2.32508C23.2167 -0.21445 18.3561 1.03509 16.6227 4.88831L0.584037 40.5414C-1.14934 44.3946 1.1401 48.8606 5.28049 49.7027L12.7836 51.2288C15.8021 51.8427 18.8432 50.2837 20.1069 47.4745L20.2189 47.2256L52.3093 50.6762C56.0393 52.1353 60.0794 50.1774 61.6453 46.6965C63.2111 43.2158 61.9962 38.8942 58.4306 37.0708L34.5597 15.3468L34.7618 14.8975ZM56.4545 40.0246C56.4549 40.0251 56.4553 40.0256 56.4555 40.0262C56.4558 40.0271 56.4558 40.0281 56.4554 40.029C56.456 40.0275 56.4557 40.0258 56.4545 40.0246ZM53.2173 47.2338C53.2157 47.2335 53.214 47.2343 53.2133 47.2359C53.2127 47.2374 53.2112 47.2382 53.2096 47.2381C53.2105 47.2382 53.2115 47.2379 53.2122 47.2373C53.2127 47.237 53.2131 47.2365 53.2133 47.2359C53.2135 47.2355 53.2141 47.2348 53.2141 47.2348C53.2145 47.2344 53.2151 47.2341 53.2157 47.2339C53.2162 47.2337 53.2168 47.2337 53.2173 47.2338Z" fill="white"/>
</g>
<path d="M30.6004 9.73608C31.7493 10.6001 32.1463 12.1446 31.5566 13.4556L16.9017 46.0326C16.312 47.3436 14.8928 48.0711 13.4842 47.7846L5.9811 46.2586C4.04892 45.8656 2.98052 43.7815 3.78943 41.9833L19.8281 6.3302C20.637 4.53204 22.9053 3.94892 24.4811 5.13403L30.6004 9.73608Z" fill="#F7B750"/>
<path d="M56.4422 39.9906L53.1979 47.2025L18.0126 43.4119C15.9062 44.4729 13.4601 44.6359 11.2316 43.8639L9.4757 43.2556C7.76105 42.6617 6.9308 40.7199 7.68597 39.0699L19.9644 12.2419C20.8309 10.3485 23.2891 9.84556 24.8297 11.2464L56.4422 39.9906Z" fill="#312107"/>
<path d="M56.4567 40.0265L53.2124 47.2384L12.3953 42.8494C10.3161 42.6258 9.06155 40.4371 9.91946 38.5301L21.2205 13.4083C22.0785 11.5012 24.5485 10.988 26.0951 12.3955L56.4567 40.0265Z" fill="#F5A524"/>
<path d="M53.4124 47.3285C51.5316 46.4824 50.7331 44.182 51.629 42.1905C52.5249 40.199 54.7759 39.2705 56.6567 40.1166C58.5376 40.9627 59.3361 43.2631 58.4402 45.2546C57.5443 47.2461 55.2933 48.1746 53.4124 47.3285Z" fill="#F5A524"/>
<ellipse cx="54.9343" cy="43.6775" rx="2.19666" ry="2.08683" transform="rotate(114.221 54.9343 43.6775)" fill="#312107"/>
<path d="M32.3701 27.7409L32.3844 27.7081L32.3877 27.6724C32.4065 27.4688 32.391 27.2788 32.3202 27.1184C32.2459 26.95 32.1167 26.8295 31.944 26.7659C31.7131 26.6809 31.4629 26.7034 31.2098 26.799C30.9639 26.8906 30.7659 27.0435 30.6247 27.2574L30.6144 27.273L30.6068 27.2901C30.1559 28.3115 29.4966 29.5927 28.6269 31.1351L28.0604 32.112C28.0004 32.2056 27.9367 32.3095 27.8694 32.4238L27.8649 32.4315L27.861 32.4395C27.815 32.534 27.7565 32.6319 27.6844 32.7331L27.6788 32.7409L27.6739 32.7492C27.6106 32.8567 27.5601 32.9528 27.5278 33.034L26.9307 34.0012C26.8329 34.1527 26.7463 34.2882 26.6715 34.407C26.5443 33.4257 26.492 32.0218 26.5181 30.1873L26.5185 30.1595L26.512 30.1324C26.4403 29.8334 26.2775 29.6002 26 29.498C25.7919 29.4215 25.5665 29.4502 25.3435 29.5398C25.1212 29.6292 24.8818 29.7865 24.6268 29.9998C24.1281 30.4093 23.532 30.9887 22.8397 31.7344C22.5437 32.0502 22.3003 32.3069 22.1083 32.5058C22.4739 30.7026 23.108 28.1672 24.0124 24.8964L24.0179 24.8764L24.0196 24.8557C24.0364 24.6552 24.017 24.4671 23.9401 24.3078C23.8599 24.1417 23.726 24.0253 23.553 23.9617C23.2794 23.861 22.9952 23.9059 22.7196 24.054C22.444 24.1931 22.2459 24.4027 22.1431 24.6822L22.1393 24.6925L22.1365 24.7031C21.4732 27.2596 21.095 28.7157 21.0016 29.0721L21.0015 29.072L20.9997 29.0799C20.9222 29.4265 20.844 29.7404 20.7653 30.0219L20.7651 30.0218L20.7631 30.0304C20.6942 30.3205 20.6453 30.5211 20.6161 30.6339L20.6134 30.6444L20.6117 30.6552C20.6025 30.7144 20.5952 30.759 20.5898 30.7897C20.5871 30.8051 20.5852 30.8158 20.5838 30.8225C20.5838 30.8227 20.5837 30.8229 20.5837 30.8231L20.5821 30.8291C20.2137 32.2424 19.9978 33.3391 19.9402 34.1116C19.9116 34.4962 19.9208 34.8163 19.9784 35.0604C20.0348 35.2997 20.1523 35.5202 20.3842 35.6055C20.7123 35.7263 21.0537 35.6532 21.3853 35.448L21.4014 35.438L21.4156 35.4255C21.9461 34.9563 22.5942 34.3174 23.3591 33.5109C23.9169 32.9228 24.3684 32.4702 24.7151 32.1503L24.7548 32.9078L24.7547 32.9078L24.7552 32.9144C24.7849 33.2762 24.8062 33.6091 24.819 33.9132L24.819 33.9132L24.8193 33.9178C24.8952 35.13 25.0615 36.1909 25.3204 37.0981L25.3252 37.1146L25.3324 37.1302C25.4457 37.3755 25.6501 37.5435 25.9169 37.6417C26.0634 37.6956 26.2138 37.7151 26.3617 37.6847C26.5098 37.6542 26.6376 37.5773 26.7446 37.4678C26.8501 37.3638 26.9922 37.1778 27.1663 36.9258C27.3446 36.6678 27.5654 36.3271 27.8284 35.9049L27.8286 35.9045C28.3295 35.0961 28.6162 34.6291 28.6796 34.5172C28.7424 34.4284 28.8828 34.2028 29.0942 33.8537C29.335 33.4744 29.5702 33.093 29.7998 32.7096C30.0232 32.3366 30.1726 32.0737 30.2405 31.9302C30.3146 31.7995 30.4378 31.5672 30.6087 31.2365C30.7942 30.903 31.0112 30.5181 31.2597 30.0819L31.2602 30.0811C31.5198 29.6213 31.8903 28.8388 32.3701 27.7409ZM33.9684 28.1335L33.9684 28.1334L33.9621 28.1349C33.7159 28.1939 33.5104 28.3121 33.3708 28.5032L33.3512 28.53L33.3404 28.5612L31.3803 34.1955C30.777 35.8349 30.2175 37.1841 29.7021 38.2448L29.6972 38.2548L29.6934 38.2652C29.6229 38.4566 29.602 38.6557 29.6819 38.8368C29.7625 39.0197 29.9242 39.1354 30.1138 39.2051C30.3506 39.2923 30.6028 39.2972 30.8627 39.231L30.8627 39.231L30.8654 39.2303C31.1398 39.1567 31.3645 39.0173 31.4864 38.786L31.4867 38.7861L31.4915 38.7758C31.9844 37.7125 32.5197 36.3953 33.0975 34.8253L33.0975 34.8253L33.0985 34.8226C34.0096 32.2441 34.6966 30.3087 35.1596 29.0163L35.1673 28.9948L35.1705 28.9721C35.1937 28.8059 35.1815 28.642 35.1081 28.499C35.0323 28.3514 34.9052 28.253 34.7517 28.1966C34.493 28.1013 34.2303 28.0787 33.9684 28.1335ZM36.8369 29.883L36.8366 29.8828L36.8309 29.8946C36.5572 30.4634 36.0596 31.7303 35.341 33.6831C34.6262 35.6253 34.0955 37.1869 33.7501 38.3659C33.6762 38.567 33.6136 38.7547 33.5623 38.9289L33.5582 38.9429L33.556 38.9573C33.55 38.9955 33.5327 39.0594 33.4977 39.1544L33.4935 39.1659L33.4906 39.1778C33.4643 39.2842 33.445 39.3732 33.4342 39.4423L33.434 39.4422L33.4328 39.4527C33.4272 39.5049 33.4212 39.575 33.4147 39.6618C33.4078 39.7541 33.4066 39.8387 33.4147 39.9107L33.4162 39.9245L33.4194 39.9379C33.431 39.9863 33.4547 40.0694 33.4885 40.1822C33.5244 40.3022 33.6085 40.3922 33.7 40.4591C33.7924 40.5266 33.9092 40.583 34.042 40.6319C34.2932 40.7243 34.5415 40.7008 34.7575 40.5448C34.9585 40.3996 35.1094 40.1554 35.2276 39.8523C35.4449 39.2952 35.9109 37.9664 36.6239 35.8718C37.1526 36.1638 37.6047 36.38 37.9782 36.5175C38.956 36.8773 39.8023 36.9703 40.4965 36.7515L40.4971 36.7513C40.9302 36.6134 41.342 36.3228 41.7347 35.9004L41.736 35.8991C42.141 35.4563 42.4767 34.8598 42.749 34.1199C43.0972 33.1736 42.9702 32.2988 42.363 31.5259C41.7886 30.7684 40.9563 30.1961 39.8824 29.8009C39.1631 29.5362 38.5479 29.3795 38.0416 29.3397C37.7796 29.3133 37.5389 29.3378 37.33 29.4285C37.1171 29.5209 36.9522 29.6758 36.8369 29.883ZM40.6313 32.3939L40.6313 32.394L40.6339 32.3969C40.9872 32.7866 41.0633 33.1474 40.9308 33.5075C40.776 33.9281 40.5616 34.3004 40.288 34.6262C40.2073 34.7177 40.0996 34.7903 39.9575 34.8409C39.7851 34.9023 39.6453 34.9489 39.5369 34.9813C39.4779 34.999 39.3555 35.0033 39.1435 34.9616C38.9503 34.9139 38.8092 34.8803 38.7225 34.8614L38.3204 34.7134C38.1329 34.6444 37.9055 34.543 37.6368 34.4077C37.5463 34.3528 37.4008 34.2747 37.2039 34.1745C37.315 33.7696 37.4571 33.3317 37.6305 32.8606C37.8188 32.3489 38.0423 31.8003 38.3012 31.2147C38.5193 31.2308 38.8482 31.3125 39.3024 31.4796C39.8229 31.6712 40.265 31.9753 40.6313 32.3939Z" fill="#312107" stroke="#312107" stroke-width="0.443936"/>
</g>
<defs>
<filter id="filter0_d_120_1918" x="-1" y="0" width="66.3165" height="54.3616" filterUnits="userSpaceOnUse" color-interpolation-filters="sRGB">
<feFlood flood-opacity="0" result="BackgroundImageFix"/>
<feColorMatrix in="SourceAlpha" type="matrix" values="0 0 0 0 0 0 0 0 0 0 0 0 0 0 0 0 0 0 127 0" result="hardAlpha"/>
<feOffset dx="1" dy="1"/>
<feGaussianBlur stdDeviation="1"/>
<feComposite in2="hardAlpha" operator="out"/>
<feColorMatrix type="matrix" values="0 0 0 0 0 0 0 0 0 0 0 0 0 0 0 0 0 0 0.25 0"/>
<feBlend mode="normal" in2="BackgroundImageFix" result="effect1_dropShadow_120_1918"/>
<feBlend mode="normal" in="SourceGraphic" in2="effect1_dropShadow_120_1918" result="shape"/>
</filter>
<clipPath id="clip0_120_1918">
<rect width="65" height="55" fill="white"/>
</clipPath>
</defs>
</svg>
