<svg width="48" height="48" viewBox="0 0 48 48" fill="none" xmlns="http://www.w3.org/2000/svg">
<g clip-path="url(#clip0_103_127)">
<g filter="url(#filter0_d_103_127)">
<path d="M44.1946 23.355C44.1946 34.8462 34.9624 44.1446 23.595 44.1446C12.2276 44.1446 2.99537 34.8462 2.99537 23.355C2.99537 11.8637 12.2276 2.56538 23.595 2.56538C34.9624 2.56538 44.1946 11.8637 44.1946 23.355Z" fill="url(#paint0_linear_103_127)" stroke="white" stroke-width="2.31081"/>
<path d="M23.1521 39.03C30.6047 39.03 33.475 31.9999 33.475 31.9999C35.4103 28.6428 33.1599 27.9843 32.2017 28.6262C25.4005 31.6382 22.4249 32.1958 13.8451 28.9471C13.3337 28.7947 11.2276 28.733 12.5052 31.4071C12.5052 31.4071 15.4863 39.03 23.1521 39.03Z" fill="#312107"/>
<path d="M23.1521 39.03C30.6047 39.03 33.475 31.9999 33.475 31.9999C35.4103 28.6428 33.1599 27.9843 32.2017 28.6262C25.4005 31.6382 22.4249 32.1958 13.8451 28.9471C13.3337 28.7947 11.2276 28.733 12.5052 31.4071C12.5052 31.4071 15.4863 39.03 23.1521 39.03Z" fill="#312107"/>
<circle cx="31.1" cy="18.32" r="6.84" fill="white"/>
<path d="M34.3299 18.225C34.3299 19.0071 34.0436 19.7222 33.5699 20.2714C32.995 20.938 32.1443 21.36 31.1949 21.36C30.2309 21.36 29.3686 20.9249 28.7935 20.2403C28.3357 19.6954 28.0599 18.9924 28.0599 18.225C28.0599 16.4936 29.4635 15.09 31.1949 15.09C32.9263 15.09 34.3299 16.4936 34.3299 18.225Z" fill="#312107"/>
<path d="M18.8099 18.0349C19.1899 18.6049 20.2335 19.426 19.7599 20.125C19.185 20.9734 18.3349 19.08 15.3899 18.985C12.8249 18.985 11.31 20.9962 10.7349 20.125C10.2771 19.4314 10.9249 18.605 11.4949 18.035C12.3499 16.99 14.0599 16.23 15.1999 16.23C16.3894 16.23 17.3849 16.515 18.8099 18.0349Z" fill="#312107"/>
</g>
<path d="M16.6394 40.5887C16.6394 38.8936 16.47 33.8082 16.47 33.8082C16.47 33.8082 22.7384 29.7397 29.7692 33.8082C29.6845 33.9774 29.7692 39.4021 29.7692 40.6734C29.8539 47.0301 23.1619 47.1996 23.1619 47.1996C23.1619 47.1996 17.1476 47.3691 16.6394 40.5887Z" fill="#F54180"/>
</g>
<defs>
<filter id="filter0_d_103_127" x="0.839966" y="0.409973" width="47.51" height="47.89" filterUnits="userSpaceOnUse" color-interpolation-filters="sRGB">
<feFlood flood-opacity="0" result="BackgroundImageFix"/>
<feColorMatrix in="SourceAlpha" type="matrix" values="0 0 0 0 0 0 0 0 0 0 0 0 0 0 0 0 0 0 127 0" result="hardAlpha"/>
<feOffset dx="1" dy="1"/>
<feGaussianBlur stdDeviation="1"/>
<feComposite in2="hardAlpha" operator="out"/>
<feColorMatrix type="matrix" values="0 0 0 0 0 0 0 0 0 0 0 0 0 0 0 0 0 0 0.25 0"/>
<feBlend mode="normal" in2="BackgroundImageFix" result="effect1_dropShadow_103_127"/>
<feBlend mode="normal" in="SourceGraphic" in2="effect1_dropShadow_103_127" result="shape"/>
</filter>
<linearGradient id="paint0_linear_103_127" x1="23.595" y1="1.40997" x2="23.595" y2="45.3" gradientUnits="userSpaceOnUse">
<stop stop-color="#FCF050"/>
<stop offset="1" stop-color="#F1BE3A"/>
</linearGradient>
<clipPath id="clip0_103_127">
<rect width="48" height="48" fill="white"/>
</clipPath>
</defs>
</svg>
