<svg width="48" height="48" viewBox="0 0 48 48" fill="none" xmlns="http://www.w3.org/2000/svg">
<g clip-path="url(#clip0_103_111)">
<g filter="url(#filter0_d_103_111)">
<path d="M44.2917 22.7948C44.2917 34.4969 35.0551 43.9321 23.7236 43.9321C12.3921 43.9321 3.15541 34.4969 3.15541 22.7948C3.15541 11.0926 12.3921 1.65742 23.7236 1.65742C35.0551 1.65742 44.2917 11.0926 44.2917 22.7948Z" fill="url(#paint0_linear_103_111)" stroke="white" stroke-width="2.31081"/>
<path d="M24.4623 38.6369C30.739 38.6369 33.68 33.365 33.68 33.365C34.5564 31.9519 34.9174 29.0558 32.8304 30.1941C28.6117 33.2559 21.5207 34.1195 15.6248 30.5866C14.1425 30.194 14.3191 32.062 15.3549 33.9147C15.3549 33.9147 18.006 38.6369 24.4623 38.6369Z" fill="#312107"/>
<path d="M24.4623 38.6369C30.739 38.6369 33.68 33.365 33.68 33.365C34.5564 31.9519 34.9174 29.0558 32.8304 30.1941C28.6117 33.2559 21.5207 34.1195 15.6248 30.5866C14.1425 30.194 14.3191 32.062 15.3549 33.9147C15.3549 33.9147 18.006 38.6369 24.4623 38.6369Z" fill="#312107"/>
<path d="M32.7744 19.2471C32.8356 19.3413 33.0185 19.6308 32.8661 19.8124C32.6812 20.0328 32.4077 19.3099 31.3685 19.2471C30.5128 19.1953 30.1384 19.6486 29.9015 19.7182C29.6876 19.781 29.657 19.5611 29.7487 19.3727C30.0085 18.8388 30.6045 18.3362 31.3074 18.3362C32.0104 18.3362 32.4994 18.7445 32.7744 19.2471Z" fill="#312107"/>
<path d="M16.7629 19.0022C16.9102 19.2125 17.3147 19.5154 17.1311 19.7733C16.9083 20.0863 16.5788 19.3878 15.4374 19.3527C14.4433 19.3527 13.8562 20.0947 13.6333 19.7733C13.4559 19.5174 13.7069 19.2125 13.9279 19.0022C14.2592 18.6166 14.922 18.3362 15.3638 18.3362C15.8248 18.3362 16.2106 18.4414 16.7629 19.0022Z" fill="#312107"/>
</g>
<path d="M16.9568 39.7752V35.0331C16.9568 35.0331 23.028 32.8503 30.0466 35.0331V39.3946C30.0466 43.1903 29.0992 47.4591 23.3126 47.4591C17.3362 47.4591 16.9568 41.293 16.9568 39.7752Z" fill="url(#paint1_linear_103_111)"/>
<path d="M23.2482 44.3286V39.206H23.6323V44.3286H23.2482ZM24.2671 40.8968C24.2483 40.7354 24.1679 40.61 24.0258 40.5207C23.8837 40.4313 23.6909 40.3866 23.4473 40.3866C23.2817 40.3866 23.142 40.4066 23.028 40.4466C22.914 40.4853 22.8266 40.5393 22.7657 40.6087C22.7063 40.6781 22.6767 40.7568 22.6767 40.8448C22.6735 40.9182 22.6915 40.9822 22.7305 41.0369C22.7711 41.0916 22.8266 41.139 22.8968 41.179C22.9671 41.2177 23.0483 41.2517 23.1404 41.281C23.2326 41.3091 23.3309 41.3331 23.4356 41.3531L23.8665 41.4411C24.0758 41.4811 24.2678 41.5345 24.4427 41.6012C24.6176 41.6679 24.7691 41.7499 24.8971 41.8473C25.0252 41.9447 25.1243 42.0594 25.1946 42.1915C25.2664 42.3236 25.3031 42.475 25.3047 42.6457C25.3031 42.8965 25.2282 43.114 25.0798 43.2981C24.9331 43.4808 24.7207 43.6229 24.4427 43.7243C24.1663 43.8243 23.833 43.8744 23.4426 43.8744C23.0553 43.8744 22.718 43.8237 22.4307 43.7223C22.145 43.6209 21.9217 43.4708 21.7608 43.272C21.6015 43.0719 21.518 42.8245 21.5102 42.5297H22.4916C22.5025 42.6671 22.5486 42.7818 22.6298 42.8738C22.7126 42.9646 22.8227 43.0333 22.9601 43.08C23.099 43.1253 23.256 43.148 23.4309 43.148C23.6026 43.148 23.7518 43.1266 23.8782 43.084C24.0063 43.0413 24.1054 42.9819 24.1757 42.9059C24.246 42.8298 24.2811 42.7424 24.2811 42.6437C24.2811 42.5517 24.2491 42.4743 24.1851 42.4116C24.1226 42.3489 24.0305 42.2956 23.9087 42.2515C23.7885 42.2075 23.6409 42.1675 23.466 42.1315L22.9437 42.0194C22.5392 41.9354 22.2199 41.804 21.9857 41.6252C21.7514 41.4465 21.6351 41.2057 21.6367 40.9029C21.6351 40.6547 21.7124 40.4379 21.8686 40.2525C22.0263 40.0671 22.2425 39.9224 22.5174 39.8183C22.7922 39.7143 23.1045 39.6622 23.4543 39.6622C23.8103 39.6622 24.1211 39.7143 24.3865 39.8183C24.6535 39.9224 24.8612 40.0671 25.0096 40.2525C25.1579 40.4379 25.2344 40.6527 25.2391 40.8968H24.2671Z" fill="#312107"/>
<circle cx="14.4904" cy="18.3362" r="6.45066" fill="#3BBA00"/>
<path d="M14.0591 21.6907V14.4659H14.477V21.6907H14.0591ZM15.1676 16.8507C15.1472 16.623 15.0597 16.4462 14.9051 16.3201C14.7505 16.194 14.5407 16.131 14.2757 16.131C14.0956 16.131 13.9435 16.1592 13.8195 16.2157C13.6955 16.2702 13.6004 16.3464 13.5341 16.4443C13.4695 16.5421 13.4373 16.6531 13.4373 16.7773C13.4339 16.8808 13.4534 16.9711 13.4959 17.0482C13.54 17.1254 13.6004 17.1922 13.6768 17.2486C13.7533 17.3032 13.8416 17.3511 13.9418 17.3925C14.0421 17.432 14.1491 17.4659 14.2629 17.4941L14.7319 17.6183C14.9595 17.6747 15.1685 17.75 15.3588 17.8441C15.549 17.9381 15.7138 18.0539 15.8532 18.1912C15.9925 18.3285 16.1004 18.4904 16.1768 18.6766C16.255 18.8629 16.2949 19.0764 16.2966 19.3172C16.2949 19.671 16.2133 19.9776 16.0519 20.2373C15.8922 20.495 15.6612 20.6954 15.3588 20.8384C15.058 20.9795 14.6953 21.0501 14.2706 21.0501C13.8493 21.0501 13.4823 20.9786 13.1697 20.8356C12.8588 20.6926 12.6158 20.4809 12.4408 20.2006C12.2675 19.9184 12.1766 19.5694 12.1682 19.1536H13.2359C13.2478 19.3473 13.2979 19.5092 13.3863 19.639C13.4763 19.7669 13.5961 19.8638 13.7456 19.9297C13.8968 19.9936 14.0676 20.0256 14.2578 20.0256C14.4447 20.0256 14.607 19.9955 14.7446 19.9353C14.8839 19.8751 14.9918 19.7914 15.0682 19.6841C15.1447 19.5769 15.1829 19.4537 15.1829 19.3144C15.1829 19.1846 15.1481 19.0755 15.0784 18.9871C15.0105 18.8986 14.9102 18.8234 14.7777 18.7613C14.6469 18.6992 14.4864 18.6427 14.2961 18.5919L13.7278 18.4339C13.2878 18.3154 12.9403 18.1301 12.6855 17.8779C12.4306 17.6258 12.3041 17.2862 12.3058 16.8591C12.3041 16.5092 12.3882 16.2035 12.5581 15.9419C12.7297 15.6804 12.965 15.4763 13.264 15.3295C13.563 15.1828 13.9028 15.1094 14.2833 15.1094C14.6707 15.1094 15.0088 15.1828 15.2976 15.3295C15.5881 15.4763 15.8141 15.6804 15.9755 15.9419C16.1369 16.2035 16.2201 16.5064 16.2252 16.8507H15.1676Z" fill="#312107"/>
<circle cx="30.9965" cy="18.3362" r="6.45066" fill="#3BBA00"/>
<path d="M30.5651 21.6907V14.4659H30.9831V21.6907H30.5651ZM31.6737 16.8507C31.6533 16.623 31.5658 16.4462 31.4112 16.3201C31.2566 16.194 31.0468 16.131 30.7817 16.131C30.6016 16.131 30.4496 16.1592 30.3256 16.2157C30.2015 16.2702 30.1064 16.3464 30.0401 16.4443C29.9756 16.5421 29.9433 16.6531 29.9433 16.7773C29.9399 16.8808 29.9594 16.9711 30.0019 17.0482C30.0461 17.1254 30.1064 17.1922 30.1829 17.2486C30.2593 17.3032 30.3477 17.3511 30.4479 17.3925C30.5481 17.432 30.6552 17.4659 30.769 17.4941L31.2379 17.6183C31.4656 17.6747 31.6745 17.75 31.8648 17.8441C32.0551 17.9381 32.2199 18.0539 32.3592 18.1912C32.4985 18.3285 32.6064 18.4904 32.6828 18.6766C32.761 18.8629 32.8009 19.0764 32.8026 19.3172C32.8009 19.671 32.7194 19.9776 32.558 20.2373C32.3983 20.495 32.1672 20.6954 31.8648 20.8384C31.5641 20.9795 31.2014 21.0501 30.7766 21.0501C30.3553 21.0501 29.9883 20.9786 29.6757 20.8356C29.3648 20.6926 29.1219 20.4809 28.9469 20.2006C28.7736 19.9184 28.6827 19.5694 28.6742 19.1536H29.742C29.7539 19.3473 29.804 19.5092 29.8923 19.639C29.9824 19.7669 30.1022 19.8638 30.2517 19.9297C30.4029 19.9936 30.5736 20.0256 30.7639 20.0256C30.9508 20.0256 31.113 19.9955 31.2506 19.9353C31.39 19.8751 31.4978 19.7914 31.5743 19.6841C31.6507 19.5769 31.689 19.4537 31.689 19.3144C31.689 19.1846 31.6541 19.0755 31.5845 18.9871C31.5165 18.8986 31.4163 18.8234 31.2838 18.7613C31.1529 18.6992 30.9924 18.6427 30.8021 18.5919L30.2338 18.4339C29.7938 18.3154 29.4464 18.1301 29.1915 17.8779C28.9367 17.6258 28.8101 17.2862 28.8118 16.8591C28.8101 16.5092 28.8942 16.2035 29.0641 15.9419C29.2357 15.6804 29.471 15.4763 29.77 15.3295C30.069 15.1828 30.4088 15.1094 30.7894 15.1094C31.1767 15.1094 31.5148 15.1828 31.8036 15.3295C32.0942 15.4763 32.3201 15.6804 32.4815 15.9419C32.6429 16.2035 32.7262 16.5064 32.7313 16.8507H31.6737Z" fill="#312107"/>
</g>
<defs>
<filter id="filter0_d_103_111" x="1" y="-0.497986" width="47.4471" height="48.5854" filterUnits="userSpaceOnUse" color-interpolation-filters="sRGB">
<feFlood flood-opacity="0" result="BackgroundImageFix"/>
<feColorMatrix in="SourceAlpha" type="matrix" values="0 0 0 0 0 0 0 0 0 0 0 0 0 0 0 0 0 0 127 0" result="hardAlpha"/>
<feOffset dx="1" dy="1"/>
<feGaussianBlur stdDeviation="1"/>
<feComposite in2="hardAlpha" operator="out"/>
<feColorMatrix type="matrix" values="0 0 0 0 0 0 0 0 0 0 0 0 0 0 0 0 0 0 0.25 0"/>
<feBlend mode="normal" in2="BackgroundImageFix" result="effect1_dropShadow_103_111"/>
<feBlend mode="normal" in="SourceGraphic" in2="effect1_dropShadow_103_111" result="shape"/>
</filter>
<linearGradient id="paint0_linear_103_111" x1="23.7236" y1="0.502014" x2="23.7236" y2="45.0875" gradientUnits="userSpaceOnUse">
<stop stop-color="#FCF050"/>
<stop offset="1" stop-color="#F1BE3A"/>
</linearGradient>
<linearGradient id="paint1_linear_103_111" x1="23.5017" y1="34.6527" x2="23.5017" y2="47.4591" gradientUnits="userSpaceOnUse">
<stop stop-color="#2A5F2C"/>
<stop offset="0.317708" stop-color="#46BC4A"/>
<stop offset="1" stop-color="#46BC4A"/>
</linearGradient>
<clipPath id="clip0_103_111">
<rect width="48" height="48" fill="white"/>
</clipPath>
</defs>
</svg>
