<svg width="49" height="48" viewBox="0 0 49 48" fill="none" xmlns="http://www.w3.org/2000/svg">
<g filter="url(#filter0_d_119_1364)">
<circle cx="23.6448" cy="23.1329" r="21.7993" transform="rotate(-30 23.6448 23.1329)" fill="url(#paint0_radial_119_1364)"/>
<circle cx="23.6448" cy="23.1329" r="20.6493" transform="rotate(-30 23.6448 23.1329)" fill="url(#paint1_linear_119_1364)" stroke="white" stroke-width="2.3"/>
<g filter="url(#filter1_di_119_1364)">
<path d="M29.0947 32.5722C35.3549 28.9579 37.9961 21.5064 35.697 15.015C35.2095 13.6388 33.5518 13.2177 32.2703 13.9576L11.3861 26.0151C10.1046 26.755 9.64037 28.4011 10.5885 29.5114C15.0607 34.7482 22.8344 36.1866 29.0947 32.5722Z" fill="black"/>
</g>
<path d="M35.77 24.4035C34.6692 27.7211 32.3804 30.6752 29.0946 32.5722C25.8087 34.4694 22.1058 34.9744 18.6823 34.2688C17.8266 31.2635 20.2429 27.1946 24.553 24.7062C28.8632 22.2177 33.5952 22.1596 35.77 24.4035Z" fill="#F54180"/>
<path d="M11.0673 28.1939C11.0673 30.3274 9.71045 31.2468 8.34234 31.2468C6.97422 31.2468 5.61743 30.1366 5.61743 28.1939C5.61743 26.727 6.78849 24.2015 7.59521 22.6358C7.91511 22.0149 8.76854 22.0155 9.08789 22.6367C9.89466 24.206 11.0673 26.7374 11.0673 28.1939Z" fill="url(#paint2_linear_119_1364)"/>
<path d="M37.2239 9.87568C39.0716 10.9425 39.1894 12.5772 38.5053 13.762C37.8212 14.9468 36.1814 15.5668 34.499 14.5954C33.2286 13.8619 31.627 11.585 30.6744 10.1035C30.2966 9.51603 30.7239 8.77728 31.4215 8.8113C33.184 8.89725 35.9625 9.14744 37.2239 9.87568Z" fill="url(#paint3_linear_119_1364)"/>
<path fill-rule="evenodd" clip-rule="evenodd" d="M9.78545 16.7024C8.87303 17.4453 8.27571 18.558 8.02736 19.3433C7.80045 20.0607 7.0349 20.4584 6.31747 20.2315C5.60003 20.0046 5.20238 19.239 5.42929 18.5216C5.79342 17.3703 6.63904 15.7504 8.06485 14.5894C9.56108 13.371 11.6564 12.7041 14.2331 13.5507C14.948 13.7855 15.3371 14.5555 15.1023 15.2703C14.8674 15.9852 14.0975 16.3743 13.3826 16.1394C11.7657 15.6082 10.6275 16.0167 9.78545 16.7024Z" fill="black"/>
<path fill-rule="evenodd" clip-rule="evenodd" d="M24.7313 8.07344C23.8189 8.81642 23.2215 9.92914 22.9732 10.7144C22.7463 11.4318 21.9807 11.8295 21.2633 11.6026C20.5459 11.3757 20.1482 10.6101 20.3751 9.89267C20.7393 8.74136 21.5849 7.12148 23.0107 5.96045C24.5069 4.74209 26.6022 4.07518 29.179 4.92176C29.8938 5.15663 30.283 5.92655 30.0481 6.64142C29.8132 7.35629 29.0433 7.74541 28.3284 7.51054C26.7115 6.9793 25.5733 7.3878 24.7313 8.07344Z" fill="black"/>
</g>
<defs>
<filter id="filter0_d_119_1364" x="0.841797" y="-1" width="51.1582" height="51" filterUnits="userSpaceOnUse" color-interpolation-filters="sRGB">
<feFlood flood-opacity="0" result="BackgroundImageFix"/>
<feColorMatrix in="SourceAlpha" type="matrix" values="0 0 0 0 0 0 0 0 0 0 0 0 0 0 0 0 0 0 127 0" result="hardAlpha"/>
<feOffset dx="1" dy="1"/>
<feGaussianBlur stdDeviation="1"/>
<feComposite in2="hardAlpha" operator="out"/>
<feColorMatrix type="matrix" values="0 0 0 0 0 0 0 0 0 0 0 0 0 0 0 0 0 0 0.25 0"/>
<feBlend mode="normal" in2="BackgroundImageFix" result="effect1_dropShadow_119_1364"/>
<feBlend mode="normal" in="SourceGraphic" in2="effect1_dropShadow_119_1364" result="shape"/>
</filter>
<filter id="filter1_di_119_1364" x="9.63168" y="13.1428" width="28.2477" height="22.7925" filterUnits="userSpaceOnUse" color-interpolation-filters="sRGB">
<feFlood flood-opacity="0" result="BackgroundImageFix"/>
<feColorMatrix in="SourceAlpha" type="matrix" values="0 0 0 0 0 0 0 0 0 0 0 0 0 0 0 0 0 0 127 0" result="hardAlpha"/>
<feOffset dx="0.454153" dy="0.454153"/>
<feGaussianBlur stdDeviation="0.454153"/>
<feColorMatrix type="matrix" values="0 0 0 0 1 0 0 0 0 0.87451 0 0 0 0 0.423529 0 0 0 1 0"/>
<feBlend mode="normal" in2="BackgroundImageFix" result="effect1_dropShadow_119_1364"/>
<feBlend mode="normal" in="SourceGraphic" in2="effect1_dropShadow_119_1364" result="shape"/>
<feColorMatrix in="SourceAlpha" type="matrix" values="0 0 0 0 0 0 0 0 0 0 0 0 0 0 0 0 0 0 127 0" result="hardAlpha"/>
<feOffset dx="0.908306" dy="0.908306"/>
<feGaussianBlur stdDeviation="0.908306"/>
<feComposite in2="hardAlpha" operator="arithmetic" k2="-1" k3="1"/>
<feColorMatrix type="matrix" values="0 0 0 0 0 0 0 0 0 0 0 0 0 0 0 0 0 0 0.25 0"/>
<feBlend mode="normal" in2="shape" result="effect2_innerShadow_119_1364"/>
</filter>
<radialGradient id="paint0_radial_119_1364" cx="0" cy="0" r="1" gradientUnits="userSpaceOnUse" gradientTransform="translate(15.9242 6.78335) rotate(78.559) scale(38.9223)">
<stop stop-color="#FFEA9F"/>
<stop offset="0.122763" stop-color="#FFE380"/>
<stop offset="0.415997" stop-color="#FFD250"/>
<stop offset="0.643669" stop-color="#FFC122"/>
<stop offset="1" stop-color="#FFB422"/>
</radialGradient>
<linearGradient id="paint1_linear_119_1364" x1="23.6448" y1="1.33352" x2="23.6448" y2="44.9322" gradientUnits="userSpaceOnUse">
<stop stop-color="#FCF050"/>
<stop offset="1" stop-color="#F1BE3A"/>
</linearGradient>
<linearGradient id="paint2_linear_119_1364" x1="8.34235" y1="22.1705" x2="8.34235" y2="31.2468" gradientUnits="userSpaceOnUse">
<stop stop-color="#7EE7FC"/>
<stop offset="1" stop-color="#006FEE"/>
</linearGradient>
<linearGradient id="paint3_linear_119_1364" x1="30.645" y1="9.22383" x2="38.5053" y2="13.762" gradientUnits="userSpaceOnUse">
<stop stop-color="#7EE7FC"/>
<stop offset="1" stop-color="#006FEE"/>
</linearGradient>
</defs>
</svg>
