<svg width="51" height="49" viewBox="0 0 51 49" fill="none" xmlns="http://www.w3.org/2000/svg">
<g clip-path="url(#clip0_103_89)">
<g filter="url(#filter0_d_103_89)">
<ellipse cx="24.9332" cy="23.7893" rx="21.2515" ry="20.3235" fill="url(#paint0_linear_103_89)"/>
<path d="M24.9332 45.2682C37.259 45.2682 47.3401 35.6998 47.3401 23.7893C47.3401 11.8787 37.259 2.31035 24.9332 2.31035C12.6074 2.31035 2.5263 11.8787 2.5263 23.7893C2.5263 35.6998 12.6074 45.2682 24.9332 45.2682Z" stroke="white" stroke-width="2.31081"/>
</g>
<path d="M20.7572 23.5108C20.7572 24.4369 20.4944 25.2837 20.0597 25.9339C19.5322 26.7232 18.7515 27.2229 17.8803 27.2229C16.9957 27.2229 16.2043 26.7077 15.6766 25.8971C15.2565 25.2519 15.0035 24.4195 15.0035 23.5108C15.0035 21.4607 16.2915 19.7988 17.8803 19.7988C19.4692 19.7988 20.7572 21.4607 20.7572 23.5108Z" fill="#312107"/>
<path d="M21.14 20.688C20.8203 21.3215 18.6938 20.8928 16.3903 19.7304C14.0868 18.568 12.4786 17.1122 12.7982 16.4788C13.1179 15.8453 17.281 16.386 19.5845 17.5484C21.888 18.7107 21.4596 20.0546 21.14 20.688Z" fill="#936316"/>
<path d="M34.1205 23.5108C34.1205 24.4369 33.8577 25.2837 33.4231 25.9339C32.8955 26.7232 32.1148 27.2229 31.2437 27.2229C30.359 27.2229 29.5677 26.7077 29.04 25.8971C28.6199 25.2519 28.3668 24.4195 28.3668 23.5108C28.3668 21.4607 29.6548 19.7988 31.2437 19.7988C32.8325 19.7988 34.1205 21.4607 34.1205 23.5108Z" fill="#312107"/>
<path d="M27.8844 20.7115C28.2053 21.3476 30.3403 20.9174 32.6532 19.7506C34.9661 18.5839 36.5809 17.1224 36.26 16.4864C35.9392 15.8503 31.7593 16.3927 29.4464 17.5595C27.1336 18.7262 27.5636 20.0755 27.8844 20.7115Z" fill="#936316"/>
<path d="M24.6251 32.6113C29.8272 32.4314 31.6984 36.3879 31.6984 36.3879C31.7874 36.7876 31.2155 36.9616 30.8375 36.8124C25.9918 34.8995 23.6311 35.2253 18.7854 36.8124C18.3318 36.9879 17.5735 36.7875 17.8445 36.2385C17.8445 36.2385 20.3037 32.7608 24.6251 32.6113Z" fill="#312107"/>
<path d="M24.6251 32.6113C29.8272 32.4314 31.6984 36.3879 31.6984 36.3879C31.7874 36.7876 31.2155 36.9616 30.8375 36.8124C25.9918 34.8995 23.6311 35.2253 18.7854 36.8124C18.3318 36.9879 17.5735 36.7875 17.8445 36.2385C17.8445 36.2385 20.3037 32.7608 24.6251 32.6113Z" fill="#312107"/>
<path d="M12.5906 15.9198V15.9161L12.6 15.9063V15.9062H12.591V15.9011H12.609V15.9052L12.6005 15.9146V15.9147H12.6093V15.9198H12.5906Z" fill="#3655F5"/>
<path d="M12.405 16.1054V16.1017L12.4143 16.0919V16.0918H12.4054V16.0867H12.4234V16.0908L12.4149 16.1002V16.1003H12.4237V16.1054H12.405Z" fill="#3655F5"/>
<path d="M12.2194 16.291V16.2873L12.2287 16.2775V16.2774H12.2198V16.2723H12.2378V16.2764L12.2293 16.2858V16.2859H12.2381V16.291H12.2194Z" fill="#3655F5"/>
</g>
<defs>
<filter id="filter0_d_103_89" x="0.370911" y="0.154968" width="51.1246" height="49.2686" filterUnits="userSpaceOnUse" color-interpolation-filters="sRGB">
<feFlood flood-opacity="0" result="BackgroundImageFix"/>
<feColorMatrix in="SourceAlpha" type="matrix" values="0 0 0 0 0 0 0 0 0 0 0 0 0 0 0 0 0 0 127 0" result="hardAlpha"/>
<feOffset dx="1" dy="1"/>
<feGaussianBlur stdDeviation="1"/>
<feComposite in2="hardAlpha" operator="out"/>
<feColorMatrix type="matrix" values="0 0 0 0 0 0 0 0 0 0 0 0 0 0 0 0 0 0 0.25 0"/>
<feBlend mode="normal" in2="BackgroundImageFix" result="effect1_dropShadow_103_89"/>
<feBlend mode="normal" in="SourceGraphic" in2="effect1_dropShadow_103_89" result="shape"/>
</filter>
<linearGradient id="paint0_linear_103_89" x1="24.9332" y1="3.46576" x2="24.9332" y2="44.1127" gradientUnits="userSpaceOnUse">
<stop stop-color="#F7B750"/>
<stop offset="1" stop-color="#F31260"/>
</linearGradient>
<clipPath id="clip0_103_89">
<rect width="51" height="49" fill="white"/>
</clipPath>
</defs>
</svg>
