<svg width="48" height="45" viewBox="0 0 48 45" fill="none" xmlns="http://www.w3.org/2000/svg">
<g clip-path="url(#clip0_120_1934)">
<g filter="url(#filter0_d_120_1934)">
<path d="M37.1491 36.3124L37.1531 36.3088C41.2842 32.6447 43.4513 27.5174 43.4513 21.5368C43.4513 19.8527 43.2797 18.2317 42.9392 16.6886C42.953 16.6829 42.9681 16.6772 42.9845 16.6715C43.0658 16.6433 43.1508 16.6263 43.219 16.617C43.2515 16.6125 43.2763 16.6103 43.29 16.6093L43.2989 16.6088L44.2645 16.5884V15.614V12.7882V11.9141L43.3977 11.8013C42.6055 11.6982 41.8111 11.613 41.0153 11.546C40.019 9.74292 38.726 8.12596 37.1531 6.73079L37.149 6.72725C33.3576 3.40075 28.2718 1.601 22.804 1.601C15.8072 1.601 8.29485 4.73047 4.54454 11.5714C3.85069 11.6339 3.15789 11.7106 2.46655 11.8015L1.601 11.9152V12.7882V15.614V16.5884L2.56712 16.6088C2.56784 16.6088 2.5687 16.6089 2.56971 16.609C2.57771 16.6095 2.59412 16.6107 2.61689 16.6133C2.63255 16.615 2.6503 16.6173 2.66964 16.6203C2.33483 18.1447 2.15671 19.7833 2.15671 21.5368C2.15671 28.3307 4.83235 33.3485 8.79593 36.6508C12.7339 39.9317 17.8835 41.4725 22.804 41.4725C28.2418 41.4725 33.3603 39.6365 37.1491 36.3124Z" fill="white" stroke="white" stroke-width="1.99038"/>
<path d="M22.804 40.4773C13.3507 40.4773 3.15189 34.5477 3.15189 21.5367C3.15189 8.52564 13.3507 2.59613 22.804 2.59613C28.0558 2.59613 32.9011 4.32416 36.4927 7.47527C40.3892 10.9313 42.4561 15.8105 42.4561 21.5367C42.4561 27.2629 40.3892 32.1082 36.4927 35.5642C32.9011 38.7153 28.022 40.4773 22.804 40.4773Z" fill="url(#paint0_linear_120_1934)"/>
<path d="M22.9395 32.01C19.0396 32.01 16.2544 29.977 15.4175 28.7098C15.1024 28.2998 15.038 27.7509 15.2481 27.2799C15.4074 26.9783 15.7225 26.792 16.0647 26.8022C16.1901 26.8022 16.3154 26.8225 16.434 26.8598C18.5449 27.4968 20.7372 27.8153 22.9395 27.8017C25.1419 27.8153 27.3376 27.4968 29.4451 26.8598C29.5637 26.8225 29.689 26.8022 29.8144 26.8022C30.1566 26.792 30.4717 26.9783 30.631 27.2799C30.841 27.7509 30.7767 28.2998 30.4616 28.7098C29.6246 29.9838 26.8395 32.01 22.9395 32.01Z" fill="black"/>
<path d="M43.2693 15.614C43.2693 15.614 41.8259 15.6445 41.8259 16.7999C41.8259 19.6528 41.8597 25.7755 34.3716 25.7755C28.3879 25.7755 25.5316 22.6854 25.0504 19.2733C24.8539 17.8536 24.3728 16.3086 22.926 16.3086C21.4792 16.3086 21.0116 17.8435 20.815 19.2733C20.3339 22.6854 17.4776 25.7755 11.4939 25.7755C4.01927 25.7755 4.0396 19.6528 4.0396 16.7999C4.0396 15.6445 2.59619 15.614 2.59619 15.614V12.7881C4.91717 12.4832 7.2551 12.3409 9.59302 12.3612C13.8216 12.3612 15.5056 12.3612 18.8702 12.7C20.8591 12.8966 22.9361 12.9203 22.9361 12.9203C22.9361 12.9203 25.003 12.8966 27.0021 12.7C30.3666 12.3612 32.0506 12.3612 36.2792 12.3612C38.6171 12.3409 40.9517 12.4866 43.2693 12.7881V15.614Z" fill="black"/>
<path d="M8.41045 17.8435C8.37657 18.3856 8.15972 18.8871 7.62776 18.9887C7.56677 18.9989 7.50917 19.0057 7.44818 19.0057C6.97043 19.0023 6.56044 18.6567 6.4859 18.1823C6.27922 17.2472 6.50623 16.2679 7.10257 15.5191C7.65147 14.855 8.47144 14.4721 9.33207 14.4755C9.8437 14.4281 10.2977 14.8042 10.3452 15.3158C10.3452 15.326 10.3486 15.3362 10.3486 15.3497C10.3486 15.9867 9.84031 16.2578 9.33207 16.434C8.77639 16.6847 8.41723 17.2336 8.41045 17.8435Z" fill="#52525B"/>
<path d="M29.9533 17.8434C29.9228 18.3856 29.7025 18.887 29.174 18.9887C29.113 18.9988 29.052 19.0056 28.991 19.0056C28.5099 19.0056 28.0999 18.6566 28.0219 18.1823C27.8153 17.2471 28.0423 16.2679 28.6386 15.5191C29.1909 14.855 30.0075 14.4721 30.8715 14.4755C31.3831 14.428 31.8372 14.8041 31.8846 15.3158C31.8846 15.3259 31.888 15.3361 31.888 15.3497C31.888 15.9867 31.3797 16.2577 30.8715 16.4339C30.3192 16.6846 29.96 17.2335 29.9533 17.8434Z" fill="#52525B"/>
</g>
</g>
<defs>
<filter id="filter0_d_120_1934" x="-0.25958" y="-0.25955" width="48.1154" height="45.3234" filterUnits="userSpaceOnUse" color-interpolation-filters="sRGB">
<feFlood flood-opacity="0" result="BackgroundImageFix"/>
<feColorMatrix in="SourceAlpha" type="matrix" values="0 0 0 0 0 0 0 0 0 0 0 0 0 0 0 0 0 0 127 0" result="hardAlpha"/>
<feOffset dx="0.865385" dy="0.865385"/>
<feGaussianBlur stdDeviation="0.865385"/>
<feComposite in2="hardAlpha" operator="out"/>
<feColorMatrix type="matrix" values="0 0 0 0 0 0 0 0 0 0 0 0 0 0 0 0 0 0 0.25 0"/>
<feBlend mode="normal" in2="BackgroundImageFix" result="effect1_dropShadow_120_1934"/>
<feBlend mode="normal" in="SourceGraphic" in2="effect1_dropShadow_120_1934" result="shape"/>
</filter>
<linearGradient id="paint0_linear_120_1934" x1="22.804" y1="2.59613" x2="22.804" y2="40.4773" gradientUnits="userSpaceOnUse">
<stop stop-color="#FCF050"/>
<stop offset="1" stop-color="#F1BE3A"/>
</linearGradient>
<clipPath id="clip0_120_1934">
<rect width="47.5962" height="45" fill="white"/>
</clipPath>
</defs>
</svg>
