<svg width="46" height="46" viewBox="0 0 46 46" fill="none" xmlns="http://www.w3.org/2000/svg">
<g clip-path="url(#clip0_103_187)">
<g filter="url(#filter0_d_103_187)">
<circle cx="22.1627" cy="21.9815" r="19.5093" fill="url(#paint0_linear_103_187)" stroke="white" stroke-width="2.31081"/>
<path d="M16.6581 16.2965C16.6581 17.1519 16.4108 17.9342 16.0018 18.5349C15.5053 19.264 14.7707 19.7255 13.9509 19.7255C13.1184 19.7255 12.3737 19.2496 11.8771 18.5009C11.4818 17.9048 11.2437 17.1359 11.2437 16.2965C11.2437 14.4026 12.4558 12.8674 13.9509 12.8674C15.446 12.8674 16.6581 14.4026 16.6581 16.2965Z" fill="#312107"/>
<path d="M31.8183 16.2965C31.8183 17.1519 31.571 17.9342 31.162 18.5349C30.6655 19.264 29.9309 19.7255 29.1111 19.7255C28.2787 19.7255 27.534 19.2496 27.0374 18.5009C26.642 17.9048 26.4039 17.1359 26.4039 16.2965C26.4039 14.4026 27.616 12.8674 29.1111 12.8674C30.6062 12.8674 31.8183 14.4026 31.8183 16.2965Z" fill="#312107"/>
<circle cx="13.9599" cy="17.3884" r="0.00902196" fill="#46BC4A"/>
<path d="M13.9593 17.3934V17.3828H13.9599V17.3934H13.9593ZM13.9609 17.3863C13.9609 17.386 13.9608 17.3857 13.9605 17.3855C13.9603 17.3853 13.96 17.3852 13.9596 17.3852C13.9594 17.3852 13.9591 17.3853 13.959 17.3854C13.9588 17.3854 13.9586 17.3856 13.9585 17.3857C13.9584 17.3858 13.9584 17.386 13.9584 17.3862C13.9584 17.3863 13.9584 17.3865 13.9585 17.3866C13.9585 17.3867 13.9586 17.3868 13.9587 17.3869C13.9589 17.387 13.959 17.387 13.9591 17.3871C13.9593 17.3871 13.9594 17.3872 13.9596 17.3872L13.9603 17.3874C13.9606 17.3875 13.9609 17.3876 13.9612 17.3877C13.9615 17.3879 13.9617 17.3881 13.9619 17.3883C13.9621 17.3885 13.9623 17.3887 13.9624 17.389C13.9625 17.3892 13.9626 17.3895 13.9626 17.3899C13.9626 17.3904 13.9624 17.3909 13.9622 17.3912C13.962 17.3916 13.9616 17.3919 13.9612 17.3921C13.9608 17.3923 13.9602 17.3924 13.9596 17.3924C13.959 17.3924 13.9585 17.3923 13.958 17.3921C13.9576 17.3919 13.9572 17.3916 13.9569 17.3912C13.9567 17.3908 13.9566 17.3903 13.9565 17.3897H13.9581C13.9581 17.3899 13.9582 17.3902 13.9583 17.3904C13.9585 17.3906 13.9586 17.3907 13.9588 17.3908C13.9591 17.3909 13.9593 17.3909 13.9596 17.3909C13.9599 17.3909 13.9601 17.3909 13.9603 17.3908C13.9605 17.3907 13.9607 17.3906 13.9608 17.3904C13.9609 17.3903 13.9609 17.3901 13.9609 17.3899C13.9609 17.3897 13.9609 17.3895 13.9608 17.3894C13.9607 17.3893 13.9605 17.3892 13.9604 17.3891C13.9602 17.389 13.9599 17.3889 13.9596 17.3888L13.9588 17.3886C13.9582 17.3884 13.9577 17.3882 13.9573 17.3878C13.9569 17.3874 13.9567 17.3869 13.9567 17.3863C13.9567 17.3858 13.9569 17.3853 13.9571 17.385C13.9574 17.3846 13.9577 17.3843 13.9581 17.3841C13.9586 17.3839 13.9591 17.3838 13.9596 17.3838C13.9602 17.3838 13.9607 17.3839 13.9611 17.3841C13.9615 17.3843 13.9619 17.3846 13.9621 17.385C13.9623 17.3853 13.9625 17.3858 13.9625 17.3863H13.9609Z" fill="white"/>
<circle cx="29.1201" cy="17.3884" r="0.00902196" fill="#46BC4A"/>
<path d="M29.1195 17.3934V17.3828H29.1201V17.3934H29.1195ZM29.1211 17.3863C29.121 17.386 29.1209 17.3857 29.1207 17.3855C29.1205 17.3853 29.1202 17.3852 29.1198 17.3852C29.1195 17.3852 29.1193 17.3853 29.1191 17.3854C29.1189 17.3854 29.1188 17.3856 29.1187 17.3857C29.1186 17.3858 29.1186 17.386 29.1186 17.3862C29.1185 17.3863 29.1186 17.3865 29.1186 17.3866C29.1187 17.3867 29.1188 17.3868 29.1189 17.3869C29.119 17.387 29.1191 17.387 29.1193 17.3871C29.1194 17.3871 29.1196 17.3872 29.1198 17.3872L29.1204 17.3874C29.1208 17.3875 29.1211 17.3876 29.1214 17.3877C29.1216 17.3879 29.1219 17.3881 29.1221 17.3883C29.1223 17.3885 29.1224 17.3887 29.1226 17.389C29.1227 17.3892 29.1227 17.3895 29.1227 17.3899C29.1227 17.3904 29.1226 17.3909 29.1224 17.3912C29.1221 17.3916 29.1218 17.3919 29.1214 17.3921C29.1209 17.3923 29.1204 17.3924 29.1198 17.3924C29.1192 17.3924 29.1186 17.3923 29.1182 17.3921C29.1177 17.3919 29.1174 17.3916 29.1171 17.3912C29.1168 17.3908 29.1167 17.3903 29.1167 17.3897H29.1183C29.1183 17.3899 29.1183 17.3902 29.1185 17.3904C29.1186 17.3906 29.1188 17.3907 29.119 17.3908C29.1192 17.3909 29.1195 17.3909 29.1197 17.3909C29.12 17.3909 29.1203 17.3909 29.1205 17.3908C29.1207 17.3907 29.1208 17.3906 29.1209 17.3904C29.121 17.3903 29.1211 17.3901 29.1211 17.3899C29.1211 17.3897 29.121 17.3895 29.1209 17.3894C29.1208 17.3893 29.1207 17.3892 29.1205 17.3891C29.1203 17.389 29.1201 17.3889 29.1198 17.3888L29.119 17.3886C29.1183 17.3884 29.1178 17.3882 29.1175 17.3878C29.1171 17.3874 29.1169 17.3869 29.1169 17.3863C29.1169 17.3858 29.117 17.3853 29.1173 17.385C29.1175 17.3846 29.1179 17.3843 29.1183 17.3841C29.1187 17.3839 29.1192 17.3838 29.1198 17.3838C29.1204 17.3838 29.1208 17.3839 29.1213 17.3841C29.1217 17.3843 29.122 17.3846 29.1223 17.385C29.1225 17.3853 29.1226 17.3858 29.1226 17.3863H29.1211Z" fill="white"/>
<path d="M10.8828 31.5779C10.8828 28.9164 12.8367 27.2328 16.3006 26.7588C19.7645 26.2847 25.0936 26.2848 28.0246 26.7588C30.9556 27.2328 33.4425 28.3885 33.4425 31.5779C33.4425 34.8857 30.8668 35.7649 28.0246 36.397C25.1824 37.029 19.2316 37.029 16.3006 36.397C13.3697 35.7649 10.8828 34.2394 10.8828 31.5779Z" fill="#312107"/>
<path d="M13.59 28.904C13.59 28.3407 14.031 28.357 14.3068 28.1999C14.5826 28.0427 17.9732 27.4486 21.892 27.318C25.1101 27.2107 29.472 27.8356 29.7186 27.9182C29.9652 28.0008 30.5549 28.059 30.5549 28.5519L30.4952 30.0972C30.4952 30.3305 30.2152 30.7347 30.0173 30.7347H14.0679C13.8699 30.7347 13.7094 30.4047 13.7094 30.1714L13.59 28.904Z" fill="white"/>
<path d="M4.46117 9.38525C4.85991 8.59172 5.98244 8.31541 6.44655 8.27634C7.20206 8.21274 7.28924 8.73652 7.2374 9.24625C7.18556 9.75599 5.73106 17.6134 5.73106 17.6134L4.31509 10.8217C4.31509 10.8217 4.20801 9.88907 4.46117 9.38525Z" fill="#CCE3FD"/>
<path d="M4.86685 9.51355C5.06271 9.12781 5.61528 8.9941 5.84379 8.97538C6.21577 8.94491 6.25902 9.19974 6.23381 9.44765C6.2086 9.69556 5.49723 13.5166 5.49723 13.5166L4.79581 10.2121C4.79581 10.2121 4.7425 9.75846 4.86685 9.51355Z" fill="#E6F1FE"/>
<path d="M5.972 7.86936C6.45505 6.88887 7.8339 6.53791 8.40471 6.48533C9.33392 6.39972 9.4463 7.04351 9.38744 7.67136C9.32859 8.29921 7.61472 17.9837 7.61472 17.9837L5.80615 9.63861C5.80615 9.63861 5.66532 8.49188 5.972 7.86936Z" fill="#CCE3FD"/>
<path d="M6.47246 8.02339C6.70976 7.54675 7.38854 7.37683 7.66958 7.35158C8.1271 7.31047 8.1828 7.62367 8.15418 7.92903C8.12555 8.23438 7.28712 12.944 7.28712 12.944L6.3918 8.88387C6.3918 8.88387 6.32179 8.32601 6.47246 8.02339Z" fill="#E6F1FE"/>
<path d="M12.8959 34.9318C13.4645 34.7459 14.1873 34.913 14.5708 35.0029C15.1984 35.1501 15.1796 35.5636 15.1086 35.9911C15.0375 36.4185 13.4888 42.6366 13.4888 42.6366L12.621 35.8291C12.621 35.8291 12.4627 35.0735 12.8959 34.9318Z" fill="#CCE3FD"/>
<path d="M13.1103 35.5332C13.2963 35.2181 13.8526 35.3552 14.0465 35.3517C14.3621 35.3459 14.385 35.5633 14.3504 35.7712C14.3159 35.9791 13.5108 39.1662 13.5108 39.1662L13.0957 36.3394C13.0957 36.3394 12.9923 35.7332 13.1103 35.5332Z" fill="#E6F1FE"/>
<path d="M14.1524 35.417C14.5698 35.2759 15.1033 35.3937 15.3865 35.4571C15.8498 35.5608 15.839 35.8655 15.7898 36.1809C15.7406 36.4962 14.6456 41.0873 14.6456 41.0873L13.9565 36.0799C13.9565 36.0799 13.8343 35.5245 14.1524 35.417Z" fill="#CCE3FD"/>
<path d="M14.3146 35.8582C14.4492 35.6248 14.86 35.7217 15.0028 35.7177C15.2352 35.7111 15.2536 35.871 15.2297 36.0244C15.2058 36.1778 14.6363 38.531 14.6363 38.531L14.3098 36.4522C14.3098 36.4522 14.2291 36.0065 14.3146 35.8582Z" fill="#E6F1FE"/>
<path d="M16.8837 35.9554C17.3023 35.8179 17.8348 35.9403 18.1173 36.0062C18.5797 36.114 18.5663 36.4186 18.5144 36.7335C18.4625 37.0484 17.3276 41.6297 17.3276 41.6297L16.6821 36.6166C16.6821 36.6166 16.5647 36.0601 16.8837 35.9554Z" fill="#CCE3FD"/>
<path d="M17.0421 36.3981C17.1788 36.1659 17.5887 36.2664 17.7315 36.2635C17.964 36.259 17.981 36.4191 17.9557 36.5722C17.9305 36.7254 17.3406 39.0736 17.3406 39.0736L17.0321 36.992C17.0321 36.992 16.9554 36.5456 17.0421 36.3981Z" fill="#E6F1FE"/>
<path d="M24.4594 36.3454C24.8679 36.1803 25.4074 36.2668 25.6937 36.3136C26.1623 36.3902 26.1693 36.695 26.1386 37.0127C26.1078 37.3304 25.2821 41.9774 25.2821 41.9774L24.3025 37.0186C24.3025 37.0186 24.1482 36.4713 24.4594 36.3454Z" fill="#CCE3FD"/>
<path d="M24.6471 36.7765C24.7679 36.5356 25.1836 36.6085 25.3259 36.5961C25.5575 36.576 25.5852 36.7346 25.5703 36.8891C25.5553 37.0436 25.1238 39.426 25.1238 39.426L24.6768 37.3697C24.6768 37.3697 24.5704 36.9294 24.6471 36.7765Z" fill="#E6F1FE"/>
<path d="M27.204 35.7854C27.7531 35.551 28.4861 35.654 28.8752 35.7099C29.512 35.8014 29.5294 36.2141 29.4961 36.6453C29.4628 37.0764 28.4658 43.393 28.4658 43.393L27.0091 36.7014C27.0091 36.7014 26.7857 35.964 27.204 35.7854Z" fill="#CCE3FD"/>
<path d="M27.4696 36.3645C27.627 36.035 28.192 36.1228 28.3844 36.1023C28.6976 36.069 28.7393 36.2831 28.7231 36.4928C28.7069 36.7025 28.1848 39.9411 28.1848 39.9411L27.5254 37.1673C27.5254 37.1673 27.3697 36.5736 27.4696 36.3645Z" fill="#E6F1FE"/>
<path d="M39.7961 12.9957C40.5291 12.6978 40.186 12.8429 40.7003 12.926C41.0469 13.1328 41.1473 13.1167 41.419 13.7546C41.6908 14.3924 42.3235 16.3322 42.2699 17.0521C41.8185 19.6984 41.2039 23.204 41.2039 23.204L39.4288 14.302C39.4288 14.302 39.2376 13.2227 39.7961 12.9957Z" fill="#CCE3FD"/>
<path d="M40.0469 13.8664C40.2631 13.4334 40.4628 13.6109 40.7182 13.5883C41.1341 13.5514 41.4539 14.721 41.4275 14.9986C41.4012 15.2761 40.9116 18.623 40.9116 18.623L40.1022 14.9316C40.1022 14.9316 39.9096 14.1413 40.0469 13.8664Z" fill="#E6F1FE"/>
<path d="M32.9638 4.17252C33.0665 4.17907 33.1396 4.31124 33.41 4.46834C33.5937 4.57505 33.9844 4.87696 34.1294 4.9903C34.2744 5.10363 34.3612 5.16091 34.4399 5.34662C34.2188 6.7423 33.8135 9.48535 33.8135 9.48535L32.8241 4.81083C32.8241 4.81083 32.6471 4.15232 32.9638 4.17252Z" fill="#CCE3FD"/>
<path d="M33.2654 4.91219C33.3765 4.68296 33.4827 4.77517 33.617 4.76167C33.8357 4.73969 34.0112 5.35333 33.9991 5.49957C33.9869 5.6458 33.7499 7.41044 33.7499 7.41044L33.3011 5.47252C33.3011 5.47252 33.1948 5.05773 33.2654 4.91219Z" fill="#E6F1FE"/>
<path d="M19.4999 36.2696C19.7951 36.1698 20.1725 36.2531 20.3727 36.298C20.7005 36.3715 20.6928 36.587 20.658 36.81C20.6232 37.0331 19.8482 40.2803 19.8482 40.2803L19.3613 36.7384C19.3613 36.7384 19.2749 36.3456 19.4999 36.2696Z" fill="#CCE3FD"/>
<path d="M19.6146 36.5817C19.7099 36.4166 20.0004 36.4852 20.1014 36.4823C20.2658 36.4777 20.2788 36.5908 20.2619 36.6993C20.2449 36.8078 19.8419 38.4723 19.8419 38.4723L19.6111 37.0018C19.6111 37.0018 19.5541 36.6865 19.6146 36.5817Z" fill="#E6F1FE"/>
</g>
<path d="M13.8115 33.8547C13.8244 34.4178 14.2649 34.3914 14.5442 34.5422C14.8236 34.6931 18.2269 35.2096 22.1476 35.2507C25.3673 35.2845 29.7139 34.5601 29.9585 34.4719C30.2031 34.3837 30.7913 34.312 30.7801 33.8192L30.6851 32.2758C30.6797 32.0425 30.3906 31.6448 30.1928 31.6493L14.2475 32.0135C14.0496 32.0181 13.8967 32.3516 13.902 32.5849L13.8115 33.8547Z" fill="white"/>
</g>
<defs>
<filter id="filter0_d_103_187" x="0.497925" y="0.316772" width="45.3295" height="46.0762" filterUnits="userSpaceOnUse" color-interpolation-filters="sRGB">
<feFlood flood-opacity="0" result="BackgroundImageFix"/>
<feColorMatrix in="SourceAlpha" type="matrix" values="0 0 0 0 0 0 0 0 0 0 0 0 0 0 0 0 0 0 127 0" result="hardAlpha"/>
<feOffset dx="1" dy="1"/>
<feGaussianBlur stdDeviation="1"/>
<feComposite in2="hardAlpha" operator="out"/>
<feColorMatrix type="matrix" values="0 0 0 0 0 0 0 0 0 0 0 0 0 0 0 0 0 0 0.25 0"/>
<feBlend mode="normal" in2="BackgroundImageFix" result="effect1_dropShadow_103_187"/>
<feBlend mode="normal" in="SourceGraphic" in2="effect1_dropShadow_103_187" result="shape"/>
</filter>
<linearGradient id="paint0_linear_103_187" x1="22.1627" y1="1.31677" x2="22.1627" y2="42.6463" gradientUnits="userSpaceOnUse">
<stop stop-color="#7EE7FC"/>
<stop offset="1" stop-color="#006FEE"/>
</linearGradient>
<clipPath id="clip0_103_187">
<rect width="46" height="46" fill="white"/>
</clipPath>
</defs>
</svg>
