<svg width="47" height="47" viewBox="0 0 47 47" fill="none" xmlns="http://www.w3.org/2000/svg">
<g clip-path="url(#clip0_119_1394)">
<g filter="url(#filter0_d_119_1394)">
<mask id="path-1-outside-1_119_1394" maskUnits="userSpaceOnUse" x="0.124084" y="0.354065" width="44" height="44" fill="black">
<rect fill="white" x="0.124084" y="0.354065" width="44" height="44"/>
<path fill-rule="evenodd" clip-rule="evenodd" d="M42.056 22.32C42.056 33.3469 33.1169 42.286 22.09 42.286C11.0631 42.286 2.12408 33.3469 2.12408 22.32C2.12408 18.2779 3.32524 14.5164 5.39008 11.3728C5.34598 11.2514 5.32434 11.1204 5.32913 10.9855C5.3453 10.5297 5.65928 10.137 6.10251 10.0183L6.51457 9.82712C7.5728 8.50947 8.79478 7.32896 10.1496 6.31645L10.4456 5.12604C10.4802 4.68772 10.7892 4.31788 11.2164 4.2034C11.6437 4.08892 12.0962 4.25471 12.3453 4.61701L12.5166 4.79465C15.3589 3.23869 18.6212 2.35406 22.09 2.35406C25.5589 2.35406 28.8211 3.23869 31.6635 4.79464L31.8348 4.61701C32.0839 4.25471 32.5364 4.08892 32.9636 4.2034C33.3909 4.31788 33.6999 4.68772 33.7345 5.12604L34.0304 6.31642C35.3853 7.32894 36.6073 8.50948 37.6655 9.82715L38.0775 10.0183C38.5208 10.137 38.8348 10.5297 38.8509 10.9855C38.8557 11.1203 38.8341 11.2514 38.79 11.3728C40.8548 14.5164 42.056 18.2779 42.056 22.32Z"/>
</mask>
<path fill-rule="evenodd" clip-rule="evenodd" d="M42.056 22.32C42.056 33.3469 33.1169 42.286 22.09 42.286C11.0631 42.286 2.12408 33.3469 2.12408 22.32C2.12408 18.2779 3.32524 14.5164 5.39008 11.3728C5.34598 11.2514 5.32434 11.1204 5.32913 10.9855C5.3453 10.5297 5.65928 10.137 6.10251 10.0183L6.51457 9.82712C7.5728 8.50947 8.79478 7.32896 10.1496 6.31645L10.4456 5.12604C10.4802 4.68772 10.7892 4.31788 11.2164 4.2034C11.6437 4.08892 12.0962 4.25471 12.3453 4.61701L12.5166 4.79465C15.3589 3.23869 18.6212 2.35406 22.09 2.35406C25.5589 2.35406 28.8211 3.23869 31.6635 4.79464L31.8348 4.61701C32.0839 4.25471 32.5364 4.08892 32.9636 4.2034C33.3909 4.31788 33.6999 4.68772 33.7345 5.12604L34.0304 6.31642C35.3853 7.32894 36.6073 8.50948 37.6655 9.82715L38.0775 10.0183C38.5208 10.137 38.8348 10.5297 38.8509 10.9855C38.8557 11.1203 38.8341 11.2514 38.79 11.3728C40.8548 14.5164 42.056 18.2779 42.056 22.32Z" fill="white"/>
<path d="M5.39008 11.3728L6.96141 12.405C7.28706 11.9092 7.35964 11.2888 7.15722 10.7313L5.39008 11.3728ZM5.32913 10.9855L7.20795 11.0521L7.20795 11.0521L5.32913 10.9855ZM6.10251 10.0183L6.58909 11.8342C6.69359 11.8062 6.79547 11.7692 6.8936 11.7237L6.10251 10.0183ZM6.51457 9.82712L7.30566 11.5326C7.56823 11.4108 7.79913 11.23 7.98037 11.0043L6.51457 9.82712ZM10.1496 6.31645L11.275 7.82239C11.6225 7.56274 11.8695 7.19095 11.9741 6.77002L10.1496 6.31645ZM10.4456 5.12604L12.27 5.57961C12.295 5.47927 12.3116 5.37704 12.3197 5.27397L10.4456 5.12604ZM11.2164 4.2034L11.703 6.01934L11.703 6.01934L11.2164 4.2034ZM12.3453 4.61701L10.7962 5.68221C10.8548 5.76739 10.9202 5.84759 10.992 5.92201L12.3453 4.61701ZM12.5166 4.79465L11.1633 6.09964C11.7517 6.70985 12.6758 6.85078 13.4193 6.44373L12.5166 4.79465ZM31.6635 4.79464L30.7607 6.44372C31.5043 6.85077 32.4283 6.70984 33.0168 6.09964L31.6635 4.79464ZM31.8348 4.61701L33.188 5.92201C33.2598 5.8476 33.3253 5.76739 33.3839 5.68221L31.8348 4.61701ZM32.9636 4.2034L32.4771 6.01934L32.4771 6.01934L32.9636 4.2034ZM33.7345 5.12604L31.8603 5.27397C31.8684 5.37704 31.8851 5.47927 31.91 5.57961L33.7345 5.12604ZM34.0304 6.31642L32.2059 6.76999C32.3106 7.19091 32.5576 7.56271 32.905 7.82236L34.0304 6.31642ZM37.6655 9.82715L36.1997 11.0044C36.381 11.23 36.6119 11.4108 36.8745 11.5326L37.6655 9.82715ZM38.0775 10.0183L37.2865 11.7237C37.3846 11.7692 37.4865 11.8062 37.591 11.8342L38.0775 10.0183ZM38.8509 10.9855L40.7297 10.9188L40.7297 10.9188L38.8509 10.9855ZM38.79 11.3728L37.0228 10.7313C36.8204 11.2889 36.893 11.9092 37.2187 12.405L38.79 11.3728ZM22.09 44.166C34.1552 44.166 43.936 34.3852 43.936 22.32H40.176C40.176 32.3086 32.0786 40.406 22.09 40.406V44.166ZM0.244084 22.32C0.244084 34.3852 10.0249 44.166 22.09 44.166V40.406C12.1014 40.406 4.00408 32.3086 4.00408 22.32H0.244084ZM3.81874 10.3407C1.5587 13.7814 0.244084 17.9001 0.244084 22.32H4.00408C4.00408 18.6558 5.09177 15.2513 6.96141 12.405L3.81874 10.3407ZM3.45031 10.9188C3.43683 11.2988 3.49791 11.67 3.62293 12.0144L7.15722 10.7313C7.19406 10.8328 7.21185 10.9419 7.20795 11.0521L3.45031 10.9188ZM5.61593 8.20232C4.38152 8.53308 3.49602 9.63029 3.45031 10.9188L7.20795 11.0521C7.19457 11.4291 6.93703 11.741 6.58909 11.8342L5.61593 8.20232ZM5.72347 8.12167L5.31142 8.31281L6.8936 11.7237L7.30566 11.5326L5.72347 8.12167ZM9.02423 4.81051C7.54239 5.91791 6.20606 7.20891 5.04877 8.64991L7.98037 11.0043C8.93953 9.81004 10.0472 8.74 11.275 7.82239L9.02423 4.81051ZM8.62111 4.67247L8.32517 5.86288L11.9741 6.77002L12.27 5.57961L8.62111 4.67247ZM10.7298 2.38746C9.53977 2.70633 8.66916 3.73959 8.57141 4.97812L12.3197 5.27397C12.2912 5.63584 12.0385 5.92943 11.703 6.01934L10.7298 2.38746ZM13.8944 3.55182C13.1905 2.5281 11.9199 2.06858 10.7298 2.38746L11.703 6.01934C11.3674 6.10925 11.0019 5.98132 10.7962 5.68221L13.8944 3.55182ZM13.8699 3.48966L13.6986 3.31202L10.992 5.92201L11.1633 6.09964L13.8699 3.48966ZM22.09 0.474065C18.2978 0.474065 14.726 1.44192 11.6139 3.14557L13.4193 6.44373C15.9919 5.03546 18.9446 4.23406 22.09 4.23406V0.474065ZM32.5662 3.14556C29.4541 1.44192 25.8823 0.474065 22.09 0.474065V4.23406C25.2355 4.23406 28.1882 5.03545 30.7607 6.44372L32.5662 3.14556ZM33.0168 6.09964L33.188 5.92201L30.4815 3.31202L30.3102 3.48964L33.0168 6.09964ZM33.3839 5.68221C33.1782 5.98131 32.8126 6.10925 32.4771 6.01934L33.4502 2.38746C32.2602 2.06858 30.9896 2.52811 30.2856 3.55181L33.3839 5.68221ZM32.4771 6.01934C32.1415 5.92943 31.8889 5.63584 31.8603 5.27397L35.6086 4.97811C35.5109 3.73959 34.6403 2.70633 33.4502 2.38746L32.4771 6.01934ZM31.91 5.57961L32.2059 6.76999L35.8549 5.86285L35.5589 4.67247L31.91 5.57961ZM39.1313 8.64994C37.974 7.20891 36.6377 5.91789 35.1558 4.81048L32.905 7.82236C34.1329 8.73998 35.2406 9.81004 36.1997 11.0044L39.1313 8.64994ZM36.8745 11.5326L37.2865 11.7237L38.8686 8.3128L38.4566 8.1217L36.8745 11.5326ZM37.591 11.8342C37.243 11.741 36.9855 11.4291 36.9721 11.0521L40.7297 10.9188C40.684 9.63029 39.7985 8.53308 38.5641 8.20232L37.591 11.8342ZM36.9721 11.0521C36.9682 10.9419 36.986 10.8328 37.0228 10.7313L40.5572 12.0143C40.6822 11.67 40.7432 11.2987 40.7297 10.9188L36.9721 11.0521ZM43.936 22.32C43.936 17.9 42.6214 13.7814 40.3613 10.3407L37.2187 12.405C39.0883 15.2513 40.176 18.6558 40.176 22.32H43.936Z" fill="white" mask="url(#path-1-outside-1_119_1394)"/>
<circle cx="22.09" cy="22.32" r="19.966" fill="url(#paint0_linear_119_1394)"/>
<path d="M22.09 33.135C28.7107 33.135 34.2181 28.4341 35.3672 22.2323C35.6108 20.9175 34.4888 19.8243 33.1334 19.8243H11.0466C9.69124 19.8243 8.56919 20.9175 8.8128 22.2323C9.96191 28.4341 15.4693 33.135 22.09 33.135Z" fill="#312107"/>
<path d="M31.1259 29.7126C28.7335 31.84 25.5652 33.135 22.0902 33.135C18.6151 33.135 15.4467 31.8399 13.0543 29.7124C13.7519 26.9367 17.5318 24.8159 22.09 24.8159C26.6485 24.8159 30.4284 26.9368 31.1259 29.7126Z" fill="#F54180"/>
<path d="M12.121 4.23145C11.8719 3.86915 11.4194 3.70335 10.9921 3.81784C10.5649 3.93232 10.2559 4.30215 10.2213 4.74048L9.41264 7.99322L5.87822 9.6327C5.43499 9.75146 5.12101 10.1441 5.10484 10.5999C5.08867 11.0557 5.37412 11.4673 5.80794 11.6139L9.24222 13.3991L9.28302 16.628C9.24789 17.073 9.50331 17.4894 9.91692 17.6615C10.3305 17.8335 10.8094 17.7225 11.1053 17.386L13.8051 14.3161L17.6782 15.6248C18.1027 15.7683 18.5729 15.625 18.8451 15.2692C19.1173 14.9134 19.1303 14.425 18.8773 14.0572L17.2981 11.2405L19.3798 7.97736C19.6822 7.6335 19.7236 7.13425 19.4817 6.74763C19.2398 6.36101 18.7716 6.17794 18.3283 6.2967L14.4476 6.64411L12.121 4.23145Z" fill="url(#paint1_linear_119_1394)"/>
<path d="M32.1083 4.23145C32.3574 3.86915 32.8099 3.70335 33.2372 3.81784C33.6644 3.93232 33.9734 4.30215 34.008 4.74048L34.8167 7.99322L38.3511 9.6327C38.7943 9.75146 39.1083 10.1441 39.1245 10.5999C39.1406 11.0557 38.8552 11.4673 38.4214 11.6139L34.9871 13.3991L34.9463 16.628C34.9814 17.073 34.726 17.4894 34.3124 17.6615C33.8988 17.8335 33.4199 17.7225 33.124 17.386L30.4242 14.3161L26.5511 15.6248C26.1266 15.7683 25.6564 15.625 25.3842 15.2692C25.112 14.9134 25.099 14.425 25.352 14.0572L26.9312 11.2405L24.8495 7.97736C24.5471 7.6335 24.5057 7.13425 24.7476 6.74763C24.9895 6.36101 25.4578 6.17794 25.901 6.2967L29.7817 6.64411L32.1083 4.23145Z" fill="url(#paint2_linear_119_1394)"/>
</g>
</g>
<defs>
<filter id="filter0_d_119_1394" x="-1.3117" y="-0.46594" width="48.6834" height="47.452" filterUnits="userSpaceOnUse" color-interpolation-filters="sRGB">
<feFlood flood-opacity="0" result="BackgroundImageFix"/>
<feColorMatrix in="SourceAlpha" type="matrix" values="0 0 0 0 0 0 0 0 0 0 0 0 0 0 0 0 0 0 127 0" result="hardAlpha"/>
<feOffset dx="0.94" dy="0.94"/>
<feGaussianBlur stdDeviation="0.94"/>
<feComposite in2="hardAlpha" operator="out"/>
<feColorMatrix type="matrix" values="0 0 0 0 0 0 0 0 0 0 0 0 0 0 0 0 0 0 0.25 0"/>
<feBlend mode="normal" in2="BackgroundImageFix" result="effect1_dropShadow_119_1394"/>
<feBlend mode="normal" in="SourceGraphic" in2="effect1_dropShadow_119_1394" result="shape"/>
</filter>
<linearGradient id="paint0_linear_119_1394" x1="22.09" y1="2.35406" x2="22.09" y2="42.286" gradientUnits="userSpaceOnUse">
<stop stop-color="#FCF050"/>
<stop offset="1" stop-color="#F1BE3A"/>
</linearGradient>
<linearGradient id="paint1_linear_119_1394" x1="10.9921" y1="3.81784" x2="14.4372" y2="16.6749" gradientUnits="userSpaceOnUse">
<stop stop-color="#FF4ECD"/>
<stop offset="1" stop-color="#9353D3"/>
</linearGradient>
<linearGradient id="paint2_linear_119_1394" x1="33.2372" y1="3.81784" x2="29.7921" y2="16.6749" gradientUnits="userSpaceOnUse">
<stop stop-color="#FF4ECD"/>
<stop offset="1" stop-color="#9353D3"/>
</linearGradient>
<clipPath id="clip0_119_1394">
<rect width="47" height="47" fill="white"/>
</clipPath>
</defs>
</svg>
